<svg width="260" height="261" viewBox="0 0 260 261" fill="none" xmlns="http://www.w3.org/2000/svg">
<path d="M47.4058 36.2667C47.4058 24.5667 36.8321 15.3356 24.7187 17.6096C17.0997 19.0396 11.0276 25.2619 9.69332 32.8986C8.85924 37.6717 9.84413 42.1619 12.0214 45.868H12.011L12.065 45.9392C12.7941 47.1674 13.7067 48.0452 14.6292 49.3358L25.663 63.952C27.0358 65.771 29.7679 65.7704 31.1407 63.952L41.991 49.5771C41.991 49.5771 44.0164 47.1622 44.7512 45.9205L44.7902 45.8685H44.7824C46.4396 43.048 47.4058 39.7741 47.4058 36.2667ZM28.4024 44.5409C23.7838 44.5409 20.0392 40.7964 20.0392 36.1778C20.0392 31.5591 23.7838 27.8146 28.4024 27.8146C33.0216 27.8146 36.7656 31.5591 36.7656 36.1778C36.7656 40.7964 33.0216 44.5409 28.4024 44.5409Z" fill="#F5F5F5"/>
<path d="M252.388 151.529C252.388 146.371 247.727 142.302 242.387 143.305C239.028 143.935 236.351 146.678 235.763 150.045C235.395 152.149 235.829 154.128 236.789 155.762H236.785L236.808 155.794C237.13 156.335 237.532 156.722 237.939 157.291L242.803 163.734C243.408 164.536 244.613 164.536 245.218 163.734L250.001 157.397C250.001 157.397 250.894 156.333 251.218 155.785L251.235 155.762H251.232C251.962 154.519 252.388 153.075 252.388 151.529ZM244.01 155.177C241.974 155.177 240.324 153.527 240.324 151.49C240.324 149.454 241.974 147.804 244.01 147.804C246.047 147.804 247.697 149.454 247.697 151.49C247.697 153.527 246.047 155.177 244.01 155.177Z" fill="#F5F5F5"/>
<path d="M223.498 217.609C231.69 209.417 231.69 196.135 223.498 187.943C215.306 179.751 202.025 179.751 193.833 187.943C185.641 196.135 185.641 209.417 193.833 217.609C202.025 225.801 215.306 225.801 223.498 217.609Z" fill="#F5F5F5"/>
<path d="M208.67 220.235C199.043 220.235 191.211 212.403 191.211 202.775C191.211 193.148 199.043 185.316 208.67 185.316C218.298 185.316 226.13 193.148 226.13 202.775C226.13 212.403 218.298 220.235 208.67 220.235ZM208.67 188.304C200.691 188.304 194.199 194.796 194.199 202.776C194.199 210.756 200.691 217.247 208.67 217.247C216.65 217.247 223.142 210.756 223.142 202.776C223.142 194.796 216.65 188.304 208.67 188.304Z" fill="white"/>
<path d="M208.551 208.744C205.006 208.744 202.121 205.86 202.121 202.315C202.121 198.769 205.006 195.884 208.551 195.884C212.097 195.884 214.982 198.769 214.982 202.315C214.982 205.86 212.097 208.744 208.551 208.744ZM208.551 198.872C206.653 198.872 205.109 200.417 205.109 202.315C205.109 204.213 206.653 205.756 208.551 205.756C210.449 205.756 211.994 204.212 211.994 202.315C211.994 200.417 210.45 198.872 208.551 198.872Z" fill="white"/>
<path d="M208.552 202.315H200.424L201.842 204.822L182.711 213.59L183.357 214.666L202.551 206L203.867 208.49L208.552 202.315Z" fill="#E0E0E0"/>
<path d="M182.711 213.59L182.507 213.392C181.504 212.415 180.053 212.053 178.709 212.444L171.078 214.666L175.328 216.533L173.62 221.073L180.78 218.52C182.394 217.944 183.441 216.378 183.356 214.666L182.711 213.59Z" fill="#E0E0E0"/>
<path d="M90.1373 217.99C90.1394 217.986 90.1924 217.969 90.2943 217.938C90.4072 217.905 90.5559 217.862 90.7457 217.806C91.1534 217.689 91.7352 217.524 92.4846 217.31C94.0066 216.882 96.2083 216.265 98.9866 215.485L98.9284 215.589C98.5956 214.475 98.2222 213.225 97.8218 211.886L97.8036 211.825L97.8556 211.782C99.4848 210.422 101.088 208.634 102.39 206.446C103.038 205.349 103.554 204.123 103.908 202.811C104.278 201.498 104.328 200.071 104.153 198.65C103.711 195.817 102.269 192.932 99.88 190.851C97.5218 188.755 94.3727 187.366 91.028 187.041C88.5346 186.798 86.0516 187.372 83.9186 188.463C81.757 189.509 79.9432 191.091 78.6229 192.92C77.2902 194.753 76.5882 196.898 76.3448 198.974C76.3141 199.497 76.2314 200.013 76.2434 200.526C76.258 201.04 76.2725 201.548 76.2871 202.049C76.3817 203.047 76.5419 204.016 76.8071 204.931C77.0806 205.843 77.4363 206.701 77.8648 207.49C78.3016 208.274 78.8143 208.982 79.3644 209.616C80.472 210.883 81.746 211.829 82.9857 212.538C85.4833 213.951 87.7947 214.523 89.4353 214.768L89.4727 214.774L89.48 214.808C89.6963 215.839 89.8617 216.626 89.9761 217.169C90.0286 217.429 90.0697 217.63 90.0993 217.778C90.1269 217.915 90.1394 217.986 90.1373 217.99C90.1352 217.993 90.1175 217.93 90.0848 217.799C90.0499 217.655 90.0021 217.46 89.9407 217.207C89.8118 216.66 89.6256 215.867 89.3812 214.829L89.4254 214.868C87.763 214.647 85.4365 214.098 82.8994 212.69C81.641 211.983 80.3436 211.033 79.21 209.752C78.6474 209.11 78.1216 208.393 77.6729 207.596C77.2324 206.795 76.8664 205.922 76.584 204.996C76.3105 204.065 76.1436 203.082 76.0437 202.068C76.0276 201.559 76.011 201.044 75.9938 200.523C75.9798 200.002 76.0614 199.476 76.0916 198.943C76.3323 196.831 77.0442 194.637 78.4014 192.762C79.7456 190.892 81.5937 189.278 83.7933 188.211C85.9586 187.098 88.505 186.508 91.0535 186.757C94.4626 187.088 97.6612 188.501 100.065 190.643C101.269 191.71 102.271 192.969 102.983 194.341C103.19 194.67 103.324 195.032 103.479 195.38C103.632 195.73 103.791 196.076 103.888 196.442C103.998 196.803 104.116 197.159 104.216 197.517C104.282 197.885 104.347 198.25 104.412 198.613C104.588 200.071 104.53 201.534 104.148 202.872C103.783 204.208 103.252 205.453 102.591 206.562C101.26 208.776 99.6408 210.564 97.9768 211.935L98.0101 211.831C98.4006 213.173 98.7651 214.425 99.0901 215.542L99.114 215.625L99.0319 215.646C96.2218 216.393 93.9946 216.985 92.456 217.395C91.7098 217.59 91.131 217.74 90.7249 217.847C90.5392 217.893 90.3936 217.93 90.2834 217.958C90.1841 217.983 90.1352 217.993 90.1373 217.99Z" fill="#E0E0E0"/>
<path d="M99.8106 217.996C99.8314 218.072 97.8075 218.692 95.2907 219.381C92.7729 220.07 90.7163 220.567 90.6955 220.492C90.6747 220.416 92.698 219.796 95.2158 219.107C97.7321 218.418 99.7898 217.921 99.8106 217.996Z" fill="#E0E0E0"/>
<path d="M97.8003 222.249C97.8295 222.319 97.1477 222.663 96.2377 222.88C95.3277 223.1 94.5644 223.103 94.5587 223.027C94.5509 222.946 95.2841 222.818 96.1712 222.603C97.0588 222.392 97.7707 222.174 97.8003 222.249Z" fill="#E0E0E0"/>
<path d="M91.9955 217.482C91.9908 217.483 91.9736 217.433 91.945 217.334C91.9133 217.219 91.8738 217.074 91.8244 216.893C91.7194 216.484 91.5727 215.914 91.3871 215.19C91.0142 213.688 90.4838 211.55 89.8302 208.917C89.5052 207.59 89.1495 206.139 88.7684 204.582C88.6753 204.205 88.5422 203.82 88.3118 203.51C88.0986 203.191 87.6951 203.026 87.3633 203.194C87.0362 203.355 86.8782 203.788 86.8745 204.186C86.8652 204.593 87.0612 204.985 87.3384 205.305C87.9031 205.949 88.8573 206.225 89.7449 206.104C90.6471 205.995 91.4417 205.357 91.8546 204.506C92.2815 203.662 92.3808 202.638 92.1556 201.686C92.0428 201.212 91.8551 200.735 91.5093 200.414C91.1832 200.097 90.6227 199.983 90.2628 200.241C89.902 200.499 89.8416 201.068 90.0283 201.482C90.2171 201.917 90.6014 202.252 90.9992 202.546C91.7942 203.135 92.711 203.572 93.6584 203.643C94.129 203.677 94.6038 203.618 95.0224 203.439C95.44 203.254 95.8118 202.967 96.0858 202.611C96.3619 202.259 96.545 201.834 96.5658 201.404C96.5923 200.974 96.4576 200.544 96.1726 200.238C95.8976 199.929 95.479 199.755 95.1061 199.872C94.7322 199.981 94.4504 200.326 94.3162 200.694C94.0583 201.46 94.2861 202.312 94.3776 203.094C94.6293 204.675 94.9127 206.142 95.1716 207.481C95.7088 210.14 96.1446 212.298 96.4508 213.815C96.599 214.547 96.7155 215.123 96.7992 215.537C96.8341 215.721 96.8616 215.869 96.884 215.986C96.9017 216.088 96.9084 216.14 96.9032 216.141C96.8986 216.142 96.8824 216.092 96.8554 215.993C96.8263 215.877 96.7894 215.731 96.7431 215.55C96.6469 215.138 96.5127 214.566 96.3422 213.839C96.0042 212.351 95.5226 210.195 94.974 207.521C94.7021 206.184 94.4072 204.718 94.1441 203.132C94.0864 202.732 94.0172 202.332 93.9751 201.912C93.9351 201.495 93.9278 201.045 94.0807 200.61C94.2346 200.186 94.5513 199.775 95.0328 199.627C95.52 199.473 96.0484 199.704 96.3656 200.063C96.7015 200.42 96.8627 200.928 96.832 201.419C96.8086 201.914 96.6022 202.39 96.3 202.778C95.9984 203.172 95.5939 203.486 95.1316 203.693C94.662 203.894 94.1452 203.957 93.6382 203.922C92.6158 203.846 91.657 203.384 90.8302 202.774C90.422 202.47 89.9956 202.113 89.7673 201.595C89.5458 201.091 89.5894 200.393 90.0964 200.011C90.6175 199.655 91.2982 199.824 91.7012 200.206C92.1151 200.594 92.309 201.119 92.4302 201.621C92.6689 202.638 92.5633 203.723 92.1026 204.633C91.6627 205.545 90.7756 206.258 89.7824 206.374C88.8126 206.501 87.7793 206.206 87.1413 205.48C86.8334 205.125 86.6057 204.666 86.6176 204.185C86.6291 203.727 86.7918 203.209 87.2526 202.971C87.4782 202.857 87.7398 202.856 87.967 202.938C88.1984 203.019 88.3742 203.187 88.5052 203.365C88.7673 203.725 88.8999 204.132 88.9966 204.529C89.3658 206.089 89.7101 207.543 90.0247 208.873C90.6414 211.514 91.1416 213.659 91.4937 215.166C91.6575 215.895 91.7864 216.469 91.879 216.881C91.917 217.064 91.9482 217.212 91.9721 217.329C91.9924 217.428 92.0002 217.481 91.9955 217.482Z" fill="#E0E0E0"/>
<path d="M99.4782 219.94C99.499 220.016 97.86 220.53 95.8179 221.088C93.7754 221.646 92.103 222.037 92.0822 221.961C92.0614 221.885 93.7005 221.371 95.743 220.813C97.7851 220.256 99.4574 219.865 99.4782 219.94Z" fill="#E0E0E0"/>
<path d="M240.833 243.951C240.833 244.026 191.207 244.086 130.004 244.086C68.7793 244.086 19.1641 244.025 19.1641 243.951C19.1641 243.876 68.7799 243.816 130.004 243.816C191.207 243.815 240.833 243.876 240.833 243.951Z" fill="#263238"/>
<path d="M231.681 34.7795H28.4375V47.7992H231.681V34.7795Z" fill="#E0E0E0"/>
<path d="M231.649 59.7603H28.4062V173.744H231.649V59.7603Z" fill="white"/>
<path d="M28.4375 47.702H56.3433L59.1087 39.6487H104.345L107.11 47.702H231.681V60.0317H28.4375V47.702Z" fill="#EBEBEB"/>
<path d="M35.1443 39.9706C35.1443 40.814 34.4605 41.4978 33.6171 41.4978C32.7736 41.4978 32.0898 40.814 32.0898 39.9706C32.0898 39.1272 32.7736 38.4434 33.6171 38.4434C34.4605 38.4428 35.1443 39.1266 35.1443 39.9706Z" fill="#263238"/>
<path d="M39.8709 39.9706C39.8709 40.814 39.1871 41.4978 38.3436 41.4978C37.5002 41.4978 36.8164 40.814 36.8164 39.9706C36.8164 39.1272 37.5002 38.4434 38.3436 38.4434C39.1871 38.4428 39.8709 39.1266 39.8709 39.9706Z" fill="#263238"/>
<path d="M44.5974 39.9706C44.5974 40.814 43.9136 41.4978 43.0702 41.4978C42.2268 41.4978 41.543 40.814 41.543 39.9706C41.543 39.1272 42.2268 38.4434 43.0702 38.4434C43.9136 38.4428 44.5974 39.1266 44.5974 39.9706Z" fill="#263238"/>
<path d="M209.214 57.5799H69.7761C67.6389 57.5799 65.9062 55.8473 65.9062 53.7101C65.9062 51.5729 67.6389 49.8402 69.7761 49.8402H209.215C211.352 49.8402 213.084 51.5729 213.084 53.7101C213.084 55.8478 211.352 57.5799 209.214 57.5799Z" fill="#FAFAFA"/>
<path d="M73.1116 54.2259V55.5332H72.4497V54.3278C72.4497 53.9586 72.2796 53.7886 71.9869 53.7886C71.6686 53.7886 71.4393 53.9836 71.4393 54.4043V55.5332H70.7773V52.3835H71.4393V53.4875C71.6177 53.3091 71.8725 53.2161 72.1652 53.2161C72.7045 53.2155 73.1116 53.5296 73.1116 54.2259Z" fill="#E0E0E0"/>
<path d="M75.186 55.4229C75.0503 55.5207 74.8506 55.5675 74.6468 55.5675C74.1075 55.5675 73.7934 55.2914 73.7934 54.748V53.8099H73.4414V53.3008H73.7934V52.7449H74.4559V53.3008H75.0248V53.8099H74.4559V54.7397C74.4559 54.9347 74.562 55.0413 74.7404 55.0413C74.8381 55.0413 74.9359 55.0116 75.0077 54.956L75.186 55.4229Z" fill="#E0E0E0"/>
<path d="M76.979 55.4229C76.8433 55.5207 76.6436 55.5675 76.4397 55.5675C75.9005 55.5675 75.5864 55.2914 75.5864 54.748V53.8099H75.2344V53.3008H75.5864V52.7449H76.2489V53.3008H76.8178V53.8099H76.2489V54.7397C76.2489 54.9347 76.355 55.0413 76.5333 55.0413C76.6311 55.0413 76.7289 55.0116 76.8006 54.956L76.979 55.4229Z" fill="#E0E0E0"/>
<path d="M79.8426 54.3913C79.8426 55.1083 79.346 55.567 78.7049 55.567C78.4204 55.567 78.1869 55.4781 78.0174 55.2909V56.3563H77.3555V53.2488H77.9878V53.5119C78.1532 53.3123 78.3996 53.215 78.7049 53.215C79.346 53.2155 79.8426 53.6737 79.8426 54.3913ZM79.1718 54.3913C79.1718 53.9966 78.9217 53.7589 78.5905 53.7589C78.2592 53.7589 78.0086 53.9966 78.0086 54.3913C78.0086 54.7859 78.2592 55.0236 78.5905 55.0236C78.9217 55.0236 79.1718 54.7859 79.1718 54.3913Z" fill="#E0E0E0"/>
<path d="M80.1211 53.6269C80.1211 53.3809 80.3036 53.2192 80.5329 53.2192C80.7622 53.2192 80.9448 53.3809 80.9448 53.6269C80.9448 53.8687 80.7622 54.0429 80.5329 54.0429C80.3036 54.0434 80.1211 53.8692 80.1211 53.6269ZM80.1211 55.151C80.1211 54.905 80.3036 54.7433 80.5329 54.7433C80.7622 54.7433 80.9448 54.905 80.9448 55.151C80.9448 55.3928 80.7622 55.567 80.5329 55.567C80.3036 55.567 80.1211 55.3928 80.1211 55.151Z" fill="#E0E0E0"/>
<path d="M82.5767 51.9587H83.1669L81.766 55.9575H81.1758L82.5767 51.9587Z" fill="#E0E0E0"/>
<path d="M83.9321 51.9587H84.5223L83.1214 55.9575H82.5312L83.9321 51.9587Z" fill="#E0E0E0"/>
<path d="M209.091 80.2581H87.6054C83.8172 80.2581 80.7461 77.187 80.7461 73.3988C80.7461 69.6106 83.8172 66.5395 87.6054 66.5395H209.091C212.879 66.5395 215.95 69.6106 215.95 73.3988C215.95 77.187 212.879 80.2581 209.091 80.2581Z" fill="#FAFAFA"/>
<path d="M209.089 80.2581C209.071 80.2009 210.138 80.3824 211.897 79.6227C212.747 79.2233 213.77 78.5603 214.581 77.4288C214.987 76.8698 215.35 76.2078 215.588 75.446C215.822 74.6847 215.935 73.8304 215.873 72.9344C215.811 72.04 215.566 71.1045 215.101 70.2231C214.64 69.3402 213.938 68.5311 213.056 67.8904C212.179 67.2404 211.085 66.8161 209.914 66.6653C209.329 66.5993 208.72 66.6107 208.099 66.6133C207.479 66.6143 206.847 66.6149 206.205 66.6159C201.063 66.6216 195.21 66.6284 188.739 66.6357C162.853 66.6461 127.1 66.6601 87.6109 66.6752C86.404 66.6944 85.1908 66.9934 84.1654 67.6289C83.1243 68.2362 82.2809 69.1447 81.6969 70.1857C80.5503 72.287 80.6231 74.9889 81.9164 76.9743C82.5331 77.98 83.441 78.7896 84.4664 79.345C85.507 79.8842 86.6681 80.1583 87.8402 80.1245C90.2078 80.125 92.5566 80.125 94.8846 80.1255C104.197 80.1281 113.179 80.1307 121.735 80.1333C138.848 80.1442 154.258 80.1541 167.201 80.1624C180.139 80.1806 190.61 80.1952 197.851 80.2056C201.467 80.2165 204.275 80.2253 206.185 80.2311C207.134 80.2368 207.859 80.2415 208.352 80.2446C208.839 80.2487 209.089 80.2581 209.089 80.2581C209.089 80.2581 208.839 80.2675 208.351 80.2721C207.858 80.2753 207.133 80.2799 206.183 80.2857C204.274 80.2914 201.465 80.3002 197.85 80.3111C190.608 80.3215 180.138 80.3361 167.199 80.3543C154.256 80.3626 138.846 80.3725 121.734 80.3834C113.177 80.386 104.195 80.3886 94.8831 80.3912C92.5551 80.3917 90.2067 80.3923 87.8386 80.3923C86.6395 80.4276 85.417 80.1437 84.3396 79.5826C83.2725 79.0059 82.3293 78.1635 81.6871 77.1183C80.3423 75.0524 80.2643 72.2439 81.4583 70.0568C82.0656 68.9736 82.9429 68.0298 84.0255 67.3969C85.092 66.7365 86.3551 66.424 87.6099 66.4048C127.099 66.4204 162.852 66.4344 188.738 66.4443C195.209 66.4516 201.062 66.4583 206.204 66.4641C206.846 66.4651 207.478 66.4661 208.098 66.4667C208.716 66.4661 209.328 66.4557 209.93 66.5254C211.125 66.6825 212.239 67.1198 213.131 67.7854C214.027 68.4416 214.738 69.2679 215.203 70.168C215.673 71.0666 215.918 72.0187 215.977 72.9271C216.036 73.8366 215.917 74.7029 215.676 75.4736C215.431 76.2447 215.059 76.9129 214.645 77.4761C213.817 78.6159 212.78 79.2774 211.918 79.6721C211.042 80.0636 210.31 80.1676 209.828 80.2305C209.339 80.2581 209.089 80.2581 209.089 80.2581Z" fill="#263238"/>
<path d="M90.3867 74.8594L90.6457 74.2848C90.9239 74.4876 91.3383 74.6291 91.7346 74.6291C92.187 74.6291 92.371 74.4783 92.371 74.2755C92.371 73.6582 90.4528 74.082 90.4528 72.8569C90.4528 72.2958 90.9052 71.8294 91.8432 71.8294C92.2577 71.8294 92.682 71.9282 92.9883 72.1216L92.7527 72.7014C92.4464 72.5267 92.1308 72.442 91.8386 72.442C91.3862 72.442 91.2114 72.6115 91.2114 72.819C91.2114 73.4268 93.1297 73.0072 93.1297 74.2188C93.1297 74.77 92.6726 75.2416 91.7299 75.2416C91.2068 75.2411 90.679 75.0856 90.3867 74.8594Z" fill="#E0E0E0"/>
<path d="M96.0718 74.1242H94.1535C94.2242 74.4398 94.4931 74.6333 94.8794 74.6333C95.1483 74.6333 95.3412 74.5532 95.5159 74.3883L95.9075 74.8127C95.6714 75.0815 95.3183 75.2224 94.8612 75.2224C93.9845 75.2224 93.4141 74.6712 93.4141 73.9172C93.4141 73.158 93.9939 72.6115 94.7666 72.6115C95.5112 72.6115 96.0863 73.1112 96.0863 73.9266C96.0858 73.9827 96.0765 74.0628 96.0718 74.1242ZM94.1441 73.6952H95.3932C95.3412 73.3749 95.1009 73.1674 94.7713 73.1674C94.4364 73.1674 94.1956 73.3702 94.1441 73.6952Z" fill="#E0E0E0"/>
<path d="M98.7519 73.7378V75.185H98.0639V74.8693C97.9271 75.1002 97.6635 75.2229 97.2912 75.2229C96.6973 75.2229 96.3438 74.8932 96.3438 74.4549C96.3438 74.0072 96.6594 73.6957 97.4326 73.6957H98.0171C98.0171 73.38 97.8289 73.1965 97.4326 73.1965C97.1638 73.1965 96.8861 73.2859 96.702 73.432L96.4379 72.9183C96.7161 72.7207 97.1258 72.612 97.5314 72.612C98.3041 72.6115 98.7519 72.9698 98.7519 73.7378ZM98.0166 74.3831V74.1242H97.5122C97.1679 74.1242 97.0598 74.2516 97.0598 74.4211C97.0598 74.6052 97.2153 74.7274 97.4748 74.7274C97.7197 74.7274 97.9318 74.6145 98.0166 74.3831Z" fill="#E0E0E0"/>
<path d="M100.991 72.6115V73.2901C100.93 73.2854 100.883 73.2808 100.827 73.2808C100.421 73.2808 100.153 73.5023 100.153 73.9874V75.1845H99.418V72.6484H100.12V72.9833C100.299 72.7384 100.6 72.6115 100.991 72.6115Z" fill="#E0E0E0"/>
<path d="M101.219 73.9167C101.219 73.1533 101.808 72.611 102.633 72.611C103.165 72.611 103.585 72.8418 103.768 73.2568L103.198 73.5631C103.061 73.3228 102.859 73.2147 102.627 73.2147C102.255 73.2147 101.963 73.4742 101.963 73.9172C101.963 74.3602 102.255 74.6192 102.627 74.6192C102.858 74.6192 103.061 74.5157 103.198 74.2708L103.768 74.5818C103.584 74.9868 103.165 75.2224 102.633 75.2224C101.807 75.2224 101.219 74.6806 101.219 73.9167Z" fill="#E0E0E0"/>
<path d="M106.768 73.7331V75.185H106.033V73.8465C106.033 73.4367 105.844 73.248 105.519 73.248C105.165 73.248 104.911 73.4648 104.911 73.9313V75.185H104.176V71.688H104.911V72.9131C105.109 72.715 105.392 72.6115 105.717 72.6115C106.316 72.6115 106.768 72.9599 106.768 73.7331Z" fill="#E0E0E0"/>
<path d="M108.59 74.7601C108.59 74.4871 108.793 74.3077 109.047 74.3077C109.301 74.3077 109.504 74.4871 109.504 74.7601C109.504 75.029 109.301 75.2219 109.047 75.2219C108.793 75.2224 108.59 75.029 108.59 74.7601Z" fill="#E0E0E0"/>
<path d="M109.824 74.7601C109.824 74.4871 110.027 74.3077 110.281 74.3077C110.536 74.3077 110.738 74.4871 110.738 74.7601C110.738 75.029 110.536 75.2219 110.281 75.2219C110.027 75.2224 109.824 75.029 109.824 74.7601Z" fill="#E0E0E0"/>
<path d="M111.059 74.7601C111.059 74.4871 111.261 74.3077 111.516 74.3077C111.77 74.3077 111.973 74.4871 111.973 74.7601C111.973 75.029 111.77 75.2219 111.516 75.2219C111.261 75.2224 111.059 75.029 111.059 74.7601Z" fill="#E0E0E0"/>
<path d="M66.5961 92.1979C66.5961 92.2728 61.72 92.3331 55.7068 92.3331C49.6914 92.3331 44.8164 92.2722 44.8164 92.1979C44.8164 92.123 49.6914 92.0627 55.7068 92.0627C61.7206 92.0622 66.5961 92.123 66.5961 92.1979Z" fill="black"/>
<path d="M67.4497 98.4202H44.8203V121.05H67.4497V98.4202Z" fill="#FF6477"/>
<path d="M204.963 103.754C204.963 103.829 176.872 103.89 142.228 103.89C107.573 103.89 79.4883 103.829 79.4883 103.754C79.4883 103.68 107.573 103.619 142.228 103.619C176.872 103.619 204.963 103.679 204.963 103.754Z" fill="black"/>
<path d="M113.805 112.275C113.805 112.349 106.403 112.41 97.2745 112.41C88.1428 112.41 80.7422 112.349 80.7422 112.275C80.7422 112.2 88.1428 112.139 97.2745 112.139C106.403 112.139 113.805 112.2 113.805 112.275Z" fill="black"/>
<path d="M184.905 120.174C184.905 120.249 161.586 120.31 132.826 120.31C104.057 120.31 80.7422 120.249 80.7422 120.174C80.7422 120.1 104.057 120.039 132.826 120.039C161.586 120.039 184.905 120.1 184.905 120.174Z" fill="#E0E0E0"/>
<path d="M66.5961 132.73C66.5961 132.805 61.72 132.865 55.7068 132.865C49.6914 132.865 44.8164 132.804 44.8164 132.73C44.8164 132.655 49.6914 132.595 55.7068 132.595C61.7206 132.595 66.5961 132.655 66.5961 132.73Z" fill="black"/>
<path d="M67.4497 138.953H44.8203V161.582H67.4497V138.953Z" fill="#FF6477"/>
<path d="M212.417 144.286C212.417 144.361 182.657 144.421 145.956 144.421C109.241 144.421 79.4883 144.361 79.4883 144.286C79.4883 144.212 109.242 144.151 145.956 144.151C182.657 144.151 212.417 144.211 212.417 144.286Z" fill="black"/>
<path d="M113.805 152.806C113.805 152.881 106.403 152.942 97.2745 152.942C88.1428 152.942 80.7422 152.881 80.7422 152.806C80.7422 152.732 88.1428 152.671 97.2745 152.671C106.403 152.671 113.805 152.732 113.805 152.806Z" fill="black"/>
<path d="M203.047 160.706C203.047 160.781 175.666 160.842 141.897 160.842C108.118 160.842 80.7422 160.781 80.7422 160.706C80.7422 160.631 108.117 160.571 141.897 160.571C175.666 160.571 203.047 160.632 203.047 160.706Z" fill="#E0E0E0"/>
<path d="M231.679 174.016C231.678 173.124 231.636 119.523 231.57 34.7795L231.679 34.8881C175.422 34.8954 104.857 34.9048 28.4521 34.9147H28.436L28.5712 34.7795C28.567 84.4779 28.5629 131.7 28.5592 174.015L28.4355 173.891C148.322 173.965 230.577 174.015 231.679 174.016C230.577 174.016 148.322 174.067 28.436 174.139H28.3122V174.016C28.3086 131.701 28.3049 84.4785 28.3008 34.78V34.6448H28.4365H28.4526C104.857 34.6547 175.422 34.664 231.68 34.6713H231.789V34.78C231.722 119.523 231.68 173.124 231.679 174.016Z" fill="#263238"/>
<path d="M98.8551 44.8674C98.8551 44.9423 91.6791 45.0026 82.8287 45.0026C73.9752 45.0026 66.8008 44.9418 66.8008 44.8674C66.8008 44.7931 73.9757 44.7322 82.8287 44.7322C91.6791 44.7317 98.8551 44.7926 98.8551 44.8674Z" fill="black"/>
<path d="M69.9424 70.4619H41.4766V79.0367H69.9424V70.4619Z" fill="#455A64"/>
<path d="M120.345 92.9201C120.345 92.995 111.494 93.0553 100.578 93.0553C89.658 93.0553 80.8086 92.9945 80.8086 92.9201C80.8086 92.8457 89.658 92.7849 100.578 92.7849C111.494 92.7849 120.345 92.8452 120.345 92.9201Z" fill="#FF6477"/>
<path d="M120.345 132.73C120.345 132.805 111.494 132.865 100.578 132.865C89.658 132.865 80.8086 132.804 80.8086 132.73C80.8086 132.655 89.658 132.595 100.578 132.595C111.494 132.595 120.345 132.655 120.345 132.73Z" fill="#FF6477"/>
<path d="M206.472 75.6811C204.65 75.6811 203.168 74.1985 203.168 72.377C203.168 70.5549 204.65 69.0724 206.472 69.0724C208.294 69.0724 209.777 70.5549 209.777 72.377C209.777 74.1991 208.294 75.6811 206.472 75.6811ZM206.472 69.5929C204.937 69.5929 203.688 70.8419 203.688 72.3775C203.688 73.9125 204.937 75.1616 206.472 75.1616C208.007 75.1616 209.257 73.9125 209.257 72.3775C209.257 70.8414 208.007 69.5929 206.472 69.5929Z" fill="#FF6477"/>
<path d="M210.531 77.1469C210.465 77.1469 210.398 77.122 210.347 77.0715L208.194 74.9338C208.092 74.8324 208.091 74.6681 208.193 74.5656C208.294 74.4642 208.458 74.4632 208.56 74.5646L210.714 76.7023C210.815 76.8037 210.816 76.968 210.715 77.0705C210.664 77.1214 210.598 77.1469 210.531 77.1469Z" fill="#FF6477"/>
<path d="M155.939 111.689C155.939 111.764 147.424 111.824 136.922 111.824C126.416 111.824 117.902 111.763 117.902 111.689C117.902 111.615 126.416 111.554 136.922 111.554C147.424 111.554 155.939 111.615 155.939 111.689Z" fill="black"/>
<path d="M180.517 111.104C180.517 111.179 176.063 111.239 170.57 111.239C165.074 111.239 160.621 111.178 160.621 111.104C160.621 111.03 165.074 110.969 170.57 110.969C176.063 110.969 180.517 111.029 180.517 111.104Z" fill="black"/>
<path d="M155.76 152.806C155.76 152.881 147.244 152.942 136.742 152.942C126.237 152.942 117.723 152.881 117.723 152.806C117.723 152.732 126.237 152.671 136.742 152.671C147.244 152.671 155.76 152.732 155.76 152.806Z" fill="black"/>
<path d="M53.6711 163.509C49.4524 165.694 46.2175 169.456 43.891 173.599C41.565 177.742 40.0659 182.288 38.5807 186.801L37.2812 210.077C42.1901 201.726 46.1301 191.909 47.1945 182.28C46.1057 182.183 45.0168 182.086 43.9279 181.989C46.1181 181.655 47.9569 180.067 49.1263 178.186C50.2963 176.304 50.8985 174.134 51.4861 171.998C50.1575 172.195 48.8289 172.393 47.5003 172.59C50.6219 170.508 52.8844 167.178 53.6711 163.509Z" fill="#455A64"/>
<g opacity="0.3">
<path d="M53.6711 163.509C49.4524 165.694 46.2175 169.456 43.891 173.599C41.565 177.742 40.0659 182.288 38.5807 186.801L37.2812 210.077C42.1901 201.726 46.1301 191.909 47.1945 182.28C46.1057 182.183 45.0168 182.086 43.9279 181.989C46.1181 181.655 47.9569 180.067 49.1263 178.186C50.2963 176.304 50.8985 174.134 51.4861 171.998C50.1575 172.195 48.8289 172.393 47.5003 172.59C50.6219 170.508 52.8844 167.178 53.6711 163.509Z" fill="black"/>
</g>
<path d="M36.554 215.531C36.554 215.531 25.8992 202.778 26.0219 190.603H30.326C30.326 190.603 25.6506 187.529 26.0209 185.807C26.3906 184.086 26.5138 177.568 26.5138 177.568L30.4492 178.552C30.4492 178.552 27.4977 177.076 27.129 174.74C26.7603 172.403 27.9896 161.581 27.9896 161.581C27.9896 161.581 32.7856 166.623 34.2613 171.789C35.7371 176.954 39.6106 182.979 38.4733 198.72C37.3361 214.461 36.554 215.531 36.554 215.531Z" fill="#455A64"/>
<path d="M41.9572 216.735C41.9572 216.735 53.5007 209.045 56.0653 199.23L52.6047 198.288C52.6047 198.288 57.0362 196.84 57.1152 195.374C57.1943 193.909 58.5213 188.642 58.5213 188.642L55.1423 188.572C55.1423 188.572 57.838 188.031 58.6461 186.234C59.4537 184.436 60.8327 175.466 60.8327 175.466C60.8327 175.466 55.874 178.471 53.5574 182.3C51.2408 186.13 46.8083 190.127 44.279 203.031C41.7503 215.935 41.9572 216.735 41.9572 216.735Z" fill="#455A64"/>
<path d="M30.904 172.701C30.9087 172.7 30.9227 172.744 30.9456 172.832C30.9711 172.936 31.0028 173.065 31.0418 173.224C31.125 173.59 31.2405 174.095 31.3866 174.736C31.6845 176.049 32.0787 177.958 32.5301 180.324C33.4395 185.054 34.5133 191.624 35.3604 198.926C36.2018 206.23 36.6552 212.874 36.8492 217.686C36.949 220.092 37.001 222.041 37.0104 223.388C37.0145 224.044 37.0177 224.563 37.0198 224.938C37.0177 225.103 37.0166 225.235 37.0156 225.342C37.013 225.433 37.0093 225.479 37.0047 225.479C37 225.479 36.9943 225.433 36.9875 225.342C36.9818 225.235 36.974 225.103 36.9651 224.939C36.9506 224.564 36.9303 224.046 36.9048 223.39C36.8627 222.044 36.7816 220.098 36.6578 217.695C36.415 212.888 35.9319 206.254 35.0916 198.957C34.245 191.663 33.2019 185.094 32.3418 180.359C31.9144 177.991 31.5493 176.077 31.2831 174.758C31.1583 174.113 31.0595 173.604 30.9883 173.236C30.9597 173.074 30.9368 172.943 30.9181 172.838C30.9045 172.748 30.8993 172.702 30.904 172.701Z" fill="#263238"/>
<path d="M35.078 223.341C35.078 223.341 25.3275 212.277 22.3 205.59L24.5854 204.613C22.9287 204.887 21.2314 204.174 19.947 203.093C18.6626 202.012 17.7194 200.59 16.7943 199.188L19.8051 198.68C17.0673 197.911 14.655 196.043 13.2266 193.584C16.7797 194.168 19.9938 196.12 22.6427 198.559C24.7877 200.534 26.6041 202.827 28.3487 205.17C29.1994 206.313 29.944 207.53 30.5644 208.813C32.2024 212.2 35.0837 219.278 35.078 223.341Z" fill="#455A64"/>
<path d="M56.2195 181.906C56.2237 181.908 56.2096 181.947 56.1779 182.021C56.1384 182.108 56.09 182.214 56.0313 182.344C55.8872 182.646 55.6912 183.056 55.4437 183.574C54.9247 184.638 54.1879 186.184 53.295 188.103C51.5067 191.939 49.148 197.291 46.8169 203.313C44.4899 209.339 42.6345 214.886 41.3771 218.927C40.7474 220.947 40.2519 222.587 39.9206 223.724C39.7553 224.273 39.6242 224.708 39.5275 225.029C39.4838 225.164 39.4485 225.275 39.4188 225.366C39.3928 225.442 39.3772 225.48 39.3725 225.479C39.3679 225.478 39.3746 225.437 39.3918 225.359C39.4141 225.265 39.4417 225.153 39.475 225.014C39.5592 224.69 39.6741 224.25 39.8192 223.694C40.1198 222.549 40.5873 220.9 41.1941 218.871C42.4057 214.812 44.2345 209.248 46.5647 203.215C48.8989 197.186 51.2883 191.839 53.1224 188.021C54.0386 186.111 54.802 184.576 55.3501 183.527C55.6163 183.018 55.8279 182.615 55.9834 182.319C56.0521 182.194 56.1077 182.092 56.154 182.008C56.193 181.938 56.2153 181.904 56.2195 181.906Z" fill="#263238"/>
<path d="M35.9069 228.082C35.8882 228.084 35.8336 227.802 35.7509 227.293C35.6724 226.783 35.5418 226.047 35.3604 225.144C35 223.337 34.3698 220.864 33.3797 218.232C32.3834 215.602 31.2217 213.33 30.2976 211.735C29.8369 210.937 29.449 210.299 29.1708 209.864C28.8962 209.427 28.7512 209.18 28.7668 209.169C28.7818 209.158 28.956 209.386 29.2587 209.806C29.5644 210.223 29.9784 210.848 30.4625 211.637C31.4328 213.213 32.6304 215.489 33.6329 218.137C34.6298 220.786 35.2345 223.284 35.5486 225.108C35.7067 226.02 35.8091 226.763 35.8554 227.279C35.9064 227.794 35.9256 228.08 35.9069 228.082Z" fill="#263238"/>
<path d="M48.77 225.479H27.4297V229.832H48.77V225.479Z" fill="#FF6477"/>
<path d="M29.4648 229.833L31.7736 244.475H44.6686L46.8204 229.833H29.4648Z" fill="#FF6477"/>
<path d="M47.4622 229.833C47.4622 229.907 43.4255 229.968 38.4465 229.968C33.4659 229.968 29.4297 229.907 29.4297 229.833C29.4297 229.758 33.4659 229.697 38.4465 229.697C43.425 229.697 47.4622 229.758 47.4622 229.833Z" fill="#263238"/>
<path d="M140.41 233.67V244.47L162.188 244.364C162.03 242.175 150.077 237.805 150.077 237.805L150.315 233.67H140.41Z" fill="#455A64"/>
<g opacity="0.6">
<path d="M143.934 236.828C143.517 236.955 143.234 237.459 143.338 237.907C143.442 238.354 143.923 238.663 144.343 238.543C144.762 238.423 145.119 237.83 144.969 237.397C144.818 236.965 144.234 236.635 143.854 236.858" fill="white"/>
</g>
<path d="M140.41 244.47V242.745L161.202 242.991C161.202 242.991 162.287 243.644 162.188 244.365L140.41 244.47Z" fill="#263238"/>
<path d="M150.077 238.014C150.076 238.126 149.547 238.185 149.032 238.553C148.507 238.907 148.246 239.396 148.149 239.353C148.051 239.333 148.199 238.661 148.83 238.226C149.457 237.787 150.099 237.911 150.077 238.014Z" fill="#263238"/>
<path d="M152.931 239.013C152.956 239.121 152.501 239.319 152.149 239.798C151.782 240.266 151.699 240.781 151.594 240.777C151.494 240.796 151.412 240.141 151.861 239.554C152.306 238.963 152.927 238.907 152.931 239.013Z" fill="#263238"/>
<path d="M154.216 241.765C154.12 241.791 153.964 241.233 154.228 240.616C154.486 239.996 154.982 239.746 155.028 239.839C155.089 239.93 154.772 240.264 154.564 240.775C154.344 241.28 154.32 241.753 154.216 241.765Z" fill="#263238"/>
<path d="M149.864 234.943C149.821 235.046 149.334 234.898 148.736 234.95C148.138 234.99 147.675 235.209 147.619 235.114C147.557 235.034 148.005 234.612 148.71 234.561C149.413 234.505 149.914 234.854 149.864 234.943Z" fill="#263238"/>
<path d="M149.983 238.497C150 238.5 150.055 238.267 150.03 237.837C149.999 237.414 149.87 236.781 149.454 236.135C149.243 235.817 148.968 235.498 148.602 235.238C148.425 235.115 148.149 234.978 147.866 235.109C147.602 235.236 147.453 235.532 147.438 235.821C147.465 236.932 148.263 237.958 149.351 238.348C150.467 238.738 151.647 238.256 152.293 237.474C152.451 237.275 152.604 237.072 152.683 236.807C152.72 236.678 152.738 236.524 152.686 236.375C152.637 236.229 152.52 236.112 152.39 236.063C152.127 235.973 151.904 236.052 151.712 236.13C151.523 236.221 151.36 236.314 151.205 236.418C150.587 236.83 150.193 237.305 149.96 237.651C149.726 237.999 149.645 238.221 149.66 238.229C149.709 238.279 150.111 237.376 151.318 236.617C151.609 236.451 151.992 236.21 152.3 236.317C152.435 236.373 152.488 236.532 152.424 236.721C152.367 236.907 152.227 237.096 152.082 237.271C151.492 237.962 150.426 238.382 149.448 238.035C148.482 237.71 147.753 236.728 147.724 235.84C147.729 235.635 147.835 235.446 147.98 235.373C148.12 235.298 148.303 235.361 148.466 235.469C148.8 235.693 149.07 235.982 149.276 236.271C149.688 236.858 149.846 237.449 149.911 237.853C149.97 238.261 149.957 238.496 149.983 238.497Z" fill="#263238"/>
<path d="M132.45 235.234L132.819 238.012L132.573 244.281L124.408 244.48L124.117 238.012L125.046 234.171L132.45 235.234Z" fill="#455A64"/>
<path d="M128.535 243.809C128.485 243.811 128.603 241.894 128.797 239.526C128.992 237.158 129.19 235.237 129.239 235.235C129.289 235.232 129.171 237.149 128.977 239.518C128.782 241.885 128.584 243.806 128.535 243.809Z" fill="#263238"/>
<path d="M132.604 243.237L124.355 243.333V244.48L132.61 244.47L132.604 243.237Z" fill="#263238"/>
<path d="M124.376 239.633C124.364 239.624 124.434 239.503 124.585 239.303C124.737 239.102 124.977 238.826 125.313 238.524C125.65 238.224 126.087 237.897 126.632 237.639C127.172 237.377 127.831 237.192 128.535 237.198C129.948 237.2 131.135 237.891 131.72 238.581C132.024 238.921 132.211 239.241 132.318 239.469C132.423 239.699 132.462 239.833 132.448 239.839C132.404 239.864 132.207 239.329 131.593 238.702C131 238.072 129.873 237.449 128.533 237.446C127.197 237.439 126.096 238.114 125.427 238.658C124.743 239.214 124.411 239.662 124.376 239.633Z" fill="#263238"/>
<path d="M128.5 60.3281L128.414 88.5568L140.525 89.1346L140.875 82.2685C140.875 82.2685 145.176 83.1228 146.286 79.1277C146.995 76.5755 146.818 56.854 146.818 56.854L128.5 60.3281Z" fill="#B78876"/>
<path d="M148.413 58.8414C146.506 59.3874 146.092 62.5053 146.092 62.5053L143.1 69.114C141.575 67.9206 139.529 67.9893 139.141 70.6678C138.862 72.6032 141.268 72.9948 141.268 72.9948C139.867 75.379 138.917 77.3071 136.877 79.5749C134.67 82.0293 133.433 82.2763 131.039 82.3163H128.399C128.399 82.3163 127.106 78.1215 124.713 67.6305C122.058 55.9918 135.821 57.491 138.373 54.5202C142.527 49.6811 154.427 57.1202 148.413 58.8414Z" fill="#263238"/>
<path d="M151.774 56.3132C151.577 55.074 150.39 54.0372 149.137 54.1162C149.586 53.487 149.371 52.5411 148.794 52.0274C148.217 51.5131 147.378 51.38 146.614 51.4954C145.849 51.6108 145.139 51.9462 144.44 52.2775C144.315 51.6868 143.568 50.7086 143.037 50.42C141.972 49.8408 141.304 49.8408 140.7 49.8408C136.985 49.8402 135.025 52.3872 133.031 54.9794C132.689 55.4245 132.35 55.9211 131.826 56.1229C131.473 56.2591 131.083 56.2414 130.704 56.2487C127.874 56.3038 125.134 58.0074 123.833 60.5216C122.531 63.0358 121.56 68.8551 124.927 72.4623L126.957 76.9931L146.369 61.6115C146.507 61.6832 147.724 62.2766 148.661 61.7841C150.985 60.5606 150.01 58.5201 150.01 58.5201C150.195 58.4239 151.971 57.5524 151.774 56.3132Z" fill="#263238"/>
<path d="M133.807 71.4416C133.886 71.4333 134.005 72.4129 133.738 73.585C133.477 74.7592 132.949 75.5922 132.882 75.5511C132.801 75.5106 133.189 74.6458 133.439 73.5174C133.696 72.3916 133.717 71.4437 133.807 71.4416Z" fill="#455A64"/>
<path d="M135.27 70.0563C135.351 70.0599 135.369 70.9933 135.157 72.1197C134.949 73.247 134.596 74.1113 134.518 74.0853C134.435 74.0587 134.652 73.169 134.856 72.0635C135.064 70.959 135.182 70.0511 135.27 70.0563Z" fill="#455A64"/>
<path d="M139.467 65.3976C139.496 65.4382 139.153 65.6883 138.717 66.1984C138.278 66.7033 137.778 67.4932 137.412 68.451C137.046 69.4094 136.844 70.3277 136.689 70.9897C136.536 71.6537 136.432 72.065 136.389 72.0572C136.348 72.0505 136.377 71.6277 136.476 70.9496C136.578 70.2736 136.748 69.3319 137.126 68.3408C137.504 67.3497 138.06 66.538 138.558 66.0512C139.054 65.5578 139.45 65.3674 139.467 65.3976Z" fill="#455A64"/>
<path d="M141.161 62.2256C141.196 62.2157 141.321 62.4986 141.396 62.9895C141.473 63.4777 141.475 64.1777 141.291 64.9166C141.104 65.6555 140.773 66.2712 140.475 66.6659C140.177 67.0632 139.934 67.254 139.907 67.2285C139.831 67.1703 140.651 66.2592 140.994 64.8417C141.36 63.4315 141.067 62.2412 141.161 62.2256Z" fill="#455A64"/>
<path d="M126.706 69.2758C126.665 69.3496 126.294 69.2212 125.878 68.9887C125.462 68.7563 125.158 68.5077 125.199 68.4339C125.24 68.36 125.611 68.4885 126.027 68.7209C126.443 68.9534 126.748 69.2019 126.706 69.2758Z" fill="#455A64"/>
<path d="M132.559 66.2619C132.639 66.2733 132.59 66.8718 132.213 67.4896C131.841 68.1105 131.334 68.4329 131.287 68.3673C131.229 68.2997 131.61 67.9014 131.951 67.331C132.297 66.7647 132.473 66.2426 132.559 66.2619Z" fill="#455A64"/>
<path d="M134.358 65.2957C134.436 65.3129 134.309 66.0299 133.819 66.7631C133.334 67.5 132.723 67.8952 132.676 67.8302C132.619 67.7615 133.109 67.2857 133.564 66.5936C134.025 65.9062 134.273 65.2697 134.358 65.2957Z" fill="#455A64"/>
<path d="M143.3 53.4735C143.278 53.4979 143.072 53.3008 142.636 53.0523C142.199 52.812 141.501 52.55 140.607 52.5276C139.72 52.5 138.633 52.7112 137.63 53.3274C136.626 53.943 135.738 54.9461 135.094 56.152C134.624 57.0282 134.299 57.9408 134.065 58.7988L134.017 58.9761L133.854 58.8908C132.955 58.4187 132.002 58.2112 131.152 58.1998C130.298 58.1764 129.547 58.3329 128.952 58.532C127.755 58.9408 127.187 59.479 127.157 59.4301C127.147 59.4192 127.282 59.2845 127.562 59.0713C127.844 58.8617 128.285 58.5898 128.89 58.3578C129.494 58.1285 130.267 57.9429 131.155 57.9481C132.04 57.9413 133.039 58.1415 133.992 58.6314L133.781 58.7234C134.012 57.8462 134.34 56.9102 134.824 56.0064C135.489 54.7626 136.419 53.72 137.484 53.0856C138.55 52.4496 139.692 52.2541 140.616 52.3108C141.549 52.3622 142.266 52.6701 142.697 52.9498C142.91 53.0986 143.07 53.2187 143.163 53.319C143.26 53.4132 143.307 53.4657 143.3 53.4735Z" fill="#455A64"/>
<path d="M149.667 55.0096C149.646 55.0039 150.004 54.9191 150.362 55.3247C150.526 55.5202 150.676 55.8281 150.641 56.2087C150.604 56.5883 150.342 56.9799 149.937 57.2144C149.538 57.4583 148.993 57.5399 148.466 57.4167C147.935 57.3012 147.425 57.0199 146.948 56.6809C146.466 56.3444 146.004 55.9528 145.463 55.6637C144.923 55.3704 144.316 55.1567 143.674 55.0345C142.385 54.7943 141.104 54.9394 140.022 55.2847C138.935 55.6336 138.031 56.1572 137.323 56.6564C135.909 57.673 135.212 58.5237 135.169 58.4801C135.155 58.4676 135.317 58.2481 135.648 57.8836C135.983 57.5233 136.488 57.0142 137.196 56.4817C137.901 55.9508 138.816 55.3923 139.935 55.0163C141.051 54.6435 142.382 54.4823 143.731 54.7334C144.402 54.8614 145.041 55.0881 145.608 55.4006C146.18 55.7126 146.648 56.1187 147.112 56.451C147.572 56.7874 148.043 57.0542 148.522 57.1691C148.999 57.2898 149.469 57.2295 149.829 57.0267C150.191 56.8332 150.426 56.502 150.471 56.1879C150.517 55.8691 150.402 55.5837 150.269 55.3991C149.981 55.0132 149.652 55.0439 149.667 55.0096Z" fill="#455A64"/>
<path d="M206.092 76.6681C205.635 76.2619 199.468 78.8495 199.468 78.8495C199.468 78.8495 194.867 82.4588 192.972 84.5913L191.802 85.5642L174.301 99.1747L152.772 90.2188L148.102 102.229C148.102 102.229 172.27 111.85 175.952 110.203C179.954 108.413 194.852 92.8208 194.886 92.7673L194.887 92.7668L197.038 90.694C197.038 90.694 198.177 90.6717 199.039 90.6207C199.902 90.5698 202.429 88.8907 202.429 88.8907C202.429 88.8907 202.794 88.2339 202.919 87.4185C203.044 86.6032 202.451 86.3494 202.451 86.3494C202.451 86.3494 202.593 85.8216 202.495 85.1347C202.397 84.4478 201.479 83.6506 201.479 83.6506C201.479 83.6506 201.841 83.3548 202.054 82.5633C202.267 81.7714 201.241 81.0241 201.241 81.0241C201.241 81.0241 204.821 78.59 205.69 78.1631C206.559 77.7372 206.55 77.0737 206.092 76.6681Z" fill="#B78876"/>
<path d="M155.936 199.665C156.008 198.875 156.047 198.267 156.047 197.887L158.478 159.077C158.478 159.077 156.435 147.744 155.468 144.736L146.778 141.372L135.201 145.882C135.124 144.947 135.077 144.374 135.077 144.374L118.024 150.268C118.024 150.268 117.583 161.902 118.024 165.443C118.166 166.58 118.612 169.519 119.153 172.982C119.153 172.982 119.702 180.507 119.815 180.928C120.228 182.462 120.324 186.219 120.324 189.984C120.324 194.769 120.584 200.463 120.882 203.17C121.181 205.877 121.326 235.638 121.326 235.638H133.908L135.524 188.232C135.795 183.152 136.202 175.383 136.463 169.763L139.418 187.266C139.418 187.908 141.216 197.915 141.216 197.915C141.216 197.915 140.558 202.611 140.445 207.411C140.238 216.234 139.2 235.638 139.2 235.638H151.518C151.518 235.638 155.216 207.618 155.936 199.665Z" fill="#263238"/>
<path d="M158.058 156.752C158.042 156.78 157.595 156.573 156.923 156.146C156.251 155.722 155.364 155.062 154.489 154.217C153.616 153.37 152.927 152.505 152.48 151.848C152.033 151.19 151.811 150.75 151.838 150.734C151.873 150.712 152.151 151.115 152.632 151.737C153.113 152.36 153.813 153.192 154.674 154.026C155.536 154.858 156.39 155.531 157.028 155.991C157.666 156.452 158.078 156.716 158.058 156.752Z" fill="#455A64"/>
<path d="M136.094 163.805C136.077 163.813 135.993 163.675 135.853 163.418C135.71 163.162 135.528 162.779 135.323 162.297C134.913 161.334 134.454 159.95 134.177 158.372C133.903 156.792 133.867 155.335 133.928 154.29C133.957 153.767 133.999 153.345 134.047 153.057C134.092 152.767 134.125 152.609 134.143 152.611C134.187 152.616 134.127 153.258 134.116 154.296C134.104 155.333 134.169 156.768 134.439 158.326C134.713 159.884 135.136 161.256 135.498 162.228C135.859 163.201 136.133 163.785 136.094 163.805Z" fill="#455A64"/>
<path d="M137.924 178.417C137.905 178.42 137.849 178.179 137.763 177.742C137.672 177.248 137.558 176.626 137.422 175.885C137.148 174.255 136.788 172.112 136.389 169.743C135.694 165.39 135.22 162.426 135 161.047C135.058 161.026 135.302 161.997 135.595 163.561C135.895 165.127 136.272 167.297 136.665 169.698C137.057 172.098 137.39 174.275 137.617 175.853C137.718 176.6 137.803 177.227 137.87 177.725C137.923 178.168 137.944 178.414 137.924 178.417Z" fill="#455A64"/>
<path d="M108.229 113.686C108.229 113.686 106.566 125.383 106.256 129.481C106.069 131.949 108.575 135.225 110.488 135.464C112.431 135.708 118.851 136.087 118.851 136.087L119.386 128.752L119.219 127.293L117.217 126.916L117.82 115.281L108.229 113.686Z" fill="#B78876"/>
<path d="M117.556 115.674C117.575 115.674 117.601 115.899 117.63 116.31C117.661 116.72 117.687 117.314 117.702 118.049C117.735 119.518 117.701 121.55 117.575 123.788C117.449 126.026 117.271 128.048 117.125 129.509C117.053 130.24 116.987 130.83 116.935 131.237C116.884 131.645 116.846 131.869 116.826 131.868C116.807 131.866 116.808 131.638 116.827 131.228C116.855 130.76 116.888 130.18 116.929 129.493C117.027 127.967 117.155 125.976 117.297 123.773C117.422 121.539 117.487 119.516 117.505 118.05C117.511 117.362 117.517 116.781 117.522 116.313C117.526 115.903 117.537 115.675 117.556 115.674Z" fill="#AA6550"/>
<g opacity="0.3">
<path d="M118.187 150.48C121.463 151.697 125.053 151.8 128.534 151.495C132.015 151.19 135.453 150.495 138.932 150.164C144.192 149.665 149.531 150.011 154.683 151.184C155.048 151.267 155.425 151.355 155.793 151.29C156.162 151.225 156.524 150.963 156.582 150.593C156.672 150.011 156.035 149.606 155.493 149.378C143.652 144.396 129.697 144.708 118.09 150.214" fill="black"/>
</g>
<path d="M168.347 95.5347L149.879 86.3396C145.026 85.7728 141.101 85.9558 141.101 85.9558H128.877C128.877 85.9558 114.063 90.3248 111.619 94.3517L105.27 113.385L117.82 115.281L119.385 128.954C119.385 128.954 117.828 144.788 117.828 147.089C117.828 149.39 118.024 150.268 118.024 150.268C118.024 150.268 143.136 146.45 149.32 148.463C155.504 150.477 157.175 150.268 157.175 150.268C157.175 150.268 156.659 143.696 156.2 139.883L154.766 120.803L153.708 106.234L165.33 109.791L168.347 95.5347Z" fill="#FF6477"/>
<path d="M117.704 115.43C117.659 115.435 117.535 114.643 117.257 113.377C116.977 112.113 116.515 110.379 115.804 108.522C115.092 106.665 114.279 105.042 113.649 103.886C113.351 103.349 113.098 102.893 112.891 102.521C112.71 102.2 112.618 102.018 112.635 102.008C112.652 101.999 112.776 102.164 112.988 102.472C113.201 102.777 113.49 103.231 113.829 103.801C114.507 104.94 115.356 106.564 116.073 108.436C116.79 110.308 117.225 112.064 117.455 113.344C117.57 113.984 117.645 114.504 117.678 114.866C117.713 115.227 117.724 115.428 117.704 115.43Z" fill="#263238"/>
<path d="M141.392 120.834C141.401 120.837 141.378 120.924 141.327 121.085C141.264 121.275 141.186 121.508 141.092 121.789C140.989 122.095 140.857 122.466 140.684 122.89C140.514 123.315 140.332 123.804 140.093 124.328C139.641 125.389 139.039 126.624 138.313 127.966C137.573 129.299 136.701 130.733 135.697 132.179C134.683 133.619 133.634 134.93 132.634 136.082C131.623 137.224 130.668 138.212 129.826 139C129.416 139.405 129.019 139.743 128.678 140.049C128.339 140.356 128.035 140.608 127.783 140.809C127.551 140.993 127.359 141.146 127.202 141.27C127.068 141.374 126.994 141.424 126.989 141.417C126.983 141.411 127.045 141.346 127.168 141.229C127.316 141.094 127.496 140.93 127.715 140.73C127.956 140.517 128.249 140.255 128.578 139.939C128.908 139.623 129.295 139.277 129.695 138.865C130.517 138.062 131.453 137.066 132.449 135.92C133.433 134.766 134.47 133.458 135.479 132.026C136.478 130.588 137.351 129.167 138.098 127.846C138.833 126.519 139.449 125.298 139.921 124.252C140.171 123.734 140.364 123.252 140.547 122.834C140.732 122.417 140.878 122.052 140.995 121.753C141.108 121.479 141.2 121.252 141.277 121.068C141.344 120.912 141.383 120.831 141.392 120.834Z" fill="#263238"/>
<path d="M149.925 87.6006C149.979 87.6255 149.234 88.3629 148.952 89.9177C148.808 90.6847 148.805 91.6238 148.969 92.6472C149.127 93.6711 149.436 94.7797 149.75 95.9445C150.387 98.272 151.062 100.351 151.574 101.848C151.818 102.554 152.023 103.148 152.186 103.619C152.331 104.037 152.404 104.272 152.386 104.279C152.368 104.286 152.261 104.065 152.086 103.658C151.911 103.25 151.669 102.656 151.389 101.915C150.828 100.432 150.121 98.3547 149.481 96.0189C149.167 94.8515 148.864 93.735 148.716 92.6857C148.562 91.6394 148.585 90.666 148.76 89.8797C148.928 89.0909 149.226 88.4981 149.475 88.1273C149.727 87.7561 149.915 87.5907 149.925 87.6006Z" fill="#263238"/>
<path d="M115.075 107.636C115.093 107.657 114.764 107.988 114.09 108.304C113.426 108.622 112.385 108.883 111.249 108.711C110.113 108.538 109.196 107.978 108.656 107.478C108.107 106.975 107.891 106.561 107.916 106.547C107.952 106.518 108.221 106.885 108.781 107.331C109.333 107.777 110.216 108.279 111.29 108.443C112.363 108.605 113.356 108.39 114.016 108.128C114.683 107.869 115.048 107.598 115.075 107.636Z" fill="white"/>
<path d="M150.472 99.0494C150.48 99.053 150.426 99.1908 150.316 99.4493C150.204 99.7072 150.026 100.082 149.771 100.553C149.253 101.484 148.412 102.81 147.025 104.144C145.649 105.466 143.665 106.78 141.164 107.334C139.923 107.611 138.566 107.708 137.189 107.505C135.808 107.318 134.447 106.78 133.167 106.075C130.613 104.649 128.458 102.844 126.097 101.982C123.755 101.083 121.401 101.187 119.577 101.622C117.731 102.065 116.385 102.868 115.526 103.479C114.673 104.112 114.274 104.552 114.25 104.527C114.25 104.527 114.621 104.06 115.463 103.395C116.31 102.752 117.66 101.911 119.53 101.437C121.377 100.97 123.779 100.841 126.183 101.749C128.601 102.62 130.777 104.433 133.297 105.838C134.56 106.534 135.883 107.057 137.227 107.243C138.567 107.444 139.893 107.355 141.11 107.091C143.561 106.562 145.519 105.291 146.893 104.005C148.278 102.707 149.136 101.41 149.679 100.501C149.946 100.042 150.139 99.6755 150.266 99.4259C150.393 99.1758 150.463 99.0458 150.472 99.0494Z" fill="white"/>
<path d="M162.036 92.3804C162.05 92.3747 162.148 92.5832 162.276 92.9789C162.401 93.3752 162.535 93.968 162.576 94.7142C162.612 95.4578 162.56 96.36 162.286 97.3137C162.023 98.2668 161.548 99.2735 160.825 100.165C160.099 101.062 159.217 101.702 158.507 102.357C157.782 102.999 157.234 103.677 156.934 104.339C156.626 104.995 156.557 105.593 156.59 105.994C156.621 106.398 156.707 106.614 156.682 106.622C156.673 106.625 156.647 106.574 156.605 106.472C156.564 106.371 156.514 106.213 156.485 106.005C156.417 105.591 156.46 104.956 156.759 104.261C157.047 103.561 157.611 102.835 158.338 102.174C159.051 101.498 159.919 100.855 160.614 99.9943C162.028 98.2606 162.426 96.1593 162.384 94.7209C162.35 93.2556 161.977 92.395 162.036 92.3804Z" fill="white"/>
<path d="M131.997 136.221C132.001 136.238 131.81 136.308 131.455 136.409C131.101 136.509 130.583 136.643 129.925 136.736C129.271 136.815 128.454 136.874 127.591 136.6C127.163 136.465 126.737 136.233 126.367 135.911C125.999 135.588 125.691 135.196 125.369 134.819C125.049 134.438 124.705 134.113 124.324 133.855C123.942 133.6 123.534 133.415 123.132 133.283C122.325 133.017 121.541 132.996 120.903 133.069C120.261 133.144 119.763 133.331 119.436 133.483C119.105 133.633 118.932 133.742 118.918 133.721C118.911 133.711 119.064 133.572 119.388 133.389C119.709 133.204 120.213 132.982 120.876 132.88C121.535 132.779 122.355 132.779 123.207 133.045C123.631 133.177 124.064 133.366 124.471 133.634C124.876 133.903 125.25 134.255 125.575 134.642C125.902 135.027 126.201 135.408 126.543 135.712C126.884 136.013 127.272 136.23 127.67 136.363C128.47 136.633 129.261 136.6 129.904 136.546C131.197 136.396 131.986 136.17 131.997 136.221Z" fill="white"/>
<path d="M155.91 135.109C155.916 135.117 155.859 135.165 155.746 135.25C155.63 135.33 155.469 135.467 155.233 135.597C154.778 135.882 154.068 136.229 153.131 136.476C152.197 136.706 151.03 136.854 149.757 136.671C148.485 136.518 147.118 136.006 145.921 135.132C144.728 134.254 143.785 133.216 142.854 132.374C141.934 131.517 141 130.871 140.13 130.497C139.266 130.112 138.493 130.011 137.968 130.019C137.439 130.028 137.15 130.107 137.145 130.08C137.142 130.071 137.212 130.047 137.349 130.01C137.486 129.97 137.693 129.933 137.964 129.914C138.501 129.872 139.306 129.947 140.205 130.321C141.106 130.681 142.081 131.333 143.021 132.189C143.972 133.031 144.918 134.058 146.08 134.913C147.243 135.761 148.555 136.26 149.791 136.423C151.026 136.615 152.165 136.491 153.085 136.29C154.007 136.072 154.715 135.758 155.181 135.505C155.651 135.256 155.896 135.088 155.91 135.109Z" fill="white"/>
<path d="M200.115 61.0172C195.268 58.7084 191.074 54.9196 188.291 49.8694C184.863 43.6497 184.063 36.4669 186.037 29.645C188.011 22.8226 192.524 17.1775 198.744 13.7497C211.584 6.673 227.788 11.3629 234.865 24.2038C238.293 30.424 239.093 37.6068 237.119 44.4286C235.144 51.2505 230.632 56.8956 224.411 60.3235C216.621 64.6161 207.591 64.5786 200.115 61.0172ZM222.274 14.6618C215.297 11.3384 206.874 11.3031 199.604 15.3086C193.801 18.5066 189.59 23.7742 187.748 30.139C185.905 36.5044 186.652 43.2061 189.851 49.0098C193.049 54.8141 198.316 59.0245 204.682 60.8664C211.047 62.7087 217.749 61.962 223.553 58.7635C229.356 55.5655 233.567 50.2984 235.409 43.9331C237.252 37.5678 236.505 30.866 233.306 25.0623C230.709 20.3516 226.795 16.8156 222.274 14.6618Z" fill="#263238"/>
<path d="M244.976 90.0789C243.423 91.0367 241.387 90.5547 240.429 89.0015L223.041 60.8263C222.877 60.5595 222.96 60.2096 223.227 60.0453L226.936 57.7567C227.196 57.5961 227.537 57.6709 227.706 57.9257L245.994 85.4363C247.028 86.9932 246.567 89.0977 244.976 90.0789Z" fill="#263238"/>
<path d="M200.756 59.675C195.909 57.3662 191.714 53.5775 188.931 48.5273C185.504 42.3075 184.703 35.1248 186.677 28.3024C188.652 21.48 193.165 15.8349 199.385 12.407C212.225 5.33035 228.429 10.0202 235.506 22.8611C238.933 29.0813 239.734 36.2641 237.759 43.086C235.785 49.9079 231.272 55.553 225.052 58.9808C217.262 63.2745 208.232 63.2365 200.756 59.675ZM222.914 13.3201C215.938 9.99683 207.514 9.96147 200.245 13.967C194.441 17.165 190.23 22.4326 188.389 28.7974C186.546 35.1627 187.293 41.8645 190.491 47.6682C193.689 53.4725 198.957 57.6829 205.322 59.5248C211.687 61.3671 218.389 60.6204 224.193 57.4219C229.996 54.2239 234.207 48.9568 236.05 42.5915C237.893 36.2261 237.145 29.5244 233.947 23.7207C231.35 19.0095 227.436 15.474 222.914 13.3201Z" fill="#455A64"/>
<path d="M245.695 89.6384L245.426 89.8043C244.214 90.5521 242.625 90.1761 241.876 88.9635L223.387 59.0016L228.045 56.1265L246.536 86.0889C247.284 87.301 246.907 88.8907 245.695 89.6384Z" fill="#455A64"/>
<path d="M192.37 29.3793C192.353 29.3757 192.406 29.0845 192.518 28.5582C192.57 28.2941 192.643 27.9732 192.763 27.6103C192.879 27.2463 192.988 26.823 193.179 26.38C193.268 26.1548 193.361 25.9203 193.458 25.6769C193.557 25.4336 193.687 25.1923 193.808 24.9359C194.04 24.4175 194.356 23.9011 194.676 23.3494C195.356 22.272 196.201 21.1467 197.221 20.0843C198.256 19.035 199.358 18.1593 200.417 17.45C200.96 17.1156 201.468 16.7849 201.979 16.539C202.232 16.4116 202.47 16.2748 202.711 16.1687C202.951 16.0658 203.183 15.9664 203.406 15.8713C203.843 15.6685 204.264 15.5484 204.624 15.423C204.983 15.2925 205.302 15.2104 205.565 15.1521C206.088 15.0263 206.378 14.9649 206.382 14.9821C206.386 14.9992 206.104 15.0928 205.592 15.2473C205.334 15.3201 205.022 15.4152 204.67 15.5577C204.316 15.6955 203.904 15.8255 203.476 16.0372C203.258 16.136 203.031 16.2394 202.795 16.3466C202.559 16.4558 202.326 16.5956 202.078 16.7256C201.576 16.9768 201.079 17.3106 200.546 17.6455C199.507 18.3569 198.424 19.2263 197.403 20.2622C196.396 21.3105 195.556 22.417 194.873 23.4742C194.553 24.016 194.232 24.5225 193.995 25.0306C193.872 25.2817 193.738 25.5183 193.636 25.757C193.535 25.9957 193.438 26.2255 193.345 26.4465C193.146 26.8807 193.027 27.2962 192.899 27.6529C192.766 28.0091 192.679 28.3237 192.614 28.5827C192.473 29.0985 192.388 29.383 192.37 29.3793Z" fill="#E0E0E0"/>
</svg>
