<svg width="480" height="480" viewBox="0 0 480 480" fill="none" xmlns="http://www.w3.org/2000/svg">
<path d="M358.523 365.968C421.026 303.464 421.026 202.125 358.523 139.622C296.019 77.1181 194.68 77.1181 132.177 139.622C69.6731 202.125 69.6732 303.464 132.177 365.968C194.68 428.471 296.019 428.471 358.523 365.968Z" fill="#FCE5AC"/>
<path d="M280.237 296.912H213.548C208.552 293.341 201.147 286.781 197.132 276.392C190.01 257.961 196.556 235.227 213.548 218.424C213.548 216.203 213.77 204.391 223.314 194.846C229.349 188.812 237.685 185.08 246.892 185.08C265.308 185.08 280.237 200.009 280.237 218.425C296.244 234.245 302.8 255.861 296.653 274.34C292.795 285.931 284.954 293.242 280.237 296.912Z" fill="#ED4C67"/>
<path d="M235.246 279.47H262.785V250.041H235.246V279.47Z" fill="#F9C7BD"/>
<path d="M262.787 250.042V264.059C260.49 264.45 254.247 265.201 247.42 261.993C239.498 258.269 236.036 251.679 235.094 249.718C235.145 249.826 235.196 249.934 235.247 250.043H262.787V250.042Z" fill="#131E21"/>
<path d="M248.806 259.099C259.161 259.099 267.554 247.171 267.554 232.457C267.554 217.743 259.161 205.815 248.806 205.815C238.452 205.815 230.059 217.743 230.059 232.457C230.059 247.171 238.452 259.099 248.806 259.099Z" fill="#F9CBC7"/>
<path d="M254.801 232.844C255.379 232.41 256.76 231.492 258.769 231.278C260.883 231.053 262.495 231.733 263.142 232.05" stroke="#1D1D1B" stroke-width="0.5" stroke-miterlimit="10"/>
<path d="M259.8 232.307C259.8 232.876 259.34 233.337 258.771 233.337C258.203 233.337 257.742 232.876 257.742 232.307C257.742 231.739 258.203 231.278 258.771 231.278C259.34 231.278 259.8 231.739 259.8 232.307Z" fill="#2D3436"/>
<path d="M243.189 232.844C242.611 232.41 241.23 231.492 239.22 231.278C237.107 231.053 235.495 231.733 234.848 232.05" stroke="#1D1D1B" stroke-width="0.5" stroke-miterlimit="10"/>
<path d="M239.221 233.337C239.789 233.337 240.25 232.876 240.25 232.307C240.25 231.739 239.789 231.278 239.221 231.278C238.652 231.278 238.191 231.739 238.191 232.307C238.191 232.876 238.652 233.337 239.221 233.337Z" fill="#2D3436"/>
<path d="M233.258 231.396C234.661 237.191 233.168 242.526 229.923 243.311C226.678 244.096 222.91 240.036 221.508 234.242C220.105 228.447 221.598 223.113 224.843 222.327C228.086 221.542 231.854 225.603 233.258 231.396Z" fill="#F9CBC7"/>
<path d="M265.621 232.423C264.218 238.217 265.711 243.552 268.956 244.337C272.201 245.123 275.969 241.063 277.372 235.268C278.775 229.474 277.282 224.139 274.037 223.354C270.792 222.567 267.024 226.628 265.621 232.423Z" fill="#F9CBC7"/>
<path d="M243.852 248.254C244.33 250.743 246.564 252.493 248.996 252.37C251.25 252.254 253.19 250.554 253.626 248.254" fill="#ED4C67"/>
<path d="M241.59 247.475C242.637 248.127 245.428 249.671 249.263 249.533C252.531 249.416 254.9 248.136 255.96 247.475" stroke="#1D1D1B" stroke-width="0.5" stroke-miterlimit="10"/>
<path d="M260.569 245.244C263.152 245.244 265.247 243.15 265.247 240.566C265.247 237.983 263.152 235.888 260.569 235.888C257.985 235.888 255.891 237.983 255.891 240.566C255.891 243.15 257.985 245.244 260.569 245.244Z" fill="#ED4C67"/>
<path d="M237.178 245.244C239.762 245.244 241.856 243.15 241.856 240.566C241.856 237.983 239.762 235.888 237.178 235.888C234.594 235.888 232.5 237.983 232.5 240.566C232.5 243.15 234.594 245.244 237.178 245.244Z" fill="#ED4C67"/>
<path d="M243.852 248.254L246.304 246.618C246.693 246.359 247.194 246.338 247.604 246.563L248.806 247.225L250.352 246.517C250.782 246.321 251.287 246.383 251.656 246.679C252.313 247.204 252.969 247.729 253.625 248.254C252.588 248.645 250.94 249.123 248.873 249.143C246.669 249.165 244.918 248.655 243.852 248.254Z" fill="#ED4C67"/>
<path d="M249.168 242.759C249.243 242.626 249.552 242.118 250.207 241.885C250.826 241.665 251.357 241.832 251.507 241.885" stroke="#1D1D1B" stroke-width="0.5" stroke-miterlimit="10"/>
<path d="M247.604 242.759C247.529 242.626 247.22 242.118 246.565 241.885C245.946 241.665 245.415 241.832 245.266 241.885" stroke="#1D1D1B" stroke-width="0.5" stroke-miterlimit="10"/>
<path d="M245.655 239.935C244.981 240.056 244.458 240.583 244.355 241.234C244.263 241.814 244.515 242.406 245.005 242.759" stroke="#1D1D1B" stroke-width="0.5" stroke-miterlimit="10"/>
<path d="M250.836 239.935C251.51 240.056 252.032 240.583 252.136 241.234C252.228 241.814 251.975 242.406 251.487 242.759" stroke="#1D1D1B" stroke-width="0.5" stroke-miterlimit="10"/>
<path d="M242.817 214.17C236.171 219.001 229.163 220.688 227.165 217.937C225.166 215.187 228.933 209.042 235.579 204.211C242.225 199.38 249.233 197.694 251.232 200.444C253.231 203.195 249.464 209.339 242.817 214.17Z" fill="#ED4C67"/>
<path d="M254.044 215.196C260.69 220.027 267.698 221.714 269.697 218.963C271.696 216.213 267.929 210.068 261.283 205.237C254.637 200.407 247.629 198.72 245.63 201.47C243.63 204.221 247.397 210.366 254.044 215.196Z" fill="#ED4C67"/>
<path d="M255.501 228.05L264.829 227.529C265.473 227.493 265.965 226.942 265.93 226.298C265.893 225.654 265.342 225.161 264.699 225.198L255.372 225.719C254.727 225.755 254.235 226.307 254.271 226.951C254.306 227.593 254.858 228.085 255.501 228.05Z" fill="#FF6477"/>
<path d="M255.914 228.025C256.068 226.847 256.697 225.762 257.632 225.033C257.705 224.976 257.602 224.874 257.53 224.931C256.562 225.685 255.929 226.81 255.77 228.025C255.759 228.116 255.903 228.115 255.914 228.025Z" fill="#3A3A37"/>
<path d="M259.298 225.16C258.465 225.71 258.225 226.719 258.033 227.636C258.014 227.726 258.153 227.765 258.172 227.675C258.356 226.801 258.574 225.811 259.371 225.285C259.448 225.234 259.376 225.109 259.298 225.16Z" fill="#3A3A37"/>
<path d="M261.851 224.846C261.579 224.863 261.405 225.122 261.246 225.314C261.057 225.541 260.881 225.779 260.717 226.026C260.385 226.528 260.114 227.068 259.899 227.63C259.867 227.717 260.006 227.754 260.039 227.669C260.232 227.162 260.474 226.675 260.765 226.217C260.909 225.991 261.064 225.772 261.23 225.562C261.313 225.457 261.398 225.354 261.485 225.254C261.583 225.143 261.691 224.999 261.851 224.989C261.943 224.986 261.944 224.842 261.851 224.846Z" fill="#3A3A37"/>
<path d="M263.267 225.402C262.542 225.933 262.155 226.763 261.8 227.562C261.762 227.646 261.886 227.72 261.924 227.635C262.267 226.863 262.638 226.041 263.34 225.527C263.414 225.472 263.342 225.348 263.267 225.402Z" fill="#3A3A37"/>
<path d="M265.45 225.495C264.947 226.077 264.534 226.731 264.225 227.436C264.189 227.521 264.313 227.594 264.349 227.509C264.652 226.815 265.057 226.17 265.551 225.597C265.612 225.528 265.511 225.425 265.45 225.495Z" fill="#3A3A37"/>
<path d="M255.369 224.842C254.818 225.732 254.584 226.795 254.715 227.834C254.727 227.924 254.871 227.926 254.859 227.834C254.731 226.817 254.954 225.785 255.494 224.915C255.543 224.835 255.418 224.763 255.369 224.842Z" fill="#3A3A37"/>
<path d="M244.176 228.05L234.849 227.529C234.205 227.493 233.712 226.942 233.748 226.298C233.784 225.654 234.335 225.161 234.979 225.198L244.306 225.719C244.95 225.755 245.443 226.307 245.406 226.951C245.372 227.593 244.821 228.085 244.176 228.05Z" fill="#FF6477"/>
<path d="M243.906 228.025C243.748 226.81 243.114 225.685 242.146 224.931C242.074 224.874 241.972 224.976 242.045 225.033C242.98 225.762 243.608 226.847 243.762 228.025C243.774 228.115 243.918 228.117 243.906 228.025Z" fill="#3A3A37"/>
<path d="M240.311 225.285C241.108 225.811 241.326 226.801 241.51 227.675C241.529 227.765 241.667 227.726 241.649 227.636C241.457 226.72 241.217 225.71 240.384 225.16C240.306 225.109 240.233 225.234 240.311 225.285Z" fill="#3A3A37"/>
<path d="M237.827 224.99C237.981 224.999 238.083 225.131 238.177 225.237C238.266 225.337 238.351 225.439 238.434 225.543C238.605 225.759 238.765 225.985 238.913 226.217C239.204 226.675 239.446 227.162 239.639 227.669C239.672 227.754 239.811 227.718 239.779 227.63C239.565 227.068 239.293 226.528 238.961 226.026C238.802 225.785 238.63 225.554 238.447 225.331C238.285 225.135 238.105 224.862 237.827 224.845C237.735 224.842 237.735 224.986 237.827 224.99Z" fill="#3A3A37"/>
<path d="M236.34 225.527C237.042 226.041 237.412 226.863 237.756 227.635C237.794 227.72 237.917 227.647 237.881 227.562C237.525 226.764 237.139 225.933 236.414 225.402C236.337 225.348 236.265 225.472 236.34 225.527Z" fill="#3A3A37"/>
<path d="M234.128 225.598C234.623 226.17 235.028 226.816 235.33 227.51C235.367 227.595 235.491 227.522 235.455 227.437C235.148 226.732 234.734 226.078 234.23 225.496C234.168 225.425 234.068 225.528 234.128 225.598Z" fill="#3A3A37"/>
<path d="M244.183 224.915C244.722 225.785 244.945 226.818 244.817 227.834C244.806 227.926 244.95 227.925 244.961 227.834C245.093 226.794 244.859 225.732 244.308 224.842C244.259 224.763 244.135 224.835 244.183 224.915Z" fill="#3A3A37"/>
<path d="M366.455 412.706C374.396 407.31 376.459 396.497 371.064 388.556L300.919 285.325L272.16 304.867L342.305 408.097C347.702 416.039 358.514 418.102 366.455 412.706Z" fill="#F9C7BD"/>
<path d="M304.646 361.509L345.378 333.831L314.817 288.855C307.174 277.607 291.859 274.685 280.611 282.328C269.363 289.972 266.44 305.286 274.084 316.534L304.646 361.509Z" fill="#FF6477"/>
<path d="M126.615 412.706C118.674 407.31 116.611 396.497 122.007 388.556L192.153 285.325L220.91 304.866L150.765 408.096C145.368 416.039 134.556 418.102 126.615 412.706Z" fill="#F9C7BD"/>
<path d="M188.424 361.509L147.691 333.831L178.253 288.855C185.897 277.607 201.21 274.685 212.459 282.328C223.707 289.972 226.629 305.286 218.986 316.534L188.424 361.509Z" fill="#FF6477"/>
<path d="M295.22 388.093C293.414 399.841 289.875 409.106 287.064 415.241H205.437C202.236 410.891 197.999 404.078 195.229 394.876C190.047 377.65 193.228 362.68 195.229 351.887C198.317 335.215 201.734 311.494 203.395 279.484H287.063C290.09 310.602 292.675 335.83 295.219 356.411C295.99 362.639 297.426 373.782 295.22 388.093Z" fill="#FF6477"/>
<path d="M118.434 401.279V399.043C118.434 390.059 125.716 382.777 134.7 382.777H243.77V417.545H134.7C125.716 417.546 118.434 410.264 118.434 401.279Z" fill="#F9C7BD"/>
<path d="M354.364 413.535C363.643 416 373.164 410.476 375.628 401.196L403.339 296.861L369.736 287.936L342.024 392.271C339.56 401.55 345.085 411.071 354.364 413.535Z" fill="#F9C7BD"/>
<path d="M233.746 281.663C235.165 282.886 240.245 286.96 247.917 287.166C256.344 287.391 261.991 282.788 263.299 281.663" stroke="#222F3E" stroke-miterlimit="10"/>
<path d="M399.248 312.301C400.611 307.154 401.974 302.007 403.336 296.86L381.404 289.822C376.081 294.361 373.78 301.068 375.651 306.145C378.263 313.234 389.212 317.704 399.248 312.301Z" fill="#F9B5AA"/>
<path d="M390.642 309.85C381.398 311.943 372.208 306.147 370.114 296.903L365.691 277.377L399.166 269.795L403.588 289.322C405.682 298.566 399.886 307.756 390.642 309.85Z" fill="#F9C7BD"/>
<path d="M399.168 269.795L403.591 289.322C405.685 298.566 399.888 307.756 390.645 309.85" stroke="#F99180" stroke-width="0.25" stroke-miterlimit="10"/>
<path d="M372.72 288.982C370.409 289.505 368.111 288.057 367.588 285.746L358.744 246.693C358.22 244.382 359.669 242.084 361.98 241.561C364.29 241.038 366.589 242.486 367.112 244.797L375.956 283.85C376.481 286.161 375.031 288.459 372.72 288.982Z" fill="#F9C7BD"/>
<path d="M381.088 287.087C378.777 287.61 376.479 286.162 375.956 283.85L372.165 267.113C371.642 264.803 373.091 262.505 375.402 261.981C377.712 261.458 380.011 262.907 380.534 265.217L384.324 281.954C384.848 284.266 383.398 286.563 381.088 287.087Z" fill="#F9B5AA"/>
<path d="M389.455 285.191C387.144 285.714 384.846 284.266 384.323 281.955L380.533 265.218C380.009 262.908 381.458 260.61 383.769 260.086C386.08 259.563 388.378 261.011 388.901 263.322L392.691 280.059C393.215 282.371 391.766 284.668 389.455 285.191Z" fill="#F9B5AA"/>
<path d="M397.826 283.296C395.515 283.819 393.217 282.371 392.694 280.06L388.904 263.323C388.381 261.012 389.829 258.714 392.14 258.191C394.451 257.668 396.749 259.116 397.272 261.427L401.062 278.164C401.586 280.475 400.138 282.773 397.826 283.296Z" fill="#F9B5AA"/>
<path d="M399.121 276.413L399.719 278.751C400.07 280.124 399.242 281.521 397.87 281.872C396.497 282.224 395.1 281.395 394.749 280.023L394.113 277.538" stroke="#222F3E" stroke-width="0.25" stroke-miterlimit="10"/>
<path d="M390.597 278.207L391.195 280.546C391.547 281.918 390.718 283.315 389.346 283.667C387.974 284.018 386.577 283.189 386.225 281.818L385.59 279.333" stroke="#222F3E" stroke-width="0.25" stroke-miterlimit="10"/>
<path d="M382.546 280.113L383.145 282.451C383.496 283.823 382.667 285.221 381.296 285.572C379.923 285.924 378.526 285.095 378.175 283.723L377.539 281.239" stroke="#222F3E" stroke-width="0.25" stroke-miterlimit="10"/>
<path d="M389.936 278.648C391.29 280.592 390.813 283.265 388.869 284.621L374.791 294.434C372.847 295.788 370.173 295.311 368.818 293.367C367.463 291.423 367.94 288.75 369.884 287.394L383.963 277.581C385.907 276.227 388.58 276.704 389.936 278.648Z" fill="#F9B5AA"/>
<path d="M384.195 277.673C385.251 276.73 386.873 276.82 387.817 277.877C388.761 278.933 388.671 280.554 387.614 281.499L385.702 283.208" stroke="#222F3E" stroke-width="0.25" stroke-miterlimit="10"/>
<path d="M344.516 349.486L350.005 376.938L355.393 341.938L350.895 358.874L344.516 349.486Z" fill="#F9B5AA"/>
<path d="M169.989 301.016L147.691 333.83L188.424 361.509" stroke="#222F3E" stroke-miterlimit="10"/>
<path d="M220.043 246.459C221.92 248.47 224.483 250.463 227.912 251.77C236.682 255.111 244.216 251.339 245.353 250.743" stroke="#222F3E" stroke-miterlimit="10"/>
<path d="M248.431 250.743C248.431 251.876 247.512 252.795 246.38 252.795C245.246 252.795 244.328 251.876 244.328 250.743C244.328 249.61 245.247 248.692 246.38 248.692C247.512 248.691 248.431 249.61 248.431 250.743Z" fill="#222F3E"/>
<path d="M224.833 247.665H221.713C217.203 247.665 213.547 244.009 213.547 239.499V233.259C213.547 228.749 217.203 225.093 221.713 225.093H224.833V247.665Z" fill="#131E21"/>
<path d="M224.833 248.691C223.7 248.691 222.781 247.772 222.781 246.638V226.119C222.781 224.986 223.7 224.068 224.833 224.068C225.966 224.068 226.884 224.987 226.884 226.119V246.638C226.885 247.772 225.967 248.691 224.833 248.691Z" fill="#576574"/>
<path d="M271 247.665H274.12C278.63 247.665 282.286 244.009 282.286 239.499V233.259C282.286 228.749 278.63 225.093 274.12 225.093H271V247.665Z" fill="#131E21"/>
<path d="M271.002 248.691C272.134 248.691 273.053 247.772 273.053 246.638V226.119C273.053 224.986 272.134 224.068 271.002 224.068C269.868 224.068 268.949 224.987 268.949 226.119V246.638C268.95 247.772 269.869 248.691 271.002 248.691Z" fill="#576574"/>
<path d="M219.188 230.639C216.737 210.524 231.376 194.13 246.376 193.288C262.329 192.393 279.577 209.036 277.243 230.639C278.943 212.267 264.061 196.943 247.402 197.392C231.296 197.826 217.509 212.9 219.188 230.639Z" fill="#131E21"/>
<path d="M74.9494 415.754H49.303C44.1526 415.754 39.9766 411.579 39.9766 406.427V375.453H84.2758V406.427C84.2758 411.579 80.1007 415.754 74.9494 415.754Z" fill="#FF6477"/>
<path d="M80.0792 415.754H54.4319C49.2815 415.754 45.1055 411.579 45.1055 406.427V375.453H89.4047V406.427C89.4056 411.579 85.2296 415.754 80.0792 415.754Z" stroke="#222F3E" stroke-miterlimit="10"/>
<path d="M39.9766 302.259C48.1001 302.259 54.6857 308.844 54.6857 316.968V375.329" stroke="#222F3E" stroke-miterlimit="10"/>
<path d="M39.647 301.529C39.647 304.93 36.8908 307.685 33.4915 307.685C30.0911 307.685 27.3359 304.929 27.3359 301.529C27.3359 298.13 30.0921 295.374 33.4915 295.374C36.8908 295.373 39.647 298.129 39.647 301.529Z" stroke="#222F3E" stroke-miterlimit="10"/>
<path d="M88.9162 319.14C82.6695 319.14 77.6055 324.204 77.6055 330.451V375.33" stroke="#222F3E" stroke-miterlimit="10"/>
<path d="M89.1719 318.579C89.1719 321.193 91.2916 323.313 93.9056 323.313C96.5197 323.313 98.6394 321.193 98.6394 318.579C98.6394 315.965 96.5197 313.845 93.9056 313.845C91.2916 313.845 89.1719 315.964 89.1719 318.579Z" fill="#FF6477"/>
<path d="M66.3228 273.828C66.3228 277.228 63.5666 279.983 60.1672 279.983C56.7679 279.983 54.0117 277.227 54.0117 273.828C54.0117 270.428 56.7679 267.672 60.1672 267.672C63.5676 267.672 66.3228 270.428 66.3228 273.828Z" fill="#ED4C67"/>
<path d="M60.543 279.484V375.454" stroke="#222F3E" stroke-miterlimit="10"/>
<path d="M77.0962 294.86C77.0962 298.26 74.34 301.016 70.9407 301.016C67.5413 301.016 64.7852 298.26 64.7852 294.86C64.7852 291.461 67.5413 288.705 70.9407 288.705C74.34 288.704 77.0962 291.46 77.0962 294.86Z" fill="#ED4C67"/>
<path d="M70.8008 301.016V375.454" stroke="#222F3E" stroke-miterlimit="10"/>
<path d="M54.6227 334.873C54.6227 340.256 50.2585 344.62 44.8758 344.62C39.4931 344.62 35.1289 340.256 35.1289 334.873H54.6227Z" fill="#ED4C67"/>
<path d="M91.557 334.393C91.557 338.076 88.5714 341.062 84.8879 341.062C81.2043 341.062 78.2188 338.076 78.2188 334.393H91.557Z" stroke="#222F3E" stroke-miterlimit="10"/>
<path d="M59.7523 291.782C59.7523 295.466 56.7667 298.452 53.0832 298.452C49.3997 298.452 46.4141 295.466 46.4141 291.782H59.7523Z" fill="#FF6477"/>
<path d="M302.396 416.951H191.314C188.466 387.882 185.618 358.812 182.77 329.743C225.177 329.743 267.584 329.743 309.991 329.743C307.459 358.812 304.928 387.882 302.396 416.951Z" fill="#ED4C67"/>
<path d="M191.314 417.465C188.466 388.395 185.618 359.326 182.77 330.256C225.177 330.256 267.584 330.256 309.991 330.256" stroke="#222F3E" stroke-miterlimit="10"/>
<path d="M246.191 388.722C253.414 388.722 259.269 382.726 259.269 375.329C259.269 367.933 253.414 361.936 246.191 361.936C238.969 361.936 233.113 367.933 233.113 375.329C233.113 382.726 238.969 388.722 246.191 388.722Z" fill="white"/>
<path d="M259.266 375.329C259.266 382.726 253.411 388.722 246.187 388.722C238.964 388.722 233.109 382.726 233.109 375.329C233.109 367.932 238.964 361.936 246.187 361.936" stroke="#222F3E" stroke-miterlimit="10"/>
<path d="M445.742 415.754H23.0391V427.04H445.742V415.754Z" fill="#131E21"/>
<path d="M195.412 100.177H143.492C136.606 100.177 131.023 94.5945 131.023 87.7085V54.0259C131.023 47.1398 136.606 41.5584 143.492 41.5584H195.412C202.298 41.5584 207.879 47.1408 207.879 54.0259V87.7085C207.88 94.5945 202.298 100.177 195.412 100.177Z" fill="#ED4C67"/>
<path d="M151.019 110.598L142.355 95.593H159.683L151.019 110.598Z" fill="#ED4C67"/>
<path d="M155.624 69.6112C155.624 74.0108 152.057 77.5772 147.657 77.5772C143.258 77.5772 139.691 74.0108 139.691 69.6112C139.691 65.2115 143.258 61.6451 147.657 61.6451" stroke="#222F3E" stroke-miterlimit="10"/>
<path d="M175.922 64.9545C178.494 68.5238 177.686 73.5024 174.115 76.0742C170.545 78.6461 165.568 77.8377 162.996 74.2675C160.424 70.6982 161.232 65.7197 164.802 63.1478" stroke="#222F3E" stroke-miterlimit="10"/>
<path d="M186.697 63.0835C190.301 60.5616 195.268 61.441 197.79 65.0458C200.311 68.6515 199.433 73.6176 195.828 76.1395C192.222 78.6614 187.256 77.7821 184.734 74.1773" stroke="#222F3E" stroke-miterlimit="10"/>
<path d="M223.965 134.046L215.301 119.04H232.628L223.965 134.046Z" fill="#FF6477"/>
<path d="M234.49 122.322H182.57C175.684 122.322 170.102 116.74 170.102 109.854V76.1712C170.102 69.2852 175.684 63.7028 182.57 63.7028H234.49C241.376 63.7028 246.958 69.2852 246.958 76.1712V109.854C246.957 116.74 241.376 122.322 234.49 122.322Z" fill="#FF6477"/>
<path d="M346.848 147.486L338.184 132.48H355.511L346.848 147.486Z" fill="#FF6477"/>
<path d="M388.812 135.762H305.453C298.567 135.762 292.984 130.18 292.984 123.294V89.6112C292.984 82.7252 298.567 77.1428 305.453 77.1428H388.813C395.699 77.1428 401.281 82.7252 401.281 89.6112V123.294C401.28 130.18 395.698 135.762 388.812 135.762Z" fill="#FF6477"/>
<path d="M347.13 94.08H306.238V87.84H387.838" stroke="#222F3E" stroke-miterlimit="10"/>
<path d="M347.13 106.56H306.238V100.32H387.838" stroke="#222F3E" stroke-miterlimit="10"/>
<path d="M347.13 112.8H306.238V119.04H387.838" stroke="#222F3E" stroke-miterlimit="10"/>
<path d="M194.237 92.3757C194.237 96.7754 190.67 100.342 186.271 100.342C181.871 100.342 178.305 96.7754 178.305 92.3757C178.305 87.976 181.871 84.4096 186.271 84.4096" stroke="#222F3E" stroke-miterlimit="10"/>
<path d="M214.535 87.7191C217.107 91.2884 216.299 96.2669 212.729 98.8387C209.159 101.411 204.181 100.602 201.609 97.032C199.037 93.4627 199.846 88.4842 203.416 85.9124" stroke="#222F3E" stroke-miterlimit="10"/>
<path d="M225.309 85.848C228.915 83.3261 233.881 84.2055 236.403 87.8103C238.924 91.4151 238.045 96.3821 234.44 98.904C230.836 101.426 225.869 100.547 223.348 96.9418" stroke="#222F3E" stroke-miterlimit="10"/>
<g opacity="0.46">
<path d="M325.729 177.578C327.057 177.578 328.134 176.501 328.134 175.173C328.134 173.845 327.057 172.768 325.729 172.768C324.401 172.768 323.324 173.845 323.324 175.173C323.324 176.501 324.401 177.578 325.729 177.578Z" fill="#FF6477"/>
<path d="M335.829 175.173C335.829 176.501 334.753 177.578 333.424 177.578C332.097 177.578 331.02 176.502 331.02 175.173C331.02 173.845 332.096 172.768 333.424 172.768C334.753 172.769 335.829 173.845 335.829 175.173Z" fill="#FF6477"/>
<path d="M343.524 175.173C343.524 176.501 342.448 177.578 341.12 177.578C339.792 177.578 338.715 176.502 338.715 175.173C338.715 173.845 339.791 172.768 341.12 172.768C342.447 172.769 343.524 173.845 343.524 175.173Z" fill="#FF6477"/>
<path d="M348.815 177.578C350.143 177.578 351.22 176.501 351.22 175.173C351.22 173.845 350.143 172.768 348.815 172.768C347.487 172.768 346.41 173.845 346.41 175.173C346.41 176.501 347.487 177.578 348.815 177.578Z" fill="#FF6477"/>
<path d="M325.729 186.235C327.057 186.235 328.134 185.159 328.134 183.83C328.134 182.502 327.057 181.426 325.729 181.426C324.401 181.426 323.324 182.502 323.324 183.83C323.324 185.159 324.401 186.235 325.729 186.235Z" fill="#FF6477"/>
<path d="M335.829 183.83C335.829 185.158 334.753 186.235 333.424 186.235C332.097 186.235 331.02 185.159 331.02 183.83C331.02 182.503 332.096 181.426 333.424 181.426C334.753 181.426 335.829 182.502 335.829 183.83Z" fill="#FF6477"/>
<path d="M343.524 183.83C343.524 185.158 342.448 186.235 341.12 186.235C339.792 186.235 338.715 185.159 338.715 183.83C338.715 182.503 339.791 181.426 341.12 181.426C342.447 181.426 343.524 182.502 343.524 183.83Z" fill="#FF6477"/>
<path d="M348.815 186.235C350.143 186.235 351.22 185.159 351.22 183.83C351.22 182.502 350.143 181.426 348.815 181.426C347.487 181.426 346.41 182.502 346.41 183.83C346.41 185.159 347.487 186.235 348.815 186.235Z" fill="#FF6477"/>
<path d="M328.134 192.487C328.134 193.814 327.058 194.892 325.729 194.892C324.401 194.892 323.324 193.815 323.324 192.487C323.324 191.159 324.4 190.082 325.729 190.082C327.057 190.082 328.134 191.159 328.134 192.487Z" fill="#FF6477"/>
<path d="M335.829 192.487C335.829 193.814 334.753 194.892 333.424 194.892C332.097 194.892 331.02 193.815 331.02 192.487C331.02 191.159 332.096 190.082 333.424 190.082C334.753 190.082 335.829 191.159 335.829 192.487Z" fill="#FF6477"/>
<path d="M343.524 192.487C343.524 193.814 342.448 194.892 341.12 194.892C339.792 194.892 338.715 193.815 338.715 192.487C338.715 191.159 339.791 190.082 341.12 190.082C342.447 190.082 343.524 191.159 343.524 192.487Z" fill="#FF6477"/>
<path d="M351.22 192.487C351.22 193.814 350.144 194.892 348.815 194.892C347.486 194.892 346.41 193.815 346.41 192.487C346.41 191.159 347.486 190.082 348.815 190.082C350.144 190.082 351.22 191.159 351.22 192.487Z" fill="#FF6477"/>
<path d="M328.134 201.144C328.134 202.472 327.058 203.549 325.729 203.549C324.401 203.549 323.324 202.472 323.324 201.144C323.324 199.816 324.4 198.739 325.729 198.739C327.057 198.739 328.134 199.815 328.134 201.144Z" fill="#FF6477"/>
<path d="M335.829 201.144C335.829 202.472 334.753 203.549 333.424 203.549C332.097 203.549 331.02 202.472 331.02 201.144C331.02 199.816 332.096 198.739 333.424 198.739C334.753 198.739 335.829 199.815 335.829 201.144Z" fill="#FF6477"/>
<path d="M343.524 201.144C343.524 202.472 342.448 203.549 341.12 203.549C339.792 203.549 338.715 202.472 338.715 201.144C338.715 199.816 339.791 198.739 341.12 198.739C342.447 198.739 343.524 199.815 343.524 201.144Z" fill="#FF6477"/>
<path d="M351.22 201.144C351.22 202.472 350.144 203.549 348.815 203.549C347.486 203.549 346.41 202.472 346.41 201.144C346.41 199.816 347.486 198.739 348.815 198.739C350.144 198.739 351.22 199.815 351.22 201.144Z" fill="#FF6477"/>
</g>
<g opacity="0.46">
<path d="M296.329 147.472C296.329 148.8 295.253 149.877 293.924 149.877C292.597 149.877 291.52 148.8 291.52 147.472C291.52 146.145 292.596 145.068 293.924 145.068C295.253 145.068 296.329 146.145 296.329 147.472Z" fill="#FF6477"/>
<path d="M304.024 147.472C304.024 148.8 302.947 149.877 301.62 149.877C300.292 149.877 299.215 148.8 299.215 147.472C299.215 146.145 300.291 145.068 301.62 145.068C302.947 145.068 304.024 146.145 304.024 147.472Z" fill="#FF6477"/>
<path d="M311.72 147.472C311.72 148.8 310.644 149.877 309.315 149.877C307.986 149.877 306.91 148.8 306.91 147.472C306.91 146.145 307.986 145.068 309.315 145.068C310.644 145.068 311.72 146.145 311.72 147.472Z" fill="#FF6477"/>
<path d="M319.415 147.472C319.415 148.8 318.339 149.877 317.01 149.877C315.683 149.877 314.605 148.8 314.605 147.472C314.605 146.145 315.682 145.068 317.01 145.068C318.339 145.068 319.415 146.145 319.415 147.472Z" fill="#FF6477"/>
<path d="M293.924 158.533C295.252 158.533 296.329 157.457 296.329 156.129C296.329 154.8 295.252 153.724 293.924 153.724C292.596 153.724 291.52 154.8 291.52 156.129C291.52 157.457 292.596 158.533 293.924 158.533Z" fill="#FF6477"/>
<path d="M304.024 156.129C304.024 157.456 302.947 158.533 301.62 158.533C300.292 158.533 299.215 157.457 299.215 156.129C299.215 154.801 300.291 153.724 301.62 153.724C302.947 153.724 304.024 154.801 304.024 156.129Z" fill="#FF6477"/>
<path d="M309.315 158.533C310.643 158.533 311.72 157.457 311.72 156.129C311.72 154.8 310.643 153.724 309.315 153.724C307.987 153.724 306.91 154.8 306.91 156.129C306.91 157.457 307.987 158.533 309.315 158.533Z" fill="#FF6477"/>
<path d="M317.01 158.533C318.338 158.533 319.415 157.457 319.415 156.129C319.415 154.8 318.338 153.724 317.01 153.724C315.682 153.724 314.605 154.8 314.605 156.129C314.605 157.457 315.682 158.533 317.01 158.533Z" fill="#FF6477"/>
<path d="M293.924 167.191C295.252 167.191 296.329 166.114 296.329 164.786C296.329 163.458 295.252 162.381 293.924 162.381C292.596 162.381 291.52 163.458 291.52 164.786C291.52 166.114 292.596 167.191 293.924 167.191Z" fill="#FF6477"/>
<path d="M304.024 164.786C304.024 166.114 302.947 167.191 301.62 167.191C300.292 167.191 299.215 166.115 299.215 164.786C299.215 163.458 300.291 162.381 301.62 162.381C302.947 162.381 304.024 163.457 304.024 164.786Z" fill="#FF6477"/>
<path d="M309.315 167.191C310.643 167.191 311.72 166.114 311.72 164.786C311.72 163.458 310.643 162.381 309.315 162.381C307.987 162.381 306.91 163.458 306.91 164.786C306.91 166.114 307.987 167.191 309.315 167.191Z" fill="#FF6477"/>
<path d="M317.01 167.191C318.338 167.191 319.415 166.114 319.415 164.786C319.415 163.458 318.338 162.381 317.01 162.381C315.682 162.381 314.605 163.458 314.605 164.786C314.605 166.114 315.682 167.191 317.01 167.191Z" fill="#FF6477"/>
<path d="M296.329 173.442C296.329 174.77 295.253 175.847 293.924 175.847C292.597 175.847 291.52 174.771 291.52 173.442C291.52 172.115 292.596 171.037 293.924 171.037C295.253 171.037 296.329 172.115 296.329 173.442Z" fill="#FF6477"/>
<path d="M304.024 173.442C304.024 174.77 302.947 175.847 301.62 175.847C300.292 175.847 299.215 174.771 299.215 173.442C299.215 172.115 300.291 171.037 301.62 171.037C302.947 171.037 304.024 172.115 304.024 173.442Z" fill="#FF6477"/>
<path d="M311.72 173.442C311.72 174.77 310.644 175.847 309.315 175.847C307.986 175.847 306.91 174.771 306.91 173.442C306.91 172.115 307.986 171.037 309.315 171.037C310.644 171.037 311.72 172.115 311.72 173.442Z" fill="#FF6477"/>
<path d="M319.415 173.442C319.415 174.77 318.339 175.847 317.01 175.847C315.683 175.847 314.605 174.771 314.605 173.442C314.605 172.115 315.682 171.037 317.01 171.037C318.339 171.037 319.415 172.115 319.415 173.442Z" fill="#FF6477"/>
</g>
<g opacity="0.46">
<path d="M163.627 225.799C164.956 225.799 166.032 224.722 166.032 223.394C166.032 222.066 164.956 220.989 163.627 220.989C162.299 220.989 161.223 222.066 161.223 223.394C161.223 224.722 162.299 225.799 163.627 225.799Z" fill="#FF6477"/>
<path d="M173.728 223.394C173.728 224.722 172.65 225.799 171.323 225.799C169.995 225.799 168.918 224.723 168.918 223.394C168.918 222.066 169.995 220.989 171.323 220.989C172.65 220.99 173.728 222.066 173.728 223.394Z" fill="#FF6477"/>
<path d="M179.018 225.799C180.346 225.799 181.423 224.722 181.423 223.394C181.423 222.066 180.346 220.989 179.018 220.989C177.69 220.989 176.613 222.066 176.613 223.394C176.613 224.722 177.69 225.799 179.018 225.799Z" fill="#FF6477"/>
<path d="M186.713 225.799C188.042 225.799 189.118 224.722 189.118 223.394C189.118 222.066 188.042 220.989 186.713 220.989C185.385 220.989 184.309 222.066 184.309 223.394C184.309 224.722 185.385 225.799 186.713 225.799Z" fill="#FF6477"/>
<path d="M163.627 234.456C164.956 234.456 166.032 233.379 166.032 232.051C166.032 230.723 164.956 229.646 163.627 229.646C162.299 229.646 161.223 230.723 161.223 232.051C161.223 233.379 162.299 234.456 163.627 234.456Z" fill="#FF6477"/>
<path d="M173.728 232.051C173.728 233.379 172.65 234.456 171.323 234.456C169.995 234.456 168.918 233.38 168.918 232.051C168.918 230.723 169.995 229.646 171.323 229.646C172.65 229.646 173.728 230.723 173.728 232.051Z" fill="#FF6477"/>
<path d="M179.018 234.456C180.346 234.456 181.423 233.379 181.423 232.051C181.423 230.723 180.346 229.646 179.018 229.646C177.69 229.646 176.613 230.723 176.613 232.051C176.613 233.379 177.69 234.456 179.018 234.456Z" fill="#FF6477"/>
<path d="M186.713 234.456C188.042 234.456 189.118 233.379 189.118 232.051C189.118 230.723 188.042 229.646 186.713 229.646C185.385 229.646 184.309 230.723 184.309 232.051C184.309 233.379 185.385 234.456 186.713 234.456Z" fill="#FF6477"/>
<path d="M166.032 240.707C166.032 242.035 164.956 243.112 163.627 243.112C162.3 243.112 161.223 242.036 161.223 240.707C161.223 239.38 162.299 238.303 163.627 238.303C164.956 238.303 166.032 239.38 166.032 240.707Z" fill="#FF6477"/>
<path d="M173.728 240.707C173.728 242.035 172.65 243.112 171.323 243.112C169.995 243.112 168.918 242.036 168.918 240.707C168.918 239.38 169.995 238.303 171.323 238.303C172.65 238.303 173.728 239.38 173.728 240.707Z" fill="#FF6477"/>
<path d="M181.423 240.707C181.423 242.035 180.347 243.112 179.018 243.112C177.69 243.112 176.613 242.036 176.613 240.707C176.613 239.38 177.689 238.303 179.018 238.303C180.347 238.303 181.423 239.38 181.423 240.707Z" fill="#FF6477"/>
<path d="M189.118 240.707C189.118 242.035 188.042 243.112 186.713 243.112C185.385 243.112 184.309 242.036 184.309 240.707C184.309 239.38 185.385 238.303 186.713 238.303C188.042 238.303 189.118 239.38 189.118 240.707Z" fill="#FF6477"/>
<path d="M163.627 251.77C164.956 251.77 166.032 250.693 166.032 249.365C166.032 248.037 164.956 246.96 163.627 246.96C162.299 246.96 161.223 248.037 161.223 249.365C161.223 250.693 162.299 251.77 163.627 251.77Z" fill="#FF6477"/>
<path d="M173.728 249.365C173.728 250.692 172.65 251.77 171.323 251.77C169.995 251.77 168.918 250.693 168.918 249.365C168.918 248.037 169.995 246.96 171.323 246.96C172.65 246.96 173.728 248.036 173.728 249.365Z" fill="#FF6477"/>
<path d="M179.018 251.77C180.346 251.77 181.423 250.693 181.423 249.365C181.423 248.037 180.346 246.96 179.018 246.96C177.69 246.96 176.613 248.037 176.613 249.365C176.613 250.693 177.69 251.77 179.018 251.77Z" fill="#FF6477"/>
<path d="M186.713 251.77C188.042 251.77 189.118 250.693 189.118 249.365C189.118 248.037 188.042 246.96 186.713 246.96C185.385 246.96 184.309 248.037 184.309 249.365C184.309 250.693 185.385 251.77 186.713 251.77Z" fill="#FF6477"/>
</g>
<g opacity="0.46">
<path d="M134.228 195.693C134.228 197.021 133.151 198.098 131.823 198.098C130.495 198.098 129.418 197.021 129.418 195.693C129.418 194.365 130.494 193.288 131.823 193.288C133.15 193.288 134.228 194.365 134.228 195.693Z" fill="#FF6477"/>
<path d="M141.923 195.693C141.923 197.021 140.847 198.098 139.518 198.098C138.19 198.098 137.113 197.021 137.113 195.693C137.113 194.365 138.189 193.288 139.518 193.288C140.847 193.288 141.923 194.365 141.923 195.693Z" fill="#FF6477"/>
<path d="M149.618 195.693C149.618 197.021 148.542 198.098 147.213 198.098C145.886 198.098 144.809 197.021 144.809 195.693C144.809 194.365 145.885 193.288 147.213 193.288C148.541 193.288 149.618 194.365 149.618 195.693Z" fill="#FF6477"/>
<path d="M157.314 195.693C157.314 197.021 156.236 198.098 154.909 198.098C153.581 198.098 152.504 197.021 152.504 195.693C152.504 194.365 153.58 193.288 154.909 193.288C156.236 193.288 157.314 194.365 157.314 195.693Z" fill="#FF6477"/>
<path d="M131.823 206.754C133.151 206.754 134.228 205.678 134.228 204.349C134.228 203.021 133.151 201.945 131.823 201.945C130.495 201.945 129.418 203.021 129.418 204.349C129.418 205.678 130.495 206.754 131.823 206.754Z" fill="#FF6477"/>
<path d="M141.923 204.349C141.923 205.677 140.847 206.754 139.518 206.754C138.19 206.754 137.113 205.678 137.113 204.349C137.113 203.022 138.189 201.945 139.518 201.945C140.847 201.945 141.923 203.022 141.923 204.349Z" fill="#FF6477"/>
<path d="M147.213 206.754C148.542 206.754 149.618 205.678 149.618 204.349C149.618 203.021 148.542 201.945 147.213 201.945C145.885 201.945 144.809 203.021 144.809 204.349C144.809 205.678 145.885 206.754 147.213 206.754Z" fill="#FF6477"/>
<path d="M157.314 204.349C157.314 205.677 156.236 206.754 154.909 206.754C153.581 206.754 152.504 205.678 152.504 204.349C152.504 203.022 153.58 201.945 154.909 201.945C156.236 201.945 157.314 203.022 157.314 204.349Z" fill="#FF6477"/>
<path d="M134.228 213.007C134.228 214.334 133.151 215.411 131.823 215.411C130.495 215.411 129.418 214.334 129.418 213.007C129.418 211.679 130.494 210.602 131.823 210.602C133.15 210.602 134.228 211.678 134.228 213.007Z" fill="#FF6477"/>
<path d="M141.923 213.007C141.923 214.334 140.847 215.411 139.518 215.411C138.19 215.411 137.113 214.334 137.113 213.007C137.113 211.679 138.189 210.602 139.518 210.602C140.847 210.602 141.923 211.678 141.923 213.007Z" fill="#FF6477"/>
<path d="M149.618 213.007C149.618 214.334 148.542 215.411 147.213 215.411C145.886 215.411 144.809 214.334 144.809 213.007C144.809 211.679 145.885 210.602 147.213 210.602C148.541 210.602 149.618 211.678 149.618 213.007Z" fill="#FF6477"/>
<path d="M157.314 213.007C157.314 214.334 156.236 215.411 154.909 215.411C153.581 215.411 152.504 214.334 152.504 213.007C152.504 211.679 153.58 210.602 154.909 210.602C156.236 210.602 157.314 211.678 157.314 213.007Z" fill="#FF6477"/>
<path d="M134.228 221.663C134.228 222.991 133.151 224.068 131.823 224.068C130.495 224.068 129.418 222.991 129.418 221.663C129.418 220.335 130.494 219.258 131.823 219.258C133.15 219.258 134.228 220.335 134.228 221.663Z" fill="#FF6477"/>
<path d="M141.923 221.663C141.923 222.991 140.847 224.068 139.518 224.068C138.19 224.068 137.113 222.991 137.113 221.663C137.113 220.335 138.189 219.258 139.518 219.258C140.847 219.258 141.923 220.335 141.923 221.663Z" fill="#FF6477"/>
<path d="M149.618 221.663C149.618 222.991 148.542 224.068 147.213 224.068C145.886 224.068 144.809 222.991 144.809 221.663C144.809 220.335 145.885 219.258 147.213 219.258C148.541 219.258 149.618 220.335 149.618 221.663Z" fill="#FF6477"/>
<path d="M157.314 221.663C157.314 222.991 156.236 224.068 154.909 224.068C153.581 224.068 152.504 222.991 152.504 221.663C152.504 220.335 153.58 219.258 154.909 219.258C156.236 219.258 157.314 220.335 157.314 221.663Z" fill="#FF6477"/>
</g>
<path d="M184.771 163.211C184.771 160.654 182.924 159.659 180.792 159.659C178.376 159.659 176.813 160.937 174.965 162.643L168.285 156.532C171.767 152.553 176.67 149.853 182.355 149.853C190.171 149.853 196.425 153.406 196.425 162.359C196.425 170.886 186.05 173.16 186.76 180.976H176.101C174.681 171.739 184.771 167.76 184.771 163.211ZM174.255 191.777C174.255 187.656 177.24 184.387 181.361 184.387C185.483 184.387 188.467 187.655 188.467 191.777C188.467 195.899 185.483 199.167 181.361 199.167C177.239 199.167 174.255 195.899 174.255 191.777Z" fill="#FF6477"/>
<path d="M181.286 184.236C185.448 184.236 188.822 187.61 188.822 191.772C188.822 195.933 185.448 199.308 181.286 199.308C177.124 199.308 173.75 195.933 173.75 191.772" stroke="#222F3E" stroke-miterlimit="10"/>
<path d="M328.069 233.586C328.069 231.559 326.605 230.77 324.915 230.77C323 230.77 321.761 231.784 320.297 233.136L315.004 228.293C317.764 225.139 321.649 222.999 326.154 222.999C332.349 222.999 337.305 225.815 337.305 232.911C337.305 239.669 329.082 241.472 329.646 247.666H321.199C320.072 240.344 328.069 237.19 328.069 233.586ZM319.734 256.225C319.734 252.959 322.099 250.368 325.365 250.368C328.632 250.368 330.997 252.958 330.997 256.225C330.997 259.492 328.631 262.082 325.365 262.082C322.099 262.082 319.734 259.492 319.734 256.225Z" fill="#ED4C67"/>
<path d="M325.308 250.248C328.607 250.248 331.28 252.922 331.28 256.22C331.28 259.519 328.606 262.192 325.308 262.192C322.01 262.192 319.336 259.519 319.336 256.22" stroke="#222F3E" stroke-miterlimit="10"/>
<path d="M98.7547 204.446C117.954 204.446 133.517 188.883 133.517 169.684C133.517 150.485 117.954 134.921 98.7547 134.921C79.5559 134.921 63.9922 150.485 63.9922 169.684C63.9922 188.883 79.5559 204.446 98.7547 204.446Z" fill="#FF6477"/>
<path d="M98.5165 135.048C117.716 135.048 133.279 150.611 133.279 169.811C133.279 189.01 117.716 204.573 98.5165 204.573C79.3174 204.573 63.7539 189.01 63.7539 169.811" stroke="#222F3E" stroke-miterlimit="10"/>
<path d="M98.7578 142.081V169.684L115.949 181.526" stroke="#222F3E" stroke-miterlimit="10"/>
<path d="M429.425 165.12H352.742V219.147H429.425V165.12Z" fill="#FF6477"/>
<path d="M391.388 192.133L354.223 165.12H428.554L391.388 192.133Z" fill="#FF9F43"/>
<path d="M382.976 198.249L358.301 216.183" stroke="#222F3E" stroke-miterlimit="10"/>
<path d="M426.26 217.479L399.801 198.249" stroke="#222F3E" stroke-miterlimit="10"/>
<path d="M325.903 194.693C326.148 193.043 326.119 191.39 325.839 189.796L329.308 188.239L326.497 181.976L323.177 183.466C322.14 182.022 320.848 180.746 319.331 179.721L320.699 176.124L314.285 173.684L312.937 177.225C311.098 176.951 309.259 177.02 307.495 177.395L305.916 173.875L299.655 176.686L301.268 180.28C300.004 181.257 298.886 182.435 297.965 183.794L294.369 182.426L291.93 188.843L295.47 190.188C295.244 191.714 295.252 193.239 295.475 194.719L291.59 196.465L294.401 202.726L297.988 201.116C299.056 202.684 300.421 204.067 302.04 205.163L300.672 208.76L307.089 211.199L308.437 207.659C310.401 207.949 312.367 207.852 314.235 207.407L315.786 210.859L322.049 208.048L320.398 204.372C321.542 203.443 322.56 202.342 323.41 201.087L327.006 202.455L329.447 196.041L325.903 194.693ZM317.998 195.267C316.453 199.334 311.901 201.378 307.832 199.831C303.765 198.285 301.721 193.733 303.266 189.664C304.814 185.597 309.367 183.553 313.435 185.1C317.502 186.646 319.546 191.199 317.998 195.267Z" fill="#FF6477"/>
<path d="M318.328 192.549C318.328 196.805 314.878 200.254 310.623 200.254C306.367 200.254 302.918 196.804 302.918 192.549C302.918 188.293 306.368 184.844 310.623 184.844" stroke="#222F3E" stroke-miterlimit="10"/>
<path d="M150.243 277.254C150.634 274.617 150.588 271.977 150.141 269.429L155.685 266.941L151.193 256.934L145.887 259.315C144.231 257.009 142.166 254.969 139.743 253.331L141.929 247.584L131.68 243.685L129.527 249.343C126.588 248.906 123.649 249.016 120.831 249.616L118.308 243.991L108.304 248.483L110.881 254.225C108.862 255.785 107.074 257.669 105.604 259.84L99.8569 257.654L95.9584 267.907L101.616 270.058C101.253 272.495 101.267 274.933 101.622 277.296L95.4141 280.086L99.9059 290.09L105.638 287.517C107.344 290.023 109.526 292.233 112.113 293.985L109.927 299.731L120.18 303.63L122.333 297.972C125.472 298.438 128.613 298.282 131.598 297.571L134.075 303.086L144.082 298.595L141.445 292.72C143.272 291.235 144.899 289.476 146.257 287.472L152.003 289.658L155.902 279.409L150.243 277.254ZM137.614 278.171C135.144 284.671 127.87 287.936 121.37 285.463C114.87 282.993 111.604 275.719 114.074 269.219C116.547 262.718 123.821 259.453 130.321 261.926C136.821 264.396 140.087 271.67 137.614 278.171Z" fill="#FF6477"/>
<path d="M138.136 273.828C138.136 280.627 132.623 286.14 125.824 286.14C119.024 286.14 113.512 280.627 113.512 273.828C113.512 267.028 119.024 261.516 125.824 261.516" stroke="#222F3E" stroke-miterlimit="10"/>
</svg>
