<svg width="260" height="261" viewBox="0 0 260 261" fill="none" xmlns="http://www.w3.org/2000/svg">
<path d="M241.436 37.121C241.943 40.7933 239.205 43.3662 233.499 44.153L222.027 45.7348L219.098 24.4913L229.962 22.9926C235.546 22.2225 238.591 24.1221 239.043 27.4002C239.324 29.4334 238.518 31.2144 236.828 32.4062C239.342 32.9252 241.081 34.5413 241.436 37.121ZM225.644 28.0106L226.21 32.1077L230.337 31.5383C232.341 31.2622 233.276 30.4219 233.088 29.0564C232.904 27.7215 231.776 27.1651 229.772 27.4418L225.644 28.0106ZM235.274 37.2906C235.073 35.8335 233.885 35.2865 231.821 35.5704L226.783 36.2651L227.377 40.5744L232.415 39.8796C234.479 39.5957 235.476 38.7471 235.274 37.2906Z" fill="#E0E0E0"/>
<path d="M42.8659 159.552H19.7852V163.21H42.8659V159.552Z" fill="#EBEBEB"/>
<path d="M42.8659 172.862H19.7852V176.52H42.8659V172.862Z" fill="#EBEBEB"/>
<path d="M31.3255 166.44H19.7852V170.098H31.3255V166.44Z" fill="#EBEBEB"/>
<path d="M103.973 190.544H86.2578V175.994H95.4343V179.063H89.3269V187.475H100.904V184.417H103.973V190.544Z" fill="#EBEBEB"/>
<path d="M114.187 190.544H106.636V187.475H111.118V179.063H99.5417V182.982H96.4727V175.994H114.187V190.544Z" fill="#EBEBEB"/>
<path d="M243.812 67.2451H246.876L242.587 88.6899H239.523L243.812 67.2451Z" fill="#EBEBEB"/>
<path d="M13.0039 41.9856H60.7893V111.269H13.3294L13.0039 41.9856Z" fill="#E0E0E0"/>
<path d="M9.41885 110.944H56.7695L56.7695 42.3114H9.41885L9.41885 110.944Z" fill="white"/>
<path d="M57.0955 41.9856V111.269H9.09375V41.9856H57.0955ZM56.4444 110.618V42.6367H9.74479V110.618H56.4444Z" fill="#E0E0E0"/>
<path d="M50.8893 49.7445H15.3047V103.51H50.8893V49.7445Z" fill="white"/>
<path d="M15.3044 49.7445C15.3044 49.7445 15.3107 49.8371 15.3138 50.0097C15.3159 50.1917 15.319 50.445 15.3232 50.7741C15.3273 51.4553 15.3336 52.4444 15.3419 53.7267C15.3518 56.3095 15.3658 60.0645 15.3835 64.8063C15.4022 74.288 15.4287 87.7082 15.4599 103.51L15.3044 103.354C26.1766 103.35 38.2234 103.346 50.8849 103.34H50.8891L50.7196 103.51C50.7326 83.2279 50.7445 64.5287 50.7539 49.744L50.8891 49.8792C40.0601 49.8496 31.1811 49.8251 24.9983 49.808C21.9079 49.7929 19.4936 49.7815 17.8389 49.7737C17.021 49.7669 16.3933 49.7622 15.9576 49.7586C15.5306 49.7544 15.3044 49.7445 15.3044 49.7445C15.3044 49.7445 15.5114 49.7347 15.929 49.73C16.359 49.7263 16.9783 49.7217 17.7854 49.7149C19.4332 49.7071 21.8372 49.6957 24.9146 49.6806C31.1176 49.6634 40.0252 49.639 50.8896 49.6093L51.0248 49.6088V49.7445C51.0342 64.5292 51.0461 83.2284 51.0591 103.51V103.68H50.8891H50.8849C38.2234 103.675 26.1771 103.67 15.3044 103.666H15.1484L15.149 103.51C15.1802 87.6671 15.2067 74.2116 15.2254 64.7049C15.2431 59.9776 15.2576 56.2347 15.267 53.6607C15.2753 52.3919 15.2816 51.4132 15.2857 50.7388C15.2899 50.4169 15.293 50.1699 15.2951 49.9915C15.2982 49.8251 15.3044 49.7445 15.3044 49.7445Z" fill="#E0E0E0"/>
<path d="M9.28826 110.944C9.25134 110.915 9.54566 110.466 10.0527 109.764C10.5597 109.062 11.2788 108.106 12.1046 107.073C12.9314 106.041 13.7129 105.133 14.2979 104.494C14.8835 103.854 15.2693 103.481 15.3036 103.511C15.3759 103.575 14.0151 105.225 12.3687 107.286C10.7255 109.348 9.36522 111.004 9.28826 110.944Z" fill="#E0E0E0"/>
<path d="M9.42102 42.3112C9.49434 42.2529 10.8708 43.8701 12.4953 45.9226C14.1203 47.9755 15.3776 49.6863 15.3038 49.7446C15.2305 49.8028 13.854 48.1861 12.2295 46.1332C10.6056 44.0807 9.3477 42.3694 9.42102 42.3112Z" fill="#E0E0E0"/>
<path d="M56.7763 42.3657C54.7087 44.9163 52.6417 47.4674 50.5742 50.018L56.7763 42.3657Z" fill="white"/>
<path d="M50.5732 50.0181C50.5004 49.9588 51.83 48.1981 53.5424 46.0853C55.2552 43.972 56.7024 42.307 56.7752 42.3657C56.848 42.4245 55.5189 44.1852 53.806 46.2985C52.0931 48.4118 50.646 50.0768 50.5732 50.0181Z" fill="#E0E0E0"/>
<path d="M56.7716 110.944C56.6983 111.002 55.3359 109.402 53.7291 107.37C52.1218 105.338 50.879 103.645 50.9523 103.586C51.0256 103.528 52.3875 105.128 53.9948 107.16C55.6016 109.191 56.8449 110.886 56.7716 110.944Z" fill="#E0E0E0"/>
<path d="M35.3898 77.4122H29.1279L28.3828 79.1381C28.1384 79.7132 28.0167 80.1885 28.0167 80.5629C28.0167 81.0595 28.2169 81.4255 28.6183 81.6611C28.8534 81.8005 29.4327 81.905 30.3567 81.9752V82.4588H24.4609V81.9752C25.0969 81.879 25.62 81.6153 26.0298 81.1843C26.4395 80.7527 26.945 79.8619 27.5461 78.5109L33.8859 64.3654H34.1345L40.5274 78.9025C41.1373 80.2795 41.6381 81.1468 42.0307 81.5041C42.3271 81.7745 42.7457 81.9315 43.286 81.9752V82.4588H34.7101V81.9752H35.0632C35.7512 81.9752 36.2353 81.879 36.514 81.6876C36.7054 81.5483 36.8016 81.3475 36.8016 81.086C36.8016 80.9295 36.7756 80.7683 36.7236 80.6024C36.7059 80.5239 36.5754 80.1968 36.331 79.6217L35.3898 77.4122ZM34.9452 76.445L32.3046 70.3397L29.585 76.445H34.9452Z" fill="#E0E0E0"/>
<path d="M112.011 244.741C111.167 244.018 109.284 241.725 110.736 239.057C111.269 238.08 112.399 237.596 113.422 237.165C114.445 236.734 115.521 236.36 116.367 235.639C117.964 234.281 118.405 232.024 119.464 230.212C120.681 228.131 122.953 226.573 125.352 226.682C128.1 226.807 130.392 229.051 131.43 231.61C132.469 234.169 132.505 237.01 132.527 239.774C132.539 241.302 132.471 243.024 131.349 244.056C130.315 245.008 128.757 245.019 127.355 244.976C122.35 244.823 117.344 244.669 112.339 244.515" fill="#F5F5F5"/>
<path d="M140.734 203.448H101.242L108.356 245.866C108.667 247.719 110.008 249.147 111.728 249.642C111.773 249.657 111.821 249.667 111.866 249.68C111.984 249.711 112.097 249.75 112.218 249.771C112.478 249.825 112.747 249.853 113.021 249.864C113.023 249.877 113.025 249.892 113.027 249.905L113.22 249.874C113.22 249.874 113.221 249.874 113.221 249.874H130.822C131.154 249.874 131.477 249.84 131.79 249.778C133.868 249.456 135.532 247.788 135.785 245.632L139.214 216.405L139.369 215.242H139.35L140.709 203.668L140.734 203.448ZM133.284 230.505H129.231L129.639 218.195H134.335L133.284 230.505ZM134.729 218.195H138.609L137.164 230.505H133.677L134.729 218.195ZM123.15 244.153L122.904 233.458H128.74L128.385 244.153H123.15ZM116.841 233.458H122.512L122.759 244.153H117.673L116.841 233.458ZM117.279 244.153H112.525C112.073 241.265 111.485 237.512 110.849 233.458H116.448L117.279 244.153ZM116.611 230.505L115.655 218.195H122.16L122.444 230.505H116.611ZM122.836 230.505L122.553 218.195H129.248L128.839 230.505H122.836ZM122.485 215.242L122.222 203.841H129.724L129.346 215.242H122.485ZM122.093 215.242H115.426L114.54 203.841H121.83L122.093 215.242ZM115.033 215.242H107.979C107.729 213.668 107.492 212.177 107.278 210.836C106.543 206.227 106.266 204.494 106.113 203.841H114.147L115.033 215.242ZM115.262 218.195L116.219 230.505H110.385C110.189 229.256 109.99 227.993 109.791 226.728C109.334 223.822 108.876 220.917 108.446 218.194L115.262 218.195ZM109.988 230.505H106.177L104.112 218.195H108.048C108.65 221.999 109.317 226.234 109.988 230.505ZM110.452 233.458C111.033 237.159 111.604 240.808 112.128 244.153H108.466L106.672 233.458H110.452ZM128.778 244.153L129.133 233.458H133.031L132.118 244.153H128.778ZM129.738 215.242L130.116 203.841H135.561L134.587 215.242H129.738ZM105.738 203.842C105.895 204.666 106.615 209.152 107.581 215.243H103.617L101.705 203.842H105.738ZM135.563 244.153H132.511L133.425 233.458H136.819L135.563 244.153ZM138.955 215.242H134.981L135.955 203.841H140.293L138.955 215.242Z" fill="#E0E0E0"/>
<path d="M247.858 251.124C247.858 251.199 194.62 251.26 128.964 251.26C63.2848 251.26 10.0586 251.199 10.0586 251.124C10.0586 251.05 63.2848 250.989 128.964 250.989C194.62 250.989 247.858 251.05 247.858 251.124Z" fill="#263238"/>
<path d="M208.262 20.5154H37.3828V152.309H208.262V20.5154Z" fill="white"/>
<path d="M194.207 103.883H47.4219V108.301H194.207V103.883Z" fill="#EBEBEB"/>
<path d="M194.137 98.025H47.3516V102.443H194.137V98.025Z" fill="#EBEBEB"/>
<path d="M194.137 92.0861H47.3516V96.504H194.137V92.0861Z" fill="#EBEBEB"/>
<path d="M194.137 86.1472H47.3516V90.5646H194.137V86.1472Z" fill="#EBEBEB"/>
<path d="M194.207 109.956H47.4219V114.373H194.207V109.956Z" fill="#EBEBEB"/>
<path d="M194.207 115.678H47.4219V120.096H194.207V115.678Z" fill="#EBEBEB"/>
<path d="M194.207 121.636H47.4219V126.054H194.207V121.636Z" fill="#EBEBEB"/>
<path d="M194.207 127.302H47.4219V131.719H194.207V127.302Z" fill="#EBEBEB"/>
<path d="M194.207 132.746H47.4219V137.163H194.207V132.746Z" fill="#EBEBEB"/>
<path d="M194.207 138.935H47.4219V143.353H194.207V138.935Z" fill="#EBEBEB"/>
<path d="M208.43 20.3828H37.3828V30.192H208.43V20.3828Z" fill="#FF6477"/>
<path d="M49.3395 40.3404H48.2812V39.9566H50.8339V40.3404H49.7757V43.0428H49.3395V40.3404Z" fill="#263238"/>
<path d="M50.793 41.8744C50.793 41.1776 51.3088 40.6841 52.0098 40.6841C52.7107 40.6841 53.2219 41.1776 53.2219 41.8744C53.2219 42.5712 52.7102 43.0693 52.0098 43.0693C51.3088 43.0693 50.793 42.5712 50.793 41.8744ZM52.7944 41.8744C52.7944 41.3762 52.4596 41.0543 52.0098 41.0543C51.56 41.0543 51.2209 41.3762 51.2209 41.8744C51.2209 42.3725 51.5605 42.6991 52.0098 42.6991C52.4596 42.6991 52.7944 42.3725 52.7944 41.8744Z" fill="#263238"/>
<path d="M54.7891 40.9841C54.7891 40.8078 54.9258 40.6846 55.0891 40.6846C55.2477 40.6846 55.3803 40.8078 55.3803 40.9841C55.3803 41.1604 55.2482 41.2883 55.0891 41.2883C54.9258 41.2883 54.7891 41.1604 54.7891 40.9841ZM54.7891 42.7651C54.7891 42.5883 54.9258 42.4651 55.0891 42.4651C55.2477 42.4651 55.3803 42.5888 55.3803 42.7651C55.3803 42.9414 55.2482 43.0693 55.0891 43.0693C54.9258 43.0693 54.7891 42.9414 54.7891 42.7651Z" fill="#263238"/>
<path d="M47.4258 58.4442L47.587 58.1036C47.8142 58.3084 48.2021 58.4566 48.5947 58.4566C49.1225 58.4566 49.3493 58.2518 49.3493 57.9855C49.3493 57.2398 47.4996 57.7104 47.4996 56.5763C47.4996 56.1052 47.8657 55.7038 48.6686 55.7038C49.0263 55.7038 49.3971 55.8 49.6503 55.9742L49.5063 56.3231C49.2401 56.153 48.939 56.0745 48.6686 56.0745C48.1496 56.0745 47.9271 56.2929 47.9271 56.5586C47.9271 57.3048 49.7767 56.8379 49.7767 57.959C49.7767 58.4254 49.4013 58.8269 48.5947 58.8269C48.1283 58.8279 47.6702 58.6709 47.4258 58.4442Z" fill="#263238"/>
<path d="M52.5054 56.4807V58.7931H52.1081V58.4442C51.938 58.6839 51.6505 58.8191 51.3229 58.8191C50.7254 58.8191 50.3281 58.492 50.3281 57.8113V56.4807H50.7467V57.7635C50.7467 58.2169 50.9734 58.4442 51.3707 58.4442C51.807 58.4442 52.0862 58.1738 52.0862 57.6761V56.4807H52.5054Z" fill="#263238"/>
<path d="M55.6959 57.6366C55.6959 58.3433 55.2029 58.8186 54.5269 58.8186C54.1863 58.8186 53.8899 58.6875 53.7022 58.426V58.7926H53.3008V55.5556H53.7194V56.8296C53.9113 56.581 54.1993 56.4588 54.5264 56.4588C55.2029 56.4593 55.6959 56.9299 55.6959 57.6366ZM55.2726 57.6366C55.2726 57.1437 54.9372 56.8249 54.4916 56.8249C54.0511 56.8249 53.7152 57.1437 53.7152 57.6366C53.7152 58.1296 54.0511 58.4525 54.4916 58.4525C54.9367 58.453 55.2726 58.1296 55.2726 57.6366Z" fill="#263238"/>
<path d="M55.4727 59.5258L55.6084 59.2029C55.6911 59.2725 55.8133 59.312 55.9485 59.312C56.171 59.312 56.2927 59.1722 56.2927 58.9065V56.4806H56.7113V58.8976C56.7113 59.3687 56.4497 59.6651 55.9739 59.6651C55.7826 59.6651 55.5902 59.622 55.4727 59.5258ZM56.2189 55.7651C56.2189 55.6128 56.3411 55.4906 56.5023 55.4906C56.664 55.4906 56.7857 55.6081 56.7857 55.7568C56.7857 55.9139 56.6681 56.0361 56.5023 56.0361C56.3411 56.0361 56.2189 55.918 56.2189 55.7651Z" fill="#263238"/>
<path d="M59.5911 57.7765H57.715C57.7675 58.1826 58.0946 58.453 58.5527 58.453C58.8231 58.453 59.0503 58.361 59.2204 58.1738L59.4518 58.4442C59.2422 58.688 58.924 58.8191 58.5402 58.8191C57.794 58.8191 57.2969 58.3261 57.2969 57.6371C57.2969 56.9523 57.7898 56.4593 58.4575 56.4593C59.1252 56.4593 59.6005 56.9393 59.6005 57.6501C59.6 57.685 59.5953 57.737 59.5911 57.7765ZM57.715 57.4754H59.1985C59.1548 57.087 58.8626 56.8124 58.457 56.8124C58.0556 56.8124 57.7586 57.0828 57.715 57.4754Z" fill="#263238"/>
<path d="M59.9648 57.6366C59.9648 56.9471 60.475 56.4588 61.1863 56.4588C61.6008 56.4588 61.9455 56.6288 62.1286 56.9518L61.8103 57.1566C61.6621 56.9294 61.4349 56.8249 61.1822 56.8249C60.7282 56.8249 60.3881 57.1436 60.3881 57.6366C60.3881 58.1384 60.7282 58.4525 61.1822 58.4525C61.4349 58.4525 61.6621 58.348 61.8103 58.1207L62.1286 58.3214C61.9455 58.6444 61.6008 58.8186 61.1863 58.8186C60.475 58.8191 59.9648 58.3261 59.9648 57.6366Z" fill="#263238"/>
<path d="M63.9945 58.6579C63.8676 58.7671 63.6758 58.8191 63.4886 58.8191C63.0216 58.8191 62.7559 58.5617 62.7559 58.0953V56.8254H62.3633V56.4807H62.7559V55.9747H63.1745V56.4807H63.8375V56.8254H63.1745V58.0776C63.1745 58.3261 63.3055 58.4655 63.5364 58.4655C63.6586 58.4655 63.7761 58.426 63.8635 58.3568L63.9945 58.6579Z" fill="#263238"/>
<path d="M65.4258 56.7666C65.4258 56.5924 65.561 56.4697 65.7227 56.4697C65.8797 56.4697 66.0108 56.5919 66.0108 56.7666C66.0108 56.9408 65.8797 57.0677 65.7227 57.0677C65.5615 57.0677 65.4258 56.9408 65.4258 56.7666ZM65.4258 58.5289C65.4258 58.3542 65.561 58.232 65.7227 58.232C65.8797 58.232 66.0108 58.3542 66.0108 58.5289C66.0108 58.7031 65.8797 58.8295 65.7227 58.8295C65.5615 58.83 65.4258 58.7036 65.4258 58.5289Z" fill="#263238"/>
<path d="M43.3971 25.2874C43.3971 25.874 42.9218 26.3492 42.3353 26.3492C41.7487 26.3492 41.2734 25.874 41.2734 25.2874C41.2734 24.7008 41.7487 24.2256 42.3353 24.2256C42.9218 24.225 43.3971 24.7008 43.3971 25.2874Z" fill="white"/>
<path d="M47.1784 25.2874C47.1784 25.874 46.7031 26.3492 46.1165 26.3492C45.53 26.3492 45.0547 25.874 45.0547 25.2874C45.0547 24.7008 45.53 24.2256 46.1165 24.2256C46.7031 24.225 47.1784 24.7008 47.1784 25.2874Z" fill="white"/>
<path d="M50.9557 25.2874C50.9557 25.874 50.4804 26.3492 49.8939 26.3492C49.3073 26.3492 48.832 25.874 48.832 25.2874C48.832 24.7008 49.3073 24.2256 49.8939 24.2256C50.4799 24.225 50.9557 24.7008 50.9557 25.2874Z" fill="white"/>
<path d="M77.3017 77.2349C77.2991 77.2323 77.2965 77.1907 77.2939 77.1111C77.2918 77.0207 77.2892 76.9057 77.2861 76.7617C77.2814 76.4419 77.2752 75.9947 77.2674 75.4211C77.257 74.2459 77.2424 72.5544 77.2242 70.4213L77.3017 70.4988C70.5391 70.5118 59.3284 70.5326 46.642 70.5565H46.6404C46.9108 70.2861 46.7153 70.4827 46.7756 70.4229V70.4265V70.4333V70.4468V70.4744V70.529V70.6382V70.8566V71.2923C46.7756 71.5825 46.7756 71.8716 46.7756 72.1602C46.7756 72.7369 46.7751 73.3099 46.7751 73.8788C46.7746 75.0166 46.7741 76.1367 46.7735 77.2344L46.6404 77.1013C55.3411 77.1252 62.9845 77.146 68.4705 77.161C71.2068 77.1772 73.4043 77.1902 74.9347 77.1995C75.684 77.2073 76.2695 77.213 76.6839 77.2172C76.8743 77.2208 77.0251 77.2234 77.141 77.226C77.2445 77.2286 77.2991 77.2318 77.3017 77.2349C77.3048 77.238 77.2559 77.2406 77.1577 77.2437C77.0459 77.2458 76.9008 77.2489 76.7172 77.2526C76.3095 77.2567 75.7339 77.2625 74.9971 77.2703C73.474 77.2791 71.2874 77.2926 68.5636 77.3087C63.0542 77.3238 55.378 77.3446 46.6399 77.3685L46.5068 77.3691V77.2354C46.5063 76.1372 46.5057 75.0171 46.5052 73.8798C46.5052 73.311 46.5047 72.7379 46.5047 72.1613C46.5047 71.8727 46.5047 71.5835 46.5047 71.2934V70.8576V70.6392V70.53V70.4754V70.4479V70.4343V70.4276V70.4239C46.565 70.3631 46.3695 70.5581 46.6404 70.2872H46.642C59.3284 70.3111 70.5386 70.3324 77.3017 70.3449H77.3802L77.3797 70.4224C77.3615 72.5752 77.3469 74.2823 77.3365 75.4685C77.3287 76.0347 77.3225 76.4762 77.3178 76.7919C77.3147 76.9302 77.3121 77.0404 77.31 77.1278C77.3069 77.2006 77.3043 77.237 77.3017 77.2349Z" fill="#263238"/>
<path d="M96.2279 77.2349C96.2248 77.2318 96.2217 77.1876 96.218 77.1054C96.2154 77.0076 96.2118 76.8896 96.2076 76.745C96.2019 76.4102 96.1941 75.9552 96.1842 75.3806C96.1718 74.1866 96.1546 72.4992 96.1328 70.4213L96.2279 70.5165C91.9384 70.5269 86.0058 70.5409 79.447 70.5565C79.3253 70.6777 79.6103 70.3917 79.5812 70.4218V70.4234V70.427V70.4343V70.4484V70.4764V70.5321V70.6439V70.867V71.3116C79.5812 71.6069 79.5812 71.9012 79.5806 72.1935C79.5801 72.778 79.5801 73.3562 79.5796 73.9261C79.578 75.0654 79.5765 76.1725 79.5754 77.2354L79.446 77.1059C84.2799 77.1304 88.4518 77.1517 91.4429 77.1673C92.9202 77.1824 94.1042 77.1948 94.9451 77.2032C95.3398 77.2099 95.6533 77.2156 95.8904 77.2198C96.1073 77.224 96.2227 77.2292 96.2279 77.2349C96.2331 77.2401 96.1286 77.2453 95.9216 77.251C95.6918 77.2552 95.3871 77.2604 95.0033 77.2671C94.1692 77.276 92.9951 77.2879 91.5308 77.303C88.5179 77.3181 84.3152 77.3394 79.446 77.3644L79.3165 77.3649V77.2344C79.3149 76.1715 79.3139 75.0649 79.3123 73.9251C79.3118 73.3552 79.3118 72.7769 79.3113 72.1924C79.3113 71.9002 79.3113 71.6059 79.3108 71.3105V70.8659V70.6428V70.531V70.4754V70.4473V70.4333V70.426V70.4224V70.4208C79.2811 70.4494 79.5676 70.1639 79.4475 70.2846C86.0068 70.3002 91.939 70.3147 96.2284 70.3246L96.3246 70.3251L96.3236 70.4203C96.3023 72.5226 96.2846 74.2293 96.2721 75.4372C96.2622 76.003 96.2544 76.4507 96.2487 76.7804C96.2409 77.0851 96.2347 77.2411 96.2279 77.2349Z" fill="#263238"/>
<path d="M49.7904 72.948H48.6875V72.5481H51.3489V72.948H50.2459V75.7648H49.7909L49.7904 72.948Z" fill="#263238"/>
<path d="M51.6445 72.5762C51.6445 72.4155 51.773 72.2866 51.943 72.2866C52.113 72.2866 52.242 72.4108 52.242 72.5668C52.242 72.7327 52.1177 72.8612 51.943 72.8612C51.773 72.8606 51.6445 72.7369 51.6445 72.5762ZM51.7231 73.3297H52.164V75.7654H51.7231V73.3297Z" fill="#263238"/>
<path d="M54.3749 75.6229C54.2412 75.7378 54.0389 75.7929 53.8418 75.7929C53.3499 75.7929 53.0696 75.522 53.0696 75.0301V73.6932H52.6562V73.3297H53.0696V72.7967H53.5106V73.3297H54.209V73.6932H53.5106V75.0119C53.5106 75.2734 53.6489 75.4206 53.8923 75.4206C54.0212 75.4206 54.145 75.3795 54.2371 75.3057L54.3749 75.6229Z" fill="#263238"/>
<path d="M54.9102 72.3552H55.3511V75.7648H54.9102V72.3552Z" fill="#263238"/>
<path d="M58.3818 74.6947H56.4058C56.4609 75.1221 56.8062 75.4071 57.2882 75.4071C57.5737 75.4071 57.8124 75.3103 57.9913 75.1127L58.2352 75.3977C58.0147 75.6551 57.6793 75.7929 57.2747 75.7929C56.489 75.7929 55.9648 75.2734 55.9648 74.5475C55.9648 73.8257 56.4843 73.3068 57.1874 73.3068C57.8909 73.3068 58.3917 73.8128 58.3917 74.5616C58.3912 74.598 58.3865 74.6531 58.3818 74.6947ZM56.4058 74.3775H57.9679C57.9221 73.9682 57.6143 73.6786 57.1868 73.6786C56.7646 73.6786 56.4521 73.9641 56.4058 74.3775Z" fill="#263238"/>
<path d="M72.418 73.5356H75.3378L73.8776 74.9957L72.418 73.5356Z" fill="#263238"/>
<path d="M90.9492 73.5356H93.8695L92.4094 74.9957L90.9492 73.5356Z" fill="#263238"/>
<path d="M202.704 146.358C202.703 145.561 202.666 115.99 202.604 67.1937L202.704 67.294C161.023 67.3034 105.047 67.3154 43.6511 67.3289H43.6396L43.7748 67.1937C43.7722 95.0984 43.7696 121.882 43.767 146.358L43.6396 146.231C136.467 146.305 201.526 146.357 202.704 146.358C201.527 146.359 136.467 146.411 43.6396 146.486H43.5117V146.358C43.5091 121.882 43.5065 95.099 43.5039 67.1937V67.0585H43.6391H43.6505C105.047 67.072 161.023 67.084 202.704 67.0933H202.805V67.1937C202.743 115.99 202.706 145.562 202.704 146.358Z" fill="#E0E0E0"/>
<path d="M202.704 64.1709C202.704 64.1709 202.697 63.8636 202.693 63.2729C202.69 62.6801 202.686 61.8049 202.681 60.6578C202.674 58.363 202.664 54.9851 202.651 50.6327L202.703 50.6852C176.494 50.6988 115.036 50.731 43.4052 50.7679H43.3969L43.5321 50.6327C43.5321 55.2706 43.5321 59.8653 43.5316 64.1709L43.3969 64.0362C88.0114 64.0586 127.818 64.0789 156.477 64.0934C170.816 64.1106 182.364 64.1241 190.332 64.1335C194.317 64.1418 197.405 64.148 199.501 64.1522C200.547 64.1564 201.345 64.1595 201.886 64.1616C202.424 64.1647 202.704 64.1709 202.704 64.1709C202.704 64.1709 202.436 64.1772 201.904 64.1803C201.368 64.1824 200.576 64.1855 199.538 64.1896C197.448 64.1938 194.37 64.2006 190.399 64.2084C182.438 64.2177 170.9 64.2318 156.576 64.2484C127.892 64.263 88.0504 64.2832 43.3974 64.3056H43.2622V64.1704C43.2622 59.8648 43.2617 55.2701 43.2617 50.6322V50.497H43.3969H43.4052C115.036 50.5344 176.494 50.5662 202.703 50.5797H202.756V50.6322C202.743 54.9976 202.733 58.3864 202.726 60.6874C202.72 61.8294 202.717 62.7009 202.713 63.2911C202.71 63.8766 202.704 64.1709 202.704 64.1709Z" fill="#E0E0E0"/>
<path d="M202.704 47.7727C202.704 47.7727 202.697 47.4654 202.693 46.8747C202.69 46.2819 202.686 45.4067 202.681 44.2596C202.674 41.9648 202.664 38.5869 202.651 34.2345L202.703 34.287C176.494 34.3005 115.036 34.3328 43.4052 34.3697H43.3969L43.5321 34.2345C43.5321 38.8724 43.5321 43.4671 43.5316 47.7727L43.3969 47.638C88.0114 47.6604 127.818 47.6807 156.477 47.6952C170.816 47.7124 182.364 47.7259 190.332 47.7353C194.317 47.7436 197.405 47.7498 199.501 47.754C200.547 47.7581 201.345 47.7613 201.886 47.7633C202.424 47.7659 202.704 47.7727 202.704 47.7727C202.704 47.7727 202.436 47.7789 201.904 47.7821C201.368 47.7841 200.576 47.7873 199.538 47.7914C197.448 47.7956 194.37 47.8018 190.399 47.8101C182.438 47.8195 170.9 47.8335 156.576 47.8502C127.892 47.8647 88.0504 47.885 43.3974 47.9074H43.2622V47.7722C43.2622 43.4666 43.2617 38.8719 43.2617 34.234V34.0988H43.3969H43.4052C115.036 34.1362 176.494 34.1679 202.703 34.1815H202.756V34.234C202.743 38.5994 202.733 41.9882 202.726 44.2892C202.72 45.4311 202.717 46.3027 202.713 46.8929C202.71 47.4779 202.704 47.7727 202.704 47.7727Z" fill="#E0E0E0"/>
<path d="M161.292 71.0281C160.748 71.0281 160.304 71.428 160.287 71.9251H160.285V75.4492H160.292C160.357 76.1085 160.96 76.6275 161.693 76.6275C162.425 76.6275 163.029 76.1091 163.094 75.4492H163.1V72.6089H162.826V75.3311C162.826 75.9068 162.317 76.3753 161.692 76.3753C161.067 76.3753 160.559 75.9073 160.559 75.3311V71.9563C160.559 71.5835 160.888 71.2803 161.293 71.2803C161.697 71.2803 162.027 71.5835 162.027 71.9563V74.8179H162.03C161.981 74.99 161.819 75.1174 161.624 75.1174C161.427 75.1174 161.262 74.9869 161.216 74.8122V72.6084H160.942V74.7139V74.7155V74.8174H160.953C161.006 75.1226 161.285 75.3566 161.624 75.3566C161.962 75.3566 162.242 75.1226 162.294 74.8174H162.301V74.7607C162.302 74.7451 162.306 74.73 162.306 74.7139H162.301V71.9246H162.299C162.28 71.428 161.836 71.0281 161.292 71.0281Z" fill="#263238"/>
<path d="M124.177 72.5829H120.168V73.2184H124.177V72.5829Z" fill="#263238"/>
<path d="M124.177 74.8954H120.168V75.5308H124.177V74.8954Z" fill="#263238"/>
<path d="M122.173 73.7795H120.168V74.4149H122.173V73.7795Z" fill="#263238"/>
<path d="M139.232 72.5829H135.223V73.2184H139.232V72.5829Z" fill="#263238"/>
<path d="M139.232 74.8954H135.223V75.5308H139.232V74.8954Z" fill="#263238"/>
<path d="M139.231 73.7795H137.227V74.4149H139.231V73.7795Z" fill="#263238"/>
<path d="M131.81 72.5829H127.801V73.2184H131.81V72.5829Z" fill="#263238"/>
<path d="M131.81 74.8954H127.801V75.5308H131.81V74.8954Z" fill="#263238"/>
<path d="M131.81 73.78H127.801V74.4154H131.81V73.78Z" fill="#263238"/>
<path d="M149.274 75.3197H145.996V72.6271H147.694V73.195H146.564V74.7519H148.706V74.1861H149.274V75.3197Z" fill="#263238"/>
<path d="M151.165 75.3197H149.767V74.7519H150.597V73.195H148.455V73.9204H147.887V72.6271H151.165V75.3197Z" fill="#263238"/>
<path d="M152.492 73.7597H154.242L153.367 74.573L152.492 73.7597Z" fill="#263238"/>
<path d="M113.008 74.0369V72.5263H113.505V74.0182C113.505 74.5688 113.753 74.806 114.186 74.806C114.618 74.806 114.863 74.5688 114.863 74.0182V72.5263H115.352V74.0369C115.352 74.8174 114.912 75.2417 114.181 75.2417C113.448 75.2417 113.008 74.8174 113.008 74.0369Z" fill="#263238"/>
<path d="M108.504 72.2252H108.951L108.326 75.3525H107.879L108.504 72.2252Z" fill="#263238"/>
<path d="M104.299 74.4945C104.299 75.0353 103.852 75.352 103.013 75.352H101.324V72.2247H102.923C103.745 72.2247 104.147 72.5601 104.147 73.0421C104.147 73.3416 103.995 73.5829 103.727 73.7212C104.08 73.8466 104.299 74.1149 104.299 74.4945ZM102.2 72.8638V73.467H102.807C103.102 73.467 103.254 73.3645 103.254 73.1633C103.254 72.9667 103.102 72.8638 102.807 72.8638H102.2ZM103.406 74.3962C103.406 74.1814 103.245 74.079 102.941 74.079H102.199V74.7134H102.941C103.245 74.7134 103.406 74.6104 103.406 74.3962Z" fill="#263238"/>
<path d="M117.745 77.4221C117.67 77.4221 117.609 75.8127 117.609 73.8278C117.609 71.8425 117.67 70.2336 117.745 70.2336C117.819 70.2336 117.88 71.8425 117.88 73.8278C117.88 75.8127 117.819 77.4221 117.745 77.4221Z" fill="#E0E0E0"/>
<path d="M141.573 77.4221C141.498 77.4221 141.438 75.8127 141.438 73.8278C141.438 71.8425 141.498 70.2336 141.573 70.2336C141.648 70.2336 141.708 71.8425 141.708 73.8278C141.708 75.8127 141.647 77.4221 141.573 77.4221Z" fill="#E0E0E0"/>
<path d="M155.987 77.5677C155.912 77.5677 155.852 75.9583 155.852 73.9734C155.852 71.9881 155.912 70.3792 155.987 70.3792C156.061 70.3792 156.122 71.9881 156.122 73.9734C156.122 75.9583 156.062 77.5677 155.987 77.5677Z" fill="#E0E0E0"/>
<path d="M166.928 77.3539C166.853 77.3539 166.793 75.7445 166.793 73.7597C166.793 71.7743 166.854 70.1655 166.928 70.1655C167.003 70.1655 167.063 71.7743 167.063 73.7597C167.063 75.7445 167.003 77.3539 166.928 77.3539Z" fill="#E0E0E0"/>
<path d="M115.897 75.6015C115.897 75.6764 115.175 75.7367 114.285 75.7367C113.394 75.7367 112.672 75.6759 112.672 75.6015C112.672 75.5272 113.394 75.4663 114.285 75.4663C115.176 75.4663 115.897 75.5272 115.897 75.6015Z" fill="#263238"/>
<path d="M84.3747 72.2252V75.3525H83.9327V72.6141H83.2266V72.2252H84.3747Z" fill="#263238"/>
<path d="M87.2567 74.9635V75.3519H85.0097V75.0483L86.2827 73.8195C86.6134 73.4981 86.6758 73.3011 86.6758 73.105C86.6758 72.7837 86.4481 72.5866 86.0102 72.5866C85.6748 72.5866 85.4029 72.6942 85.2105 72.9261L84.9062 72.6625C85.1475 72.363 85.563 72.1888 86.0497 72.1888C86.7018 72.1888 87.122 72.5237 87.122 73.0598C87.122 73.364 87.0325 73.6359 86.6082 74.0426L85.6519 74.963L87.2567 74.9635Z" fill="#263238"/>
<path d="M202.702 80.8031C202.702 80.878 167.031 80.9383 123.04 80.9383C79.0337 80.9383 43.3711 80.8775 43.3711 80.8031C43.3711 80.7282 79.0337 80.6679 123.04 80.6679C167.032 80.6674 202.702 80.7282 202.702 80.8031Z" fill="#E0E0E0"/>
<path d="M192.88 88.6899C192.88 88.7648 160.487 88.8251 120.539 88.8251C80.5765 88.8251 48.1914 88.7643 48.1914 88.6899C48.1914 88.6151 80.5765 88.5547 120.539 88.5547C160.487 88.5547 192.88 88.6151 192.88 88.6899Z" fill="#263238"/>
<path d="M192.88 94.553C192.88 94.6278 160.487 94.6882 120.539 94.6882C80.5765 94.6882 48.1914 94.6273 48.1914 94.553C48.1914 94.4786 80.5765 94.4178 120.539 94.4178C160.487 94.4172 192.88 94.4781 192.88 94.553Z" fill="#263238"/>
<path d="M192.88 100.416C192.88 100.491 160.487 100.551 120.539 100.551C80.5765 100.551 48.1914 100.49 48.1914 100.416C48.1914 100.342 80.5765 100.281 120.539 100.281C160.487 100.28 192.88 100.341 192.88 100.416Z" fill="#263238"/>
<path d="M192.88 106.279C192.88 106.354 160.487 106.414 120.539 106.414C80.5765 106.414 48.1914 106.353 48.1914 106.279C48.1914 106.204 80.5765 106.144 120.539 106.144C160.487 106.143 192.88 106.204 192.88 106.279Z" fill="#263238"/>
<path d="M192.88 112.142C192.88 112.217 160.487 112.277 120.539 112.277C80.5765 112.277 48.1914 112.216 48.1914 112.142C48.1914 112.068 80.5765 112.007 120.539 112.007C160.487 112.006 192.88 112.067 192.88 112.142Z" fill="#263238"/>
<path d="M192.88 118.004C192.88 118.079 160.487 118.14 120.539 118.14C80.5765 118.14 48.1914 118.079 48.1914 118.004C48.1914 117.93 80.5765 117.869 120.539 117.869C160.487 117.869 192.88 117.93 192.88 118.004Z" fill="#263238"/>
<path d="M192.88 123.867C192.88 123.942 160.487 124.003 120.539 124.003C80.5765 124.003 48.1914 123.942 48.1914 123.867C48.1914 123.793 80.5765 123.732 120.539 123.732C160.487 123.732 192.88 123.793 192.88 123.867Z" fill="#263238"/>
<path d="M192.981 129.521C192.981 129.596 160.589 129.656 120.641 129.656C80.6781 129.656 48.293 129.595 48.293 129.521C48.293 129.446 80.6781 129.386 120.641 129.386C160.589 129.386 192.981 129.447 192.981 129.521Z" fill="#263238"/>
<path d="M193.087 135.175C193.087 135.25 160.695 135.31 120.746 135.31C80.7835 135.31 48.3984 135.249 48.3984 135.175C48.3984 135.1 80.784 135.04 120.746 135.04C160.695 135.039 193.087 135.1 193.087 135.175Z" fill="#263238"/>
<path d="M48.5039 140.828C48.5039 140.753 80.8963 140.693 120.845 140.693C160.807 140.693 193.192 140.753 193.192 140.828C193.192 140.903 160.807 140.963 120.845 140.963C80.8963 140.963 48.5039 140.903 48.5039 140.828Z" fill="#263238"/>
<path d="M208.261 152.309C208.26 151.381 208.216 100.124 208.149 20.5154L208.261 20.6272C159.734 20.6339 100.843 20.6422 37.3959 20.6506H37.3813L37.5165 20.5154C37.5118 67.9903 37.5071 112.908 37.503 152.309L37.3813 152.187C138.771 152.259 207.19 152.308 208.261 152.309C207.19 152.309 138.771 152.358 37.3813 152.431H37.2596V152.309C37.2555 112.908 37.2508 67.9903 37.2461 20.5154V20.3802H37.3818H37.3964C100.843 20.389 159.734 20.3973 208.261 20.4036H208.373V20.5154C208.305 100.124 208.262 151.382 208.261 152.309Z" fill="#263238"/>
<path d="M141.461 61.4378V72.7733C141.461 74.8637 143.156 76.5589 145.247 76.5589H159.1C159.504 76.5589 159.886 76.7445 160.135 77.0622L163.535 84.4743L167.635 77.1813C167.884 76.9021 168.241 76.7424 168.616 76.7424H183.157C185.247 76.7424 186.942 75.0478 186.942 72.9574V61.3681C186.942 59.2746 185.243 57.5789 183.15 57.583L145.24 57.6532C143.151 57.6564 141.461 59.35 141.461 61.4378Z" fill="#FF6477"/>
<path d="M150.977 71.2284H148.605V68.9934L154.064 63.0311L154.174 63.0014C154.938 62.7924 155.532 62.8782 155.942 63.2536C156.632 63.8854 156.446 65.0471 156.423 65.1782L156.403 65.2894L150.977 71.2284ZM149.39 70.4442H150.63L155.665 64.9332C155.696 64.6405 155.69 64.0846 155.411 63.8298C155.228 63.6634 154.92 63.6286 154.487 63.73L149.39 69.2966V70.4442Z" fill="white"/>
<path d="M166.421 69.7229V70.4951H161.914V64.2858H166.297V65.0575H162.801V66.9649H165.915V67.7189H162.801V69.7235H166.421V69.7229Z" fill="white"/>
<path d="M172.113 63.9125V70.4946H171.296V69.749C170.915 70.2814 170.311 70.5477 169.62 70.5477C168.245 70.5477 167.242 69.5805 167.242 68.1437C167.242 66.7064 168.244 65.7481 169.62 65.7481C170.285 65.7481 170.871 65.9966 171.261 66.5021V63.912L172.113 63.9125ZM171.269 68.1437C171.269 67.1412 170.586 66.4938 169.69 66.4938C168.785 66.4938 168.102 67.1412 168.102 68.1437C168.102 69.1458 168.785 69.8025 169.69 69.8025C170.586 69.803 171.269 69.1463 171.269 68.1437Z" fill="white"/>
<path d="M173.578 64.3384C173.578 64.0279 173.826 63.7794 174.155 63.7794C174.483 63.7794 174.731 64.0191 174.731 64.3207C174.731 64.64 174.491 64.8885 174.155 64.8885C173.827 64.888 173.578 64.6488 173.578 64.3384ZM173.729 65.7928H174.581V70.4946H173.729V65.7928Z" fill="white"/>
<path d="M178.849 70.2195C178.591 70.4416 178.201 70.5477 177.819 70.5477C176.87 70.5477 176.329 70.0245 176.329 69.075V66.4937H175.531V65.7928H176.329V64.7637H177.181V65.7928H178.529V66.4937H177.181V69.0397C177.181 69.5456 177.447 69.8295 177.918 69.8295C178.166 69.8295 178.405 69.7495 178.583 69.6075L178.849 70.2195Z" fill="white"/>
<path d="M59.4409 236.591C58.0811 236.523 57.6812 234.604 58.1877 233.34C58.6942 232.076 59.6957 230.952 59.7092 229.591C59.7212 228.409 58.9713 227.336 58.899 226.157C58.7696 224.029 60.8251 222.295 60.9125 220.165C60.9806 218.505 59.8288 216.924 60.108 215.287C60.4076 213.529 62.2411 212.375 62.6612 210.642C63.109 208.797 61.8292 206.846 62.3196 205.013C62.8079 203.186 64.9607 201.845 64.6544 199.979C64.553 199.362 64.1812 198.822 64.0143 198.219C63.629 196.827 64.3882 195.375 65.3096 194.262C66.2305 193.149 67.3589 192.162 67.9278 190.834C68.8019 188.794 68.1946 186.311 69.2273 184.346C70.0868 182.71 71.9999 181.609 72.2407 179.777C73.211 181.426 72.2625 183.525 72.483 185.426C72.627 186.665 73.2687 187.782 73.6634 188.966C74.4684 191.38 74.1985 194.131 72.9396 196.342C72.1076 197.804 70.8258 199.183 70.8908 200.863C70.9698 202.898 73.0056 204.373 73.3649 206.377C73.8792 209.244 70.8252 211.822 71.248 214.705C71.3572 215.448 71.6968 216.148 71.7607 216.896C71.9781 219.444 69.0874 221.244 68.648 223.763C68.3246 225.617 69.3958 227.533 68.9532 229.361C68.6116 230.771 67.3943 232.034 67.6933 233.454C67.8228 234.069 68.2268 234.587 68.4712 235.167C68.9387 236.274 68.7619 237.649 67.9606 238.545C67.1592 239.44 65.749 239.759 64.6757 239.22" fill="#FF6477"/>
<g opacity="0.5">
<path d="M68.4707 235.167C68.2263 234.587 67.8222 234.069 67.6928 233.454C67.3938 232.034 68.6111 230.771 68.9527 229.361C69.3958 227.533 68.324 225.617 68.6475 223.763C69.0869 221.244 71.977 219.444 71.7602 216.896C71.6962 216.148 71.3567 215.448 71.2475 214.705C70.8247 211.822 73.8787 209.244 73.3644 206.377C73.0051 204.373 70.9693 202.898 70.8902 200.863C70.8247 199.183 72.107 197.804 72.939 196.342C74.198 194.131 74.4678 191.38 73.6629 188.966C73.2682 187.782 72.6265 186.665 72.4825 185.426C72.2615 183.525 73.2105 181.426 72.2402 179.777C71.9994 181.609 70.0863 182.71 69.2268 184.346C68.194 186.311 68.8014 188.794 67.9273 190.834C67.3584 192.162 66.23 193.15 65.3091 194.262C64.3882 195.375 63.6284 196.828 64.0143 198.22C64.1812 198.822 64.553 199.362 64.6544 199.979C64.9612 201.846 62.8084 203.186 62.3196 205.013C61.8292 206.847 63.109 208.799 62.6612 210.643C62.2411 212.376 60.4076 213.529 60.108 215.287C59.8293 216.925 60.9811 218.506 60.9125 220.166C60.8251 222.295 58.7696 224.029 58.899 226.157C58.9708 227.336 59.7212 228.41 59.7092 229.591C59.6952 230.953 58.6936 232.077 58.1877 233.34C57.6812 234.604 58.0811 236.524 59.4409 236.592L64.6752 239.22C65.7485 239.76 67.1587 239.441 67.96 238.545C68.7614 237.649 68.9382 236.274 68.4707 235.167Z" fill="white"/>
</g>
<path d="M66.6968 233.922C66.4118 233.452 66.0723 232.465 66.1721 231.909C66.312 231.13 67.6281 230.446 67.9552 229.126C68.3795 227.413 67.6141 224.383 67.9401 222.655C68.3837 220.307 70.8131 218.762 70.7133 216.43C70.6836 215.745 70.7803 213.913 70.7138 213.235C70.4543 210.609 72.761 208.845 72.4246 206.239C72.1895 204.416 70.3004 202.281 70.2988 200.413C70.2978 198.87 71.4033 197.517 72.1386 196.117C73.2514 193.999 73.5613 191.449 72.9701 189.278C72.6804 188.214 72.1838 187.226 72.1032 186.094C71.98 184.359 72.8323 182.364 72.0798 180.909C71.8224 182.611 70.2026 183.749 69.4393 185.311C68.522 187.187 68.9468 189.434 68.1585 191.37C67.6453 192.63 66.6796 193.612 65.8814 194.697C65.0832 195.781 64.4083 197.168 64.6839 198.425C64.8029 198.969 65.0941 199.442 65.1591 200.004C65.3547 201.702 63.5284 203.076 63.0661 204.79C62.6023 206.511 63.6012 208.224 63.1722 209.952C62.7692 211.575 61.1811 213.779 60.8775 215.417C60.5946 216.943 61.9778 217.935 61.8691 219.468C61.7297 221.435 59.7584 223.815 59.799 225.765C59.8213 226.846 60.7256 227.193 60.6788 228.281C60.6247 229.536 59.5749 232.028 59.1152 233.225C58.656 234.422 58.6846 235.344 59.4412 236.591L65.2865 239.491C67.8964 238.247 67.781 235.711 66.6968 233.922Z" fill="#FF6477"/>
<path d="M70.6273 189.797C70.6315 189.797 70.6346 189.841 70.6372 189.926C70.6383 190.025 70.6393 190.15 70.6409 190.306C70.6383 190.64 70.6377 191.133 70.5811 191.767C70.5202 192.397 70.4152 193.183 70.0538 194.024C69.7101 194.881 68.9831 195.65 68.2941 196.532C67.9566 196.979 67.6254 197.472 67.4611 198.058C67.2822 198.635 67.2052 199.271 67.2489 199.929C67.3118 201.249 67.7185 202.622 67.9109 204.122C68.0008 204.869 68.0315 205.663 67.8355 206.447C67.7465 206.84 67.5744 207.216 67.3779 207.575C67.1673 207.924 66.9218 208.245 66.7617 208.601C66.4284 209.319 66.5584 210.162 66.7268 210.973C66.8106 211.384 66.9036 211.802 66.953 212.235C67.0076 212.668 66.9806 213.114 66.9197 213.55C66.7788 214.425 66.4491 215.232 66.1148 216.005C65.7804 216.779 65.4357 217.532 65.2115 218.305C64.9833 219.079 64.925 219.864 65.0087 220.64C65.0748 221.414 65.196 222.191 65.0904 222.958C64.9859 223.727 64.6588 224.408 64.3525 225.045C64.0436 225.683 63.7446 226.302 63.6162 226.942C63.3692 228.233 63.7353 229.471 63.7087 230.616C63.6937 231.777 63.3089 232.759 63.0369 233.61C62.7509 234.462 62.5226 235.204 62.4659 235.831C62.4056 236.456 62.494 236.946 62.6131 237.255C62.7317 237.562 62.8227 237.715 62.8102 237.721C62.8102 237.721 62.7041 237.578 62.5689 237.271C62.4332 236.964 62.3271 236.462 62.375 235.823C62.4186 235.182 62.6375 234.427 62.9121 233.57C63.1737 232.714 63.5403 231.737 63.5429 230.616C63.5434 230.056 63.4649 229.47 63.4009 228.853C63.3401 228.237 63.2927 227.577 63.4253 226.904C63.6781 225.55 64.6702 224.39 64.8761 222.931C64.9739 222.205 64.8559 221.444 64.7857 220.66C64.6967 219.876 64.756 219.036 64.9905 218.243C65.4388 216.651 66.4086 215.2 66.6883 213.515C66.7461 213.097 66.7726 212.677 66.7206 212.262C66.6733 211.846 66.5828 211.434 66.4986 211.02C66.3316 210.209 66.1834 209.305 66.5526 208.507C66.7294 208.118 66.9822 207.793 67.1839 207.458C67.3701 207.118 67.5333 206.766 67.6191 206.394C67.8074 205.652 67.783 204.883 67.6972 204.149C67.5152 202.676 67.1121 201.29 67.0555 199.939C67.0149 199.266 67.0981 198.604 67.2895 198.004C67.4668 197.393 67.8167 196.882 68.1631 196.433C68.8723 195.543 69.5894 194.801 69.9347 193.972C70.2987 193.158 70.4173 192.383 70.4911 191.759C70.5618 191.132 70.5769 190.639 70.5946 190.306C70.6024 190.151 70.6086 190.026 70.6138 189.927C70.6185 189.84 70.6232 189.796 70.6273 189.797Z" fill="#263238"/>
<path d="M51.0915 237.259C49.1894 237.537 48.1093 234.987 48.4645 233.098C48.8202 231.208 49.8997 229.376 49.5461 227.487C49.2393 225.847 47.906 224.565 47.4832 222.951C46.7209 220.039 49.0937 217.073 48.6319 214.099C48.2721 211.781 46.243 209.906 46.1812 207.56C46.1146 205.044 48.3386 202.942 48.4463 200.427C48.5612 197.749 46.2539 195.396 46.4307 192.721C46.607 190.056 49.2226 187.609 48.2866 185.107C47.9767 184.279 47.3137 183.634 46.9175 182.844C46.0023 181.021 46.657 178.801 47.6278 177.007C48.5992 175.213 49.8919 173.535 50.3162 171.541C50.9683 168.474 49.4467 165.2 50.3391 162.195C51.0821 159.693 53.4305 157.644 53.2625 155.04C55.0586 157.059 54.3192 160.227 55.1454 162.799C55.6842 164.476 56.8796 165.85 57.7501 167.381C59.5264 170.505 59.906 174.391 58.7677 177.799C58.0153 180.052 56.617 182.314 57.1677 184.624C57.8344 187.421 61.0589 188.907 62.1056 191.585C63.6038 195.417 60.0787 199.826 61.4536 203.703C61.8082 204.703 62.4707 205.58 62.7645 206.599C63.7634 210.069 60.2518 213.355 60.333 216.966C60.3928 219.622 62.4015 221.983 62.2892 224.638C62.2024 226.685 60.8613 228.769 61.6647 230.653C62.0131 231.471 62.714 232.077 63.2117 232.813C64.1622 234.218 64.2943 236.172 63.4296 237.633C62.5648 239.093 60.6985 239.922 59.0636 239.467" fill="#FF6477"/>
<g opacity="0.5">
<path d="M63.2117 232.812C62.714 232.076 62.0131 231.469 61.6647 230.652C60.8613 228.768 62.2023 226.684 62.2892 224.637C62.402 221.982 60.3927 219.622 60.3329 216.965C60.2518 213.355 63.7634 210.069 62.7645 206.598C62.4712 205.579 61.8082 204.702 61.4535 203.702C60.0787 199.824 63.6038 195.416 62.1056 191.584C61.0589 188.906 57.8344 187.42 57.1677 184.623C56.617 182.313 58.0158 180.051 58.7678 177.798C59.906 174.39 59.5264 170.504 57.7501 167.38C56.8791 165.849 55.6842 164.476 55.1454 162.798C54.3186 160.226 55.0581 157.057 53.2625 155.039C53.4305 157.643 51.0816 159.692 50.3391 162.194C49.4467 165.199 50.9683 168.473 50.3162 171.539C49.8919 173.535 48.5992 175.212 47.6278 177.006C46.6564 178.8 46.0023 181.02 46.9175 182.843C47.3137 183.633 47.9767 184.278 48.2866 185.106C49.2226 187.607 46.6075 190.055 46.4307 192.72C46.2539 195.395 48.5612 197.748 48.4463 200.426C48.3386 202.941 46.1146 205.043 46.1812 207.559C46.243 209.905 48.2721 211.78 48.6319 214.098C49.0942 217.072 46.7209 220.038 47.4832 222.95C47.906 224.564 49.2393 225.846 49.5461 227.485C49.8997 229.375 48.8202 231.207 48.4645 233.096C48.1088 234.986 49.1888 237.536 51.0915 237.257L59.0636 239.464C60.6985 239.919 62.5648 239.09 63.4296 237.63C64.2938 236.171 64.1622 234.217 63.2117 232.812Z" fill="white"/>
</g>
<path d="M60.415 231.573C59.8919 231 59.1504 229.726 59.1369 228.928C59.1176 227.811 60.7535 226.503 60.8451 224.584C60.9641 222.094 59.0729 218.106 59.0521 215.622C59.0235 212.248 61.9662 209.442 61.1893 206.239C60.961 205.298 60.5929 202.733 60.3147 201.812C59.2357 198.245 61.9485 195.17 60.7686 191.65C59.9444 189.19 56.7417 186.749 56.228 184.161C55.8037 182.024 56.9653 179.846 57.6003 177.706C58.5617 174.467 58.2929 170.848 56.879 168.002C56.1859 166.608 55.228 165.375 54.8063 163.829C54.1599 161.459 54.7943 158.461 53.3539 156.651C53.4637 159.08 51.5313 161.101 50.9011 163.474C50.144 166.324 51.3483 169.321 50.7862 172.219C50.4206 174.104 49.351 175.731 48.5424 177.451C47.7338 179.172 47.1779 181.279 47.9043 182.944C48.2189 183.665 48.7514 184.241 48.9953 185.002C49.7311 187.301 47.5778 189.706 47.4067 192.206C47.2351 194.717 49.0884 196.818 48.9677 199.329C48.8544 201.687 47.2569 205.176 47.2855 207.528C47.3121 209.72 49.4997 210.717 49.7685 212.87C50.1138 215.633 48.0349 219.47 48.6251 222.161C48.9521 223.653 50.3 223.885 50.5329 225.406C50.8013 227.159 50.0296 230.9 49.7207 232.684C49.4118 234.467 49.7051 235.738 51.0945 237.259L59.9871 239.675C63.2615 237.237 62.4066 233.754 60.415 231.573Z" fill="#FF6477"/>
<path d="M53.7695 169.363C53.7695 169.363 54.0191 170.324 54.2266 172.107C54.3119 172.997 54.379 174.112 54.1065 175.371C53.9734 175.999 53.7305 176.647 53.4081 177.296C53.0899 177.947 52.703 178.605 52.3515 179.319C52.0041 180.032 51.6776 180.81 51.6089 181.672C51.5174 182.525 51.585 183.434 51.8258 184.336C52.2745 186.154 53.2142 187.949 53.8881 189.968C54.2162 190.976 54.4736 192.063 54.4169 193.194C54.4008 193.759 54.2661 194.321 54.0935 194.868C53.8985 195.407 53.6447 195.919 53.5184 196.464C53.2495 197.567 53.6666 198.712 54.1216 199.789C54.3504 200.336 54.5927 200.888 54.7788 201.471C54.9723 202.053 55.056 202.673 55.0908 203.29C55.1345 204.533 54.9005 205.738 54.6488 206.9C54.3977 208.064 54.1257 209.203 54.0269 210.34C53.9848 210.907 53.9739 211.473 54.042 212.026C54.0961 212.579 54.2391 213.117 54.3883 213.646C54.6936 214.703 55.0726 215.743 55.1366 216.826C55.2026 217.911 54.9385 218.94 54.6894 219.906C54.4372 220.874 54.1918 221.818 54.1897 222.746C54.185 223.674 54.418 224.556 54.6644 225.389C54.9146 226.223 55.1813 227.023 55.3316 227.818C55.4907 228.613 55.4866 229.391 55.4418 230.112C55.395 230.835 55.3077 231.511 55.2271 232.141C55.0669 233.4 54.9562 234.492 55.0524 235.378C55.1428 236.263 55.4039 236.92 55.6566 237.313C55.9088 237.706 56.0788 237.89 56.0658 237.9C56.0658 237.9 55.8849 237.728 55.6166 237.338C55.3477 236.948 55.0674 236.285 54.9614 235.388C54.8496 234.49 54.9484 233.386 55.0966 232.125C55.1704 231.493 55.252 230.819 55.2926 230.103C55.3306 229.388 55.329 228.626 55.1683 227.849C55.016 227.07 54.7471 226.278 54.4908 225.441C54.2386 224.605 53.9947 223.707 53.9947 222.745C53.9931 221.784 54.2412 220.822 54.4892 219.854C54.7352 218.888 54.9874 217.879 54.9203 216.84C54.8568 215.798 54.4835 214.774 54.1725 213.709C54.0207 213.174 53.8725 212.625 53.8153 212.052C53.744 211.481 53.7544 210.9 53.7966 210.321C53.8959 209.16 54.1699 208.011 54.419 206.851C54.6696 205.693 54.8974 204.505 54.8548 203.3C54.8204 202.7 54.7409 202.106 54.5537 201.542C54.3732 200.975 54.1346 200.429 53.9047 199.879C53.677 199.329 53.4513 198.774 53.3213 198.189C53.1824 197.608 53.1575 196.993 53.2927 196.411C53.4294 195.831 53.6889 195.313 53.8782 194.79C54.0441 194.263 54.1751 193.726 54.1912 193.182C54.2484 192.094 54.0025 191.031 53.6806 190.034C53.0218 188.038 52.0837 186.232 51.6349 184.382C51.3947 183.464 51.3276 182.529 51.4274 181.651C51.5039 180.761 51.846 179.962 52.2012 179.246C52.5621 178.526 52.9526 177.872 53.2729 177.23C53.5974 176.59 53.8397 175.958 53.977 175.343C54.2568 174.11 54.2053 173.002 54.134 172.117C54.0571 171.227 53.9401 170.541 53.8704 170.076C53.8356 169.852 53.809 169.676 53.7888 169.546C53.7726 169.425 53.7659 169.364 53.7695 169.363Z" fill="#263238"/>
<path d="M49.9014 238.511C48.8166 239.045 47.6773 237.728 47.525 236.528C47.3726 235.328 47.6648 234.024 47.0876 232.961C46.5869 232.039 45.5412 231.529 44.9764 230.645C43.9572 229.049 44.8043 226.816 43.9526 225.125C43.289 223.807 41.7124 223.077 41.222 221.685C40.6958 220.192 41.6209 218.504 41.1992 216.978C40.7499 215.353 38.9143 214.391 38.5035 212.756C38.0937 211.127 39.1862 209.156 38.1426 207.84C37.7973 207.405 37.2758 207.146 36.8858 206.75C35.9856 205.836 35.9482 204.381 36.1827 203.12C36.4172 201.858 36.8665 200.604 36.735 199.328C36.5327 197.367 34.9893 195.702 34.9425 193.73C34.9035 192.09 35.9134 190.409 35.3091 188.883C36.774 189.744 36.944 191.784 37.9362 193.163C38.583 194.063 39.5638 194.654 40.3807 195.402C42.0478 196.928 43.0259 199.18 43.0036 201.441C42.989 202.934 42.5886 204.558 43.365 205.835C44.3046 207.379 46.5219 207.646 47.6659 209.046C49.3028 211.05 48.0455 214.37 49.618 216.424C50.0236 216.954 50.5893 217.351 50.9622 217.904C52.2304 219.788 50.764 222.433 51.5102 224.578C52.0594 226.157 53.7182 227.182 54.1638 228.792C54.5075 230.034 54.1076 231.54 54.9526 232.513C55.3192 232.934 55.8559 233.162 56.2963 233.506C57.1372 234.164 57.5932 235.308 57.3582 236.349C57.1231 237.39 56.1658 238.247 55.0998 238.291" fill="#FF6477"/>
<g opacity="0.5">
<path d="M56.2963 233.507C55.8564 233.163 55.3192 232.935 54.9526 232.513C54.1076 231.54 54.5075 230.034 54.1638 228.793C53.7182 227.182 52.0594 226.157 51.5102 224.579C50.764 222.434 52.2304 219.789 50.9622 217.905C50.5893 217.351 50.0236 216.955 49.618 216.425C48.0455 214.37 49.3034 211.05 47.6659 209.047C46.5219 207.646 44.3046 207.38 43.365 205.835C42.5886 204.558 42.989 202.934 43.0036 201.441C43.0259 199.181 42.0478 196.929 40.3807 195.402C39.5638 194.654 38.583 194.063 37.9362 193.163C36.944 191.784 36.7745 189.744 35.3091 188.883C35.9128 190.409 34.9035 192.09 34.9425 193.73C34.9893 195.702 36.5327 197.367 36.735 199.328C36.8665 200.604 36.4172 201.859 36.1827 203.12C35.9482 204.381 35.9856 205.836 36.8858 206.75C37.2758 207.146 37.7973 207.404 38.1426 207.84C39.1862 209.156 38.0942 211.127 38.5035 212.756C38.9143 214.391 40.7504 215.353 41.1992 216.978C41.6209 218.504 40.6958 220.192 41.222 221.685C41.7124 223.077 43.289 223.807 43.9526 225.125C44.8038 226.816 43.9572 229.049 44.9764 230.645C45.5412 231.529 46.5869 232.038 47.0876 232.961C47.6643 234.024 47.3726 235.328 47.525 236.528C47.6773 237.728 48.8166 239.045 49.9014 238.511L55.0993 238.291C56.1658 238.247 57.1226 237.39 57.3576 236.349C57.5937 235.308 57.1372 234.164 56.2963 233.507Z" fill="white"/>
</g>
<path d="M54.3825 233.307C53.9587 233.065 53.2686 232.446 53.1064 231.971C52.8786 231.306 53.6051 230.206 53.2889 229.041C52.8791 227.527 50.9765 225.506 50.4835 224.024C49.8143 222.01 51.0331 219.762 49.9489 217.995C49.6302 217.476 48.9141 216.012 48.5699 215.515C47.2345 213.588 48.2636 211.223 46.8773 209.345C45.9085 208.032 43.5202 207.19 42.7126 205.741C42.0455 204.543 42.32 203.016 42.2862 201.612C42.2353 199.487 41.3752 197.374 39.979 195.944C39.2947 195.243 38.4829 194.691 37.9317 193.847C37.0867 192.553 36.8871 190.637 35.6749 189.832C36.21 191.265 35.4441 192.847 35.5257 194.389C35.6235 196.242 36.9235 197.803 37.1471 199.645C37.2927 200.845 36.9671 202.024 36.8153 203.211C36.664 204.397 36.7383 205.765 37.4949 206.621C37.8225 206.993 38.2526 207.234 38.5453 207.642C39.4304 208.876 38.6062 210.731 38.9873 212.261C39.3701 213.797 40.8853 214.696 41.2982 216.222C41.6861 217.656 41.4048 220.052 41.8765 221.455C42.3159 222.762 43.8176 222.935 44.3953 224.172C45.1358 225.758 44.6335 228.457 45.5071 229.953C45.9912 230.783 46.843 230.661 47.2761 231.527C47.7753 232.524 48.0369 234.912 48.1965 236.039C48.3567 237.166 48.7774 237.87 49.9027 238.512L55.6918 238.239C57.1811 236.147 55.996 234.227 54.3825 233.307Z" fill="#FF6477"/>
<path d="M38.3794 197.358C38.3831 197.356 38.4049 197.389 38.4439 197.454C38.4886 197.532 38.5438 197.628 38.6119 197.746C38.7549 198.006 38.9681 198.389 39.1984 198.906C39.4241 199.421 39.6831 200.077 39.7663 200.886C39.8703 201.702 39.6384 202.614 39.485 203.595C39.4163 204.088 39.3726 204.613 39.498 205.136C39.6082 205.659 39.823 206.186 40.1402 206.676C40.7584 207.672 41.6674 208.562 42.4646 209.644C42.8577 210.185 43.2253 210.79 43.412 211.485C43.5129 211.83 43.5415 212.196 43.5441 212.561C43.5316 212.925 43.4791 213.278 43.5087 213.622C43.5597 214.318 44.022 214.915 44.503 215.471C44.7453 215.754 44.998 216.038 45.2242 216.354C45.4546 216.668 45.6267 217.027 45.7681 217.393C46.037 218.135 46.13 218.905 46.2039 219.649C46.2782 220.395 46.3354 221.127 46.4951 221.823C46.6516 222.521 46.9438 223.153 47.3437 223.718C47.7285 224.29 48.1586 224.842 48.4092 225.485C48.6609 226.13 48.7004 226.8 48.7378 227.427C48.7732 228.056 48.808 228.665 48.9838 229.215C49.3473 230.32 50.1652 231.124 50.64 232.026C51.1298 232.936 51.2546 233.865 51.4101 234.643C51.5552 235.428 51.6977 236.102 51.9228 236.612C52.1449 237.123 52.4241 237.466 52.6488 237.654C52.8729 237.842 53.0086 237.922 53.0013 237.933C53.0013 237.933 52.8562 237.87 52.6181 237.69C52.3794 237.51 52.0794 237.167 51.8391 236.65C51.5958 236.133 51.4382 235.452 51.2806 234.669C51.1137 233.892 50.9759 232.975 50.4939 232.106C50.0274 231.233 49.1954 230.439 48.7976 229.274C48.4076 228.11 48.6765 226.781 48.2074 225.564C47.9708 224.961 47.5512 224.422 47.1576 223.844C46.7494 223.273 46.4316 222.593 46.271 221.874C45.9309 220.442 46.0578 218.898 45.5476 217.473C45.4124 217.124 45.2523 216.788 45.0334 216.49C44.8176 216.188 44.57 215.908 44.3262 215.623C43.8462 215.065 43.3382 214.425 43.2799 213.641C43.2492 213.261 43.3054 212.899 43.3174 212.553C43.3148 212.209 43.2903 211.868 43.1957 211.542C43.022 210.887 42.6726 210.302 42.2893 209.77C41.5135 208.706 40.6024 207.804 39.9743 206.778C39.6524 206.272 39.4298 205.72 39.3201 205.17C39.1938 204.618 39.2452 204.069 39.3206 203.57C39.4881 202.572 39.7247 201.689 39.6352 200.898C39.5671 200.109 39.3253 199.457 39.1142 198.941C38.8989 198.423 38.6987 198.034 38.5698 197.768C38.51 197.645 38.4616 197.545 38.4221 197.465C38.3909 197.396 38.3758 197.36 38.3794 197.358Z" fill="#263238"/>
<path d="M73.5559 227.818H38.8594V233.968H73.5559V227.818Z" fill="#455A64"/>
<path d="M41.4492 232.748L45.6685 251.124H66.3473L70.9634 232.748H41.4492Z" fill="#455A64"/>
<path d="M73.5362 233.975C73.5362 234.043 65.7102 234.098 56.0579 234.098C46.4026 234.098 38.5781 234.043 38.5781 233.975C38.5781 233.908 46.4026 233.854 56.0579 233.854C65.7102 233.853 73.5362 233.908 73.5362 233.975Z" fill="#263238"/>
<path d="M230.815 197.468C230.815 197.468 219.076 202.826 207.658 202.826C197.082 202.826 185.254 197.503 185.254 197.503L230.815 197.468Z" fill="#E0E0E0"/>
<path d="M206.46 245.413H210.988V197.979H206.46V245.413Z" fill="#E0E0E0"/>
<path d="M188.423 246.23H228.617V243.449H188.423V246.23Z" fill="#E0E0E0"/>
<path d="M223.906 247.428C223.906 249.122 225.28 250.496 226.974 250.496C228.668 250.496 230.041 249.122 230.041 247.428C230.041 245.734 228.668 244.361 226.974 244.361C225.28 244.361 223.906 245.734 223.906 247.428Z" fill="#263238"/>
<path d="M206.043 247.428C206.043 249.122 207.416 250.496 209.11 250.496C210.805 250.496 212.178 249.122 212.178 247.428C212.178 245.734 210.805 244.361 209.11 244.361C207.416 244.361 206.043 245.734 206.043 247.428Z" fill="#263238"/>
<path d="M185.355 247.428C185.355 249.122 186.729 250.496 188.423 250.496C190.117 250.496 191.49 249.122 191.49 247.428C191.49 245.734 190.117 244.361 188.423 244.361C186.729 244.361 185.355 245.734 185.355 247.428Z" fill="#263238"/>
<path d="M207.656 217.6H213.816V215.051H207.656V217.6Z" fill="#E0E0E0"/>
<path d="M212.694 219.384H214.938V213.267H212.694V219.384Z" fill="#E0E0E0"/>
<path d="M183.233 197.468H234.528C236.409 197.468 237.933 195.944 237.933 194.064C237.933 192.183 236.409 190.659 234.528 190.659H183.233C181.352 190.659 179.828 192.183 179.828 194.064C179.828 195.944 181.352 197.468 183.233 197.468Z" fill="#455A64"/>
<path d="M230.485 107.82C230.485 107.82 234.613 106.21 234.445 102.689C234.276 99.168 229.531 95.686 229.813 90.3997C230.077 85.4426 222.973 70.7115 212.827 75.8475C212.827 75.8475 210.109 75.4466 207.729 76.1273C204.46 77.0622 203.439 80.1926 201.503 83.296C198.52 88.0779 196.49 91.8448 197.928 95.179C199.367 98.5133 199.974 99.4909 198.856 102.336C197.396 106.05 195.908 104.973 196.395 108.215L205.245 108.358L206.081 106.197L206.178 108.535L211.38 108.465L230.485 107.82Z" fill="#263238"/>
<path d="M205.254 81.0496C205.361 82.4151 204.466 83.6402 203.562 84.6693C202.658 85.6984 201.652 86.7717 201.463 88.1283C201.127 90.5328 203.49 92.7512 203.017 95.1322C202.763 96.4083 201.725 97.4379 201.545 98.7265C201.372 99.9729 202.045 101.189 202.877 102.132C203.709 103.076 204.722 103.862 205.459 104.882C205.459 104.882 206.995 107.374 211.677 105.75" fill="#263238"/>
<path d="M209.275 79.3076L220.941 81.7792C222.069 81.8546 222.953 82.7807 222.974 83.9117L222.834 109.159C222.824 110.884 222.246 112.557 221.189 113.92L220.076 115.355C217.54 118.627 212.401 118.297 210.464 114.639C210.329 114.383 210.235 114.16 210.195 113.978C210.156 113.751 210.096 113.601 210.086 113.408L209.864 110.947C209.75 108.699 209.734 106.415 209.734 106.436C209.734 106.436 204.96 105.832 203.736 99.6812C203.128 96.622 203.087 91.5692 203.186 87.4342C203.276 83.711 205.56 79.0601 209.275 79.3076Z" fill="#FFBE9D"/>
<path d="M204.965 92.1714C204.966 92.591 205.323 92.9363 205.761 92.9425C206.199 92.9487 206.553 92.6149 206.552 92.1953C206.55 91.7756 206.194 91.4304 205.756 91.4236C205.318 91.4168 204.963 91.7517 204.965 92.1714Z" fill="#263238"/>
<path d="M204.385 90.0165C204.488 90.1163 205.072 89.6478 205.926 89.6166C206.779 89.5734 207.423 89.9884 207.512 89.8802C207.555 89.8324 207.448 89.6494 207.167 89.4611C206.891 89.2739 206.425 89.0992 205.893 89.1221C205.361 89.1455 204.921 89.3592 204.672 89.5693C204.416 89.7809 204.335 89.9718 204.385 90.0165Z" fill="#263238"/>
<path d="M212.617 91.9795C212.618 92.3991 212.975 92.7439 213.414 92.7507C213.851 92.7569 214.206 92.423 214.204 92.0034C214.203 91.5838 213.846 91.238 213.409 91.2317C212.97 91.225 212.616 91.5599 212.617 91.9795Z" fill="#263238"/>
<path d="M212.494 89.808C212.597 89.9078 213.182 89.4393 214.036 89.4086C214.888 89.3654 215.532 89.7804 215.621 89.6722C215.665 89.6239 215.558 89.4414 215.276 89.2531C215 89.0654 214.534 88.8907 214.002 88.9136C213.47 88.9375 213.03 89.1507 212.781 89.3608C212.527 89.5729 212.444 89.7638 212.494 89.808Z" fill="#263238"/>
<path d="M209.931 96.3043C209.933 96.2559 209.399 96.1847 208.535 96.1077C208.316 96.0937 208.107 96.0583 208.065 95.9112C208.007 95.7552 208.089 95.517 208.186 95.2591C208.37 94.7235 208.563 94.1619 208.766 93.5733C209.57 91.174 210.143 89.2042 210.046 89.173C209.949 89.1413 209.219 91.0606 208.415 93.4599C208.222 94.0511 208.037 94.6153 207.862 95.1546C207.788 95.4057 207.658 95.6923 207.782 96.0152C207.847 96.1759 208.011 96.2877 208.153 96.3204C208.294 96.3579 208.417 96.3553 208.525 96.3573C209.393 96.3703 209.93 96.3532 209.931 96.3043Z" fill="#263238"/>
<path d="M209.734 106.435C209.734 106.435 213.908 106.542 217.937 103.903C217.937 103.903 216.02 108.268 209.803 107.929L209.734 106.435Z" fill="#EB996E"/>
<path d="M210.375 98.349C210.667 97.9309 211.196 97.687 211.733 97.7239C212.105 97.7494 212.487 97.9137 212.724 98.207C212.961 98.4998 213.024 98.9267 212.831 99.2226C212.613 99.5559 212.134 99.649 211.722 99.5491C211.31 99.4488 210.949 99.1945 210.605 98.9402C210.51 98.87 210.413 98.7962 210.351 98.6968C210.29 98.598 210.272 98.4654 210.341 98.3791" fill="#EB996E"/>
<path d="M212.47 96.7978C212.331 96.7952 212.365 97.7224 211.597 98.4114C210.831 99.1024 209.838 99.0364 209.836 99.1664C209.825 99.2252 210.064 99.338 210.481 99.3333C210.891 99.3318 211.483 99.1768 211.953 98.7556C212.422 98.3334 212.609 97.7868 212.626 97.4052C212.645 97.0157 212.533 96.79 212.47 96.7978Z" fill="#263238"/>
<path d="M212.541 87.273C212.634 87.5018 213.483 87.3588 214.489 87.4404C215.498 87.5023 216.318 87.7638 216.442 87.5506C216.498 87.4487 216.348 87.2355 216.013 87.0234C215.68 86.8112 215.155 86.6183 214.551 86.5746C213.947 86.532 213.4 86.649 213.041 86.8117C212.679 86.9745 212.5 87.1638 212.541 87.273Z" fill="#263238"/>
<path d="M204.486 86.2714C204.643 86.4592 205.224 86.235 205.931 86.1981C206.637 86.1368 207.243 86.2777 207.373 86.0697C207.43 85.9688 207.328 85.778 207.059 85.6048C206.794 85.4316 206.357 85.299 205.871 85.3323C205.385 85.3666 204.971 85.559 204.733 85.767C204.491 85.9761 204.416 86.1794 204.486 86.2714Z" fill="#263238"/>
<path d="M226.098 81.7693C225.233 79.2275 221.752 76.4408 218.472 75.184C216.603 74.468 214.498 74.7436 212.829 75.8475L208.664 78.6014C209.067 80.631 210.674 82.373 212.665 82.9362C213.729 83.2367 215.003 83.3002 215.649 84.1961C216.31 85.1113 215.961 86.4701 216.577 87.4154C217.432 88.7253 219.693 88.6177 220.343 90.0399C220.627 90.6613 220.5 91.4132 220.795 92.0294C221.188 92.8505 223.306 93.8593 224.168 93.567C225.031 93.2748 225.003 91.7975 225.272 91.0175C225.73 89.6852 225.517 89.0035 225.343 88.2677C224.929 86.5257 226.675 83.4645 226.098 81.7693Z" fill="#263238"/>
<path d="M221.622 94.3491C221.605 93.8884 222.095 92.7808 222.548 92.6919C223.756 92.4553 225.951 92.4678 226.091 95.554C226.282 99.7727 222.007 99.0952 221.994 98.9745C221.984 98.8804 221.68 95.9409 221.622 94.3491Z" fill="#FFBE9D"/>
<path d="M223.21 97.3178C223.228 97.3038 223.286 97.3656 223.413 97.4171C223.536 97.467 223.747 97.4962 223.963 97.4036C224.401 97.22 224.744 96.4952 224.73 95.7339C224.724 95.3491 224.627 94.9877 224.477 94.6908C224.334 94.3881 224.125 94.1817 223.899 94.152C223.673 94.1104 223.521 94.2519 223.474 94.373C223.423 94.4937 223.454 94.5769 223.431 94.5847C223.42 94.5961 223.338 94.5181 223.364 94.3429C223.378 94.2581 223.423 94.1562 223.518 94.0709C223.615 93.9841 223.762 93.9352 223.919 93.9451C224.246 93.9529 224.552 94.2389 224.716 94.5644C224.899 94.8904 225.017 95.2971 225.025 95.7287C225.036 96.5799 224.637 97.3953 224.035 97.5991C223.742 97.6896 223.49 97.6116 223.358 97.518C223.223 97.4197 223.196 97.3261 223.21 97.3178Z" fill="#EB996E"/>
<path d="M194.309 126.19L186.849 145.653L172.809 146.545L170.637 152.647L189.172 156.241C189.172 156.241 194.746 157.86 197.924 150.787L203.357 131.427L194.309 126.19Z" fill="#FFBE9D"/>
<path d="M159.479 149.586C159.648 149.921 159.999 150.139 160.373 150.107C160.447 150.1 160.525 150.085 160.605 150.06C161.136 149.889 161.086 148.808 161.086 148.808L163.63 148.393C163.63 148.393 166.939 150.526 168.116 151.94C169.293 153.354 172.296 152.209 172.296 152.209L173.337 146.786L168.654 142.552C168.654 142.552 168.941 142.804 168.618 142.012C168.295 141.22 166.824 141.519 166.824 141.519C166.595 141.128 165.633 140.987 165.633 140.987L161.526 141.461C160.679 141.558 159.923 142.034 159.468 142.754L157.731 145.504C157.731 145.504 156.814 147.483 156.961 147.943C157.184 148.638 157.919 148.483 157.919 148.483C157.919 148.483 158.12 149.785 158.463 149.83C158.804 149.876 159.479 149.586 159.479 149.586Z" fill="#FFBE9D"/>
<path d="M167.218 151.065C167.212 151.071 167.128 151.007 166.974 150.879C166.798 150.737 166.57 150.554 166.286 150.327C165.679 149.858 164.778 149.19 163.586 148.467L163.644 148.479C162.886 148.607 162.03 148.754 161.103 148.911L161.191 148.804C161.196 149.011 161.184 149.214 161.143 149.425C161.101 149.632 161.035 149.855 160.855 150.036C160.761 150.125 160.627 150.177 160.517 150.191C160.404 150.221 160.281 150.231 160.159 150.213C159.917 150.178 159.689 150.05 159.527 149.862C159.485 149.816 159.449 149.764 159.416 149.712L159.392 149.671L159.381 149.651L159.375 149.64L159.375 149.639C159.342 149.626 159.659 149.742 159.524 149.693L159.521 149.694L159.516 149.696L159.436 149.729C159.328 149.772 159.219 149.81 159.107 149.846C158.995 149.88 158.88 149.911 158.759 149.932C158.698 149.943 158.636 149.952 158.57 149.953C158.508 149.956 158.433 149.958 158.334 149.908C158.191 149.806 158.14 149.685 158.085 149.572C158.034 149.456 157.993 149.34 157.959 149.222C157.889 148.986 157.838 148.749 157.796 148.502L157.944 148.605C157.615 148.664 157.226 148.584 156.996 148.282C156.893 148.142 156.809 147.969 156.822 147.77C156.83 147.592 156.87 147.436 156.912 147.278C157.089 146.654 157.341 146.056 157.613 145.449L157.616 145.442L157.621 145.434C157.916 144.966 158.23 144.469 158.547 143.967C158.744 143.655 158.94 143.345 159.135 143.037C159.33 142.739 159.505 142.405 159.779 142.137C160.043 141.87 160.36 141.662 160.701 141.525C161.04 141.378 161.416 141.342 161.749 141.307C163.109 141.154 164.407 141.008 165.62 140.871L165.637 140.869L165.651 140.871C165.889 140.912 166.111 140.968 166.33 141.05C166.542 141.136 166.769 141.233 166.919 141.463L166.777 141.418C167.212 141.24 167.716 141.238 168.096 141.492C168.479 141.743 168.655 142.15 168.749 142.532L168.718 142.478C170.062 143.688 171.16 144.675 171.945 145.38C172.307 145.714 172.596 145.98 172.814 146.181C173.011 146.367 173.112 146.468 173.105 146.475C173.099 146.482 172.986 146.395 172.777 146.223C172.55 146.032 172.249 145.778 171.873 145.461C171.075 144.771 169.958 143.806 168.589 142.623L168.567 142.604L168.558 142.569C168.472 142.232 168.298 141.862 167.982 141.666C167.676 141.459 167.234 141.466 166.87 141.618L166.78 141.655L166.728 141.573C166.64 141.436 166.445 141.333 166.249 141.261C166.051 141.188 165.832 141.135 165.616 141.1L165.646 141.101C164.434 141.244 163.137 141.397 161.777 141.557C161.43 141.596 161.106 141.628 160.796 141.761C160.488 141.886 160.202 142.076 159.963 142.318C159.721 142.552 159.556 142.866 159.355 143.175C159.161 143.482 158.965 143.793 158.768 144.105C158.45 144.607 158.137 145.104 157.841 145.571L157.849 145.557C157.581 146.15 157.329 146.75 157.158 147.344C157.117 147.491 157.081 147.643 157.075 147.778C157.061 147.894 157.121 148.02 157.196 148.126C157.344 148.334 157.642 148.401 157.892 148.359L158.02 148.339L158.041 148.462C158.079 148.695 158.129 148.93 158.193 149.151C158.255 149.36 158.347 149.615 158.459 149.701C158.465 149.704 158.508 149.717 158.562 149.712C158.612 149.711 158.665 149.704 158.718 149.696C158.824 149.678 158.931 149.65 159.037 149.618C159.142 149.586 159.247 149.55 159.349 149.51L159.425 149.48L159.429 149.478L159.431 149.477C159.297 149.429 159.615 149.543 159.583 149.532L159.583 149.533L159.588 149.541L159.597 149.558L159.614 149.59C159.64 149.631 159.668 149.672 159.701 149.709C159.828 149.859 160.006 149.958 160.191 149.987C160.284 150.003 160.377 149.994 160.471 149.971C160.572 149.957 160.64 149.928 160.703 149.874C160.946 149.621 160.98 149.171 160.982 148.811L160.982 148.717L161.069 148.704C161.998 148.559 162.856 148.424 163.616 148.306L163.649 148.301L163.675 148.317C164.866 149.067 165.753 149.757 166.345 150.251C166.639 150.5 166.861 150.7 167.006 150.84C167.151 150.983 167.224 151.059 167.218 151.065Z" fill="#EB996E"/>
<path d="M166.128 142.966C166.137 142.995 165.65 143.183 164.81 143.36C163.972 143.537 162.774 143.681 161.422 143.606L161.558 143.514C161.489 143.716 161.415 143.929 161.328 144.141C160.765 145.55 159.929 146.666 159.242 147.371C158.899 147.726 158.594 147.985 158.377 148.154C158.157 148.32 158.028 148.401 158.017 148.387C157.988 148.352 158.46 147.969 159.102 147.241C159.741 146.515 160.528 145.412 161.077 144.04C161.161 143.833 161.234 143.626 161.303 143.429L161.337 143.331L161.438 143.337C162.764 143.419 163.943 143.311 164.779 143.182C165.616 143.055 166.118 142.929 166.128 142.966Z" fill="#EB996E"/>
<path d="M162.23 145.36C162.296 145.373 162.028 146.506 161.214 147.664C160.409 148.828 159.44 149.472 159.405 149.414C159.352 149.351 160.216 148.633 160.992 147.509C161.778 146.392 162.152 145.333 162.23 145.36Z" fill="#EB996E"/>
<path d="M173.108 150.559C173.111 150.566 173.066 150.591 172.977 150.634C172.889 150.679 172.752 150.733 172.571 150.791C172.21 150.904 171.656 151.025 170.954 150.977C170.259 150.93 169.405 150.706 168.625 150.134C167.851 149.573 167.157 148.675 166.866 147.55L167.017 147.647C166.1 147.823 165.083 147.887 164.044 147.787C163.672 147.751 163.306 147.696 162.949 147.623C162.597 147.547 162.231 147.474 161.901 147.278C161.747 147.188 161.566 147.04 161.506 146.83C161.441 146.627 161.476 146.41 161.573 146.236C161.672 146.061 161.842 145.929 162.034 145.879C162.193 145.838 162.351 145.799 162.508 145.76C163.756 145.458 164.893 145.242 165.851 145.092C166.81 144.941 167.59 144.853 168.13 144.805C168.67 144.758 168.97 144.748 168.972 144.766C168.974 144.785 168.678 144.831 168.143 144.91C167.608 144.99 166.834 145.107 165.883 145.281C164.933 145.455 163.806 145.69 162.568 146.003C162.414 146.043 162.258 146.084 162.1 146.125C161.974 146.16 161.865 146.246 161.799 146.364C161.734 146.482 161.714 146.627 161.756 146.752C161.793 146.878 161.897 146.967 162.038 147.053C162.312 147.215 162.655 147.288 163.003 147.361C163.351 147.431 163.708 147.484 164.071 147.519C165.083 147.616 166.074 147.558 166.969 147.393L167.09 147.37L167.12 147.489C167.385 148.549 168.031 149.41 168.759 149.957C169.49 150.512 170.298 150.747 170.968 150.815C171.643 150.884 172.187 150.792 172.547 150.708C172.91 150.618 173.1 150.54 173.108 150.559Z" fill="#EB996E"/>
<path d="M168.282 220.169C168.266 220.168 168.249 220.001 168.296 219.704C168.345 219.409 168.466 218.978 168.766 218.521C168.843 218.41 168.92 218.29 169.046 218.18C169.166 218.071 169.373 217.987 169.572 218.061C169.671 218.093 169.77 218.184 169.805 218.295C169.842 218.408 169.823 218.519 169.794 218.61C169.728 218.798 169.631 218.931 169.549 219.085C169.366 219.392 169.216 219.698 168.983 220.044C168.865 220.22 168.6 220.366 168.359 220.324C168.121 220.294 167.929 220.179 167.756 220.057C167.42 219.813 167.124 219.536 166.87 219.241C166.743 219.093 166.627 218.941 166.521 218.786C166.421 218.633 166.303 218.477 166.258 218.264C166.213 218.058 166.291 217.788 166.525 217.694C166.761 217.609 166.954 217.727 167.086 217.821C167.353 218.043 167.515 218.271 167.678 218.492C167.989 218.932 168.161 219.336 168.258 219.618C168.353 219.902 168.376 220.065 168.36 220.071C168.312 220.09 168.152 219.436 167.52 218.609C167.363 218.413 167.169 218.174 166.952 218.008C166.84 217.929 166.702 217.878 166.618 217.92C166.53 217.952 166.48 218.085 166.51 218.213C166.537 218.346 166.637 218.487 166.739 218.635C166.842 218.78 166.954 218.923 167.076 219.062C167.32 219.34 167.603 219.602 167.919 219.832C168.071 219.942 168.237 220.032 168.391 220.05C168.546 220.07 168.668 220.008 168.77 219.876C168.964 219.594 169.15 219.246 169.328 218.956C169.414 218.805 169.518 218.659 169.563 218.533C169.61 218.4 169.584 218.314 169.492 218.277C169.279 218.189 169.072 218.429 168.928 218.634C168.328 219.481 168.336 220.186 168.282 220.169Z" fill="#263238"/>
<path d="M180.336 220.581L186.32 233.55L195.976 229.089L189.787 213.038L180.336 220.581Z" fill="#FFBE9D"/>
<path d="M185.188 232.685L188.685 239.352C188.685 239.352 179.735 248.606 180.575 250.675L201.614 240.587L195.834 227.214L185.188 232.685Z" fill="#455A64"/>
<path d="M194.751 235.322C195.212 235.238 195.712 235.561 195.815 236.017C195.918 236.474 195.594 236.986 195.135 237.078C194.676 237.17 194.063 236.801 194.012 236.336C193.961 235.87 194.375 235.29 194.842 235.311" fill="#E0E0E0"/>
<g opacity="0.6">
<path d="M201.614 240.587L200.739 238.91L180.895 249.209C180.895 249.209 180.153 250.065 180.575 250.675L201.614 240.587Z" fill="white"/>
</g>
<path d="M188.291 239.408C188.343 239.51 188.879 239.31 189.543 239.398C190.209 239.469 190.684 239.788 190.759 239.703C190.844 239.637 190.396 239.097 189.591 239.004C188.786 238.904 188.223 239.325 188.291 239.408Z" fill="#263238"/>
<path d="M186.522 241.379C186.546 241.49 187.075 241.451 187.632 241.719C188.197 241.969 188.51 242.397 188.611 242.344C188.715 242.314 188.498 241.678 187.798 241.359C187.102 241.033 186.477 241.28 186.522 241.379Z" fill="#263238"/>
<path d="M186.536 244.621C186.64 244.598 186.537 244.017 186.003 243.58C185.472 243.14 184.881 243.151 184.879 243.257C184.862 243.369 185.318 243.522 185.751 243.886C186.192 244.241 186.429 244.66 186.536 244.621Z" fill="#263238"/>
<path d="M187.288 236.84C187.376 236.913 187.779 236.545 188.379 236.307C188.974 236.055 189.519 236.034 189.53 235.92C189.554 235.817 188.93 235.648 188.228 235.939C187.524 236.225 187.199 236.784 187.288 236.84Z" fill="#263238"/>
<path d="M183.215 230.954L167.441 191.478C167.441 191.478 167.796 184.742 169.037 182.615C170.277 180.489 207.854 168.081 207.854 168.081C207.854 168.081 217.425 165.777 223.806 168.081C230.187 170.385 236.871 172.703 236.155 177.165C235.108 183.683 229.46 190.479 229.46 190.479L201.827 191.3L186.766 196.795L196.909 225.864L183.215 230.954Z" fill="#263238"/>
<path d="M169.188 203.979L168.832 218.257L179.467 218.517L180.998 201.382L169.188 203.979Z" fill="#FFBE9D"/>
<path d="M168.198 216.982L168.392 224.508C168.392 224.508 156.276 228.86 156.117 231.087L179.448 231.324L180.166 216.773L168.198 216.982Z" fill="#455A64"/>
<path d="M175.616 223.57C176.066 223.698 176.373 224.209 176.264 224.664C176.154 225.119 175.638 225.435 175.186 225.315C174.733 225.195 174.346 224.594 174.505 224.153C174.665 223.713 175.292 223.375 175.702 223.6" fill="#E0E0E0"/>
<g opacity="0.6">
<path d="M179.449 231.323L179.404 229.432L157.051 229.913C157.051 229.913 156.008 230.354 156.117 231.087L179.449 231.323Z" fill="white"/>
</g>
<path d="M168.016 224.385C168.019 224.499 168.588 224.557 169.145 224.928C169.711 225.286 169.995 225.782 170.1 225.738C170.205 225.717 170.043 225.034 169.36 224.596C168.683 224.151 167.992 224.28 168.016 224.385Z" fill="#263238"/>
<path d="M165.56 225.372C165.533 225.483 166.024 225.681 166.406 226.167C166.802 226.642 166.895 227.164 167.008 227.16C167.115 227.179 167.201 226.512 166.714 225.917C166.233 225.318 165.563 225.264 165.56 225.372Z" fill="#263238"/>
<path d="M164.139 228.287C164.242 228.313 164.407 227.745 164.12 227.118C163.838 226.489 163.304 226.237 163.254 226.332C163.189 226.425 163.531 226.763 163.759 227.281C163.998 227.794 164.026 228.275 164.139 228.287Z" fill="#263238"/>
<path d="M168.25 221.637C168.297 221.742 168.821 221.59 169.465 221.64C170.109 221.677 170.608 221.898 170.668 221.801C170.735 221.719 170.25 221.293 169.492 221.244C168.734 221.19 168.195 221.547 168.25 221.637Z" fill="#263238"/>
<path d="M175.396 164.336C175.396 164.336 169.024 163.827 168.315 170.739C167.606 177.652 166.91 209.911 166.91 209.911L181.799 211.152L184.103 178.184L207.854 168.081C207.854 168.081 179.65 163.45 175.396 164.336Z" fill="#263238"/>
<path d="M201.657 155.008C201.657 155.008 197.791 165.849 198.527 167.057C199.263 168.266 209.207 173.237 209.207 173.237L234.088 182.792C234.088 182.792 236.643 178.727 236.643 172.483C236.643 166.239 227.988 155.007 227.988 155.007H201.657V155.008Z" fill="#263238"/>
<path d="M209.032 167.528C209.033 167.532 208.994 167.553 208.915 167.591C208.824 167.633 208.707 167.687 208.561 167.754C208.233 167.901 207.773 168.105 207.183 168.367C205.962 168.899 204.207 169.664 202.011 170.621C197.574 172.531 191.353 175.209 184.155 178.307L184.236 178.194C184.01 181.45 183.766 184.967 183.514 188.606C182.908 197.113 182.351 204.955 181.909 211.16L181.901 211.273L181.789 211.263C177.261 210.866 173.545 210.539 170.943 210.311C169.664 210.191 168.658 210.097 167.956 210.032C167.626 209.998 167.367 209.971 167.176 209.951C167 209.931 166.91 209.918 166.91 209.912C166.911 209.906 167.002 209.908 167.178 209.918C167.37 209.93 167.63 209.946 167.962 209.967C168.665 210.018 169.671 210.092 170.953 210.186C173.557 210.391 177.276 210.685 181.808 211.042L181.689 211.145C182.114 204.939 182.653 197.094 183.237 188.587C183.493 184.949 183.741 181.431 183.97 178.176L183.976 178.094L184.051 178.062C191.264 175.001 197.498 172.354 201.946 170.467C204.155 169.54 205.92 168.801 207.148 168.285C207.745 168.04 208.211 167.849 208.543 167.713C208.693 167.654 208.812 167.607 208.906 167.57C208.988 167.539 209.03 167.525 209.032 167.528Z" fill="#455A64"/>
<path d="M228.82 168.612C228.814 168.631 228.565 168.561 228.122 168.422C227.628 168.262 226.999 168.06 226.248 167.818C224.668 167.317 222.475 166.618 219.979 166.233C217.483 165.849 215.173 165.967 213.56 166.316C211.94 166.651 211.009 167.114 210.988 167.061C210.982 167.047 211.207 166.92 211.636 166.734C212.064 166.546 212.704 166.319 213.519 166.124C215.143 165.721 217.494 165.568 220.021 165.959C222.547 166.348 224.744 167.082 226.312 167.632C227.096 167.91 227.726 168.149 228.158 168.32C228.59 168.491 228.827 168.595 228.82 168.612Z" fill="#455A64"/>
<path d="M225.303 162.898C225.296 162.942 224.47 162.781 223.128 162.886C222.458 162.932 221.66 163.035 220.773 163.138C219.886 163.243 218.913 163.362 217.906 163.553C215.885 163.913 214.145 164.618 213.031 165.362C211.906 166.094 211.379 166.762 211.341 166.724C211.33 166.715 211.444 166.536 211.702 166.256C211.96 165.976 212.36 165.59 212.921 165.199C214.03 164.397 215.808 163.644 217.855 163.28C218.875 163.087 219.855 162.975 220.745 162.883C221.634 162.794 222.437 162.711 223.118 162.689C223.798 162.665 224.351 162.704 224.728 162.761C225.105 162.818 225.307 162.881 225.303 162.898Z" fill="#455A64"/>
<path d="M192.445 124.184C192.445 124.184 196.896 116.764 198.131 115.262C199.289 113.855 200.781 113.025 201.777 112.589C202.331 112.347 202.913 112.18 203.509 112.077L209.91 110.66C209.91 110.66 209.921 115.028 214.499 115.299C219.076 115.569 222.93 109.193 222.93 109.193C222.93 109.193 230.325 110.337 232.094 111.247C233.864 112.157 236.644 113.312 238.174 120.975L239.248 128.47L226.498 129.649L225.277 148.596L218.954 152.999C218.954 152.999 201.424 157.557 200.303 157.858C199.183 158.159 198.812 129.649 198.812 129.649C198.812 129.649 194.309 126.737 192.445 124.184Z" fill="#FF6477"/>
<path d="M200.837 120.998C200.82 120.992 200.733 121.187 200.591 121.545C200.445 121.902 200.259 122.428 200.052 123.086C199.637 124.4 199.181 126.259 198.924 128.352C198.669 130.445 198.663 132.36 198.749 133.736C198.791 134.424 198.844 134.979 198.9 135.361C198.952 135.743 198.989 135.953 199.007 135.951C199.024 135.949 199.02 135.735 198.998 135.352C198.973 134.968 198.948 134.413 198.929 133.728C198.89 132.357 198.925 130.46 199.177 128.383C199.433 126.307 199.857 124.457 200.226 123.137C200.409 122.476 200.568 121.943 200.685 121.577C200.798 121.21 200.853 121.004 200.837 120.998Z" fill="#263238"/>
<path d="M226.96 120.548C226.979 120.55 226.982 120.756 226.971 121.127C226.954 121.557 226.933 122.081 226.908 122.698C226.842 124.089 226.758 125.889 226.665 127.879C226.568 129.904 226.463 131.736 226.362 133.061C226.312 133.723 226.266 134.259 226.226 134.628C226.186 134.998 226.155 135.202 226.137 135.2C226.118 135.199 226.113 134.993 226.12 134.622C226.134 134.192 226.151 133.667 226.171 133.05C226.231 131.659 226.308 129.858 226.394 127.866C226.49 125.842 226.606 124.01 226.716 122.686C226.772 122.024 226.822 121.489 226.865 121.119C226.909 120.751 226.942 120.547 226.96 120.548Z" fill="#263238"/>
<path d="M201.378 152.033L225.385 146.808L226.494 129.648L237.17 128.661C237.17 128.661 236.419 140.368 236.365 143.879C236.207 154 232.81 155.739 231.075 157.106C229.341 158.474 200.301 157.857 200.301 157.857L201.378 152.033Z" fill="#FFBE9D"/>
<path d="M187.753 155.144C187.922 155.479 188.273 155.697 188.646 155.664C188.721 155.658 188.799 155.643 188.879 155.618C189.41 155.447 189.36 154.366 189.36 154.366L191.904 153.95C191.904 153.95 195.213 156.084 196.39 157.498C197.567 158.912 200.57 157.767 200.57 157.767L201.611 152.344L196.927 148.109C196.927 148.109 197.215 148.362 196.892 147.57C196.569 146.778 195.098 147.077 195.098 147.077C194.869 146.686 193.907 146.545 193.907 146.545L189.8 147.018C188.953 147.116 188.197 147.591 187.742 148.312L186.005 151.061C186.005 151.061 185.088 153.041 185.235 153.501C185.457 154.195 186.192 154.041 186.192 154.041C186.192 154.041 186.394 155.343 186.736 155.388C187.078 155.433 187.753 155.144 187.753 155.144Z" fill="#FFBE9D"/>
<path d="M196.495 151.249C196.491 151.292 195.945 151.242 195.067 151.28C194.192 151.322 192.981 151.476 191.715 151.907C191.083 152.121 190.499 152.377 189.987 152.646C189.49 152.926 188.973 153.155 188.814 153.517C188.734 153.694 188.77 153.874 188.859 154.006C188.945 154.138 189.064 154.225 189.168 154.268C189.384 154.357 189.524 154.296 189.529 154.321C189.539 154.327 189.401 154.434 189.135 154.364C189.007 154.33 188.858 154.244 188.739 154.09C188.617 153.945 188.546 153.685 188.642 153.448C188.731 153.208 188.935 153.023 189.153 152.87C189.377 152.724 189.611 152.574 189.873 152.434C190.389 152.147 190.984 151.877 191.632 151.659C192.928 151.217 194.173 151.09 195.064 151.095C195.958 151.103 196.5 151.22 196.495 151.249Z" fill="#EB996E"/>
<path d="M196.783 153.868C196.778 153.946 195.106 153.876 193.053 153.997C190.998 154.11 189.345 154.368 189.332 154.292C189.326 154.258 189.732 154.15 190.402 154.032C191.07 153.914 192.003 153.795 193.038 153.736C194.073 153.677 195.013 153.69 195.691 153.732C196.369 153.772 196.785 153.834 196.783 153.868Z" fill="#EB996E"/>
<path d="M187.775 155.039C187.761 155.037 187.743 154.885 187.723 154.602C187.706 154.319 187.689 153.908 187.721 153.399C187.738 153.144 187.766 152.864 187.835 152.566C187.9 152.266 188.044 151.95 188.239 151.671C188.609 151.111 189.123 150.53 189.778 150.095C190.43 149.664 191.082 149.301 191.743 149.101C192.398 148.903 193.01 148.854 193.517 148.832C194.025 148.814 194.434 148.825 194.716 148.835C194.999 148.847 195.155 148.862 195.155 148.88C195.157 148.922 194.529 148.943 193.528 149.016C193.03 149.062 192.436 149.13 191.814 149.332C191.198 149.529 190.556 149.894 189.926 150.31C189.294 150.733 188.814 151.264 188.437 151.808C188.04 152.325 187.966 152.92 187.905 153.415C187.807 154.41 187.832 155.041 187.775 155.039Z" fill="#EB996E"/>
<path d="M193.71 147.588C193.711 147.627 193.095 147.643 192.114 147.757C191.169 147.902 189.657 147.971 188.795 149.274C187.862 150.459 187.069 151.578 186.722 152.496C186.354 153.407 186.386 154.038 186.333 154.033C186.319 154.034 186.295 153.879 186.309 153.597C186.32 153.317 186.381 152.908 186.548 152.431C186.864 151.462 187.652 150.301 188.591 149.109C188.83 148.81 189.089 148.526 189.389 148.302C189.688 148.074 190.036 147.941 190.356 147.848C191.004 147.665 191.599 147.612 192.097 147.572C193.094 147.506 193.711 147.555 193.71 147.588Z" fill="#EB996E"/>
<path d="M195.491 156.623C195.485 156.629 195.401 156.565 195.247 156.437C195.071 156.295 194.843 156.112 194.559 155.884C193.952 155.415 193.05 154.748 191.859 154.025L191.917 154.036C191.159 154.165 190.303 154.311 189.376 154.469L189.463 154.361C189.469 154.569 189.457 154.772 189.416 154.983C189.374 155.19 189.308 155.413 189.128 155.594C189.034 155.683 188.9 155.735 188.79 155.749C188.677 155.778 188.554 155.789 188.432 155.77C188.189 155.736 187.962 155.608 187.8 155.42C187.758 155.374 187.722 155.322 187.689 155.27L187.665 155.229L187.654 155.208L187.648 155.198L187.648 155.196C187.615 155.184 187.932 155.3 187.797 155.251L187.794 155.252L187.789 155.254L187.708 155.287C187.601 155.33 187.492 155.368 187.38 155.403C187.268 155.438 187.153 155.469 187.031 155.49C186.971 155.501 186.909 155.509 186.843 155.511C186.781 155.514 186.706 155.516 186.607 155.466C186.464 155.363 186.413 155.243 186.358 155.129C186.307 155.014 186.266 154.897 186.232 154.78C186.162 154.544 186.111 154.307 186.068 154.06L186.217 154.163C185.887 154.221 185.498 154.142 185.27 153.84C185.167 153.7 185.082 153.527 185.095 153.328C185.103 153.15 185.143 152.994 185.185 152.836C185.363 152.212 185.614 151.614 185.886 151.007L185.89 150.999L185.894 150.992C186.19 150.524 186.503 150.027 186.82 149.525C187.018 149.213 187.213 148.903 187.408 148.595C187.603 148.297 187.778 147.963 188.052 147.695C188.316 147.428 188.633 147.22 188.974 147.082C189.313 146.936 189.69 146.9 190.022 146.864C191.383 146.712 192.681 146.565 193.894 146.429L193.911 146.427L193.924 146.429C194.162 146.47 194.384 146.525 194.603 146.608C194.816 146.694 195.042 146.791 195.193 147.02L195.05 146.976C195.485 146.797 195.989 146.795 196.37 147.05C196.752 147.301 196.929 147.708 197.022 148.09L196.991 148.036C198.336 149.246 199.433 150.232 200.218 150.938C200.58 151.271 200.869 151.538 201.088 151.739C201.285 151.925 201.385 152.025 201.379 152.033C201.373 152.04 201.26 151.953 201.051 151.781C200.824 151.59 200.523 151.336 200.147 151.019C199.348 150.329 198.231 149.364 196.863 148.181L196.84 148.162L196.831 148.127C196.745 147.79 196.571 147.419 196.256 147.224C195.949 147.017 195.507 147.024 195.143 147.175L195.054 147.213L195.001 147.131C194.913 146.994 194.718 146.891 194.523 146.819C194.324 146.746 194.106 146.693 193.89 146.658L193.92 146.659C192.707 146.802 191.41 146.955 190.051 147.115C189.704 147.154 189.38 147.185 189.07 147.319C188.762 147.444 188.475 147.634 188.237 147.875C187.995 148.109 187.83 148.423 187.629 148.733C187.435 149.04 187.239 149.351 187.042 149.663C186.724 150.165 186.411 150.661 186.115 151.129L186.123 151.114C185.855 151.708 185.603 152.308 185.432 152.902C185.391 153.049 185.355 153.201 185.349 153.335C185.335 153.452 185.395 153.578 185.47 153.684C185.618 153.892 185.916 153.958 186.166 153.917L186.294 153.896L186.315 154.02C186.353 154.253 186.403 154.488 186.467 154.709C186.529 154.918 186.621 155.173 186.733 155.258C186.739 155.261 186.782 155.275 186.836 155.27C186.886 155.269 186.939 155.262 186.992 155.254C187.098 155.236 187.205 155.208 187.311 155.176C187.416 155.144 187.521 155.108 187.623 155.068L187.699 155.038L187.703 155.036L187.705 155.035C187.571 154.986 187.889 155.101 187.857 155.09L187.857 155.091L187.862 155.099L187.871 155.115L187.888 155.148C187.914 155.189 187.942 155.23 187.975 155.267C188.102 155.416 188.279 155.516 188.465 155.545C188.558 155.56 188.651 155.552 188.745 155.529C188.846 155.515 188.914 155.486 188.977 155.431C189.22 155.179 189.254 154.728 189.256 154.369L189.256 154.275L189.343 154.261C190.272 154.116 191.13 153.982 191.89 153.864L191.923 153.858L191.949 153.875C193.14 154.624 194.027 155.314 194.619 155.809C194.913 156.058 195.135 156.258 195.28 156.398C195.424 156.541 195.496 156.617 195.491 156.623Z" fill="#EB996E"/>
<path d="M218.238 164.022H214.199V164.914L223.041 251.143H227.755L218.238 164.022Z" fill="#455A64"/>
<path d="M218.237 164.022C218.237 164.022 218.247 164.179 218.276 164.477C218.307 164.781 218.352 165.22 218.41 165.794C218.532 166.955 218.711 168.655 218.941 170.845C219.411 175.231 220.089 181.574 220.931 189.434C222.633 205.142 224.991 226.905 227.619 251.158L227.754 251.006C226.379 251.006 224.901 251.006 223.415 251.006C223.287 251.006 223.159 251.006 223.039 251.006L223.174 251.129C219.012 210.54 215.452 176.204 214.239 164.909V164.914C214.237 164.5 214.236 164.255 214.235 164.022L214.197 164.06C215.572 164.05 216.576 164.043 217.245 164.038C217.573 164.034 217.818 164.031 217.988 164.029C218.153 164.027 218.237 164.022 218.237 164.022C218.237 164.022 218.162 164.017 218.001 164.014C217.833 164.012 217.591 164.009 217.266 164.005C216.593 164 215.582 163.993 214.198 163.983L214.16 163.983V164.021C214.159 164.255 214.158 164.499 214.156 164.913V164.915L214.157 164.918C215.261 176.223 218.744 210.568 222.905 251.156L222.918 251.279H223.04C223.16 251.279 223.287 251.279 223.415 251.279C224.902 251.279 226.38 251.279 227.754 251.279H227.906L227.889 251.128C225.215 226.843 222.815 205.051 221.083 189.322C220.209 181.479 219.503 175.149 219.015 170.771C218.768 168.596 218.577 166.907 218.446 165.754C218.38 165.188 218.33 164.756 218.294 164.456C218.259 164.166 218.237 164.022 218.237 164.022Z" fill="#263238"/>
<path d="M146.875 164.022H142.836V164.936L151.252 251.124H155.4L146.875 164.022Z" fill="#263238"/>
<path d="M235.111 164.914L91.1458 165.068L91.0938 161.268H235.111V164.914Z" fill="#455A64"/>
<path d="M111.395 164.022H115.435V164.936L107.019 251.124H102.871L111.395 164.022Z" fill="#455A64"/>
<path d="M111.216 165.15C111.216 165.15 111.206 165.305 111.18 165.597C111.153 165.894 111.114 166.328 111.062 166.894C110.954 168.036 110.796 169.712 110.592 171.871C110.177 176.193 109.577 182.446 108.834 190.193C107.33 205.676 105.248 227.127 102.928 251.022L102.816 250.899C104.11 250.899 105.503 250.899 106.902 250.899C106.924 250.899 106.944 250.899 106.964 250.899L106.852 251.001C110.784 211.093 114.114 177.29 115.22 166.062V166.065C115.222 165.642 115.222 165.39 115.223 165.151L115.255 165.182C113.879 165.174 112.874 165.168 112.206 165.164C111.876 165.161 111.631 165.159 111.463 165.157C111.299 165.154 111.216 165.15 111.216 165.15C111.216 165.15 111.292 165.146 111.452 165.144C111.619 165.142 111.862 165.14 112.189 165.137C112.859 165.133 113.87 165.127 115.255 165.119H115.286V165.151C115.287 165.39 115.288 165.642 115.289 166.065V166.066V166.068C114.204 177.298 110.935 211.108 107.076 251.023L107.066 251.124H106.964C106.944 251.124 106.923 251.124 106.902 251.124C105.502 251.124 104.11 251.124 102.816 251.124H102.691L102.703 251.001C105.062 227.079 107.178 205.603 108.707 190.102C109.478 182.368 110.1 176.126 110.53 171.811C110.748 169.664 110.916 167.998 111.031 166.863C111.089 166.303 111.134 165.875 111.165 165.581C111.196 165.293 111.216 165.15 111.216 165.15Z" fill="#263238"/>
<path d="M169.735 164.353H165.695V165.264L174.111 251.124H178.259L169.735 164.353Z" fill="#455A64"/>
<path d="M169.917 165.477C169.917 165.477 169.927 165.631 169.953 165.923C169.98 166.219 170.019 166.65 170.071 167.215C170.18 168.352 170.338 170.022 170.541 172.173C170.956 176.479 171.556 182.708 172.3 190.426C173.803 205.85 175.885 227.22 178.205 251.024L178.317 250.9C177.023 250.9 175.631 250.9 174.231 250.9C174.21 250.9 174.189 250.9 174.169 250.9L174.281 251.002C170.35 211.246 167.019 177.57 165.913 166.385V166.388C165.911 165.967 165.911 165.716 165.91 165.478L165.878 165.51C167.254 165.501 168.26 165.496 168.927 165.491C169.257 165.488 169.502 165.486 169.67 165.484C169.834 165.481 169.917 165.477 169.917 165.477C169.917 165.477 169.842 165.473 169.681 165.471C169.514 165.47 169.272 165.467 168.945 165.464C168.274 165.46 167.263 165.454 165.879 165.446H165.847V165.477C165.846 165.716 165.845 165.966 165.844 166.388V166.389V166.391C166.93 177.578 170.198 211.26 174.057 251.023L174.067 251.124H174.169C174.189 251.124 174.21 251.124 174.231 251.124C175.631 251.124 177.023 251.124 178.317 251.124H178.442L178.43 251.001C176.072 227.17 173.955 205.775 172.426 190.334C171.655 182.629 171.033 176.41 170.603 172.113C170.385 169.973 170.217 168.313 170.102 167.182C170.044 166.624 169.999 166.199 169.968 165.906C169.937 165.62 169.917 165.477 169.917 165.477Z" fill="#263238"/>
<path d="M234.573 164.938C234.573 164.866 205.548 164.808 169.751 164.808C133.942 164.808 104.922 164.866 104.922 164.938C104.922 165.009 133.942 165.068 169.751 165.068C205.548 165.068 234.573 165.009 234.573 164.938Z" fill="#263238"/>
<path d="M144.392 134.571L176.013 134.827C177.039 134.827 178.019 135.32 178.173 136.334L181.629 159.381H197.916C198.44 159.381 198.866 159.807 198.866 160.331C198.866 160.856 198.44 161.28 197.916 161.28H181.913H178.875H145.895L142.34 136.956C142.15 135.701 143.123 134.571 144.392 134.571Z" fill="#E0E0E0"/>
<path d="M144.391 134.571C144.391 134.571 144.219 134.549 143.893 134.617C143.576 134.691 143.078 134.886 142.685 135.418C142.489 135.679 142.34 136.026 142.294 136.428C142.243 136.835 142.359 137.264 142.411 137.728C142.543 138.659 142.696 139.732 142.867 140.937C143.562 145.769 144.565 152.733 145.798 161.294L145.81 161.378H145.895C159.356 161.385 177.046 161.396 196.363 161.408C196.816 161.408 197.269 161.408 197.721 161.408C197.93 161.417 198.222 161.405 198.44 161.271C198.664 161.147 198.838 160.94 198.926 160.7C199.115 160.218 198.889 159.626 198.435 159.387C198.218 159.256 197.929 159.245 197.722 159.253H197.053C195.271 159.254 193.508 159.254 191.767 159.254C188.286 159.256 184.895 159.257 181.627 159.258L181.749 159.363C180.505 151.109 179.345 143.41 178.304 136.502C178.268 136.065 178.07 135.592 177.719 135.298C177.376 134.993 176.941 134.832 176.51 134.765C176.07 134.697 175.652 134.733 175.235 134.72C174.818 134.717 174.404 134.714 173.993 134.712C172.351 134.701 170.763 134.69 169.233 134.679C166.172 134.66 163.342 134.642 160.772 134.626C155.638 134.599 151.545 134.578 148.728 134.564C147.327 134.561 146.246 134.559 145.505 134.558C145.144 134.56 144.867 134.561 144.673 134.562C144.486 134.564 144.391 134.571 144.391 134.571C144.391 134.571 144.486 134.579 144.673 134.584C144.867 134.588 145.144 134.593 145.505 134.601C146.245 134.612 147.327 134.628 148.727 134.648C151.545 134.679 155.637 134.725 160.771 134.782C163.341 134.807 166.171 134.835 169.232 134.865C170.762 134.88 172.35 134.895 173.992 134.911C174.403 134.915 174.816 134.918 175.234 134.922C175.65 134.936 176.078 134.904 176.478 134.967C176.88 135.031 177.278 135.183 177.581 135.454C177.892 135.724 178.056 136.101 178.095 136.533C179.126 143.442 180.274 151.143 181.506 159.399L181.522 159.504H181.628C184.896 159.505 188.287 159.506 191.768 159.508C193.509 159.508 195.272 159.508 197.054 159.509H197.723C197.959 159.502 198.135 159.511 198.312 159.611C198.659 159.794 198.832 160.245 198.687 160.613C198.62 160.795 198.487 160.954 198.315 161.048C198.137 161.149 197.96 161.159 197.721 161.152C197.269 161.152 196.816 161.152 196.363 161.152C177.046 161.164 159.356 161.175 145.895 161.183L145.992 161.266C144.723 152.71 143.691 145.751 142.975 140.922C142.794 139.718 142.633 138.646 142.493 137.716C142.437 137.25 142.318 136.823 142.364 136.435C142.404 136.047 142.544 135.708 142.731 135.451C143.106 134.928 143.59 134.727 143.9 134.645C144.219 134.569 144.392 134.583 144.391 134.571Z" fill="#263238"/>
<path d="M163.522 147.632C163.522 148.726 162.635 149.612 161.542 149.612C160.449 149.612 159.562 148.726 159.562 147.632C159.562 146.539 160.449 145.653 161.542 145.653C162.635 145.653 163.522 146.539 163.522 147.632Z" fill="white"/>
<path d="M180.347 161.068C180.303 161.075 179.296 155.206 178.099 147.962C176.902 140.714 175.969 134.835 176.013 134.827C176.058 134.82 177.064 140.687 178.261 147.935C179.458 155.18 180.392 161.06 180.347 161.068Z" fill="#263238"/>
</svg>
