<svg width="503" height="503" viewBox="0 0 503 503" fill="none" xmlns="http://www.w3.org/2000/svg">
<g clip-path="url(#clip0_198_79508)">
<path d="M503 0H0V503H503V0Z" fill="url(#paint0_linear_198_79508)"/>
<path d="M503 296.844H0V420.04H503V296.844Z" fill="#D35359"/>
<path d="M8.40234 292.408V286.96H12.5682V271.897H21.8636V286.96L29.8754 287.121V259.236H43.1757V290.165L53.7518 290.006V273.819L61.6047 273.659V292.409H83.5566L84.1984 276.544L93.4929 275.823V273.659L109.197 273.819V250.744L120.253 257.475V255.311C120.253 255.311 126.023 255.712 128.586 256.995C131.149 258.276 133.072 260.039 133.072 260.039C133.072 260.039 140.603 256.034 143.167 256.194C145.731 256.354 146.533 256.836 146.373 258.597C146.212 260.359 146.392 271.577 146.392 271.577H150.859V254.272L154.224 254.431V252.828L171.851 253.148V255.31L176.179 254.43V274.461H179.223L180.025 298.658H8.40234V292.408Z" fill="#D35359"/>
<path d="M184.246 264.168V298.782H191.617V294.493H196.905V298.782H199.149V268.175H212.769V298.782H221.423V264.168H184.246ZM191.617 278.631V272.022H196.905V278.631H191.617ZM196.905 279.511V286.121H191.617V279.511H196.905ZM191.617 293.61V287.003H196.905V293.61H191.617ZM196.905 271.139H191.617V268.176H196.905V271.139Z" fill="#D35359"/>
<path d="M225.797 298.782V242.215H243.585V249.427L247.591 249.107V230.358L253.36 226.032V222.346L256.083 223.789V234.365L268.904 251.03V267.858L270.667 267.215L271.308 259.523L277.237 255.195L282.044 258.08V254.876L288.614 255.035V240.292L300.312 240.453V247.825L308.004 247.183V255.194H312.01V259.362L326.593 259.042V244.619C326.593 244.619 336.528 242.215 340.053 249.907C343.579 257.598 346.783 289.168 346.783 289.168V298.782H225.797Z" fill="#D35359"/>
<path d="M483.804 284.092C483.885 283.02 483.885 282.422 483.885 282.422L483.723 280.162L485.499 278.953L471.621 266.123L459.922 268.059L443.138 262.815L439.991 267.011C439.991 267.011 434.665 267.575 429.663 268.786C424.661 269.996 424.016 271.852 423.773 272.82C423.532 273.789 424.5 275.08 424.5 275.08L424.102 279.129C423.579 279.581 423.059 280.149 423.951 280.671L423.324 287.063C422.475 287.22 421.765 287.348 422.4 287.83C422.768 288.104 423.004 288.225 423.205 288.273L422.157 300.287L446.887 299.842L447.112 298.819L446.901 298.216C446.901 298.216 446.81 282.018 447.112 281.615C447.415 281.212 447.899 279.883 447.961 280.79C448.021 281.695 447.324 298.397 447.324 298.397L446.934 299.847L450.012 300.273L450.139 299.75L449.896 298.457C449.896 298.457 449.896 280.656 450.017 280.479C450.139 280.304 450.501 280.224 450.501 279.75C450.501 279.275 451.287 278.488 451.287 278.972C451.287 279.455 450.986 298.338 450.865 298.519C450.759 298.676 450.287 299.34 450.288 300.31L451.046 300.414L453.906 300.206L453.528 298.457C453.528 298.457 453.467 279.577 453.528 279.215C453.588 278.852 453.803 278.428 453.724 278.124C453.648 277.822 453.95 277.398 453.95 277.398L457.096 277.944C457.096 277.944 457.883 279.396 457.58 280.121C457.3 280.797 457.437 296.963 457.214 299.968L460.336 299.738C460.174 299.327 459.98 298.956 459.94 298.639C459.881 298.154 459.457 280.484 459.578 280.181C459.699 279.878 459.677 278.991 460.052 278.709C460.425 278.427 462.545 279.093 462.545 279.093C462.545 279.093 462.422 279.759 462.545 281.21C462.664 282.662 463.271 297.487 463.089 298.214C463 298.57 462.898 299.104 462.815 299.558L465.898 299.333C465.739 299.018 465.544 298.602 465.508 298.394C465.448 298.033 464.783 280.787 464.783 280.787C464.783 280.787 464.479 279.981 465.085 279.748C465.691 279.514 466.659 279.495 466.84 279.748C467.021 279.999 467.506 280.927 467.566 281.612C467.627 282.298 467.566 283.386 467.566 283.386C467.566 283.386 468.417 297.472 468.112 298.335C468.017 298.6 467.952 298.902 467.907 299.19L470.88 298.971C470.672 298.728 470.41 298.36 470.41 298.032C470.41 297.485 469.504 281.934 469.504 281.934C469.504 281.934 469.381 280.472 469.986 280.476C470.593 280.482 471.681 280.787 471.681 280.787C471.681 280.787 471.984 281.813 471.984 282.42C471.984 283.025 472.589 297.547 472.528 297.73C472.497 297.827 472.376 298.373 472.233 298.874L475.351 298.647C475.164 298.345 474.958 297.938 474.93 297.669C474.888 297.307 473.799 282.581 473.799 282.581C473.799 282.581 473.759 281.088 474.001 281.17C474.242 281.249 475.412 281.451 475.533 281.612C475.654 281.775 475.857 282.902 475.857 283.185C475.857 283.466 476.904 297.104 476.826 297.507C476.772 297.77 476.753 298.22 476.691 298.55L479.166 298.369C478.975 298.07 478.791 297.674 478.76 297.467C478.72 297.183 477.631 283.588 477.631 283.266C477.631 282.942 477.592 282.177 477.833 282.136C478.075 282.095 478.802 282.338 478.802 282.338C478.802 282.338 478.964 283.346 479.124 283.79C479.284 284.233 480.253 297.546 480.253 297.546C480.253 297.546 480.227 297.896 480.118 298.3L482.405 298.133C482.286 297.88 482.177 297.609 482.15 297.467C482.109 297.265 480.819 284.113 480.819 283.87C480.819 283.629 480.778 282.619 481.222 282.78C481.666 282.941 481.828 283.306 481.988 283.709C482.15 284.112 482.15 284.637 482.15 284.637L483.239 297.306C483.239 297.306 483.176 297.735 483.097 298.082L485.498 297.909C485.498 297.912 483.723 285.164 483.804 284.092Z" fill="#D35359"/>
<path d="M409.674 259.844C409.551 259.654 409.452 253.747 409.606 253.365C409.758 252.982 409.606 250.834 409.606 250.834C409.606 250.834 408.877 250.757 408.761 250.719C408.647 250.68 408.571 251.678 408.571 251.678L406.309 251.64C406.309 251.64 406.232 252.215 406.117 252.231C406.003 252.249 405.771 252.061 405.389 251.408C405.163 251.026 404.998 250.748 404.802 250.49C404.767 249.308 404.745 248.337 404.774 248.266C404.852 248.074 404.774 247.123 404.774 247.123L404.009 246.578C404.009 246.578 403.97 244.968 403.242 242.86C402.512 240.75 400.29 239.293 400.29 239.293C400.29 239.293 400.137 238.832 400.024 238.45C399.911 238.067 400.058 236.456 400.024 235.843C399.987 235.229 399.982 235.267 400.02 234.884C400.058 234.501 399.636 233.657 399.331 233.235C399.023 232.814 399.099 232.468 398.985 232.238C398.869 232.008 399.176 231.855 398.985 231.664C398.793 231.472 398.755 231.971 398.639 232.123C398.525 232.276 398.792 232.276 398.792 232.276C398.792 232.276 398.946 232.852 398.524 233.273C398.101 233.695 397.987 235.113 397.872 235.19C397.756 235.266 398.105 235.573 398.105 235.573L398.063 238.028C398.063 238.028 398.408 238.91 397.144 239.906C396.882 240.111 396.629 240.426 396.392 240.794C396.192 240.399 395.968 240.031 395.84 239.829C395.57 239.407 395.341 238.488 395.378 238.142C395.416 237.797 395.532 237.031 395.57 236.494C395.609 235.957 395.264 235.229 394.765 234.922C394.266 234.615 394.497 234.461 394.343 233.493C394.19 232.523 393.039 229.324 391.85 227.637C390.661 225.95 388.246 224.301 388.023 223.458C387.804 222.615 387.939 222.729 388.015 222.308C388.093 221.886 387.631 221.465 387.631 221.465C387.631 221.465 387.44 218.934 387.708 218.551C387.978 218.167 387.785 218.129 387.708 217.899C387.631 217.668 387.401 216.595 387.172 215.867C387.007 215.342 386.643 214.92 386.367 214.794V213.651H386.732V213.367H386.367V213.02H386.019V213.367H385.572V213.651H386.019V214.88C385.763 215.204 385.317 216.143 385.177 216.557C385.023 217.017 384.91 218.014 384.679 218.245C384.449 218.475 384.759 218.819 384.759 218.819C384.759 218.819 384.948 221.657 384.759 221.81C384.573 221.964 384.718 222.385 384.756 222.616C384.795 222.846 384.565 223.382 384.412 223.766C384.258 224.15 383.95 224.687 381.419 226.834C378.887 228.981 378.16 234.272 378.16 234.272C378.16 234.272 378.084 234.618 377.471 235.384C376.857 236.15 377.057 237.262 377.057 237.262C377.057 237.262 377.202 238.643 377.057 239.218C376.909 239.793 376.549 240.061 376.32 241.021C376.09 241.979 376.933 242.899 377.01 243.324C377.086 243.749 377.086 245.583 376.857 245.352C376.626 245.123 376.013 243.474 375.822 242.937C375.63 242.401 374.366 240.867 373.904 240.254C373.444 239.64 373.33 239.332 373.33 239.219C373.33 239.104 373.484 236.649 373.33 235.538C373.178 234.426 372.946 233.852 372.716 233.62C372.487 233.39 372.716 233.16 372.716 233.16V232.738C372.716 232.738 372.642 232.354 372.411 232.162C372.183 231.972 372.102 232.546 372.102 232.546L372.41 232.891C372.41 232.891 372.449 233.35 372.142 233.696C371.835 234.041 371.411 235.267 371.299 235.574C371.185 235.881 371.299 236.265 371.299 236.265C371.299 236.265 371.259 239.064 371.298 239.447C371.335 239.831 370.53 240.368 368.881 242.246C367.232 244.126 367.387 247.461 367.387 247.461C367.387 247.461 367.119 247.001 366.85 247.124C366.582 247.248 366.696 247.844 366.62 248.19C366.542 248.534 366.429 251.218 366.429 251.218C366.429 251.218 366.429 251.218 366.045 251.333C365.661 251.449 365.316 252.215 365.316 252.215C365.316 252.215 362.862 252.254 362.747 252.215C362.747 252.215 362.555 253.289 362.363 253.558C362.172 253.826 362.517 254.209 362.554 254.516C362.594 254.823 362.018 265.443 362.057 265.329C362.095 265.214 410.1 265.674 410.1 265.674C410.1 265.674 409.796 260.036 409.674 259.844Z" fill="#D35359"/>
<path d="M426.088 298.452C426.171 297.59 426.214 290.51 426.214 289.63C426.214 271.462 408.364 256.733 386.347 256.733C364.328 256.733 346.477 271.463 346.477 289.63C346.477 290.51 346.521 297.589 346.604 298.452H426.088Z" fill="#D35359"/>
<path d="M503 348.747H0V503H503V348.747Z" fill="#692C33"/>
<path d="M223.305 313.79C223.305 313.79 223.181 312.105 223.301 311.382C223.421 310.66 221.133 306.925 221.494 306.324C221.856 305.721 221.494 305.239 221.494 305.239L215.834 291.267H214.629V289.7L169.424 302.226V303.551L168.374 304.275C168.374 304.275 169.217 305.359 169.392 306.444C169.566 307.527 168.977 309.461 168.977 309.461L166.207 310.057L167.128 312.226L169.392 313.549C169.392 313.549 169.218 314.633 169.339 315.356C169.458 316.081 169.339 316.802 169.339 316.802L168.857 327.885H167.771L168.857 329.451V351.613C168.857 351.613 181.945 352.816 189.213 352.514V325.543C189.213 323.106 191.187 321.132 193.623 321.132C196.059 321.132 198.033 323.106 198.033 325.543C198.033 325.722 198.02 325.898 198 326.072L198.005 326.077C198.005 326.077 198.246 349.566 197.523 349.929L197.282 352.095L222.217 351.613C222.217 351.613 221.614 332.341 221.494 330.654C221.373 328.968 222.096 329.33 222.337 328.608C222.577 327.885 221.372 326.44 221.372 326.44C221.372 326.44 221.011 319.452 221.132 318.609C221.252 317.766 221.011 315.236 221.372 314.394C221.735 313.55 223.305 313.79 223.305 313.79Z" fill="#692C33"/>
<path d="M276.042 326.961L276.781 322.512L276.255 318.17H272.474C272.177 317.253 271.895 316.331 271.649 315.407C270.111 309.63 268.495 302.027 267.004 293.632L268.621 290.932V288.826H266.177C263.332 271.705 261.121 252.241 261.121 238.43C261.121 216.323 260.068 203.427 260.068 203.427H261.911L261.779 199.611L260.333 198.953L260.728 197.9L260.594 195.4L257.436 192.637C257.436 192.637 257.7 191.585 257.436 190.926C257.175 190.269 257.436 185.136 257.436 185.136C257.436 185.136 256.253 183.82 256.385 185.136C256.517 186.453 256.122 192.505 256.122 192.505C256.122 192.505 254.936 193.294 254.41 194.347C253.884 195.399 253.357 194.873 252.99 196.848C252.742 198.167 254.279 198.951 253.884 199.479C253.489 200.006 252.464 200.138 252.464 200.138V202.9L253.489 204.085C253.489 204.085 254.464 215.927 252.464 241.456C251.283 256.512 250.113 273.444 247.676 288.826H246.383C246.383 288.826 244.672 290.143 244.672 290.537C244.672 290.932 244.672 292.115 244.672 292.115L246.67 294.666C245.092 303.128 243.06 310.956 240.329 317.513C240.238 317.733 240.146 317.952 240.055 318.169H238.357L235.988 320.933C235.988 320.933 235.753 325.689 234.556 330.48C228.23 343.863 222.566 353.566 222.566 353.566L235.96 354.489C235.96 354.489 236.777 332.512 256.385 334.355C275.99 336.197 275.99 355.934 275.99 355.934H287.965L293.049 352.942C293.05 352.944 282.579 340.515 276.042 326.961ZM249.278 318.17C249.278 318.17 250.2 315.672 251.122 310.933C252.041 306.197 253.114 300.013 253.114 300.013H260.201C260.201 300.013 260.333 302.381 260.989 306.461C261.646 310.54 263.227 318.171 263.227 318.171H249.278V318.17Z" fill="#692C33"/>
<path d="M330.206 325.868V350.537H287.211V325.868H296.393L296.478 324.519C296.478 324.519 295.875 323.73 296.061 323.637C296.246 323.544 296.664 323.219 296.664 323.219V316.854C296.664 316.854 296.061 316.389 296.34 316.25C296.618 316.11 296.267 315.181 296.466 315.134C296.664 315.088 295.597 314.484 295.597 314.484C295.597 314.484 296.573 313.835 296.664 313.787C296.758 313.741 296.433 312.933 296.433 312.933C296.433 312.933 297.455 312.161 297.594 312.207C297.734 312.253 297.594 311.277 297.966 311.094C298.337 310.907 297.966 310.21 297.966 310.21L297.687 309.42C297.687 309.42 298.064 309.041 298.13 308.698C298.198 308.351 298.065 308.12 298.13 307.841C298.198 307.563 298.198 305.983 298.386 306.122C298.57 306.261 298.477 307.934 298.757 307.61C299.034 307.285 299.547 301.198 302.984 298.364C306.421 295.531 306.189 296.228 305.818 295.576C305.446 294.926 305.538 294.276 305.492 293.764C305.446 293.254 305.398 292.834 305.725 292.604C306.05 292.372 306.019 292.186 306.019 292.186L306.021 289.258C306.021 289.258 305.725 288.701 305.725 288.422C305.725 288.143 305.899 288.051 306.021 287.818C306.143 287.585 305.527 285.867 306.021 285.912C306.516 285.958 306.33 287.399 306.655 287.539C306.98 287.679 307.538 287.306 307.584 286.795C307.631 286.284 307.723 285.541 307.909 285.217C308.096 284.891 308.42 277.968 308.42 277.968C308.42 277.968 307.816 277.179 308.607 276.808C309.396 276.437 309.35 277.505 309.119 277.737C308.886 277.968 309.35 284.938 309.535 285.263C309.721 285.588 310.001 286.239 309.955 286.564C309.907 286.888 310.418 287.54 310.698 287.631C310.976 287.726 310.976 286.702 311.115 286.377C311.254 286.052 311.533 286.238 311.487 286.656C311.439 287.074 311.263 287.957 311.493 288.004C311.72 288.05 311.404 288.467 311.493 288.653C311.58 288.84 311.805 289.257 311.576 289.583C311.347 289.908 311.394 292.323 311.394 292.323C311.394 292.323 312.23 293.021 312.136 293.532C312.043 294.043 312.617 294.785 312.145 295.205C311.673 295.622 311.439 295.716 311.812 296.179C312.183 296.644 314.553 297.109 316.364 300.083C318.176 303.055 318.501 306.586 318.549 306.865C318.595 307.144 318.688 307.887 318.779 307.703C318.873 307.516 318.873 306.122 319.104 306.308C319.338 306.494 319.338 307.748 319.383 308.027C319.43 308.306 318.964 308.956 319.383 309.328C319.8 309.699 319.895 310.025 319.662 310.304C319.43 310.582 319.399 310.953 319.786 311.278C320.174 311.604 320.033 312.069 320.126 312.208C320.22 312.349 321.101 312.869 321.101 312.934C321.101 312.999 321.101 313.788 321.101 313.788L321.939 314.485L321.242 315.228V325.868H330.206ZM306.072 307.185C305.521 307.185 305.073 307.632 305.073 308.183V311.094H307.071V308.183C307.071 307.632 306.625 307.185 306.072 307.185ZM311.693 307.185C311.142 307.185 310.694 307.632 310.694 308.183V311.094H312.693V308.183C312.693 307.632 312.245 307.185 311.693 307.185ZM316.454 308.416C316.044 308.416 315.711 308.748 315.711 309.159V311.326H317.198V309.159C317.199 308.748 316.866 308.416 316.454 308.416ZM307.605 288.764C307.31 288.764 307.071 289.096 307.071 289.508V291.672H308.141V289.508C308.141 289.096 307.899 288.764 307.605 288.764ZM309.927 288.764C309.632 288.764 309.395 289.096 309.395 289.508V291.672H310.463V289.508C310.462 289.096 310.223 288.764 309.927 288.764ZM301.356 308.416C300.948 308.416 300.613 308.748 300.613 309.159V311.326H302.102V309.159C302.101 308.748 301.767 308.416 301.356 308.416ZM315.664 323.359L308.823 320.267L301.982 323.359H315.664ZM310.694 330.698C310.694 330.698 309.838 330.142 308.837 330.142C307.835 330.142 307.071 330.698 307.071 330.698V334.834H310.694V330.698ZM325.188 330.641C325.188 330.641 324.542 330.188 323.784 330.188C323.026 330.188 322.448 330.641 322.448 330.641V334.462H325.188V330.641ZM295.038 330.641C295.038 330.641 294.39 330.188 293.632 330.188C292.875 330.188 292.297 330.641 292.297 330.641V334.462H295.039V330.641H295.038Z" fill="#692C33"/>
<path d="M482.316 349.433V338.829V337.266L481.758 338.271L480.754 337.266V331.909H479.414V335.481L478.856 332.401H477.852V333.137L474.39 333.248V331.909H472.827V333.137C472.046 333.248 472.046 332.401 472.046 332.401H470.707V335.481C470.707 335.481 469.927 336.039 469.592 336.709C469.257 337.378 469.257 337.378 469.257 337.378L452.401 336.151V333.695L450.825 331.91L450.281 333.249L449.053 333.36V328.114L447.601 326.998C447.601 326.998 448.606 326.217 447.601 325.994C446.597 325.771 446.152 326.663 446.152 326.663L445.593 322.98L440.793 322.421L434.319 322.98V325.213L432.31 329.677L429.742 329.788L426.616 329.565L422.934 329.341L419.809 328.896C419.809 328.896 419.363 326.551 418.805 326.662C418.246 326.774 418.58 327.332 418.246 327.891C417.911 328.449 418.246 330.904 418.246 330.904L415.009 330.68V328.002L411.213 328.226V330.235L406.414 329.676C406.414 329.676 407.195 322.979 406.414 322.979C405.633 322.979 404.851 321.64 404.851 321.64C404.851 321.64 404.405 319.296 403.401 317.621C402.396 315.947 401.726 315.277 401.726 315.277V310.478L399.718 309.696L398.602 310.478V313.045L397.374 312.71V308.245L396.145 308.803L393.243 308.245L392.461 307.2L391.457 308.469L389.002 308.022L388.444 307.201L387.215 308.022H386.1L385.43 307.201C384.76 307.687 384.76 308.915 384.76 308.915H384.038L383.643 307.201C383.643 307.201 381.969 307.496 381.299 307.201C380.629 306.905 380.295 307.687 380.295 307.687V312.933C380.295 312.933 377.749 313.493 376.12 316.171C374.491 318.85 373.933 322.309 373.933 322.309L369.516 322.254V362.269L482.316 349.433Z" fill="#692C33"/>
<path d="M89.4039 314.842C87.7672 312.661 75.4558 305.353 75.4558 305.353C75.4558 305.353 57.4604 313.75 57.6777 316.914C57.8648 319.628 59.6606 320.575 61.6142 321.271C61.4291 322.902 61.2903 324.5 61.3869 324.983C61.6042 326.075 62.4774 326.183 62.1504 327.164C61.8235 328.147 59.0972 345.051 58.6596 349.741C58.224 354.43 87.562 351.595 87.3437 348.759C87.1254 345.924 85.9252 325.092 86.1445 324.656C86.3628 324.219 86.7974 323.108 86.7984 321.869C86.7984 321.565 86.7853 321.126 86.7662 320.635C86.9966 320.594 87.1918 320.552 87.3437 320.509C90.9421 319.532 91.0407 317.023 89.4039 314.842Z" fill="#692C33"/>
<path d="M71.3322 308.716C71.3322 310.191 70.136 311.387 68.6602 311.387C67.1844 311.387 65.9883 310.19 65.9883 308.716C65.9883 307.239 67.1844 306.042 68.6602 306.042C70.135 306.042 71.3322 307.239 71.3322 308.716Z" fill="#D35359"/>
<path d="M68.0696 309.066L49.0985 327.706C49.0985 327.706 53.8911 333.385 54.0862 333.086C54.2814 332.789 69.5817 310.053 69.5817 310.053L86.8466 331.951L92.3837 326.075L70.6681 308.777L91.7348 289.1L85.8628 283.99L69.2386 307.278L53.4203 287.456L48.7695 293.279L68.0696 309.066Z" stroke="#692C33" stroke-width="1.1784" stroke-miterlimit="10" stroke-linecap="round" stroke-linejoin="round"/>
<path d="M51.1289 290.327L69.2681 308.645" stroke="#692C33" stroke-width="1.1784" stroke-miterlimit="10" stroke-linecap="round" stroke-linejoin="round"/>
<path d="M69.2656 308.645L88.6693 286.433" stroke="#692C33" stroke-width="1.1784" stroke-miterlimit="10" stroke-linecap="round" stroke-linejoin="round"/>
<path d="M69.2656 308.645L89.7196 328.901" stroke="#692C33" stroke-width="1.1784" stroke-miterlimit="10" stroke-linecap="round" stroke-linejoin="round"/>
<path d="M69.2674 308.645L51.5195 330.507" stroke="#692C33" stroke-width="1.1784" stroke-miterlimit="10" stroke-linecap="round" stroke-linejoin="round"/>
<path d="M51.4805 295.496L55.759 290.39" stroke="#692C33" stroke-width="1.1784" stroke-miterlimit="10" stroke-linecap="round" stroke-linejoin="round"/>
<path d="M54.1836 297.708L57.9571 293.145" stroke="#692C33" stroke-width="1.1784" stroke-miterlimit="10" stroke-linecap="round" stroke-linejoin="round"/>
<path d="M56.9531 299.971L60.0979 296.182" stroke="#692C33" stroke-width="1.1784" stroke-miterlimit="10" stroke-linecap="round" stroke-linejoin="round"/>
<path d="M59.5977 302.137L62.34 298.638" stroke="#692C33" stroke-width="1.1784" stroke-miterlimit="10" stroke-linecap="round" stroke-linejoin="round"/>
<path d="M62.6211 304.61L64.8222 301.745" stroke="#692C33" stroke-width="1.1784" stroke-miterlimit="10" stroke-linecap="round" stroke-linejoin="round"/>
<path d="M73.9023 300.737L76.536 303.292" stroke="#692C33" stroke-width="1.1784" stroke-miterlimit="10" stroke-linecap="round" stroke-linejoin="round"/>
<path d="M76.207 297.511L79.4192 300.602" stroke="#692C33" stroke-width="1.1784" stroke-miterlimit="10" stroke-linecap="round" stroke-linejoin="round"/>
<path d="M78.5508 294.231L82.5114 297.714" stroke="#692C33" stroke-width="1.1784" stroke-miterlimit="10" stroke-linecap="round" stroke-linejoin="round"/>
<path d="M80.9883 290.817L85.4992 294.924" stroke="#692C33" stroke-width="1.1784" stroke-miterlimit="10" stroke-linecap="round" stroke-linejoin="round"/>
<path d="M83.4258 287.404L88.5262 292.095" stroke="#692C33" stroke-width="1.1784" stroke-miterlimit="10" stroke-linecap="round" stroke-linejoin="round"/>
<path d="M51.8711 324.982L56.3579 329.706" stroke="#692C33" stroke-width="1.1784" stroke-miterlimit="10" stroke-linecap="round" stroke-linejoin="round"/>
<path d="M54.5352 322.361L58.5169 326.49" stroke="#692C33" stroke-width="1.1784" stroke-miterlimit="10" stroke-linecap="round" stroke-linejoin="round"/>
<path d="M57.1914 319.752L60.7285 323.206" stroke="#692C33" stroke-width="1.1784" stroke-miterlimit="10" stroke-linecap="round" stroke-linejoin="round"/>
<path d="M60.082 316.914L62.935 319.928" stroke="#692C33" stroke-width="1.1784" stroke-miterlimit="10" stroke-linecap="round" stroke-linejoin="round"/>
<path d="M62.7383 314.305L64.9615 316.529" stroke="#692C33" stroke-width="1.1784" stroke-miterlimit="10" stroke-linecap="round" stroke-linejoin="round"/>
<path d="M74.3867 316.151L76.6321 313.531" stroke="#692C33" stroke-width="1.1784" stroke-miterlimit="10" stroke-linecap="round" stroke-linejoin="round"/>
<path d="M76.8945 319.333L79.6902 315.967" stroke="#692C33" stroke-width="1.1784" stroke-miterlimit="10" stroke-linecap="round" stroke-linejoin="round"/>
<path d="M79.418 322.535L82.9712 318.582" stroke="#692C33" stroke-width="1.1784" stroke-miterlimit="10" stroke-linecap="round" stroke-linejoin="round"/>
<path d="M81.8984 325.675L85.9244 320.932" stroke="#692C33" stroke-width="1.1784" stroke-miterlimit="10" stroke-linecap="round" stroke-linejoin="round"/>
<path d="M84.375 328.821L89.1102 323.47" stroke="#692C33" stroke-width="1.1784" stroke-miterlimit="10" stroke-linecap="round" stroke-linejoin="round"/>
<path d="M364.641 318.268L404.996 353.847L352.105 357.667L364.641 318.268Z" fill="#D35359"/>
<path d="M363.375 322.259L399.85 354.219" stroke="#692C33" stroke-width="0.911352" stroke-miterlimit="10" stroke-linecap="round" stroke-linejoin="round"/>
<path d="M362.191 325.96L394.601 354.598" stroke="#692C33" stroke-width="0.911352" stroke-miterlimit="10" stroke-linecap="round" stroke-linejoin="round"/>
<path d="M360.953 329.854L388.999 355.002" stroke="#692C33" stroke-width="0.911352" stroke-miterlimit="10" stroke-linecap="round" stroke-linejoin="round"/>
<path d="M359.648 333.954L383.631 355.391" stroke="#692C33" stroke-width="0.911352" stroke-miterlimit="10" stroke-linecap="round" stroke-linejoin="round"/>
<path d="M358.285 338.24L378.83 355.737" stroke="#692C33" stroke-width="0.911352" stroke-miterlimit="10" stroke-linecap="round" stroke-linejoin="round"/>
<path d="M356.953 342.428L374.061 356.081" stroke="#692C33" stroke-width="0.911352" stroke-miterlimit="10" stroke-linecap="round" stroke-linejoin="round"/>
<path d="M355.508 346.989L367.134 356.582" stroke="#692C33" stroke-width="0.911352" stroke-miterlimit="10" stroke-linecap="round" stroke-linejoin="round"/>
<path d="M353.977 351.786L360.255 357.078" stroke="#692C33" stroke-width="0.911352" stroke-miterlimit="10" stroke-linecap="round" stroke-linejoin="round"/>
<path d="M369.17 322.259L359.141 357.159" stroke="#692C33" stroke-width="0.911352" stroke-miterlimit="10" stroke-linecap="round" stroke-linejoin="round"/>
<path d="M373.371 325.966L365.652 356.582" stroke="#692C33" stroke-width="0.911352" stroke-miterlimit="10" stroke-linecap="round" stroke-linejoin="round"/>
<path d="M377.78 329.854L371.641 356.256" stroke="#692C33" stroke-width="0.911352" stroke-miterlimit="10" stroke-linecap="round" stroke-linejoin="round"/>
<path d="M381.607 333.954L377.176 355.856" stroke="#692C33" stroke-width="0.911352" stroke-miterlimit="10" stroke-linecap="round" stroke-linejoin="round"/>
<path d="M386.47 337.513L383.633 355.391" stroke="#692C33" stroke-width="0.911352" stroke-miterlimit="10" stroke-linecap="round" stroke-linejoin="round"/>
<path d="M391.063 341.561L389.004 355.002" stroke="#692C33" stroke-width="0.911352" stroke-miterlimit="10" stroke-linecap="round" stroke-linejoin="round"/>
<path d="M394.857 344.906L394.605 354.598" stroke="#692C33" stroke-width="0.911352" stroke-miterlimit="10" stroke-linecap="round" stroke-linejoin="round"/>
<path d="M399.786 349.255L399.023 354.219" stroke="#692C33" stroke-width="0.911352" stroke-miterlimit="10" stroke-linecap="round" stroke-linejoin="round"/>
<path d="M364.642 318.268L326.438 351.101L352.107 357.667L364.642 318.268Z" fill="#692C33"/>
<path d="M152.504 319.141L150.706 318.693C150.706 318.693 150.818 315.769 150.706 314.527C150.593 313.283 150.032 303.063 150.143 301.377C150.256 299.691 150.706 297.781 150.706 297.781L148.344 296.993C148.344 296.993 148.344 283.952 148.344 282.153C148.344 280.354 146.769 278.891 146.096 278.33C145.421 277.768 146.096 275.406 146.096 275.406H131.367C131.367 275.406 130.581 277.656 130.355 279.23C130.13 280.804 129.006 284.177 128.781 285.19C128.556 286.201 128.781 297.782 128.781 297.782H117.875C117.875 297.782 117.875 283.166 117.875 282.266C117.875 281.365 117.538 280.578 117.312 279.903C117.087 279.23 116.076 277.431 116.076 277.431L115.177 275.406H99.5494C99.5494 275.406 99.0998 277.431 99.3241 278.105C99.5494 278.781 99.2124 279.903 99.0998 280.354C98.9871 280.804 98.7628 296.432 98.7628 296.882C98.7628 297.331 98.0887 297.895 97.638 298.006C97.1884 298.118 97.7507 302.166 97.7507 302.166C97.7507 302.166 98.0877 317.568 98.0877 318.131C98.0877 318.694 97.3 320.83 97.3 320.83L96.625 351.86H154.416L152.504 319.141ZM106.209 325.59H103.509V320.148C103.509 319.212 104.859 318.452 104.859 318.452C104.859 318.452 106.208 319.212 106.208 320.148L106.209 325.59ZM106.52 297.894H103.598V285.807C103.598 283.725 105.059 282.039 105.059 282.039C105.059 282.039 106.521 283.725 106.521 285.807L106.52 297.894ZM111.606 325.59H108.907V320.148C108.907 319.212 110.256 318.452 110.256 318.452C110.256 318.452 111.605 319.212 111.605 320.148L111.606 325.59ZM112.028 297.894H109.105V285.807C109.105 283.725 110.566 282.039 110.566 282.039C110.566 282.039 112.028 283.725 112.028 285.807V297.894ZM117.979 303.605V303.106H118.034C118.171 302.414 118.532 301.908 118.532 301.908C118.532 301.908 118.894 302.414 119.031 303.106H119.507C119.643 302.414 120.005 301.908 120.005 301.908C120.005 301.908 120.368 302.414 120.503 303.106H120.98C121.117 302.414 121.479 301.908 121.479 301.908C121.479 301.908 121.84 302.414 121.977 303.106H122.454C122.59 302.414 122.952 301.908 122.952 301.908C122.952 301.908 123.314 302.414 123.45 303.106H123.927C124.063 302.414 124.425 301.908 124.425 301.908C124.425 301.908 124.786 302.414 124.923 303.106H125.4C125.536 302.414 125.899 301.908 125.899 301.908C125.899 301.908 126.26 302.414 126.397 303.106H126.874C127.01 302.414 127.372 301.908 127.372 301.908C127.372 301.908 127.734 302.414 127.87 303.106H128.347C128.483 302.414 128.845 301.908 128.845 301.908C128.845 301.908 129.397 302.667 129.397 303.605V309.047H129.343H128.292H127.925H126.819H126.451H125.346H124.979H123.874H123.506H122.402H122.034H120.928H120.561H119.456H119.088H117.982V303.605H117.979ZM123.87 324.939C120.42 324.939 117.622 322.142 117.622 318.691C117.622 315.239 120.42 312.442 123.87 312.442C127.322 312.442 130.12 315.239 130.12 318.691C130.12 322.142 127.322 324.939 123.87 324.939ZM134.566 285.808C134.566 283.726 135.885 282.04 135.885 282.04C135.885 282.04 137.204 283.726 137.204 285.808V297.895H134.566V285.808ZM138.432 325.59H135.734V320.148C135.734 319.212 137.082 318.452 137.082 318.452C137.082 318.452 138.431 319.212 138.431 320.148V325.59H138.432ZM139.535 285.808C139.535 283.726 140.854 282.04 140.854 282.04C140.854 282.04 142.173 283.726 142.173 285.808V297.895H139.535V285.808ZM143.831 325.59H141.132V320.148C141.132 319.212 142.481 318.452 142.481 318.452C142.481 318.452 143.831 319.212 143.831 320.148V325.59Z" fill="#692C33"/>
</g>
<defs>
<linearGradient id="paint0_linear_198_79508" x1="251.5" y1="0" x2="251.5" y2="503" gradientUnits="userSpaceOnUse">
<stop stop-color="#FF6477"/>
<stop offset="1" stop-color="#FFE0E0"/>
</linearGradient>
<clipPath id="clip0_198_79508">
<rect width="503" height="503" fill="white"/>
</clipPath>
</defs>
</svg>
