<svg width="503" height="503" viewBox="0 0 503 503" fill="none" xmlns="http://www.w3.org/2000/svg">
<g clip-path="url(#clip0_198_79398)">
<path d="M503 0H0V503H503V0Z" fill="url(#paint0_linear_198_79398)"/>
<path d="M476.294 347.105C475.532 336.376 467.196 327.746 456.6 326.529C456.601 326.477 456.608 326.428 456.608 326.377C456.608 321.944 453.015 318.352 448.583 318.352C448.012 318.352 447.455 318.413 446.917 318.527C445.661 310.871 441.15 304.315 434.852 300.318C436.36 295.291 437.181 289.966 437.181 284.448C437.181 253.987 412.488 229.294 382.027 229.294C378.766 229.294 375.576 229.593 372.469 230.136C367.708 222.8 359.449 217.943 350.052 217.943C346.002 217.943 342.166 218.848 338.727 220.461C334.37 211.625 325.276 205.544 314.759 205.544C307.537 205.544 300.99 208.415 296.181 213.071C287.18 194.842 268.413 182.299 246.707 182.299C223.172 182.299 203.092 197.046 195.172 217.8C192.544 216.936 189.74 216.462 186.824 216.462C178.54 216.462 171.138 220.234 166.238 226.152C164.837 224.957 163.023 224.231 161.037 224.231C156.894 224.231 153.487 227.371 153.059 231.4C148.261 230.038 143.204 229.293 137.968 229.293C110.038 229.293 86.9713 250.059 83.3296 276.993C82.4121 276.628 81.4152 276.422 80.3679 276.422C75.9355 276.422 72.3431 280.015 72.3431 284.447C72.3431 285.861 72.7123 287.189 73.3541 288.343C61.3736 292.309 52.7271 303.593 52.7271 316.903C52.7271 318.533 52.8609 320.131 53.1104 321.691C52.1587 323.01 51.5923 324.624 51.5923 326.376C51.5923 326.427 51.5993 326.477 51.6004 326.528C41.0042 327.745 32.6684 336.375 31.9059 347.104C26.3467 348.698 22.2734 353.808 22.2734 359.879C22.2734 362.81 23.2322 365.51 24.8387 367.708H65.9107H69.2144H95.0203H100.469H124.41H383.79H407.73H413.18H438.986H442.29H481.032H483.362C484.967 365.51 485.927 362.81 485.927 359.879C485.927 353.809 481.854 348.699 476.294 347.105Z" fill="#FF6477"/>
<path d="M433.335 350.256V348.558H428.93V345.693H426.118V342.403H425.694V328.289H418.796V342.403H417.31V345.693H416.355V333.118H410.413V318.049H409.706V266.952H410.484V263.627H389.826V266.952H390.463V318.049H387.279V258.728H384.307V248.488H375.952L371.998 244.309V230.448H370.831V243.076V248.488V253.688V256.023V258.729H367.541V290.935H357.141V338.477H345.892V277.989H330.611V258.675H329.656V256.022H315.754V258.675H314.268V313.486H303.922V319.897H298.35V280.164H292.408V238.937H290.073V236.709L277.869 232.888V238.937H275.004V294.119H271.82V318.049H268.848V249.549H252.082V300.698H247.414V303.458H240.622V296.242H233.264V278.467H227.392V274.912L211.828 271.692V278.467H208.644V316.334H198.281V266.422H194.036V258.675L179.604 261.434V266.422H175.36V318.315H169.842V261.434H168.463V260.657H167.401V255.28H151.483V284.498H144.409V276.575H142.464V274.912H140.872V272.789H128.666V274.912H127.552V276.575H126.296V346.896H110.591V284.498H109.387V282.093H108.052V281.146H103.224V282.093H102.216V280.854H98.5548V277.989H96.9362V280.854H96.6706V282.093H95.5207V284.498H93.1858V333.118H86.6418V345.693H85.6871V342.403H84.2012V328.289H77.3031V342.403H76.8786V345.693H74.0668V348.558H69.6625V350.256H63.5078V368.933H412.746H421.58H439.488V350.256H433.335Z" fill="#A3404C"/>
<path d="M503 369.336H0V503H503V369.336Z" fill="#692C33"/>
<path d="M253.857 121.951H252.176V145.539H253.857V121.951Z" fill="#692C33"/>
<path d="M458.057 250.458V232.029H455.627V220.246H454.374V207.828H449.703V201.551H447.273V220.246H442.261V232.029H438.464V227.777H436.945V216.03H433.907V227.777H426.92V232.029H424.034V250.458H418.263V315.667H412.795V292.985H376.343V244.18H372.596V220.246H370.774V203.526H369.66V196.387H367.229V203.526H365.71V215.457H359.23V203.526H358.116V196.387H355.686V203.526H354.167V220.246H351.332V244.18H345.054V286.809H339.383V292.985H329.258V322.552H323.79V308.578H305.565V279.012H301.413V273.341H299.489V269.697H298.376V261.798H297.709V253.538H296.388V261.798H294.932V269.697H291.794V273.341H282.174V279.012H277.213V327.413H263.521C259.405 283.368 259.025 234.623 258.99 227.068H263.758V223.765L266.723 220.246V216.03L261.67 211.411H263.758V208.107H259.518V204.804H257.822V201.551H255.847V176.48L258.404 173.972V172.719V171.352L255.847 168.884V150.62H254.543V144.013H251.481V150.62H250.177V168.884L247.545 171.467V172.72V174.087L250.101 176.555H250.177V201.552H248.203V204.805H246.506V208.108H242.266V211.412H244.506L239.301 216.031V220.247L242.266 223.766V227.069H246.56C246.526 234.506 246.156 281.85 242.22 325.337H233.47V303.416H220.306V336.374H216.458V329.236H207.834C204.674 314.673 183.614 303.416 158.085 303.416C132.556 303.416 111.496 314.674 108.336 329.236H102.041V335.513H100.421V315.667H98.6999V299.061L81.4862 306.705V315.667H76.5246V335.513H73.0821V296.226H70.6516V276.987H51.8203V296.226H40.0742V354.311V370.243V371.357H76.5266H100.423H296.656H356.701H407.835H418.264H440.591H462.918V354.31V250.458H458.057ZM76.5266 349.511H73.0841V339.562H76.5266V349.511ZM102.043 349.511H100.423V339.562H102.043V349.511ZM359.232 220.246V218.559H365.712V220.246H359.232Z" fill="#692C33"/>
<path d="M484.263 371.086H18.7368C17.1865 371.086 15.918 369.818 15.918 368.268C15.918 366.717 17.1865 365.449 18.7368 365.449H484.263C485.814 365.449 487.082 366.717 487.082 368.268C487.082 369.818 485.814 371.086 484.263 371.086Z" fill="#692C33"/>
</g>
<defs>
<linearGradient id="paint0_linear_198_79398" x1="251.5" y1="0" x2="251.5" y2="503" gradientUnits="userSpaceOnUse">
<stop stop-color="#FF6477"/>
<stop offset="1" stop-color="#FFE0E0"/>
</linearGradient>
<clipPath id="clip0_198_79398">
<rect width="503" height="503" fill="white"/>
</clipPath>
</defs>
</svg>
