<svg width="503" height="503" viewBox="0 0 503 503" fill="none" xmlns="http://www.w3.org/2000/svg">
<g clip-path="url(#clip0_198_79130)">
<path d="M503 -12H0V491H503V-12Z" fill="#F0AE76"/>
<g filter="url(#filter0_d_198_79130)">
<path d="M503 -12H0V491H503V-12Z" fill="url(#paint0_linear_198_79130)"/>
</g>
<path d="M494.012 276.142V309.404H484.074V322.449H469.864V330.178H462.771V300.178H458.382V296.359H442.553V300.178H436.067V285.368H427.857V280.373L419.251 279.485V272.626L408.519 273.9V278.377L395.984 277.083V285.368H387.772V298.062H377.605V330.178H365.026V318.513H346.038V309.522L341.498 310.06V305.066L330.765 306.339V311.334L326.225 311.873V318.513H316.731V325.565H302.733V320.809H265.583V313.453H256.09V306.525L251.549 305.963V300.753L240.817 299.424V304.635L236.276 304.074V313.453H217.288V325.621H204.709V292.118H194.542V278.877H186.33V270.233L173.796 271.583V266.912L163.064 265.584V272.739L154.457 273.666V278.877H146.247V294.326H139.762V290.341H123.933V294.326H119.543V325.621H112.45V317.559H98.2403V303.95H88.303V269.252L64.155 265.635V303.95H55.4873V292.118H45.5732V287.02L34.8401 285.692V292.118H31.3393V303.521H23.4895V294.326H0.421875V375.238H278.502H303.812H503V274.852L494.012 276.142Z" fill="#FF6477"/>
<path d="M503 307.576V306.024C492.306 301.753 485.006 298.116 482.352 296.742C482.02 295.987 481.333 295.417 480.476 295.274L476.235 294.567C476.025 294.376 475.724 294.329 475.466 294.439L461.013 292.03C459.485 291.775 458.093 292.953 458.093 294.503V295.076C429.901 316.317 404.092 322.123 384.127 322.019C383.768 321.962 383.411 321.904 383.058 321.844C364.421 318.683 351.35 310.999 346.822 308.017C346.753 307.145 346.106 306.418 345.229 306.272L330.307 303.785C329.782 303.697 329.283 303.839 328.887 304.12C328.818 304.135 328.752 304.161 328.693 304.207C320.042 310.953 311.688 315.672 303.813 318.896V313.896H280.746V321.818H272.895V311.994H269.394V306.458L258.662 307.603V311.995H248.748V316.458C248.61 316.375 248.464 316.289 248.333 316.209V311.044C248.333 310.181 247.71 309.444 246.858 309.302L240.079 308.172V289.177L221.32 291.599V229.623H216.705V211.413H211.237V197.128H208.893V189.787L204.157 185.026H203.536V170.046H202.544V156.877H200.809V170.046H199.817V185.026H199.196L194.46 189.787V197.128H192.116V211.413H186.649V229.623H182.033V313.896H180.302V310.464H164.472V313.896H157.988V300.586H149.778V296.097L141.17 295.298V289.134L130.438 290.278V294.302L117.905 293.139V300.586H109.693V311.995H99.5249V340.86H86.9459V330.376H67.9577V322.295L63.4166 322.779V318.289L52.6846 319.434V323.924L48.1435 324.408V330.376H38.6509V336.713H1.50031V340.86H0.421875V375.238H503V349.434L498.765 349.145V346.446L488.668 345.758V348.457L484.396 348.167V353.025H482.571V338.142L503 337.961V327.888L501.429 327.934V319.222C501.942 319.361 502.474 319.5 503 319.638V318.144C502.474 318.004 501.943 317.864 501.429 317.724V314.28C501.948 314.422 502.475 314.565 503 314.708V313.212C502.475 313.069 501.948 312.925 501.429 312.783V310.585C501.947 310.77 502.475 310.954 503 311.138V309.61C502.475 309.425 501.947 309.24 501.429 309.055V306.95C501.94 307.156 502.474 307.366 503 307.576ZM243.428 317.404C243.608 317.349 243.794 317.31 243.991 317.31C245.14 317.31 246.078 318.298 246.213 319.57C245.224 319.164 244.306 318.756 243.427 318.352L243.428 317.404ZM246.24 322.189H243.427V320.066C244.317 320.526 245.242 320.99 246.24 321.454V322.189ZM248.747 320.551C248.611 320.501 248.467 320.452 248.332 320.402V319.646C248.464 319.733 248.609 319.826 248.747 319.915V320.551ZM248.747 318.763C248.609 318.672 248.463 318.576 248.332 318.487V317.332C248.464 317.41 248.609 317.494 248.747 317.574V318.763ZM319.51 311.847C320.368 311.306 321.224 310.751 322.078 310.18V312.761C321.219 313.332 320.363 313.883 319.51 314.414V311.847ZM319.51 315.546C320.368 315.017 321.224 314.474 322.078 313.912V316.705C321.217 317.154 320.361 317.584 319.51 317.995V315.546ZM319.51 319.084C320.367 318.673 321.223 318.245 322.078 317.805V320.238C321.217 320.704 320.361 321.148 319.51 321.576V319.084ZM319.51 322.675C320.367 322.248 321.223 321.802 322.078 321.345V333.258L319.51 333.334V322.675ZM316.461 313.701C317.319 313.198 318.174 312.68 319.028 312.147V314.714C318.168 315.243 317.313 315.751 316.461 316.241V313.701ZM316.461 317.356C317.319 316.868 318.174 316.362 319.028 315.842V318.225C318.167 318.635 317.311 319.027 316.461 319.4V317.356ZM316.461 320.487C317.318 320.113 318.174 319.722 319.028 319.318V321.814C318.167 322.24 317.311 322.647 316.461 323.035V320.487ZM316.461 324.116C317.318 323.729 318.173 323.328 319.028 322.91V333.348L316.461 333.425V324.116ZM313.412 315.427C314.269 314.963 315.125 314.48 315.979 313.985V316.514C315.119 317.002 314.263 317.471 313.412 317.919V315.427ZM313.412 319.027C314.269 318.578 315.125 318.115 315.979 317.635V319.611C315.118 319.984 314.262 320.339 313.412 320.676V319.027ZM313.412 321.743C314.269 321.406 315.124 321.056 315.979 320.689V323.251C315.117 323.637 314.262 324.003 313.412 324.352V321.743ZM313.412 325.421C314.269 325.073 315.124 324.709 315.979 324.329V333.439L313.412 333.515V325.421ZM310.362 317.012C311.219 316.584 312.076 316.145 312.931 315.687V318.174C312.071 318.621 311.214 319.048 310.362 319.457V317.012ZM310.362 320.544C311.219 320.134 312.076 319.712 312.931 319.271V320.864C312.069 321.2 311.212 321.518 310.362 321.817V320.544ZM310.362 322.876C311.219 322.576 312.076 322.26 312.931 321.93V324.549C312.069 324.896 311.212 325.222 310.362 325.532V322.876ZM310.362 326.596C311.219 326.287 312.075 325.959 312.931 325.618V333.529L310.362 333.606V326.596ZM307.313 318.462C308.17 318.072 309.026 317.667 309.88 317.246V319.686C309.019 320.093 308.163 320.482 307.313 320.853V318.462ZM307.313 321.929C308.17 321.559 309.026 321.173 309.88 320.771V321.985C309.017 322.284 308.162 322.564 307.313 322.827V321.929ZM307.313 323.884C308.17 323.62 309.025 323.34 309.88 323.046V325.704C309.018 326.011 308.161 326.301 307.313 326.572V323.884ZM307.313 327.627C308.169 327.357 309.025 327.073 309.88 326.771V333.62L307.313 333.696V327.627ZM304.264 319.79C305.121 319.436 305.977 319.066 306.831 318.683V321.063C305.97 321.431 305.114 321.78 304.264 322.111V319.79ZM304.264 323.185C305.121 322.853 305.977 322.503 306.831 322.14V322.977C305.968 323.239 305.112 323.483 304.264 323.711V323.185ZM304.264 324.754C305.12 324.527 305.976 324.287 306.831 324.03V326.722C305.968 326.99 305.112 327.241 304.264 327.472V324.754ZM304.264 328.516C305.12 328.285 305.976 328.038 306.831 327.773V333.709L304.264 333.786V328.516ZM322.464 348.102H314.308V341.974H304.98V339.719L322.464 339.564V348.102ZM325.127 328.475L322.56 328.263V321.08C323.417 320.614 324.273 320.132 325.127 319.634V328.475ZM325.127 318.515C324.267 319.021 323.411 319.508 322.56 319.974V317.553C323.417 317.104 324.273 316.642 325.127 316.163V318.515ZM325.127 315.05C324.267 315.537 323.411 316.004 322.56 316.453V313.6C323.418 313.031 324.274 312.449 325.127 311.847V315.05ZM325.127 310.662C324.268 311.275 323.412 311.867 322.56 312.44V309.857C323.418 309.277 324.273 308.677 325.127 308.066V310.662ZM328.067 328.718L325.609 328.514V319.354C326.429 318.87 327.249 318.373 328.067 317.859V328.718ZM328.067 316.719C327.244 317.241 326.424 317.745 325.609 318.23V315.895C326.43 315.429 327.249 314.952 328.067 314.458V316.719ZM328.067 313.322C327.244 313.824 326.424 314.308 325.609 314.775V311.498C326.43 310.912 327.25 310.31 328.067 309.695V313.322ZM328.067 308.493C327.245 309.12 326.425 309.727 325.609 310.316V307.717C326.43 307.124 327.25 306.515 328.067 305.893V308.493ZM336.489 329.412L331.592 329.007V317.044C331.592 316.252 331.882 315.539 332.344 315.03C332.649 314.818 332.955 314.611 333.261 314.395C333.506 314.302 333.768 314.248 334.041 314.248C335.393 314.248 336.489 315.5 336.489 317.045V329.412ZM344.557 330.078L339.66 329.673V317.783C339.66 316.239 340.757 314.988 342.109 314.988C342.153 314.988 342.196 314.993 342.24 314.996C342.766 315.271 343.302 315.548 343.856 315.827C344.29 316.331 344.557 317.022 344.557 317.784V330.078ZM453.281 300.322C454.03 299.804 454.78 299.283 455.527 298.749V302.184C454.777 302.721 454.028 303.243 453.281 303.757V300.322ZM453.281 305.509C454.03 305 454.78 304.485 455.527 303.958V307.751C454.776 308.171 454.027 308.585 453.281 308.985V305.509ZM453.281 310.642C454.03 310.243 454.78 309.832 455.527 309.417V313.017C454.776 313.46 454.026 313.894 453.281 314.314V310.642ZM453.281 315.988C454.03 315.57 454.78 315.147 455.527 314.71V329.296L453.281 329.362V315.988ZM450.552 302.166C451.302 301.67 452.051 301.167 452.8 300.655V304.086C452.049 304.598 451.3 305.103 450.552 305.592V302.166ZM450.552 307.321C451.303 306.835 452.051 306.339 452.8 305.835V309.241C452.048 309.641 451.3 310.028 450.552 310.407V307.321ZM450.552 312.059C451.302 311.682 452.051 311.287 452.8 310.892V314.581C452.048 315.001 451.299 315.408 450.552 315.806V312.059ZM450.552 317.47C451.302 317.074 452.051 316.669 452.8 316.255V329.378L450.552 329.444V317.47ZM447.824 303.933C448.575 303.459 449.323 302.974 450.072 302.483V305.904C449.32 306.391 448.572 306.868 447.824 307.334V303.933ZM447.824 309.046C448.575 308.584 449.323 308.111 450.072 307.63V310.653C449.32 311.031 448.571 311.398 447.824 311.756V309.046ZM447.824 313.393C448.574 313.037 449.323 312.668 450.072 312.296V316.065C449.32 316.462 448.571 316.846 447.824 317.221V313.393ZM447.824 318.868C448.574 318.495 449.323 318.111 450.072 317.72V329.458L447.824 329.524V318.868ZM445.096 305.62C445.846 305.168 446.595 304.7 447.342 304.232V307.634C446.592 308.099 445.842 308.551 445.096 308.994V305.62ZM445.096 310.685C445.845 310.245 446.595 309.799 447.342 309.342V311.986C446.591 312.342 445.841 312.691 445.096 313.027V310.685ZM445.096 314.646C445.845 314.311 446.595 313.975 447.342 313.623V317.46C446.591 317.834 445.841 318.2 445.096 318.552V314.646ZM398.713 324.691C399.057 324.695 399.401 324.701 399.745 324.702C399.4 324.739 399.056 324.777 398.713 324.81V324.691ZM395.985 322.889C396.733 322.808 397.483 322.721 398.231 322.623V323.215C397.474 323.205 396.724 323.187 395.985 323.16V322.889ZM395.985 324.626C396.733 324.654 397.482 324.674 398.231 324.686V324.855C397.477 324.925 396.727 324.988 395.985 325.041V324.626ZM395.985 326.542C396.733 326.491 397.483 326.432 398.231 326.365V328.848C397.474 328.824 396.725 328.791 395.985 328.749V326.542ZM395.985 330.224C396.733 330.268 397.482 330.299 398.231 330.325V330.997L395.985 331.064V330.224ZM395.504 322.94V323.142C395.057 323.124 394.615 323.103 394.174 323.08C394.618 323.039 395.06 322.985 395.504 322.94ZM393.257 324.488C394.005 324.537 394.755 324.578 395.504 324.61V325.073C394.75 325.122 393.999 325.165 393.257 325.197V324.488ZM393.257 326.689C394.006 326.658 394.755 326.621 395.504 326.574V328.72C394.746 328.672 393.997 328.616 393.257 328.552V326.689ZM393.257 330.02C394.005 330.087 394.755 330.141 395.504 330.189V331.078L393.257 331.144V330.02ZM390.528 324.271C391.277 324.34 392.025 324.401 392.776 324.453V325.215C392.02 325.244 391.271 325.265 390.528 325.276V324.271ZM390.528 326.759C391.277 326.75 392.026 326.733 392.776 326.707V328.507C392.016 328.437 391.268 328.358 390.528 328.271V326.759ZM390.528 329.737C391.277 329.825 392.025 329.903 392.776 329.973V331.159L390.528 331.226V329.737ZM387.8 323.982C388.549 324.072 389.297 324.152 390.047 324.225V325.279C389.291 325.286 388.542 325.286 387.8 325.276V323.982ZM387.8 326.755C388.31 326.763 388.819 326.776 389.329 326.776C389.569 326.776 389.807 326.768 390.047 326.767V328.214C389.286 328.12 388.538 328.017 387.8 327.908V326.755ZM387.8 329.371C388.548 329.482 389.297 329.583 390.047 329.675V331.24L387.8 331.306V329.371ZM385.072 323.623C385.82 323.733 386.569 323.833 387.319 323.926V325.268C386.563 325.254 385.813 325.232 385.072 325.202V323.623ZM385.072 326.674C385.82 326.707 386.57 326.733 387.319 326.748V327.835C386.558 327.718 385.809 327.591 385.072 327.458V326.674ZM385.072 328.921C385.82 329.056 386.569 329.179 387.319 329.295V331.321L385.072 331.388V328.921ZM382.344 323.463C382.968 323.479 383.594 323.487 384.219 323.492C384.343 323.512 384.466 323.533 384.59 323.552V325.182C383.833 325.146 383.084 325.103 382.343 325.051L382.344 323.463ZM382.344 326.518C383.092 326.571 383.842 326.618 384.591 326.654V327.369C383.829 327.227 383.079 327.077 382.344 326.92V326.518ZM382.344 328.389C383.092 328.547 383.841 328.693 384.591 328.832V331.402L382.344 331.468V328.389ZM379.615 323.356C380.364 323.395 381.112 323.425 381.862 323.448V325.018C381.103 324.961 380.355 324.896 379.615 324.822V323.356ZM379.615 326.285C380.364 326.36 381.112 326.428 381.862 326.485V326.815C381.643 326.767 381.424 326.72 381.208 326.67C380.671 326.549 380.143 326.419 379.615 326.289V326.285ZM379.615 327.774C380.016 327.871 380.413 327.971 380.819 328.064C381.166 328.143 381.514 328.212 381.862 328.286V331.483L379.615 331.549V327.774ZM376.886 323.178C377.635 323.237 378.384 323.287 379.134 323.329V324.773C378.375 324.695 377.626 324.608 376.886 324.515V323.178ZM376.886 327.073C377.625 327.275 378.374 327.47 379.134 327.657V331.564L376.886 331.63V327.073ZM374.158 322.928C374.906 323.008 375.655 323.079 376.405 323.141V324.451C375.646 324.351 374.896 324.243 374.158 324.127V322.928ZM374.158 326.279C374.896 326.505 375.644 326.727 376.405 326.941V331.646L374.158 331.712V326.279ZM371.43 320.649C372.166 320.864 372.914 321.073 373.676 321.275V321.416C372.915 321.332 372.166 321.24 371.43 321.14V320.649ZM371.43 322.597C372.178 322.697 372.926 322.789 373.676 322.873V324.053C372.914 323.93 372.166 323.799 371.43 323.661V322.597ZM371.43 325.395C372.166 325.645 372.915 325.89 373.676 326.128V331.727L371.43 331.793V325.395ZM368.701 319.819C369.435 320.054 370.187 320.283 370.949 320.509V321.074C370.186 320.967 369.437 320.854 368.701 320.733V319.819ZM368.701 322.194C369.45 322.314 370.198 322.427 370.949 322.531V323.571C370.678 323.52 370.409 323.466 370.143 323.413C369.656 323.237 369.176 323.058 368.701 322.877V322.194ZM368.701 324.584C369.041 324.656 369.381 324.725 369.721 324.794C370.128 324.941 370.534 325.088 370.949 325.232V331.807L368.701 331.873V324.584ZM365.973 318.897C366.706 319.156 367.454 319.411 368.22 319.662V320.656C368.191 320.651 368.161 320.645 368.132 320.641C367.404 320.518 366.684 320.388 365.974 320.251L365.973 318.897ZM365.973 321.717C366.583 321.833 367.195 321.946 367.818 322.052C367.952 322.075 368.086 322.094 368.22 322.116V322.692C367.457 322.396 366.704 322.097 365.973 321.792V321.717ZM365.973 323.968C366.663 324.135 367.359 324.298 368.064 324.453C368.116 324.464 368.168 324.474 368.219 324.485V331.889L365.972 331.955V323.968H365.973ZM363.245 317.895C363.974 318.176 364.726 318.452 365.491 318.727V320.153C364.732 320.003 363.983 319.845 363.245 319.682V317.895ZM363.245 323.263C363.984 323.464 364.733 323.659 365.491 323.848V331.969L363.245 332.035V323.263ZM360.516 316.8C361.243 317.103 361.994 317.405 362.764 317.706V319.572C362.004 319.4 361.255 319.222 360.516 319.037V316.8ZM360.516 322.477C361.255 322.701 362.003 322.918 362.764 323.129V332.051L360.516 332.117V322.477ZM357.788 315.61C358.513 315.938 359.259 316.268 360.036 316.597V318.917C359.819 318.862 359.607 318.805 359.394 318.749C358.845 318.469 358.31 318.19 357.789 317.912V315.61H357.788ZM357.788 319.811C358.148 319.911 358.513 320.009 358.879 320.106C359.257 320.298 359.644 320.49 360.035 320.681V320.824C359.272 320.585 358.526 320.34 357.787 320.09L357.788 319.811ZM357.788 321.614C358.525 321.86 359.275 322.098 360.036 322.333V332.131L357.788 332.197V321.614ZM355.06 314.325C355.778 314.677 356.524 315.034 357.306 315.394V317.655C356.523 317.231 355.775 316.812 355.06 316.398V314.325ZM355.06 319.016C355.796 319.242 356.543 319.464 357.306 319.68V319.925C356.544 319.663 355.794 319.396 355.06 319.123V319.016ZM355.06 320.661C355.796 320.929 356.544 321.194 357.306 321.451V332.211L355.06 332.278V320.661ZM352.332 312.933C353.038 313.309 353.788 313.695 354.579 314.088V316.12C353.785 315.656 353.036 315.202 352.332 314.761V312.933ZM354.578 318.866V318.946C354.179 318.796 353.787 318.644 353.396 318.491C353.785 318.617 354.182 318.741 354.578 318.866ZM352.332 316.454C352.527 316.573 352.726 316.694 352.927 316.815C352.729 316.748 352.528 316.683 352.332 316.615V316.454ZM352.332 319.624C353.065 319.915 353.815 320.201 354.579 320.484V332.293L352.332 332.359V319.624ZM349.602 311.42C350.289 311.818 351.04 312.237 351.85 312.674V314.456C351.036 313.939 350.284 313.445 349.602 312.981V311.42ZM349.602 314.718C350.294 315.177 351.046 315.659 351.85 316.158V316.446C351.083 316.179 350.334 315.908 349.602 315.634V314.718ZM349.602 318.497C350.336 318.812 351.082 319.124 351.85 319.433V332.373L349.602 332.44V318.497ZM346.834 309.744C347.483 310.157 348.247 310.627 349.122 311.14V312.649C348.231 312.033 347.467 311.478 346.834 311.002V309.744ZM346.834 312.798C347.497 313.28 348.261 313.817 349.122 314.395V315.455C348.335 315.155 347.577 314.852 346.834 314.548V312.798ZM346.834 317.264C347.574 317.607 348.34 317.949 349.122 318.289V332.455L346.834 332.522V317.264ZM399.695 343.118H393.594V341.053H378.702V343.118H374.572V359.329H367.9V355.153H354.53V348.103H346.833V339.348L399.694 338.878V343.118H399.695ZM400.961 330.917L398.713 330.983V330.345C399.462 330.367 400.211 330.377 400.961 330.38V330.917ZM400.961 328.895C400.204 328.893 399.455 328.883 398.713 328.862V326.319C399.463 326.248 400.211 326.167 400.961 326.079V328.895ZM400.961 323.215C400.204 323.225 399.455 323.228 398.713 323.222V322.558C399.463 322.457 400.211 322.354 400.961 322.236V323.215ZM403.689 330.835L401.442 330.902V330.386C402.19 330.386 402.939 330.374 403.689 330.355V330.835ZM403.689 328.861C402.932 328.882 402.183 328.895 401.442 328.897V326.022C402.191 325.929 402.939 325.827 403.689 325.718V328.861ZM403.689 323.141C402.932 323.173 402.184 323.194 401.442 323.208V322.156C402.191 322.036 402.939 321.915 403.689 321.778V323.141ZM406.417 330.755L404.171 330.821V330.343C404.919 330.321 405.668 330.291 406.417 330.252V330.755ZM406.417 328.748C405.662 328.791 404.912 328.823 404.171 328.847V325.647C404.92 325.534 405.669 325.411 406.417 325.281V328.748ZM406.417 322.994C405.661 323.046 404.913 323.086 404.171 323.119V321.682C404.92 321.541 405.669 321.396 406.417 321.239V322.994ZM409.145 330.673L406.898 330.74V330.221C407.647 330.176 408.396 330.127 409.145 330.065V330.673ZM409.145 328.554C408.39 328.619 407.642 328.672 406.898 328.719V325.198C407.648 325.064 408.396 324.919 409.145 324.768V328.554ZM409.145 322.774C408.39 322.846 407.642 322.906 406.898 322.959V321.138C407.648 320.977 408.396 320.804 409.145 320.627V322.774ZM411.874 330.593L409.626 330.659V330.02C410.375 329.955 411.124 329.883 411.874 329.799V330.593ZM411.874 328.28C411.118 328.367 410.37 328.442 409.626 328.509V324.67C409.825 324.629 410.023 324.594 410.221 324.552C410.772 324.434 411.322 324.312 411.873 324.185V328.28H411.874ZM411.874 322.48C411.118 322.572 410.37 322.652 409.626 322.725V320.516C409.673 320.505 409.72 320.496 409.766 320.484C410.468 320.312 411.171 320.123 411.873 319.937V322.48H411.874ZM414.602 330.511L412.356 330.578V329.739C413.104 329.651 413.854 329.557 414.602 329.452V330.511ZM414.602 327.926C413.848 328.035 413.099 328.132 412.356 328.222V324.071C412.782 323.97 413.209 323.869 413.635 323.763C413.957 323.72 414.28 323.678 414.602 323.631V327.926ZM414.602 321.948C414.115 322.076 413.628 322.2 413.144 322.319C412.88 322.355 412.618 322.387 412.356 322.419V319.814C413.105 319.612 413.854 319.398 414.602 319.181V321.948ZM415.517 330.484L415.083 330.497V329.381C415.227 329.359 415.372 329.334 415.517 329.312V330.484ZM417.33 327.492C416.576 327.623 415.827 327.743 415.083 327.853V323.564C415.832 323.452 416.581 323.326 417.33 323.199V327.492ZM417.33 321.193C416.578 321.411 415.828 321.621 415.083 321.819V319.041C415.832 318.82 416.582 318.59 417.33 318.353V321.193ZM420.06 326.979C419.306 327.132 418.557 327.274 417.812 327.407V323.118C418.562 322.987 419.31 322.844 420.06 322.696V326.979ZM420.06 320.361C419.307 320.601 418.558 320.835 417.812 321.054V318.196C418.562 317.953 419.311 317.71 420.06 317.451V320.361ZM422.787 328.725L420.54 328.572V328.425C420.969 328.337 421.397 328.256 421.825 328.162C422.146 328.093 422.467 328.017 422.787 327.945V328.725ZM422.787 326.387C422.033 326.561 421.284 326.727 420.54 326.882V322.601C421.29 322.45 422.038 322.289 422.787 322.122V326.387ZM422.787 319.452C422.034 319.714 421.286 319.965 420.54 320.207V317.28C421.29 317.018 422.038 316.757 422.787 316.479V319.452ZM425.516 328.911L423.269 328.758V327.836C424.018 327.661 424.767 327.476 425.516 327.284V328.911ZM425.516 325.716C424.763 325.912 424.013 326.101 423.269 326.277V322.013C423.744 321.904 424.218 321.803 424.693 321.689C424.968 321.622 425.241 321.544 425.516 321.475V325.716ZM425.516 318.464C424.764 318.748 424.015 319.019 423.269 319.282V316.293C424.018 316.01 424.768 315.717 425.516 315.417V318.464ZM428.244 330.107L425.997 330.173V327.157C426.746 326.961 427.495 326.758 428.244 326.544V330.107ZM428.244 324.965C427.491 325.184 426.741 325.392 425.997 325.59V321.351C426.746 321.16 427.496 320.967 428.244 320.759V324.965ZM428.244 319.19C427.737 319.333 427.231 319.471 426.727 319.605C427.233 319.41 427.738 319.211 428.244 319.008V319.19ZM428.244 317.394C427.492 317.7 426.743 317.996 425.997 318.28V315.229C426.746 314.925 427.495 314.603 428.244 314.283V317.394ZM430.973 330.025L428.726 330.092V326.402C429.476 326.183 430.224 325.955 430.973 325.719V330.025ZM430.973 324.136C430.219 324.377 429.471 324.605 428.726 324.824V320.619C429.476 320.407 430.224 320.193 430.973 319.964V324.136ZM430.973 318.386C430.22 318.618 429.471 318.84 428.726 319.053V318.81C429.476 318.504 430.225 318.19 430.973 317.867V318.386ZM430.973 316.246C430.221 316.573 429.472 316.893 428.726 317.2V314.08C429.476 313.756 430.224 313.418 430.973 313.077V316.246ZM433.701 329.945L431.454 330.011V325.569C432.203 325.328 432.952 325.076 433.701 324.817V329.945ZM433.701 323.226C432.947 323.488 432.199 323.738 431.454 323.979V319.817C432.203 319.584 432.952 319.337 433.701 319.088V323.226ZM433.701 317.509C432.947 317.761 432.2 318.002 431.454 318.235V317.66C432.203 317.332 432.953 316.993 433.701 316.648V317.509ZM433.701 315.02C432.948 315.37 432.2 315.706 431.454 316.035V312.858C432.203 312.513 432.953 312.159 433.701 311.798V315.02ZM436.429 329.863L434.182 329.93V324.649C434.931 324.387 435.68 324.117 436.429 323.838V329.863ZM436.429 322.233C435.677 322.518 434.927 322.792 434.182 323.056V318.931C434.931 318.679 435.68 318.409 436.429 318.14V322.233ZM436.429 316.553C435.677 316.826 434.927 317.09 434.182 317.344V316.425C434.931 316.075 435.681 315.719 436.429 315.353V316.553ZM436.429 313.706C435.678 314.078 434.928 314.44 434.182 314.792V311.561C434.931 311.195 435.681 310.825 436.429 310.443V313.706ZM439.158 329.783L436.911 329.849V323.653C437.661 323.369 438.409 323.076 439.158 322.774V329.783ZM439.158 321.163C438.406 321.468 437.656 321.767 436.911 322.053V317.969C437.661 317.695 438.409 317.411 439.158 317.121V321.163ZM439.158 315.525C438.406 315.819 437.657 316.105 436.911 316.38V315.112C437.661 314.741 438.41 314.361 439.158 313.972V315.525ZM439.158 312.314C438.406 312.708 437.658 313.095 436.911 313.469V310.192C437.661 309.805 438.41 309.42 439.158 309.015V312.314ZM441.886 329.701L439.638 329.768V322.58C440.388 322.273 441.136 321.955 441.886 321.631V329.701ZM441.886 320.012C441.133 320.341 440.385 320.657 439.638 320.964V316.933C440.388 316.64 441.137 316.34 441.886 316.029V320.012ZM441.886 314.422C441.133 314.737 440.385 315.041 439.638 315.336V313.721C440.388 313.327 441.137 312.921 441.886 312.509V314.422ZM441.886 310.84C441.134 311.257 440.386 311.663 439.638 312.059V308.749C440.388 308.34 441.137 307.926 441.886 307.5V310.84ZM444.615 329.621L442.368 329.687V321.422C443.117 321.093 443.867 320.756 444.615 320.41V329.621ZM444.615 318.776C443.863 319.127 443.114 319.467 442.368 319.797V315.826C443.117 315.511 443.867 315.196 444.615 314.865V318.776ZM444.615 313.243C443.863 313.579 443.114 313.903 442.368 314.219V312.244C443.118 311.828 443.867 311.403 444.615 310.969V313.243ZM444.615 309.277C443.864 309.717 443.115 310.15 442.368 310.569V307.227C443.118 306.797 443.867 306.351 444.615 305.904V309.277ZM445.096 320.185C445.845 319.834 446.594 319.477 447.342 319.107V329.54L445.096 329.606V320.185ZM458.092 359.329H454.697V341.975H445.132V338.475L458.092 338.36V359.329ZM458.092 329.221L456.009 329.282V314.425C456.704 314.017 457.398 313.6 458.092 313.176V329.221ZM458.092 311.473C457.395 311.903 456.701 312.322 456.009 312.733V309.15C456.704 308.761 457.398 308.365 458.092 307.962V311.473ZM458.092 306.282C457.395 306.691 456.702 307.089 456.009 307.481V303.615C456.704 303.121 457.399 302.618 458.092 302.109V306.282ZM458.092 300.309C457.396 300.827 456.702 301.338 456.009 301.837V298.399C456.704 297.898 457.399 297.4 458.092 296.885V300.309ZM464.574 306.001C464.905 306.155 465.256 306.318 465.628 306.488C464.678 307.158 463.731 307.809 462.787 308.443C463.026 307.351 463.693 306.455 464.574 306.001ZM469.077 328.895L462.689 329.085V310.25C464.182 309.262 465.671 308.237 467.156 307.178C467.682 307.412 468.241 307.657 468.826 307.912C468.987 308.347 469.076 308.825 469.076 309.327L469.077 328.895ZM479.602 328.582L473.214 328.771V310.288C473.214 310.11 473.229 309.936 473.25 309.764C475.168 310.542 477.29 311.371 479.601 312.23V328.582H479.602ZM479.602 310.69C477.458 309.887 475.481 309.113 473.687 308.384C474.229 307.377 475.185 306.696 476.286 306.649C476.915 306.858 477.558 307.07 478.219 307.288C479.053 307.946 479.602 309.044 479.602 310.29V310.69ZM485.7 328.401L482.57 328.493V313.313C483.583 313.674 484.627 314.039 485.7 314.406V328.401ZM485.7 312.88C484.625 312.51 483.582 312.143 482.57 311.78V308.69C483.585 309.012 484.627 309.34 485.7 309.673V312.88ZM485.7 308.162C484.628 307.828 483.584 307.499 482.57 307.176V303.367C483.582 303.783 484.629 304.208 485.7 304.638V308.162ZM485.7 303.083C484.627 302.65 483.582 302.224 482.57 301.806V298.476C483.383 298.889 484.43 299.41 485.7 300.023V303.083ZM488.749 328.31L486.182 328.387V314.57C487.021 314.855 487.875 315.142 488.749 315.428V328.31ZM488.749 313.907C487.874 313.619 487.02 313.331 486.182 313.044V309.822C487.022 310.081 487.877 310.344 488.749 310.609V313.907ZM488.749 309.101C487.878 308.835 487.02 308.571 486.182 308.312V304.832C487.019 305.167 487.878 305.507 488.749 305.848V309.101ZM488.749 304.299C487.875 303.955 487.02 303.614 486.182 303.277V300.256C486.963 300.63 487.821 301.036 488.749 301.467V304.299ZM491.799 328.221L489.231 328.297V315.585C490.072 315.859 490.927 316.133 491.799 316.406V328.221ZM491.799 314.891C490.928 314.617 490.07 314.341 489.231 314.066V310.755C490.071 311.01 490.931 311.267 491.799 311.524V314.891ZM491.799 310.019C490.928 309.76 490.073 309.502 489.231 309.246V306.036C490.073 306.366 490.927 306.697 491.799 307.031V310.019ZM491.799 305.486C490.927 305.15 490.072 304.817 489.231 304.487V301.689C490.035 302.06 490.895 302.451 491.799 302.856V305.486ZM494.849 328.129L492.281 328.206V316.557C493.122 316.819 493.98 317.08 494.849 317.341V328.129ZM494.849 315.835C493.976 315.571 493.124 315.307 492.281 315.043V311.667C493.125 311.916 493.98 312.167 494.849 312.419V315.835ZM494.849 310.916C493.98 310.664 493.124 310.412 492.281 310.162V307.215C493.124 307.537 493.98 307.861 494.849 308.186V310.916ZM494.849 306.646C493.98 306.32 493.122 305.994 492.281 305.672V303.072C493.099 303.436 493.954 303.812 494.849 304.199V306.646ZM497.898 328.039L495.331 328.115V317.485C495.684 317.59 496.034 317.696 496.392 317.801C496.887 317.945 497.39 318.091 497.899 318.237L497.898 328.039ZM497.898 316.733C497.544 316.631 497.185 316.529 496.837 316.427C496.328 316.278 495.829 316.129 495.329 315.979V312.56C496.174 312.804 497.032 313.049 497.897 313.294V316.733H497.898ZM497.898 311.794C497.03 311.547 496.176 311.302 495.331 311.056V308.366C496.176 308.681 497.03 308.998 497.898 309.315V311.794ZM497.898 307.779C497.03 307.46 496.175 307.143 495.331 306.826V304.407C496.156 304.763 497.012 305.126 497.898 305.498V307.779ZM500.947 327.949L498.379 328.025V318.375C499.217 318.613 500.073 318.852 500.947 319.091V327.949ZM500.947 317.592C500.072 317.352 499.218 317.111 498.379 316.871V313.427C499.225 313.666 500.081 313.905 500.947 314.145V317.592ZM500.947 312.649C500.081 312.408 499.225 312.169 498.379 311.929V309.489C499.224 309.797 500.081 310.105 500.947 310.413V312.649ZM500.947 308.883C500.082 308.573 499.224 308.265 498.379 307.956V305.698C499.21 306.044 500.065 306.396 500.947 306.755V308.883Z" fill="#A3404C"/>
<path d="M503 371.214H0V503H503V371.214Z" fill="#692C33"/>
<path d="M136.815 297.601V288.882H125.733L124.903 281.85C124.903 281.85 126.906 280.42 127.335 278.989C127.763 277.558 126.906 265.544 126.906 265.544L128.623 261.968L128.48 256.104L130.053 254.531C130.053 252.958 127.192 226.784 127.192 226.784L127.907 224.352C127.907 224.352 131.197 224.781 132.198 222.493C133.199 220.204 135.487 208.333 135.487 208.333C135.487 208.333 139.063 207.189 139.922 206.187C140.78 205.186 141.924 201.609 141.924 201.609L143.068 200.751L143.496 198.749C143.496 198.749 145.212 198.034 145.212 196.746C145.212 195.459 144.069 193.6 144.069 193.6L145.07 191.741L144.069 189.739L130.767 183.017L127.763 188.022C127.763 188.022 126.333 187.021 125.475 185.877C124.617 184.733 122.185 181.299 120.326 175.007C118.467 168.713 116.178 167.427 116.178 167.427C116.178 167.427 113.032 164.852 112.603 163.994C112.173 163.136 110.6 156.557 110.6 156.557C110.6 156.557 111.458 155.699 111.315 154.698C111.172 153.697 109.742 148.118 109.742 148.118C109.742 148.118 110.887 148.118 111.03 147.26C111.172 146.402 110.029 144.114 110.029 144.114L110.887 142.112L123.187 141.253L111.172 139.537L110.457 137.821L122.472 133.101L109.599 135.39L108.455 133.816L115.177 124.663L105.308 132.386L102.162 131.385L99.8731 120.228L99.3006 131.385C97.8701 131.385 94.7233 132.243 94.7233 132.243L85.8555 126.092L92.5776 133.816L90.5746 135.675L82.422 136.105V132.243L79.2752 123.803L78.1314 114.793C78.1314 114.793 78.56 105.067 78.56 104.494C78.56 103.922 76.4142 98.3436 76.4142 98.3436L76.8427 94.1958C78.1304 93.9101 82.1353 90.9062 82.1353 90.9062V85.1851L78.9885 83.4689L80.419 80.4649L80.1333 76.0305L78.9885 77.461C78.9885 77.461 79.5609 75.7448 79.5609 73.7418C79.5609 71.7389 78.56 68.1636 78.56 68.1636C78.56 68.1636 77.4161 69.5941 76.8437 70.3094C76.2713 71.0246 68.8339 73.3133 68.4054 73.8847C67.9768 74.4571 67.1177 78.462 67.4044 79.1773C67.6911 79.8925 68.5482 82.1812 68.5482 82.1812C65.9739 82.6097 63.5424 84.4698 63.5424 84.4698V90.3338L66.2596 92.9081L67.4034 94.6244L68.1187 96.4835L67.5463 97.914L68.1187 99.6302L67.6891 100.774L68.5472 102.205L68.2615 103.921C68.2615 103.921 68.9768 107.068 69.1196 108.355C69.2625 109.643 70.4073 115.077 70.4073 115.077C70.4073 115.077 71.2654 119.368 71.1226 124.375C70.9797 129.381 73.1245 141.538 73.1245 141.538C73.1245 141.538 70.1206 146.544 69.5492 149.118C68.9768 151.693 67.833 159.417 68.1187 159.845C68.4044 160.275 70.693 162.706 70.693 162.706C70.693 162.706 70.4073 165.138 70.5502 165.853C70.693 166.568 73.2674 168.714 73.2674 168.714C73.2674 168.714 73.4102 179.584 73.6959 181.157C73.9816 182.731 75.9846 185.735 76.1274 187.164C76.2703 188.595 71.8369 202.897 72.1226 205.186C72.4083 207.474 74.9836 210.478 75.6979 212.052C76.4131 213.625 73.4092 223.924 73.4092 225.497C73.4092 227.07 76.6988 234.651 76.6988 236.224C76.6988 237.797 74.1245 254.532 74.1245 254.961C74.1245 255.389 76.2703 257.106 76.4131 257.965C76.556 258.823 74.1245 275.415 74.1245 278.561C74.1245 279.888 73.5642 284.246 72.9163 288.884H63.7094V297.603H53.9844V306.992H60.6914V388.316H139.833V306.99H146.54V297.601H136.815Z" fill="#692C33"/>
</g>
<defs>
<filter id="filter0_d_198_79130" x="-4" y="-12" width="511" height="511" filterUnits="userSpaceOnUse" color-interpolation-filters="sRGB">
<feFlood flood-opacity="0" result="BackgroundImageFix"/>
<feColorMatrix in="SourceAlpha" type="matrix" values="0 0 0 0 0 0 0 0 0 0 0 0 0 0 0 0 0 0 127 0" result="hardAlpha"/>
<feOffset dy="4"/>
<feGaussianBlur stdDeviation="2"/>
<feComposite in2="hardAlpha" operator="out"/>
<feColorMatrix type="matrix" values="0 0 0 0 0 0 0 0 0 0 0 0 0 0 0 0 0 0 0.25 0"/>
<feBlend mode="normal" in2="BackgroundImageFix" result="effect1_dropShadow_198_79130"/>
<feBlend mode="normal" in="SourceGraphic" in2="effect1_dropShadow_198_79130" result="shape"/>
</filter>
<linearGradient id="paint0_linear_198_79130" x1="251.5" y1="-12" x2="251.5" y2="491" gradientUnits="userSpaceOnUse">
<stop stop-color="#FF6477"/>
<stop offset="1" stop-color="#FFE0E0"/>
</linearGradient>
<clipPath id="clip0_198_79130">
<rect width="503" height="503" rx="38.3969" fill="white"/>
</clipPath>
</defs>
</svg>
