<svg width="320" height="320" viewBox="0 0 320 320" fill="none" xmlns="http://www.w3.org/2000/svg">
<path d="M100.346 36.9643L94.6133 36.9952L94.7673 65.5232L100.5 65.4923L100.346 36.9643Z" fill="#E0E0E0"/>
<path d="M59.7842 37.0462L44.9375 37.1249L45.021 52.8746L59.8677 52.796L59.7842 37.0462Z" fill="#EBEBEB"/>
<path d="M74.5616 36.9676L59.7148 37.0463L59.7983 52.796L74.645 52.7173L74.5616 36.9676Z" fill="#F5F5F5"/>
<path d="M44.9633 41.4713C54.8296 41.5526 64.7208 41.495 74.5864 41.335C74.7892 41.3318 74.788 41.0207 74.5844 41.0195C64.7176 40.9651 54.8264 41.0137 44.9614 41.2006C44.788 41.2044 44.7892 41.47 44.9633 41.4713Z" fill="#E0E0E0"/>
<path d="M62.6622 52.5268L35.6875 52.6725L35.7568 65.507L62.7315 65.3614L62.6622 52.5268Z" fill="#EBEBEB"/>
<path d="M89.5099 52.3822L62.5352 52.5278L62.6045 65.3624L89.5792 65.2167L89.5099 52.3822Z" fill="#F5F5F5"/>
<path d="M35.7055 56.2432C53.6255 56.446 71.6076 56.2643 89.5263 55.9776C89.7292 55.9744 89.7279 55.6627 89.5244 55.662C71.6037 55.5673 53.6204 55.5782 35.7036 55.9731C35.5301 55.9763 35.5314 56.2412 35.7055 56.2432Z" fill="#E0E0E0"/>
<path d="M130.124 65.5078H25.6172V70.1056H130.124V65.5078Z" fill="#E0E0E0"/>
<path d="M46.9691 67.719H42.7266V83.4086H46.9691V67.719Z" fill="#E0E0E0"/>
<path d="M110.301 67.719H106.059V83.4086H110.301V67.719Z" fill="#E0E0E0"/>
<path d="M105.94 26.3259L100.207 26.3568L100.419 65.5933L106.152 65.5623L105.94 26.3259Z" fill="#EBEBEB"/>
<path d="M114.901 33.6313L105.992 33.6794L106.164 65.4759L115.073 65.4278L114.901 33.6313Z" fill="#F5F5F5"/>
<path d="M114.838 39.7593C114.838 39.8445 112.844 39.9136 110.384 39.9136C107.923 39.9136 105.93 39.8445 105.93 39.7593C105.93 39.6742 107.924 39.6051 110.384 39.6051C112.844 39.6051 114.838 39.6742 114.838 39.7593Z" fill="#E0E0E0"/>
<path d="M114.838 38.4236C114.838 38.5088 112.844 38.5779 110.384 38.5779C107.923 38.5779 105.93 38.5088 105.93 38.4236C105.93 38.3385 107.924 38.2694 110.384 38.2694C112.844 38.2694 114.838 38.3385 114.838 38.4236Z" fill="#E0E0E0"/>
<path d="M114.838 60.6458C114.838 60.7309 112.844 60.8001 110.384 60.8001C107.923 60.8001 105.93 60.7309 105.93 60.6458C105.93 60.5607 107.924 60.4916 110.384 60.4916C112.844 60.4916 114.838 60.5607 114.838 60.6458Z" fill="#E0E0E0"/>
<path d="M114.838 59.3101C114.838 59.3952 112.844 59.4644 110.384 59.4644C107.923 59.4644 105.93 59.3952 105.93 59.3101C105.93 59.225 107.924 59.1559 110.384 59.1559C112.844 59.1559 114.838 59.225 114.838 59.3101Z" fill="#E0E0E0"/>
<path d="M110.525 56.3962C110.44 56.3962 110.371 53.1885 110.371 49.2321C110.371 45.2743 110.44 42.0673 110.525 42.0673C110.61 42.0673 110.68 45.2743 110.68 49.2321C110.68 53.1879 110.611 56.3962 110.525 56.3962Z" fill="#E0E0E0"/>
<path d="M124.63 41.4419H114.934V65.4419H124.63V41.4419Z" fill="#EBEBEB"/>
<path d="M104.636 33.0285C104.636 33.9386 103.898 34.6765 102.988 34.6765C102.078 34.6765 101.34 33.9386 101.34 33.0285C101.34 32.1184 102.078 31.3805 102.988 31.3805C103.899 31.3811 104.636 32.1184 104.636 33.0285Z" fill="#E0E0E0"/>
<path d="M103.495 37.5609H102.477V60.9017H103.495V37.5609Z" fill="#E0E0E0"/>
<path d="M36.7813 228.361L36.7812 302.194H173.062V228.361H36.7813Z" fill="#EBEBEB"/>
<path d="M173.061 228.361C173.061 228.361 172.948 228.457 172.719 228.63C172.48 228.808 172.139 229.062 171.696 229.392C170.784 230.063 169.454 231.04 167.744 232.296C164.295 234.813 159.318 238.444 153.172 242.928C140.841 251.884 123.821 264.247 105.023 277.901L105.019 277.904L104.921 277.975L104.823 277.904C86.019 264.246 68.9976 251.882 56.6673 242.927C50.522 238.443 45.5461 234.813 42.0971 232.296C40.3877 231.04 39.0584 230.063 38.1457 229.393C37.7022 229.062 37.3624 228.809 37.123 228.63C36.8939 228.458 36.7812 228.362 36.7812 228.362C36.7812 228.362 36.9073 228.438 37.1429 228.603C37.3867 228.775 37.7336 229.02 38.1848 229.338C39.1057 229.997 40.4478 230.957 42.1726 232.191C45.6363 234.687 50.6334 238.289 56.8056 242.736C69.1505 251.672 86.1918 264.007 105.019 277.635H104.823L104.826 277.632C123.647 264.008 140.688 251.674 153.033 242.738C159.206 238.29 164.203 234.689 167.668 232.192C169.393 230.957 170.735 229.997 171.657 229.338C172.109 229.02 172.455 228.775 172.699 228.603C172.935 228.438 173.061 228.361 173.061 228.361Z" fill="#E0E0E0"/>
<path d="M249.379 253.686C247.118 252.266 244.528 251.375 241.872 251.102C240.646 250.976 239.306 251.012 238.321 251.755C238.113 251.912 237.909 252.146 237.956 252.403C237.991 252.593 238.151 252.73 238.303 252.847C241.357 255.177 245.977 255.471 249.379 253.686Z" fill="#E0E0E0"/>
<path d="M249.189 253.474C247.489 252.148 245.78 250.812 244.341 249.208C242.901 247.604 241.731 245.699 241.301 243.587C241.171 242.946 241.13 242.214 241.541 241.706C245.406 244.724 248.441 248.627 249.189 253.474Z" fill="#E0E0E0"/>
<path d="M249.34 253.657C249.049 251.543 248.945 249.37 249.43 247.292C249.915 245.213 251.046 243.224 252.82 242.039C253.489 243.6 253.201 245.398 252.731 247.03C252.004 249.551 250.863 251.952 249.369 254.108" fill="#E0E0E0"/>
<path d="M253.127 260.445C250.828 260.725 248.824 261.937 247.107 263.492C245.39 265.047 244.17 267.142 243.664 269.403C245.92 269.263 247.834 267.673 249.222 265.889C250.61 264.106 251.571 262.148 253.096 260.48" fill="#E0E0E0"/>
<path d="M253.949 261.531C252.097 256.968 252.768 251.47 255.664 247.487C256.974 252.147 256.493 257.412 253.949 261.531Z" fill="#E0E0E0"/>
<path d="M258.956 267.492C256.869 267.362 254.747 267.859 252.935 268.902C251.122 269.946 249.627 271.531 248.691 273.401C248.564 273.655 248.452 273.978 248.622 274.206C248.77 274.404 249.056 274.422 249.303 274.406C251.326 274.275 253.119 273.058 254.599 271.672C256.078 270.286 257.367 268.685 259.002 267.487" fill="#E0E0E0"/>
<path d="M258.797 267.167C257.72 263.722 257.653 259.968 258.606 256.486C258.983 255.112 259.614 253.665 260.885 253.019C260.993 252.964 261.12 252.915 261.234 252.958C261.342 252.999 261.405 253.109 261.454 253.213C261.907 254.158 262.038 255.231 261.992 256.278C261.945 257.324 261.728 258.355 261.512 259.379C261.112 261.275 260.899 263.312 259.859 264.947C259.612 265.335 259.395 265.754 259.198 266.17C259.001 266.586 258.999 266.732 258.819 267.062" fill="#E0E0E0"/>
<path d="M272.048 269.141C271.066 265.407 272.108 260.88 274.461 257.819C274.635 257.594 274.864 257.352 275.147 257.378C275.581 257.418 275.693 257.996 275.673 258.43C275.503 262.246 274.23 266.006 272.048 269.141Z" fill="#E0E0E0"/>
<path d="M273.242 269.958C277.779 271.139 282.984 269.991 286.757 267.209C284.521 266.075 281.885 265.752 279.441 266.311C276.997 266.87 274.763 267.965 273.242 269.958Z" fill="#E0E0E0"/>
<path d="M274.25 267.471C276.791 263.329 281.662 260.625 286.516 260.379C285.956 262.353 284.334 263.887 282.504 264.814C280.674 265.741 278.63 266.145 276.616 266.536C275.833 266.689 274.758 266.856 274.25 267.471Z" fill="#E0E0E0"/>
<path d="M272.301 255.407C272.989 253.05 273.681 250.672 273.87 248.223C274.058 245.775 273.71 243.219 272.439 241.118C270.066 245.711 269.826 251.076 272.23 255.653" fill="#E0E0E0"/>
<path d="M280.289 251.368C283.065 246.324 288.727 242.294 294.457 241.73C292.247 247.233 286.219 251.486 280.289 251.368Z" fill="#E0E0E0"/>
<path d="M278.543 252.356C282.682 252.987 286.209 255.631 290.077 257.233C290.905 257.576 291.797 257.849 292.684 257.732C293.572 257.616 294.448 257.021 294.647 256.147C294.812 255.422 294.483 254.653 293.962 254.122C293.442 253.59 292.755 253.258 292.069 252.973C287.856 251.219 283.337 251.175 278.899 252.239" fill="#E0E0E0"/>
<path d="M276.148 255.259C277.085 255.528 277.406 256.013 278.148 256.645C280.666 258.789 283.685 260.34 286.894 261.138C287.228 261.221 287.667 261.254 287.832 260.952C287.977 260.689 287.794 260.369 287.606 260.134C286.262 258.452 284.344 257.301 282.325 256.549C280.307 255.798 278.558 254.891 276.148 255.086" fill="#E0E0E0"/>
<path d="M273.445 237.725C276.811 240.867 281.552 242.48 286.136 242.043C286.345 242.023 286.572 241.99 286.714 241.836C287.033 241.488 286.65 240.952 286.278 240.662C282.546 237.753 278.027 236.547 273.445 237.725Z" fill="#E0E0E0"/>
<path d="M276.648 236.552C281.098 233.217 287.199 232.21 292.484 233.939C290.49 235.905 287.723 236.962 284.938 237.252C282.153 237.542 279.365 237.233 276.648 236.552Z" fill="#E0E0E0"/>
<path d="M275.377 228.495C275.01 224.771 275.248 221.831 274.99 218.09C274.969 217.791 274.904 217.431 274.625 217.324C274.236 217.174 273.911 217.652 273.784 218.049C272.675 221.498 273.281 225.454 275.372 228.413" fill="#E0E0E0"/>
<path d="M275.109 228.907C277.634 227.346 279.527 225.308 281.278 222.911C282.497 221.244 283.524 219.247 283.247 217.201C281.536 217.166 279.91 218.11 278.797 219.411C277.684 220.71 277.022 222.336 276.528 223.974C276.034 225.612 275.689 227.297 275.109 228.907Z" fill="#E0E0E0"/>
<path d="M281.169 227.222C286.709 225.174 291.877 222.127 296.351 218.271C294.537 217.54 292.461 217.978 290.648 218.709C286.506 220.381 283.121 223.204 281.09 227.182" fill="#E0E0E0"/>
<path d="M276.812 230.944C279.615 231.251 282.462 231.45 285.243 230.985C287.975 230.528 290.558 229.445 293.113 228.37C293.324 228.281 293.555 228.174 293.647 227.964C293.748 227.736 293.641 227.458 293.456 227.291C293.271 227.124 293.025 227.043 292.784 226.977C290.008 226.2 287.012 226.564 284.279 227.485C281.548 228.406 279.308 229.5 276.812 230.944Z" fill="#E0E0E0"/>
<path d="M260.81 237.853C258.899 233.993 259.023 229.489 260.674 225.511C261.837 227.283 261.979 229.539 261.766 231.647C261.554 233.755 260.912 235.926 260.87 238.044" fill="#E0E0E0"/>
<path d="M253.17 234C248.396 233.909 243.621 235.943 240.379 239.449C242.762 239.823 245.215 239.209 247.383 238.15C249.55 237.092 251.477 235.607 253.385 234.133" fill="#E0E0E0"/>
<path d="M248.037 232.283C245.701 232.093 243.454 231.804 241.208 232.492C238.963 233.18 236.919 234.742 236.004 236.905C238.188 237.151 240.403 236.603 242.405 235.696C244.408 234.789 246.229 233.532 248.037 232.283Z" fill="#E0E0E0"/>
<path d="M255.641 232.361C253.54 230.984 251.382 229.583 248.936 229.012C246.49 228.442 243.655 228.863 241.949 230.707C243.929 231.869 246.332 232.006 248.628 232.004C250.924 232.003 253.739 231.976 255.903 232.742" fill="#E0E0E0"/>
<path d="M255.651 232.472C252.059 228.945 250.697 222.609 252.142 217.787C254.966 222.077 256.23 227.37 255.651 232.472Z" fill="#E0E0E0"/>
<path d="M265.527 222.479C266.204 220.904 266.681 219.252 267.289 217.649C267.897 216.045 268.652 214.469 269.8 213.196C270.948 211.923 272.536 210.975 274.249 210.89C273.177 215.743 269.954 220.079 265.615 222.505" fill="#E0E0E0"/>
<path d="M263.744 224.561C262.623 223.018 261.328 220.924 259.808 219.772C258.288 218.621 256.308 217.924 254.453 218.366C256.339 221.739 259.905 224.116 263.744 224.561Z" fill="#E0E0E0"/>
<path d="M264.101 222.607C263.366 220.74 262.626 218.854 262.329 216.869C262.032 214.885 262.212 212.765 263.227 211.034C265.199 214.761 265.834 218.762 264.201 222.65" fill="#E0E0E0"/>
<path d="M265.547 211.034C266.664 207.339 270.047 204.619 273.699 203.371C274.159 203.213 274.648 203.082 275.128 203.156C275.609 203.231 276.081 203.56 276.182 204.036C276.315 204.664 275.796 205.227 275.307 205.645C272.463 208.077 269.121 209.923 265.547 211.034Z" fill="#E0E0E0"/>
<path d="M265.586 208.013C265.728 205.631 265.877 203.214 266.652 200.957C267.427 198.699 268.92 196.582 271.092 195.595C271.461 198.001 270.4 200.394 269.12 202.465C267.84 204.535 266.297 206.489 265.527 208.799" fill="#E0E0E0"/>
<path d="M265.529 209.652C264.607 206.96 264.511 203.54 262.898 201.194C261.771 199.555 259.967 198.438 258.996 196.701C258.351 198.323 258.548 200.192 259.223 201.802C259.897 203.412 261.012 204.797 262.205 206.072C263.398 207.346 264.42 208.305 265.529 209.652Z" fill="#E0E0E0"/>
<path d="M265.545 288.947C265.474 288.947 265.412 270.985 265.407 248.833C265.401 226.673 265.456 208.714 265.528 208.714C265.599 208.714 265.661 226.673 265.666 248.833C265.672 270.985 265.617 288.947 265.545 288.947Z" fill="#E0E0E0"/>
<path d="M281.243 235.142C281.248 235.16 281.008 235.249 280.568 235.396C280.083 235.56 279.458 235.77 278.709 236.023C277.142 236.557 274.99 237.33 272.653 238.287C270.339 239.28 268.158 240.086 266.915 241.162C266.295 241.693 265.938 242.268 265.762 242.687C265.584 243.109 265.552 243.367 265.528 243.363C265.52 243.361 265.523 243.297 265.536 243.174C265.557 243.053 265.588 242.872 265.668 242.651C265.82 242.208 266.166 241.593 266.793 241.025C267.418 240.456 268.287 239.944 269.283 239.478C270.279 239.014 271.383 238.529 272.554 238.047C274.898 237.087 277.068 236.339 278.652 235.848C279.444 235.601 280.09 235.419 280.538 235.299C280.987 235.181 281.238 235.125 281.243 235.142Z" fill="#E0E0E0"/>
<path d="M286.387 222.504C286.393 222.511 286.328 222.58 286.198 222.706C286.045 222.85 285.854 223.029 285.621 223.248C285.086 223.734 284.357 224.396 283.469 225.202C281.612 226.857 279.092 229.1 276.308 231.579C273.512 234.068 271.096 236.446 269.422 238.236C268.584 239.13 267.923 239.871 267.473 240.388C267.263 240.628 267.091 240.824 266.953 240.982C266.833 241.117 266.765 241.185 266.758 241.179C266.751 241.174 266.805 241.095 266.912 240.95C267.021 240.805 267.179 240.59 267.395 240.324C267.823 239.786 268.463 239.025 269.287 238.113C270.931 236.285 273.334 233.88 276.135 231.387C278.94 228.904 281.493 226.674 283.349 225.066C284.259 224.285 285.006 223.644 285.555 223.173C285.8 222.969 286.002 222.802 286.163 222.668C286.304 222.554 286.381 222.497 286.387 222.504Z" fill="#E0E0E0"/>
<path d="M273.291 234.109C273.218 234.077 273.802 232.728 274.384 231.023C274.971 229.318 275.247 227.878 275.322 227.891C275.39 227.898 275.225 229.379 274.63 231.106C274.337 231.968 274.014 232.726 273.76 233.265C273.506 233.804 273.323 234.124 273.291 234.109Z" fill="#E0E0E0"/>
<path d="M265.563 244.982C265.548 244.992 265.396 244.813 265.132 244.482C264.84 244.107 264.47 243.633 264.029 243.067C263.101 241.869 261.82 240.214 260.384 238.404C258.947 236.594 257.626 234.97 256.67 233.796C256.219 233.238 255.841 232.769 255.542 232.4C255.279 232.068 255.14 231.878 255.153 231.867C255.167 231.855 255.332 232.022 255.619 232.334C255.907 232.646 256.314 233.105 256.811 233.677C257.804 234.823 259.149 236.43 260.587 238.243C262.026 240.056 263.286 241.729 264.176 242.957C264.621 243.571 264.976 244.071 265.214 244.422C265.452 244.772 265.578 244.971 265.563 244.982Z" fill="#E0E0E0"/>
<path d="M262.122 240.563C262.08 240.609 261.162 239.519 260.68 237.864C260.325 236.697 260.31 235.63 260.353 235.142L260.468 235.151C260.417 235.359 260.379 235.469 260.358 235.466C260.338 235.462 260.337 235.347 260.354 235.133L260.468 235.142C260.511 235.626 260.584 236.657 260.929 237.79C261.394 239.394 262.192 240.519 262.122 240.563Z" fill="#E0E0E0"/>
<path d="M257.677 234.973C257.644 235.009 257.348 234.637 256.671 234.388C255.998 234.128 254.986 234.071 253.876 234.166C252.764 234.248 251.771 234.446 251.061 234.621C250.351 234.797 249.916 234.935 249.903 234.899C249.891 234.868 250.304 234.668 251.012 234.444C251.718 234.222 252.724 233.991 253.856 233.908C254.979 233.811 256.044 233.898 256.739 234.219C257.444 234.531 257.7 234.968 257.677 234.973Z" fill="#E0E0E0"/>
<path d="M256.624 233.619C256.604 233.66 256.038 233.384 255.082 233.057C254.128 232.729 252.768 232.385 251.233 232.265C249.698 232.15 248.302 232.285 247.309 232.465C246.314 232.643 245.713 232.829 245.699 232.786C245.694 232.769 245.839 232.708 246.108 232.612C246.376 232.512 246.775 232.398 247.273 232.285C248.269 232.056 249.69 231.89 251.253 232.006C252.816 232.128 254.195 232.508 255.145 232.885C255.62 233.073 255.997 233.245 256.246 233.385C256.497 233.521 256.633 233.603 256.624 233.619Z" fill="#E0E0E0"/>
<path d="M265.529 227.891C265.459 227.909 264.956 226.159 264.404 223.985C263.853 221.809 263.462 220.031 263.531 220.013C263.601 219.996 264.104 221.745 264.657 223.921C265.208 226.095 265.599 227.873 265.529 227.891Z" fill="#E0E0E0"/>
<path d="M265.602 227.891C265.525 227.916 265.201 226.747 264.355 225.552C263.532 224.331 262.482 223.719 262.521 223.658C262.534 223.631 262.824 223.738 263.229 224.024C263.635 224.306 264.136 224.784 264.568 225.403C265.445 226.646 265.665 227.887 265.602 227.891Z" fill="#E0E0E0"/>
<path d="M265.549 279.372C265.52 279.377 265.468 278.94 265.265 278.178C265.065 277.415 264.688 276.333 264.065 275.068C262.824 272.532 260.566 269.317 257.696 266.096C256.275 264.472 254.895 262.939 253.725 261.472C252.552 260.007 251.588 258.611 250.884 257.375C250.178 256.141 249.719 255.082 249.451 254.335C249.319 253.961 249.222 253.668 249.169 253.466C249.112 253.265 249.087 253.158 249.095 253.156C249.119 253.148 249.249 253.567 249.545 254.299C249.841 255.03 250.322 256.07 251.044 257.283C251.762 258.497 252.735 259.872 253.912 261.322C255.088 262.774 256.469 264.298 257.894 265.925C260.77 269.155 263.023 272.41 264.232 274.988C264.839 276.275 265.194 277.377 265.365 278.154C265.448 278.543 265.504 278.845 265.524 279.055C265.549 279.261 265.558 279.371 265.549 279.372Z" fill="#E0E0E0"/>
<path d="M279.733 263.351C279.741 263.37 279.47 263.508 278.99 263.768C278.513 264.036 277.836 264.449 277.061 265.043C276.286 265.637 275.419 266.416 274.529 267.353C273.64 268.292 272.725 269.382 271.79 270.55C269.922 272.895 268.175 274.969 267.129 276.625C266.597 277.446 266.211 278.138 265.958 278.624C265.703 279.109 265.568 279.381 265.548 279.372C265.54 279.368 265.564 279.296 265.618 279.162C265.673 279.028 265.748 278.828 265.867 278.579C266.094 278.077 266.458 277.366 266.973 276.527C267.989 274.831 269.723 272.728 271.588 270.388C272.524 269.218 273.451 268.125 274.356 267.188C275.264 266.252 276.153 265.478 276.951 264.897C277.749 264.315 278.448 263.922 278.942 263.679C279.189 263.556 279.39 263.48 279.523 263.423C279.657 263.368 279.729 263.343 279.733 263.351Z" fill="#E0E0E0"/>
<path d="M280.01 268.548C280.013 268.586 279.41 268.659 278.439 268.777C277.471 268.902 276.124 269.064 274.712 269.511C273.306 269.969 272.137 270.667 271.376 271.262C270.607 271.857 270.244 272.348 270.208 272.319C270.196 272.31 270.271 272.177 270.441 271.958C270.61 271.738 270.885 271.444 271.26 271.12C272.009 270.474 273.19 269.734 274.633 269.264C276.078 268.806 277.444 268.674 278.42 268.594C279.4 268.523 280.007 268.514 280.01 268.548Z" fill="#E0E0E0"/>
<path d="M270.667 271.748C270.585 271.701 271.293 270.62 271.842 269.165C272.357 267.697 272.478 266.41 272.57 266.424C272.603 266.428 272.602 266.75 272.544 267.267C272.482 267.782 272.358 268.499 272.086 269.253C271.811 270.006 271.451 270.636 271.174 271.075C270.895 271.513 270.696 271.766 270.667 271.748Z" fill="#E0E0E0"/>
<path d="M284.324 249.398C284.327 249.406 284.241 249.452 284.073 249.532C283.877 249.62 283.634 249.731 283.334 249.867C283.011 250.006 282.618 250.181 282.176 250.415C281.731 250.644 281.214 250.879 280.674 251.204C280.4 251.359 280.114 251.522 279.817 251.691C279.52 251.862 279.226 252.065 278.913 252.26C278.281 252.644 277.648 253.116 276.972 253.598C275.65 254.602 274.26 255.789 272.922 257.161C271.596 258.546 270.457 259.976 269.499 261.332C269.04 262.024 268.59 262.673 268.228 263.318C268.043 263.637 267.851 263.938 267.69 264.241C267.531 264.543 267.378 264.835 267.232 265.114C266.927 265.664 266.709 266.19 266.495 266.642C266.277 267.092 266.115 267.49 265.988 267.818C265.862 268.122 265.759 268.37 265.677 268.568C265.603 268.738 265.561 268.826 265.552 268.824C265.544 268.821 265.57 268.727 265.628 268.55C265.698 268.347 265.785 268.093 265.893 267.782C266.006 267.448 266.156 267.042 266.362 266.584C266.563 266.125 266.771 265.591 267.068 265.032C267.21 264.749 267.359 264.453 267.513 264.146C267.67 263.839 267.86 263.533 268.043 263.21C268.398 262.556 268.845 261.898 269.301 261.197C270.255 259.824 271.399 258.378 272.735 256.982C274.084 255.599 275.49 254.407 276.83 253.407C277.515 252.927 278.157 252.458 278.798 252.081C279.116 251.887 279.415 251.688 279.716 251.52C280.018 251.355 280.309 251.196 280.587 251.044C281.136 250.729 281.662 250.503 282.114 250.285C282.564 250.064 282.964 249.901 283.295 249.776C283.602 249.658 283.854 249.562 284.054 249.485C284.228 249.419 284.321 249.389 284.324 249.398Z" fill="#E0E0E0"/>
<path d="M273.1 256.919C273.077 256.915 273.203 256.479 273.717 256C274.22 255.521 275.137 255.078 276.204 255.046C277.269 255.018 278.191 255.315 278.821 255.557C279.455 255.806 279.823 256.008 279.811 256.038C279.796 256.074 279.401 255.932 278.761 255.731C278.123 255.535 277.221 255.278 276.213 255.306C275.208 255.336 274.34 255.724 273.837 256.14C273.324 256.553 273.142 256.944 273.1 256.919Z" fill="#E0E0E0"/>
<path d="M271.42 258.65C271.349 258.611 271.982 257.683 272.126 256.353C272.291 255.025 271.889 253.976 271.967 253.954C271.996 253.942 272.137 254.186 272.259 254.623C272.382 255.058 272.463 255.691 272.383 256.383C272.302 257.074 272.077 257.671 271.857 258.066C271.638 258.463 271.445 258.668 271.42 258.65Z" fill="#E0E0E0"/>
<path d="M253.141 281.946C253.528 288.81 255.596 295.791 258.778 302.849H272.614C275.648 295.861 277.574 288.891 277.916 281.946H253.141Z" fill="#E0E0E0"/>
<path d="M275.672 293.053C275.672 293.125 271.117 293.183 265.499 293.183C259.879 293.183 255.324 293.125 255.324 293.053C255.324 292.982 259.878 292.923 265.499 292.923C271.117 292.923 275.672 292.982 275.672 293.053Z" fill="#FAFAFA"/>
<path d="M275.365 295.54C275.365 295.612 271.094 295.67 265.828 295.67C260.559 295.67 256.289 295.612 256.289 295.54C256.289 295.469 260.558 295.411 265.828 295.411C271.094 295.411 275.365 295.469 275.365 295.54Z" fill="#FAFAFA"/>
<path d="M259.001 286.453C259.073 286.453 259.131 287.88 259.131 289.639C259.131 291.4 259.073 292.826 259.001 292.826C258.929 292.826 258.871 291.4 258.871 289.639C258.872 287.88 258.929 286.453 259.001 286.453Z" fill="#FAFAFA"/>
<path d="M266.415 286.452C266.487 286.452 266.545 287.93 266.545 289.753C266.545 291.576 266.487 293.053 266.415 293.053C266.343 293.053 266.285 291.576 266.285 289.753C266.286 287.93 266.343 286.452 266.415 286.452Z" fill="#FAFAFA"/>
<path d="M273.376 286.397C273.448 286.397 273.506 287.904 273.506 289.762C273.506 291.622 273.448 293.129 273.376 293.129C273.304 293.129 273.246 291.622 273.246 289.762C273.246 287.904 273.304 286.397 273.376 286.397Z" fill="#FAFAFA"/>
<path d="M277.476 286.452C277.476 286.524 272.133 286.582 265.543 286.582C258.951 286.582 253.609 286.524 253.609 286.452C253.609 286.381 258.951 286.323 265.543 286.323C272.133 286.323 277.476 286.381 277.476 286.452Z" fill="#FAFAFA"/>
<path d="M302.746 302.732C302.746 302.824 238.832 302.898 160.009 302.898C81.158 302.898 17.2578 302.824 17.2578 302.732C17.2578 302.64 81.158 302.566 160.009 302.566C238.832 302.566 302.746 302.64 302.746 302.732Z" fill="#263238"/>
<path d="M223.375 46.0833H68.1641V260.254H223.375V46.0833Z" fill="white"/>
<path d="M223.373 260.254C223.373 258.915 223.312 172.755 223.222 46.0832L223.373 46.2343C176.585 46.2388 123.818 46.2439 68.1804 46.2496H68.1625L68.3289 46.0832C68.3174 126.157 68.3065 200.271 68.2982 260.253L68.1625 260.118C162.31 260.2 222.255 260.253 223.373 260.254C222.256 260.255 162.31 260.307 68.1625 260.39H68.0268V260.254C68.0179 200.272 68.0076 126.157 67.9961 46.0839V45.9175H68.1631H68.181C123.819 45.9232 176.586 45.9284 223.374 45.9328H223.525V46.0839C223.435 172.754 223.375 258.916 223.373 260.254Z" fill="#263238"/>
<path d="M222.447 193.614C222.447 193.706 188.114 193.781 145.772 193.781C103.415 193.781 69.0898 193.706 69.0898 193.614C69.0898 193.523 103.416 193.448 145.772 193.448C188.114 193.448 222.447 193.523 222.447 193.614Z" fill="#263238"/>
<path d="M117.611 80.5833C119.318 73.2819 114.783 65.9787 107.482 64.2712C100.18 62.5638 92.8772 67.0986 91.1697 74.4001C89.4623 81.7016 93.9971 89.0048 101.299 90.7122C108.6 92.4197 115.903 87.8848 117.611 80.5833Z" fill="#FF6477"/>
<path d="M103.88 84.5498C100.865 84.5498 98.4219 82.233 98.4219 79.3754V71.6903L103.88 72.8321L109.339 71.6903V79.3754C109.339 82.2337 106.895 84.5498 103.88 84.5498Z" fill="white"/>
<path d="M161.944 75.2122H129.756C128.633 75.2122 127.723 74.3021 127.723 73.1789V72.9683C127.723 71.8451 128.633 70.9351 129.756 70.9351H161.944C163.067 70.9351 163.977 71.8458 163.977 72.9683V73.1789C163.977 74.3021 163.067 75.2122 161.944 75.2122Z" fill="#FF6477"/>
<path d="M201.353 130.697H90.1856C89.0624 130.697 88.1523 129.786 88.1523 128.664V128.453C88.1523 127.33 89.0624 126.42 90.1856 126.42H201.353C202.476 126.42 203.386 127.33 203.386 128.453V128.664C203.386 129.787 202.476 130.697 201.353 130.697Z" fill="#E0E0E0"/>
<path d="M201.353 143.524H90.1856C89.0624 143.524 88.1523 142.613 88.1523 141.491V141.28C88.1523 140.157 89.0624 139.247 90.1856 139.247H201.353C202.476 139.247 203.386 140.157 203.386 141.28V141.491C203.386 142.613 202.476 143.524 201.353 143.524Z" fill="#E0E0E0"/>
<path d="M201.353 189.964H90.1856C89.0624 189.964 88.1523 189.054 88.1523 187.931V187.72C88.1523 186.597 89.0624 185.687 90.1856 185.687H201.353C202.476 185.687 203.386 186.597 203.386 187.72V187.931C203.386 189.054 202.476 189.964 201.353 189.964Z" fill="#E0E0E0"/>
<path d="M201.353 203.621H90.1856C89.0624 203.621 88.1523 202.71 88.1523 201.587V201.377C88.1523 200.253 89.0624 199.343 90.1856 199.343H201.353C202.476 199.343 203.386 200.253 203.386 201.377V201.587C203.386 202.71 202.476 203.621 201.353 203.621Z" fill="#E0E0E0"/>
<path d="M201.353 217.276H90.1856C89.0624 217.276 88.1523 216.366 88.1523 215.243V215.032C88.1523 213.909 89.0624 212.999 90.1856 212.999H201.353C202.476 212.999 203.386 213.909 203.386 215.032V215.243C203.386 216.366 202.476 217.276 201.353 217.276Z" fill="#E0E0E0"/>
<path d="M201.595 119.926H90.4278C89.3046 119.926 88.3945 119.016 88.3945 117.893V117.682C88.3945 116.559 89.3046 115.649 90.4278 115.649H201.595C202.718 115.649 203.628 116.559 203.628 117.682V117.893C203.628 119.016 202.718 119.926 201.595 119.926Z" fill="#E0E0E0"/>
<path d="M118.357 106.941H90.4278C89.3046 106.941 88.3945 106.031 88.3945 104.908V104.697C88.3945 103.574 89.3046 102.664 90.4278 102.664H118.357C119.48 102.664 120.39 103.574 120.39 104.697V104.908C120.39 106.031 119.48 106.941 118.357 106.941Z" fill="#E0E0E0"/>
<path d="M194.639 84.0391H129.233C128.109 84.0391 127.199 83.129 127.199 82.0058V81.7952C127.199 80.672 128.109 79.762 129.233 79.762H194.639C195.762 79.762 196.672 80.672 196.672 81.7952V82.0058C196.672 83.1284 195.762 84.0391 194.639 84.0391Z" fill="#E0E0E0"/>
<path d="M103.891 167.395H97.8626L96.7125 170.178H93.6328L99.421 157.192H102.389L108.196 170.178H105.042L103.891 167.395ZM102.945 165.114L100.887 160.142L98.8271 165.114H102.945Z" fill="#FF6477"/>
<path d="M109.551 157.192H115.45C116.86 157.192 118.106 157.461 119.188 157.999C120.27 158.538 121.111 159.295 121.711 160.272C122.31 161.249 122.611 162.387 122.611 163.685C122.611 164.983 122.31 166.122 121.711 167.098C121.11 168.075 120.27 168.833 119.188 169.371C118.106 169.909 116.86 170.178 115.45 170.178H109.551V157.192ZM115.301 167.71C116.6 167.71 117.635 167.349 118.408 166.625C119.181 165.901 119.567 164.922 119.567 163.685C119.567 162.448 119.181 161.468 118.408 160.744C117.635 160.021 116.6 159.659 115.301 159.659H112.556V167.71H115.301Z" fill="#FF6477"/>
<path d="M136.691 170.178L136.673 162.387L132.851 168.805H131.497L127.694 162.554V170.178H124.875V157.192H127.361L132.222 165.262L137.007 157.192H139.475L139.512 170.178H136.691Z" fill="#FF6477"/>
<path d="M142.59 157.192H145.595V170.178H142.59V157.192Z" fill="#FF6477"/>
<path d="M151.362 159.641H147.207V157.192H158.524V159.641H154.367V170.177H151.362V159.641Z" fill="#FF6477"/>
<path d="M163.014 159.641H158.859V157.192H170.176V159.641H166.02V170.177H163.015L163.014 159.641Z" fill="#FF6477"/>
<path d="M181.843 167.766V170.178H171.789V157.192H181.602V159.604H174.775V162.424H180.805V164.761H174.775V167.766H181.843Z" fill="#FF6477"/>
<path d="M184.234 157.192H190.133C191.543 157.192 192.789 157.461 193.871 157.999C194.953 158.538 195.795 159.295 196.394 160.272C196.994 161.249 197.294 162.387 197.294 163.685C197.294 164.983 196.993 166.122 196.394 167.098C195.794 168.075 194.953 168.833 193.871 169.371C192.789 169.909 191.543 170.178 190.133 170.178H184.234V157.192ZM189.985 167.71C191.283 167.71 192.319 167.349 193.092 166.625C193.864 165.901 194.251 164.922 194.251 163.685C194.251 162.448 193.864 161.468 193.092 160.744C192.319 160.021 191.283 159.659 189.985 159.659H187.239V167.71H189.985Z" fill="#FF6477"/>
<path d="M204.965 177.864H86.7344V148.961H204.965V177.864ZM87.3744 177.224H204.325V149.601H87.3744V177.224Z" fill="#FF6477"/>
<path d="M194.64 239.459C194.495 239.464 194.467 238.59 194.02 237.152C193.578 235.74 192.562 233.7 190.422 232.159C189.362 231.406 188.045 230.775 186.543 230.538C185.049 230.31 183.377 230.379 181.798 231.001C181.003 231.286 180.237 231.713 179.536 232.247C178.825 232.771 178.182 233.418 177.652 234.165C176.557 235.638 175.945 237.517 175.925 239.458C175.945 241.4 176.556 243.279 177.652 244.753C178.181 245.501 178.825 246.148 179.535 246.671C180.237 247.206 181.002 247.633 181.798 247.918C183.377 248.54 185.05 248.609 186.543 248.382C188.046 248.143 189.362 247.513 190.423 246.76C192.562 245.219 193.578 243.18 194.02 241.767C194.466 240.329 194.495 239.455 194.64 239.459C194.722 239.454 194.925 240.335 194.649 241.925C194.522 242.719 194.204 243.67 193.659 244.689C193.109 245.703 192.288 246.774 191.137 247.697C189.991 248.611 188.518 249.4 186.797 249.74C185.088 250.069 183.144 250.044 181.274 249.361C180.335 249.046 179.425 248.565 178.588 247.951C177.742 247.347 176.973 246.595 176.336 245.72C175.024 243.994 174.275 241.757 174.258 239.458C174.276 237.16 175.025 234.923 176.337 233.199C176.973 232.324 177.743 231.571 178.588 230.968C179.425 230.354 180.335 229.873 181.274 229.558C183.144 228.876 185.088 228.851 186.796 229.18C188.517 229.519 189.99 230.308 191.137 231.222C192.287 232.144 193.109 233.215 193.658 234.23C194.203 235.249 194.522 236.199 194.648 236.994C194.924 238.584 194.722 239.466 194.64 239.459Z" fill="#FF6477"/>
<path d="M153.33 243.104C153.334 243.109 153.266 243.169 153.13 243.283C152.996 243.399 152.789 243.562 152.51 243.768C151.95 244.172 151.095 244.748 149.879 245.262C148.672 245.767 147.066 246.228 145.177 246.077C144.24 246.001 143.242 245.772 142.27 245.32C141.301 244.872 140.347 244.202 139.608 243.258C138.865 242.321 138.377 241.11 138.277 239.807C138.176 238.513 138.475 237.091 139.338 235.953C139.763 235.383 140.338 234.908 141.009 234.6C141.675 234.295 142.474 234.163 143.224 234.392C143.978 234.607 144.6 235.176 144.985 235.856C145.377 236.538 145.563 237.341 145.521 238.145C145.42 239.779 144.443 241.213 143.312 242.374C142.159 243.539 140.851 244.59 139.409 245.493C137.967 246.393 136.397 247.146 134.734 247.709C133.071 248.26 131.313 248.671 129.493 248.692C127.692 248.712 125.824 248.294 124.404 247.174C122.981 246.068 122.11 244.431 121.719 242.768C121.321 241.089 121.44 239.365 121.801 237.77C122.179 236.17 122.76 234.675 123.477 233.278C123.857 232.59 124.3 231.939 124.855 231.396C125.401 230.856 126.081 230.401 126.856 230.285C127.623 230.15 128.428 230.395 128.995 230.884C129.568 231.372 129.932 232.04 130.113 232.728C130.478 234.145 129.973 235.54 129.328 236.64C129 237.199 128.631 237.717 128.24 238.194C127.861 238.682 127.454 239.129 127.056 239.565C126.238 240.415 125.39 241.155 124.549 241.803C123.697 242.437 122.855 242.982 122.037 243.436C120.402 244.349 118.875 244.902 117.613 245.266C116.349 245.636 115.332 245.773 114.649 245.873C114.317 245.903 114.058 245.926 113.865 245.944C113.689 245.958 113.598 245.962 113.598 245.957C113.597 245.951 113.687 245.935 113.862 245.91C114.053 245.885 114.311 245.85 114.64 245.807C115.317 245.686 116.325 245.529 117.576 245.141C118.825 244.76 120.332 244.194 121.945 243.272C122.752 242.815 123.581 242.268 124.419 241.633C125.247 240.985 126.081 240.248 126.884 239.402C127.274 238.968 127.674 238.525 128.044 238.04C128.429 237.566 128.787 237.055 129.104 236.509C129.728 235.436 130.19 234.099 129.845 232.796C129.673 232.156 129.329 231.539 128.81 231.101C128.298 230.664 127.586 230.451 126.9 230.573C126.211 230.678 125.582 231.092 125.065 231.608C124.54 232.124 124.112 232.755 123.746 233.423C123.051 234.785 122.474 236.278 122.11 237.839C121.76 239.402 121.649 241.075 122.035 242.692C122.414 244.298 123.257 245.865 124.606 246.911C125.95 247.971 127.735 248.377 129.488 248.358C131.256 248.338 132.986 247.937 134.625 247.394C136.265 246.84 137.812 246.1 139.233 245.215C140.654 244.328 141.948 243.291 143.081 242.151C144.192 241.019 145.118 239.638 145.212 238.127C145.304 236.657 144.5 235.079 143.137 234.672C142.471 234.465 141.744 234.577 141.123 234.858C140.499 235.142 139.955 235.586 139.555 236.119C138.736 237.189 138.439 238.543 138.53 239.787C138.62 241.039 139.082 242.208 139.79 243.112C140.496 244.025 141.416 244.684 142.356 245.126C143.299 245.574 144.273 245.807 145.189 245.891C147.035 246.056 148.624 245.622 149.826 245.141C151.037 244.65 151.898 244.095 152.468 243.711C152.752 243.516 152.965 243.362 153.106 243.255C153.251 243.151 153.326 243.1 153.33 243.104Z" fill="#263238"/>
<path d="M184.867 245.239C182.472 245.239 180.531 243.399 180.531 241.13V235.026L184.867 235.933L189.202 235.026V241.13C189.202 243.399 187.261 245.239 184.867 245.239Z" fill="#FF6477"/>
<path d="M222.447 118.129C222.447 118.221 188.114 118.295 145.772 118.295C103.415 118.295 69.0898 118.22 69.0898 118.129C69.0898 118.037 103.416 117.962 145.772 117.962C188.114 117.962 222.447 118.037 222.447 118.129Z" fill="#263238"/>
<path d="M47.5092 281.551C47.5092 281.551 44.3502 259.832 44.6132 247.196C44.8763 234.56 44.5979 220.344 44.5979 220.344H46.0532C46.0532 220.344 45.0676 245.426 46.1403 260.553C47.2123 275.669 50.0372 281.551 50.0372 281.551H47.5092Z" fill="#263238"/>
<path d="M56.9173 195.908C56.6248 195.166 56.2645 194.393 55.5912 193.966C54.6677 193.381 53.4568 193.624 52.4264 193.989C48.0284 195.544 44.1288 203.745 42.3516 208.058L48.1909 227.733C58.7298 217.955 60.5551 205.128 56.9173 195.908Z" fill="#455A64"/>
<path d="M55.2521 194.762C55.2598 194.765 55.2303 194.854 55.1676 195.019C55.0927 195.207 54.998 195.444 54.8815 195.736C54.6255 196.355 54.2665 197.255 53.8371 198.372C52.9769 200.607 51.8812 203.731 50.902 207.249C49.9267 210.771 49.2547 214.012 48.8406 216.37C48.6326 217.549 48.4758 218.506 48.3759 219.168C48.3254 219.477 48.2838 219.729 48.2511 219.93C48.2198 220.103 48.1999 220.194 48.1916 220.193C48.1833 220.192 48.1878 220.099 48.2031 219.923C48.2243 219.722 48.2505 219.467 48.2831 219.155C48.3542 218.488 48.4854 217.526 48.6723 216.342C49.0447 213.972 49.6918 210.715 50.6697 207.185C51.6515 203.656 52.7753 200.532 53.6783 198.31C54.1289 197.198 54.5123 196.307 54.7951 195.698C54.9283 195.414 55.0364 195.182 55.1228 194.998C55.2003 194.84 55.2444 194.758 55.2521 194.762Z" fill="#263238"/>
<path d="M45.5958 232.451C40.1225 229.427 36.8969 223.736 36.5961 217.491C36.3855 213.125 37.727 208.84 39.247 204.742C39.3788 204.386 39.5356 204.003 39.8652 203.816C40.3241 203.557 40.8988 203.788 41.3571 204.049C45.334 206.314 47.7436 210.631 49.0262 215.025C49.8793 217.948 50.3209 221.031 49.9267 224.051C49.5318 227.07 47.8057 230.356 45.5958 232.451Z" fill="#455A64"/>
<path d="M45.5967 232.451C45.5884 232.451 45.5814 232.36 45.575 232.187C45.5711 231.988 45.5667 231.738 45.5603 231.432C45.5583 230.776 45.5321 229.828 45.4783 228.658C45.3727 226.318 45.0662 223.092 44.4627 219.569C43.8553 216.044 43.1187 212.889 42.5759 210.608C42.3084 209.492 42.0889 208.577 41.9283 207.907C41.8598 207.609 41.8041 207.365 41.7599 207.171C41.7241 207.002 41.7087 206.912 41.7171 206.909C41.7254 206.908 41.7561 206.993 41.8067 207.158C41.8623 207.35 41.9327 207.59 42.0191 207.884C42.199 208.515 42.4479 209.431 42.7417 210.567C43.3273 212.839 44.0915 215.994 44.7007 219.528C45.3062 223.062 45.5878 226.303 45.6492 228.652C45.6812 229.825 45.6819 230.776 45.655 231.432C45.6428 231.739 45.6326 231.989 45.6243 232.188C45.614 232.36 45.6051 232.451 45.5967 232.451Z" fill="#263238"/>
<g opacity="0.3">
<path d="M45.5958 232.451C40.1225 229.427 36.8969 223.736 36.5961 217.491C36.3855 213.125 37.727 208.84 39.247 204.742C39.3788 204.386 39.5356 204.003 39.8652 203.816C40.3241 203.557 40.8988 203.788 41.3571 204.049C45.334 206.314 47.7436 210.631 49.0262 215.025C49.8793 217.948 50.3209 221.031 49.9267 224.051C49.5318 227.07 47.8057 230.356 45.5958 232.451Z" fill="black"/>
</g>
<path d="M51.7695 265.681C57.1564 266.865 61.5916 270.664 66.7884 272.512C70.2265 273.734 74.1151 274.167 76.8601 276.571C76.2015 274.908 74.6399 273.8 73.1225 272.852C68.8486 270.183 64.2726 267.999 59.5097 266.354C57.0649 265.51 54.4121 264.804 51.9206 265.5" fill="#455A64"/>
<path d="M43.9824 270.48C37.2362 270.371 30.1335 264.628 23.418 264.285C30.4452 262.017 40.5066 263.87 43.9824 270.48Z" fill="#455A64"/>
<path d="M46.6172 254.297C50.0431 253.062 53.8037 253.004 57.4025 253.563C61.0005 254.122 64.4757 255.276 67.9311 256.425C67.5849 254.085 65.6892 252.325 63.9087 250.766C62.5685 249.594 61.2181 248.414 59.6809 247.516C58.1436 246.618 56.3893 246.01 54.6101 246.086C52.4642 246.177 50.4213 247.284 49.014 248.906C47.6066 250.529 46.8501 252.162 46.6172 254.297Z" fill="#455A64"/>
<path d="M32.7735 246.849C28.5264 243.223 22.0944 243.578 16.5117 243.703C25.0928 247.806 34.3402 253.431 41.7309 259.419C41.9581 255.473 38.1373 251.429 32.7735 246.849Z" fill="#455A64"/>
<g opacity="0.3">
<path d="M32.7735 246.849C28.5264 243.223 22.0944 243.578 16.5117 243.703C25.0928 247.806 34.3402 253.431 41.7309 259.419C41.9581 255.473 38.1373 251.429 32.7735 246.849Z" fill="black"/>
</g>
<path d="M48.5306 241.844C50.6657 240.421 52.8263 239.064 55.0612 238.048C57.2961 237.032 59.3818 235.414 61.5406 234.246C64.3399 232.73 66.7649 230.623 69.3345 228.744C71.9041 226.865 74.7265 225.168 77.8702 224.671C75.3063 224.142 72.6273 224.43 70.1018 225.12C67.5764 225.809 65.1777 226.889 62.7905 227.964C59.4778 229.457 56.1076 230.986 53.3998 233.408C50.6919 235.831 48.2446 238.222 48.5306 241.844Z" fill="#455A64"/>
<path d="M66.669 270.48C66.6651 270.487 66.5915 270.455 66.4552 270.388C66.2959 270.305 66.1019 270.205 65.8664 270.083C65.3583 269.813 64.6287 269.412 63.7103 268.95C63.2559 268.71 62.7515 268.459 62.205 268.203C61.6642 267.934 61.076 267.669 60.4533 267.4C59.2079 266.868 57.8165 266.312 56.2991 265.952C54.7867 265.581 53.2795 265.5 51.972 265.843C51.3122 266.003 50.6914 266.16 50.1384 266.39C49.5835 266.615 49.0888 266.878 48.6581 267.15C47.7935 267.694 47.1899 268.271 46.7983 268.687C46.4072 269.105 46.2171 269.361 46.1999 269.349C46.1935 269.343 46.2351 269.276 46.3208 269.15C46.4053 269.023 46.5416 268.845 46.7285 268.624C47.1029 268.185 47.6975 267.58 48.5659 267.007C48.9986 266.721 49.4991 266.444 50.0629 266.206C50.6255 265.962 51.2603 265.793 51.9208 265.628C53.2571 265.262 54.8239 265.34 56.3547 265.718C57.8959 266.085 59.2936 266.65 60.5423 267.197C61.1663 267.473 61.7538 267.747 62.2927 268.024C62.8379 268.289 63.3384 268.549 63.789 268.799C64.6997 269.282 65.4178 269.706 65.9119 270.001C66.1384 270.139 66.3253 270.253 66.4789 270.346C66.6075 270.427 66.6728 270.473 66.669 270.48Z" fill="#263238"/>
<path d="M38.9495 267.137C38.9553 267.122 39.105 267.167 39.3719 267.261C39.6401 267.352 40.0177 267.513 40.4714 267.739C41.379 268.187 42.5732 268.95 43.6945 270.024C44.8126 271.102 45.6234 272.265 46.1079 273.154C46.3511 273.598 46.5278 273.969 46.6295 274.233C46.7345 274.496 46.785 274.644 46.7697 274.65C46.7306 274.668 46.4791 274.096 45.9607 273.239C45.4449 272.382 44.627 271.257 43.5281 270.198C42.426 269.142 41.2689 268.371 40.3921 267.889C39.5153 267.406 38.9342 267.177 38.9495 267.137Z" fill="#263238"/>
<path d="M24.0235 246.51C24.026 246.502 24.1252 246.532 24.3108 246.595C24.5195 246.669 24.7883 246.765 25.1204 246.883C25.4801 247.016 25.907 247.173 26.3972 247.354C26.8945 247.539 27.4353 247.812 28.0465 248.081C30.4753 249.184 33.7073 251.039 36.8292 253.677C38.3684 255.016 39.7604 256.379 40.9246 257.71C42.0843 259.044 43.066 260.298 43.8315 261.393C44.6014 262.485 45.1857 263.393 45.5857 264.022C45.7752 264.319 45.9281 264.559 46.0472 264.745C46.1515 264.911 46.2033 265.001 46.1969 265.005C46.1905 265.011 46.1252 264.93 46.0075 264.773C45.8897 264.615 45.7182 264.381 45.5076 264.073C45.0833 263.46 44.4785 262.567 43.6932 261.492C42.9131 260.413 41.9217 259.176 40.7588 257.857C39.5915 256.54 38.2033 255.192 36.6731 253.86C33.5704 251.239 30.3742 249.373 27.9736 248.235C27.3694 247.957 26.8363 247.674 26.3454 247.478C25.8622 247.283 25.4417 247.114 25.0872 246.97C24.762 246.835 24.499 246.725 24.2948 246.64C24.1144 246.563 24.0209 246.518 24.0235 246.51Z" fill="#263238"/>
<path d="M56.7403 250.505C56.7358 250.521 56.5438 250.495 56.2027 250.436C56.0171 250.402 55.8117 250.364 55.5832 250.321C55.3425 250.275 55.0609 250.273 54.7544 250.242C53.5409 250.154 51.7739 250.254 50.1182 251.156C49.283 251.58 48.5816 252.15 48.0088 252.722C47.427 253.29 46.9854 253.882 46.6526 254.399C45.9755 255.435 45.7669 256.183 45.7253 256.169C45.7118 256.166 45.7496 255.975 45.8622 255.643C45.9864 255.316 46.1771 254.843 46.508 254.309C46.828 253.771 47.2638 253.156 47.8513 252.566C48.4293 251.972 49.1461 251.38 50.0062 250.944C51.7144 250.013 53.5422 249.939 54.7697 250.072C55.0801 250.115 55.3649 250.129 55.6062 250.189C55.8341 250.246 56.0389 250.298 56.2238 250.344C56.5611 250.433 56.7448 250.489 56.7403 250.505Z" fill="#263238"/>
<path d="M63.5226 229.471C63.5265 229.479 63.4382 229.533 63.2673 229.629C63.0734 229.734 62.8238 229.869 62.5146 230.038C61.8599 230.39 60.9185 230.911 59.7742 231.585C58.6356 232.268 57.2935 233.107 55.8663 234.127C54.443 235.15 52.914 236.339 51.5028 237.783C50.8065 238.509 50.1652 239.269 49.7185 240.093C49.2769 240.942 48.8545 241.762 48.466 242.55C47.6858 244.124 47.0503 245.572 46.5915 246.817C46.1339 248.062 45.849 249.099 45.6794 249.821C45.5066 250.543 45.4446 250.95 45.4209 250.946C45.4126 250.945 45.4222 250.842 45.4478 250.648C45.4721 250.453 45.5131 250.166 45.5879 249.801C45.7294 249.069 45.9918 248.019 46.4315 246.758C46.8724 245.499 47.4951 244.035 48.267 242.452C48.651 241.66 49.0702 240.835 49.5092 239.985C49.9732 239.121 50.6247 238.352 51.33 237.615C52.7585 236.154 54.3003 234.964 55.7383 233.946C57.1796 232.931 58.5358 232.104 59.689 231.437C60.8481 230.78 61.8036 230.282 62.4724 229.954C62.7898 229.802 63.0465 229.68 63.2462 229.585C63.4234 229.503 63.5188 229.464 63.5226 229.471Z" fill="#263238"/>
<path d="M44.6044 249.898C44.5877 249.9 44.541 249.697 44.4706 249.329C44.3919 248.913 44.2933 248.391 44.1756 247.771C43.9183 246.458 43.526 244.649 42.9001 242.708C42.2799 240.765 41.5247 239.075 40.9737 237.855C40.7119 237.28 40.4917 236.797 40.3157 236.411C40.1621 236.068 40.0847 235.876 40.0994 235.868C40.1141 235.86 40.2204 236.04 40.3996 236.369C40.5788 236.699 40.8303 237.18 41.1273 237.782C41.7193 238.986 42.5039 240.676 43.1292 242.635C43.7596 244.59 44.1282 246.417 44.3433 247.741C44.4489 248.404 44.525 248.942 44.5634 249.316C44.6057 249.688 44.621 249.895 44.6044 249.898Z" fill="#263238"/>
<path d="M44.1185 234.549C43.9489 232.001 43.1188 229.524 41.9246 227.266C38.6503 221.075 32.4961 216.486 25.6289 215.114C30.658 222.609 35.6865 230.104 40.7156 237.6L42.6638 241.613C43.9931 239.432 44.2875 237.098 44.1185 234.549Z" fill="#455A64"/>
<path d="M65.7606 278.864H30.6797V285.082H65.7606V278.864Z" fill="#FF6477"/>
<path d="M33.2969 283.848L36.2844 303.142H59.574L63.1382 283.848H33.2969Z" fill="#FF6477"/>
<path d="M65.7398 285.089C65.7398 285.158 57.8269 285.213 48.0681 285.213C38.3056 285.213 30.3945 285.158 30.3945 285.089C30.3945 285.021 38.3056 284.966 48.0681 284.966C57.8269 284.966 65.7398 285.021 65.7398 285.089Z" fill="#263238"/>
<path d="M269.883 60.7635L266.384 48.3481L277.718 43.1334L266.632 37.8848L269.598 27.6313L259.512 31.4509L254.59 21.7843L249.617 32.7001L239.051 28.1024L242.43 39.2121L231.25 43.7184L241.516 50.631L237.441 60.3033L249.855 58.6118L253.605 70.3833L257.531 58.3021L269.883 60.7635Z" fill="white"/>
<path d="M269.882 60.7635C269.355 60.6618 265.348 59.888 257.515 58.3751L257.601 58.3251C256.523 61.6659 255.206 65.7523 253.702 70.4154L253.604 70.7181L253.506 70.4147C252.379 66.8935 251.108 62.9216 249.74 58.649L249.871 58.7315C246.02 59.2602 241.844 59.833 237.458 60.4352L237.227 60.4672L237.317 60.2515C238.605 57.1879 239.974 53.9328 241.385 50.5767L241.436 50.7482C238.168 48.5498 234.714 46.2266 231.167 43.8407L230.938 43.6858L231.195 43.5821C234.758 42.1447 238.529 40.6234 242.372 39.0727L242.285 39.2557C241.358 36.2087 240.376 32.9786 239.38 29.7075L238.905 28.1466L238.81 27.833L239.11 27.9635C242.69 29.5219 246.217 31.0573 249.675 32.5626L249.48 32.6381C251.178 28.9139 252.84 25.2698 254.456 21.7242L254.582 21.449L254.719 21.7191C256.406 25.0381 258.047 28.2631 259.636 31.3882L259.462 31.321C262.95 30.0032 266.318 28.7303 269.55 27.5098L269.796 27.4163L269.723 27.6691C268.675 31.2755 267.684 34.6887 266.745 37.9187L266.681 37.7767C270.714 39.6935 274.404 41.4471 277.76 43.0419L277.958 43.136L277.759 43.2269C273.343 45.2467 269.566 46.9747 266.414 48.4167L266.455 48.3283C268.644 56.2714 269.739 60.2432 269.882 60.7635C269.733 60.2451 268.592 56.2855 266.311 48.368L266.293 48.3066L266.352 48.2797C269.497 46.8243 273.266 45.0797 277.673 43.0407L277.672 43.2263C274.312 41.641 270.617 39.8983 266.578 37.9936L266.486 37.9501L266.514 37.8515C267.445 34.6189 268.429 31.2045 269.469 27.5955L269.641 27.7549C266.411 28.9811 263.045 30.2586 259.559 31.5821L259.442 31.6263L259.385 31.5143C257.793 28.3911 256.149 25.168 254.457 21.8503L254.72 21.8445C253.105 25.3914 251.446 29.0362 249.75 32.7616L249.689 32.8954L249.554 32.8365C246.096 31.3319 242.569 29.7978 238.989 28.2407L239.193 28.0583L239.668 29.6192C240.663 32.8896 241.645 36.1203 242.571 39.1674L242.612 39.2992L242.484 39.3504C238.639 40.8992 234.868 42.4179 231.304 43.8535L231.33 43.5949C234.875 45.9847 238.326 48.3111 241.592 50.5127L241.688 50.5773L241.643 50.6842C240.227 54.0384 238.854 57.2915 237.561 60.3533L237.421 60.1696C241.809 59.5763 245.985 59.0119 249.837 58.4915L249.937 58.4781L249.968 58.5741C251.323 62.8512 252.584 66.8269 253.7 70.3507L253.506 70.3501C255.03 65.6941 256.365 61.6128 257.458 58.2771L257.479 58.2131L257.544 58.2266C265.359 59.8343 269.357 60.6554 269.882 60.7635Z" fill="#263238"/>
<path d="M252.524 50.1824C252.512 49.0253 253.45 48.1017 254.758 48.0896C256.04 48.0781 256.968 48.9843 256.979 50.1414C256.991 51.2985 256.081 52.2489 254.799 52.2611C253.491 52.2733 252.535 51.3395 252.524 50.1824ZM252.829 36.1312L256.605 36.1005L256.075 45.8611L253.549 45.8822L252.829 36.1312Z" fill="#FF6477"/>
<path d="M277.223 207.404C277.223 207.404 277.934 209.884 270.515 211.051C263.097 212.217 247.388 213.09 239.679 212.944C231.969 212.799 226.565 212.124 223.002 207.151C219.845 202.744 220.245 199.29 224.317 198.272C228.39 197.254 252.624 204.73 257.424 202.073C262.225 199.416 276.368 202.008 277.223 207.404Z" fill="#455A64"/>
<path d="M235.921 168.516C236.155 168.92 237.269 181.457 237.269 181.457C237.269 181.457 233.128 197.608 231.222 207.671C229.186 218.415 229.517 235.354 230.71 238.414C232.814 243.804 267.885 266.978 267.885 266.978L272.961 259.714L244.064 229.512L252.423 190.544L248.569 165.574L235.921 168.516Z" fill="#FFBF9D"/>
<path d="M265.971 159.33C265.971 159.33 274.505 172.805 275.022 179.841C275.615 187.907 270.314 196.992 267.699 202.617C265.295 207.784 253.832 226.239 253.832 226.239C263.171 225.046 271.855 226.392 282.245 229.279C282.245 229.279 286.273 233.448 284.094 237.649C284.094 237.649 250.105 240.441 245.891 240.18C241.676 239.92 237.761 236.378 237.902 228.715C238.044 221.052 244.645 196.046 244.645 196.046L243.734 191.598L242.44 185.945L239.125 165.458L254.417 159.393L265.971 159.33Z" fill="#FFBF9D"/>
<path d="M265.969 159.33C265.969 159.33 265.706 159.342 265.203 159.351C264.692 159.357 263.946 159.367 262.97 159.38C261.007 159.399 258.126 159.427 254.415 159.463L254.44 159.458C250.375 161.08 245.229 163.134 239.161 165.555L239.225 165.442C239.919 169.693 240.691 174.423 241.53 179.56C241.739 180.844 241.953 182.154 242.17 183.488C242.278 184.155 242.388 184.828 242.499 185.507C242.6 186.188 242.794 186.857 242.939 187.541C243.252 188.906 243.569 190.293 243.892 191.702C244.184 193.119 244.479 194.558 244.78 196.017L244.786 196.049L244.778 196.081C243.516 200.943 242.254 206.066 241.044 211.42C240.445 214.099 239.846 216.833 239.318 219.63C238.802 222.426 238.268 225.285 238.091 228.206C238.026 229.663 238.097 231.144 238.389 232.594C238.682 234.04 239.219 235.457 240.072 236.678C240.476 237.306 241.015 237.83 241.57 238.327C242.162 238.78 242.793 239.194 243.495 239.467C244.195 239.733 244.927 239.944 245.684 239.992C246.441 240.047 247.212 240.027 247.987 240.002C254.189 239.765 260.536 239.275 266.99 238.814C272.787 238.362 278.495 237.919 284.077 237.484L283.944 237.573C284.257 236.894 284.509 236.181 284.55 235.433C284.595 234.691 284.515 233.944 284.312 233.226C283.889 231.8 283.101 230.481 282.125 229.391L282.199 229.435C277.326 228.081 272.5 226.974 267.74 226.4C262.984 225.815 258.301 225.816 253.849 226.387L253.535 226.428L253.702 226.158C256.593 221.491 259.341 216.985 261.912 212.661C264.474 208.329 266.9 204.215 268.768 200.106C270.772 196.074 272.589 192.246 273.719 188.501C274.861 184.784 275.338 181.102 274.618 177.925C273.896 174.752 272.674 172.074 271.617 169.77C270.535 167.471 269.516 165.557 268.669 164.014C267.816 162.475 267.134 161.307 266.671 160.521C266.44 160.133 266.264 159.838 266.142 159.632C266.025 159.433 265.969 159.33 265.969 159.33C265.969 159.33 266.04 159.425 266.165 159.621C266.292 159.823 266.475 160.115 266.715 160.497C267.192 161.276 267.888 162.436 268.755 163.969C269.615 165.505 270.649 167.414 271.746 169.712C272.817 172.015 274.055 174.689 274.797 177.887C275.539 181.107 275.066 184.823 273.93 188.565C272.804 192.334 270.989 196.181 268.995 200.217C267.139 204.325 264.705 208.474 262.153 212.804C259.588 217.134 256.847 221.645 253.959 226.318L253.812 226.089C258.287 225.509 263 225.503 267.779 226.087C272.562 226.659 277.404 227.768 282.287 229.121L282.333 229.134L282.361 229.166C283.384 230.307 284.182 231.646 284.629 233.137C284.84 233.886 284.927 234.673 284.879 235.459C284.835 236.25 284.57 237.009 284.238 237.726L284.2 237.807L284.105 237.814C278.522 238.25 272.813 238.695 267.015 239.147C260.558 239.608 254.216 240.097 247.997 240.333C247.22 240.357 246.438 240.378 245.656 240.32C244.867 240.27 244.102 240.05 243.372 239.772C242.639 239.486 241.98 239.054 241.363 238.581C240.785 238.063 240.225 237.515 239.806 236.865C238.922 235.598 238.372 234.138 238.074 232.66C237.777 231.177 237.706 229.672 237.773 228.193C237.955 225.233 238.493 222.376 239.013 219.573C239.546 216.771 240.148 214.035 240.751 211.355C241.969 205.998 243.238 200.875 244.509 196.011L244.507 196.074C244.209 194.615 243.917 193.176 243.628 191.76C243.308 190.35 242.992 188.96 242.682 187.594C242.538 186.909 242.345 186.239 242.245 185.558C242.136 184.878 242.028 184.204 241.92 183.537C241.706 182.202 241.495 180.89 241.288 179.605C240.463 174.464 239.704 169.73 239.022 165.476L239.009 165.393L239.085 165.363C245.163 162.967 250.318 160.935 254.39 159.33L254.402 159.325H254.415C258.137 159.32 261.027 159.315 262.996 159.313C263.968 159.315 264.711 159.317 265.219 159.317C265.718 159.32 265.969 159.33 265.969 159.33Z" fill="#FF9A6C"/>
<path d="M206.555 75.8541C206.555 75.8541 209.837 100.432 213.036 107.004C214.682 110.385 229.409 129.311 229.409 129.311L237.479 117.832L222.048 101.036L213.291 75.4227L206.555 75.8541Z" fill="#FFBF9D"/>
<path d="M206.794 69.1565C206.765 68.985 206.339 66.9812 206.771 66.4212C207.202 65.8612 208.019 65.9866 208.019 65.9866C208.019 65.9866 208.359 65.1335 209.017 64.8442C209.674 64.5549 210.547 64.841 210.547 64.841L211.115 64.4596C211.947 63.9009 212.501 64.2228 212.501 64.2228C212.501 64.2228 213.165 64.7597 213.908 64.7399C214.651 64.72 215.593 66.7757 216.118 67.7543C216.674 68.7904 217.363 70.0308 216.397 71.4932C215.102 73.4541 213.048 75.7325 213.048 75.7325L206.924 76.3796C206.924 76.3796 206.091 75.6384 205.982 73.4484C205.872 71.2576 206.794 69.1565 206.794 69.1565Z" fill="#FFBF9D"/>
<path d="M208.019 65.9866C208.052 65.9776 208.205 66.4141 208.424 67.1277C208.644 67.8413 208.93 68.832 209.23 69.9296C209.268 70.0672 209.304 70.2023 209.341 70.3367C209.35 70.3821 209.358 70.377 209.369 70.4634C209.37 70.5235 209.356 70.5767 209.333 70.6221C209.288 70.7149 209.217 70.7731 209.15 70.8167C208.873 70.9799 208.6 70.9946 208.347 71.0176C208.075 71.04 207.803 70.9395 207.622 70.7904C207.435 70.6426 207.3 70.4717 207.201 70.3066C207 69.977 206.903 69.6832 206.843 69.4816C206.787 69.2781 206.776 69.1603 206.792 69.1565C206.834 69.1405 206.947 69.6032 207.35 70.2074C207.552 70.4928 207.881 70.8346 208.33 70.784C208.562 70.761 208.826 70.7258 209.012 70.6087C209.057 70.5799 209.092 70.5453 209.106 70.5133C209.122 70.4717 209.12 70.489 209.095 70.4C209.058 70.2663 209.021 70.1306 208.983 69.9936C208.682 68.8967 208.424 67.8995 208.25 67.1744C208.076 66.4493 207.985 65.9962 208.019 65.9866Z" fill="#FF9A6C"/>
<path d="M210.549 64.841C210.583 64.8371 210.66 65.2166 210.757 65.8355C210.854 66.455 210.971 67.3146 211.086 68.2714L211.081 68.2483C211.09 68.2816 211.101 68.3175 211.11 68.3527C211.232 68.8461 211.268 69.3472 211.136 69.792C211.008 70.2464 210.628 70.5472 210.292 70.6234C209.949 70.704 209.673 70.6394 209.498 70.5843C209.321 70.5261 209.236 70.4647 209.243 70.4499C209.25 70.4327 209.346 70.4621 209.521 70.4883C209.693 70.5133 209.955 70.5421 210.242 70.4512C210.525 70.361 210.814 70.1101 210.911 69.7267C211.014 69.3453 210.979 68.8762 210.864 68.4167C210.855 68.3853 210.846 68.3539 210.839 68.3251L210.835 68.311L210.834 68.3021C210.72 67.3453 210.632 66.4819 210.58 65.8573C210.529 65.232 210.514 64.8455 210.549 64.841Z" fill="#FF9A6C"/>
<path d="M212.499 64.2228C212.536 64.2279 212.491 64.8071 212.386 65.7371L212.383 65.698C212.633 66.4718 212.955 67.5195 213.296 68.6734C213.37 68.9281 213.443 69.1783 213.514 69.4183L213.529 69.4715L213.503 69.5143C213.349 69.7671 213.17 69.9771 212.953 70.146C212.739 70.315 212.471 70.4244 212.207 70.4161C211.945 70.4212 211.697 70.2702 211.563 70.1012C211.417 69.9329 211.331 69.7524 211.264 69.5886C211.131 69.259 211.084 68.9812 211.055 68.7918C211.029 68.6011 211.031 68.4948 211.047 68.4929C211.085 68.4839 211.138 68.9076 211.415 69.522C211.554 69.8075 211.79 70.2113 212.21 70.1959C212.621 70.2017 213.026 69.8254 213.283 69.3927L213.273 69.4887C213.201 69.2487 213.127 68.9991 213.051 68.7444C212.711 67.5905 212.412 66.5358 212.203 65.7499L212.197 65.7281L212.199 65.7108C212.351 64.7879 212.463 64.2177 212.499 64.2228Z" fill="#FF9A6C"/>
<path d="M213.048 75.7318C213.048 75.7318 216.373 71.6493 216.397 71.4925C216.421 71.3357 215.626 66.6848 214.863 65.7965C214.1 64.9082 213.066 63.863 213.066 63.863C213.066 63.863 211.868 64.0678 212.33 65.8733C212.791 67.6787 213.406 69.5181 213.406 69.5181L212.282 70.9338C212.282 70.9338 208.342 71.7043 208.309 75.417" fill="#FFBF9D"/>
<path d="M208.308 75.417C208.297 75.417 208.299 75.2564 208.311 74.9511C208.308 74.7975 208.343 74.6125 208.389 74.3949C208.418 74.1729 208.512 73.9341 208.608 73.6628C208.831 73.1348 209.227 72.5332 209.849 72.0161C210.473 71.5066 211.285 71.0676 212.262 70.8295L212.199 70.8679C212.555 70.4161 212.928 69.9412 213.316 69.4471L213.297 69.5553C213.012 68.7015 212.729 67.7901 212.458 66.8301C212.332 66.3469 212.167 65.8689 212.108 65.3261C212.09 65.0573 212.101 64.7738 212.201 64.5018C212.298 64.2305 212.498 63.9841 212.762 63.8445C212.852 63.7959 212.939 63.762 213.044 63.7389L213.109 63.7249L213.156 63.7748C213.487 64.1306 213.813 64.4826 214.135 64.8289C214.296 65.0023 214.455 65.1745 214.614 65.3447C214.768 65.5258 214.939 65.6596 215.073 65.8829C215.324 66.2996 215.452 66.7322 215.589 67.1533C215.722 67.5757 215.824 67.9943 215.925 68.402C216.117 69.2199 216.271 70.0013 216.395 70.7367C216.423 70.9217 216.45 71.1034 216.478 71.282L216.494 71.4221C216.495 71.4516 216.497 71.481 216.495 71.5098C216.482 71.5399 216.468 71.5706 216.451 71.5994C216.393 71.6871 216.345 71.7511 216.291 71.8221C216.078 72.0935 215.873 72.3546 215.676 72.6042C214.884 73.5892 214.231 74.3732 213.776 74.9127C213.56 75.1629 213.385 75.3671 213.246 75.5284C213.123 75.6673 213.055 75.7377 213.048 75.7319C213.041 75.7261 213.096 75.6455 213.207 75.4964C213.336 75.3268 213.499 75.1137 213.7 74.8513C214.154 74.2682 214.776 73.4701 215.536 72.4941C215.727 72.2426 215.927 71.9802 216.134 71.7069L216.277 71.5041L216.286 71.4906L216.292 71.4842L216.295 71.481C216.305 71.4817 216.268 71.4746 216.347 71.4855C216.282 71.4714 216.3 71.4714 216.297 71.4669L216.296 71.4561L216.293 71.4337L216.277 71.3082C216.247 71.1329 216.218 70.9537 216.188 70.7719C216.056 70.0429 215.895 69.266 215.698 68.4557C215.595 68.0519 215.491 67.6378 215.358 67.2237C215.225 66.8148 215.087 66.3802 214.864 66.0161C214.766 65.8433 214.573 65.6801 214.426 65.5092C214.268 65.3402 214.109 65.1693 213.949 64.9978C213.629 64.6541 213.305 64.3047 212.976 63.9521L213.087 63.9879C213.031 64.0007 212.949 64.0295 212.882 64.0673C212.447 64.2887 212.313 64.8237 212.36 65.3044C212.409 65.7908 212.573 66.2836 212.697 66.7623C212.962 67.7185 213.24 68.6305 213.516 69.481L213.536 69.5412L213.497 69.5892C213.104 70.0794 212.726 70.5511 212.367 70.9991L212.343 71.0285L212.304 71.0375C211.375 71.2525 210.567 71.6705 209.959 72.1492C209.35 72.6375 208.955 73.2058 208.722 73.7108C208.29 74.7489 208.363 75.4266 208.308 75.417Z" fill="#FF9A6C"/>
<path d="M266.167 268.38L265.156 267.613C268.301 264.73 270.39 261.228 271.142 257.271L278.325 261.041L266.258 282.46C264.257 281.26 266.167 268.38 266.167 268.38Z" fill="#455A64"/>
<path d="M278.326 261.041L276.571 260.12L265.636 281.043C265.636 281.043 265.519 282.214 266.26 282.46L278.326 261.041Z" fill="#E0E0E0"/>
<path d="M266.323 268.088C266.431 268.14 266.773 267.641 267.404 267.303C268.026 266.949 268.634 266.922 268.646 266.804C268.68 266.697 267.959 266.525 267.202 266.947C266.443 267.362 266.213 268.06 266.323 268.088Z" fill="#263238"/>
<path d="M272.923 262.224C273.241 262.381 273.636 262.255 273.804 261.941C273.974 261.628 273.854 261.246 273.536 261.089C273.219 260.931 272.824 261.058 272.655 261.371C272.485 261.685 272.606 262.066 272.923 262.224Z" fill="#E0E0E0"/>
<path d="M266.343 267.888C266.359 267.9 266.49 267.77 266.698 267.509C266.892 267.247 267.217 266.842 267.307 266.218C267.328 266.064 267.329 265.9 267.308 265.733C267.289 265.568 267.259 265.388 267.144 265.209C267.038 265.022 266.752 264.906 266.52 264.979C266.283 265.034 266.093 265.22 265.987 265.412C265.587 266.172 265.621 267.2 266.205 267.989L266.444 267.752C266.298 267.651 266.132 267.559 265.956 267.484C264.988 267.063 263.857 267.288 263.143 267.85C263.052 267.92 262.949 268.003 262.882 268.135C262.813 268.267 262.819 268.435 262.879 268.552C263 268.787 263.21 268.904 263.407 268.971C263.802 269.104 264.196 269.079 264.527 269.004C265.207 268.849 265.627 268.47 265.916 268.263C266.202 268.037 266.355 267.907 266.343 267.888C266.33 267.869 266.149 267.965 265.839 268.158C265.526 268.337 265.097 268.668 264.482 268.775C264.179 268.828 263.832 268.833 263.509 268.712C263.354 268.659 263.209 268.552 263.153 268.428C263.099 268.311 263.159 268.214 263.329 268.092C263.975 267.607 264.962 267.42 265.813 267.79C265.968 267.856 266.113 267.937 266.241 268.024C266.317 268.076 266.424 268.058 266.479 267.984C266.524 267.923 266.522 267.843 266.48 267.787C265.97 267.116 265.934 266.189 266.255 265.55C266.402 265.239 266.775 265.137 266.915 265.363C267.063 265.593 267.092 265.939 267.075 266.2C267.028 266.752 266.755 267.162 266.593 267.44C266.42 267.719 266.323 267.875 266.343 267.888Z" fill="#263238"/>
<path d="M265.882 270.362C265.943 270.41 266.379 269.866 267.148 269.553C267.912 269.225 268.613 269.294 268.62 269.217C268.647 269.155 267.889 268.958 267.045 269.316C266.197 269.665 265.818 270.337 265.882 270.362Z" fill="#263238"/>
<path d="M265.743 272.246C265.794 272.303 266.276 271.923 266.973 271.672C267.668 271.412 268.285 271.388 268.286 271.311C268.296 271.246 267.633 271.15 266.881 271.43C266.126 271.704 265.69 272.204 265.743 272.246Z" fill="#263238"/>
<path d="M236.289 169.093C236.914 178.257 235.514 184.044 230.138 189.707C228.415 191.522 226.367 192.998 224.573 194.744C222.781 196.49 221.201 198.612 220.789 201.08C221.443 200.102 222.948 200.077 223.965 200.67C224.982 201.262 225.656 202.284 226.387 203.207C230.331 208.184 236.808 210.812 243.158 210.796C249.508 210.779 255.693 208.316 260.861 204.627C262.195 203.674 263.553 202.604 265.178 202.378C267.161 202.102 269.078 203.15 270.708 204.314C272.337 205.477 273.923 206.83 275.867 207.309C276.301 207.416 276.815 207.456 277.139 207.149C277.447 206.856 277.45 206.373 277.43 205.948C277.217 201.201 277.003 196.453 276.79 191.706C276.461 184.403 276.04 176.773 272.356 170.459L264.532 158.212C264.532 158.212 258.164 158.707 253.603 160.264C249.04 161.82 236.289 169.093 236.289 169.093Z" fill="#263238"/>
<g opacity="0.3">
<path d="M236.654 176.012L236.289 171.813L253.92 161.754L268.159 161.709L272.303 172.162C272.303 172.162 260.422 167.638 256.93 167.947C253.437 168.256 236.985 179.031 236.985 179.031L236.654 176.012Z" fill="black"/>
</g>
<path d="M289.341 155.855C289.341 155.855 290.067 132.127 289.275 127.208C288.272 120.991 279.703 117.836 275.075 116.819C270.447 115.802 262.469 117.398 262.469 117.398C262.469 117.398 263.552 158.196 263.827 158.491C264.103 158.786 269.979 168.346 269.979 168.346C269.979 168.346 286.894 167.475 288.482 164.675C290.071 161.875 289.341 155.855 289.341 155.855Z" fill="#455A64"/>
<path d="M241.829 118.748C241.408 119.141 229.529 134.522 230.427 139.99C231.325 145.457 231.903 147.25 232.413 151.177C233.648 160.667 232.089 165.781 232.519 170.009C232.949 174.238 235.09 175.871 235.506 175.613C235.923 175.356 248.048 167.017 254.533 163.905C266.266 158.273 268.734 169.834 271.463 169.521C274.192 169.208 274.642 168 274.642 168C274.642 168 270.715 167.592 270.243 165.537C269.771 163.482 264.258 144.217 264.258 144.217L267.112 118.674L259.312 115.821L245.547 117.382L241.829 118.748Z" fill="#FF6477"/>
<path d="M246.289 118.4C246.289 118.4 245.534 117.624 244.125 117.621C242.716 117.619 238.437 116.571 238.437 116.571L233.713 112.784C229.785 113.796 220.762 122.801 223.167 125.521L229.378 131.807L230.699 137.953L240.666 125.842L246.289 118.4Z" fill="#FF6477"/>
<path d="M230.585 138.792C230.585 138.792 227.399 131.896 229.796 125.705C232.192 119.514 237.029 113.772 244.156 112.747L244.13 114.204C244.13 114.204 233.081 122.714 231.984 128.145C230.886 133.575 231.113 133.697 231.113 133.697L230.585 138.792Z" fill="#455A64"/>
<path d="M233.646 126.186C233.627 126.176 233.504 126.386 233.297 126.776C233.087 127.163 232.817 127.741 232.513 128.468C231.905 129.922 231.227 132.008 230.829 134.387C230.436 136.767 230.403 138.961 230.509 140.533C230.56 141.319 230.63 141.953 230.703 142.388C230.772 142.823 230.821 143.061 230.842 143.059C230.896 143.052 230.777 142.086 230.731 140.522C230.682 138.959 230.751 136.793 231.138 134.438C231.532 132.086 232.168 130.013 232.719 128.55C233.27 127.085 233.695 126.21 233.646 126.186Z" fill="#263238"/>
<path d="M260.897 155.263C260.898 155.252 260.803 155.231 260.617 155.201C260.432 155.173 260.156 155.148 259.798 155.146C259.086 155.151 258.039 155.287 256.852 155.772C255.658 156.241 254.362 157.078 253.08 158.165C251.792 159.251 250.492 160.552 249.042 161.82C246.172 164.396 243.309 166.417 241.057 167.556C239.936 168.134 238.986 168.51 238.329 168.766C237.664 169.002 237.294 169.134 237.301 169.156C237.304 169.166 237.4 169.147 237.581 169.102C237.762 169.054 238.029 168.986 238.368 168.882C239.042 168.66 240.013 168.313 241.157 167.755C243.454 166.657 246.37 164.643 249.25 162.056C250.708 160.782 252.006 159.471 253.268 158.387C254.527 157.299 255.781 156.463 256.937 155.978C258.088 155.478 259.104 155.311 259.803 155.269C260.504 155.233 260.894 155.292 260.897 155.263Z" fill="#263238"/>
<path d="M284.118 125.974C284.118 125.974 284.032 128.468 282.47 131.233C281.449 133.04 274.466 140.367 273.425 139.807C272.385 139.247 278.199 126.9 278.199 126.9L284.118 125.974Z" fill="#263238"/>
<path d="M278.316 128.712C278.714 128.998 299.241 142.337 299.719 146.444C300.023 149.05 298.065 152.022 295.285 153.914C291.433 156.533 282.122 162.453 282.122 162.453L276.984 157.62C276.984 157.62 286.562 149.581 287.714 147.718L270.801 137.694L278.316 128.712Z" fill="#FFBF9D"/>
<path d="M291.849 145.32C291.851 145.283 291.555 145.22 291.073 145.263C290.592 145.303 289.928 145.478 289.288 145.859C288.65 146.243 288.181 146.744 287.918 147.149C287.652 147.554 287.567 147.844 287.601 147.86C287.682 147.912 288.228 146.844 289.45 146.129C290.657 145.391 291.857 145.416 291.849 145.32Z" fill="#FF9A6C"/>
<path d="M263.477 117.345C263.477 117.345 267.967 118.201 270.719 119.552C273.471 120.902 284.117 125.974 284.117 125.974C284.117 125.974 280.511 127.466 278.015 130.66C275.519 133.855 273.425 139.807 273.425 139.807L264.933 135.235L263.477 117.345Z" fill="#FF6477"/>
<path d="M263.115 113.494C263.115 113.494 258.629 112.802 257.941 117.181C257.252 121.56 258.16 129.429 259.102 133.221C260.044 137.011 265.29 142.479 265.29 142.479L265.513 136.747C265.513 136.747 262.512 131.256 262.859 124.008C263.205 116.762 263.485 115.225 264.684 114.73C265.882 114.234 268.561 118.622 268.561 118.622L269.901 119.098C269.901 119.098 268.278 113.244 263.115 113.494Z" fill="#455A64"/>
<path d="M269.431 164.656L261.68 145.261L273.639 134.89L276.487 134.988L286.495 156.118L272.722 167.123L270.333 166.977L269.431 164.656Z" fill="#263238"/>
<path d="M273.441 166.113C273.461 166.103 273.349 165.822 273.13 165.32C272.883 164.765 272.567 164.054 272.189 163.202C271.39 161.416 270.296 158.947 269.132 156.2C267.968 153.452 266.955 150.947 266.227 149.131C265.879 148.267 265.587 147.546 265.36 146.982C265.152 146.476 265.027 146.2 265.007 146.207C264.986 146.215 265.073 146.506 265.246 147.025C265.418 147.545 265.682 148.292 266.019 149.211C266.694 151.049 267.676 153.571 268.841 156.323C270.007 159.073 271.135 161.533 271.987 163.296C272.412 164.178 272.765 164.887 273.018 165.373C273.272 165.858 273.422 166.122 273.441 166.113Z" fill="#455A64"/>
<path d="M276.982 157.62C276.982 157.62 273.764 155.645 273.288 155.236C272.812 154.827 269.844 154.979 269.296 154.411C268.747 153.843 267.538 154.203 267.931 155.59C268.324 156.977 270.34 158.223 271.866 158.08C271.866 158.08 267.22 160.518 267.197 161.204C267.173 161.89 267.448 162.438 268.223 162.71C268.223 162.71 266.655 164.078 268.724 165.229C268.724 165.229 268.047 166.382 270.031 167.137C270.031 167.137 269.557 167.962 271.039 168.427C272.52 168.891 273.967 169.587 274.984 168.564C276 167.541 281.507 162.902 281.507 162.902L287.533 158.486L285.133 150.446L276.982 157.62Z" fill="#FFBF9D"/>
<path d="M271.272 161.88C271.232 161.8 270.56 162.061 269.717 162.322C268.876 162.587 268.175 162.755 268.188 162.844C268.198 162.927 268.942 162.895 269.811 162.622C270.681 162.352 271.311 161.955 271.272 161.88Z" fill="#FF9A6C"/>
<path d="M272.38 165.045C272.375 164.958 271.581 164.931 270.607 164.986C269.632 165.04 268.846 165.154 268.852 165.241C268.857 165.327 269.65 165.354 270.624 165.3C271.598 165.246 272.384 165.131 272.38 165.045Z" fill="#FF9A6C"/>
<path d="M272.78 167.175C272.787 167.088 272.172 166.968 271.408 166.907C270.643 166.846 270.019 166.866 270.012 166.953C270.005 167.039 270.619 167.16 271.383 167.221C272.147 167.282 272.773 167.261 272.78 167.175Z" fill="#FF9A6C"/>
<path d="M272.723 161.04C272.764 160.962 272.465 160.726 272.377 160.295C272.27 159.869 272.438 159.526 272.368 159.474C272.336 159.45 272.234 159.51 272.147 159.672C272.06 159.83 272.008 160.092 272.07 160.365C272.132 160.638 272.291 160.852 272.439 160.957C272.588 161.064 272.705 161.075 272.723 161.04Z" fill="#FF9A6C"/>
<path d="M273.657 163.441C273.713 163.371 273.473 163.095 273.401 162.678C273.315 162.263 273.438 161.919 273.36 161.874C273.295 161.815 272.987 162.195 273.092 162.736C273.192 163.279 273.618 163.519 273.657 163.441Z" fill="#FF9A6C"/>
<path d="M274.497 166.386C274.536 166.307 274.243 166.085 274.122 165.678C273.984 165.276 274.095 164.925 274.017 164.883C273.981 164.865 273.893 164.936 273.828 165.1C273.763 165.262 273.74 165.517 273.822 165.774C273.905 166.031 274.071 166.225 274.218 166.319C274.366 166.415 274.479 166.422 274.497 166.386Z" fill="#FF9A6C"/>
<path d="M269.894 119.228C269.928 119.219 269.812 118.594 269.384 117.667C268.944 116.753 268.218 115.51 266.956 114.523C266.627 114.293 266.244 114.121 265.845 114.093C265.445 114.062 265.061 114.187 264.762 114.376C264.152 114.76 263.83 115.348 263.667 115.832C263.502 116.324 263.45 116.735 263.416 117.015C263.386 117.297 263.383 117.454 263.404 117.457C263.466 117.472 263.532 116.833 263.875 115.91C264.055 115.46 264.372 114.946 264.911 114.624C265.177 114.466 265.494 114.371 265.821 114.401C266.148 114.427 266.476 114.572 266.775 114.781C267.37 115.21 267.839 115.786 268.243 116.297C268.641 116.819 268.95 117.327 269.185 117.766C269.654 118.648 269.845 119.244 269.894 119.228Z" fill="#263238"/>
<path d="M265.26 114.708C265.204 114.785 266.071 115.428 266.825 116.494C267.591 117.551 267.92 118.579 268.011 118.551C268.089 118.54 267.884 117.424 267.081 116.311C266.287 115.192 265.296 114.637 265.26 114.708Z" fill="#263238"/>
<path d="M267.93 140.138C268.002 140.075 266.964 138.883 265.992 137.211C265.008 135.545 264.474 134.058 264.384 134.089C264.308 134.108 264.716 135.669 265.72 137.37C266.714 139.077 267.876 140.196 267.93 140.138Z" fill="#263238"/>
<path d="M262.516 145.126L274.041 134.903L276 134.972L264.539 145.197L262.516 145.126Z" fill="white"/>
<path d="M285.41 239.35L284.161 239.42C284.599 235.299 284.055 232.385 282.02 228.979C284.389 227.516 286.923 226.629 289.595 226.239L294.697 249.727C292.432 250.101 285.41 239.35 285.41 239.35Z" fill="#455A64"/>
<path d="M289.596 226.239L287.695 226.664L293.31 249.071C293.31 249.071 293.99 250.013 294.699 249.727L289.596 226.239Z" fill="#E0E0E0"/>
<path d="M285.336 239.034C285.449 239.004 285.377 238.419 285.622 237.771C285.849 237.116 286.281 236.712 286.213 236.617C286.168 236.516 285.522 236.844 285.239 237.634C284.95 238.421 285.237 239.084 285.336 239.034Z" fill="#263238"/>
<path d="M286.374 230.525C286.712 230.442 286.922 230.099 286.842 229.76C286.762 229.421 286.423 229.214 286.085 229.297C285.747 229.381 285.539 229.724 285.619 230.063C285.698 230.402 286.037 230.609 286.374 230.525Z" fill="#E0E0E0"/>
<path d="M285.218 238.875C285.239 238.873 285.249 238.694 285.232 238.37C285.205 238.053 285.18 237.548 284.837 237.029C284.752 236.902 284.646 236.78 284.521 236.669C284.399 236.559 284.258 236.444 284.056 236.385C283.855 236.314 283.567 236.408 283.444 236.609C283.304 236.799 283.286 237.057 283.334 237.265C283.535 238.081 284.234 238.821 285.182 239.037L285.203 238.711C285.03 238.728 284.846 238.764 284.667 238.821C283.675 239.119 282.986 239.999 282.826 240.867C282.805 240.976 282.784 241.103 282.821 241.243C282.856 241.384 282.97 241.505 283.092 241.554C283.335 241.653 283.566 241.606 283.756 241.531C284.135 241.38 284.41 241.113 284.606 240.849C285.007 240.306 285.069 239.759 285.147 239.423C285.212 239.074 285.24 238.881 285.218 238.875C285.196 238.869 285.125 239.054 285.023 239.392C284.908 239.722 284.807 240.238 284.423 240.705C284.234 240.937 283.98 241.159 283.662 241.273C283.513 241.331 283.336 241.344 283.214 241.288C283.097 241.235 283.078 241.125 283.123 240.927C283.283 240.161 283.891 239.4 284.762 239.137C284.92 239.087 285.08 239.056 285.232 239.04C285.322 239.031 285.39 238.95 285.382 238.86C285.375 238.787 285.321 238.729 285.254 238.714C284.438 238.538 283.804 237.874 283.623 237.198C283.527 236.875 283.736 236.563 283.989 236.643C284.248 236.721 284.497 236.958 284.655 237.162C284.981 237.601 285.048 238.077 285.111 238.386C285.165 238.701 285.195 238.877 285.218 238.875Z" fill="#263238"/>
<path d="M286.496 240.998C286.573 240.995 286.539 240.317 286.903 239.599C287.252 238.874 287.815 238.483 287.771 238.421C287.75 238.358 287.06 238.69 286.671 239.489C286.272 240.282 286.432 241.02 286.496 240.998Z" fill="#263238"/>
<path d="M287.628 242.484C287.704 242.494 287.811 241.908 288.162 241.282C288.505 240.651 288.945 240.243 288.896 240.186C288.86 240.131 288.308 240.479 287.936 241.161C287.557 241.84 287.562 242.485 287.628 242.484Z" fill="#263238"/>
<path d="M264.506 95.9969C264.542 94.3188 264.993 92.6766 265.536 91.0881L263.824 82.0756C264.092 78.418 268.198 79.3729 269.587 80.3636C270.975 81.3543 271.905 82.8814 272.487 84.4846C272.868 85.5367 273.264 86.7956 274.329 87.1374C274.983 87.3473 275.686 87.1258 276.365 87.0177C278.261 86.7162 280.286 87.3793 281.636 88.7438C282.986 90.1083 283.629 92.1396 283.308 94.0321C285.053 93.1956 287.281 94.1358 288.33 95.7614C289.38 97.387 289.442 99.4817 289.027 101.372C288.491 103.809 287.125 106.162 284.954 107.394C282.784 108.626 279.767 108.478 278.037 106.678C277.689 108.03 276.217 108.913 274.823 108.821C273.43 108.728 272.181 107.807 271.438 106.623C270.696 105.441 270.405 104.025 270.325 102.63C268.666 102.892 266.951 102.05 265.916 100.728C264.882 99.4074 264.47 97.6756 264.506 95.9969Z" fill="#263238"/>
<path d="M268.605 87.4734C268.482 85.6974 267.413 84.1185 266.165 82.8488C265.642 82.3163 265.058 81.8068 264.345 81.5867C263.632 81.3665 262.762 81.5041 262.3 82.0897L262.223 83.3364C261.785 85.2718 263.059 87.1361 263.516 89.067C263.715 89.9067 263.833 90.898 264.568 91.3499C264.954 91.5867 265.438 91.6123 265.882 91.5265C267.63 91.1912 268.729 89.25 268.605 87.4734Z" fill="#455A64"/>
<path d="M267.479 96.5524C268.793 95.236 268.93 92.9204 267.78 91.4587C268.618 90.6452 268.539 89.2142 267.922 88.2222C267.304 87.2308 266.281 86.5755 265.293 85.954C265.058 83.2276 262.322 80.978 259.601 81.275C258.488 79.0772 255.601 78.3822 253.167 78.7636C252.572 78.8564 251.972 78.9985 251.375 78.9191C250.937 78.8609 250.525 78.6862 250.099 78.5716C247.754 77.9425 245.169 79.3166 243.951 81.4177C243.757 81.7537 243.586 82.1121 243.311 82.386C242.95 82.7451 242.45 82.9191 242.01 83.1764C241.059 83.7313 240.373 84.7208 240.187 85.8062C240.028 86.7278 240.196 87.7499 239.697 88.5409C239.447 88.9377 239.049 89.2327 238.841 89.6519C238.235 90.8686 239.478 92.3521 239.046 93.6404C238.958 93.9035 238.804 94.139 238.695 94.3937C238.472 94.9147 238.447 95.5182 238.626 96.0564C238.763 96.4718 239.021 96.8686 238.991 97.3051C238.968 97.636 238.781 97.9304 238.674 98.2446C238.411 99.0132 239.721 102.276 240.347 102.793L260.701 105.605C262.283 105.49 263.72 104.254 264.07 102.707C264.129 102.449 264.169 102.167 264.357 101.982C264.517 101.823 264.75 101.772 264.96 101.692C266.363 101.157 266.754 99.3755 266.807 97.8747C266.815 97.6648 266.82 97.4491 266.898 97.2539C267.014 96.9704 267.263 96.7694 267.479 96.5524Z" fill="#263238"/>
<path d="M261.668 95.8336C262.194 92.2349 260.467 87.799 257.112 85.5738C254.998 84.1709 253.236 83.936 252.067 83.6442C249.448 82.9907 247.131 84.032 247.131 84.032C245.974 84.151 241.372 87.3882 240.63 91.4503C239.807 95.9629 238.979 101.505 239.117 104.961C239.394 111.91 244.519 113.396 244.519 113.396C244.521 113.386 243.64 118.773 243.64 118.773L242.525 122.95L257.255 115.821L261.668 95.8336Z" fill="#FFBF9D"/>
<path d="M243.037 97.8042C242.966 98.2643 243.297 98.7034 243.776 98.7866C244.254 98.8691 244.7 98.5645 244.771 98.1043C244.842 97.6442 244.511 97.2045 244.033 97.1219C243.554 97.0387 243.108 97.344 243.037 97.8042Z" fill="#263238"/>
<path d="M241.857 94.2477C241.952 94.3744 242.673 93.9629 243.614 94.0762C244.556 94.176 245.189 94.7424 245.305 94.6393C245.361 94.5939 245.275 94.375 245.001 94.1209C244.73 93.8681 244.25 93.5962 243.664 93.529C243.077 93.463 242.558 93.6205 242.249 93.808C241.933 93.9955 241.81 94.1907 241.857 94.2477Z" fill="#263238"/>
<path d="M246.488 102.333C246.498 102.28 245.925 102.109 244.991 101.876C244.754 101.823 244.532 101.748 244.511 101.579C244.475 101.399 244.605 101.152 244.755 100.886C245.05 100.331 245.359 99.7497 245.682 99.1398C246.977 96.6509 247.945 94.592 247.845 94.5408C247.744 94.4896 246.612 96.4659 245.318 98.9548C245.004 99.5692 244.705 100.155 244.419 100.715C244.296 100.978 244.103 101.269 244.183 101.644C244.226 101.832 244.388 101.983 244.537 102.042C244.685 102.107 244.82 102.126 244.939 102.147C245.886 102.312 246.477 102.386 246.488 102.333Z" fill="#263238"/>
<path d="M244.52 113.395C244.52 113.395 249.073 114.234 253.943 112.038C253.943 112.038 250.951 116.653 244.199 115.208L244.52 113.395Z" fill="#FF9A6C"/>
<path d="M242.652 90.7655C242.783 91.0138 243.522 90.9453 244.357 91.1149C245.196 91.2576 245.862 91.5885 246.072 91.4035C246.166 91.312 246.101 91.0771 245.836 90.8115C245.576 90.5472 245.104 90.2752 244.529 90.1677C243.954 90.0608 243.417 90.144 243.082 90.297C242.741 90.4499 242.597 90.6458 242.652 90.7655Z" fill="#263238"/>
<path d="M253.39 99.1987C253.334 99.6608 252.897 99.9948 252.413 99.9456C251.931 99.8963 251.583 99.4828 251.639 99.0208C251.694 98.5587 252.131 98.224 252.614 98.2732C253.098 98.3225 253.445 98.7366 253.39 99.1987Z" fill="#263238"/>
<path d="M254.695 96.1395C254.569 96.2361 253.986 95.6454 253.049 95.5014C252.115 95.3439 251.352 95.719 251.269 95.5878C251.227 95.5295 251.369 95.3414 251.702 95.1705C252.031 94.9996 252.566 94.8672 253.149 94.9606C253.732 95.0553 254.189 95.3465 254.437 95.6102C254.69 95.8764 254.756 96.0972 254.695 96.1395Z" fill="#263238"/>
<path d="M255.331 93.0151C255.114 93.1988 254.426 92.8653 253.558 92.7188C252.696 92.5453 251.932 92.6106 251.797 92.3616C251.74 92.242 251.889 92.0468 252.242 91.8957C252.59 91.7447 253.146 91.6634 253.74 91.7728C254.335 91.8836 254.822 92.1568 255.09 92.4218C255.363 92.6893 255.429 92.9242 255.331 93.0151Z" fill="#263238"/>
<path d="M259.775 102.163C259.837 101.656 260.565 100.527 261.076 100.508C262.441 100.458 264.843 100.851 264.463 104.255C263.944 108.909 259.844 107.286 259.385 107.294C258.573 107.308 259.564 103.917 259.775 102.163Z" fill="#FFBF9D"/>
<path d="M260.857 105.737C260.88 105.724 260.932 105.803 261.062 105.881C261.189 105.957 261.414 106.025 261.667 105.961C262.179 105.835 262.68 105.101 262.796 104.264C262.855 103.842 262.811 103.429 262.699 103.078C262.594 102.721 262.401 102.459 262.158 102.388C261.918 102.303 261.726 102.432 261.655 102.556C261.578 102.68 261.597 102.776 261.572 102.781C261.557 102.791 261.48 102.692 261.54 102.504C261.569 102.414 261.636 102.31 261.755 102.233C261.877 102.155 262.046 102.127 262.217 102.164C262.573 102.23 262.859 102.596 262.983 102.98C263.127 103.369 263.186 103.835 263.12 104.309C262.985 105.243 262.407 106.068 261.713 106.187C261.376 106.236 261.114 106.107 260.985 105.981C260.853 105.85 260.841 105.743 260.857 105.737Z" fill="#FF9A6C"/>
<path d="M239.559 91.387C240.568 90.9115 241.262 90.1838 241.336 89.0702C241.937 89.33 242.665 88.6024 243.092 88.107C243.52 87.611 243.997 87.3921 244.046 86.7393C244.056 86.6107 244.064 86.4737 244.138 86.3675C244.253 86.2004 244.481 86.1684 244.681 86.1313C245.71 85.94 246.615 85.1867 246.99 84.21C247.935 84.7649 249.02 85.0785 250.115 85.115C250.513 85.8702 251.317 86.3963 252.168 86.4603C253.02 86.5243 253.892 86.1236 254.399 85.4363C254.611 86.0513 255.17 86.4968 255.777 86.7304C256.385 86.964 257.045 87.0152 257.694 87.0644C257.266 88.2804 257.911 89.7723 259.09 90.2932C259.249 90.3636 259.435 90.4366 259.493 90.6011C259.553 90.772 259.443 90.9505 259.359 91.1105C258.826 92.1262 259.372 93.5508 260.448 93.9508C259.617 94.45 259.533 95.8235 260.297 96.42C260.454 96.5422 260.661 96.6913 260.611 96.884C260.592 96.9576 260.537 97.0152 260.485 97.0702C260.084 97.4894 259.68 97.9502 259.569 98.5198C259.459 99.0894 259.77 99.78 260.343 99.8734C260.009 100.106 259.685 100.418 259.631 100.822C259.576 101.225 259.936 101.686 260.33 101.585C260.498 101.542 262.868 101.362 262.986 101.236C264.515 99.6065 263.095 97.4356 263.228 95.2059C263.361 92.9761 262.842 90.7393 261.964 88.6849C261.596 87.8228 261.161 86.9825 260.579 86.2472C259.917 85.4094 259.081 84.7278 258.247 84.0603C257.159 83.1892 256.037 82.3163 254.727 81.8382C252.288 80.948 249.572 81.5496 247.103 82.3528C246.164 82.658 245.223 82.9972 244.4 83.5419C243.414 84.1934 242.636 85.1131 241.941 86.068C240.935 87.4478 240.057 88.9608 239.692 90.6286" fill="#263238"/>
<path d="M238.84 89.6519C238.84 89.6519 238.909 89.4657 239.15 89.1828C239.267 89.0401 239.428 88.8762 239.587 88.6618C239.744 88.4461 239.882 88.1652 239.952 87.8247C240.03 87.4861 240.049 87.097 240.07 86.6721C240.091 86.2484 240.116 85.7761 240.272 85.2961C240.424 84.8173 240.682 84.3335 241.059 83.9047C241.248 83.6903 241.465 83.4906 241.71 83.3153C241.955 83.1373 242.232 82.9972 242.51 82.857C242.787 82.7149 243.068 82.5607 243.29 82.3322C243.513 82.1037 243.669 81.8081 243.836 81.5098C244.17 80.9076 244.618 80.3335 245.181 79.8477C245.74 79.362 246.4 78.9409 247.149 78.6785C247.519 78.5338 247.916 78.4551 248.319 78.3924C248.725 78.3546 249.141 78.3373 249.557 78.4013C249.765 78.425 249.971 78.4794 250.177 78.5268C250.382 78.5837 250.581 78.6529 250.782 78.7137C251.183 78.8442 251.598 78.9063 252.024 78.8641C252.451 78.8321 252.877 78.7309 253.319 78.6759C253.76 78.61 254.211 78.5946 254.665 78.6017C255.12 78.61 255.575 78.6682 256.03 78.7533C256.483 78.8461 256.929 78.9857 257.363 79.1687C258.22 79.5469 259.024 80.1505 259.518 80.9946C259.567 81.0785 259.615 81.1617 259.663 81.2442L259.592 81.2058C261.038 81.0509 262.46 81.6071 263.498 82.4967C264.545 83.385 265.247 84.6439 265.358 85.9495L265.327 85.8983C265.857 86.2324 266.38 86.5665 266.853 86.955C267.325 87.3421 267.747 87.787 268.04 88.3054C268.331 88.825 268.474 89.4113 268.452 89.9828C268.433 90.5524 268.219 91.1162 267.818 91.5009L267.824 91.4228C268.407 92.1684 268.636 93.0932 268.606 93.9386C268.577 94.7886 268.302 95.586 267.844 96.1908C267.738 96.3482 267.603 96.4794 267.48 96.6138C267.349 96.7412 267.218 96.8589 267.11 96.9901C267.001 97.1213 266.922 97.2666 266.89 97.426C266.855 97.5847 266.852 97.7485 266.844 97.9105C266.816 98.5581 266.73 99.1514 266.583 99.6692C266.433 100.186 266.225 100.629 265.963 100.957C265.706 101.288 265.408 101.5 265.149 101.624C264.89 101.754 264.67 101.79 264.542 101.861C264.41 101.926 264.359 101.985 264.355 101.982C264.355 101.982 264.401 101.916 264.533 101.846C264.662 101.767 264.882 101.725 265.133 101.593C265.385 101.466 265.673 101.254 265.921 100.926C266.174 100.601 266.375 100.163 266.517 99.6513C266.659 99.1386 266.739 98.5505 266.762 97.9079C266.769 97.7473 266.769 97.5789 266.806 97.4087C266.839 97.2365 266.928 97.0727 267.041 96.9351C267.154 96.7962 267.288 96.6753 267.415 96.5492C267.535 96.4167 267.665 96.2887 267.767 96.1351C268.21 95.5444 268.474 94.7649 268.499 93.9361C268.524 93.1111 268.296 92.2132 267.731 91.4958L267.698 91.4541L267.736 91.4177C268.11 91.0554 268.312 90.5242 268.328 89.9783C268.348 89.4317 268.208 88.866 267.928 88.3681C267.644 87.8695 267.233 87.4356 266.769 87.0561C266.304 86.6753 265.784 86.3444 265.254 86.0116L265.226 85.9937L265.223 85.9604C265.113 84.6951 264.43 83.4689 263.407 82.6023C262.392 81.7345 261.006 81.1956 259.607 81.346L259.561 81.3511L259.536 81.3082C259.49 81.2289 259.443 81.1482 259.396 81.0676C258.92 80.2529 258.142 79.6673 257.306 79.2973C256.883 79.1188 256.445 78.9818 256.001 78.8903C255.555 78.8065 255.107 78.7489 254.661 78.7405C254.215 78.7335 253.77 78.7476 253.337 78.8122C252.903 78.8653 252.473 78.9671 252.034 78.9991C251.815 79.0164 251.594 79.0164 251.376 78.9882C251.157 78.9601 250.947 78.9031 250.743 78.841C250.539 78.7783 250.341 78.7098 250.141 78.6535C249.94 78.6074 249.741 78.5543 249.539 78.5306C249.135 78.4673 248.729 78.4839 248.333 78.5197C247.941 78.5805 247.552 78.6561 247.19 78.7962C246.456 79.0509 245.808 79.4618 245.256 79.9373C244.702 80.4129 244.261 80.9735 243.929 81.5642C243.763 81.8599 243.601 82.1639 243.363 82.4065C243.125 82.6484 242.833 82.8052 242.554 82.9473C242.273 83.0874 242.003 83.2218 241.764 83.394C241.524 83.5636 241.31 83.7575 241.125 83.9655C240.755 84.3821 240.498 84.8545 240.346 85.3217C240.189 85.7895 240.16 86.2535 240.136 86.6772C240.111 87.1015 240.088 87.4945 240.005 87.8381C239.929 88.1837 239.783 88.4717 239.62 88.6881C239.454 88.9037 239.291 89.0637 239.171 89.2026C239.048 89.3402 238.966 89.4535 238.915 89.5322C238.864 89.6097 238.843 89.6538 238.84 89.6519Z" fill="#455A64"/>
<path d="M257.544 79.9898C257.535 79.9994 257.43 79.9047 257.217 79.7664C257.005 79.6301 256.678 79.4528 256.239 79.3479C255.804 79.2416 255.252 79.2122 254.684 79.3856C254.12 79.5578 253.548 79.9277 253.141 80.4768C253.025 80.6343 252.92 80.8052 252.846 80.9748C252.774 81.1437 252.744 81.33 252.821 81.4688L252.915 81.6404L252.733 81.5648C252.236 81.3568 251.693 81.3908 251.275 81.5623C250.851 81.7319 250.557 82.0404 250.382 82.3271C250.205 82.617 250.138 82.8871 250.108 83.0708C250.079 83.2564 250.081 83.36 250.071 83.36C250.067 83.36 250.063 83.3344 250.058 83.2845C250.053 83.2346 250.053 83.1604 250.061 83.0644C250.077 82.8743 250.132 82.5908 250.307 82.2816C250.478 81.9764 250.78 81.6404 251.229 81.4516C251.67 81.2621 252.248 81.2167 252.787 81.4375L252.7 81.5335C252.592 81.3357 252.639 81.1047 252.716 80.9204C252.797 80.7316 252.904 80.5594 253.027 80.3917C253.453 79.8157 254.055 79.4324 254.646 79.2596C255.243 79.0855 255.818 79.1277 256.263 79.25C256.713 79.3703 257.041 79.5668 257.247 79.7197C257.351 79.7972 257.427 79.8618 257.475 79.9104C257.524 79.9597 257.547 79.9866 257.544 79.9898Z" fill="#455A64"/>
<path d="M264.441 86.24C264.446 86.2471 264.383 86.3015 264.259 86.3866C264.133 86.4704 263.944 86.5863 263.688 86.6887C263.434 86.7885 263.104 86.8781 262.727 86.8544C262.357 86.832 261.929 86.6951 261.615 86.3655L261.72 86.3623C261.668 86.4192 261.615 86.4775 261.56 86.5363C261.503 86.5927 261.441 86.6451 261.379 86.7002C260.994 87.0125 260.549 87.2039 260.13 87.2826C259.711 87.3658 259.32 87.3511 259.006 87.2877C258.689 87.2243 258.451 87.1162 258.293 87.0323C258.14 86.9402 258.062 86.8807 258.067 86.8736C258.08 86.8461 258.406 87.088 259.023 87.1898C259.329 87.2384 259.704 87.2416 260.104 87.1559C260.504 87.0739 260.926 86.8877 261.29 86.592C261.348 86.5395 261.407 86.4903 261.461 86.4371C261.512 86.3815 261.563 86.3264 261.612 86.2733L261.666 86.2157L261.717 86.2701C261.998 86.5677 262.389 86.7021 262.736 86.7309C263.087 86.761 263.405 86.6867 263.656 86.601C264.159 86.4186 264.428 86.2183 264.441 86.24Z" fill="#455A64"/>
<path d="M266.374 90.8494C266.379 90.8513 266.372 90.8795 266.353 90.9339C266.33 90.9857 266.294 91.0631 266.222 91.1463C266.086 91.3147 265.805 91.5054 265.413 91.5534C265.018 91.6065 264.554 91.4727 264.102 91.2487C263.876 91.1355 263.641 91.0209 263.404 90.8705C263.174 90.7207 262.928 90.5159 262.832 90.2075C262.825 90.1806 262.819 90.1537 262.812 90.1294L262.918 90.1761C262.428 90.4718 261.93 90.7201 261.439 90.8372C260.95 90.9614 260.478 90.9326 260.117 90.8142C259.752 90.699 259.497 90.5076 259.356 90.3508C259.284 90.274 259.237 90.2062 259.209 90.1582C259.181 90.1102 259.169 90.0846 259.173 90.082C259.183 90.0743 259.246 90.1729 259.395 90.3124C259.542 90.4519 259.793 90.6209 260.145 90.7195C260.494 90.8206 260.939 90.8379 261.407 90.7118C261.877 90.5927 262.36 90.3483 262.845 90.0551L262.926 90.0059L262.95 90.1019C262.956 90.1223 262.961 90.1447 262.967 90.1671C263.045 90.4219 263.259 90.6107 263.479 90.7547C263.702 90.8987 263.939 91.0177 264.159 91.1323C264.599 91.3582 265.035 91.4919 265.402 91.4548C265.77 91.4222 266.04 91.2571 266.181 91.1099C266.327 90.9607 266.361 90.843 266.374 90.8494Z" fill="#455A64"/>
<path d="M249.289 104.924C249.267 104.714 249.244 104.499 249.154 104.308C249.064 104.118 248.891 103.953 248.682 103.93C248.529 103.913 248.38 103.972 248.238 104.029C247.626 104.278 247.016 104.526 246.405 104.774L246.195 105.162C246.449 105.734 246.82 106.253 247.278 106.679C247.416 106.808 247.573 106.932 247.759 106.961C247.997 106.998 248.227 106.874 248.435 106.753C248.698 106.601 248.972 106.44 249.137 106.184C249.369 105.82 249.333 105.352 249.289 104.924Z" fill="#FF9A6C"/>
<path d="M247.669 107.077C247.659 107.032 248.076 107.026 248.569 106.659C248.809 106.477 249.059 106.2 249.193 105.829C249.33 105.462 249.346 105.004 249.196 104.577C249.16 104.47 249.112 104.369 249.057 104.274C249.003 104.177 248.941 104.093 248.872 104.037C248.801 103.981 248.738 103.965 248.653 103.981C248.569 103.996 248.473 104.042 248.375 104.082C247.989 104.243 247.639 104.385 247.345 104.5C246.756 104.732 246.385 104.86 246.371 104.829C246.358 104.799 246.705 104.615 247.276 104.343C247.563 104.207 247.904 104.049 248.286 103.877C248.38 103.837 248.476 103.783 248.608 103.754C248.738 103.719 248.913 103.759 249.019 103.85C249.129 103.936 249.203 104.045 249.266 104.151C249.33 104.259 249.385 104.374 249.426 104.496C249.596 104.982 249.57 105.498 249.403 105.909C249.238 106.326 248.943 106.62 248.67 106.799C248.393 106.981 248.131 107.053 247.952 107.08C247.77 107.105 247.669 107.091 247.669 107.077Z" fill="#263238"/>
<path d="M266.057 197.208C266.034 197.205 266.052 196.873 266.102 196.277C266.156 195.681 266.219 194.817 266.278 193.75C266.397 191.617 266.433 188.661 266.164 185.413C265.888 182.164 265.36 179.254 264.887 177.171C264.651 176.129 264.445 175.288 264.292 174.71C264.144 174.13 264.071 173.806 264.094 173.799C264.116 173.792 264.23 174.104 264.417 174.674C264.608 175.242 264.85 176.077 265.116 177.116C265.65 179.194 266.219 182.116 266.496 185.385C266.767 188.653 266.694 191.628 266.512 193.766C266.423 194.836 266.324 195.699 266.23 196.291C266.141 196.884 266.08 197.211 266.057 197.208Z" fill="#455A64"/>
<path d="M255.55 204.035C255.539 204.031 255.557 203.923 255.601 203.721C255.658 203.482 255.727 203.191 255.81 202.84C256.003 202.079 256.26 200.972 256.55 199.599C257.135 196.854 257.769 193.023 258.059 188.751C258.343 184.478 258.227 180.595 258.015 177.798C257.911 176.399 257.805 175.267 257.715 174.487C257.68 174.127 257.65 173.83 257.626 173.586C257.609 173.379 257.606 173.27 257.618 173.269C257.629 173.267 257.655 173.373 257.693 173.576C257.734 173.819 257.784 174.113 257.844 174.47C257.973 175.246 258.116 176.377 258.25 177.778C258.523 180.579 258.677 184.481 258.392 188.774C258.099 193.065 257.425 196.91 256.78 199.65C256.459 201.021 256.167 202.122 255.935 202.874C255.827 203.219 255.738 203.505 255.665 203.74C255.6 203.936 255.561 204.038 255.55 204.035Z" fill="#455A64"/>
<path d="M242.103 205.578C242.093 205.573 242.13 205.47 242.21 205.281C242.309 205.057 242.43 204.787 242.575 204.46C242.903 203.752 243.36 202.721 243.905 201.439C244.999 198.876 246.377 195.278 247.573 191.199C248.764 187.117 249.542 183.343 250.003 180.595C250.234 179.221 250.405 178.106 250.51 177.333C250.564 176.979 250.609 176.686 250.645 176.445C250.68 176.242 250.704 176.136 250.715 176.138C250.727 176.139 250.725 176.247 250.712 176.453C250.692 176.696 250.668 176.992 250.639 177.349C250.573 178.127 250.438 179.25 250.236 180.632C249.834 183.397 249.088 187.195 247.893 191.293C246.692 195.388 245.273 198.988 244.122 201.534C243.548 202.807 243.056 203.825 242.692 204.517C242.524 204.833 242.385 205.095 242.27 205.311C242.17 205.491 242.113 205.583 242.103 205.578Z" fill="#455A64"/>
<path d="M227.856 200.556C227.841 200.539 228.115 200.248 228.625 199.738C229.137 199.231 229.867 198.485 230.751 197.548C232.521 195.676 234.862 192.989 237.175 189.813C239.483 186.63 241.315 183.573 242.548 181.311C243.166 180.181 243.65 179.257 243.974 178.613C244.302 177.971 244.493 177.619 244.514 177.629C244.535 177.638 244.383 178.008 244.091 178.669C243.803 179.331 243.349 180.274 242.756 181.422C241.573 183.719 239.764 186.812 237.445 190.008C235.122 193.201 232.741 195.876 230.921 197.711C230.012 198.63 229.256 199.353 228.715 199.832C228.176 200.314 227.871 200.572 227.856 200.556Z" fill="#455A64"/>
</svg>
