<svg width="694" height="694" viewBox="0 0 694 694" fill="none" xmlns="http://www.w3.org/2000/svg">
<path d="M440.725 347.995C374.047 347.362 313.706 346.79 269.969 346.375C248.15 346.271 230.487 346.187 218.221 346.128C212.145 346.142 207.416 346.153 204.151 346.16C202.576 346.181 201.361 346.198 200.493 346.209C199.668 346.228 199.246 346.252 199.246 346.277C199.246 346.302 199.668 346.328 200.493 346.356C201.363 346.377 202.576 346.405 204.151 346.442C207.416 346.482 212.145 346.542 218.22 346.617C230.484 346.682 248.148 346.777 269.967 346.893C313.708 346.921 374.049 346.958 440.73 347C507.378 346.993 567.731 347.08 611.422 347.398C633.268 347.554 650.947 347.758 663.166 347.991C669.274 348.108 674.018 348.228 677.234 348.352C680.45 348.475 682.14 348.599 682.14 348.718C682.138 348.836 680.449 348.945 677.232 349.035C674.014 349.125 669.27 349.2 663.16 349.254C650.939 349.362 633.258 349.389 611.413 349.323C567.72 349.199 507.37 348.675 440.725 347.995Z" fill="#EBEBEB"/>
<path d="M439.396 362.833C373.629 351.984 314.113 342.167 270.974 335.051C249.436 331.606 232 328.817 219.892 326.881C213.888 325.965 209.215 325.253 205.987 324.761C204.427 324.542 203.225 324.373 202.365 324.252C201.547 324.147 201.127 324.105 201.121 324.13C201.117 324.155 201.529 324.248 202.34 324.402C203.196 324.556 204.39 324.771 205.939 325.05C209.158 325.591 213.819 326.376 219.809 327.383C231.915 329.329 249.349 332.13 270.883 335.591C314.088 342.317 373.693 351.597 439.559 361.852C505.398 372.051 565.006 381.379 608.117 388.389C629.673 391.889 647.106 394.803 659.139 396.907C665.156 397.959 669.822 398.808 672.979 399.425C676.136 400.041 677.784 400.424 677.764 400.543C677.745 400.663 676.059 400.511 672.866 400.109C669.674 399.708 664.974 399.056 658.929 398.173C646.84 396.41 629.369 393.727 607.8 390.315C564.656 383.499 505.122 373.726 439.396 362.833Z" fill="#EBEBEB"/>
<path d="M435.726 377.282C372.512 356.352 315.308 337.412 273.843 323.683C253.124 316.937 236.352 311.476 224.704 307.682C218.92 305.846 214.419 304.418 211.31 303.431C209.804 302.973 208.645 302.619 207.813 302.366C207.022 302.134 206.614 302.029 206.606 302.054C206.597 302.079 206.99 302.234 207.765 302.513C208.585 302.799 209.73 303.196 211.217 303.714C214.309 304.749 218.785 306.247 224.54 308.173C236.185 311.975 252.952 317.449 273.667 324.212C315.258 337.562 372.638 355.98 436.045 376.333C499.436 396.625 556.811 415.092 598.263 428.71C618.992 435.516 635.741 441.101 647.287 445.05C653.06 447.023 657.532 448.588 660.552 449.688C663.571 450.789 665.138 451.425 665.1 451.54C665.061 451.655 663.419 451.246 660.329 450.353C657.241 449.462 652.703 448.088 646.875 446.279C635.217 442.662 618.393 437.302 597.637 430.581C556.121 417.15 498.889 398.252 435.726 377.282Z" fill="#EBEBEB"/>
<path d="M429.8 390.966C370.711 360.493 317.238 332.915 278.48 312.926C259.095 303.048 243.402 295.051 232.507 289.499C227.088 286.787 222.87 284.677 219.96 283.221C218.546 282.534 217.458 282.004 216.678 281.625C215.934 281.274 215.548 281.105 215.535 281.127C215.523 281.151 215.887 281.364 216.607 281.76C217.37 282.168 218.439 282.738 219.824 283.48C222.711 284.98 226.895 287.155 232.271 289.949C243.162 295.509 258.849 303.517 278.227 313.409C317.169 333.049 370.893 360.147 430.259 390.091C489.62 419.973 543.332 447.116 582.097 466.997C601.48 476.933 617.131 485.046 627.905 490.734C633.292 493.578 637.46 495.816 640.266 497.369C643.073 498.922 644.519 499.791 644.464 499.898C644.408 500.005 642.853 499.343 639.946 497.981C637.038 496.619 632.778 494.558 627.311 491.866C616.377 486.483 600.618 478.575 581.193 468.718C542.339 449.011 488.834 421.47 429.8 390.966Z" fill="#EBEBEB"/>
<path d="M421.767 403.571C368.235 364.362 319.792 328.881 284.677 303.163C267.097 290.418 252.866 280.101 242.983 272.936C238.061 269.422 234.231 266.689 231.585 264.8C230.298 263.903 229.306 263.213 228.597 262.718C227.918 262.256 227.563 262.029 227.547 262.05C227.532 262.071 227.857 262.337 228.506 262.84C229.198 263.362 230.161 264.089 231.412 265.034C234.027 266.962 237.813 269.755 242.681 273.343C252.559 280.515 266.782 290.841 284.354 303.599C319.705 329 368.474 364.046 422.364 402.771C476.259 441.437 525.008 476.527 560.144 502.138C577.715 514.941 591.886 525.366 601.626 532.646C606.496 536.286 610.258 539.138 612.784 541.106C615.31 543.073 616.601 544.154 616.529 544.251C616.457 544.349 615.026 543.455 612.369 541.663C609.714 539.869 605.832 537.178 600.858 533.676C590.912 526.674 576.6 516.436 558.977 503.705C523.723 478.248 475.243 442.8 421.767 403.571Z" fill="#EBEBEB"/>
<path d="M411.844 414.782C365.146 367.841 322.889 325.361 292.257 294.57C276.902 279.284 264.469 266.908 255.837 258.315C251.529 254.089 248.177 250.8 245.862 248.53C244.732 247.446 243.862 246.611 243.237 246.015C242.64 245.454 242.324 245.176 242.306 245.194C242.286 245.212 242.567 245.526 243.129 246.121C243.728 246.743 244.567 247.609 245.653 248.734C247.933 251.039 251.233 254.379 255.475 258.669C264.101 267.268 276.524 279.651 291.87 294.947C322.783 325.462 365.431 367.562 412.559 414.083C459.7 460.545 502.32 502.686 532.989 533.375C548.328 548.717 560.682 561.189 569.155 569.874C573.391 574.216 576.658 577.611 578.843 579.941C581.029 582.271 582.132 583.537 582.046 583.622C581.96 583.707 580.688 582.605 578.346 580.425C576.006 578.246 572.595 574.991 568.236 570.77C559.515 562.327 546.992 550.019 531.591 534.739C500.783 504.188 458.481 461.735 411.844 414.782Z" fill="#EBEBEB"/>
<path d="M400.275 424.335C361.55 370.801 326.505 322.357 301.105 287.242C288.346 269.787 278.018 255.656 270.847 245.844C267.257 241.008 264.465 237.247 262.535 234.648C261.59 233.405 260.861 232.447 260.339 231.761C259.838 231.116 259.57 230.792 259.548 230.808C259.527 230.823 259.752 231.175 260.214 231.85C260.709 232.555 261.398 233.539 262.295 234.819C264.183 237.446 266.917 241.251 270.43 246.14C277.595 255.957 287.913 270.095 300.659 287.559C326.383 322.445 361.873 370.572 401.09 423.756C440.328 476.883 475.785 525.048 501.241 560.068C513.971 577.574 524.209 591.792 531.209 601.67C534.71 606.61 537.401 610.463 539.191 613.102C540.982 615.739 541.873 617.159 541.774 617.23C541.676 617.3 540.593 616.017 538.624 613.506C536.655 610.995 533.8 607.257 530.158 602.417C522.875 592.74 512.446 578.66 499.642 561.204C474.028 526.296 438.937 477.87 400.275 424.335Z" fill="#EBEBEB"/>
<path d="M387.338 431.991C357.578 373.144 330.648 319.892 311.127 281.292C301.293 262.083 293.332 246.535 287.803 235.736C285.025 230.408 282.862 226.261 281.369 223.397C280.632 222.023 280.064 220.965 279.657 220.208C279.263 219.493 279.049 219.133 279.026 219.144C279.002 219.157 279.169 219.54 279.518 220.277C279.895 221.05 280.421 222.128 281.102 223.53C282.55 226.416 284.647 230.595 287.341 235.967C292.861 246.768 300.81 262.324 310.63 281.539C330.508 319.962 357.932 372.969 388.236 431.544C418.571 490.067 445.958 543.106 465.548 581.62C475.347 600.876 483.205 616.495 488.551 627.333C491.224 632.752 493.272 636.973 494.622 639.854C495.973 642.736 496.628 644.276 496.518 644.33C496.409 644.384 495.543 642.951 493.995 640.166C492.447 637.383 490.221 633.251 487.391 627.91C481.731 617.23 473.662 601.715 463.782 582.499C444.014 544.074 417.036 490.831 387.338 431.991Z" fill="#EBEBEB"/>
<path d="M373.342 437.553C353.342 374.821 335.244 318.053 322.126 276.905C315.477 256.411 310.096 239.819 306.36 228.298C304.465 222.605 302.991 218.174 301.972 215.115C301.463 213.644 301.071 212.511 300.79 211.699C300.515 210.933 300.362 210.543 300.336 210.551C300.311 210.56 300.413 210.964 300.641 211.746C300.89 212.568 301.237 213.716 301.686 215.205C302.655 218.28 304.058 222.732 305.861 228.455C309.589 239.978 314.958 256.573 321.589 277.073C335.09 318.1 353.717 374.703 374.299 437.251C394.922 499.751 413.506 556.377 426.708 597.452C433.313 617.988 438.579 634.632 442.13 646.164C443.905 651.93 445.253 656.417 446.126 659.472C447 662.527 447.4 664.151 447.282 664.187C447.165 664.223 446.538 662.673 445.452 659.684C444.368 656.696 442.828 652.27 440.885 646.557C436.998 635.131 431.506 618.557 424.814 598.049C411.428 557.034 393.28 500.268 373.342 437.553Z" fill="#EBEBEB"/>
<path d="M358.627 440.872C348.884 375.819 340.068 316.95 333.676 274.277C330.381 253.006 327.715 235.786 325.863 223.83C324.901 217.913 324.152 213.309 323.635 210.131C323.367 208.598 323.162 207.42 323.013 206.575C322.865 205.775 322.775 205.367 322.75 205.371C322.725 205.375 322.762 205.79 322.862 206.598C322.976 207.449 323.136 208.634 323.342 210.175C323.809 213.362 324.485 217.977 325.354 223.908C327.197 235.867 329.851 253.088 333.129 274.36C339.915 316.972 349.279 375.761 359.623 440.722C370.015 505.644 379.331 564.45 385.815 607.06C389.061 628.364 391.607 645.62 393.274 657.558C394.108 663.528 394.722 668.168 395.098 671.32C395.474 674.472 395.61 676.138 395.489 676.156C395.368 676.174 394.996 674.544 394.402 671.426C393.808 668.305 392.995 663.696 391.989 657.752C389.975 645.866 387.195 628.646 383.859 607.354C377.179 564.773 368.314 505.9 358.627 440.872Z" fill="#EBEBEB"/>
<path d="M343.566 441.881C344.166 376.124 344.71 316.619 345.104 273.486C345.195 251.969 345.27 234.55 345.322 222.455C345.304 216.463 345.29 211.799 345.28 208.58C345.258 207.026 345.24 205.829 345.227 204.971C345.207 204.158 345.184 203.742 345.159 203.742C345.134 203.742 345.107 204.158 345.079 204.97C345.058 205.828 345.03 207.024 344.994 208.578C344.955 211.796 344.898 216.46 344.826 222.452C344.768 234.548 344.682 251.966 344.578 273.483C344.576 316.618 344.575 376.126 344.574 441.884C344.622 507.61 344.571 567.128 344.275 610.215C344.131 631.758 343.935 649.194 343.706 661.243C343.592 667.268 343.472 671.946 343.348 675.118C343.224 678.289 343.101 679.955 342.98 679.955C342.859 679.955 342.75 678.288 342.657 675.115C342.562 671.942 342.485 667.263 342.426 661.238C342.308 649.187 342.271 631.75 342.325 610.206C342.424 567.121 342.916 507.604 343.566 441.881Z" fill="#EBEBEB"/>
<path d="M328.518 440.58C339.477 375.716 349.395 317.018 356.583 274.469C360.063 253.227 362.879 236.031 364.835 224.09C365.759 218.167 366.478 213.558 366.975 210.376C367.197 208.837 367.367 207.653 367.49 206.804C367.597 205.997 367.639 205.582 367.614 205.578C367.587 205.574 367.494 205.981 367.337 206.779C367.182 207.623 366.964 208.8 366.682 210.329C366.135 213.504 365.343 218.101 364.325 224.008C362.361 235.947 359.531 253.142 356.035 274.381C349.241 316.991 339.869 375.777 329.512 440.739C319.211 505.675 309.79 564.464 302.708 606.982C299.171 628.242 296.229 645.435 294.102 657.303C293.039 663.236 292.181 667.839 291.558 670.954C290.935 674.068 290.548 675.694 290.427 675.674C290.306 675.655 290.459 673.992 290.864 670.843C291.269 667.693 291.929 663.059 292.818 657.097C294.599 645.174 297.307 627.944 300.755 606.67C307.641 564.122 317.512 505.404 328.518 440.58Z" fill="#EBEBEB"/>
<path d="M313.861 436.97C335.045 374.618 354.216 318.193 368.11 277.293C374.938 256.858 380.465 240.313 384.304 228.824C386.162 223.12 387.607 218.679 388.605 215.613C389.069 214.128 389.427 212.984 389.682 212.164C389.917 211.384 390.024 210.981 389.999 210.973C389.974 210.965 389.816 211.352 389.534 212.117C389.245 212.926 388.841 214.056 388.319 215.522C387.271 218.572 385.754 222.988 383.805 228.663C379.958 240.149 374.417 256.69 367.574 277.12C354.062 318.145 335.423 374.742 314.825 437.285C294.286 499.812 275.597 556.406 261.814 597.294C254.927 617.739 249.274 634.26 245.276 645.649C243.279 651.344 241.695 655.755 240.582 658.734C239.469 661.712 238.825 663.257 238.707 663.218C238.59 663.181 239.005 661.561 239.906 658.514C240.808 655.468 242.198 650.993 244.028 645.244C247.688 633.745 253.114 617.151 259.915 596.678C273.512 555.725 292.639 499.275 313.861 436.97Z" fill="#EBEBEB"/>
<path d="M299.984 431.135C330.847 372.845 358.778 320.094 379.023 281.858C389.028 262.736 397.127 247.256 402.75 236.506C405.497 231.159 407.633 226.999 409.108 224.129C409.805 222.734 410.341 221.659 410.724 220.891C411.08 220.158 411.251 219.776 411.228 219.763C411.204 219.752 410.987 220.11 410.588 220.821C410.174 221.575 409.597 222.628 408.846 223.995C407.326 226.844 405.123 230.97 402.293 236.274C396.662 247.018 388.55 262.493 378.532 281.609C358.64 320.023 331.197 373.022 300.87 431.586C270.605 490.144 243.116 543.13 222.981 581.371C212.917 600.493 204.702 615.932 198.94 626.56C196.06 631.875 193.793 635.986 192.221 638.755C190.648 641.524 189.767 642.951 189.66 642.895C189.551 642.84 190.222 641.306 191.6 638.438C192.98 635.571 195.067 631.368 197.793 625.976C203.245 615.189 211.253 599.644 221.237 580.482C241.196 542.154 269.089 489.373 299.984 431.135Z" fill="#EBEBEB"/>
<path d="M287.198 423.222C326.923 370.406 362.872 322.61 388.929 287.967C401.842 270.622 412.295 256.58 419.554 246.831C423.114 241.974 425.885 238.196 427.797 235.587C428.705 234.317 429.405 233.338 429.907 232.637C430.375 231.968 430.604 231.617 430.583 231.602C430.562 231.586 430.291 231.907 429.783 232.547C429.255 233.228 428.518 234.179 427.561 235.413C425.607 237.993 422.78 241.73 419.143 246.531C411.877 256.276 401.414 270.31 388.489 287.646C362.753 322.523 327.246 370.639 288.01 423.81C248.837 476.983 213.285 525.08 187.336 559.747C174.365 577.082 163.801 591.064 156.425 600.674C152.737 605.477 149.847 609.19 147.854 611.682C145.861 614.175 144.765 615.447 144.667 615.377C144.569 615.306 145.474 613.894 147.291 611.272C149.106 608.652 151.835 604.822 155.381 599.917C162.475 590.104 172.849 575.984 185.747 558.595C211.537 523.814 247.453 475.981 287.198 423.222Z" fill="#EBEBEB"/>
<path d="M275.821 413.443C323.392 367.363 366.441 325.662 397.645 295.436C413.136 280.283 425.677 268.016 434.385 259.498C438.668 255.246 442.001 251.939 444.302 249.654C445.4 248.539 446.245 247.68 446.851 247.065C447.418 246.475 447.701 246.165 447.682 246.146C447.664 246.128 447.346 246.403 446.742 246.958C446.112 247.551 445.235 248.377 444.094 249.45C441.758 251.698 438.374 254.956 434.026 259.142C425.312 267.655 412.763 279.914 397.26 295.055C366.336 325.559 323.673 367.645 276.528 414.149C229.443 460.666 186.738 502.722 155.637 532.986C140.09 548.121 127.45 560.313 118.648 568.675C114.248 572.855 110.807 576.078 108.447 578.235C106.086 580.392 104.802 581.482 104.716 581.397C104.63 581.312 105.747 580.056 107.954 577.747C110.161 575.437 113.46 572.072 117.738 567.77C126.293 559.164 138.767 546.807 154.251 531.609C185.217 501.207 228.238 459.464 275.821 413.443Z" fill="#EBEBEB"/>
<path d="M266.127 402.041C320.387 363.818 369.49 329.229 405.081 304.158C422.774 291.566 437.097 281.371 447.042 274.292C451.943 270.75 455.755 267.994 458.39 266.089C459.65 265.157 460.62 264.438 461.316 263.923C461.97 263.427 462.297 263.163 462.282 263.143C462.267 263.122 461.91 263.345 461.227 263.8C460.511 264.289 459.514 264.971 458.218 265.855C455.554 267.717 451.698 270.416 446.743 273.884C436.793 280.956 422.463 291.141 404.762 303.721C369.402 329.111 320.621 364.14 266.717 402.848C212.869 441.577 164.051 476.573 128.555 501.698C110.81 514.264 96.4009 524.37 86.3879 531.278C81.3814 534.733 77.4741 537.389 74.8008 539.156C72.1276 540.924 70.6882 541.804 70.616 541.706C70.5452 541.609 71.8458 540.54 74.3914 538.595C76.9356 536.652 80.7248 533.835 85.63 530.241C95.439 523.053 109.709 512.759 127.402 500.12C162.782 474.838 211.864 440.203 266.127 402.041Z" fill="#EBEBEB"/>
<path d="M258.355 389.288C318.009 359.903 371.991 333.312 411.121 314.036C430.592 304.326 446.356 296.466 457.301 291.007C462.704 288.263 466.908 286.128 469.809 284.654C471.202 283.925 472.274 283.366 473.043 282.963C473.767 282.575 474.132 282.364 474.12 282.34C474.107 282.316 473.719 282.482 472.972 282.826C472.189 283.198 471.094 283.717 469.674 284.39C466.75 285.82 462.512 287.889 457.067 290.55C446.117 296.001 430.349 303.85 410.871 313.546C371.923 333.173 318.188 360.251 258.809 390.174C199.485 420.127 145.719 447.166 106.677 466.51C87.158 476.185 71.3237 483.943 60.3376 489.223C54.8453 491.863 50.5647 493.884 47.6444 495.218C44.724 496.551 43.1625 497.197 43.107 497.09C43.0515 496.982 44.5061 496.127 47.3279 494.598C50.1497 493.07 54.3387 490.872 59.7519 488.078C70.5783 482.49 86.3057 474.522 105.785 464.768C144.738 445.251 198.709 418.611 258.355 389.288Z" fill="#EBEBEB"/>
<path d="M252.709 375.487C316.307 355.725 373.86 337.841 415.578 324.878C436.355 318.309 453.176 312.991 464.856 309.299C470.629 307.427 475.121 305.971 478.221 304.964C479.712 304.462 480.861 304.075 481.684 303.797C482.462 303.525 482.856 303.374 482.848 303.349C482.839 303.324 482.43 303.427 481.636 303.65C480.803 303.896 479.64 304.238 478.13 304.683C475.012 305.64 470.498 307.027 464.697 308.809C453.014 312.493 436.189 317.798 415.406 324.351C373.81 337.691 316.426 356.096 253.014 376.433C189.651 396.81 132.242 415.172 90.6001 428.217C69.7801 434.744 52.9062 439.949 41.2137 443.458C35.3674 445.212 30.819 446.543 27.7223 447.407C24.6243 448.27 22.9795 448.665 22.9421 448.55C22.9046 448.435 24.4772 447.815 27.5072 446.743C30.5372 445.672 35.0246 444.15 40.8167 442.231C52.401 438.391 69.2027 432.963 89.9949 426.352C131.577 413.123 189.126 395.191 252.709 375.487Z" fill="#EBEBEB"/>
<path d="M249.335 360.98C315.294 351.33 374.985 342.599 418.25 336.271C439.817 333.009 457.277 330.367 469.399 328.534C475.4 327.582 480.068 326.841 483.29 326.328C484.844 326.063 486.039 325.859 486.896 325.714C487.707 325.566 488.121 325.478 488.117 325.453C488.112 325.428 487.692 325.465 486.873 325.564C486.011 325.677 484.807 325.834 483.245 326.04C480.013 326.502 475.334 327.171 469.322 328.031C457.196 329.857 439.735 332.486 418.165 335.732C374.96 342.451 315.354 351.72 249.487 361.964C183.661 372.253 124.037 381.476 80.8329 387.897C59.2314 391.112 41.7357 393.634 29.631 395.286C23.5779 396.111 18.874 396.721 15.6774 397.093C12.4808 397.465 10.793 397.601 10.7736 397.481C10.7555 397.362 12.4073 396.994 15.5705 396.407C18.7338 395.82 23.4072 395.014 29.4339 394.017C41.4859 392.024 58.9455 389.27 80.5331 385.968C123.707 379.353 183.401 370.572 249.335 360.98Z" fill="#EBEBEB"/>
<path d="M248.3 346.128C314.98 346.679 375.32 347.178 419.058 347.54C440.877 347.618 458.541 347.68 470.807 347.723C476.883 347.702 481.611 347.684 484.875 347.673C486.451 347.65 487.665 347.631 488.534 347.619C489.359 347.598 489.781 347.576 489.781 347.551C489.781 347.526 489.359 347.5 488.534 347.473C487.665 347.454 486.451 347.426 484.875 347.391C481.611 347.355 476.882 347.303 470.807 347.233C458.541 347.183 440.877 347.11 419.058 347.019C375.319 347.046 314.976 347.08 248.295 347.121C181.647 347.21 121.293 347.196 77.6014 346.931C55.7557 346.803 38.0753 346.62 25.8568 346.402C19.7468 346.293 15.004 346.177 11.788 346.057C8.57201 345.938 6.88281 345.816 6.88281 345.698C6.88281 345.58 8.5734 345.47 11.7894 345.376C15.0068 345.282 19.751 345.201 25.8609 345.14C38.0809 345.016 55.7626 344.969 77.6084 345.008C121.304 345.078 181.656 345.529 248.3 346.128Z" fill="#EBEBEB"/>
<path d="M249.61 331.288C315.391 342.055 374.92 351.797 418.068 358.859C439.61 362.276 457.049 365.044 469.159 366.965C475.167 367.873 479.84 368.579 483.067 369.068C484.627 369.286 485.829 369.452 486.691 369.573C487.509 369.679 487.931 369.719 487.933 369.694C487.938 369.669 487.525 369.576 486.716 369.423C485.86 369.27 484.666 369.057 483.114 368.779C479.896 368.242 475.233 367.463 469.243 366.464C457.134 364.533 439.698 361.754 418.157 358.321C374.945 351.648 315.327 342.443 249.449 332.271C183.595 322.155 123.975 312.9 80.8567 305.944C59.2955 302.47 41.8594 299.579 29.8241 297.49C23.8057 296.446 19.1392 295.602 15.9802 294.99C12.8211 294.378 11.1735 293.996 11.1916 293.877C11.211 293.758 12.8988 293.908 16.0912 294.305C19.285 294.702 23.9847 295.348 30.0295 296.223C42.1204 297.97 59.5953 300.631 81.1703 304.016C124.323 310.779 183.87 320.477 249.61 331.288Z" fill="#EBEBEB"/>
<path d="M253.261 316.833C316.501 337.684 373.729 356.552 415.212 370.229C435.939 376.95 452.719 382.39 464.373 386.168C470.159 387.996 474.662 389.419 477.771 390.401C479.277 390.858 480.437 391.209 481.269 391.462C482.06 391.692 482.469 391.798 482.478 391.773C482.486 391.748 482.093 391.592 481.319 391.315C480.497 391.03 479.352 390.633 477.865 390.118C474.772 389.087 470.292 387.593 464.536 385.675C452.887 381.889 436.112 376.435 415.39 369.699C373.781 356.401 316.377 338.054 252.944 317.783C189.526 297.569 132.127 279.174 90.6578 265.608C69.9211 258.829 53.1651 253.264 41.6142 249.331C35.8387 247.364 31.3638 245.805 28.3435 244.708C25.3232 243.612 23.7548 242.979 23.7937 242.862C23.8325 242.747 25.4745 243.155 28.5656 244.042C31.6553 244.929 36.1941 246.298 42.0251 248.098C53.687 251.7 70.5179 257.039 91.2838 263.734C132.814 277.117 190.069 295.944 253.261 316.833Z" fill="#EBEBEB"/>
<path d="M259.171 303.142C318.3 333.542 371.808 361.052 410.591 380.993C429.988 390.847 445.691 398.824 456.595 404.363C462.018 407.068 466.237 409.173 469.149 410.626C470.565 411.311 471.653 411.839 472.433 412.218C473.177 412.569 473.565 412.737 473.577 412.713C473.59 412.691 473.226 412.477 472.504 412.082C471.74 411.675 470.672 411.105 469.286 410.366C466.396 408.869 462.209 406.701 456.831 403.912C445.931 398.366 430.234 390.376 410.845 380.509C371.878 360.916 318.12 333.886 258.713 304.018C199.314 274.209 145.568 247.132 106.779 227.3C87.3829 217.388 71.7207 209.295 60.9401 203.62C55.5505 200.782 51.3795 198.551 48.5702 197C45.7609 195.45 44.3132 194.584 44.3687 194.477C44.4242 194.37 45.9802 195.031 48.8894 196.388C51.7987 197.745 56.0612 199.801 61.5313 202.487C72.4716 207.856 88.2406 215.744 107.678 225.578C146.557 245.237 200.097 272.711 259.171 303.142Z" fill="#EBEBEB"/>
<path d="M267.185 290.528C320.768 329.669 369.256 365.091 404.403 390.765C422 403.487 436.244 413.788 446.136 420.94C451.064 424.448 454.897 427.176 457.543 429.061C458.832 429.957 459.825 430.646 460.535 431.139C461.214 431.601 461.569 431.826 461.586 431.805C461.601 431.785 461.276 431.518 460.627 431.017C459.936 430.497 458.971 429.769 457.718 428.827C455.1 426.902 451.311 424.114 446.439 420.532C436.552 413.373 422.314 403.064 404.727 390.329C369.344 364.97 320.531 329.986 266.59 291.327C212.645 252.728 163.852 217.699 128.684 192.131C111.097 179.35 96.9112 168.942 87.1633 161.674C82.2886 158.04 78.523 155.192 75.994 153.23C73.4651 151.266 72.1729 150.186 72.2451 150.089C72.3172 149.991 73.7496 150.883 76.4077 152.672C79.0657 154.461 82.9507 157.149 87.9281 160.644C97.8828 167.634 112.208 177.856 129.848 190.564C165.136 215.977 213.661 251.365 267.185 290.528Z" fill="#EBEBEB"/>
<path d="M277.094 279.304C323.85 326.188 366.163 368.615 396.832 399.368C412.207 414.634 424.655 426.995 433.298 435.577C437.612 439.798 440.968 443.082 443.286 445.349C444.417 446.432 445.289 447.265 445.913 447.862C446.512 448.423 446.828 448.699 446.846 448.681C446.864 448.663 446.585 448.349 446.022 447.755C445.421 447.134 444.582 446.268 443.494 445.145C441.212 442.843 437.907 439.507 433.66 435.223C425.023 426.635 412.585 414.267 397.22 398.989C366.267 368.511 323.565 326.465 276.38 280.003C229.181 233.599 186.506 191.511 155.798 160.859C140.44 145.537 128.07 133.08 119.585 124.406C115.343 120.069 112.072 116.679 109.884 114.352C107.697 112.024 106.59 110.76 106.677 110.675C106.763 110.59 108.037 111.691 110.38 113.866C112.723 116.041 116.137 119.293 120.502 123.508C129.234 131.941 141.772 144.234 157.194 159.494C188.042 190.007 230.397 232.408 277.094 279.304Z" fill="#EBEBEB"/>
<path d="M288.653 269.737C327.446 323.222 362.551 371.623 387.997 406.708C400.778 424.148 411.124 438.265 418.308 448.069C421.905 452.899 424.702 456.659 426.634 459.254C427.582 460.497 428.31 461.453 428.834 462.139C429.336 462.783 429.604 463.106 429.625 463.091C429.646 463.076 429.419 462.723 428.957 462.05C428.462 461.345 427.77 460.361 426.872 459.084C424.982 456.459 422.243 452.657 418.723 447.773C411.546 437.964 401.21 423.84 388.441 406.391C362.673 371.537 327.122 323.453 287.836 270.318C248.53 217.24 213.012 169.119 187.512 134.131C174.757 116.639 164.503 102.436 157.491 92.5657C153.985 87.6313 151.289 83.7796 149.494 81.1452C147.7 78.5108 146.807 77.0909 146.906 77.0215C147.004 76.9507 148.09 78.2332 150.062 80.7413C152.034 83.2494 154.894 86.9845 158.541 91.8189C165.837 101.486 176.284 115.554 189.111 132.994C214.769 167.866 249.92 216.249 288.653 269.737Z" fill="#EBEBEB"/>
<path d="M301.576 262.063C331.411 320.872 358.411 374.091 377.98 412.668C387.839 431.864 395.82 447.402 401.362 458.194C404.148 463.52 406.316 467.664 407.812 470.525C408.552 471.898 409.12 472.955 409.528 473.713C409.922 474.427 410.136 474.788 410.159 474.775C410.183 474.764 410.015 474.381 409.665 473.644C409.288 472.871 408.76 471.792 408.077 470.393C406.625 467.509 404.524 463.332 401.823 457.965C396.289 447.171 388.319 431.625 378.474 412.422C358.547 374.024 331.054 321.051 300.675 262.514C270.266 204.029 242.811 151.024 223.171 112.535C213.348 93.2917 205.47 77.6808 200.109 66.8516C197.429 61.4371 195.376 57.2175 194.023 54.3374C192.669 51.4573 192.011 49.918 192.121 49.8639C192.229 49.8098 193.1 51.2422 194.65 54.0237C196.2 56.8053 198.434 60.9346 201.269 66.2715C206.944 76.9452 215.031 92.4505 224.936 111.652C244.755 150.053 271.803 203.26 301.576 262.063Z" fill="#EBEBEB"/>
<path d="M315.568 256.484C335.648 319.191 353.82 375.937 366.992 417.069C373.666 437.555 379.069 454.138 382.821 465.656C384.722 471.347 386.203 475.776 387.225 478.834C387.736 480.303 388.13 481.436 388.412 482.248C388.688 483.014 388.842 483.403 388.867 483.395C388.892 483.386 388.788 482.982 388.56 482.201C388.31 481.379 387.962 480.233 387.511 478.743C386.538 475.67 385.129 471.219 383.318 465.499C379.576 453.98 374.185 437.392 367.526 416.901C353.973 375.89 335.273 319.311 314.609 256.79C293.905 194.316 275.248 137.712 261.994 96.6548C255.362 76.1276 250.074 59.4883 246.508 47.9623C244.724 42.1994 243.373 37.7133 242.495 34.6597C241.618 31.6061 241.216 29.9836 241.332 29.9461C241.449 29.9086 242.079 31.459 243.167 34.446C244.255 37.433 245.8 41.8579 247.752 47.5681C251.652 58.9886 257.168 75.5558 263.884 96.0565C277.327 137.053 295.549 193.794 315.568 256.484Z" fill="#EBEBEB"/>
<path d="M330.277 253.148C340.102 318.188 348.995 377.047 355.44 419.71C358.761 440.977 361.451 458.193 363.318 470.147C364.288 476.063 365.042 480.666 365.562 483.844C365.832 485.375 366.04 486.555 366.188 487.4C366.338 488.2 366.428 488.608 366.453 488.604C366.48 488.599 366.441 488.184 366.341 487.377C366.226 486.527 366.065 485.34 365.855 483.8C365.385 480.613 364.703 475.999 363.826 470.07C361.967 458.113 359.291 440.895 355.985 419.627C349.145 377.024 339.707 318.247 329.279 253.297C318.803 188.389 309.412 129.595 302.873 86.9928C299.6 65.6926 297.031 48.4411 295.349 36.5043C294.508 30.5359 293.887 25.8972 293.507 22.7451C293.127 19.5929 292.988 17.9287 293.109 17.9107C293.23 17.8926 293.604 19.5208 294.201 22.641C294.798 25.7598 295.618 30.3694 296.633 36.3114C298.662 48.1954 301.465 65.4122 304.828 86.6986C311.565 129.27 320.507 188.132 330.277 253.148Z" fill="#EBEBEB"/>
<path d="M345.336 252.119C344.82 317.876 344.352 377.382 344.013 420.515C343.948 442.032 343.897 459.452 343.859 471.548C343.886 477.54 343.905 482.204 343.919 485.422C343.944 486.977 343.962 488.173 343.976 489.031C343.997 489.845 344.022 490.261 344.047 490.261C344.072 490.261 344.098 489.845 344.126 489.033C344.145 488.175 344.172 486.978 344.206 485.425C344.241 482.206 344.292 477.543 344.358 471.551C344.401 459.454 344.463 442.036 344.541 420.52C344.487 377.386 344.412 317.877 344.33 252.119C344.198 186.393 344.174 126.874 344.415 83.7866C344.531 62.242 344.706 44.8074 344.918 32.7581C345.025 26.7328 345.139 22.0553 345.258 18.8837C345.378 15.7121 345.5 14.0465 345.621 14.0465C345.74 14.0465 345.853 15.7135 345.95 18.8865C346.048 22.0594 346.132 26.7384 346.198 32.7637C346.331 44.8143 346.391 62.2504 346.365 83.7949C346.32 126.878 345.903 186.396 345.336 252.119Z" fill="#EBEBEB"/>
<path d="M360.385 253.402C349.51 318.279 339.669 376.992 332.536 419.548C329.084 440.794 326.29 457.994 324.35 469.938C323.432 475.862 322.72 480.471 322.228 483.654C322.008 485.193 321.839 486.379 321.718 487.228C321.613 488.035 321.571 488.45 321.598 488.454C321.624 488.458 321.717 488.051 321.872 487.252C322.026 486.408 322.243 485.229 322.523 483.7C323.066 480.526 323.852 475.927 324.862 470.018C326.811 458.076 329.619 440.879 333.086 419.634C339.823 377.014 349.12 318.217 359.393 253.243C369.608 188.295 378.954 129.493 385.98 86.9665C389.489 65.7023 392.409 48.505 394.52 36.6348C395.575 30.6997 396.427 26.0957 397.046 22.9811C397.665 19.8664 398.051 18.2397 398.172 18.2591C398.293 18.2785 398.143 19.9413 397.742 23.0907C397.341 26.2401 396.688 30.8746 395.806 36.8375C394.041 48.7632 391.354 65.9966 387.934 87.2746C381.101 129.833 371.306 188.564 360.385 253.402Z" fill="#EBEBEB"/>
<path d="M375.045 256.992C353.943 319.37 334.847 375.82 321.004 416.739C314.203 437.184 308.698 453.734 304.875 465.228C303.024 470.936 301.584 475.377 300.59 478.445C300.128 479.93 299.772 481.074 299.517 481.896C299.284 482.676 299.177 483.079 299.203 483.088C299.228 483.096 299.386 482.709 299.667 481.944C299.954 481.133 300.355 480.005 300.877 478.538C301.921 475.486 303.432 471.068 305.374 465.391C309.206 453.9 314.725 437.353 321.543 416.913C335.001 375.872 353.567 319.25 374.083 256.681C394.538 194.128 413.154 137.51 426.884 96.6061C433.745 76.1525 439.376 59.6229 443.358 48.2302C445.348 42.5324 446.927 38.12 448.036 35.1399C449.146 32.1599 449.787 30.615 449.904 30.6525C450.022 30.69 449.608 32.3098 448.71 35.3578C447.812 38.4059 446.428 42.8822 444.606 48.6341C440.961 60.1378 435.557 76.7397 428.783 97.221C415.24 138.186 396.187 194.661 375.045 256.992Z" fill="#EBEBEB"/>
<path d="M388.932 262.811C358.144 321.14 330.282 373.926 310.087 412.186C300.107 431.321 292.028 446.812 286.419 457.568C283.679 462.917 281.548 467.08 280.077 469.953C279.383 471.349 278.849 472.424 278.466 473.193C278.11 473.927 277.939 474.309 277.963 474.32C277.987 474.332 278.203 473.973 278.602 473.262C279.015 472.507 279.591 471.454 280.339 470.086C281.855 467.235 284.052 463.106 286.875 457.8C292.493 447.047 300.583 431.562 310.577 412.434C330.418 373.994 357.794 320.961 388.043 262.358C418.232 203.761 445.653 150.741 465.737 112.475C475.777 93.3402 483.973 77.8903 489.721 67.2555C492.594 61.9381 494.855 57.8226 496.425 55.0522C497.994 52.2817 498.873 50.8535 498.981 50.9076C499.09 50.9631 498.421 52.4969 497.046 55.3673C495.671 58.2376 493.589 62.4419 490.87 67.8384C485.432 78.6315 477.445 94.1868 467.485 113.362C447.575 151.718 419.75 204.534 388.932 262.811Z" fill="#EBEBEB"/>
<path d="M401.726 270.707C362.069 323.573 326.183 371.413 300.17 406.09C287.28 423.451 276.845 437.506 269.599 447.265C266.046 452.126 263.28 455.908 261.371 458.52C260.464 459.792 259.765 460.77 259.266 461.472C258.798 462.143 258.57 462.494 258.591 462.509C258.612 462.525 258.883 462.204 259.389 461.563C259.917 460.881 260.654 459.929 261.609 458.694C263.559 456.112 266.383 452.371 270.012 447.565C277.265 437.81 287.71 423.763 300.613 406.411C326.305 371.501 361.749 323.34 400.915 270.121C440.021 216.899 475.511 168.757 501.415 134.059C514.363 116.707 524.909 102.711 532.271 93.0931C535.954 88.2837 538.838 84.568 540.828 82.0738C542.819 79.5781 543.913 78.304 544.011 78.3747C544.108 78.4455 543.206 79.8585 541.393 82.4818C539.581 85.1038 536.857 88.9374 533.317 93.8482C526.235 103.67 515.881 117.804 503.004 135.208C477.258 170.022 441.405 217.899 401.726 270.707Z" fill="#EBEBEB"/>
<path d="M413.115 280.473C365.604 326.613 322.609 368.367 291.445 398.632C275.972 413.804 263.449 426.087 254.75 434.616C250.472 438.873 247.144 442.185 244.847 444.472C243.75 445.588 242.905 446.449 242.301 447.065C241.733 447.655 241.452 447.967 241.47 447.985C241.488 448.003 241.805 447.729 242.408 447.172C243.037 446.579 243.914 445.752 245.053 444.678C247.387 442.426 250.766 439.165 255.109 434.973C263.812 426.449 276.346 414.175 291.828 399.013C322.712 368.47 365.321 326.331 412.406 279.768C459.431 233.192 502.082 191.082 533.142 160.779C548.67 145.625 561.295 133.416 570.086 125.045C574.481 120.859 577.917 117.632 580.276 115.472C582.634 113.312 583.917 112.221 584.002 112.306C584.088 112.391 582.972 113.648 580.768 115.96C578.563 118.273 575.268 121.642 570.996 125.948C562.452 134.564 549.993 146.938 534.529 162.154C503.607 192.596 460.639 234.392 413.115 280.473Z" fill="#EBEBEB"/>
<path d="M422.825 291.863C368.614 330.154 319.557 364.805 283.998 389.921C266.321 402.535 252.013 412.748 242.075 419.839C237.178 423.389 233.368 426.149 230.737 428.056C229.477 428.992 228.508 429.711 227.813 430.227C227.16 430.723 226.833 430.988 226.848 431.009C226.863 431.03 227.22 430.806 227.903 430.349C228.618 429.861 229.614 429.178 230.909 428.291C233.57 426.424 237.422 423.722 242.374 420.248C252.317 413.163 266.632 402.96 284.318 390.358C319.644 364.923 368.381 329.835 422.236 291.058C476.033 252.261 524.806 217.204 560.269 192.034C577.998 179.446 592.395 169.322 602.398 162.402C607.4 158.94 611.303 156.279 613.974 154.508C616.644 152.737 618.084 151.856 618.155 151.953C618.225 152.05 616.926 153.121 614.383 155.067C611.841 157.013 608.055 159.837 603.156 163.436C593.357 170.637 579.099 180.948 561.423 193.608C526.076 218.936 477.038 253.633 422.825 291.863Z" fill="#EBEBEB"/>
<path d="M430.613 304.606C370.998 334.067 317.05 360.726 277.945 380.051C258.487 389.786 242.735 397.666 231.796 403.139C226.398 405.89 222.196 408.03 219.297 409.509C217.905 410.239 216.833 410.799 216.066 411.202C215.341 411.592 214.976 411.803 214.989 411.825C215.001 411.849 215.388 411.684 216.135 411.338C216.918 410.965 218.012 410.445 219.432 409.769C222.355 408.337 226.589 406.261 232.03 403.593C242.973 398.128 258.731 390.26 278.197 380.538C317.12 360.862 370.819 333.717 430.159 303.719C489.445 273.691 543.174 246.584 582.191 227.191C601.698 217.49 617.522 209.711 628.5 204.419C633.99 201.772 638.266 199.746 641.186 198.409C644.105 197.072 645.667 196.424 645.721 196.531C645.777 196.639 644.323 197.497 641.504 199.028C638.685 200.559 634.499 202.763 629.089 205.564C618.269 211.166 602.552 219.153 583.086 228.932C544.157 248.499 490.221 275.207 430.613 304.606Z" fill="#EBEBEB"/>
<path d="M436.279 318.399C372.706 338.242 315.176 356.198 273.475 369.215C252.706 375.811 235.892 381.149 224.217 384.856C218.448 386.736 213.957 388.199 210.858 389.208C209.367 389.713 208.219 390.101 207.396 390.379C206.62 390.651 206.226 390.804 206.235 390.829C206.243 390.854 206.652 390.751 207.445 390.526C208.278 390.279 209.439 389.936 210.95 389.489C214.066 388.528 218.578 387.135 224.377 385.346C236.056 381.649 252.873 376.321 273.647 369.742C315.224 356.35 372.585 337.871 435.971 317.454C499.308 296.996 556.693 278.56 598.318 265.463C619.13 258.911 635.997 253.683 647.684 250.161C653.527 248.399 658.074 247.061 661.171 246.194C664.268 245.326 665.911 244.929 665.95 245.044C665.987 245.16 664.415 245.781 661.387 246.857C658.359 247.931 653.873 249.46 648.084 251.386C636.505 255.241 619.709 260.69 598.926 267.327C557.361 280.609 499.835 298.614 436.279 318.399Z" fill="#EBEBEB"/>
<path d="M439.674 332.902C373.727 342.635 314.048 351.442 270.79 357.825C249.227 361.115 231.772 363.778 219.651 365.627C213.653 366.587 208.985 367.334 205.762 367.85C204.209 368.117 203.014 368.322 202.158 368.471C201.347 368.619 200.933 368.708 200.938 368.733C200.942 368.76 201.362 368.721 202.181 368.621C203.043 368.507 204.247 368.347 205.808 368.141C209.038 367.674 213.717 366.998 219.73 366.131C231.852 364.29 249.311 361.639 270.875 358.366C314.072 351.593 373.666 342.247 439.519 331.922C505.331 321.55 564.945 312.251 608.141 305.775C629.738 302.533 647.229 299.99 659.333 298.323C665.385 297.489 670.088 296.874 673.285 296.498C676.482 296.121 678.168 295.983 678.187 296.102C678.207 296.221 676.555 296.592 673.392 297.182C670.23 297.773 665.557 298.585 659.531 299.589C647.482 301.597 630.025 304.372 608.442 307.701C565.276 314.371 505.594 323.226 439.674 332.902Z" fill="#EBEBEB"/>
<path d="M525.894 515.502C518.041 506.26 507.178 500.696 499.629 498.572C492.56 496.582 481.843 494.769 470.932 497.43C464.156 499.083 458.221 502.276 453.293 506.921C447.457 512.423 443 520.01 440.048 529.471C439.605 530.891 439.752 532.392 440.463 533.703C441.176 535.018 442.363 535.968 443.805 536.373L462.34 541.591C464.955 542.326 467.753 541.008 468.847 538.523C471.305 532.942 477.51 524.125 491.448 527.791C502.069 530.589 504.273 539.461 504.728 543.149C505.471 549.15 503.107 555.354 498.407 559.743C491.186 566.486 481.763 565.177 476.788 563.797C471.067 562.209 465.112 565.541 463.513 571.222L457.899 591.167C457.078 594.081 458.781 597.116 461.695 597.936L479.754 603.019C482.667 603.84 485.703 602.137 486.523 599.223L487.703 595.033C487.731 594.933 487.818 594.863 487.925 594.857C492.421 594.572 501.326 593.337 510.468 588.245C522.138 581.747 530.054 571.347 533.998 557.336C539.643 537.286 532.706 523.519 525.894 515.502Z" fill="#E0E0E0"/>
<path d="M470.209 605.752L468.629 605.308C461.077 603.182 453.202 607.597 451.077 615.15C448.951 622.704 453.365 630.578 460.919 632.703L462.498 633.147C470.05 635.274 477.926 630.858 480.051 623.305C482.176 615.751 477.762 607.879 470.209 605.752Z" fill="#E0E0E0"/>
<path d="M565.694 405.032C560.241 402.045 554.018 401.372 550.014 401.737C546.263 402.08 540.799 403.175 536.062 406.448C533.119 408.481 530.862 411.098 529.353 414.225C527.567 417.93 526.823 422.379 527.142 427.45C527.191 428.21 527.537 428.903 528.117 429.4C528.7 429.9 529.442 430.136 530.207 430.066L540.04 429.168C541.428 429.042 542.526 427.898 542.594 426.507C542.748 423.384 544.104 418.025 551.45 417.227C557.05 416.621 559.73 420.465 560.624 422.148C562.078 424.885 562.084 428.288 560.638 431.252C558.415 435.804 553.663 436.903 551.027 437.155C547.997 437.442 545.755 440.129 546.03 443.143L546.996 453.723C547.138 455.268 548.509 456.41 550.054 456.27L559.634 455.396C561.179 455.254 562.321 453.883 562.18 452.338L561.977 450.114C561.971 450.062 562.001 450.012 562.051 449.99C564.151 449.03 568.19 446.805 571.635 442.693C576.032 437.442 577.918 431.011 577.239 423.58C576.269 412.944 570.426 407.624 565.694 405.032Z" fill="#F5F5F5"/>
<path d="M555.565 458.454L554.727 458.53C550.721 458.896 547.759 462.452 548.124 466.46C548.491 470.467 552.047 473.427 556.054 473.062L556.892 472.986C560.898 472.62 563.86 469.063 563.495 465.056C563.128 461.049 559.571 458.087 555.565 458.454Z" fill="#F5F5F5"/>
<path d="M171.947 179.15C168.252 175.51 163.413 173.551 160.117 172.931C157.03 172.351 152.395 171.983 147.848 173.529C145.024 174.49 142.615 176.075 140.692 178.24C138.412 180.805 136.801 184.206 135.902 188.347C135.767 188.969 135.886 189.604 136.239 190.135C136.593 190.669 137.134 191.028 137.764 191.147L145.859 192.668C147.001 192.883 148.144 192.216 148.516 191.115C149.351 188.644 151.662 184.654 157.739 185.688C162.369 186.479 163.644 190.175 163.978 191.729C164.521 194.257 163.749 196.989 161.913 199.036C159.091 202.183 155.027 201.982 152.855 201.581C150.358 201.121 147.947 202.765 147.48 205.246L145.842 213.956C145.604 215.227 146.443 216.457 147.715 216.696L155.601 218.178C156.873 218.417 158.103 217.577 158.341 216.306L158.686 214.476C158.694 214.432 158.729 214.4 158.773 214.393C160.677 214.102 164.425 213.238 168.127 210.725C172.853 207.514 175.833 202.785 176.982 196.667C178.628 187.91 175.153 182.308 171.947 179.15Z" fill="#F5F5F5"/>
<path d="M151.636 219.705L150.946 219.576C147.649 218.956 144.46 221.135 143.84 224.433C143.219 227.731 145.399 230.919 148.697 231.539L149.386 231.668C152.684 232.289 155.872 230.11 156.493 226.812C157.112 223.514 154.934 220.326 151.636 219.705Z" fill="#F5F5F5"/>
<path d="M551.046 181.932C545.604 178.924 539.386 178.226 535.38 178.576C531.628 178.903 526.16 179.976 521.41 183.231C518.459 185.252 516.192 187.86 514.671 190.982C512.87 194.679 512.107 199.125 512.407 204.198C512.452 204.959 512.796 205.653 513.373 206.153C513.955 206.655 514.696 206.894 515.461 206.827L525.296 205.968C526.684 205.847 527.786 204.708 527.861 203.317C528.028 200.194 529.405 194.842 536.754 194.071C542.356 193.487 545.021 197.343 545.908 199.029C547.352 201.772 547.343 205.177 545.886 208.133C543.646 212.678 538.889 213.757 536.252 213.998C533.22 214.274 530.968 216.951 531.231 219.966L532.156 230.55C532.29 232.096 533.658 233.242 535.204 233.108L544.787 232.271C546.333 232.136 547.479 230.769 547.345 229.223L547.15 226.999C547.146 226.946 547.175 226.896 547.225 226.874C549.33 225.923 553.377 223.715 556.839 219.616C561.257 214.383 563.168 207.96 562.518 200.526C561.591 189.887 555.767 184.541 551.046 181.932Z" fill="#EBEBEB"/>
<path d="M540.707 235.313L539.868 235.387C535.861 235.736 532.885 239.281 533.235 243.29C533.585 247.298 537.13 250.274 541.138 249.923L541.977 249.85C545.984 249.5 548.96 245.955 548.61 241.946C548.26 237.939 544.715 234.963 540.707 235.313Z" fill="#EBEBEB"/>
<path d="M255.33 501.774C248.519 498.567 240.95 498.211 236.14 498.948C231.633 499.638 225.111 501.365 219.627 505.671C216.22 508.344 213.686 511.672 212.094 515.563C210.208 520.171 209.636 525.604 210.396 531.708C210.51 532.624 210.979 533.436 211.718 533.994C212.459 534.555 213.374 534.787 214.292 534.645L226.109 532.835C227.776 532.58 229.018 531.117 229 529.432C228.957 525.647 230.2 519.07 239.02 517.564C245.742 516.419 249.265 520.868 250.469 522.836C252.429 526.037 252.686 530.149 251.156 533.837C248.807 539.503 243.143 541.183 239.977 541.679C236.337 542.251 233.826 545.662 234.38 549.284L236.327 561.998C236.612 563.856 238.353 565.134 240.211 564.851L251.723 563.088C253.58 562.803 254.858 561.062 254.575 559.204L254.166 556.532C254.156 556.469 254.188 556.406 254.246 556.376C256.714 555.061 261.43 552.076 265.29 546.851C270.218 540.182 272.022 532.272 270.655 523.34C268.694 510.558 261.239 504.557 255.33 501.774Z" fill="#EBEBEB"/>
<path d="M247.028 567.08L246.02 567.234C241.205 567.971 237.888 572.489 238.626 577.302C239.365 582.116 243.881 585.435 248.695 584.696L249.703 584.542C254.517 583.805 257.835 579.289 257.096 574.474C256.359 569.66 251.841 566.343 247.028 567.08Z" fill="#EBEBEB"/>
<path d="M151.719 261.172C142.141 256.683 131.508 256.201 124.748 257.249C118.419 258.23 109.258 260.672 101.565 266.733C96.7857 270.499 93.2338 275.181 91.0061 280.651C88.3675 287.13 87.5791 294.764 88.6618 303.339C88.8241 304.626 89.4848 305.765 90.5231 306.547C91.5655 307.332 92.8507 307.656 94.1416 307.456L110.738 304.884C113.079 304.522 114.821 302.462 114.791 300.094C114.72 294.775 116.451 285.534 128.837 283.395C138.279 281.77 143.239 288.011 144.937 290.772C147.699 295.265 148.07 301.042 145.931 306.227C142.642 314.193 134.692 316.567 130.243 317.273C125.129 318.085 121.61 322.883 122.398 327.972L125.166 345.831C125.57 348.439 128.021 350.233 130.629 349.829L146.8 347.323C149.408 346.919 151.201 344.468 150.797 341.86L150.215 338.108C150.202 338.018 150.246 337.932 150.328 337.888C153.792 336.035 160.41 331.829 165.821 324.48C172.727 315.097 175.242 303.979 173.299 291.434C170.516 273.478 160.027 265.066 151.719 261.172Z" fill="#EBEBEB"/>
<path d="M140.215 352.943L138.801 353.163C132.038 354.211 127.389 360.565 128.437 367.327C129.484 374.09 135.839 378.739 142.601 377.691L144.015 377.472C150.778 376.424 155.428 370.07 154.38 363.308C153.332 356.545 146.977 351.895 140.215 352.943Z" fill="#EBEBEB"/>
<path d="M385.473 148.057L397.983 150.141C404.133 157.492 412.551 163.118 422.649 165.805C446.464 172.143 471.661 159.066 480.236 135.963C490.145 109.268 475.013 79.7879 447.284 72.4287C423.745 66.1813 398.839 78.8607 390.009 101.557C385.627 112.821 385.754 124.617 389.426 135.075L389.41 135.052L385.473 148.057Z" fill="white"/>
<path d="M385.473 148.057C385.473 148.057 385.537 147.785 385.695 147.229C385.863 146.645 386.101 145.818 386.411 144.743C387.068 142.503 388.027 139.236 389.266 135.011L389.352 134.718L389.527 134.969L389.542 134.991L389.283 135.123C387.284 129.474 385.582 121.415 387.004 111.909C387.693 107.179 389.211 102.172 391.656 97.2058C394.142 92.2646 397.684 87.4399 402.266 83.2564C406.862 79.098 412.512 75.6211 418.905 73.3558C425.283 71.1045 432.423 69.9788 439.675 70.7547C446.914 71.4668 454.216 73.8777 460.759 77.9113C467.336 81.9073 472.95 87.7619 476.971 94.6797C479.097 98.1358 480.517 101.925 481.73 105.702C482.007 106.655 482.186 107.633 482.418 108.593C482.606 109.562 482.921 110.506 483.003 111.488C483.121 112.464 483.239 113.437 483.357 114.407L483.525 115.861L483.549 117.319C483.832 125.092 482.17 132.682 479.154 139.375C476.162 146.106 471.522 151.749 466.311 156.149C461.072 160.549 455.152 163.667 449.19 165.518C443.215 167.348 437.22 167.94 431.674 167.561C430.293 167.4 428.935 167.242 427.6 167.086C426.27 166.899 424.992 166.548 423.722 166.294C421.189 165.744 418.824 164.911 416.606 164.016C407.699 160.358 401.658 154.788 397.872 150.234L397.958 150.283C393.928 149.575 390.797 149.025 388.644 148.647C387.614 148.461 386.823 148.318 386.26 148.216C385.728 148.116 385.473 148.057 385.473 148.057C385.473 148.057 385.771 148.09 386.322 148.172C386.897 148.259 387.703 148.383 388.751 148.544C390.89 148.881 394.001 149.371 398.005 150.001L398.056 150.01L398.091 150.051C401.905 154.539 407.939 160.016 416.78 163.588C418.982 164.463 421.328 165.276 423.838 165.808C425.097 166.052 426.363 166.395 427.679 166.574C429 166.722 430.344 166.872 431.71 167.026C437.195 167.378 443.116 166.771 449.013 164.944C454.895 163.098 460.731 160.003 465.891 155.649C471.022 151.296 475.587 145.726 478.526 139.087C481.489 132.486 483.118 125.003 482.833 117.347L482.809 115.909L482.642 114.477C482.526 113.522 482.409 112.563 482.293 111.602C482.212 110.635 481.898 109.705 481.712 108.751C481.483 107.806 481.307 106.843 481.035 105.903C479.837 102.183 478.441 98.4509 476.344 95.0461C472.382 88.231 466.855 82.4611 460.379 78.5206C453.936 74.5426 446.739 72.158 439.607 71.446C432.462 70.6701 425.419 71.768 419.122 73.9749C412.809 76.1957 407.221 79.6129 402.67 83.7062C398.133 87.8244 394.615 92.5783 392.138 97.4529C389.699 102.353 388.172 107.302 387.464 111.982C386.006 121.388 387.632 129.394 389.559 135.029L389.91 136.057L389.299 135.161L389.284 135.138L389.545 135.098C388.246 139.265 387.241 142.487 386.551 144.695C386.208 145.778 385.946 146.608 385.759 147.196C385.581 147.757 385.473 148.057 385.473 148.057Z" fill="#263238"/>
<path d="M445.216 96.8463C441.514 94.3923 437.126 93.5401 434.255 93.5595C431.566 93.5776 427.61 94.0287 424.043 96.0732C421.826 97.3432 420.064 99.0699 418.802 101.205C417.307 103.734 416.51 106.855 416.434 110.483C416.423 111.028 416.627 111.541 417.01 111.93C417.395 112.32 417.909 112.533 418.458 112.529L425.509 112.481C426.504 112.474 427.353 111.726 427.487 110.74C427.784 108.526 429.072 104.795 434.348 104.668C438.369 104.573 440.045 107.47 440.581 108.721C441.451 110.757 441.251 113.179 440.044 115.201C438.188 118.308 434.74 118.804 432.85 118.824C430.676 118.846 428.919 120.624 428.934 122.785L428.986 130.373C428.993 131.481 429.9 132.376 431.009 132.369L437.88 132.322C438.988 132.315 439.883 131.408 439.876 130.299L439.865 128.704C439.865 128.665 439.888 128.632 439.925 128.619C441.478 128.062 444.484 126.723 447.184 124.003C450.629 120.53 452.357 116.067 452.321 110.737C452.265 103.113 448.426 98.9741 445.216 96.8463Z" fill="#00949B"/>
<path d="M434.796 134.256L434.196 134.26C431.322 134.279 429 136.633 429.02 139.507C429.039 142.38 431.393 144.702 434.266 144.682L434.867 144.678C437.74 144.659 440.063 142.305 440.043 139.432C440.024 136.558 437.67 134.236 434.796 134.256Z" fill="#00949B"/>
<path d="M453.943 210.625C421.171 188.582 382.205 180.729 356.668 180.729C332.751 180.729 297.554 184.501 265.697 202.47C245.912 213.631 230.126 228.878 218.777 247.79C205.334 270.19 198.058 297.905 197.152 330.169C197.016 335.009 198.803 339.59 202.187 343.069C205.587 346.566 210.143 348.491 215.021 348.491H277.732C286.581 348.491 294.188 341.888 295.425 333.134C298.206 313.469 309.878 280.357 356.808 279.547C392.559 278.934 407.31 304.815 411.993 315.973C419.615 334.129 417.683 355.661 406.822 373.569C390.134 401.082 359.435 405.295 342.622 405.356C323.288 405.427 307.556 421.123 307.556 440.346V507.828C307.556 517.682 315.573 525.7 325.428 525.7H386.528C396.383 525.7 404.4 517.682 404.4 507.828V493.649C404.4 493.309 404.612 493.015 404.939 492.9C418.781 488.043 445.609 476.309 469.774 452.283C500.624 421.612 516.265 382.025 516.265 334.623C516.267 266.783 482.375 229.749 453.943 210.625Z" fill="#00949B"/>
<path d="M354.444 557.178H359.376C383.641 557.178 403.382 576.92 403.382 601.185C403.382 625.45 383.641 645.191 359.376 645.191H354.444C330.179 645.191 310.438 625.45 310.438 601.185C310.438 576.918 330.179 557.178 354.444 557.178Z" fill="#263238"/>
<path d="M325.194 538.748H386.269C396.12 538.748 404.134 530.985 404.134 521.442V493.853C404.134 493.524 404.347 493.238 404.674 493.127C411.893 490.673 421.994 486.173 433.421 479.149C394.399 478.875 323.271 478.477 307.328 479.059V521.442C307.33 530.985 315.344 538.748 325.194 538.748Z" fill="#263238"/>
<path d="M375.496 233.047L336.303 119.229C328.026 90.7308 304.543 71.7944 276.284 80.858L273.722 81.8476C247.934 91.8107 234.108 119.901 241.967 146.406C249.278 171.067 257.673 198.22 262.789 210.99C273.379 237.424 301.104 230.004 301.104 230.004C301.166 229.983 307.276 247.623 309.947 255.542L324.302 269.726L330.232 263.248L375.496 233.047Z" fill="#FFBF9D"/>
<path d="M301.102 230.004C301.102 230.004 318.223 224.519 331.735 206.418C331.735 206.418 331.13 229.602 303.701 237.449L301.102 230.004Z" fill="#00949B"/>
<path d="M261.143 164.38C261.845 166.41 264.145 167.489 266.278 166.793C268.407 166.099 269.569 163.894 268.867 161.863C268.164 159.832 265.864 158.751 263.734 159.445C261.601 160.139 260.44 162.349 261.143 164.38Z" fill="#263238"/>
<path d="M251.709 154.666C252.37 154.979 254.421 151.742 258.509 150.176C262.568 148.552 266.375 149.496 266.623 148.824C266.755 148.519 265.932 147.811 264.261 147.365C262.612 146.917 260.066 146.842 257.528 147.836C254.99 148.833 253.214 150.594 252.355 152.028C251.472 153.475 251.391 154.534 251.709 154.666Z" fill="#263238"/>
<path d="M295.27 150.846C295.932 151.159 297.989 147.922 302.071 146.356C306.129 144.734 309.937 145.676 310.186 145.004C310.317 144.699 309.499 143.991 307.823 143.547C306.174 143.097 303.628 143.024 301.089 144.016C298.552 145.014 296.776 146.775 295.915 148.208C295.036 149.656 294.954 150.715 295.27 150.846Z" fill="#263238"/>
<path d="M289.561 177.175C289.491 176.937 286.784 177.478 282.47 178.54C281.386 178.836 280.32 179.01 279.869 178.366C279.333 177.708 279.335 176.416 279.371 175.007C279.376 172.107 279.38 169.065 279.386 165.88C279.301 152.926 278.81 142.438 278.288 142.445C277.766 142.455 277.412 152.959 277.497 165.913C277.544 169.099 277.584 172.134 277.629 175.038C277.693 176.375 277.533 177.981 278.668 179.338C279.25 180.008 280.234 180.278 280.971 180.2C281.719 180.146 282.309 179.931 282.837 179.763C287.062 178.387 289.635 177.414 289.561 177.175Z" fill="#263238"/>
<path d="M285.832 127.897C286.79 128.725 290.327 126.098 295.108 124.133C299.851 122.069 304.198 121.36 304.272 120.097C304.287 119.503 303.112 118.878 301.088 118.691C299.08 118.496 296.236 118.835 293.378 120.041C290.524 121.252 288.3 123.057 287.04 124.634C285.766 126.216 285.394 127.495 285.832 127.897Z" fill="#263238"/>
<path d="M246.886 142.738C248.084 143.354 251.068 141.153 255.071 139.623C259.027 137.976 262.724 137.509 263.148 136.243C263.316 135.644 262.436 134.908 260.623 134.574C258.832 134.235 256.116 134.422 253.38 135.512C250.646 136.606 248.565 138.335 247.52 139.805C246.454 141.289 246.342 142.421 246.886 142.738Z" fill="#263238"/>
<path d="M341.297 138.447C341.673 138.077 357.462 125.999 363.898 144.381C370.332 162.764 350.551 165.433 350.333 164.918C350.118 164.402 341.297 138.447 341.297 138.447Z" fill="#FFBF9D"/>
<path d="M353.51 155.988C353.57 155.9 353.908 156.099 354.537 156.158C355.149 156.215 356.115 156.064 356.948 155.369C358.64 153.976 359.197 150.321 358.125 146.975C357.587 145.286 356.677 143.816 355.624 142.705C354.591 141.557 353.393 140.921 352.354 141.09C351.302 141.207 350.815 142.034 350.771 142.63C350.705 143.229 350.951 143.555 350.863 143.622C350.828 143.686 350.361 143.451 350.243 142.641C350.191 142.248 350.254 141.74 350.563 141.236C350.878 140.722 351.463 140.313 352.169 140.148C353.621 139.749 355.353 140.607 356.512 141.826C357.75 143.025 358.811 144.664 359.416 146.562C360.594 150.307 359.913 154.437 357.524 156.136C356.348 156.927 355.134 156.914 354.425 156.675C353.697 156.419 353.457 156.043 353.51 155.988Z" fill="#00949B"/>
<path d="M303.438 175.322C302.79 175.499 304.202 179.742 301.578 183.967C298.965 188.2 294.284 189.236 294.45 189.841C294.48 190.127 295.732 190.328 297.659 189.741C299.552 189.179 302.084 187.663 303.689 185.079C305.286 182.49 305.413 179.709 304.978 177.921C304.544 176.094 303.72 175.202 303.438 175.322Z" fill="#263238"/>
<path d="M196.069 133.496C195.98 132.313 196.454 131.144 197.219 130.235C198.886 128.25 201.367 127.561 203.696 126.698C209.493 124.551 214.749 121.023 219.017 116.553C216.882 116.273 214.796 115.754 212.853 114.825C208.84 112.91 205.535 108.975 205.497 104.529C205.49 103.695 205.648 102.762 206.318 102.265C207.383 101.478 208.84 102.282 209.999 102.919C213.812 105.012 216.802 105.434 220.738 103.584C223.182 102.434 225.438 101.001 226.994 99.0574C227.044 98.9464 227.083 98.8298 227.134 98.7202C227.742 97.3974 228.343 96.1274 228.941 94.8934C228.941 94.8893 228.944 94.8865 228.944 94.8823L228.943 94.8893C233.438 85.5994 237.708 78.7565 242.96 74.1373C250.657 67.3666 265.14 60.6182 275.356 59.777C285.573 58.9359 296.644 63.5635 301.32 72.6854C305.002 66.4034 312.889 63.6676 320.181 63.9841L320.317 63.8578C328.325 63.8869 335.014 69.9788 339.669 76.4927C339.923 76.8494 340.164 77.2159 340.413 77.5767C344.162 80.5429 348.581 82.6568 353.28 83.5535C354.108 83.7117 355.069 83.9241 355.431 84.6861C355.791 85.4412 355.358 86.3239 354.877 87.0096C353.602 88.832 351.899 90.3339 349.964 91.4304C351.221 92.9253 352.575 94.3313 354.083 95.5985C355.366 96.6756 356.893 97.9679 356.69 99.6293C356.533 100.915 355.302 101.854 354.031 102.104C352.761 102.353 351.453 102.061 350.191 101.772C351.654 103.392 353.116 105.013 354.579 106.633C352.164 107.988 349.425 108.721 346.659 108.843C347.538 116.159 350.829 129.123 350.702 134.336C345.857 136.139 344.485 136.027 342.312 137.71C339.504 139.887 342.7 145.09 337.998 144.949C335.604 144.877 329.555 138.03 328.092 136.131C318.394 123.535 311.463 108.823 307.906 93.3306C303.853 91.2277 299.392 89.9147 294.846 89.4844L295.265 89.6593C286.835 89.6968 277.434 90.1243 271.55 96.1621C266.986 100.845 265.758 107.727 263.237 113.761C258.461 125.196 251.226 132.95 239.725 137.567C241.529 146.048 245.89 159.422 248.161 167.129L236.362 154.258L236.378 154.321C235.543 153.617 234.797 152.874 234.064 152.125L233.826 151.903L233.815 151.868C232.646 150.662 231.508 149.442 230.17 148.313C230.153 148.344 230.136 148.373 230.12 148.404C227.294 153.466 219.303 150.064 220.984 144.514C221.317 143.414 221.81 142.364 222.461 141.411C221.207 143.83 218.709 145.658 215.986 145.769C213.262 145.88 210.479 144.065 209.791 141.428C209.32 139.627 210.02 137.624 211.355 136.377C208.134 137.798 204.492 138.271 201.024 137.641C198.749 137.226 196.266 136.105 196.069 133.496Z" fill="#263238"/>
<path d="M293.946 78.7524C293.917 78.8413 295.323 79.0661 297.512 80.2681C299.682 81.4674 302.5 83.8936 304.783 87.7411C305.931 89.6482 307.007 91.8552 307.877 94.3314C308.76 96.8034 309.496 99.5252 310.291 102.386C311.094 105.244 311.934 108.265 313.196 111.273C313.826 112.774 314.56 114.269 315.442 115.711C316.319 117.122 317.307 118.644 318.928 119.554C320.228 120.302 321.935 120.237 323.171 119.493C324.432 118.782 325.374 117.646 325.906 116.362C326.925 113.734 326.454 111.021 326.088 108.614L325.548 108.88C327.184 110.583 328.837 112.255 330.803 113.361C332.749 114.485 335.033 114.877 337.036 114.366C338.034 114.112 338.954 113.615 339.637 112.904C340.338 112.194 340.707 111.275 340.867 110.385C341.003 109.488 340.921 108.585 340.598 107.801C340.272 107.019 339.693 106.371 338.997 106.014L338.802 106.369C341.707 108 344.343 108.499 346.104 108.668C346.992 108.751 347.677 108.746 348.139 108.733C348.6 108.71 348.836 108.685 348.836 108.667C348.834 108.646 348.595 108.635 348.139 108.621C347.681 108.599 347.002 108.567 346.128 108.451C344.394 108.218 341.817 107.663 339.004 106.02L338.809 106.374C340.051 107.014 340.696 108.678 340.395 110.306C340.238 111.112 339.894 111.935 339.271 112.547C338.657 113.172 337.818 113.62 336.903 113.842C335.058 114.294 332.925 113.922 331.094 112.846C329.233 111.783 327.628 110.155 326.002 108.445L325.312 107.719L325.462 108.712C325.827 111.118 326.233 113.737 325.297 116.113C324.822 117.264 323.953 118.295 322.849 118.914C321.752 119.557 320.371 119.607 319.243 118.97C317.832 118.187 316.864 116.757 316.004 115.366C315.143 113.96 314.42 112.499 313.797 111.023C312.549 108.07 311.7 105.072 310.882 102.222C310.072 99.367 309.314 96.641 308.396 94.1454C307.491 91.647 306.375 89.4178 305.183 87.4955C302.812 83.6188 299.882 81.1898 297.635 80.0433C295.367 78.8885 293.946 78.7524 293.946 78.7524Z" fill="#455A64"/>
<path d="M219.992 134.218C219.988 134.228 220.084 134.265 220.273 134.325C220.5 134.393 220.778 134.476 221.117 134.578C221.487 134.694 221.951 134.819 222.513 134.907C223.071 135.009 223.714 135.147 224.452 135.191C227.367 135.498 231.786 135.266 236.69 133.206C241.551 131.18 246.883 127.327 250.805 121.497C254.816 115.743 257.524 108.392 259.083 100.519C259.892 96.5743 260.308 92.6754 260.98 88.975C261.639 85.276 262.562 81.7463 264.104 78.6733C265.614 75.5974 267.705 72.9825 270.195 71.2419C271.426 70.348 272.781 69.7665 274.115 69.332C275.465 68.935 276.817 68.7602 278.108 68.7324C280.699 68.6935 283.02 69.3154 284.902 70.1329C286.794 70.9601 288.243 72.0275 289.323 72.9991C291.416 75.0395 292.043 76.6024 292.131 76.5413C292.142 76.5357 292.1 76.4441 292.01 76.2665C291.896 76.0555 291.76 75.8001 291.592 75.4878C291.208 74.8146 290.529 73.8805 289.502 72.8117C288.432 71.7929 286.974 70.6714 285.053 69.7914C283.142 68.9226 280.773 68.2508 278.102 68.2605C276.771 68.2744 275.374 68.4395 273.967 68.8379C272.581 69.2723 271.157 69.8733 269.877 70.788C267.281 72.5716 265.113 75.2602 263.553 78.3984C261.958 81.5381 261.009 85.133 260.337 88.8584C259.653 92.5893 259.231 96.4799 258.429 100.389C256.883 108.203 254.219 115.465 250.298 121.149C246.463 126.909 241.27 130.716 236.505 132.773C231.704 134.855 227.363 135.157 224.474 134.933C221.561 134.698 220.013 134.124 219.992 134.218Z" fill="#455A64"/>
<path d="M213.383 123.266C213.375 123.311 213.801 123.427 214.584 123.597C215.364 123.782 216.518 123.943 217.949 124.041C219.382 124.151 221.1 124.121 222.993 123.933C224.883 123.712 226.945 123.316 229.044 122.663C231.137 121.987 233.051 121.124 234.723 120.218C236.379 119.279 237.801 118.317 238.91 117.403C240.023 116.498 240.874 115.702 241.405 115.101C241.948 114.51 242.23 114.171 242.196 114.139C242.106 114.051 240.89 115.339 238.621 117.029C237.493 117.884 236.07 118.788 234.429 119.678C232.773 120.537 230.891 121.365 228.84 122.027C226.783 122.666 224.767 123.073 222.919 123.324C221.066 123.54 219.38 123.62 217.968 123.571C215.14 123.495 213.405 123.142 213.383 123.266Z" fill="#455A64"/>
<path d="M263.724 315.667C263.484 315.737 266.63 331.493 269.712 347.837H270.686C267.605 331.493 263.965 315.598 263.724 315.667Z" fill="#263238"/>
<path d="M277.021 348.627C285.929 348.627 294.13 342.209 295.375 333.467C298.174 313.83 309.38 280.591 356.619 279.783C392.605 279.17 407.751 304.642 411.994 315.971C418.73 333.956 417.893 355.786 406.962 373.668C390.164 401.14 359.263 405.346 342.339 405.408C322.876 405.479 307.042 421.152 307.042 440.347V513.721L404.527 511.887V493.573C404.527 493.233 404.741 492.94 405.071 492.825C416.945 488.691 435.772 480.856 456.956 463.774L450.61 379.272C450.61 379.272 469.162 343.616 468.243 335.593C459.843 262.303 434.917 220.832 424.786 216.964C413.412 212.622 369.495 214.736 369.495 214.736C369.495 214.736 350.528 249.879 323.919 253.772C309.113 255.939 303.707 237.449 303.707 237.449L269.314 257.613C244.836 269.959 240.086 317.995 239.637 348.627H277.021Z" fill="#455A64"/>
<g opacity="0.3">
<path d="M389.993 391.799C409.642 396.801 429.015 403.129 448.665 408.132C450.122 408.502 451.675 408.931 452.659 410.069C454.106 411.745 453.781 414.287 453.133 416.404C451.066 423.16 446.608 428.997 441.301 433.66C437.026 437.416 431.905 440.585 426.23 441.027C419.912 441.52 413.838 438.59 408.496 435.181C394.835 426.463 383.177 413.724 375.852 399.269C375.852 399.269 380.458 397.373 383.984 395.488C387.258 393.738 389.993 391.799 389.993 391.799Z" fill="black"/>
</g>
<path d="M411.594 316.481C419.451 334.611 417.458 356.111 406.263 373.993C400.049 383.918 392.137 391.002 383.508 395.755C392.802 405.865 402.236 414.772 411.562 421.391C421.599 428.513 444.731 426.488 453.502 410.897C464.323 391.659 465.228 342.513 465.228 342.513C467.283 312.884 467.283 312.884 467.283 312.884L406.771 303.615L406.285 305.274C408.88 309.166 410.41 313.749 411.594 316.481Z" fill="#FFBF9D"/>
<path d="M306.223 304.03L302.778 309.462C300.159 311.269 297.666 310.276 296.048 306.919L258.797 250.219L267.872 244.448L309.015 298.821C309.015 298.821 309.595 301.704 306.223 304.03Z" fill="#455A64"/>
<path d="M220.159 249.246C212.866 245.131 206.749 238.783 202.964 230.626C198.302 220.58 197.831 209.317 201.64 198.916C205.449 188.514 213.079 180.218 223.128 175.556C243.869 165.931 268.574 174.976 278.199 195.718C282.862 205.766 283.331 217.028 279.523 227.429C275.715 237.831 268.085 246.126 258.037 250.789C245.452 256.627 231.407 255.595 220.159 249.246ZM259.638 179.514C249.142 173.59 236.039 172.627 224.296 178.075C214.922 182.425 207.801 190.166 204.248 199.871C200.695 209.576 201.133 220.084 205.483 229.459C209.833 238.835 217.573 245.954 227.279 249.507C236.984 253.06 247.491 252.622 256.867 248.272C266.242 243.922 273.362 236.181 276.914 226.476C280.469 216.771 280.029 206.264 275.679 196.888C272.149 189.277 266.44 183.353 259.638 179.514Z" fill="#263238"/>
<path d="M221.924 247.507C214.632 243.391 208.515 237.044 204.73 228.887C200.068 218.84 199.597 207.578 203.406 197.177C207.214 186.775 214.844 178.479 224.893 173.817C245.634 164.192 270.339 173.236 279.965 193.98C284.627 204.028 285.096 215.29 281.289 225.692C277.482 236.093 269.851 244.389 259.803 249.052C247.216 254.888 233.171 253.856 221.924 247.507ZM261.402 177.774C250.906 171.85 237.803 170.886 226.061 176.334C216.686 180.684 209.566 188.425 206.012 198.13C202.459 207.835 202.898 218.344 207.248 227.718C211.598 237.094 219.337 244.213 229.043 247.766C238.748 251.32 249.255 250.881 258.631 246.531C268.006 242.181 275.126 234.44 278.678 224.735C282.232 215.03 281.793 204.522 277.443 195.147C273.913 187.537 268.206 181.613 261.402 177.774Z" fill="#455A64"/>
<path d="M276.839 212.014C276.823 212.014 276.81 211.778 276.796 211.333C276.762 210.887 276.815 210.229 276.717 209.388C276.622 207.702 276.245 205.269 275.342 202.39C274.9 200.948 274.271 199.417 273.527 197.807C272.722 196.229 271.836 194.546 270.691 192.911C269.574 191.262 268.29 189.6 266.797 188.026C265.314 186.446 263.672 184.9 261.819 183.537C259.976 182.164 258.037 181.02 256.078 180.09C254.109 179.181 252.124 178.505 250.202 177.988C246.335 177.015 242.713 176.747 239.703 176.923C236.689 177.089 234.276 177.564 232.648 178.018C231.822 178.204 231.21 178.45 230.778 178.562C230.35 178.69 230.123 178.751 230.117 178.736C230.112 178.722 230.328 178.633 230.747 178.477C231.171 178.337 231.777 178.064 232.6 177.851C234.222 177.345 236.645 176.819 239.685 176.609C242.722 176.391 246.385 176.627 250.303 177.591C252.252 178.104 254.266 178.78 256.263 179.696C258.249 180.633 260.219 181.791 262.087 183.181C263.962 184.561 265.622 186.128 267.116 187.73C268.622 189.325 269.913 191.01 271.033 192.684C272.181 194.341 273.063 196.047 273.862 197.649C274.599 199.281 275.216 200.834 275.645 202.297C276.517 205.216 276.85 207.68 276.892 209.379C276.965 210.227 276.883 210.889 276.887 211.336C276.869 211.781 276.854 212.014 276.839 212.014Z" fill="white"/>
<path d="M233.567 245.77C233.596 245.668 235.489 246.373 238.683 246.809C239.084 246.857 239.503 246.907 239.937 246.96C240.373 247.009 240.833 247.01 241.305 247.039C242.248 247.115 243.26 247.065 244.322 247.045C246.444 246.918 248.767 246.596 251.141 245.973C253.509 245.318 255.679 244.428 257.578 243.472C258.506 242.956 259.406 242.491 260.184 241.951C260.577 241.688 260.974 241.458 261.327 241.196C261.676 240.932 262.012 240.678 262.336 240.435C264.877 238.453 266.161 236.893 266.237 236.966C266.261 236.986 265.939 237.369 265.334 238.048C265.037 238.393 264.661 238.801 264.178 239.232C263.701 239.666 263.185 240.196 262.531 240.682C262.211 240.936 261.876 241.2 261.529 241.475C261.178 241.747 260.782 241.988 260.388 242.26C259.61 242.821 258.706 243.304 257.769 243.837C255.856 244.827 253.659 245.741 251.259 246.405C248.851 247.038 246.493 247.35 244.343 247.455C243.266 247.465 242.242 247.501 241.287 247.408C240.809 247.371 240.347 247.361 239.906 247.303C239.467 247.24 239.045 247.179 238.641 247.121C237.832 247.031 237.12 246.831 236.488 246.693C235.855 246.564 235.324 246.401 234.893 246.251C234.027 245.969 233.557 245.8 233.567 245.77Z" fill="white"/>
<path d="M262.097 219.211C262.01 219.297 256.603 213.885 250.026 207.127C243.445 200.366 238.183 194.818 238.271 194.732C238.358 194.646 243.763 200.057 250.343 206.818C256.923 213.576 262.184 219.126 262.097 219.211Z" fill="white"/>
<path d="M255.717 230.074C255.705 230.083 255.569 229.951 255.322 229.689C255.047 229.389 254.695 229.006 254.259 228.53C253.31 227.472 251.998 226.014 250.394 224.229C247.135 220.594 242.618 215.586 237.57 210.109C232.519 204.63 227.893 199.722 224.534 196.179C222.885 194.435 221.537 193.01 220.561 191.977C220.123 191.504 219.769 191.121 219.492 190.824C219.252 190.556 219.13 190.411 219.141 190.4C219.152 190.389 219.295 190.514 219.556 190.761C219.848 191.044 220.221 191.408 220.685 191.856C221.659 192.814 223.051 194.216 224.76 195.961C228.177 199.45 232.842 204.326 237.896 209.807C242.947 215.287 247.429 220.331 250.629 224.022C252.23 225.867 253.514 227.368 254.39 228.418C254.8 228.916 255.132 229.318 255.39 229.631C255.615 229.911 255.728 230.062 255.717 230.074Z" fill="white"/>
<g opacity="0.3">
<path d="M221.904 179.285L272.82 234.594C272.82 234.594 268.699 240.359 264.924 242.867L212.934 186.266C212.934 186.266 216.681 181.749 221.904 179.285Z" fill="white"/>
</g>
<g opacity="0.3">
<path d="M208.555 192.642L258.633 246.53C258.633 246.53 259.098 246.784 255.647 247.655L207.141 195.378C207.141 195.378 207.395 194.067 208.555 192.642Z" fill="white"/>
</g>
<path d="M340.378 281.552C329.682 272.963 303.47 251.955 302.272 251.396C300.765 250.691 277.695 242.495 273.275 245.128C268.856 247.761 257.008 262.633 257.008 262.633C257.008 262.633 258.133 271.883 268.467 265.264C276.352 260.214 277.575 259.43 277.714 259.341C277.706 259.346 277.699 259.351 277.699 259.351L288.685 261.917C288.685 261.917 275.285 267.513 272.451 270.456C269.616 273.399 265.135 284.665 267.93 287.259C270.725 289.853 273.972 290.075 273.972 290.075C273.972 290.075 268.441 297.932 278.253 302.674C278.253 302.674 279.685 309.278 284.525 311.867C289.365 314.454 298.383 313.54 298.383 313.54C298.383 313.54 302.565 311.066 299.458 306.966C296.352 302.866 290.621 302.298 290.621 302.298L297.723 298.155C297.723 298.155 301.418 299.286 306.893 303.515C306.893 303.515 313.377 295.214 319.852 290.521C327.12 285.255 340.378 281.552 340.378 281.552Z" fill="#FFBF9D"/>
<path d="M294.909 285.041C294.905 285.009 294.529 285.016 293.854 285.104C293.18 285.19 292.211 285.383 291.048 285.755C288.734 286.479 285.63 288.084 283.086 290.85C280.54 293.618 279.202 296.845 278.674 299.211C278.4 300.401 278.289 301.382 278.26 302.062C278.229 302.741 278.254 303.117 278.286 303.118C278.386 303.127 278.407 301.617 279.033 299.303C279.644 297.003 281.001 293.894 283.472 291.205C285.944 288.518 288.928 286.905 291.168 286.104C293.422 285.287 294.926 285.14 294.909 285.041Z" fill="#00949B"/>
<path d="M295.382 273.086C295.378 273.05 294.978 273.081 294.255 273.165C293.893 273.203 293.452 273.263 292.948 273.379C292.442 273.49 291.859 273.586 291.238 273.786C289.977 274.119 288.516 274.664 286.954 275.399C285.408 276.164 283.769 277.135 282.181 278.343C280.607 279.57 279.248 280.906 278.114 282.207C277.004 283.53 276.104 284.802 275.46 285.936C275.109 286.486 274.866 287.026 274.63 287.485C274.389 287.943 274.218 288.354 274.089 288.694C273.821 289.372 273.691 289.749 273.724 289.763C273.82 289.805 274.407 288.306 275.775 286.128C276.45 285.034 277.367 283.804 278.476 282.523C279.61 281.263 280.954 279.962 282.499 278.758C284.058 277.572 285.849 276.238 287.358 275.463C288.881 274.717 290.111 274.513 291.34 274.14C293.8 273.375 295.399 273.189 295.382 273.086Z" fill="#00949B"/>
<path d="M297.387 259.356C297.401 259.299 296.848 259.084 295.895 259.02C294.949 258.952 293.604 259.101 292.255 259.671C290.429 260.451 289.787 261.212 289.258 261.841C288.643 262.569 288.413 263.118 288.464 263.147C288.586 263.256 289.86 261.226 292.46 260.154C295.035 259.029 297.38 259.52 297.387 259.356Z" fill="#00949B"/>
<path d="M420.518 215.858C420.518 215.858 454.371 219.106 465.118 248.517C473.648 271.862 478.282 341.799 476.145 343.225L416.375 341.313C415.588 324.259 410.996 311.111 404.559 302.602L420.518 215.858Z" fill="#455A64"/>
<path d="M417.291 341.313C417.319 341.272 417.735 341.506 418.464 341.967C419.195 342.424 420.224 343.13 421.465 344.045C423.949 345.869 427.239 348.598 430.56 351.936C433.887 355.271 436.611 358.558 438.479 361.005C439.41 362.232 440.142 363.241 440.618 363.959C441.098 364.673 441.345 365.083 441.305 365.112C441.216 365.177 440.038 363.684 438.079 361.323C436.116 358.966 433.349 355.756 430.048 352.445C426.752 349.132 423.544 346.366 421.152 344.448C418.764 342.528 417.227 341.406 417.291 341.313Z" fill="#00949B"/>
<path d="M410.171 269.373C410.368 269.407 409.272 276.873 407.721 286.047C406.171 295.225 404.755 302.635 404.558 302.602C404.361 302.569 405.458 295.104 407.008 285.927C408.558 276.752 409.974 269.34 410.171 269.373Z" fill="#263238"/>
<path d="M334.949 479.104C334.948 479.079 335.289 479.028 335.942 478.954C336.666 478.881 337.616 478.785 338.8 478.666C341.363 478.423 344.935 478.086 349.312 477.671C358.187 476.818 370.436 475.539 383.929 473.835C397.426 472.125 409.61 470.314 418.417 468.93C422.76 468.242 426.302 467.68 428.845 467.276C430.02 467.097 430.964 466.954 431.683 466.844C432.334 466.754 432.677 466.718 432.681 466.741C432.685 466.766 432.351 466.85 431.708 466.987C430.995 467.13 430.059 467.319 428.892 467.553C426.445 468.034 422.893 468.679 418.497 469.435C409.707 470.95 397.526 472.843 384.018 474.554C370.514 476.26 358.245 477.46 349.355 478.181C344.91 478.544 341.31 478.803 338.819 478.947C337.631 479.011 336.677 479.061 335.95 479.1C335.296 479.127 334.951 479.129 334.949 479.104Z" fill="#263238"/>
<path d="M329.664 470.17C329.663 470.12 330.54 470.043 332.128 469.946C333.834 469.856 336.103 469.735 338.853 469.588C344.641 469.291 352.429 468.893 361.034 468.451C369.64 467.953 377.425 467.502 383.212 467.166C385.961 467.012 388.229 466.884 389.935 466.789C391.523 466.711 392.404 466.691 392.407 466.741C392.411 466.791 391.538 466.905 389.956 467.069C388.374 467.234 386.082 467.442 383.248 467.675C377.579 468.145 369.741 468.698 361.073 469.173C352.408 469.645 344.557 469.948 338.872 470.099C336.029 470.175 333.728 470.218 332.137 470.227C330.545 470.238 329.665 470.22 329.664 470.17Z" fill="#263238"/>
<path d="M234.469 343.617C234.688 342.767 235.047 341.966 235.55 341.244C236.55 339.81 238.064 338.718 239.778 338.326C242.626 337.677 245.817 339.011 247.358 341.494C247.255 339.601 248.75 337.836 250.58 337.337C252.408 336.837 253.828 337.542 255.286 338.753C256.745 339.963 257.119 340.926 257.711 342.728C259.167 339.458 266.654 339.857 267.565 342.311C267.565 342.311 274.006 335.26 277.301 338.728C278.67 340.168 278.083 342.378 277.177 344.592C275.966 347.547 275.169 348.778 273.587 352.033L267.49 352.366C266.976 354.275 265.895 362.035 265.666 363.997C265.437 365.96 265.044 367.959 264 369.637C262.956 371.315 261.142 372.628 259.166 372.602C257.189 372.574 255.243 370.881 255.36 368.907C254.945 370.538 254.251 372.146 253.049 373.323C251.847 374.5 250.067 375.179 248.439 374.754C246.811 374.33 245.52 372.627 245.851 370.978C243.677 372.484 240.464 371.146 239.084 368.89C237.703 366.635 237.67 363.831 237.755 361.187C237.829 358.844 238.042 356.215 237.119 353.997C236.973 353.647 236.723 353.345 236.639 352.973C236.514 352.422 236.597 351.797 236.558 351.232C236.472 350.004 236.246 348.779 235.824 347.62C235.731 347.366 235.629 347.115 235.517 346.868C235.221 346.212 234.784 345.656 234.45 345.029C234.376 344.892 234.314 344.756 234.296 344.599C234.258 344.277 234.39 343.92 234.469 343.617Z" fill="#FFBF9D"/>
<path d="M227.611 340.231C225.982 340.172 224.206 340.51 223.118 341.724C221.829 343.165 221.532 346.613 221.679 348.541C223.939 348.967 225.145 348.464 227.404 348.89C227.88 348.981 228.279 348.86 228.673 349.14C229.715 349.88 229.546 352.373 229.965 353.581C230.693 355.675 233.376 356.698 235.455 355.928C237.534 355.157 238.872 352.946 238.978 350.731C239.083 348.517 238.109 346.35 236.682 344.654C234.453 342.005 231.073 340.356 227.611 340.231Z" fill="#FFBF9D"/>
<path d="M266.095 360.761C265.864 360.712 266.794 356.576 267.383 351.43C267.666 348.857 267.731 346.516 267.63 344.828C267.542 343.14 267.344 342.102 267.456 342.075C267.538 342.052 267.917 343.064 268.139 344.782C268.375 346.496 268.389 348.897 268.102 351.508C267.821 354.12 267.333 356.444 266.93 358.108C266.519 359.772 266.189 360.781 266.095 360.761Z" fill="#00949B"/>
<path d="M255.088 369.644C254.987 369.622 255.248 368.118 255.692 365.702C256.132 363.284 256.752 359.947 257.222 356.239C257.691 352.528 257.859 349.147 257.809 346.702C257.773 344.255 257.595 342.743 257.711 342.726C257.792 342.713 258.15 344.207 258.319 346.681C258.501 349.151 258.414 352.585 257.939 356.329C257.466 360.071 256.762 363.41 256.193 365.807C255.618 368.205 255.183 369.666 255.088 369.644Z" fill="#00949B"/>
<path d="M245.78 371.23C245.672 371.201 246.056 369.542 246.542 366.843C247.031 364.145 247.569 360.391 247.8 356.218C248.023 352.043 247.897 348.253 247.705 345.518C247.515 342.78 247.314 341.09 247.425 341.073C247.475 341.066 247.58 341.48 247.73 342.238C247.886 342.994 248.054 344.099 248.215 345.472C248.539 348.214 248.749 352.041 248.523 356.258C248.29 360.473 247.665 364.254 247.045 366.944C246.736 368.29 246.448 369.37 246.212 370.106C245.979 370.843 245.827 371.243 245.78 371.23Z" fill="#00949B"/>
<path d="M233.503 344.051C233.535 343.977 234.339 344.21 235.405 345.011C236.465 345.798 237.742 347.221 238.492 349.132C239.24 351.039 239.298 352.973 238.901 354.277C238.497 355.618 237.655 356.085 237.627 356C237.545 355.919 238.174 355.372 238.405 354.152C238.641 352.955 238.514 351.165 237.818 349.397C237.122 347.62 236.001 346.251 235.077 345.404C234.15 344.546 233.448 344.155 233.503 344.051Z" fill="#00949B"/>
</svg>
