<svg width="90" height="90" viewBox="0 0 90 90" fill="none" xmlns="http://www.w3.org/2000/svg">
<rect width="90" height="90" rx="45" fill="#FF5573"/>
<path d="M21.756 69C19.676 69 17.905 68.27 16.443 66.81C14.981 65.354 14.25 63.584 14.25 61.5C14.25 59.704 14.822 58.117 15.966 56.739C17.11 55.363 18.538 54.51 20.25 54.18V35.82C18.538 35.49 17.11 34.637 15.966 33.261C14.822 31.883 14.25 30.296 14.25 28.5C14.25 26.416 14.979 24.646 16.437 23.19C17.893 21.73 19.662 21 21.744 21C23.824 21 25.595 21.73 27.057 23.19C28.519 24.646 29.25 26.416 29.25 28.5C29.25 30.296 28.678 31.883 27.534 33.261C26.39 34.637 24.962 35.49 23.25 35.82V43.5H43.5V35.82C41.788 35.49 40.36 34.637 39.216 33.261C38.072 31.883 37.5 30.296 37.5 28.5C37.5 26.416 38.229 24.646 39.687 23.19C41.143 21.73 42.912 21 44.994 21C47.074 21 48.845 21.73 50.307 23.19C51.769 24.646 52.5 26.416 52.5 28.5C52.5 30.296 51.928 31.883 50.784 33.261C49.64 34.637 48.212 35.49 46.5 35.82V43.5H62.31C63.544 43.5 64.602 43.059 65.484 42.177C66.366 41.293 66.807 40.234 66.807 39V35.82C65.095 35.49 63.667 34.637 62.523 33.261C61.379 31.883 60.807 30.296 60.807 28.5C60.807 26.416 61.536 24.646 62.994 23.19C64.45 21.73 66.219 21 68.301 21C70.383 21 72.154 21.73 73.614 23.19C75.076 24.646 75.807 26.416 75.807 28.5C75.807 30.296 75.235 31.883 74.091 33.261C72.947 34.637 71.519 35.49 69.807 35.82V39C69.807 41.084 69.078 42.854 67.62 44.31C66.16 45.77 64.39 46.5 62.31 46.5H46.5V54.18C48.212 54.51 49.64 55.363 50.784 56.739C51.928 58.117 52.5 59.704 52.5 61.5C52.5 63.584 51.772 65.354 50.316 66.81C48.858 68.27 47.088 69 45.006 69C42.924 69 41.153 68.27 39.693 66.81C38.231 65.356 37.5 63.586 37.5 61.5C37.5 59.704 38.072 58.117 39.216 56.739C40.36 55.363 41.788 54.51 43.5 54.18V46.5H23.25V54.18C24.962 54.51 26.39 55.363 27.534 56.739C28.678 58.117 29.25 59.704 29.25 61.5C29.25 63.584 28.522 65.354 27.066 66.81C25.608 68.27 23.838 69 21.756 69Z" fill="white"/>
</svg>
