<svg width="245" height="262" viewBox="0 0 245 262" fill="none" xmlns="http://www.w3.org/2000/svg">
<path d="M0.132812 115.254V145.741C0.132812 151.258 4.60385 155.729 10.1207 155.729H119.438C124.954 155.729 129.426 151.258 129.426 145.741V119.981L143.035 105.683L10.152 105.267C4.62305 105.249 0.132812 109.726 0.132812 115.254Z" fill="#F5F5F5"/>
<path d="M113.311 123.737L14.1133 123.279L14.1235 120.23L113.322 120.688L113.311 123.737Z" fill="#E0E0E0"/>
<path d="M113.311 133.768L14.1133 133.309L14.1235 130.26L113.322 130.719L113.311 133.768Z" fill="#E0E0E0"/>
<path d="M74.0735 140.298L74.0586 143.347L113.309 143.539L113.323 140.49L74.0735 140.298Z" fill="#E0E0E0"/>
<path d="M101.426 220.598V251.085C101.426 256.601 105.897 261.073 111.414 261.073H220.731C226.247 261.073 230.719 256.601 230.719 251.085V225.325L244.328 211.026L111.445 210.611C105.916 210.593 101.426 215.069 101.426 220.598Z" fill="#F5F5F5"/>
<path d="M215.077 228.289L115.879 227.83L115.889 224.781L215.087 225.24L215.077 228.289Z" fill="#E0E0E0"/>
<path d="M215.077 238.319L115.879 237.861L115.889 234.812L215.087 235.271L215.077 238.319Z" fill="#E0E0E0"/>
<path d="M175.843 244.847L175.828 247.896L215.078 248.088L215.093 245.039L175.843 244.847Z" fill="#E0E0E0"/>
<path d="M58.5625 0.408936H123.039C126.23 0.408936 128.818 2.99582 128.818 6.18749V37.7241C128.818 40.9158 126.23 43.5027 123.039 43.5027H68.3257C65.134 43.5027 62.5465 40.9152 62.5465 37.7241V4.39293L58.5625 0.408936Z" fill="#F5F5F5"/>
<path d="M95.9397 31.0681V51.2883C95.9397 54.9465 92.9739 57.9129 89.315 57.9129H16.8114C13.1525 57.9129 10.1867 54.9472 10.1867 51.2883V34.2035L1.16016 24.7193L89.2946 24.4441C92.9611 24.4326 95.9397 27.4016 95.9397 31.0681Z" fill="#E0E0E0"/>
<path d="M20.8742 36.6944L86.6669 36.3904L86.6598 34.3687L20.8672 34.6727L20.8742 36.6944Z" fill="#F5F5F5"/>
<path d="M20.8742 43.3471L86.6669 43.0431L86.6598 41.0214L20.8672 41.3254L20.8742 43.3471Z" fill="#F5F5F5"/>
<path d="M46.8959 47.6845L20.8633 47.812L20.8732 49.8344L46.9058 49.7069L46.8959 47.6845Z" fill="#F5F5F5"/>
<path d="M233.291 124.835V145.055C233.291 148.713 230.325 151.679 226.667 151.679H154.163C150.504 151.679 147.538 148.713 147.538 145.055V127.97L138.512 118.486L226.646 118.21C230.313 118.199 233.291 121.168 233.291 124.835Z" fill="#E0E0E0"/>
<path d="M158.225 130.461L224.018 130.157L224.011 128.135L158.219 128.439L158.225 130.461Z" fill="#F5F5F5"/>
<path d="M158.225 137.114L224.018 136.81L224.011 134.788L158.219 135.092L158.225 137.114Z" fill="#F5F5F5"/>
<path d="M184.247 141.455L158.215 141.583L158.225 143.605L184.257 143.477L184.247 141.455Z" fill="#F5F5F5"/>
</svg>
