<svg width="778" height="379" viewBox="0 0 778 379" fill="none" xmlns="http://www.w3.org/2000/svg">
<path d="M30.8302 163.94C32.6241 156.201 27.9196 148.445 20.3225 146.618C12.7253 144.79 5.11237 149.583 3.31846 157.322C1.52456 165.062 6.22902 172.817 13.8262 174.645C21.4233 176.472 29.0363 171.68 30.8302 163.94Z" fill="#EBEBEB"/>
<path d="M24.9285 162.088L24.9141 163.32L328.05 166.996L328.065 165.764L24.9285 162.088Z" fill="#EBEBEB"/>
<path d="M655.563 313.66L380.211 166.914L380.868 165.879L656.219 312.625L655.563 313.66Z" fill="#EBEBEB"/>
<path d="M278.553 49.2251L277.543 49.9023L339.496 145.819L340.506 145.142L278.553 49.2251Z" fill="#EBEBEB"/>
<path d="M317.154 197.939L235.328 271.629L236.129 272.552L317.955 198.862L317.154 197.939Z" fill="#EBEBEB"/>
<path d="M757.085 162.082H423.941V163.314H757.085V162.082Z" fill="#EBEBEB"/>
<path d="M302.841 49.1785C307.098 31.0387 296.113 12.8182 278.307 8.48184C260.501 4.14552 242.616 15.3354 238.359 33.4753C234.103 51.6151 245.087 69.8356 262.893 74.1719C280.699 78.5082 298.584 67.3183 302.841 49.1785Z" fill="#EBEBEB"/>
<path d="M279.701 56.9594C278.921 58.9601 279.875 61.211 281.84 62.0044C282.942 62.4504 284.136 62.3297 285.085 61.79C285.586 61.503 286.159 61.4525 286.686 61.6656C287.628 62.0463 288.097 63.1206 287.724 64.0816L284.2 73.1281L259.859 63.2894L263.383 54.2428C263.757 53.2831 264.806 52.8211 265.748 53.203C266.275 53.4161 266.659 53.8535 266.83 54.4128C267.175 55.4748 267.962 56.3963 269.064 56.8411C271.012 57.6283 273.237 56.6637 274.016 54.6617C274.789 52.6769 273.826 50.4039 271.877 49.6166C270.775 49.1707 269.581 49.2914 268.61 49.8409C268.117 50.1119 267.536 50.1784 267.009 49.9653C266.067 49.5846 265.621 48.5005 265.987 47.5567L269.517 38.4942L278.397 42.0842C279.339 42.4649 280.388 42.0041 280.763 41.0432C280.972 40.506 280.922 39.9208 280.641 39.412C280.118 38.4289 279.994 37.2301 280.437 36.0905C281.21 34.1058 283.426 33.1177 285.39 33.9111C287.338 34.6984 288.302 36.9714 287.529 38.9562C287.085 40.0958 286.188 40.8805 285.13 41.2255C284.597 41.4054 284.151 41.791 283.942 42.3281C283.568 43.2879 284.036 44.3622 284.963 44.7367L293.859 48.3329L290.329 57.3955C289.961 58.3392 288.891 58.8098 287.947 58.4291C287.42 58.216 287.043 57.7626 286.865 57.2193C286.543 56.1475 285.756 55.2259 284.653 54.7812C282.689 53.9866 280.475 54.9734 279.701 56.9594Z" fill="white"/>
<path d="M276.281 9.51953L279.776 32.1144L271.684 33.4129C270.825 33.5509 270.033 32.9633 269.898 32.0885C269.822 31.5994 269.972 31.1202 270.302 30.7469C270.921 30.0249 271.245 29.0307 271.087 28.0082C270.807 26.1996 269.137 24.9479 267.347 25.2349C265.572 25.5195 264.36 27.2332 264.64 29.043C264.798 30.0656 265.391 30.9132 266.213 31.4035C266.625 31.6561 266.926 32.0639 267.003 32.553C267.138 33.4277 266.547 34.2371 265.703 34.3727L257.596 35.6737L256.322 27.4303C256.186 26.5556 255.394 25.9692 254.536 26.1059C254.056 26.1836 253.653 26.4755 253.407 26.9104C252.938 27.731 252.108 28.3494 251.105 28.5108C249.315 28.7979 247.647 27.5622 247.364 25.7376C247.085 23.929 248.295 22.2153 250.086 21.927C251.09 21.7656 252.066 22.0958 252.763 22.7438C253.126 23.0654 253.6 23.2329 254.08 23.1553C254.938 23.0173 255.513 22.1956 255.38 21.3356L254.103 13.0775L262.209 11.7766C263.053 11.641 263.862 12.241 263.997 13.1157C264.074 13.6048 263.909 14.0866 263.594 14.4574C262.957 15.167 262.649 16.1588 262.806 17.1826C263.088 19.0059 264.756 20.2429 266.532 19.957C268.322 19.67 269.536 17.9711 269.253 16.1477C269.095 15.1251 268.488 14.28 267.682 13.802C267.255 13.5519 266.969 13.1416 266.893 12.6525C266.757 11.7778 267.332 10.956 268.19 10.8181L276.281 9.51953Z" fill="white"/>
<path d="M700.741 343.38C715.135 324.182 711.527 296.731 692.682 282.067C673.837 267.403 646.891 271.079 632.497 290.277C618.102 309.476 621.711 336.927 640.556 351.591C659.401 366.255 686.347 362.579 700.741 343.38Z" fill="#EBEBEB"/>
<path d="M770.442 169.399C774.089 154.738 765.38 139.841 750.989 136.125C736.598 132.409 721.975 141.282 718.327 155.943C714.68 170.603 723.389 185.501 737.78 189.216C752.171 192.932 766.794 184.06 770.442 169.399Z" fill="#EBEBEB"/>
<path d="M734.758 154.331C734.758 159.721 739.047 164.093 744.339 164.093C749.631 164.093 753.921 159.723 753.921 154.331C753.921 148.94 749.631 144.57 744.339 144.57C739.047 144.57 734.758 148.94 734.758 154.331Z" fill="white"/>
<path d="M727.781 181.258V185.284C730.518 187.016 733.558 188.339 736.861 189.156C745.402 191.283 753.971 189.649 760.895 185.271V181.258C760.895 171.965 753.487 164.391 744.338 164.391C735.19 164.391 727.781 171.965 727.781 181.258Z" fill="white"/>
<path d="M245.323 289.198C248.119 274.345 238.568 259.995 223.988 257.146C209.408 254.296 195.322 264.027 192.525 278.88C189.728 293.733 199.28 308.083 213.86 310.933C228.439 313.782 242.526 304.051 245.323 289.198Z" fill="#EBEBEB"/>
<path d="M233.114 284.383C228.886 292.583 222.877 292.04 221.105 293.974C220.152 295.024 218.321 297.924 218.321 297.924L209.516 294.475C209.516 294.475 210.069 291.074 210.047 289.643C210.009 286.999 205.185 283.298 207.447 274.328C208.928 268.433 216.455 261.155 225.773 264.807C235.091 268.456 235.886 278.993 233.114 284.383Z" fill="white"/>
<path d="M213.727 280.518L210.953 295.812L212.142 296.036L214.916 280.742L213.727 280.518Z" fill="#DBDBDB"/>
<path d="M223.347 284.083L215.352 297.332L216.382 297.977L224.377 284.728L223.347 284.083Z" fill="#DBDBDB"/>
<path d="M217.823 287.545C217.616 287.545 217.417 287.508 217.228 287.433C216.388 287.104 215.931 286.126 215.75 285.019C215.461 285.124 215.177 285.147 214.921 285.047C213.487 284.485 213.968 281.553 214.027 281.22L214.622 281.331C214.495 282.044 214.316 284.15 215.137 284.472C215.275 284.524 215.464 284.489 215.676 284.383C215.605 283.369 215.738 282.329 216.002 281.631C216.491 280.336 217.259 280.522 217.486 280.61C218.164 280.877 218.361 281.585 218.013 282.506C217.72 283.281 217.042 284.196 216.318 284.709C216.449 285.724 216.815 286.612 217.444 286.859C218.097 287.117 218.873 286.593 219.277 286.259C219.303 286.237 219.33 286.215 219.357 286.191C219.081 285.334 219.21 284.249 219.509 283.458C219.919 282.372 220.63 281.846 221.315 282.112C221.608 282.228 221.8 282.479 221.853 282.822C221.998 283.758 221.104 285.318 220.092 286.339C220.227 286.571 220.419 286.753 220.674 286.853C221.261 287.086 222.513 285.834 223.213 284.874L223.698 285.242C223.372 285.691 221.681 287.905 220.456 287.428C220.094 287.287 219.824 287.053 219.628 286.762C218.993 287.28 218.378 287.545 217.823 287.545ZM220.963 282.66C220.617 282.66 220.277 283.146 220.076 283.679C219.853 284.269 219.747 285.051 219.868 285.7C220.769 284.72 221.347 283.49 221.258 282.918C221.234 282.759 221.165 282.712 221.099 282.688C221.055 282.669 221.009 282.66 220.963 282.66ZM217.153 281.162C216.888 281.162 216.693 281.525 216.568 281.852C216.354 282.421 216.248 283.194 216.264 283.964C216.745 283.531 217.22 282.896 217.451 282.285C217.676 281.69 217.615 281.32 217.271 281.185C217.229 281.171 217.191 281.162 217.153 281.162Z" fill="#DBDBDB"/>
<path d="M219.495 297.972L208.629 293.715L207.812 295.878L218.678 300.135L219.495 297.972Z" fill="white"/>
<path d="M218.549 300.484L207.684 296.227L206.867 298.39L217.733 302.647L218.549 300.484Z" fill="white"/>
<path d="M217.596 303L206.73 298.742L205.914 300.905L216.78 305.163L217.596 303Z" fill="white"/>
<path d="M683.522 293.651C682.631 296.821 680.214 299.13 677.319 299.976L668.056 297.272C666.04 294.991 665.192 291.729 666.083 288.56C667.467 283.643 672.489 280.818 677.301 282.224C682.114 283.629 684.905 288.734 683.522 293.651Z" fill="white"/>
<path opacity="0.3" d="M675.658 289.47C674.379 291.051 672.084 291.276 670.532 289.974C668.981 288.672 668.76 286.333 670.038 284.753C671.316 283.172 673.611 282.947 675.163 284.249C676.715 285.551 676.936 287.889 675.658 289.47Z" fill="white"/>
<path d="M663.424 295.903L662.66 298.617L681.146 304.014L681.909 301.3L663.424 295.903Z" fill="white"/>
<path d="M680.909 341.451L643.469 330.52L642.705 333.234L680.146 344.165L680.909 341.451Z" fill="white"/>
<path d="M678.765 349.064L641.324 338.133L640.561 340.847L678.001 351.779L678.765 349.064Z" fill="white"/>
<path d="M678.754 343.758L644.102 333.641L642.724 338.538L677.377 348.655L678.754 343.758Z" fill="white"/>
<path opacity="0.1" d="M678.753 343.758L659.191 338.047L657.814 342.944L677.376 348.655L678.753 343.758Z" fill="black"/>
<path d="M664.412 299.129L663.648 301.844L678.729 306.248L679.493 303.534L664.412 299.129Z" fill="white"/>
<path d="M677.488 340.475L646.855 331.53C646.855 331.53 655.843 326.453 659.703 318.358C662.942 311.525 666.104 302.582 666.104 302.582L676.213 305.534C676.213 305.534 674.244 314.827 673.451 322.373C672.504 331.318 677.488 340.475 677.488 340.475Z" fill="white"/>
<path opacity="0.1" d="M677.485 340.475L662.754 336.175C662.754 336.175 666.678 331.289 668.518 325.847C670.357 320.396 673.232 307.585 673.232 307.585L666.103 302.586L676.211 305.538L676.209 305.564C676.092 306.116 674.218 315.065 673.446 322.377C672.504 331.325 677.485 340.475 677.485 340.475Z" fill="black"/>
<path d="M13.318 169.182C13.0144 170.836 11.452 171.926 9.82783 171.617C8.20491 171.307 7.13464 169.716 7.43819 168.061C7.74173 166.408 9.30419 165.317 10.9283 165.627C12.5525 165.937 13.6215 167.529 13.318 169.182Z" fill="white"/>
<path d="M16.0813 154.088L13.8359 153.66L11.0696 168.714L13.315 169.143L16.0813 154.088Z" fill="white"/>
<path d="M23.6344 166.639C23.3308 168.293 21.7684 169.383 20.1442 169.074C18.5213 168.764 17.451 167.173 17.7546 165.518C18.0581 163.865 19.6206 162.774 21.2447 163.084C22.8689 163.394 23.9379 164.986 23.6344 166.639Z" fill="white"/>
<path d="M26.3977 151.549L24.1523 151.121L21.386 166.175L23.6314 166.604L26.3977 151.549Z" fill="white"/>
<path d="M26.4031 151.582L13.4766 155.677L13.8466 153.665L26.7732 149.57L26.4031 151.582Z" fill="white"/>
<path d="M25.7039 155.376L12.7773 159.472L13.1474 157.458L26.074 153.363L25.7039 155.376Z" fill="white"/>
<path d="M382.111 266.644C420.768 262.626 448.909 227.443 444.965 188.061C441.021 148.679 406.485 120.011 367.828 124.029C329.17 128.047 301.029 163.23 304.974 202.612C308.918 241.994 343.453 270.662 382.111 266.644Z" fill="#EBEBEB"/>
<path d="M627.733 192.962L636.09 184.938L596.122 141.739L587.765 149.764L627.733 192.962Z" fill="#DBDBDB"/>
<path d="M652.068 223.626L664.707 211.491L632.604 176.793L619.965 188.928L652.068 223.626Z" fill="#C7C7C7"/>
<g opacity="0.3">
<path d="M546.968 159.024C518.677 154.027 499.663 126.504 504.568 97.6938C506.948 83.7562 514.522 71.5828 525.908 63.4072C537.294 55.2428 551.099 52.0728 564.781 54.4974C578.462 56.9109 590.411 64.638 598.436 76.2373C606.451 87.8366 609.551 101.901 607.182 115.839C604.802 129.776 597.227 141.95 585.841 150.114C574.455 158.279 560.649 161.449 546.968 159.024Z" fill="white"/>
</g>
<g opacity="0.1">
<path d="M598.457 76.2225C614.993 100.136 609.335 133.295 585.869 150.134C574.512 158.275 560.706 161.426 546.981 159.006C533.264 156.576 521.301 148.874 513.31 137.304C505.311 125.742 502.225 111.67 504.601 97.6877C506.985 83.7131 514.555 71.5335 525.904 63.3851C537.261 55.244 551.066 52.0926 564.784 54.5221C578.504 56.9491 590.465 64.6528 598.457 76.2225Z" fill="white"/>
</g>
<path d="M545.476 167.847C512.413 162 490.183 129.839 495.922 96.156C501.662 62.4732 533.23 39.8265 566.295 45.6736C599.358 51.5207 621.588 83.6808 615.848 117.365C610.109 151.049 578.539 173.696 545.476 167.847ZM546.67 160.845C575.943 166.022 603.893 145.972 608.974 116.15C614.056 86.3284 594.374 57.8544 565.102 52.6775C535.829 47.5007 507.879 67.5515 502.797 97.3732C497.715 127.194 517.395 155.668 546.67 160.845Z" fill="#C7C7C7"/>
<path d="M616.402 90.1029C614.519 83.0066 611.39 76.2134 607.1 70.0115C597.458 56.064 583.074 46.7747 566.608 43.8475C532.558 37.8329 500.051 61.1559 494.132 95.8293C491.272 112.618 495.01 129.537 504.665 143.499C514.321 157.461 528.691 166.749 545.158 169.663C561.624 172.577 578.245 168.769 591.95 158.932C605.656 149.11 614.773 134.456 617.633 117.681C619.22 108.349 618.766 98.9881 616.402 90.1029ZM525.917 63.4055C537.301 55.2423 551.118 52.0834 564.795 54.492C578.471 56.9153 590.42 64.6313 598.435 76.2282C606.448 87.8385 609.563 101.902 607.184 115.835C602.271 144.652 575.258 164.023 546.984 159.033C533.293 156.61 521.343 148.894 513.33 137.282C505.317 125.686 502.202 111.624 504.581 97.6896C506.945 83.7569 514.535 71.5835 525.917 63.4055Z" fill="#EBEBEB"/>
<path d="M519.412 130.065C516.314 125.436 514.39 119.989 513.39 114.36C512.867 111.538 512.703 108.641 512.739 105.736C512.813 102.829 513.2 99.9193 513.818 97.0537C515.157 91.3409 517.688 85.8893 521.174 81.2373C524.658 76.584 528.948 72.6416 533.742 69.6602C529.865 73.812 526.333 78.1302 523.46 82.8031C522.095 85.1772 520.736 87.5463 519.769 90.0855C518.737 92.5877 517.844 95.1515 517.295 97.7953C516.056 103.049 515.746 108.5 516.146 113.926C516.596 119.35 517.66 124.765 519.412 130.065Z" fill="#EBEBEB"/>
<path d="M596.022 96.8359C597.761 102.151 598.151 107.926 597.604 113.621C597.35 116.479 596.731 119.313 595.917 122.097C595.067 124.873 593.913 127.564 592.551 130.148C589.731 135.271 585.835 139.811 581.233 143.316C576.633 146.822 571.45 149.42 566.039 150.954C570.881 148.039 575.437 144.868 579.454 141.172C581.405 139.268 583.346 137.368 584.958 135.193C586.621 133.073 588.169 130.855 589.405 128.465C592.005 123.756 593.767 118.599 594.836 113.268C595.858 107.926 596.286 102.422 596.022 96.8359Z" fill="#EBEBEB"/>
<path d="M373.774 154.926L327.879 176.623L340.118 182.202V192.741C336.446 193.981 333.998 197.7 333.998 201.42C333.998 205.139 336.446 208.859 340.118 210.099V210.718L334.61 223.737C332.774 229.316 333.998 235.515 343.177 235.515C352.356 235.515 353.58 229.316 351.744 223.737L346.237 210.718C349.909 208.859 352.356 205.759 352.356 201.42C352.356 197.08 349.909 193.981 346.237 192.741V185.302L373.774 198.32L419.669 176.623L373.774 154.926ZM400.699 195.221L373.162 207.619L358.476 200.8V201.42C358.476 205.759 356.64 209.479 353.58 212.578L357.252 221.257V221.877C357.864 224.357 358.476 226.836 357.864 229.316C362.147 231.176 367.043 232.416 373.162 232.416C393.356 232.416 400.699 220.017 400.699 213.818V195.221Z" fill="#FF6477"/>
</svg>
