<svg width="257" height="219" viewBox="0 0 257 219" fill="none" xmlns="http://www.w3.org/2000/svg">
<path d="M245.424 35.5587C263.723 72.0195 257.935 118.042 235.064 151.824C212.194 185.605 174.145 207.476 134.135 215.44C105.574 221.125 74.8492 219.968 48.7532 207.044C22.6572 194.121 2.13692 168.12 0.572119 139.041C-0.0192406 128.057 2.31036 116.395 9.64028 108.194C21.344 95.0985 41.3235 94.6371 58.878 95.1779C76.4326 95.718 96.3993 95.3084 108.16 82.2646C117.197 72.2422 118.527 57.7039 123.289 45.0767C131.386 23.6067 150.92 6.8425 173.37 2.09754C176.488 1.43834 179.649 1.01402 182.823 0.816259C207.515 -0.725501 230.934 11.9804 243.887 33.0588L245.424 35.5587Z" fill="#EBEBEB"/>
</svg>
