<svg width="54" height="54" viewBox="0 0 54 54" fill="none" xmlns="http://www.w3.org/2000/svg">
<path d="M26.9999 0L32.6328 2.916L38.9036 3.86775L41.7453 9.53775L46.2577 13.9928L45.2249 20.25L46.2577 26.5072L41.7453 30.9622L38.9036 36.6323L32.6328 37.584L26.9999 40.5L21.3671 37.584L15.0963 36.6323L12.2546 30.9622L7.74219 26.5072L8.77494 20.25L7.74219 13.9928L12.2546 9.53775L15.0963 3.86775L21.3671 2.916L26.9999 0Z" fill="#FF6477"/>
<path d="M13.5 39.8047V53.9999L27 50.6249L40.5 53.9999V39.8047L33.6893 40.8374L27 44.3002L20.3108 40.8374L13.5 39.8047Z" fill="#FF6477"/>
</svg>
