<svg width="14" height="14" viewBox="0 0 14 14" fill="none" xmlns="http://www.w3.org/2000/svg">
<g clip-path="url(#clip0_551_85961)">
<path d="M9.91797 2.33464H12.2513C12.406 2.33464 12.5544 2.39609 12.6638 2.50549C12.7732 2.61489 12.8346 2.76326 12.8346 2.91797V12.2513C12.8346 12.406 12.7732 12.5544 12.6638 12.6638C12.5544 12.7732 12.406 12.8346 12.2513 12.8346H1.7513C1.59659 12.8346 1.44822 12.7732 1.33882 12.6638C1.22943 12.5544 1.16797 12.406 1.16797 12.2513V2.91797C1.16797 2.76326 1.22943 2.61489 1.33882 2.50549C1.44822 2.39609 1.59659 2.33464 1.7513 2.33464H4.08464V1.16797H5.2513V2.33464H8.7513V1.16797H9.91797V2.33464ZM8.7513 3.5013H5.2513V4.66797H4.08464V3.5013H2.33464V5.83464H11.668V3.5013H9.91797V4.66797H8.7513V3.5013ZM11.668 7.0013H2.33464V11.668H11.668V7.0013Z" fill="#8D98A4"/>
</g>
<defs>
<clipPath id="clip0_551_85961">
<rect width="14" height="14" fill="white"/>
</clipPath>
</defs>
</svg>
