<svg width="14" height="14" viewBox="0 0 14 14" fill="none" xmlns="http://www.w3.org/2000/svg">
<g clip-path="url(#clip0_198_48531)">
<path d="M9.91797 2.33268H12.2513C12.406 2.33268 12.5544 2.39414 12.6638 2.50354C12.7732 2.61293 12.8346 2.76131 12.8346 2.91602V12.2493C12.8346 12.4041 12.7732 12.5524 12.6638 12.6618C12.5544 12.7712 12.406 12.8327 12.2513 12.8327H1.7513C1.59659 12.8327 1.44822 12.7712 1.33882 12.6618C1.22943 12.5524 1.16797 12.4041 1.16797 12.2493V2.91602C1.16797 2.76131 1.22943 2.61293 1.33882 2.50354C1.44822 2.39414 1.59659 2.33268 1.7513 2.33268H4.08464V1.16602H5.2513V2.33268H8.7513V1.16602H9.91797V2.33268ZM8.7513 3.49935H5.2513V4.66602H4.08464V3.49935H2.33464V5.83268H11.668V3.49935H9.91797V4.66602H8.7513V3.49935ZM11.668 6.99935H2.33464V11.666H11.668V6.99935Z" fill="#575656"/>
</g>
<defs>
<clipPath id="clip0_198_48531">
<rect width="14" height="14" fill="white"/>
</clipPath>
</defs>
</svg>
