<svg width="54" height="54" viewBox="0 0 54 54" fill="none" xmlns="http://www.w3.org/2000/svg">
<path d="M27 47.25C26.6214 47.2491 26.2432 47.2243 25.8677 47.1758C22.3997 41.6186 20.4795 35.2357 20.3057 28.6875H50.5406C50.5811 28.1289 50.625 27.5687 50.625 27C50.625 22.3274 49.2394 17.7598 46.6435 13.8747C44.0475 9.98955 40.3578 6.96148 36.0409 5.17336C31.724 3.38524 26.9738 2.91738 22.391 3.82896C17.8082 4.74053 13.5986 6.9906 10.2946 10.2946C6.9906 13.5986 4.74053 17.8082 3.82896 22.391C2.91738 26.9738 3.38524 31.724 5.17336 36.0409C6.96148 40.3578 9.98955 44.0475 13.8747 46.6435C17.7598 49.2394 22.3274 50.625 27 50.625V47.25ZM47.1656 25.3125H37.0626C36.8811 19.1031 35.2926 13.0158 32.4169 7.50939C36.3968 8.61997 39.9422 10.9203 42.5782 14.1022C45.2141 17.2841 46.8148 21.1955 47.1656 25.3125ZM28.1306 6.82426C31.5992 12.3813 33.52 18.7641 33.6943 25.3125H20.3057C20.48 18.7641 22.4008 12.3813 25.8694 6.82426C26.621 6.72566 27.3824 6.72566 28.134 6.82426M21.5848 7.5077C18.7084 13.0145 17.1194 19.1024 16.9374 25.3125H6.83439C7.18547 21.1956 8.78619 17.2842 11.4221 14.1024C14.0581 10.9206 17.6034 8.62019 21.5831 7.50939M6.83439 28.6875H16.9374C17.1191 34.8969 18.7076 40.9842 21.5831 46.4906C17.6034 45.3798 14.0581 43.0794 11.4221 39.8976C8.78619 36.7158 7.18547 32.8044 6.83439 28.6875Z" fill="#FF6477"/>
<path fill-rule="evenodd" clip-rule="evenodd" d="M42.1875 42.1875L50.625 45.5625V42.1875L42.1875 37.9688V33.75C42.1875 33.3024 42.0097 32.8732 41.6932 32.5568C41.3768 32.2403 40.9476 32.0625 40.5 32.0625C40.0524 32.0625 39.6232 32.2403 39.3068 32.5568C38.9903 32.8732 38.8125 33.3024 38.8125 33.75V37.9688L30.375 42.1875V45.5625L38.8125 42.1875V48.0938L35.4375 50.625V52.3125L40.5 50.625L45.5625 52.3125V50.625L42.1875 48.0938V42.1875Z" fill="#FF6477"/>
</svg>
