<svg width="213" height="474" viewBox="0 0 213 474" fill="none" xmlns="http://www.w3.org/2000/svg">
<path d="M93.3471 457.196C83.0194 451.87 60.9115 441.838 60.9115 441.838L60.6225 382.953L4.11036 383.128C4.11036 383.128 3.85156 442.058 3.85156 442.099C4.01845 447.599 4.44776 446.274 4.69567 450.713L93.3471 457.196Z" fill="#EB9481"/>
<path d="M101.355 472.897C98.2805 473.958 9.7754 474.109 6.41587 471.937C6.39169 471.925 6.37839 471.899 6.3542 471.874C5.99503 471.559 5.69753 470.334 5.42422 468.415C5.41213 468.389 5.41213 468.364 5.41213 468.326C4.80505 464.008 4.3467 456.218 4.01172 447.051C9.42832 447.645 27.0024 447.314 37.2986 448.399C48.4801 449.576 88.7618 456.685 90.7947 455.901H90.8068C94.5497 457.783 97.388 459.298 98.2684 460.005C101.714 462.796 104.453 471.848 101.355 472.897Z" fill="#263238"/>
<path opacity="0.1" d="M101.357 472.894C99.9686 473.373 81.3159 473.664 60.9023 473.652L71.1768 446.543C81.4513 451.316 96.0637 458.222 98.2707 460.003C101.716 462.793 104.455 471.846 101.357 472.894Z" fill="black"/>
<path d="M0.356163 440.669L64.3662 439.487C64.3662 439.487 63.6297 329.485 62.9464 294.079C62.1664 253.639 56.6276 132.418 56.6276 132.418L8.784 133.765C8.784 133.765 -0.732244 162.142 0.250944 179.605C0.536347 184.662 3.86202 191.993 5.32894 197.369L8.42 297.613L0.356163 440.669Z" fill="#263238"/>
<path d="M4.78327 428.805C6.42918 428.469 8.19964 428.454 9.87336 428.305C11.7623 428.136 13.6453 427.96 15.5391 427.847C19.178 427.629 22.8193 427.502 26.463 427.425C33.8121 427.271 41.1636 427.207 48.514 427.316C52.6958 427.377 56.8765 427.476 61.056 427.648C61.2204 427.656 61.2168 427.907 61.0548 427.917C53.7734 428.31 46.4847 428.55 39.1973 428.816C31.9243 429.082 24.626 429.352 17.3482 429.331C15.2585 429.325 13.1688 429.342 11.0791 429.256C9.01594 429.171 6.85607 429.325 4.8123 429.054C4.69016 429.038 4.63815 428.835 4.78327 428.805Z" fill="#37474F"/>
<path d="M56.4663 369.422C56.7347 351.852 56.6972 330.085 56.6936 312.51C56.6863 277.359 55.9692 242.213 54.5821 207.09C53.8033 187.385 52.7512 167.691 51.641 148.004C51.6277 147.778 51.9651 147.782 51.9833 148.004C54.772 183.227 56.4276 218.55 57.4253 253.871C58.4181 289.008 58.7628 328.359 58.0118 363.505C57.5897 383.232 58.3226 402.541 57.0346 422.23C57.0238 422.4 56.7686 422.403 56.7722 422.23C57.0673 404.481 56.1942 387.172 56.4663 369.422Z" fill="#37474F"/>
<path d="M112.721 457.411H164.091C153.947 452.142 131.249 441.842 131.249 441.842L128.614 382.957L72.1016 383.132C72.1016 383.132 74.1889 442.062 74.1889 442.103C74.3558 447.603 75.8324 446.278 76.0815 450.717L112.721 457.201V457.411Z" fill="#EB9481"/>
<path d="M171.691 472.901C168.616 473.962 80.1113 474.113 76.7518 471.941C76.7276 471.929 76.7143 471.903 76.6901 471.878C76.331 471.563 76.0335 470.338 75.7602 468.419C75.7481 468.393 75.7481 468.368 75.7481 468.33C75.141 464.012 74.6826 456.222 74.3477 447.055C79.7643 447.649 97.3383 447.318 107.635 448.402C118.816 449.58 159.098 456.689 161.131 455.905H161.143C164.886 457.787 167.724 459.302 168.604 460.009C172.05 462.8 174.789 471.852 171.691 472.901Z" fill="#263238"/>
<path d="M38.2342 195.379C38.2487 195.419 66.7708 278.935 67.6657 294.417C68.4288 307.611 70.4447 439.408 70.4447 439.408L132.983 437.94C132.983 437.94 123.051 301.685 121.641 287.947C119.418 266.312 107.932 217.151 92.7424 164.038C89.9005 154.099 80.6709 131.742 80.6709 131.742L10.2695 133.723C10.2695 133.723 11.7872 166.672 27.1494 190.098C27.1494 190.098 33.8999 193.054 38.2342 195.379Z" fill="#263238"/>
<path d="M73.6254 427.183C80.6323 426.801 87.898 426.408 94.9169 426.369C101.875 426.332 108.853 426.233 115.809 426.414C119.755 426.517 123.691 426.526 127.633 426.77C127.764 426.777 127.764 426.952 127.633 426.962C120.636 427.531 113.598 427.654 106.58 427.794C99.614 427.932 92.6543 428.06 85.6873 427.965C81.7424 427.911 77.8073 427.84 73.8649 427.702C73.4392 427.688 73.2009 427.205 73.6254 427.183Z" fill="#37474F"/>
<path d="M75.5974 139.471C78.1104 147.484 106.99 262.281 110.35 278.33C113.731 294.48 122.609 417.791 122.571 419.892C122.568 420.095 122.287 420.09 122.263 419.889C120.462 405.116 110.787 285.245 109.271 279.477C105.105 263.626 77.3267 148.748 75.1221 139.602C75.0447 139.285 75.5006 139.163 75.5974 139.471Z" fill="#37474F"/>
<path d="M54.8916 190.421C51.6325 191.019 48.3503 191.449 45.0331 191.484C41.6833 191.521 38.4556 191.038 35.1335 190.73C31.982 190.438 28.7869 190.941 25.6354 191.058C22.4379 191.178 19.186 190.977 16.0853 190.145C15.939 190.106 15.8676 190.332 16.014 190.374C19.1038 191.27 22.1997 192.084 25.3996 192.444C28.6853 192.812 31.9433 192.295 35.2339 192.443C38.6188 192.594 41.9348 193.035 45.3306 192.755C48.6212 192.484 51.8719 191.815 54.9678 190.632C55.0923 190.587 55.0113 190.4 54.8916 190.421Z" fill="#37474F"/>
<path d="M60.5911 263.189C59.8498 260.617 59.146 258.036 58.3659 255.474C56.789 250.294 55.189 245.109 53.4548 239.977C50.0082 229.777 46.7382 219.51 43.1102 209.372C41.0531 203.623 39.1907 197.793 36.8071 192.165C36.7479 192.027 36.5471 192.094 36.5822 192.239C37.846 197.514 39.5729 202.66 41.1366 207.853C42.6978 213.04 44.3582 218.2 46.0223 223.357C49.3274 233.605 52.5708 243.875 56.1528 254.033C57.1578 256.881 58.187 259.72 59.2657 262.541C60.3674 265.423 61.2538 268.404 62.5587 271.206C62.63 271.358 62.8417 271.287 62.8078 271.124C62.2624 268.435 61.3494 265.825 60.5911 263.189Z" fill="#37474F"/>
<path d="M63.447 2.68131C63.447 2.68131 51.5447 -4.06389 39.0245 7.1621C24.1376 20.5096 28.3908 66.7638 27.4234 70.8885C26.4559 75.012 24.7024 75.9804 24.0747 79.6764C23.4471 83.3712 26.4341 85.8105 26.7848 87.13C27.1356 88.4495 23.4531 95.1848 23.4531 95.1848C23.4531 95.1848 43.3636 100.715 55.9104 98.3301C68.4573 95.945 82.5992 87.3111 82.5992 87.3111C82.5992 87.3111 79.7887 83.1913 79.8069 81.2534C79.8238 79.3142 82.0683 76.7479 81.9232 73.2281C81.7781 69.7083 76.5731 65.3729 76.0603 63.4793C75.5488 61.5845 78.5467 26.6166 75.6467 14.3693C72.7456 2.12198 63.447 2.68131 63.447 2.68131Z" fill="#263238"/>
<path d="M83.2397 86.3123C82.1888 84.9681 81.1597 83.5834 80.4945 81.9596C80.3434 81.5543 80.2055 81.0984 80.2756 80.6217C80.9202 77.8053 83.3667 75.324 82.9229 72.2958C82.3255 69.971 80.1245 68.0429 78.6455 66.2294C77.8134 65.1933 76.8218 64.1165 76.6126 62.685C76.5751 62.1749 76.6005 61.7733 76.6077 61.3285C77.2039 46.7959 78.383 32.0919 76.1603 17.6492C75.575 14.2932 74.7828 10.8831 72.9531 7.98047C74.9933 10.7611 75.9293 14.2058 76.6851 17.5445C79.4678 31.97 78.3951 46.7983 77.5958 61.3655C77.58 61.7794 77.5559 62.239 77.5776 62.5876C77.753 63.7396 78.6237 64.6968 79.3396 65.6319C80.8827 67.6253 83.0607 69.5792 83.6195 72.1664C84.0306 75.4078 81.4983 77.8164 80.6191 80.6771C80.5417 81.0578 80.6372 81.4631 80.7654 81.8623C81.335 83.4552 82.2904 84.9152 83.2397 86.3123Z" fill="#263238"/>
<path d="M22.4824 93.3535C23.3084 91.572 24.4936 89.3335 25.1805 87.5336L25.1974 87.4707C25.097 87.2009 24.8685 86.9557 24.6919 86.6983C23.1246 84.6889 21.8137 82.2175 22.1027 79.5563C22.3228 76.4369 24.4549 73.8165 25.484 71.0765C26.2338 69.1841 26.1213 67.2351 26.0899 65.2405C25.7779 48.1982 25.7597 19.3202 38.7093 6.98539C40.1835 5.60308 41.8995 4.49674 43.7413 3.70703C41.9503 4.599 40.3141 5.78172 38.9052 7.19729C26.7139 19.9263 26.9969 48.2241 27.038 65.2294C27.0755 67.2795 27.1227 69.4823 26.2834 71.3907C25.1188 74.2797 23.0569 76.5219 22.7243 79.6266C22.4752 81.5928 23.1548 83.553 24.1658 85.2248C24.548 85.8827 25.01 86.4753 25.403 87.1356C25.4586 87.2354 25.5191 87.3561 25.5142 87.4966C24.7004 89.5479 23.5116 91.4193 22.4824 93.3535Z" fill="#263238"/>
<path d="M55.6891 74.7807C80.7139 83.9849 146.694 87.7179 153.88 86.9997C159.523 86.4354 155.372 51.7361 150.403 52.192C120.688 54.9208 76.0108 57.8752 60.0052 59.1429C45.1401 60.3207 40.5967 69.2293 55.6891 74.7807Z" fill="#EB9481"/>
<path d="M167.98 48.1328C173.312 49.01 179.496 49.5816 184.411 52.4411C189.326 55.2993 189.866 64.2732 188.841 66.1841C187.815 68.0961 179.546 78.9809 174.58 76.2175C169.615 73.4541 177.526 65.9598 177.902 64.8055C178.278 63.6511 178.811 62.2047 177.821 61.7809C176.831 61.3583 156.188 60.1547 156.188 60.1547L167.98 48.1328Z" fill="#EB9481"/>
<path d="M167.925 49.0039C168.205 49.1604 184.376 51.2203 189.29 54.0785C194.205 56.938 194.745 65.9106 193.721 67.8227C192.695 69.7348 184.425 80.6195 179.459 77.8561C174.494 75.0927 182.405 67.5985 182.781 66.4441C183.157 65.2897 183.689 63.8434 182.7 63.4195C181.71 62.997 161.066 61.7933 161.066 61.7933L167.925 49.0039Z" fill="#EB9481"/>
<path d="M178.117 76.2793C177.933 75.1384 178.473 73.8769 178.893 72.8297C179.352 71.6864 180.027 70.6404 180.805 69.7004C181.483 68.8823 182.361 68.1813 182.9 67.2536C183.399 66.3961 183.646 65.1826 183.642 64.1946C183.639 63.2718 182.78 63.1079 182.033 62.9847C180.931 62.8024 179.779 62.7704 178.666 62.7248C177.46 62.6755 176.252 62.6546 175.047 62.6262C173.807 62.5979 172.534 62.5018 171.298 62.6361C171.206 62.6459 171.185 62.7913 171.284 62.8073C172.317 62.9835 173.379 62.9897 174.423 63.055C175.606 63.1289 176.792 63.2114 177.974 63.31C179.078 63.4012 180.19 63.4344 181.293 63.5453C181.682 63.5847 182.5 63.5921 182.815 63.8742C183.149 64.1724 182.826 65.2245 182.745 65.5806C182.49 66.698 181.874 67.4212 181.108 68.2183C180.369 68.9846 179.684 69.8039 179.106 70.7057C178.574 71.5348 178.105 72.4798 177.901 73.4567C177.703 74.3943 177.892 75.3466 177.918 76.2916C177.92 76.4234 178.138 76.4074 178.117 76.2793Z" fill="#263238"/>
<path d="M145.051 53.5173C145.051 53.5173 165.664 48.3995 169.889 47.4571C178.365 45.5647 207.97 48.9638 211.539 50.4767C215.106 51.9896 212.546 59.713 192.195 57.8872C181.469 56.925 177.219 61.1199 175.883 64.0114C174.546 66.903 174.371 73.5804 179.062 76.0259C183.752 78.4714 190.436 73.2675 195.093 74.8678C199.75 76.4682 192.692 82.8376 187.237 85.7501C181.782 88.6625 174.317 89.4128 169.5 88.7155C164.683 88.0182 149.4 86.562 149.4 86.562L145.051 53.5173Z" fill="#EB9481"/>
<path d="M186.574 75.9082C184.097 76.3135 181.171 76.9936 178.833 75.8072C176.417 74.5801 175.718 72.158 175.673 69.5806C175.627 66.9823 176.195 64.3631 177.951 62.3944C179.532 60.6203 181.695 59.4795 183.95 58.8758C186.74 58.128 189.623 58.0232 192.489 58.1156C192.617 58.1193 192.607 57.9222 192.478 57.9111C189.831 57.6955 181.737 56.774 177.221 61.989C175.377 64.1204 174.93 66.6879 174.95 69.3404C174.969 71.7847 175.49 74.4224 177.632 75.854C180.243 77.5997 183.807 76.6462 186.673 76.0486C186.801 76.0228 186.703 75.886 186.574 75.9082Z" fill="#263238"/>
<path d="M150.388 89.6307L150.19 49.9727C150.19 49.9727 73.848 56.5688 62.681 57.7786C40.0483 60.2303 41.2831 70.7762 53.692 75.172C71.8018 81.5895 150.388 89.6307 150.388 89.6307Z" fill="#FF6477"/>
<path d="M140.474 52.9307C140.293 54.3352 140.377 55.7791 140.328 57.1971C140.277 58.6201 140.287 60.0418 140.299 61.4672C140.322 64.2084 140.385 66.9533 140.463 69.6945C140.542 72.4382 140.756 83.6481 141.069 86.4719C141.084 86.5976 141.257 86.6062 141.266 86.4768C141.479 83.658 141.294 72.3495 141.271 69.5553C141.248 66.7611 141.209 63.9645 141.134 61.1703C141.097 59.7954 141.044 58.4266 140.949 57.0542C140.855 55.6756 140.884 54.2785 140.658 52.911C140.639 52.7952 140.486 52.8346 140.474 52.9307Z" fill="#263238"/>
<path opacity="0.1" d="M91.2136 82.4096C75.1464 80.1058 60.3442 77.5321 53.6856 75.1729C41.2778 70.7795 40.0455 60.2287 62.6842 57.7844C63.3312 57.708 64.2128 57.6243 65.2879 57.5195L91.2136 82.4096Z" fill="black"/>
<path d="M45.4531 55.9496C45.4858 57.3763 50.045 67.5649 56.2078 68.5739C58.2153 68.8992 60.4477 57.8149 60.4477 57.8149L60.796 57.035L65.6635 46.1146L54.2269 34.6632L52.5531 33.1133C52.5531 33.1133 51.414 36.1908 50.0341 40.0371C49.9688 40.2158 49.9035 40.3932 49.837 40.5854C49.7535 40.801 49.6713 41.003 49.6024 41.2075C49.3883 41.7792 49.1731 42.3644 48.9711 42.9508C48.8151 43.3968 48.6615 43.8304 48.514 44.3048C48.3543 44.7779 48.2092 45.2386 48.0496 45.7117C46.5766 50.4032 45.4471 55.346 45.4531 55.9496Z" fill="#EB9481"/>
<path d="M50.0352 40.0359C51.3836 49.8414 57.7701 55.0823 60.7958 57.035L65.6634 46.1146L54.2267 34.6631L52.553 33.1133C52.553 33.1133 51.415 36.1896 50.0352 40.0359Z" fill="#263238"/>
<path d="M82.6 23.9469C88.9284 44.6802 77.4144 50.8575 73.01 52.2324C69.0119 53.4816 55.2424 57.2183 46.8376 37.2574C38.4339 17.2965 45.9258 7.76455 54.9208 4.4172C63.9158 1.06986 76.2728 3.2123 82.6 23.9469Z" fill="#EB9481"/>
<path d="M78.8887 20.2698C78.4388 20.5038 77.9865 20.6443 77.5185 20.8291C76.9912 21.0373 76.591 21.259 76.0141 21.1285C75.7045 21.0582 75.4615 20.6566 75.5002 20.3449C75.5909 19.6193 76.175 19.2004 76.8014 18.9232C77.4798 18.6226 78.0797 18.5659 78.7907 18.7667C79.4801 18.9614 79.4813 19.9605 78.8887 20.2698Z" fill="#263238"/>
<path d="M66.7268 27.0987C67.2286 27.1554 67.7003 27.1233 68.2009 27.127C68.7669 27.1319 69.2168 27.1948 69.709 26.8634C69.9726 26.686 70.0585 26.2215 69.9121 25.9443C69.5723 25.2975 68.8806 25.1164 68.1985 25.0831C67.4596 25.0462 66.8815 25.2113 66.289 25.656C65.7158 26.0884 66.0652 27.0235 66.7268 27.0987Z" fill="#263238"/>
<path d="M77.7617 26.2008C77.7617 26.1429 77.8875 26.2451 77.8972 26.3055C78.1511 27.7617 78.6844 29.3855 80.0715 29.5925C80.1151 29.5986 80.126 29.6725 80.0764 29.675C78.4583 29.7834 77.7726 27.62 77.7617 26.2008Z" fill="#263238"/>
<path d="M78.7222 24.4203C80.9764 23.7575 82.1216 28.3836 80.0331 28.9984C77.9773 29.6033 76.832 24.9771 78.7222 24.4203Z" fill="#263238"/>
<path d="M79.7482 24.4832C80.1691 24.6372 80.6359 24.9921 81.0725 24.912C81.5792 24.8184 81.8246 24.2245 82.0242 23.664C82.0447 23.6061 82.0907 23.6356 82.1076 23.6972C82.3507 24.5757 82.2902 25.5699 81.4957 25.9518C80.7713 26.3004 80.0228 25.6844 79.5971 24.8565C79.5173 24.7025 79.5789 24.4216 79.7482 24.4832Z" fill="#263238"/>
<path d="M72.5836 40.8347C72.9851 41.1168 73.4072 41.5271 73.9345 41.4815C74.4412 41.4371 74.9878 41.1082 75.4147 40.8482C75.457 40.8223 75.5114 40.863 75.4897 40.9123C75.2115 41.5357 74.4871 42.0211 73.8014 42.0174C73.1327 42.0149 72.7155 41.5 72.4567 40.9246C72.4204 40.8445 72.5256 40.794 72.5836 40.8347Z" fill="#263238"/>
<path d="M77.333 34.2465C77.333 34.2465 78.1143 36.3298 78.3452 37.3437C78.3658 37.4386 78.1348 37.5409 77.7998 37.6394C77.7853 37.648 77.7769 37.6567 77.7611 37.6493C76.0608 38.3404 74.1428 38.1359 72.7388 36.9236C72.6469 36.8411 72.7497 36.7068 72.8549 36.7487C74.3956 37.4238 75.9084 37.3376 77.4794 36.9988C77.4866 36.7019 76.0233 33.4777 76.1793 33.4284C76.7151 33.2535 77.876 33.3804 78.5666 33.421C77.0634 29.0351 74.8793 24.9301 73.4462 20.5393C73.3979 20.3816 73.6143 20.2805 73.6929 20.4124C76.2821 24.5519 78.1203 29.56 79.788 34.0494C80.002 34.6087 77.772 34.3266 77.333 34.2465Z" fill="#263238"/>
<path d="M77.6118 37.2895C77.6118 37.2895 77.035 38.885 75.8631 39.7486C75.4314 40.0689 74.9319 40.2931 74.3442 40.3079C73.1385 40.3424 72.8084 39.3088 72.7552 38.3552C72.708 37.5717 72.8604 36.8398 72.8604 36.8398C72.8604 36.8398 74.944 37.9055 77.6118 37.2895Z" fill="#263238"/>
<path d="M75.8619 39.748C75.4302 40.0683 74.9307 40.2925 74.343 40.3073C73.1373 40.3418 72.8071 39.3082 72.7539 38.3546C73.9898 38.1217 75.4168 38.5948 75.8619 39.748Z" fill="#FF9ABB"/>
<path d="M66.4414 29.2447C66.7933 29.0106 67.1912 28.88 67.5975 28.763C68.0087 28.6657 68.438 28.6262 68.8806 28.6607C69.3196 28.7112 69.7755 28.8258 70.2 29.0599C70.6257 29.2964 71.0042 29.6475 71.3005 30.0615L71.8362 30.8106L70.9776 30.8389C70.3971 30.8586 69.7671 30.9399 69.1854 31.0989C68.6013 31.2676 68.0353 31.5091 67.56 32.0093C67.7535 31.3058 68.3062 30.744 68.9193 30.4163C69.5433 30.0812 70.2012 29.9013 70.9232 29.8594L70.6015 30.6369C70.154 30.0541 69.5361 29.666 68.7996 29.4763C68.068 29.294 67.2686 29.225 66.4414 29.2447Z" fill="#263238"/>
<path d="M69.4531 32.5653C70.0493 32.2376 70.6419 32.0355 71.1486 31.5464C71.2647 31.4343 71.7097 30.9501 71.6614 30.838C71.5646 30.5288 71.3627 30.1949 71.1692 29.8906C71.4171 30.1555 71.688 30.3958 71.8464 30.7814C71.8549 31.1263 71.6771 31.5119 71.3397 31.8002C70.7955 32.2659 70.0409 32.5074 69.4531 32.5653Z" fill="#263238"/>
<path d="M49.2099 39.8258C53.5441 39.5006 52.6746 29.4117 52.6746 29.4117C52.6746 29.4117 70.3224 24.0587 68.8894 8.80408C68.8894 8.80408 73.3131 14.3247 80.6755 18.6108C80.6755 18.6108 78.824 1.65109 65.3956 2.81163C65.3956 2.81163 49.3744 -0.419905 43.0145 14.1953C36.6546 28.8105 46.3002 40.0439 49.2099 39.8258Z" fill="#263238"/>
<path d="M68.5916 7.44922C69.2059 9.70255 69.2579 12.1136 68.8927 14.4507C68.5287 16.7878 67.7269 19.0904 66.4535 21.0985C66.1753 21.6258 65.769 22.0657 65.4316 22.5523L64.9007 23.2644C64.706 23.4849 64.4992 23.6968 64.2936 23.9087C63.8788 24.3264 63.4797 24.7625 63.0504 25.1629C62.5969 25.5337 62.1337 25.8947 61.6706 26.2495C61.4372 26.4245 61.2122 26.6117 60.974 26.7781L60.2254 27.2265L58.7331 28.1173C57.6882 28.6113 56.6204 29.0511 55.5586 29.47C56.5249 28.8318 57.5358 28.3057 58.4767 27.6688L59.8578 26.6721L60.5459 26.1769C60.7636 25.997 60.9655 25.7974 61.1759 25.6089C61.5907 25.2245 62.008 24.8475 62.4337 24.4792C62.8279 24.0788 63.1883 23.6451 63.568 23.2311L64.1315 22.6065L64.6238 21.9228C64.9358 21.4571 65.3167 21.0369 65.5731 20.5343C66.7993 18.6481 67.5782 16.4983 68.1103 14.2954C68.3715 13.1891 68.5275 12.0544 68.6049 10.9099C68.7053 9.76538 68.6883 8.61099 68.5916 7.44922Z" fill="#263238"/>
<path d="M50.5679 37.8329C50.5679 37.8329 44.5926 32.2138 41.9865 34.5139C39.3815 36.8141 44.8635 45.6586 48.6184 46.2081C52.3722 46.7588 52.9382 43.2414 52.9382 43.2414L50.5679 37.8329Z" fill="#EB9481"/>
<path d="M43.6222 37.0111C43.5653 37.0185 43.5714 37.0999 43.6246 37.1097C46.2742 37.5766 48.0471 39.5873 49.4535 41.7679C48.5332 41.0115 47.44 40.7269 46.4205 41.8677C46.3673 41.9268 46.4496 42.0155 46.5149 41.986C47.4666 41.5498 48.2237 41.5671 49.0714 42.2311C49.6712 42.7005 50.1538 43.3559 50.6375 43.9436C50.7983 44.1395 51.166 43.935 51.0293 43.6985C51.0196 43.6812 51.0075 43.6627 50.9967 43.6455C50.3811 40.478 47.024 36.596 43.6222 37.0111Z" fill="#263238"/>
<path d="M77.5618 112.136L88.9259 151.511L1.76562 152.144C1.76562 152.144 4.55435 138.31 14.1976 121.899C14.1976 121.899 28.8257 70.7398 37.6103 61.0698C46.9415 50.7986 57.5909 53.0088 66.113 64.1781C69.1352 68.139 83.5214 85.8897 82.9155 96.9198C82.3568 106.646 77.5618 112.136 77.5618 112.136Z" fill="#FF6477"/>
<path d="M126.925 35.5226L79.2814 34.0245L79.0625 22.9919L126.607 19.5312L126.925 35.5226Z" fill="#37474F"/>
<path d="M153.681 39.4519L106.01 36.5653L105.668 19.3518L153.186 14.5039L153.681 39.4519Z" fill="#455A64"/>
<path d="M176.462 44.7878L140.216 39.866L139.715 14.6457L175.736 8.23438L176.462 44.7878Z" fill="#37474F"/>
<path d="M178.552 26.4625C178.735 35.679 177.784 43.1745 176.427 43.2016C175.071 43.23 173.823 35.7801 173.64 26.5635C173.456 17.3469 174.408 9.8514 175.765 9.8243C177.122 9.79596 178.368 17.2459 178.552 26.4625Z" fill="#FF6477"/>
<path d="M48.5168 71.925C63.2889 89.109 94.74 111.795 104.134 109.049C114.556 106.002 135.896 66.4648 138.403 57.1004C139.472 53.1087 107.149 42.4568 105.919 46.6998C104.848 50.397 95.5007 72.0149 92.3491 72.812C91.0515 73.1398 79.4625 68.5185 58.437 62.6998C42.3323 58.2436 44.1451 66.8381 48.5168 71.925Z" fill="#EB9481"/>
<path d="M103.312 56.0097C103.312 56.0097 103.882 52.0082 104.825 41.8417C105.562 33.8978 112.728 15.7553 133.737 9.06065C141.787 6.49562 147.069 11.1292 139.17 15.3069C133.608 18.2489 129.504 19.8012 127.954 21.2796C127.954 21.2796 137.37 23.1584 139.658 28.3205C140.68 30.628 143.326 36.9901 144.691 42.2433C144.691 42.2433 143.647 42.8544 142.218 43.4359C142.218 43.4359 144.888 50.0321 139.423 55.799L135.569 64.3183L103.312 56.0097Z" fill="#EB9481"/>
<path d="M107.566 35.235C110.476 32.2844 116.744 26.1367 123.589 22.9236C131.192 19.3557 146.783 14.5694 149.31 20.3142C151.164 24.5264 145.369 26.887 145.369 26.887C145.369 26.887 152.222 26.2931 153.08 30.4708C153.861 34.279 149.27 35.8313 149.27 35.8313C149.27 35.8313 153.488 36.1984 153.548 40.0139C153.619 44.6031 144.767 43.0791 140.897 47.7903C140.027 48.8486 107.566 35.235 107.566 35.235Z" fill="#EB9481"/>
<path d="M125.951 31.7343C129.134 29.4169 137.687 26.0412 145.23 26.7792C145.402 26.7964 145.48 26.9369 145.322 26.9553C136.848 27.9397 129.176 30.5158 125.984 31.8069C125.941 31.8254 125.914 31.7601 125.951 31.7343Z" fill="#263238"/>
<path d="M129.711 39.4522C132.658 37.7397 141.628 34.6622 149.246 35.6774C149.416 35.6996 149.486 35.8462 149.327 35.8585C140.431 36.5151 133.002 38.4309 129.739 39.5274C129.695 39.5422 129.672 39.4744 129.711 39.4522Z" fill="#263238"/>
<path d="M136.594 69.7928L102.222 53.1953C102.222 53.1953 94.0429 71.7345 92.6558 71.9981C90.8273 72.3455 66.7639 63.4308 55.557 60.9939C43.4008 58.3512 38.809 66.5465 50.5649 77.4805C55.2414 81.8307 85.349 111.048 104.252 109.785C114.38 109.11 136.594 69.7928 136.594 69.7928Z" fill="#FF6477"/>
<path d="M102.288 62.6269C104.227 63.8836 106.362 64.7891 108.401 65.7882C110.527 66.8305 112.681 67.7865 114.831 68.7574C116.979 69.7257 125.692 73.2455 127.866 74.1227C127.964 74.1621 128.019 73.9798 127.924 73.933C125.798 72.8845 117.373 68.7327 115.26 67.7939C113.147 66.8551 111.038 65.8954 108.904 65.0293C106.744 64.1521 104.564 63.1173 102.332 62.521C102.286 62.5074 102.236 62.5936 102.288 62.6269Z" fill="#263238"/>
<path d="M53.7266 80.4374C64.2853 89.5394 75.3289 98.2916 87.5613 104.931C92.6151 107.448 98.097 110.136 103.794 109.405C107.146 108.768 109.846 106.348 112.313 104.04C122.137 94.0535 129.228 81.7039 136.556 69.7683L136.574 69.8398L133.839 68.4648L136.615 69.7523L136.663 69.7745C134.323 73.8561 132.071 78.0092 129.604 82.0267C124.667 90.0212 119.535 97.9873 112.89 104.656C109.583 107.962 105.286 111.196 100.364 110.396C84.7423 107.944 65.4559 91.0893 53.7266 80.4374Z" fill="#263238"/>
<path d="M54.332 82.7266C56.0106 83.6148 57.6819 84.4625 59.3024 85.4296C57.3916 85.2571 55.5027 84.285 54.332 82.7266Z" fill="#263238"/>
<path d="M61.4336 62.6529C71.2449 65.5062 82.8557 69.3957 92.6997 71.7167C96.3168 66.1851 99.1321 59.308 102.198 53.1875L102.209 53.1641L102.23 53.1752L103.234 53.6926L102.21 53.2195L102.243 53.2072C99.5228 59.4423 97.0086 65.7687 93.4821 71.6022C93.2088 71.9077 93.1145 72.2551 92.6223 72.2835C82.0201 69.8416 71.7105 66.2085 61.4336 62.6529Z" fill="#263238"/>
<path d="M63.0859 62.5938C64.2953 62.7502 65.3812 63.4524 66.2592 64.289C65.1406 63.7925 64.1598 63.1494 63.0859 62.5938Z" fill="#263238"/>
</svg>
