<svg width="70" height="95" viewBox="0 0 70 95" fill="none" xmlns="http://www.w3.org/2000/svg">
<path d="M21.2344 20.6358C21.3202 19.4595 20.2712 17.8371 19.2984 16.9046C18.3263 15.9721 17.724 14.7075 18.2303 12.8272C18.6219 11.3738 19.5435 11.4825 19.9077 10.6281C20.1771 9.99583 20.0639 9.27455 20.1195 8.58911C20.3109 6.23583 22.8997 4.39135 25.1858 4.97951C25.8296 2.74143 27.916 0.993588 30.2322 0.752948C32.5483 0.511668 34.9502 1.79231 36.0408 3.84991C37.3624 3.16255 39.0283 3.18623 40.3301 3.91071C41.6319 4.63519 42.5298 6.03807 42.6424 7.52351C43.9307 6.59295 45.9077 6.95135 46.9279 8.17055C47.9474 9.38975 48.0101 11.2566 47.2363 12.6448C46.4626 14.0329 44.9611 14.9366 43.3899 15.1779C41.8187 15.4192 40.1944 15.048 38.7717 14.3389C37.349 13.6298 36.1106 12.5974 34.9829 11.4768" fill="#263238"/>
<path d="M31.6978 94.1795C46.9992 94.1795 59.4034 82.0661 59.4034 67.1235C59.4034 52.1809 46.9992 40.0675 31.6978 40.0675C16.3964 40.0675 3.99219 52.1809 3.99219 67.1235C3.99219 82.0661 16.3964 94.1795 31.6978 94.1795Z" fill="#E0E0E0"/>
<path d="M59.514 67.1465L56.4478 59.2828L45.457 66.1878L55.2503 81.2892C55.2503 81.2892 59.2337 76.1155 59.514 67.1465Z" fill="#EB996E"/>
<path d="M29.1756 50.1206C33.1251 50.127 36.3839 47.0589 36.5791 43.1491C36.7417 39.8928 36.878 36.7574 36.878 36.7574C36.878 36.7574 42.9241 36.319 43.4815 30.4086C44.039 24.4982 44.1158 10.8291 44.1158 10.8291C37.4457 7.3283 29.3881 7.67774 23.0553 11.7437L22.4799 12.1129L21.7817 42.7005C21.7369 46.7811 25.0591 50.1149 29.1756 50.1206Z" fill="#FFBE9D"/>
<path d="M32.6439 19.9215C33.0996 20.0712 33.3472 20.5596 33.1956 21.0108C33.0445 21.4626 32.5524 21.7071 32.0961 21.5573C31.6404 21.4076 31.3933 20.9192 31.5444 20.468C31.6954 20.0162 32.1876 19.7717 32.6439 19.9215Z" fill="#263238"/>
<path d="M34.2999 20.2287C34.2001 20.326 33.6401 19.8428 32.8171 19.7903C31.9947 19.7257 31.3707 20.1238 31.2862 20.0131C31.2446 19.9638 31.3489 19.7846 31.6215 19.6035C31.8891 19.423 32.3396 19.2611 32.8529 19.2975C33.3656 19.334 33.7886 19.5587 34.0273 19.775C34.2711 19.9939 34.3486 20.1865 34.2999 20.2287Z" fill="#263238"/>
<path d="M41.6712 19.9216C42.1269 20.0714 42.3746 20.5597 42.2229 21.0109C42.0719 21.4627 41.5797 21.7072 41.1234 21.5574C40.6677 21.4077 40.4207 20.9194 40.5717 20.4682C40.7228 20.0163 41.2149 19.7718 41.6712 19.9216Z" fill="#263238"/>
<path d="M43.4367 20.2474C43.3368 20.3447 42.7768 19.8615 41.9538 19.809C41.1314 19.7443 40.5074 20.1424 40.4229 20.0323C40.3813 19.9831 40.4856 19.8039 40.7583 19.6227C41.0258 19.4423 41.4763 19.2803 41.9896 19.3168C42.5023 19.3533 42.9247 19.5779 43.164 19.7943C43.4072 20.0119 43.4847 20.2045 43.4367 20.2474Z" fill="#263238"/>
<path d="M37.2266 26.6384C37.2259 26.5744 37.743 26.513 38.5789 26.4663C38.7958 26.4605 38.9686 26.4259 38.9936 26.3126C39.0429 26.1866 38.9782 25.9523 38.8893 25.6899C38.7216 25.1338 38.552 24.5712 38.3747 23.9818C37.6694 21.5504 37.199 19.5511 37.3232 19.5159C37.448 19.4807 38.12 21.4224 38.8259 23.8538C38.991 24.4464 39.1491 25.0128 39.3053 25.5722C39.3642 25.825 39.4902 26.1251 39.3501 26.4675C39.2765 26.6391 39.0966 26.7523 38.9514 26.7779C38.8054 26.8093 38.6838 26.7997 38.5808 26.7959C37.7443 26.7581 37.2266 26.7024 37.2266 26.6384Z" fill="#263238"/>
<path d="M36.8923 36.673C36.8923 36.673 33.0945 36.673 29.2891 33.8531C29.2891 33.8531 30.7803 38.2596 36.7809 38.2071L36.8923 36.673Z" fill="#EB996E"/>
<path d="M22.3342 20.7952C22.34 20.3171 21.9714 19.9043 21.4894 19.8819C20.3752 19.8294 18.5422 20.2326 18.3112 23.2796C17.9816 27.6323 22.2318 26.6275 22.2491 26.5033C22.2626 26.406 22.3131 22.4886 22.3342 20.7952Z" fill="#FFBE9D"/>
<path d="M21.3139 24.7721C21.2953 24.7568 21.2332 24.8195 21.0995 24.8688C20.9689 24.9161 20.7494 24.9398 20.5267 24.8374C20.0755 24.6339 19.7401 23.8748 19.7785 23.0889C19.7971 22.6921 19.9097 22.3209 20.0749 22.0195C20.2329 21.711 20.4576 21.5043 20.6944 21.4806C20.9305 21.4448 21.0861 21.5958 21.1302 21.7225C21.1795 21.8486 21.1456 21.9337 21.168 21.9427C21.1795 21.9548 21.2678 21.8768 21.2461 21.6944C21.2345 21.6067 21.1904 21.4998 21.0937 21.4089C20.9945 21.3161 20.8429 21.2611 20.679 21.2662C20.3385 21.2643 20.0102 21.5504 19.8285 21.8812C19.6281 22.2128 19.4925 22.6288 19.4713 23.0748C19.4329 23.9542 19.824 24.8086 20.4448 25.0377C20.7475 25.1408 21.0125 25.0678 21.1533 24.975C21.2985 24.8764 21.3286 24.7811 21.3139 24.7721Z" fill="#EB996E"/>
<path d="M30.4047 17.9107C30.6217 18.1897 31.3788 18.0592 32.3619 18.0176C33.343 17.9389 34.111 17.976 34.2895 17.6726C34.4924 17.3565 33.5427 16.6313 32.2774 16.735C31.0095 16.7869 30.1622 17.6221 30.4047 17.9107Z" fill="#263238"/>
<path d="M39.99 17.6215C40.1084 18.0016 40.8297 18.1155 41.6297 18.1104C42.4297 18.0944 43.1478 17.9613 43.2573 17.5786C43.3699 17.2067 42.6435 16.6723 41.6125 16.6871C40.5821 16.6992 39.8684 17.2522 39.99 17.6215Z" fill="#263238"/>
<path d="M44.9558 12.7011C44.9558 12.7011 41.3692 14.4374 36.7017 12.1078C33.6387 10.5788 30.0681 9.83196 29.2816 10.4483C28.4944 11.064 28.3279 14.2204 25.2943 15.1414C25.2943 15.1414 25.503 21.1632 23.1017 20.9481C20.7011 20.7331 22.2012 11.407 22.2012 11.407L28.0745 8.53852L34.4841 7.32764L40.5232 8.17884L45.1958 9.4582L44.9558 12.7011Z" fill="#263238"/>
<path d="M4.75781 47.5452C11.0337 41.0908 22.0813 41.7948 22.0813 41.7948L31.2378 48.3503L36.4301 42.3049C36.4301 42.3049 41.8874 42.9039 47.0004 45.5759L47.3524 45.6847L47.3479 45.7577C51.3645 47.9388 57.0522 53.1701 62.4705 58.2466L55.9866 64.2639L48.8103 70.6345C48.8103 70.6345 48.8384 70.6806 48.8224 70.7618C48.7476 71.1478 49.8202 79.9106 50.9184 86.5705C44.3828 92.8073 36.0519 95.4774 26.8026 93.8569C23.8669 93.3423 22.4468 92.6268 19.728 91.9138C15.7101 90.8597 12.7981 87.3762 12.4378 83.238C11.9489 77.6559 11.5757 70.7452 11.5757 70.7452" fill="#455A64"/>
<path d="M42.171 43.4306C42.1927 43.4236 42.3322 43.7903 42.5652 44.4604C42.8001 45.1298 43.1194 46.1052 43.497 47.3161C44.2529 49.7372 45.2154 53.1094 46.1255 56.8719C47.0337 60.637 47.7159 64.0764 48.1486 66.5762C48.3655 67.8262 48.5262 68.8393 48.6228 69.5426C48.7214 70.2454 48.7642 70.6351 48.7418 70.639C48.7194 70.6428 48.6324 70.2601 48.4948 69.5644C48.3476 68.8143 48.1524 67.8217 47.9169 66.6198C47.4254 64.1346 46.7079 60.7087 45.8017 56.9506C44.8935 53.1945 43.9681 49.8191 43.2711 47.3833C42.9326 46.2063 42.6529 45.2335 42.4417 44.4988C42.2465 43.8185 42.1492 43.4377 42.171 43.4306Z" fill="#263238"/>
<path d="M48.0673 66.5045C48.0091 66.4335 50.747 64.1064 54.1812 61.3083C57.6167 58.509 60.4481 56.2984 60.5064 56.3701C60.5646 56.4411 57.8273 58.7675 54.3911 61.5669C50.9575 64.3643 48.1256 66.5755 48.0673 66.5045Z" fill="#263238"/>
<path opacity="0.2" d="M13.0437 56.4047L7.42578 74.884L9.51602 75.9714L11.5775 70.7451C11.5775 70.7451 13.6952 59.7659 13.0437 56.4047Z" fill="black"/>
<g opacity="0.2">
<path d="M41.5633 43.4421C44.5912 45.0389 37.0021 48.8802 33.5742 48.7765L36.0632 42.2089C36.0632 42.2089 40.547 42.9065 41.5633 43.4421Z" fill="black"/>
</g>
<path d="M21.1758 42.2089V37.3154C21.1758 37.3154 30.7342 39.775 31.0804 45.494C31.0804 45.494 32.2964 39.1727 37.2206 38.8694L37.9163 47.7615L32.1863 52.7478H26.3777L21.7768 48.7791L21.1758 42.6044" fill="#455A64"/>
<path d="M33.2323 72.9244C33.2092 72.9231 33.2048 72.548 33.2156 71.8716C33.2297 71.1957 33.2419 70.2172 33.2451 69.0089C33.2534 66.5922 33.1779 63.2533 32.8745 59.5797C32.5673 55.9055 32.0905 52.5992 31.6835 50.2172C31.4793 49.0703 31.3104 48.1212 31.1817 47.3986C31.0595 46.7336 31.0019 46.3631 31.0243 46.358C31.0467 46.3528 31.1465 46.7138 31.3084 47.3717C31.4729 48.029 31.6822 48.9864 31.9152 50.1749C32.3824 52.5519 32.8976 55.8645 33.2061 59.5522C33.5101 63.2386 33.5491 66.5909 33.48 69.012C33.4467 70.2229 33.398 71.2021 33.3443 71.8773C33.2937 72.5532 33.2547 72.9257 33.2323 72.9244Z" fill="#263238"/>
<path d="M30.6438 43.8479C30.64 43.8761 30.4268 43.7654 30.0768 43.9004C29.7113 44.0182 29.3849 44.4732 29.1174 45.1222C28.5305 46.3945 27.8048 48.2274 27.2992 50.4098L27.2486 50.6281L27.056 50.5116C26.4844 50.1666 25.8988 49.7935 25.3094 49.3935C24.167 48.6159 23.1225 47.8236 22.2105 47.039C21.7516 46.6447 21.3728 46.166 21.1558 45.6578C20.9408 45.149 20.8576 44.6402 20.8339 44.182C20.7968 43.261 20.9478 42.5353 21.0464 42.0418C21.1532 41.5478 21.2345 41.2802 21.2556 41.2847C21.2793 41.2892 21.2409 41.5663 21.1737 42.0642C21.1142 42.5602 21.0028 43.2854 21.0688 44.1666C21.1059 44.605 21.2 45.0812 21.408 45.5452C21.6204 46.0086 21.9648 46.4322 22.4134 46.8086C23.3171 47.5638 24.3667 48.3497 25.4969 49.1183C26.0812 49.5151 26.6611 49.887 27.2256 50.2332L26.9823 50.335C27.5097 48.1276 28.2841 46.287 28.9273 45.03C29.0854 44.7164 29.239 44.4258 29.4297 44.2063C29.6172 43.9836 29.8444 43.8479 30.0396 43.7929C30.4454 43.6796 30.6592 43.8428 30.6438 43.8479Z" fill="#263238"/>
<path d="M37.2241 38.8694C37.2471 38.8687 37.2765 39.1407 37.3137 39.6335C37.3546 40.1948 37.4058 40.8911 37.4666 41.7161C37.5383 42.5935 37.6445 43.6361 37.8244 44.7843C37.8941 45.3507 38.0938 45.9663 37.9389 46.6627C37.7412 47.3468 37.2266 47.8569 36.682 48.2684C35.9165 48.8374 35.1159 49.263 34.5789 49.8659L34.3242 50.1513L34.2993 49.7705C34.1661 47.7494 33.4916 46.086 32.8874 45.0044C32.2801 43.9145 31.7789 43.3539 31.8186 43.3219C31.8321 43.3103 31.9684 43.439 32.1956 43.6995C32.4215 43.9612 32.7306 44.3619 33.0621 44.9027C33.7258 45.9747 34.4612 47.6662 34.6186 49.7487L34.3389 49.6534C34.9239 48.9891 35.7508 48.5494 36.481 48.0028C37.0013 47.615 37.4609 47.1343 37.6228 46.5814C37.7591 46.0207 37.5901 45.4095 37.5204 44.8291C37.3559 43.6681 37.2733 42.6153 37.2311 41.7315C37.1895 40.8476 37.1818 40.1321 37.1837 39.638C37.1869 39.1433 37.201 38.87 37.2241 38.8694Z" fill="#263238"/>
<path d="M67.9869 40.0969C67.5984 40.5545 53.5273 59.3699 53.5273 59.3699L55.5081 60.4924L69.9478 41.9164L67.9869 40.0969Z" fill="#263238"/>
<path d="M11.4603 54.973C11.4603 54.973 26.2629 76.2812 27.155 76.7004C28.9118 77.5247 49.1633 60.0246 51.0942 58.3503C51.3598 57.9951 51.9096 57.2444 52.9886 55.7519C52.9886 55.7519 54.5861 48.4406 56.2917 49.0025C57.9966 49.5644 55.3573 52.7177 56.4677 55.4953C57.5781 58.2729 62.6635 51.6476 62.867 51.053L64.1784 49.3398C64.1784 49.3398 65.5537 53.2393 65.4603 54.8674C65.1621 60.0834 60.227 66.287 60.227 66.287C60.227 66.287 38.0638 93.7417 22.883 94.5935C18.5105 94.8387 10.7403 82.4322 5.54541 73.1292C2.40813 67.5113 3.97357 60.4335 9.17293 56.6422L11.4603 54.973Z" fill="#FFBE9D"/>
<path d="M62.9684 55.7936C62.9191 55.7635 63.3933 54.9251 63.9169 53.8633C64.4436 52.8022 64.8218 51.9177 64.8762 51.9382C64.9255 51.9561 64.6279 52.8809 64.0967 53.9523C63.5674 55.0243 63.0125 55.8217 62.9684 55.7936Z" fill="#EB996E"/>
<path d="M8.95553 44.5743C8.95553 44.5743 -6.93311 50.223 4.88001 76.9417L23.2218 65.8716L20.6125 59.6239L8.95553 44.5743Z" fill="#455A64"/>
<path d="M7.7374 45.0365C7.7374 45.0365 8.43051 44.9219 9.65035 45.1971C10.252 45.352 10.9752 45.6182 11.7342 46.0765C12.4939 46.5315 13.2824 47.1715 14.0491 47.9753C15.5908 49.5824 17.0302 51.8256 18.3646 54.4233C19.7086 57.0211 20.963 59.9798 22.2488 63.0889C22.6341 64.0201 23.0136 64.9379 23.3732 65.8077L23.4302 65.9453L23.2996 66.0163C17.9928 68.9091 13.372 71.6182 10.106 73.6457C8.47211 74.6576 7.17035 75.4889 6.27691 76.0669C5.85003 76.3408 5.50827 76.5603 5.24779 76.728C5.01163 76.8765 4.88492 76.9501 4.87916 76.9411C4.87276 76.9321 4.98796 76.8419 5.2126 76.6761C5.43852 76.5123 5.77133 76.2685 6.20973 75.9664C7.08333 75.3565 8.36716 74.4957 9.98828 73.4576C13.2267 71.3776 17.834 68.6307 23.1416 65.7257L23.068 65.9344C22.7076 65.0653 22.3268 64.1475 21.9409 63.2163C20.6552 60.1085 19.4129 57.1542 18.0913 54.5635C16.7787 51.9721 15.3739 49.7398 13.8776 48.1373C13.1339 47.3353 12.3704 46.6953 11.6363 46.2352C10.9028 45.7712 10.2027 45.4941 9.61709 45.3225C8.43181 45.0134 7.7342 45.0825 7.7374 45.0365Z" fill="#263238"/>
<path d="M41.9172 5.42302C41.9288 5.42046 41.955 5.51582 41.996 5.70206C42.026 5.88894 42.0651 6.16926 42.042 6.5315C42.0068 7.2419 41.7483 8.34206 40.8305 9.30206C39.9428 10.264 38.2552 10.8713 36.554 10.3817C35.7208 10.1385 34.8798 9.63102 34.3646 8.79454C34.1144 8.38046 33.9646 7.86526 34.0369 7.34942C34.1061 6.84446 34.3608 6.33246 34.8228 6.02846C35.2849 5.7155 35.8916 5.72446 36.3595 5.9299C36.8337 6.1315 37.226 6.51806 37.4097 6.98526C37.7848 7.92478 37.5083 8.93982 36.9899 9.6451C35.8872 11.1043 33.8961 11.2221 32.7934 10.5571C32.2104 10.2896 31.6964 10.0374 31.2126 9.95038C30.7307 9.85182 30.3032 9.93566 29.9896 10.079C29.3617 10.3811 29.1083 10.7152 29.0788 10.6787C29.0705 10.671 29.1345 10.5955 29.2664 10.4585C29.3316 10.3894 29.4116 10.303 29.5275 10.223C29.6376 10.1366 29.7662 10.0374 29.9345 9.96126C30.2558 9.79038 30.723 9.67774 31.2433 9.76606C31.7656 9.84158 32.307 10.0905 32.8868 10.3401C33.1787 10.4585 33.484 10.5872 33.8104 10.6454C34.1297 10.7005 34.4881 10.6941 34.8414 10.6262C35.5467 10.4995 36.2699 10.1123 36.7422 9.46206C37.2049 8.8259 37.4347 7.89982 37.1083 7.10942C36.8222 6.33694 35.7464 5.81406 35.0059 6.30558C34.6443 6.54046 34.4248 6.96478 34.3659 7.39166C34.3051 7.82174 34.426 8.25566 34.6456 8.62558C35.0961 9.36926 35.8693 9.85374 36.6411 10.0854C38.2219 10.5565 39.8097 10.0182 40.6635 9.13438C41.5518 8.24926 41.8411 7.20478 41.9134 6.51934C41.9883 5.81918 41.8801 5.4275 41.9172 5.42302Z" fill="#455A64"/>
<path d="M38.4577 29.5574C38.4647 29.5977 38.2612 29.6822 37.9092 29.6969C37.5597 29.7136 37.0644 29.6355 36.5806 29.3929C36.0974 29.1484 35.7402 28.7964 35.545 28.5059C35.3479 28.214 35.2942 28.0003 35.3313 27.9824C35.4151 27.9318 35.8414 28.6608 36.7303 29.0953C37.609 29.551 38.4487 29.4595 38.4577 29.5574Z" fill="#263238"/>
<path d="M21.6734 26.728C21.7028 26.7004 21.8827 27.0096 21.6504 27.4499C21.5371 27.656 21.3227 27.8787 20.9975 27.9676C20.6711 28.0592 20.2827 27.9516 20.0043 27.7072C19.7233 27.4646 19.5672 27.1036 19.5832 26.7779C19.5934 26.4534 19.7297 26.1904 19.875 26.0118C20.1822 25.6502 20.4952 25.6169 20.5003 25.6528C20.524 25.7008 20.2744 25.814 20.0664 26.1494C19.8513 26.4662 19.7675 27.0768 20.2232 27.4556C20.4331 27.638 20.7038 27.7174 20.9278 27.6688C21.155 27.6233 21.34 27.4736 21.4513 27.3244C21.6836 27.0128 21.6209 26.735 21.6734 26.728Z" fill="#263238"/>
<path d="M42.9728 7.57914C43.0028 7.56378 43.239 7.98874 43.2806 8.75482C43.3286 9.5049 43.1104 10.6204 42.3309 11.5247C41.5456 12.4252 40.4723 12.7983 39.7228 12.8572C38.9587 12.9244 38.5049 12.751 38.5158 12.719C38.5235 12.662 38.9811 12.7465 39.6915 12.6236C40.3923 12.5097 41.3638 12.127 42.0787 11.3059C42.7891 10.4815 43.031 9.46586 43.0444 8.7561C43.0656 8.03546 42.9177 7.5945 42.9728 7.57914Z" fill="#455A64"/>
<path d="M21.3262 61.1274C21.3672 61.21 17.147 63.3796 11.9015 65.9735C6.65419 68.5681 2.36874 70.6039 2.32842 70.5213C2.28746 70.4388 6.50698 68.2692 11.7543 65.6746C16.9991 63.0807 21.2852 61.0449 21.3262 61.1274Z" fill="#E0E0E0"/>
<path d="M17.4809 53.8685C17.5245 53.9498 13.7677 56.0502 9.09118 58.5603C4.41342 61.071 0.586863 63.0397 0.543343 62.959C0.499823 62.8778 4.25533 60.7773 8.93373 58.2666C13.6102 55.7571 17.4374 53.7878 17.4809 53.8685Z" fill="#E0E0E0"/>
<path d="M13.7664 47.999C13.7882 48.0412 13.0644 48.4559 11.8874 49.1107C10.6292 49.8127 9.04514 50.6966 7.29282 51.6738C5.54946 52.6678 3.97316 53.567 2.72132 54.2806C1.55204 54.9487 0.822429 55.3539 0.797469 55.3135C0.773789 55.2751 1.45987 54.7996 2.59971 54.0783C3.73956 53.357 5.33571 52.3951 7.12835 51.3833C8.92099 50.3727 10.5703 49.5043 11.7767 48.902C12.9837 48.2998 13.746 47.9593 13.7664 47.999Z" fill="#E0E0E0"/>
<path d="M27.8195 46.6108C27.8112 46.6492 27.3184 46.5846 26.5837 46.278C25.8483 45.9779 24.8973 45.4 23.9955 44.5936C23.0931 43.7872 22.3942 42.9481 21.9085 42.3331C21.4246 41.7148 21.152 41.3136 21.1865 41.2848C21.223 41.2547 21.5609 41.6041 22.0883 42.1808C22.6182 42.7542 23.3369 43.558 24.2176 44.3446C25.0976 45.1312 25.9936 45.718 26.6835 46.0643C27.3709 46.4163 27.8342 46.5603 27.8195 46.6108Z" fill="#E0E0E0"/>
<path d="M37.1581 43.1446C37.2394 43.1683 36.8515 44.2096 35.8288 45.0627C34.8138 45.9254 33.7213 46.1296 33.7117 46.0458C33.6797 45.9504 34.664 45.6182 35.6138 44.8074C36.5744 44.0106 37.0691 43.0966 37.1581 43.1446Z" fill="#E0E0E0"/>
<path d="M53.7978 52.776C53.7991 52.7875 53.6762 52.8099 53.4413 52.8425C53.1693 52.8758 52.8288 52.9181 52.4122 52.9693C51.5168 53.0685 50.2196 53.1933 48.6144 53.3181C45.4042 53.5741 40.9626 53.8249 36.0538 54.0035C31.1431 54.175 26.6944 54.2416 23.4739 54.2153C21.8637 54.2051 20.5613 54.1731 19.6615 54.1385C19.2423 54.1168 18.8992 54.0995 18.626 54.0854C18.3892 54.0694 18.265 54.056 18.2656 54.0445C18.2663 54.0329 18.3904 54.0246 18.6279 54.0182C18.9018 54.0157 19.2442 54.0125 19.664 54.0086C20.6099 54.0016 21.9002 53.9913 23.4739 53.9798C26.6906 53.9459 31.1347 53.8422 36.0423 53.6707C40.9479 53.4921 45.3876 53.2784 48.5984 53.0832C50.169 52.9827 51.4567 52.9008 52.4007 52.8406C52.8199 52.8144 53.1616 52.7933 53.4349 52.776C53.6711 52.7645 53.7965 52.7645 53.7978 52.776Z" fill="#E0E0E0"/>
<path d="M48.7437 60.3645C48.7463 60.3876 48.3719 60.4452 47.6922 60.5303C47.0125 60.6148 46.0276 60.7216 44.8084 60.8304C42.3706 61.0551 38.9953 61.2874 35.2634 61.4391C31.5297 61.5888 28.1466 61.6298 25.6986 61.6023C24.4743 61.5914 23.4842 61.5651 22.8001 61.5351C22.1159 61.505 21.7383 61.4775 21.7383 61.4544C21.7389 61.4314 22.1172 61.4154 22.8013 61.4051C23.5424 61.3949 24.5184 61.3821 25.6973 61.3661C28.1428 61.3328 31.5201 61.2547 35.2493 61.1056C38.9773 60.9539 42.3495 60.7594 44.7892 60.5949C45.9661 60.5156 46.9396 60.4503 47.6794 60.4004C48.3623 60.3562 48.7412 60.3421 48.7437 60.3645Z" fill="#E0E0E0"/>
<path d="M37.2726 69.7258C37.2764 69.7706 36.4668 69.8896 35.1516 70.0247C33.8364 70.1604 32.015 70.3056 30.0003 70.4068C27.9843 70.5066 26.1577 70.5424 24.8355 70.5386C23.5132 70.5348 22.6953 70.4964 22.6953 70.4516C22.6947 70.4042 23.5113 70.3594 24.831 70.3031C26.2454 70.2404 28.0208 70.1616 29.9843 70.0746C31.9465 69.9664 33.7206 69.8685 35.1337 69.7904C36.4508 69.7149 37.2681 69.6784 37.2726 69.7258Z" fill="#E0E0E0"/>
<path d="M22.6066 47.5132C22.604 47.6086 20.6412 47.6297 18.2252 47.7308C15.8079 47.8281 13.8501 47.9683 13.8399 47.8729C13.8296 47.7852 15.7816 47.4953 18.2117 47.3974C20.6405 47.2963 22.6098 47.4249 22.6066 47.5132Z" fill="#E0E0E0"/>
<path d="M49.6078 47.1676C49.6072 47.2598 47.0612 47.3244 43.9208 47.3129C40.7796 47.3008 38.2344 47.2169 38.2344 47.1248C38.235 47.0326 40.7809 46.968 43.9221 46.9795C47.0625 46.991 49.6078 47.0755 49.6078 47.1676Z" fill="#E0E0E0"/>
<path d="M50.5876 86.1117C50.5972 86.1328 50.3892 86.2506 50.0045 86.4464C49.6212 86.6455 49.0522 86.9059 48.3399 87.2048C46.9159 87.8039 44.8922 88.5111 42.5908 89.0429C40.2881 89.5715 38.1588 89.8218 36.6164 89.9069C35.8452 89.9504 35.2199 89.9645 34.7879 89.9536C34.3559 89.9459 34.1172 89.9306 34.1172 89.9075C34.1165 89.8544 35.0689 89.8173 36.5985 89.6714C38.1274 89.5267 40.233 89.2419 42.5165 88.7178C44.7981 88.1898 46.8154 87.5242 48.2535 86.9847C49.6922 86.4471 50.5645 86.0631 50.5876 86.1117Z" fill="#E0E0E0"/>
</svg>
