<svg width="68" height="94" viewBox="0 0 68 94" fill="none" xmlns="http://www.w3.org/2000/svg">
<path d="M39.7056 93.2214C55.007 93.2214 67.4112 81.3886 67.4112 66.792C67.4112 52.1954 55.007 40.3625 39.7056 40.3625C24.4042 40.3625 12 52.1954 12 66.792C12 81.3886 24.4042 93.2214 39.7056 93.2214Z" fill="#E0E0E0"/>
<path d="M34.0633 3.06848C29.6677 3.2976 27.9423 7.87936 27.4169 8.90208C26.8914 9.9248 26.8089 11.1094 26.7129 12.255C26.6162 13.4006 26.4805 14.5904 25.8693 15.5651C24.9017 17.1088 22.8697 17.9069 22.3154 19.6432C21.6889 21.6061 23.2965 23.7059 22.8684 25.7213C22.6386 26.8029 21.8489 27.6931 21.5692 28.7639C21.278 29.8813 21.5813 31.089 22.1625 32.0867C23.6063 34.5661 26.5983 35.8115 29.4661 35.9139C32.3333 36.0163 35.1385 35.1587 37.8789 34.3101" fill="#263238"/>
<path d="M53.4031 8.76318C52.973 9.69374 53.3794 10.8233 54.054 11.5952C54.7286 12.367 55.6348 12.8912 56.4329 13.5337C57.231 14.1763 57.9644 15.0243 58.0572 16.0451C58.1423 16.9821 57.6713 17.912 57.7993 18.8445C58.1276 21.2406 61.9484 21.9593 62.1519 24.3689C62.2876 25.9734 60.6409 27.4473 61.0972 28.9917C61.2719 29.5837 61.7302 30.0419 62.0489 30.5705C63.133 32.3709 62.3977 34.8547 60.8265 36.2505C59.2553 37.6464 57.071 38.1385 54.9718 38.2326C53.206 38.312 51.2002 38.0233 50.1609 36.5942C49.2092 35.2867 49.4044 33.503 49.5945 31.8973C50.4822 24.3977 50.3311 16.8182 50.1788 9.26814" fill="#263238"/>
<path d="M35.2166 43.4711C35.2499 39.5306 35.2134 35.3821 35.2134 35.3821C35.2134 35.3821 30.1471 34.4803 29.1724 27.8461C28.2425 21.5191 29.8195 7.91009 29.8195 7.91009C37.159 5.01537 45.4233 6.13538 50.5651 12.0426L49.7651 44.04C49.6723 47.7546 46.4044 50.6333 42.4281 50.5034C38.4115 50.3722 35.1846 47.2253 35.2166 43.4711Z" fill="#FFBE9D"/>
<path d="M31.2001 18.3594C31.179 18.808 31.5412 19.1953 32.0091 19.226C32.4763 19.2567 32.8724 18.9188 32.8935 18.4701C32.9147 18.0221 32.5524 17.6337 32.0852 17.6029C31.6174 17.5729 31.2212 17.9114 31.2001 18.3594Z" fill="#263238"/>
<path d="M29.8334 17.7027C29.937 17.8147 30.5866 17.3463 31.5006 17.3591C33.2202 17.608 33.1889 17.8711 33.1793 17.7258C33.2286 17.6765 33.1236 17.4755 32.8337 17.2599C32.5489 17.0448 32.0606 16.833 31.4916 16.8291C30.922 16.8259 30.4407 17.0295 30.1636 17.2413C29.8794 17.4531 29.7822 17.6528 29.8334 17.7027Z" fill="#263238"/>
<path d="M40.5517 18.6295C40.5305 19.0782 40.8928 19.4653 41.3606 19.4961C41.8278 19.5268 42.224 19.1889 42.2451 18.7402C42.2662 18.2922 41.904 17.9037 41.4368 17.873C40.9696 17.8423 40.5728 18.1809 40.5517 18.6295Z" fill="#263238"/>
<path d="M39.3643 18.0183C39.4686 18.1303 40.1182 17.6618 41.0315 17.6746C41.9448 17.6746 42.6097 18.1527 42.7102 18.0413C42.7595 17.9921 42.6552 17.7911 42.3646 17.5754C42.0798 17.3604 41.5915 17.1485 41.0225 17.1447C40.4529 17.1415 39.9717 17.345 39.6939 17.5568C39.4117 17.7693 39.3137 17.9684 39.3643 18.0183Z" fill="#263238"/>
<path d="M35.969 24.5744C35.9741 24.5226 35.4071 24.4176 34.4874 24.2896C34.2544 24.2627 34.0343 24.2141 33.9965 24.0541C33.9434 23.8851 34.0439 23.6342 34.1604 23.3641C34.3863 22.8016 34.6231 22.2128 34.8714 21.5952C35.8589 19.0761 36.577 17.0038 36.4752 16.9648C36.3735 16.9258 35.4903 18.936 34.5027 21.455C34.2647 22.0765 34.0375 22.6685 33.8212 23.2349C33.7296 23.4992 33.5741 23.7981 33.6893 24.1494C33.7501 24.3248 33.9197 24.4534 34.0688 24.495C34.218 24.5424 34.3491 24.5462 34.4643 24.5545C35.3904 24.6153 35.9651 24.6262 35.969 24.5744Z" fill="#263238"/>
<path d="M35.2148 35.382C35.2148 35.382 39.6667 35.7206 44.1108 33.119C44.1108 33.119 41.9067 37.6432 35.2859 36.9469L35.2148 35.382Z" fill="#EB996E"/>
<path d="M36.3319 26.7818C36.6654 26.351 37.2439 26.1194 37.8154 26.1872C38.2116 26.2346 38.6103 26.4304 38.8471 26.7562C39.0846 27.0819 39.1294 27.5408 38.9073 27.8461C38.6564 28.1898 38.1406 28.264 37.7054 28.1354C37.2708 28.0061 36.8983 27.7149 36.545 27.4243C36.4471 27.3443 36.3473 27.2605 36.2871 27.151C36.227 27.0416 36.2154 26.8995 36.2922 26.8106" fill="#EB996E"/>
<path d="M38.6517 25.2381C38.5032 25.2279 38.4898 26.2199 37.6328 26.9143C36.7772 27.6112 35.7205 27.4871 35.7116 27.6259C35.6968 27.688 35.9445 27.8211 36.3912 27.8384C36.829 27.8583 37.4696 27.7252 37.9944 27.3008C38.5173 26.8752 38.7471 26.3018 38.7855 25.8948C38.8271 25.48 38.7196 25.233 38.6517 25.2381Z" fill="#263238"/>
<path d="M47.6879 7.31616C45.2649 10.7722 38.8495 14.3254 34.2556 15.1504C34.7919 14.4445 37.6137 12.705 38.15 11.9984C36.0674 13.5536 33.0876 15.6336 30.3247 15.7744C29.9983 15.791 29.6444 15.7904 29.375 15.6266C29.0089 15.4032 28.934 14.9699 28.8918 14.5859C28.7132 12.9667 28.8252 10.191 29.0831 8.58463C29.3404 6.97823 30.079 5.37952 31.4729 4.3024C33.2431 2.93536 35.7762 2.59743 38.1628 2.54047C40.1647 2.49247 42.2281 2.61087 44.0578 3.33343C45.8876 4.05599 47.4524 5.48319 47.7205 7.19967" fill="#263238"/>
<path d="M54.6335 22.7984C54.9669 21.0845 55.2332 19.4576 55.2953 18.3715C55.4905 14.9539 54.5036 2.34014 42.7205 3.35518L42.245 6.94366C42.245 6.94366 40.4242 19.2278 48.046 19.3187C48.046 19.3187 48.4671 22.9782 51.9186 26.5385C51.9186 26.5385 53.9173 26.4784 54.6335 22.7984Z" fill="#263238"/>
<path d="M48.0464 19.3187C48.7562 19.19 49.5043 19.2182 50.1763 19.4799C50.8483 19.7417 51.4365 20.2505 51.72 20.9135C52.0048 21.5785 51.9664 22.3535 51.7136 23.0307C51.4608 23.7084 51.0071 24.2959 50.4867 24.7977C50.113 25.158 49.6887 25.4863 49.1914 25.6361C48.6941 25.7859 48.1117 25.7302 47.7188 25.3903" fill="#FFBE9D"/>
<path d="M48.3879 23.6163C48.3067 23.6419 48.6094 24.074 49.259 23.9069C49.5713 23.8282 49.8792 23.5581 50.0673 23.2176C50.2568 22.872 50.3816 22.4919 50.4334 22.0464C50.4833 21.6048 50.388 21.1338 50.1486 20.7965C49.9201 20.4528 49.5432 20.2468 49.2244 20.2365C48.5588 20.2141 48.347 20.673 48.4225 20.6871C48.475 20.7415 48.7361 20.5066 49.1713 20.6167C49.588 20.6979 49.9918 21.2784 49.8932 21.9927C49.8056 22.7203 49.5182 23.384 49.1284 23.5459C48.722 23.7469 48.4327 23.5581 48.3879 23.6163Z" fill="#EB996E"/>
<path d="M49.3332 6.02084C50.235 6.5354 51.3403 6.68068 52.3438 6.41636C53.3479 6.15268 54.2388 5.4826 54.7707 4.59172C55.1143 4.01636 55.3115 3.31876 55.1431 2.67044C54.9127 1.78404 54.0507 1.185 53.1643 0.954598C51.8779 0.619878 50.4206 0.940517 49.4491 1.84676C48.4769 2.753 48.0583 4.23588 48.4897 5.49284C48.9211 6.7498 50.219 7.6778 51.5457 7.60164" fill="#263238"/>
<path d="M50.4104 25.1248C49.7544 25.5977 49.0914 26.0783 48.5788 26.7043C48.0661 27.3302 47.7141 28.1276 47.7884 28.9327C47.83 29.3833 48.0021 29.8281 47.9368 30.2761C47.8472 30.8918 47.3416 31.3475 47.0082 31.8729C46.1461 33.231 46.5167 35.1375 47.6066 36.3203C48.6965 37.5036 50.3522 38.0374 51.9605 38.0899C52.893 38.1206 53.8722 37.9894 54.6364 37.4543C55.7384 36.6831 56.1621 35.2374 56.1903 33.8921" fill="#263238"/>
<path d="M51.2091 8.66402C51.2437 8.6845 51.0101 9.16578 50.5147 9.8717C50.0213 10.5776 49.245 11.4941 48.2453 12.3555C47.2431 13.2151 46.2197 13.8448 45.4479 14.2263C44.6754 14.6096 44.1647 14.7683 44.1493 14.7312C44.1013 14.6346 46.0687 13.8032 48.0277 12.1027C50.0027 10.4227 51.1208 8.60194 51.2091 8.66402Z" fill="#455A64"/>
<path d="M52.4324 8.59929C52.4689 8.60313 52.4452 9.23034 52.2154 10.214C51.9882 11.1964 51.514 12.5276 50.7184 13.855C49.9184 15.1804 48.9642 16.223 48.2026 16.8834C47.4404 17.5478 46.8983 17.862 46.8772 17.8319C46.7984 17.7494 48.8784 16.3036 50.433 13.6828C52.0189 11.0838 52.3223 8.56793 52.4324 8.59929Z" fill="#455A64"/>
<path d="M26.8484 13.9331C26.9463 13.9261 27.0724 15.0352 27.4551 16.344C27.8288 17.656 28.3133 18.6615 28.2263 18.7075C28.1533 18.753 27.5216 17.7898 27.1344 16.4362C26.7408 15.0851 26.7626 13.9338 26.8484 13.9331Z" fill="#455A64"/>
<path d="M55.0751 36.5757C55.0924 36.5353 55.3721 36.8745 56.0498 36.8886C56.3782 36.8918 56.7922 36.7971 57.1775 36.5334C57.5615 36.2742 57.8764 35.8089 58.0313 35.24C58.1862 34.6678 58.1894 34.0016 58.0434 33.311C57.9052 32.6166 57.6358 31.8979 57.3983 31.1145C57.1673 30.3344 56.9657 29.4569 57.1142 28.5353C57.2614 27.5971 57.8694 26.8368 58.1657 25.9945C58.4678 25.1536 58.3462 24.2224 57.9762 23.4691C57.5974 22.7056 56.9606 22.1507 56.222 21.8659C55.8553 21.7091 55.4764 21.5773 55.1238 21.3853C54.7737 21.1971 54.4466 20.9353 54.2476 20.6C53.8374 19.9254 53.8534 19.1926 53.8514 18.5865C53.863 17.9664 53.8962 17.4237 53.7855 16.959C53.6863 16.4944 53.5129 16.1142 53.3055 15.8569C52.8754 15.3296 52.4204 15.3667 52.4422 15.3232C52.4415 15.3174 52.5407 15.3021 52.7212 15.3443C52.901 15.3833 53.1647 15.5062 53.4041 15.7725C53.6434 16.0368 53.845 16.4323 53.9673 16.9168C54.1017 17.4038 54.0838 17.9824 54.087 18.5859C54.0998 19.1856 54.1138 19.8793 54.4806 20.4502C54.839 21.0377 55.5839 21.2816 56.341 21.5811C57.1218 21.8691 57.861 22.4931 58.2681 23.3213C58.6764 24.1411 58.8153 25.1664 58.4799 26.1027C58.1471 27.0205 57.5628 27.752 57.4354 28.5878C57.2946 29.4217 57.4732 30.2595 57.6927 31.0256C57.9167 31.7961 58.1817 32.5302 58.3142 33.256C58.4543 33.9785 58.4396 34.6921 58.2572 35.3027C58.0748 35.9126 57.717 36.4131 57.2799 36.6857C56.8473 36.959 56.3974 37.039 56.0447 37.0153C55.6876 36.9949 55.4297 36.8681 55.2786 36.7645C55.1257 36.6627 55.0751 36.5757 55.0751 36.5757Z" fill="#455A64"/>
<path d="M50.4564 36.1257C50.4858 36.1071 50.5402 36.3311 50.8506 36.4719C51.1297 36.607 51.7524 36.6159 52.0922 36.1353C52.4385 35.6514 52.3847 34.8367 51.9885 34.1321C51.6237 33.4083 50.8986 32.7004 50.7137 31.6431C50.6158 31.1324 50.738 30.5507 51.0702 30.1667C51.3825 29.7807 51.7511 29.5228 51.9905 29.2073C52.473 28.5692 52.514 27.7699 52.4359 27.1638C52.354 26.5423 52.1761 26.0521 52.0692 25.7116C51.9566 25.3711 51.8996 25.1791 51.9214 25.1708C51.9418 25.1625 52.0398 25.3366 52.1902 25.6649C52.3348 25.9945 52.5511 26.4783 52.6689 27.1292C52.7783 27.766 52.7783 28.6371 52.235 29.3929C51.963 29.7596 51.5905 30.0297 51.3262 30.3689C51.0529 30.6979 50.9633 31.1369 51.042 31.5894C51.1924 32.5091 51.8734 33.2073 52.2606 33.9907C52.6746 34.7619 52.7297 35.7001 52.2823 36.2742C52.066 36.5686 51.7377 36.6908 51.4702 36.7183C51.1962 36.7452 50.9569 36.687 50.7905 36.5871C50.4487 36.3785 50.4442 36.1161 50.4564 36.1257Z" fill="#455A64"/>
<path d="M25.3685 34.4534C25.3519 34.4675 25.1631 34.287 24.8475 33.9331C24.5416 33.5753 24.0757 33.0505 23.7307 32.2505C23.5605 31.8512 23.4491 31.3724 23.4619 30.8534C23.4735 30.3395 23.6264 29.7615 24.0258 29.3027C24.4226 28.8425 24.9979 28.6051 25.3448 28.1737C25.7032 27.7475 25.7487 27.1215 25.6098 26.527C25.4715 25.9209 25.1925 25.3775 24.9077 24.8355C24.6319 24.2915 24.3784 23.7385 24.2856 23.1561C24.1832 22.5782 24.3112 21.9708 24.6152 21.5401C24.9103 21.1036 25.2802 20.8054 25.5906 20.5238C26.2363 19.9932 26.6018 19.4147 26.6831 18.9648C26.7727 18.5148 26.6184 18.2684 26.6555 18.2595C26.6632 18.2556 26.7061 18.3087 26.7522 18.4284C26.7995 18.5468 26.8411 18.7401 26.8111 18.9852C26.7682 19.4793 26.3893 20.1353 25.7499 20.6979C25.4479 20.991 25.0991 21.2956 24.8469 21.6918C24.5883 22.0828 24.4923 22.5865 24.5883 23.1075C24.6792 23.6297 24.9224 24.1545 25.1983 24.6876C25.4805 25.215 25.7871 25.8 25.9349 26.4547C26.0891 27.0953 26.0443 27.8575 25.5983 28.3811C25.1631 28.8924 24.5909 29.1139 24.2562 29.5068C23.9099 29.8902 23.7602 30.3951 23.7378 30.8649C23.7147 31.3385 23.8031 31.7833 23.949 32.1635C24.2459 32.9308 24.6741 33.4729 24.9474 33.8511C25.2309 34.2275 25.3871 34.438 25.3685 34.4534Z" fill="#455A64"/>
<path d="M52.0577 6.85731C51.9674 6.90339 51.522 5.92291 50.4974 5.16259C49.4862 4.38307 48.4218 4.2218 48.4417 4.12196C48.4282 4.03684 49.6007 4.05603 50.6983 4.89635C51.8062 5.72451 52.1434 6.84707 52.0577 6.85731Z" fill="#FF6477"/>
<path d="M52.9819 0.729262C53.0152 0.708142 53.2296 0.958388 53.403 1.45567C53.5771 1.94527 53.6763 2.69982 53.4594 3.48638C53.2418 4.27294 52.7688 4.86943 52.3682 5.20031C51.965 5.53759 51.652 5.64255 51.6347 5.60735C51.6078 5.56255 51.8696 5.38783 52.2062 5.02943C52.5422 4.67551 52.941 4.11038 53.1381 3.39806C53.3346 2.6851 53.2827 1.99582 53.1758 1.51966C53.0709 1.03902 52.9358 0.754222 52.9819 0.729262Z" fill="#455A64"/>
<path opacity="0.3" d="M20.4805 79.4595C20.4805 79.4595 36.3813 94.559 45.8334 91.8249C55.2856 89.0908 58.083 82.0003 58.083 82.0003L58.3121 79.4601L57.365 78.8406L20.9746 75.894L20.4805 79.4595Z" fill="black"/>
<path d="M11.0742 65.3156L14.1405 57.4519L25.1312 64.3569L15.3379 79.459C15.3379 79.459 11.3545 74.2852 11.0742 65.3156Z" fill="#EB996E"/>
<path d="M23.4772 43.5895C28.5908 40.9182 35.2136 40.1482 35.2136 40.1482C37.1361 43.9959 43.1937 44.4842 46.8616 41.8583L49.9547 39.7674C49.9547 39.7674 50.4334 39.7482 51.2507 39.8206C58.4859 40.4606 64.4078 45.8641 65.883 52.9758C66.42 55.5646 66.8148 58.5361 66.6561 61.2906C66.2542 68.282 59.0132 68.9143 59.0132 68.9143C59.0132 68.9143 58.6408 75.825 58.1518 81.4071V81.4078C57.7883 85.5786 55.6244 88.6942 51.819 90.4394C48.987 91.7386 47.4241 92.3396 43.7467 92.9278C34.4737 94.4106 25.5668 90.8906 19.6936 84.5994C20.7918 77.9396 21.8414 69.3175 21.7665 68.9316C21.7505 68.8503 21.7787 68.8042 21.7787 68.8042L14.6024 62.4337L10.5352 59.018C10.5352 59.018 19.4606 45.7706 23.4772 43.5895Z" fill="#FF6477"/>
<path d="M32.3703 47.8979C32.3434 47.9638 31.7578 47.4064 30.5962 47.407C30.0343 47.4089 29.338 47.5715 28.7665 48.0419C28.4817 48.271 28.2391 48.5942 27.9518 48.9168C27.6708 49.2323 27.3066 49.5926 26.7902 49.6874C26.2737 49.7846 25.7956 49.5568 25.4385 49.3251C25.0698 49.0896 24.7543 48.831 24.4305 48.6454C23.7975 48.2576 23.0775 48.2941 22.5527 48.4816C22.0183 48.6691 21.6638 48.9897 21.4615 49.2342C21.2599 49.4832 21.187 49.6528 21.1594 49.6413C21.1447 49.6368 21.1761 49.4474 21.3566 49.1581C21.5377 48.8746 21.8942 48.497 22.4689 48.2614C23.0244 48.0259 23.8526 47.953 24.5809 48.3779C24.938 48.5738 25.2618 48.8323 25.6106 49.0486C25.955 49.2662 26.3422 49.4339 26.73 49.3597C27.1178 49.2918 27.4327 49.0038 27.7079 48.6985C27.9876 48.3933 28.2436 48.0585 28.5732 47.8025C29.2279 47.2893 29.9953 47.144 30.5988 47.1722C31.2113 47.2003 31.683 47.3885 31.9697 47.5632C32.2596 47.7411 32.3806 47.8864 32.3703 47.8979Z" fill="#FAFAFA"/>
<path d="M39.6612 57.4525C39.6145 57.5063 39.2381 56.7908 38.1367 56.4209C37.6036 56.2429 36.8919 56.1745 36.2 56.4375C35.857 56.5636 35.5242 56.7927 35.1485 57.0065C34.7812 57.2157 34.321 57.4404 33.802 57.3655C33.2816 57.2925 32.9015 56.9239 32.6365 56.5904C32.3626 56.2493 32.1463 55.9037 31.8992 55.6241C31.4237 55.0545 30.7293 54.8593 30.1725 54.8689C29.6061 54.8759 29.1677 55.066 28.8983 55.2337C28.6282 55.4052 28.504 55.5428 28.4816 55.5229C28.4688 55.514 28.5591 55.345 28.8234 55.1281C29.0858 54.9175 29.5447 54.673 30.1636 54.634C30.7652 54.5879 31.5728 54.7837 32.1277 55.4193C32.4036 55.7188 32.6282 56.0676 32.8893 56.3837C33.1466 56.6999 33.4589 56.9828 33.8512 57.0359C34.2404 57.0954 34.6308 56.9233 34.9892 56.7217C35.3514 56.5213 35.7008 56.2858 36.0951 56.1489C36.8797 55.8717 37.6528 55.9786 38.216 56.1981C38.7876 56.4202 39.1748 56.7498 39.3904 57.0071C39.6061 57.2682 39.6753 57.4442 39.6612 57.4525Z" fill="#FAFAFA"/>
<path d="M55.8582 43.4621C55.8454 43.5319 55.1555 43.1114 54.0201 43.3578C53.4716 43.4788 52.8252 43.7847 52.3663 44.3658C52.1366 44.65 51.9683 45.0173 51.7551 45.3937C51.5471 45.7617 51.2675 46.1905 50.783 46.3927C50.2985 46.5969 49.7833 46.4753 49.3852 46.3249C48.975 46.1732 48.6121 45.9869 48.2563 45.8737C47.5561 45.6285 46.8598 45.8167 46.3868 46.1111C45.9043 46.4074 45.6252 46.7959 45.4799 47.0775C45.3359 47.3636 45.3001 47.5447 45.2707 47.539C45.2553 47.5377 45.2463 47.3463 45.3609 47.025C45.478 46.7095 45.7468 46.2647 46.2582 45.9134C46.751 45.5652 47.5452 45.3194 48.3471 45.5799C48.7375 45.6958 49.1094 45.8794 49.4959 46.017C49.8787 46.1565 50.2921 46.2391 50.6556 46.0836C51.0198 45.9351 51.2668 45.5869 51.4716 45.2305C51.6803 44.8727 51.8595 44.4913 52.1276 44.1713C52.6588 43.5313 53.3782 43.226 53.974 43.1261C54.5788 43.0237 55.0793 43.1076 55.3967 43.2183C55.7167 43.3316 55.8659 43.4481 55.8582 43.4621Z" fill="#FAFAFA"/>
<path d="M48.384 53.9627C48.3366 54.0068 48.064 53.4519 47.2346 53.139C46.8333 52.9886 46.2937 52.9156 45.7619 53.0929C45.4989 53.1774 45.2365 53.3412 44.9376 53.4948C44.6464 53.6439 44.2758 53.8071 43.863 53.7284C43.4496 53.651 43.1629 53.3438 42.9689 53.0756C42.768 52.8004 42.615 52.5265 42.4371 52.3051C42.0992 51.8571 41.584 51.6836 41.159 51.6676C40.2726 51.6414 39.863 52.1431 39.8336 52.0855C39.8201 52.0747 39.8925 51.9435 40.1024 51.7803C40.311 51.6222 40.6758 51.4436 41.161 51.4315C41.6314 51.4129 42.2605 51.5927 42.6746 52.1099C42.8794 52.3531 43.0419 52.6295 43.2307 52.8798C43.4169 53.13 43.6409 53.3489 43.9264 53.4007C44.5145 53.5038 45.0547 52.9745 45.6691 52.7991C46.2937 52.6116 46.8934 52.7255 47.3229 52.9195C48.2131 53.3303 48.4173 53.9697 48.384 53.9627Z" fill="#FAFAFA"/>
<path d="M31.8996 62.808C31.8529 62.8522 31.5796 62.2973 30.7502 61.9843C30.3489 61.8339 29.8094 61.761 29.2775 61.9382C29.0151 62.0227 28.7521 62.1866 28.4532 62.3402C28.162 62.4893 27.7915 62.6525 27.3787 62.5738C26.9652 62.4963 26.6785 62.1891 26.4846 61.921C26.2836 61.6458 26.1307 61.3725 25.9527 61.1504C25.6148 60.7024 25.099 60.529 24.6747 60.513C23.7883 60.4867 23.3787 60.9885 23.3492 60.9309C23.3358 60.92 23.4081 60.7888 23.618 60.6256C23.8267 60.4675 24.1915 60.289 24.6766 60.2768C25.147 60.2582 25.7761 60.4381 26.1902 60.9552C26.395 61.1984 26.5575 61.4749 26.7463 61.7251C26.9326 61.9754 27.1566 62.1942 27.442 62.2461C28.0308 62.3491 28.5703 61.8198 29.1847 61.6445C29.8094 61.457 30.409 61.5709 30.8385 61.7648C31.7287 62.1757 31.9335 62.8151 31.8996 62.808Z" fill="#FAFAFA"/>
<path d="M47.3092 63.0071C47.2791 63.064 46.8407 62.6276 45.9556 62.6001C45.5275 62.5873 44.9931 62.6935 44.5476 63.0333C44.3262 63.1978 44.1303 63.4385 43.898 63.6804C43.6708 63.9159 43.3726 64.1898 42.9572 64.2493C42.5412 64.3095 42.17 64.1117 41.8999 63.921C41.6209 63.7258 41.3873 63.5165 41.1473 63.3642C40.6827 63.05 40.1387 63.0519 39.7323 63.1748C38.8849 63.4365 38.6596 64.0439 38.6135 63.9991C38.5975 63.9933 38.6231 63.8461 38.7691 63.6234C38.9156 63.4058 39.203 63.1197 39.658 62.9508C40.0977 62.7812 40.7505 62.7479 41.3099 63.1031C41.5825 63.2663 41.8257 63.4756 42.0855 63.6516C42.3428 63.8282 42.6257 63.9633 42.9124 63.9197C43.5025 63.8269 43.8423 63.1511 44.3665 62.7863C44.8971 62.4068 45.5012 62.321 45.9703 62.3652C46.9425 62.4644 47.3431 63.0032 47.3092 63.0071Z" fill="#FAFAFA"/>
<path d="M42.2194 70.0362C42.1893 70.0931 41.7509 69.6567 40.8658 69.6291C40.4376 69.6163 39.9032 69.7219 39.4578 70.0624C39.2363 70.2269 39.0405 70.4675 38.8082 70.7095C38.581 70.945 38.2827 71.2189 37.8674 71.2784C37.4514 71.3386 37.0802 71.1408 36.8101 70.9501C36.5311 70.7549 36.2975 70.5456 36.0575 70.3933C35.5928 70.0791 35.0488 70.081 34.6424 70.2039C33.7951 70.4656 33.5698 71.0736 33.5237 71.0282C33.5077 71.0224 33.5333 70.8752 33.6792 70.6525C33.8258 70.4349 34.1131 70.1488 34.5682 69.9799C35.0079 69.8103 35.6607 69.777 36.22 70.1322C36.4927 70.2954 36.7359 70.5047 36.9957 70.6807C37.253 70.8573 37.5359 70.9917 37.8226 70.9482C38.4127 70.8554 38.7525 70.1795 39.2767 69.8147C39.8072 69.4352 40.4114 69.3495 40.8805 69.3936C41.8527 69.4935 42.2533 70.0317 42.2194 70.0362Z" fill="#FAFAFA"/>
<path d="M31.4688 87.4826C31.4221 87.5274 31.1412 86.9764 30.3079 86.6756C29.9047 86.5309 29.3639 86.4657 28.8346 86.6506C28.5729 86.7383 28.3124 86.9066 28.0161 87.064C27.7268 87.2176 27.3588 87.386 26.9447 87.313C26.53 87.2413 26.2388 86.938 26.0417 86.673C25.8369 86.4004 25.6794 86.129 25.4983 85.9101C25.154 85.4672 24.6362 85.3002 24.2119 85.2912C23.3255 85.2772 22.9229 85.7853 22.8922 85.7277C22.8788 85.7168 22.9492 85.585 23.1565 85.4186C23.3633 85.2573 23.7255 85.0743 24.21 85.0551C24.6804 85.0301 25.3114 85.201 25.7332 85.7124C25.9418 85.9524 26.1076 86.2269 26.3002 86.474C26.4903 86.7217 26.7169 86.9373 27.0036 86.9853C27.5937 87.08 28.1261 86.5431 28.738 86.3594C29.3601 86.1629 29.961 86.2685 30.393 86.4567C31.289 86.8535 31.5028 87.4896 31.4688 87.4826Z" fill="#FAFAFA"/>
<path d="M44.0491 91.1939C44.0177 91.2503 43.5864 90.808 42.7012 90.7677C42.2731 90.7491 41.7374 90.8477 41.2868 91.1811C41.0628 91.3431 40.8644 91.5805 40.6283 91.8192C40.3979 92.0515 40.0958 92.3216 39.6798 92.3754C39.2625 92.4298 38.8945 92.2269 38.6276 92.0323C38.3511 91.8333 38.1207 91.6208 37.8827 91.4653C37.4225 91.1447 36.8785 91.1395 36.4702 91.256C35.6196 91.5063 35.386 92.1104 35.34 92.065C35.324 92.0586 35.3515 91.912 35.5012 91.6919C35.6504 91.4762 35.9422 91.1939 36.3992 91.032C36.8408 90.8682 37.4942 90.8439 38.0484 91.2067C38.3191 91.3738 38.5591 91.5869 38.8164 91.7661C39.0711 91.9466 39.3521 92.0848 39.6395 92.0451C40.2308 91.9607 40.5803 91.29 41.1096 90.9322C41.6452 90.5597 42.2507 90.4823 42.7192 90.5335C43.69 90.6461 44.083 91.1901 44.0491 91.1939Z" fill="#FAFAFA"/>
<path d="M2.60159 38.2666C2.99007 38.7242 17.0611 57.5396 17.0611 57.5396L15.0803 58.6621L0.640625 40.0861L2.60159 38.2666Z" fill="#263238"/>
<path d="M57.5257 51.6906C57.5257 51.6906 44.3276 74.4503 43.4355 74.8695C41.6787 75.6938 21.4272 58.1936 19.4963 56.5194C19.23 56.1642 18.6809 55.4135 17.6019 53.921C17.6019 53.921 16.0044 46.6096 14.2988 47.1716C12.5939 47.7335 15.2332 50.8868 14.1228 53.665C13.0124 56.4426 7.927 49.8173 7.72284 49.2227L6.41147 47.5088C6.41147 47.5088 5.03611 51.4084 5.12955 53.0365C5.42779 58.2525 10.3628 64.456 10.3628 64.456C10.3628 64.456 30.4166 89.585 45.598 90.4368C49.9705 90.6819 58.3225 78.0944 63.5174 68.7908C66.6547 63.1728 65.1987 57.4653 59.9993 53.6746L57.5257 51.6906Z" fill="#FFBE9D"/>
<path d="M7.61965 53.9626C7.57549 53.9914 7.02061 53.1934 6.49197 52.1214C5.96013 51.05 5.66253 50.1252 5.71245 50.1073C5.76621 50.0868 6.14445 50.9713 6.67117 52.0324C7.19469 53.0948 7.66893 53.9326 7.61965 53.9626Z" fill="#EB996E"/>
<path d="M56.9036 45.3591C56.382 45.6721 44.1094 68.4561 44.1094 68.4561L59.9071 80.8305C59.9071 80.8305 64.0166 70.707 66.1842 62.4766C66.7724 60.243 66.4691 54.2737 65.639 51.971C64.4588 48.6986 62.679 49.5134 60.014 47.5966L56.9036 45.3591Z" fill="#FF6477"/>
<g opacity="0.7">
<path d="M62.093 45.3591C62.0834 45.3732 61.9381 45.2714 61.6424 45.1229C61.3512 44.9738 60.877 44.7934 60.2536 44.8311C59.6309 44.8516 58.8981 45.1543 58.1922 45.6919C57.4831 46.2295 56.7906 46.9905 56.1359 47.907C55.4684 48.817 54.9173 49.9262 54.2434 51.0833C53.5816 52.2455 52.8757 53.4858 52.1333 54.7895C50.6389 57.3994 48.9999 60.2634 47.2783 63.2708C46.228 65.0961 45.2085 66.8689 44.2498 68.5354L44.2088 68.3281C48.4879 71.7098 52.212 74.6532 54.8975 76.7748C56.1992 77.8199 57.2476 78.6615 57.9989 79.2644C58.3388 79.5454 58.6114 79.77 58.8213 79.9428C59.0063 80.0996 59.1004 80.1854 59.094 80.193C59.0882 80.2007 58.9826 80.1303 58.7861 79.9882C58.5679 79.8263 58.2844 79.6158 57.9304 79.3527C57.165 78.7678 56.0968 77.9511 54.7701 76.938C52.0668 74.8388 48.3176 71.9281 44.0092 68.5828L43.8984 68.497L43.9682 68.3754C44.9237 66.7076 45.9407 64.9342 46.9877 63.1076C48.717 60.106 50.3637 57.2471 51.8645 54.6417C52.6159 53.3438 53.3308 52.1092 54.0015 50.9514C54.6818 49.8078 55.2546 48.6865 55.9458 47.7694C56.6229 46.8478 57.341 46.0823 58.0821 45.5428C58.8188 45.0033 59.5944 44.7031 60.2492 44.7018C60.9039 44.6833 61.3884 44.8926 61.6744 45.0634C61.8261 45.1383 61.9221 45.2279 61.9944 45.2746C62.0629 45.3258 62.0962 45.3546 62.093 45.3591Z" fill="black"/>
</g>
<path d="M57.3755 66.7229C57.3282 66.7671 57.0555 66.2122 56.2261 65.8992C55.8248 65.7488 55.2853 65.6759 54.7535 65.8532C54.4911 65.9376 54.228 66.1015 53.9291 66.2551C53.6379 66.4042 53.2674 66.5674 52.8546 66.4887C52.4411 66.4112 52.1538 66.104 51.9605 65.8359C51.7595 65.5607 51.6066 65.2868 51.4286 65.0653C51.0907 64.6173 50.5755 64.4439 50.1512 64.4279C49.2648 64.4016 48.8552 64.9034 48.8258 64.8458C48.8123 64.8349 48.8847 64.7037 49.0946 64.5405C49.3032 64.3824 49.668 64.2039 50.1531 64.1917C50.6235 64.1732 51.2527 64.353 51.6667 64.8701C51.8715 65.1133 52.0341 65.3898 52.2229 65.64C52.4091 65.8903 52.6331 66.1092 52.9186 66.161C53.5074 66.264 54.0469 65.7348 54.6613 65.5594C55.2859 65.3719 55.8856 65.4864 56.3151 65.6797C57.204 66.0906 57.4088 66.7299 57.3755 66.7229Z" fill="#FAFAFA"/>
<path d="M64.5945 63.7757C64.5376 63.8051 64.4236 63.1972 63.71 62.673C63.3644 62.4196 62.8646 62.2039 62.3046 62.2314C62.0287 62.2416 61.7312 62.3287 61.4028 62.3959C61.0822 62.4611 60.6809 62.5181 60.3052 62.3312C59.9283 62.145 59.7343 61.7719 59.6204 61.4615C59.5014 61.1421 59.4272 60.8375 59.3158 60.5757C59.111 60.0535 58.6617 59.7469 58.2572 59.6176C57.4112 59.3533 56.8812 59.7258 56.8678 59.6624C56.8582 59.6483 56.9625 59.5415 57.2089 59.441C57.4528 59.345 57.8521 59.272 58.3225 59.3911C58.7807 59.5005 59.3376 59.8429 59.5968 60.4528C59.7286 60.7421 59.8105 61.0525 59.9244 61.3443C60.0364 61.6355 60.1926 61.9069 60.4537 62.0336C60.9926 62.2915 61.6556 61.928 62.2944 61.9248C62.9465 61.9127 63.4931 62.1847 63.854 62.4867C64.6003 63.121 64.6246 63.7917 64.5945 63.7757Z" fill="#FAFAFA"/>
<path d="M64.9657 54.3575C64.9087 54.3869 64.7948 53.7789 64.0812 53.2548C63.7356 53.0013 63.2358 52.7857 62.6758 52.8132C62.3999 52.8234 62.1023 52.9105 61.774 52.9777C61.4534 53.0429 61.0521 53.0999 60.6764 52.913C60.2994 52.7268 60.1055 52.3537 59.9916 52.0433C59.8726 51.7239 59.7983 51.4193 59.687 51.1575C59.4822 50.6353 59.0329 50.3287 58.6284 50.1994C57.7823 49.9351 57.2524 50.3076 57.239 50.2442C57.2287 50.2301 57.3337 50.1233 57.5801 50.0228C57.8239 49.9268 58.2233 49.8538 58.6937 49.9728C59.1519 50.0823 59.7087 50.4247 59.9679 51.0346C60.0998 51.3239 60.181 51.6343 60.2956 51.9261C60.4076 52.2173 60.5644 52.4887 60.8249 52.6154C61.3638 52.8733 62.0268 52.5098 62.6655 52.5066C63.3177 52.4945 63.8642 52.7665 64.2252 53.0685C64.9721 53.7028 64.9964 54.3741 64.9657 54.3575Z" fill="#FAFAFA"/>
<path d="M61.4735 76.0093C61.4165 76.0388 61.3033 75.4308 60.589 74.9066C60.2434 74.6532 59.7436 74.4381 59.1836 74.465C58.9077 74.4753 58.6101 74.5623 58.2818 74.6295C57.9612 74.6948 57.5599 74.7517 57.1842 74.5649C56.8073 74.3786 56.6133 74.0055 56.4994 73.6951C56.3804 73.3757 56.3061 73.0711 56.1948 72.8093C55.99 72.2871 55.5407 71.9805 55.1362 71.8513C54.2895 71.5869 53.7602 71.9594 53.7468 71.8961C53.7365 71.882 53.8415 71.7751 54.0879 71.6746C54.3317 71.5786 54.7311 71.5057 55.2015 71.6247C55.6597 71.7342 56.2165 72.0765 56.4757 72.6865C56.6076 72.9757 56.6895 73.2862 56.8041 73.578C56.9161 73.8692 57.0722 74.1405 57.3333 74.2673C57.8722 74.5252 58.5353 74.1617 59.174 74.1578C59.8261 74.1457 60.3727 74.4177 60.7337 74.7197C61.4793 75.3546 61.5036 76.0253 61.4735 76.0093Z" fill="#FAFAFA"/>
</svg>
