<svg width="58" height="58" viewBox="0 0 58 58" fill="none" xmlns="http://www.w3.org/2000/svg">
<g clip-path="url(#clip0_198_46911)">
<path d="M49.9453 12.8887H35.4453V53.1665H53.1675V16.1109C53.1675 15.2563 52.8281 14.4367 52.2238 13.8324C51.6195 13.2282 50.7999 12.8887 49.9453 12.8887ZM41.8898 40.2776H38.6675V37.0553H41.8898V40.2776ZM41.8898 32.222H38.6675V28.9998H41.8898V32.222ZM41.8898 24.1665H38.6675V20.9442H41.8898V24.1665ZM48.3342 40.2776H45.112V37.0553H48.3342V40.2776ZM48.3342 32.222H45.112V28.9998H48.3342V32.222ZM48.3342 24.1665H45.112V20.9442H48.3342V24.1665Z" fill="#FF6477"/>
<path d="M28.8075 4.83301H9.86087C8.95501 4.83301 8.08625 5.19286 7.44571 5.8334C6.80516 6.47394 6.44531 7.3427 6.44531 8.24856V53.1664H14.5009V48.333H24.1675V53.1664H32.2231V8.24856C32.2231 7.3427 31.8632 6.47394 31.2227 5.8334C30.5822 5.19286 29.7134 4.83301 28.8075 4.83301ZM14.5009 40.2775H11.2786V37.0552H14.5009V40.2775ZM14.5009 32.2219H11.2786V28.9997H14.5009V32.2219ZM14.5009 24.1663H11.2786V20.9441H14.5009V24.1663ZM14.5009 16.1108H11.2786V12.8886H14.5009V16.1108ZM20.9453 40.2775H17.7231V37.0552H20.9453V40.2775ZM20.9453 32.2219H17.7231V28.9997H20.9453V32.2219ZM20.9453 24.1663H17.7231V20.9441H20.9453V24.1663ZM20.9453 16.1108H17.7231V12.8886H20.9453V16.1108ZM27.3898 40.2775H24.1675V37.0552H27.3898V40.2775ZM27.3898 32.2219H24.1675V28.9997H27.3898V32.2219ZM27.3898 24.1663H24.1675V20.9441H27.3898V24.1663ZM27.3898 16.1108H24.1675V12.8886H27.3898V16.1108Z" fill="#FF6477"/>
</g>
<defs>
<clipPath id="clip0_198_46911">
<rect width="58" height="58" fill="white"/>
</clipPath>
</defs>
</svg>
