<svg width="130" height="255" viewBox="0 0 130 255" fill="none" xmlns="http://www.w3.org/2000/svg">
<path d="M90.9164 254.59L16.9964 254.249C8.10618 254.208 0.931138 246.969 0.968898 238.079L1.75226 52.7593C1.79002 43.864 9.0329 36.6838 17.9289 36.7248L91.8495 37.0665C100.74 37.1075 107.915 44.3465 107.877 53.2368L107.094 238.557C107.055 247.452 99.8118 254.631 90.9164 254.59Z" fill="#263238"/>
<path d="M91.742 43.4621L77.4105 43.3962C75.4885 43.3879 73.9231 45.0096 73.9154 47.0179L73.9039 49.6176C73.8962 51.6272 72.3308 53.249 70.4089 53.24L42.4729 53.1107C40.5509 53.1018 38.9996 51.4659 39.0079 49.4563L39.0188 46.8567C39.0271 44.8477 37.4757 43.2112 35.5538 43.2023L30.5132 43.1786L17.9692 43.121C11.7394 43.0922 6.66678 48.1207 6.6399 54.3504L5.8751 235.236C5.84886 241.463 10.8735 246.533 17.1001 246.562L90.8729 246.902C97.102 246.931 102.175 241.903 102.201 235.673L102.966 54.7863C102.993 48.5603 97.9685 43.4909 91.742 43.4621Z" fill="#FAFAFA"/>
<path d="M49.9937 229.584C49.9905 230.306 49.3063 230.889 48.466 230.885C47.6257 230.88 46.9467 230.292 46.9492 229.57C46.9524 228.848 47.6366 228.265 48.4769 228.269C49.3172 228.273 49.9963 228.862 49.9937 229.584Z" fill="#455A64"/>
<path d="M54.7086 229.606C54.7054 230.328 54.0218 230.91 53.1809 230.906C52.3405 230.903 51.6615 230.314 51.6641 229.591C51.6673 228.869 52.3514 228.287 53.1917 228.291C54.0321 228.295 54.7118 228.883 54.7086 229.606Z" fill="#455A64"/>
<path d="M59.4234 229.627C59.4208 230.349 58.7367 230.932 57.8957 230.928C57.0554 230.924 56.3764 230.336 56.3789 229.613C56.3821 228.891 57.0663 228.309 57.9066 228.313C58.7469 228.316 59.4266 228.905 59.4234 229.627Z" fill="#455A64"/>
<path d="M28.6914 130.664C29.8933 130.836 102.41 145.058 102.41 145.058V130.664H28.6914Z" fill="#EBEBEB"/>
<path d="M5.875 222.053C5.875 222.053 84.7588 210.892 84.0721 211.236C83.3854 211.58 5.875 211.236 5.875 211.236V222.053Z" fill="#EBEBEB"/>
<path d="M97.4867 10.8593C97.5789 10.8593 97.6531 14.8477 97.6531 19.7661C97.6531 24.6865 97.5782 28.6737 97.4867 28.6737C97.3952 28.6737 97.3203 24.6865 97.3203 19.7661C97.3197 14.8477 97.3946 10.8593 97.4867 10.8593Z" fill="#263238"/>
<path d="M129.052 31.3584C129.089 31.4428 125.47 33.1209 120.971 35.1068C116.469 37.0934 112.791 38.6352 112.754 38.5507C112.717 38.4662 116.335 36.7881 120.836 34.8016C125.336 32.8163 129.015 31.2745 129.052 31.3584Z" fill="#263238"/>
<path d="M128.256 0.27232C128.265 0.27808 128.207 0.39584 128.084 0.61344C127.941 0.86048 127.76 1.1728 127.537 1.55744C127.059 2.37536 126.344 3.54464 125.449 4.98336C123.657 7.85888 121.078 11.7661 118.157 16.0278C115.236 20.2909 112.628 24.1725 110.787 27.0134C109.887 28.4074 109.149 29.5485 108.611 30.3805C108.367 30.751 108.168 31.0525 108.011 31.2912C107.871 31.4973 107.792 31.6029 107.782 31.5971C107.773 31.5914 107.832 31.4736 107.954 31.256C108.097 31.009 108.278 30.6966 108.501 30.312C108.979 29.4941 109.695 28.3248 110.589 26.8861C112.381 24.0106 114.961 20.1027 117.882 15.8397C120.803 11.5779 123.41 7.69696 125.251 4.856C126.152 3.46208 126.889 2.32096 127.427 1.48832C127.672 1.11776 127.87 0.81632 128.027 0.5776C128.168 0.37152 128.246 0.26656 128.256 0.27232Z" fill="#263238"/>
</svg>
