<svg width="40" height="41" viewBox="0 0 40 41" fill="none" xmlns="http://www.w3.org/2000/svg">
<path d="M36.25 1.81264H3.75C3.0126 1.80514 2.30233 2.09047 1.77506 2.60603C1.24778 3.12159 0.946566 3.82526 0.9375 4.56264V37.1939C0.948206 37.9302 1.25014 38.6323 1.77724 39.1465C2.30434 39.6607 3.01367 39.9452 3.75 39.9376H36.25C36.9874 39.9435 37.6972 39.6572 38.2242 39.1413C38.7512 38.6254 39.0526 37.9219 39.0625 37.1845V4.55327C39.0493 3.81805 38.7465 3.11773 38.2199 2.60454C37.6932 2.09135 36.9853 1.80676 36.25 1.81264Z" fill="#0076B2"/>
<path d="M6.58281 16.1016H12.2422V34.3109H6.58281V16.1016ZM9.41406 7.03906C10.0632 7.03906 10.6977 7.23158 11.2374 7.59227C11.777 7.95296 12.1976 8.4656 12.4458 9.06536C12.6941 9.66511 12.7589 10.325 12.632 10.9616C12.5052 11.5982 12.1924 12.1828 11.7332 12.6416C11.2739 13.1004 10.689 13.4126 10.0523 13.5389C9.41558 13.6652 8.75573 13.5997 8.15622 13.3509C7.5567 13.1021 7.04446 12.681 6.68428 12.141C6.32411 11.601 6.1322 10.9663 6.13281 10.3172C6.13364 9.44749 6.47971 8.61369 7.09497 7.99901C7.71024 7.38434 8.54436 7.03906 9.41406 7.03906ZM15.7922 16.1016H21.2172V18.6016H21.2922C22.0484 17.1703 23.8922 15.6609 26.6453 15.6609C32.3766 15.6484 33.4391 19.4203 33.4391 24.3109V34.3109H27.7797V25.4516C27.7797 23.3422 27.7422 20.6266 24.8391 20.6266C21.9359 20.6266 21.4422 22.9266 21.4422 25.3141V34.3109H15.7922V16.1016Z" fill="white"/>
</svg>
