<svg width="44" height="44" viewBox="0 0 44 44" fill="none" xmlns="http://www.w3.org/2000/svg">
<path d="M39.7064 1.66113H4.02541C2.80325 1.66113 1.8125 2.66611 1.8125 3.90582V40.0992C1.8125 41.339 2.80325 42.3439 4.02541 42.3439H39.7064C40.9286 42.3439 41.9194 41.339 41.9194 40.0992V3.90582C41.9194 2.66611 40.9286 1.66113 39.7064 1.66113Z" fill="#3D5A98"/>
<path d="M29.498 42.3409V26.5868H34.7101L35.4895 20.4475H29.498V16.5287C29.498 14.7515 29.986 13.5381 32.4972 13.5381H35.703V8.03807C34.1506 7.87396 32.5906 7.79593 31.0298 7.80432C26.4142 7.80432 23.2355 10.6574 23.2355 15.9203V20.4475H18.0234V26.5868H23.2355V42.3409H29.498Z" fill="white"/>
</svg>
