<svg width="44" height="44" viewBox="0 0 44 44" fill="none" xmlns="http://www.w3.org/2000/svg">
<g clip-path="url(#clip0_198_79065)">
<rect x="1.80078" y="0.6875" width="41.3438" height="41.9375" rx="4.0957" fill="white"/>
<path d="M39.3564 18.2343H37.9688V18.1618H22.4649V25.1514H32.2005C30.7801 29.2202 26.9636 32.141 22.4649 32.141C16.7568 32.141 12.1289 27.4466 12.1289 21.6566C12.1289 15.8666 16.7568 11.1722 22.4649 11.1722C25.0997 11.1722 27.4967 12.1805 29.3219 13.8274L34.1944 8.88486C31.1178 5.97632 27.0023 4.18262 22.4649 4.18262C12.9515 4.18262 5.23828 12.0066 5.23828 21.6566C5.23828 31.3066 12.9515 39.1306 22.4649 39.1306C31.9782 39.1306 39.6914 31.3066 39.6914 21.6566C39.6914 20.485 39.5726 19.3413 39.3564 18.2343Z" fill="#FFC107"/>
<path d="M7.22656 13.5233L12.8864 17.7337C14.4178 13.8877 18.1267 11.1722 22.4669 11.1722C25.1017 11.1722 27.4988 12.1804 29.324 13.8274L34.1965 8.88486C31.1198 5.97632 27.0044 4.18262 22.4669 4.18262C15.8502 4.18262 10.112 7.97185 7.22656 13.5233Z" fill="#FF3D00"/>
<path d="M22.4649 39.1302C26.9145 39.1302 30.9576 37.4029 34.0144 34.594L28.6828 30.0176C26.8952 31.3966 24.7107 32.1425 22.4649 32.1406C17.9842 32.1406 14.1797 29.2426 12.7465 25.1982L7.12891 29.5886C9.97991 35.2475 15.7698 39.1302 22.4649 39.1302Z" fill="#4CAF50"/>
<path d="M39.3564 18.2346H37.9688V18.1621H22.4648V25.1517H32.2004C31.521 27.0882 30.2972 28.7803 28.6802 30.0191L28.6828 30.0173L34.0144 34.5937C33.6371 34.9415 39.6914 30.3939 39.6914 21.6569C39.6914 20.4853 39.5726 19.3416 39.3564 18.2346Z" fill="#1976D2"/>
</g>
<rect x="0.933594" y="0.5" width="42.3771" height="43" rx="5.5" stroke="#F2F2F2"/>
<defs>
<clipPath id="clip0_198_79065">
<rect x="0.433594" width="43.3771" height="44" rx="6" fill="white"/>
</clipPath>
</defs>
</svg>
