<svg width="45" height="44" viewBox="0 0 45 44" fill="none" xmlns="http://www.w3.org/2000/svg">
<path d="M40.118 1.03141H4.87417C4.07451 1.02315 3.30428 1.33702 2.73249 1.90413C2.1607 2.47124 1.83405 3.24528 1.82422 4.05641V39.9508C1.83583 40.7607 2.16326 41.533 2.73486 42.0986C3.30645 42.6642 4.07567 42.9772 4.87417 42.9689H40.118C40.9178 42.9753 41.6875 42.6604 42.259 42.0929C42.8305 41.5255 43.1573 40.7516 43.168 39.9405V4.0461C43.1537 3.23735 42.8254 2.467 42.2542 1.90249C41.6831 1.33798 40.9154 1.02494 40.118 1.03141Z" fill="#0076B2"/>
<path d="M7.94893 16.7515H14.0861V36.7818H7.94893V16.7515ZM11.0192 6.78271C11.7231 6.78272 12.4112 6.99449 12.9964 7.39124C13.5817 7.788 14.0377 8.35191 14.307 9.01164C14.5762 9.67136 14.6464 10.3973 14.5089 11.0975C14.3713 11.7978 14.0321 12.4409 13.5341 12.9455C13.0361 13.4502 12.4018 13.7937 11.7113 13.9325C11.0209 14.0714 10.3053 13.9994 9.65517 13.7257C9.00504 13.452 8.44955 12.9889 8.05897 12.3948C7.66839 11.8008 7.46027 11.1027 7.46094 10.3887C7.46184 9.43198 7.83712 8.51481 8.50433 7.83866C9.17154 7.16251 10.0761 6.78271 11.0192 6.78271ZM17.9358 16.7515H23.8188V19.5015H23.9002C24.7203 17.9271 26.7197 16.2668 29.7053 16.2668C35.9204 16.253 37.0726 20.4021 37.0726 25.7818V36.7818H30.9354V27.0365C30.9354 24.7162 30.8947 21.729 27.7465 21.729C24.5983 21.729 24.0628 24.259 24.0628 26.8852V36.7818H17.9358V16.7515Z" fill="white"/>
</svg>
