<svg width="16" height="17" viewBox="0 0 16 17" fill="none" xmlns="http://www.w3.org/2000/svg">
<g clip-path="url(#clip0_255_30802)">
<path d="M1.9987 2.5H13.9987C14.1755 2.5 14.3451 2.57024 14.4701 2.69526C14.5951 2.82029 14.6654 2.98986 14.6654 3.16667V13.8333C14.6654 14.0101 14.5951 14.1797 14.4701 14.3047C14.3451 14.4298 14.1755 14.5 13.9987 14.5H1.9987C1.82189 14.5 1.65232 14.4298 1.52729 14.3047C1.40227 14.1797 1.33203 14.0101 1.33203 13.8333V3.16667C1.33203 2.98986 1.40227 2.82029 1.52729 2.69526C1.65232 2.57024 1.82189 2.5 1.9987 2.5V2.5ZM8.0387 8.28867L3.76403 4.65867L2.9007 5.67467L8.04736 10.0447L13.1014 5.67133L12.2294 4.66267L8.03936 8.28867H8.0387Z" fill="#5B6572"/>
</g>
<defs>
<clipPath id="clip0_255_30802">
<rect width="16" height="16" fill="white" transform="translate(0 0.5)"/>
</clipPath>
</defs>
</svg>
