<svg width="20" height="20" viewBox="0 0 20 20" fill="none" xmlns="http://www.w3.org/2000/svg">
<g clip-path="url(#clip0_2003_563)">
<path d="M2.5013 2.5H17.5013C17.7223 2.5 17.9343 2.5878 18.0906 2.74408C18.2468 2.90036 18.3346 3.11232 18.3346 3.33333V16.6667C18.3346 16.8877 18.2468 17.0996 18.0906 17.2559C17.9343 17.4122 17.7223 17.5 17.5013 17.5H2.5013C2.28029 17.5 2.06833 17.4122 1.91205 17.2559C1.75577 17.0996 1.66797 16.8877 1.66797 16.6667V3.33333C1.66797 3.11232 1.75577 2.90036 1.91205 2.74408C2.06833 2.5878 2.28029 2.5 2.5013 2.5ZM10.0513 9.73583L4.70797 5.19833L3.6288 6.46833L10.0621 11.9308L16.3796 6.46417L15.2896 5.20333L10.0521 9.73583H10.0513Z" fill="white"/>
</g>
<defs>
<clipPath id="clip0_2003_563">
<rect width="20" height="20" fill="white"/>
</clipPath>
</defs>
</svg>
