<svg width="65" height="64" viewBox="0 0 65 64" fill="none" xmlns="http://www.w3.org/2000/svg">
<rect x="0.5" width="64" height="64" rx="32" fill="#00949B"/>
<path d="M51.5231 48.4293C51.9444 48.4293 52.3081 48.5752 52.6142 48.8671C52.9195 49.1589 53.0725 49.51 53.0725 49.9197C53.0725 50.3302 52.9195 50.6838 52.6142 50.982C52.3626 51.2377 52.0237 51.3948 51.6613 51.4238L51.5231 51.4294H13.4603C13.039 51.4294 12.6786 51.2803 12.3791 50.982C12.2347 50.8435 12.1205 50.6781 12.0433 50.4955C11.9661 50.313 11.9275 50.1171 11.9298 49.9197C11.9298 49.51 12.0795 49.1589 12.3791 48.8671C12.6284 48.6151 12.9639 48.4611 13.3221 48.4341L13.4603 48.4293H51.5231ZM21.3984 26.9595C21.7934 26.9595 22.0995 27.0653 22.3159 27.2762C22.5051 27.4606 22.6121 27.7035 22.6368 28.0018L22.6409 28.134V28.5814C22.6409 28.9534 22.5331 29.2461 22.3159 29.4569C22.1266 29.6413 21.8682 29.7455 21.5424 29.7688L21.3976 29.7736H20.4019V43.974L21.3976 43.9748C21.7432 43.9748 22.0213 44.055 22.2303 44.2178L22.3159 44.2915C22.5051 44.4759 22.6121 44.718 22.6368 45.0171L22.6409 45.1486V45.5959C22.6409 45.9808 22.5331 46.2766 22.3159 46.4811C22.1266 46.6607 21.8682 46.7617 21.5424 46.7841L21.3976 46.7889H16.5016C16.1066 46.7889 15.803 46.6863 15.5923 46.4811C15.4088 46.3023 15.3043 46.0537 15.2821 45.7363L15.2772 45.5959V45.1486C15.2772 44.7886 15.3825 44.5032 15.5923 44.2915C15.7766 44.1071 16.0317 44.0029 16.3576 43.9796L16.5016 43.9748H17.5137V29.772L16.5016 29.7728C16.156 29.7728 15.8803 29.6926 15.6762 29.5307L15.5923 29.4561C15.4088 29.2717 15.3043 29.0248 15.2821 28.7161L15.2772 28.5798V28.1332C15.2772 27.7725 15.3825 27.487 15.5923 27.2754C15.7766 27.091 16.0317 26.9868 16.3576 26.9635L16.5016 26.9587L21.3984 26.9595ZM30.5024 26.9595C30.8851 26.9595 31.1854 27.0653 31.4018 27.2762C31.5911 27.4606 31.6981 27.7035 31.7219 28.0018L31.7269 28.134V28.5814C31.7269 28.9534 31.6182 29.2461 31.4018 29.4569C31.2118 29.6413 30.9583 29.7455 30.6423 29.7688L30.5024 29.7736H29.5068V43.974L30.5024 43.9748C30.8374 43.9748 31.1081 44.055 31.3163 44.2178L31.4018 44.2915C31.5911 44.4759 31.6981 44.718 31.7219 45.0171L31.7269 45.1486V45.5959C31.7269 45.9808 31.6182 46.2766 31.4018 46.4811C31.2118 46.6607 30.9583 46.7617 30.6423 46.7841L30.5024 46.7889H25.5867C25.2041 46.7889 24.9037 46.6863 24.6873 46.4811C24.4981 46.3023 24.3911 46.0537 24.3681 45.7363L24.3623 45.5959V45.1486C24.3623 44.7886 24.4709 44.5032 24.6873 44.2915C24.8774 44.1071 25.1309 44.0029 25.4468 43.9796L25.5867 43.9748H26.6194V29.772L25.5867 29.7728C25.2518 29.7728 24.9811 29.6926 24.7729 29.5307L24.6873 29.4561C24.4981 29.2717 24.3911 29.0248 24.3681 28.7161L24.3623 28.5798V28.1332C24.3623 27.7725 24.4709 27.487 24.6873 27.2754C24.8774 27.091 25.1309 26.9868 25.4468 26.9635L25.5867 26.9587L30.5024 26.9595ZM39.6073 26.9595C39.99 26.9595 40.2895 27.0653 40.5059 27.2762C40.6952 27.4606 40.8021 27.7035 40.8268 28.0018L40.8309 28.134V28.5814C40.8309 28.9534 40.7231 29.2461 40.5059 29.4569C40.3166 29.6413 40.0632 29.7455 39.7464 29.7688L39.6065 29.7736H38.6125V43.974L39.6073 43.9748C39.9414 43.9748 40.213 44.055 40.4211 44.2178L40.5059 44.2915C40.6952 44.4759 40.8021 44.718 40.8268 45.0171L40.8309 45.1486V45.5959C40.8309 45.9808 40.7231 46.2766 40.5059 46.4811C40.3166 46.6607 40.0632 46.7617 39.7464 46.7841L39.6065 46.7889H34.6916C34.309 46.7889 34.0086 46.6863 33.7922 46.4811C33.603 46.3023 33.496 46.0537 33.4721 45.7363L33.4672 45.5959V45.1486C33.4672 44.7886 33.5758 44.5032 33.7922 44.2915C33.9815 44.1071 34.2349 44.0029 34.5517 43.9796L34.6916 43.9748H35.7243V29.772L34.6916 29.7728C34.3567 29.7728 34.0852 29.6926 33.877 29.5307L33.7922 29.4561C33.603 29.2717 33.496 29.0248 33.4721 28.7161L33.4672 28.5798V28.1332C33.4672 27.7725 33.5758 27.487 33.7922 27.2754C33.9815 27.091 34.2349 26.9868 34.5517 26.9635L34.6916 26.9587L39.6073 26.9595ZM48.6925 26.9595C49.0875 26.9595 49.3903 27.0653 49.6009 27.2762C49.7852 27.4606 49.8889 27.7035 49.912 28.0018L49.9169 28.134V28.5814C49.9169 28.9534 49.8116 29.2461 49.6009 29.4569C49.4166 29.6413 49.1623 29.7455 48.8365 29.7688L48.6925 29.7736H47.6968V43.974L48.6925 43.9748C49.0381 43.9748 49.3137 44.055 49.5178 44.2178L49.6009 44.2915C49.7852 44.4759 49.8889 44.718 49.912 45.0171L49.9169 45.1486V45.5959C49.9169 45.9808 49.8116 46.2766 49.6009 46.4811C49.4166 46.6607 49.1623 46.7617 48.8365 46.7841L48.6925 46.7889H43.7965C43.4007 46.7889 43.0971 46.6863 42.8872 46.4811C42.7029 46.3023 42.5992 46.0537 42.577 45.7363L42.5721 45.5959V45.1486C42.5721 44.7886 42.6766 44.5032 42.8872 44.2915C43.0716 44.1071 43.3266 44.0029 43.6525 43.9796L43.7957 43.9748H44.8094V29.772L43.7957 29.7728C43.4501 29.7728 43.1752 29.6926 42.9704 29.5307L42.8881 29.4561C42.7029 29.2717 42.6001 29.0248 42.577 28.7161L42.5721 28.5798V28.1332C42.5721 27.7725 42.6766 27.487 42.8872 27.2754C43.0716 27.091 43.3266 26.9868 43.6525 26.9635L43.7957 26.9587L48.6925 26.9595ZM32.4913 12.5723C33.2031 12.5723 33.9099 12.7486 34.611 13.1006L34.8447 13.2249L51.1783 22.3936C51.5363 22.5924 51.7946 22.8129 51.9535 23.055C52.1131 23.2979 52.1921 23.5553 52.1921 23.8287C52.1921 24.2135 52.0497 24.5615 51.7626 24.8726C51.5075 25.1484 51.1536 25.3015 50.7027 25.3328L50.5283 25.3384H14.4543C13.9194 25.3384 13.508 25.1828 13.2208 24.8726C12.9337 24.5615 12.7905 24.2135 12.7905 23.8287C12.7905 23.5561 12.8703 23.2979 13.0291 23.055C13.1665 22.8474 13.3747 22.6558 13.657 22.4802L13.8043 22.3936L30.1387 13.2249C30.9172 12.7887 31.7014 12.5723 32.4929 12.5723M32.4929 15.8153C32.3094 15.8153 32.1144 15.8586 31.9054 15.946L31.7474 16.0197L20.1945 22.3375H44.7922L33.2376 16.0197C32.9702 15.8835 32.7209 15.8153 32.4913 15.8153" fill="white"/>
</svg>
