<svg width="68" height="54" viewBox="0 0 68 54" fill="none" xmlns="http://www.w3.org/2000/svg">
<g clip-path="url(#clip0_198_56784)">
<path d="M33.7516 3.375C32.8973 3.375 32.0536 3.52266 31.252 3.80742L1.66803 14.4914C0.666076 14.8605 0.0016234 15.8098 0.0016234 16.875C0.0016234 17.9402 0.666076 18.8895 1.66803 19.2586L7.77467 21.4629C6.04498 24.184 5.06412 27.4008 5.06412 30.7863V33.75C5.06412 36.7453 3.92506 39.8355 2.71217 42.2719C2.02662 43.643 1.24615 44.993 0.339123 46.2375C0.00162341 46.691 -0.0932985 47.2816 0.0965453 47.8195C0.286389 48.3574 0.729358 48.7582 1.2778 48.8953L8.02779 50.5828C8.47076 50.6988 8.94537 50.6145 9.33561 50.3719C9.72584 50.1293 10.0001 49.7285 10.0844 49.275C10.9915 44.7609 10.538 40.7109 9.86295 37.8106C9.52545 36.3129 9.07193 34.7836 8.43912 33.3809V30.7863C8.43912 27.6012 9.5149 24.5953 11.3817 22.1906C12.7422 20.5559 14.5036 19.2375 16.5708 18.4254L33.1294 11.918C33.9942 11.5805 34.9751 12.0023 35.3126 12.8672C35.6501 13.732 35.2282 14.7129 34.3633 15.0504L17.8047 21.5578C16.4969 22.0746 15.3473 22.8656 14.4087 23.8359L31.2415 29.9109C32.043 30.1957 32.8868 30.3434 33.7411 30.3434C34.5954 30.3434 35.4391 30.1957 36.2407 29.9109L65.8352 19.2586C66.8372 18.9 67.5016 17.9402 67.5016 16.875C67.5016 15.8098 66.8372 14.8605 65.8352 14.4914L36.2512 3.80742C35.4497 3.52266 34.6059 3.375 33.7516 3.375ZM13.5016 43.0313C13.5016 46.7543 22.5719 50.625 33.7516 50.625C44.9313 50.625 54.0016 46.7543 54.0016 43.0313L52.3879 27.6961L37.3903 33.1172C36.2196 33.5391 34.9856 33.75 33.7516 33.75C32.5176 33.75 31.2731 33.5391 30.1129 33.1172L15.1153 27.6961L13.5016 43.0313Z" fill="#FF6477"/>
</g>
<defs>
<clipPath id="clip0_198_56784">
<rect width="67.5" height="54" fill="white"/>
</clipPath>
</defs>
</svg>
