<svg width="26" height="26" viewBox="0 0 26 26" fill="none" xmlns="http://www.w3.org/2000/svg">
<rect width="26" height="26" rx="4.33333" fill="#3D5A98"/>
<g clip-path="url(#clip0_198_55454)">
<path d="M20.4413 4.91992H5.56334C5.05374 4.91992 4.64062 5.33304 4.64062 5.84264V20.7206C4.64062 21.2302 5.05374 21.6433 5.56334 21.6433H20.4413C20.9509 21.6433 21.364 21.2302 21.364 20.7206V5.84264C21.364 5.33304 20.9509 4.91992 20.4413 4.91992Z" fill="#3D5A98"/>
<path d="M13.7959 19.4869V13.8204H15.6975L15.9819 11.6122H13.7959V10.2027C13.7959 9.56346 13.9739 9.12701 14.8901 9.12701H16.0597V7.14875C15.4934 7.08972 14.9242 7.06165 14.3547 7.06467C12.6707 7.06467 11.511 8.0909 11.511 9.98384V11.6122H9.60938V13.8204H11.511V19.4869H13.7959Z" fill="white"/>
</g>
<defs>
<clipPath id="clip0_198_55454">
<rect width="18.087" height="18.087" fill="white" transform="translate(3.95312 4.24023)"/>
</clipPath>
</defs>
</svg>
