<svg width="47" height="159" viewBox="0 0 47 159" fill="none" xmlns="http://www.w3.org/2000/svg">
<path d="M25.5644 51.0384L25.5547 23.9023C25.5547 24.3348 25.6152 24.7832 25.7736 25.2637C25.9308 25.7356 26.1666 26.1889 26.4835 26.6238C28.8151 29.8258 35.4761 32.0027 46.3419 33.1165L46.3516 60.2525C35.4845 59.1388 28.8247 56.9618 26.4931 53.7599C26.1763 53.325 25.9405 52.8716 25.7832 52.3997C25.6248 51.9193 25.5644 51.4708 25.5644 51.0384Z" fill="#FF6477"/>
<g opacity="0.1">
<path d="M25.5644 51.0384L25.5547 23.9023C25.5547 24.3348 25.6152 24.7832 25.7736 25.2637C25.9308 25.7356 26.1666 26.1889 26.4835 26.6238C28.8151 29.8258 35.4761 32.0027 46.3419 33.1165L46.3516 60.2525C35.4845 59.1388 28.8247 56.9618 26.4931 53.7599C26.1763 53.325 25.9405 52.8716 25.7832 52.3997C25.6248 51.9193 25.5644 51.4708 25.5644 51.0384Z" fill="black"/>
</g>
<path d="M26.1194 47.1829C26.1194 47.8716 25.9767 48.5147 25.8389 49.1467C25.6986 49.7775 25.5644 50.3898 25.5644 51.0378L25.5547 23.9018C25.5547 23.2538 25.6889 22.6415 25.8292 22.0107C25.9683 21.3787 26.111 20.7356 26.1098 20.0469C26.1122 28.1879 26.117 39.0419 26.1194 47.1829Z" fill="#FF6477"/>
<g opacity="0.4">
<path d="M26.1194 47.1829C26.1194 47.8716 25.9767 48.5147 25.8389 49.1467C25.6986 49.7775 25.5644 50.3898 25.5644 51.0378L25.5547 23.9018C25.5547 23.2538 25.6889 22.6415 25.8292 22.0107C25.9683 21.3787 26.111 20.7356 26.1098 20.0469C26.1122 28.1879 26.117 39.0419 26.1194 47.1829Z" fill="black"/>
</g>
<path d="M26.1082 20.047L26.1178 47.183C26.1178 46.6915 26.0453 46.1765 25.8457 45.6258C25.6777 45.1625 25.4406 44.7215 25.1346 44.3002C22.7124 40.9738 15.9437 38.9508 4.54092 38.1438L4.53125 11.0078C15.9328 11.8148 22.7027 13.8377 25.125 17.1641C25.4321 17.5855 25.6679 18.0265 25.836 18.4898C26.0344 19.0417 26.1082 19.5554 26.1082 20.047Z" fill="#FF6477"/>
<path d="M5.43053 7.38672H2.69141V158.025H5.43053V7.38672Z" fill="#263238"/>
<path d="M8.06867 4.24033C8.06867 6.49612 6.27401 8.32442 4.05972 8.32442C1.84544 8.32442 0.0507812 6.49612 0.0507812 4.24033C0.0507812 1.98454 1.84544 0.15625 4.05972 0.15625C6.27401 0.15625 8.06867 1.98454 8.06867 4.24033Z" fill="#263238"/>
</svg>
