<svg width="762" height="336" viewBox="0 0 762 336" fill="none" xmlns="http://www.w3.org/2000/svg">
<path d="M595.082 20.5165V175.034L427.242 148.933L426.273 0.503906L595.082 20.5165Z" fill="white"/>
<path d="M595.081 20.5165C595.081 20.5165 565.105 26.0297 540.293 21.2015C485.649 10.5669 454.754 6.04175 427.263 2.50098L426.273 0.503906L427.243 148.933L595.082 175.034V20.5165H595.081Z" fill="#DBDBDB"/>
<path d="M595.082 20.5153C581.953 21.9395 568.681 22.93 555.488 21.5058C544.322 20.1482 527.56 17.3466 516.262 15.7992C490.588 11.6819 463.357 10.0741 437.578 6.73047C463.874 9.24005 490.289 10.546 516.423 14.6239C529.293 16.292 542.726 18.7745 555.598 20.4439C568.709 22.043 581.941 21.3063 595.082 20.5153Z" fill="#EBEBEB"/>
<path d="M595.083 20.5155C575.423 22.0494 553.607 19.2232 534.096 16.0631C520.992 14.1399 447.708 4.03752 433.008 1.99609C473.595 6.34505 514.101 11.6956 554.438 17.9874C567.885 19.9279 581.496 20.7619 595.083 20.5155Z" fill="#EBEBEB"/>
<path d="M582.422 33.211C564.305 36.0027 545.918 34.0832 527.962 30.8887C504.237 27.1643 479.649 22.9152 455.944 19.5198C449.937 18.6056 443.91 17.8578 437.879 17.0977C462.109 19.096 486.14 23.0211 510.147 26.8058C522.139 28.7807 534.126 30.8332 546.128 32.6332C558.133 34.3358 570.355 34.3567 582.422 33.211Z" fill="#C7C7C7"/>
<path d="M582.422 38.4297C564.305 41.2214 545.918 39.302 527.962 36.1074C504.237 32.3831 479.649 28.1339 455.944 24.7385C449.937 23.8244 443.91 23.0766 437.879 22.3164C462.109 24.3147 486.14 28.2399 510.147 32.0246C522.139 33.9995 534.126 36.052 546.128 37.8519C558.133 39.5533 570.355 39.5743 582.422 38.4297Z" fill="#C7C7C7"/>
<path d="M582.422 43.6446C564.305 46.4375 545.918 44.5168 527.962 41.3223C504.237 37.5979 479.649 33.3488 455.944 29.9534C449.937 29.0392 443.91 28.2914 437.879 27.5312C462.109 29.5296 486.14 33.4547 510.147 37.2394C522.139 39.2143 534.126 41.2668 546.128 43.0668C558.133 44.7682 570.355 44.7904 582.422 43.6446Z" fill="#C7C7C7"/>
<path d="M582.422 48.8594C564.305 51.6511 545.918 49.7317 527.962 46.5371C504.237 42.8128 479.649 38.5636 455.944 35.1682C449.937 34.2541 443.91 33.5062 437.879 32.7461C462.109 34.7444 486.14 38.6696 510.147 42.4543C522.139 44.4292 534.126 46.4816 546.128 48.2816C558.133 49.983 570.355 50.0052 582.422 48.8594Z" fill="#C7C7C7"/>
<path d="M582.422 54.0781C564.305 56.8711 545.918 54.9504 527.962 51.7559C504.237 48.0315 479.649 43.7823 455.944 40.3869C449.937 39.4728 443.91 38.725 437.879 37.9648C462.109 39.9631 486.14 43.8883 510.147 47.673C522.139 49.6479 534.126 51.7004 546.128 53.5003C558.133 55.203 570.355 55.2239 582.422 54.0781Z" fill="#C7C7C7"/>
<path d="M582.422 59.293C564.305 62.086 545.918 60.1653 527.962 56.9707C504.237 53.2464 479.649 48.9972 455.944 45.6018C449.937 44.6877 443.91 43.9398 437.879 43.1797C462.109 45.178 486.14 49.1031 510.147 52.8879C522.139 54.8628 534.126 56.9153 546.128 58.7152C558.133 60.4179 570.355 60.4388 582.422 59.293Z" fill="#C7C7C7"/>
<path d="M582.422 64.5117C564.305 67.3035 545.918 65.384 527.962 62.1894C504.237 58.4651 479.649 54.2159 455.944 50.8206C449.937 49.9052 443.91 49.1586 437.879 48.3984C462.109 50.3967 486.14 54.3219 510.147 58.1066C522.139 60.0815 534.126 62.134 546.128 63.9339C558.133 65.6353 570.355 65.6563 582.422 64.5117Z" fill="#C7C7C7"/>
<path d="M582.422 69.7266C564.305 72.5196 545.918 70.5989 527.962 67.4043C504.237 63.68 479.649 59.4308 455.944 56.0354C449.937 55.1213 443.91 54.3734 437.879 53.6133C462.109 55.6116 486.14 59.5367 510.147 63.3214C522.139 65.2963 534.126 67.3489 546.128 69.1488C558.133 70.8514 570.355 70.8724 582.422 69.7266Z" fill="#C7C7C7"/>
<path d="M582.422 74.9454C564.305 77.7371 545.918 75.8176 527.962 72.623C504.237 68.8987 479.649 64.6495 455.944 61.2541C449.937 60.34 443.91 59.5922 437.879 58.832C462.109 60.8303 486.14 64.7555 510.147 68.5402C522.139 70.5151 534.126 72.5676 546.128 74.3676C558.133 76.0702 570.355 76.0911 582.422 74.9454Z" fill="#C7C7C7"/>
<path d="M582.422 80.1602C564.305 82.9531 545.918 81.0325 527.962 77.8379C504.237 74.1135 479.649 69.8644 455.944 66.469C449.937 65.5548 443.91 64.807 437.879 64.0469C462.109 66.0452 486.14 69.9703 510.147 73.755C522.139 75.7299 534.126 77.7824 546.128 79.5824C558.133 81.2838 570.355 81.3047 582.422 80.1602Z" fill="#C7C7C7"/>
<path d="M582.422 85.379C564.305 88.1707 545.918 86.2512 527.962 83.0566C504.237 79.3323 479.649 75.0831 455.944 71.6877C449.937 70.7736 443.91 70.0258 437.879 69.2656C462.109 71.2639 486.14 75.1891 510.147 78.9738C522.139 80.9487 534.126 83.0012 546.128 84.8012C558.133 86.5026 570.355 86.5247 582.422 85.379Z" fill="#C7C7C7"/>
<path d="M582.422 90.5938C564.305 93.3855 545.918 91.4661 527.962 88.2715C504.237 84.5471 479.649 80.298 455.944 76.9026C449.937 75.9872 443.91 75.2406 437.879 74.4805C462.109 76.4788 486.14 80.4039 510.147 84.1886C522.139 86.1635 534.126 88.2161 546.128 90.016C558.133 91.7186 570.355 91.7396 582.422 90.5938Z" fill="#C7C7C7"/>
<path d="M306.418 46.1282V208.077L593.656 164.31V18.2124C593.656 18.2124 569.499 15.6572 515.288 20.6801C484.691 23.5149 403.139 35.4653 314.418 40.6027C314.418 40.6027 307.933 46.0395 306.418 46.1282Z" fill="white"/>
<path d="M306.266 208.255V45.9823L306.408 45.9736C307.567 45.9059 312.091 42.3528 314.321 40.4826L314.36 40.4518L314.408 40.4481C378.221 36.7533 438.522 29.5104 478.426 24.7167C494.214 22.8207 506.684 21.3225 515.275 20.5267C568.881 15.5617 593.431 18.0343 593.672 18.0602L593.808 18.075V164.444L593.679 164.465L306.266 208.255ZM306.568 46.2607V207.897L593.504 164.178V18.3522C591.474 18.1612 566.816 16.0607 515.301 20.8322C506.714 21.6268 494.246 23.125 478.46 25.021C438.563 29.8135 378.278 37.0552 314.473 40.7512C313.903 41.2292 308.271 45.9083 306.568 46.2607Z" fill="#DBDBDB"/>
<path d="M586.652 19.6657C506.869 19.0879 395.618 37.4767 315.891 41.339C395.67 38.1444 506.869 20.4233 586.652 19.6657Z" fill="#EBEBEB"/>
<path d="M300.078 46.5221V210.93L598.12 176.177V17.7266L300.078 46.5221Z" fill="#FF6477"/>
<g opacity="0.1">
<path d="M300.078 46.5221V210.93L598.12 176.177V17.7266L300.078 46.5221Z" fill="black"/>
</g>
<path d="M598.12 26.5234L300.078 56.8688V63.3048L598.12 33.2526V26.5234Z" fill="#FF6477"/>
<path d="M598.12 38.7695L300.078 69.1149V75.5509L598.12 45.4999V38.7695Z" fill="#FF6477"/>
<path d="M598.123 176.172H601.879V17.7219H598.123V176.172Z" fill="#FF6477"/>
<path opacity="0.2" d="M598.123 176.172H601.879V17.7219H598.123V176.172Z" fill="black"/>
<path d="M311.719 51.3073V316.035L599.27 271.317L600.932 17.0195L311.719 51.3073Z" fill="white"/>
<path d="M311.719 51.3086C311.719 51.3086 363.075 60.7555 405.586 52.4814C499.207 34.2601 552.138 26.5084 599.238 20.4408L600.933 17.0195L599.272 271.317L311.719 316.035V51.3086Z" fill="#EBEBEB"/>
<path d="M311.719 51.3103C334.227 52.902 356.912 54.2363 379.404 51.569C401.477 48.7305 424.484 44.5318 446.54 41.6379C480.135 36.7333 513.925 33.2282 547.788 30.9145C559.062 30.0386 570.323 28.9507 581.566 27.6953C570.343 29.1294 559.099 30.3971 547.833 31.4517C503.407 34.836 457.291 40.9689 413.124 47.7461C403.229 49.1851 389.335 51.606 379.514 52.6298C356.931 55.1714 334.24 53.4552 311.719 51.3103Z" fill="#EBEBEB"/>
<path d="M311.719 51.3083C334.997 51.9772 358.345 50.5876 381.404 47.3499C438.569 38.4499 497.151 30.6242 554.659 23.6277L589.396 19.5781C535.177 26.7668 469.852 35.4832 416.146 43.2682L381.544 48.397C358.42 51.4795 335.007 52.5132 311.719 51.3083Z" fill="#EBEBEB"/>
<path d="M333.402 73.0532C354.066 75.2375 375.034 75.2191 395.627 72.3966C416.211 69.3818 436.745 65.8583 457.295 62.5122C498.417 55.9703 539.568 49.246 581.042 45.4453C539.676 50.1885 498.59 57.0877 457.485 63.7269C439.342 66.5803 413.714 70.9453 395.748 73.3316C375.047 75.9866 354.049 75.6638 333.402 73.0532Z" fill="#C7C7C7"/>
<path d="M333.402 81.9907C354.066 84.175 375.034 84.1566 395.627 81.3341C416.211 78.3193 436.745 74.7958 457.295 71.4497C498.417 64.9078 539.568 58.1835 581.042 54.3828C539.676 59.126 498.59 66.0252 457.485 72.6644C439.342 75.5178 413.714 79.8827 395.748 82.2691C375.047 84.9228 354.049 84.6013 333.402 81.9907Z" fill="#C7C7C7"/>
<path d="M333.402 90.9282C354.066 93.1125 375.034 93.0941 395.627 90.2716C416.211 87.2568 436.745 83.7333 457.295 80.3872C498.417 73.8453 539.568 67.121 581.042 63.3203C539.676 68.0635 498.59 74.9627 457.485 81.6019C439.342 84.4553 413.714 88.8203 395.748 91.2066C375.047 93.8616 354.049 93.5388 333.402 90.9282Z" fill="#C7C7C7"/>
<path d="M333.402 99.8657C354.066 102.05 375.034 102.032 395.627 99.2091C416.211 96.1943 436.745 92.6708 457.295 89.3247C498.417 82.7828 539.568 76.0585 581.042 72.2578C539.676 77.001 498.59 83.9002 457.485 90.5394C439.342 93.3928 413.714 97.7578 395.748 100.144C375.047 102.799 354.049 102.478 333.402 99.8657Z" fill="#C7C7C7"/>
<path d="M333.402 108.804C354.066 110.989 375.034 110.97 395.627 108.148C416.211 105.133 436.745 101.61 457.295 98.2622C498.417 91.7203 539.568 84.996 581.042 81.1953C539.676 85.9385 498.59 92.8377 457.485 99.4769C439.342 102.33 413.714 106.695 395.748 109.082C375.047 111.737 354.049 111.415 333.402 108.804Z" fill="#C7C7C7"/>
<path d="M333.402 117.741C354.066 119.925 375.034 119.907 395.627 117.084C416.211 114.069 436.745 110.546 457.295 107.2C498.417 100.658 539.568 93.9335 581.042 90.1328C539.676 94.876 498.59 101.775 457.485 108.414C439.342 111.268 413.714 115.633 395.748 118.019C375.047 120.674 354.049 120.351 333.402 117.741Z" fill="#C7C7C7"/>
<path d="M333.402 126.678C354.066 128.863 375.034 128.844 395.627 126.022C416.211 123.007 436.745 119.483 457.295 116.137C498.417 109.595 539.568 102.871 581.042 99.0703C539.676 103.814 498.59 110.713 457.485 117.352C439.342 120.205 413.714 124.57 395.748 126.957C375.047 129.61 354.049 129.289 333.402 126.678Z" fill="#C7C7C7"/>
<path d="M333.402 135.616C354.066 137.8 375.034 137.782 395.627 134.959C416.211 131.944 436.745 128.421 457.295 125.075C498.417 118.533 539.568 111.809 581.042 108.008C539.676 112.751 498.59 119.65 457.485 126.289C439.342 129.143 413.714 133.508 395.748 135.894C375.047 138.549 354.049 138.226 333.402 135.616Z" fill="#C7C7C7"/>
<path d="M333.402 144.551C354.066 146.735 375.034 146.716 395.627 143.894C416.211 140.879 436.745 137.356 457.295 134.008C498.417 127.466 539.568 120.742 581.042 116.941C539.676 121.685 498.59 128.584 457.485 135.223C439.342 138.076 413.714 142.441 395.748 144.828C375.047 147.484 354.049 147.162 333.402 144.551Z" fill="#C7C7C7"/>
<path d="M333.402 153.492C354.066 155.676 375.034 155.658 395.627 152.835C416.211 149.821 436.745 146.297 457.295 142.95C498.417 136.408 539.568 129.684 581.042 125.883C539.676 130.626 498.59 137.525 457.485 144.164C439.342 147.018 413.714 151.383 395.748 153.769C375.047 156.424 354.049 156.103 333.402 153.492Z" fill="#C7C7C7"/>
<path d="M333.402 162.426C354.066 164.61 375.034 164.591 395.627 161.769C416.211 158.754 436.745 155.231 457.295 151.883C498.417 145.341 539.568 138.617 581.042 134.816C539.676 139.56 498.59 146.459 457.485 153.098C439.342 155.951 413.714 160.316 395.748 162.703C375.047 165.359 354.049 165.037 333.402 162.426Z" fill="#C7C7C7"/>
<path d="M333.402 171.367C354.066 173.551 375.034 173.533 395.627 170.71C416.211 167.696 436.745 164.172 457.295 160.825C498.417 154.283 539.568 147.559 581.042 143.758C539.676 148.501 498.59 155.4 457.485 162.039C439.342 164.893 413.714 169.258 395.748 171.644C375.047 174.299 354.049 173.978 333.402 171.367Z" fill="#C7C7C7"/>
<path d="M548.943 27.4797L544.164 27.9503V27.2776C544.164 25.7931 545.234 24.4835 546.554 24.3541C547.873 24.2247 548.943 25.3224 548.943 26.8082V27.4797Z" fill="#37474F"/>
<path d="M572.505 24.8207V54.7965L560.555 46.8143L548.602 56.8564V26.8806C548.602 25.3689 547.513 24.249 546.168 24.3821L570.07 22.3234C571.415 22.1891 572.505 23.309 572.505 24.8207Z" fill="#455A64"/>
<path d="M750.603 89.3902V331.107L314.164 297.661V47.3555C314.164 47.3555 355.552 42.9782 448.43 51.5825C500.851 56.4391 581.374 56.1779 733.378 64.9793C733.378 64.9793 748.009 89.2374 750.603 89.3902Z" fill="white"/>
<path d="M326.16 49.8423C462.85 48.853 606.78 64.2678 743.374 70.8837C606.69 65.4136 462.85 51.1421 326.16 49.8423Z" fill="#EBEBEB"/>
<path d="M761.462 79.9809V335.997L306.516 317.992V46.5234L761.462 79.9809Z" fill="#FF6477"/>
<g opacity="0.1">
<path d="M761.462 79.9809V335.997L306.516 317.992V46.5234L761.462 79.9809Z" fill="black"/>
</g>
<path d="M306.516 61.5938L761.462 97.7061V108.734L306.516 73.124V61.5938Z" fill="#FF6477"/>
<path d="M306.516 82.5781L761.462 118.69V129.718L306.516 94.1084V82.5781Z" fill="#FF6477"/>
<path d="M306.514 46.5234H300.078V317.992H306.514V46.5234Z" fill="#FF6477"/>
<path opacity="0.2" d="M306.514 46.5234H300.078V317.992H306.514V46.5234Z" fill="black"/>
<path d="M761.461 336H396.156L761.461 66.2188V336Z" fill="#FF6477"/>
<path opacity="0.2" d="M761.461 336H396.156L761.461 66.2188V336Z" fill="white"/>
<path d="M698.369 112.812L634.742 159.801V335.998H698.369V112.812Z" fill="#FF6477"/>
<path d="M574.527 336.001L575.116 203.824L546.102 225.263V336.001H574.527Z" fill="#FF6477"/>
<path opacity="0.1" d="M761.462 83.0078C653.103 164.659 531.06 255.574 421.824 336.001C530.18 254.347 652.23 163.44 761.462 83.0078Z" fill="black"/>
<path d="M0.128906 335.999L619.819 70.7678L306.439 46.5257L576.521 17.023L428.106 1.22266L600.935 17.023L370.826 46.2461L761.462 66.218L396.158 335.999H0.128906Z" fill="#FF6477"/>
<path opacity="0.5" d="M0.128906 335.999L619.819 70.7678L306.439 46.5257L576.521 17.023L428.106 1.22266L600.935 17.023L370.826 46.2461L761.462 66.218L396.158 335.999H0.128906Z" fill="white"/>
<path opacity="0.3" d="M546.104 225.261L258.66 225.343L310.103 203.336L575.118 203.821L546.104 225.261Z" fill="#FF6477"/>
<path opacity="0.3" d="M634.741 159.801L698.368 112.812H521.581L411.879 159.766L634.741 159.801Z" fill="#FF6477"/>
</svg>
