<svg width="44" height="44" viewBox="0 0 44 44" fill="none" xmlns="http://www.w3.org/2000/svg">
<g clip-path="url(#clip0_349_10540)">
<path d="M15.125 8.25C14.031 8.25 12.9818 8.6846 12.2082 9.45818C11.4346 10.2318 11 11.281 11 12.375C11 13.469 11.4346 14.5182 12.2082 15.2918C12.9818 16.0654 14.031 16.5 15.125 16.5C16.219 16.5 17.2682 16.0654 18.0418 15.2918C18.8154 14.5182 19.25 13.469 19.25 12.375C19.25 11.281 18.8154 10.2318 18.0418 9.45818C17.2682 8.6846 16.219 8.25 15.125 8.25ZM8.25 12.375C8.25 10.5516 8.97433 8.80295 10.2636 7.51364C11.553 6.22433 13.3016 5.5 15.125 5.5C16.9484 5.5 18.697 6.22433 19.9864 7.51364C21.2757 8.80295 22 10.5516 22 12.375C22 14.1984 21.2757 15.947 19.9864 17.2364C18.697 18.5257 16.9484 19.25 15.125 19.25C13.3016 19.25 11.553 18.5257 10.2636 17.2364C8.97433 15.947 8.25 14.1984 8.25 12.375ZM31.625 11C30.8957 11 30.1962 11.2897 29.6805 11.8055C29.1647 12.3212 28.875 13.0207 28.875 13.75C28.875 14.4793 29.1647 15.1788 29.6805 15.6945C30.1962 16.2103 30.8957 16.5 31.625 16.5C30.1555 16.4989 28.6936 16.712 27.2855 17.1325C26.6523 16.32 26.26 15.3461 26.1532 14.3216C26.0465 13.297 26.2296 12.2631 26.6817 11.3376C27.1338 10.412 27.8368 9.63202 28.7105 9.08643C29.5842 8.54084 30.5936 8.25157 31.6236 8.25157C32.6537 8.25157 33.6631 8.54084 34.5368 9.08643C35.4105 9.63202 36.1134 10.412 36.5655 11.3376C37.0177 12.2631 37.2008 13.297 37.094 14.3216C36.9873 15.3461 36.595 16.32 35.9618 17.1325C34.5545 16.7122 33.0936 16.4992 31.625 16.5C32.3543 16.5 33.0538 16.2103 33.5695 15.6945C34.0853 15.1788 34.375 14.4793 34.375 13.75C34.375 13.0207 34.0853 12.3212 33.5695 11.8055C33.0538 11.2897 32.3543 11 31.625 11ZM19.9568 22H8.25C7.15598 22 6.10677 22.4346 5.33318 23.2082C4.5596 23.9818 4.125 25.031 4.125 26.125V26.433C4.12794 26.559 4.13712 26.6847 4.1525 26.8098C4.30921 28.1429 4.80536 29.4136 5.5935 30.5003C7.1005 32.5765 9.9605 34.375 15.125 34.375C15.6888 34.375 16.225 34.353 16.7393 34.3118C16.5801 33.425 16.5001 32.5259 16.5 31.625V31.5728C16.0425 31.608 15.5838 31.6254 15.125 31.625C10.6645 31.625 8.712 30.1153 7.8155 28.8833C7.31178 28.1876 6.99205 27.376 6.886 26.5238C6.88116 26.4799 6.8775 26.4358 6.875 26.3918V26.125C6.875 25.7603 7.01987 25.4106 7.27773 25.1527C7.53559 24.8949 7.88533 24.75 8.25 24.75H18.15C18.6533 23.7655 19.261 22.8443 19.9568 22ZM31.625 44C34.3399 43.9998 36.9794 43.1067 39.1368 41.4585C41.2941 39.8102 42.8495 37.4983 43.5634 34.8789C44.2773 32.2595 44.11 29.4781 43.0872 26.9632C42.0645 24.4483 40.2431 22.3395 37.9037 20.9618C35.5643 19.5841 32.8368 19.0139 30.1414 19.3391C27.4461 19.6643 24.9324 20.8669 22.9879 22.7615C21.0434 24.6562 19.7759 27.1377 19.3807 29.8237C18.9855 32.5097 19.4846 35.2511 20.801 37.6255L19.3023 42.5453C19.2442 42.74 19.2399 42.9468 19.2898 43.1439C19.3397 43.3409 19.4418 43.5208 19.5855 43.6645C19.7293 43.8082 19.9091 43.9104 20.1061 43.9602C20.3032 44.0101 20.51 44.0058 20.7048 43.9478L25.6273 42.4518C27.462 43.4702 29.5265 44.0031 31.625 44ZM24.75 28.875C24.75 28.5103 24.8949 28.1606 25.1527 27.9027C25.4106 27.6449 25.7603 27.5 26.125 27.5H37.125C37.4897 27.5 37.8394 27.6449 38.0973 27.9027C38.3551 28.1606 38.5 28.5103 38.5 28.875C38.5 29.2397 38.3551 29.5894 38.0973 29.8473C37.8394 30.1051 37.4897 30.25 37.125 30.25H26.125C25.7603 30.25 25.4106 30.1051 25.1527 29.8473C24.8949 29.5894 24.75 29.2397 24.75 28.875ZM26.125 35.75C25.7603 35.75 25.4106 35.6051 25.1527 35.3473C24.8949 35.0894 24.75 34.7397 24.75 34.375C24.75 34.0103 24.8949 33.6606 25.1527 33.4027C25.4106 33.1449 25.7603 33 26.125 33H31.625C31.9897 33 32.3394 33.1449 32.5973 33.4027C32.8551 33.6606 33 34.0103 33 34.375C33 34.7397 32.8551 35.0894 32.5973 35.3473C32.3394 35.6051 31.9897 35.75 31.625 35.75H26.125Z" fill="#FF6477"/>
</g>
<defs>
<clipPath id="clip0_349_10540">
<rect width="44" height="44" fill="white"/>
</clipPath>
</defs>
</svg>
