<svg width="56" height="56" viewBox="0 0 56 56" fill="none" xmlns="http://www.w3.org/2000/svg">
<path d="M40.4916 14.3633C40.5485 14.4202 40.5993 14.4827 40.6433 14.55L44.3346 18.2413V15.1894C44.3345 14.5755 44.2133 13.9676 43.9778 13.4007C43.7424 12.8337 43.3974 12.3188 42.9626 11.8853L38.968 7.90002C36.8902 5.82869 34.0759 4.66571 31.142 4.66602H16.3346C15.097 4.66602 13.91 5.15768 13.0348 6.03285C12.1596 6.90802 11.668 8.09501 11.668 9.33268V9.62902C13.0365 8.6739 14.6658 8.16312 16.3346 8.16602H31.142C33.1486 8.16602 35.0736 8.96168 36.4946 10.3803L40.4916 14.3633ZM6.41797 34.9994C6.8821 34.9994 7.32722 35.1837 7.65541 35.5119C7.98359 35.8401 8.16797 36.2852 8.16797 36.7494V40.8327C8.16797 42.6892 8.90547 44.4697 10.2182 45.7824C11.531 47.0952 13.3115 47.8327 15.168 47.8327H40.8346C42.6912 47.8327 44.4716 47.0952 45.7844 45.7824C47.0971 44.4697 47.8346 42.6892 47.8346 40.8327V36.7494C47.8346 36.2852 48.019 35.8401 48.3472 35.5119C48.6754 35.1837 49.1205 34.9994 49.5846 34.9994C50.0488 34.9994 50.4939 35.1837 50.8221 35.5119C51.1503 35.8401 51.3346 36.2852 51.3346 36.7494V40.8327C51.3346 43.6175 50.2284 46.2882 48.2593 48.2573C46.2901 50.2264 43.6194 51.3327 40.8346 51.3327H15.168C12.3832 51.3327 9.71248 50.2264 7.74335 48.2573C5.77422 46.2882 4.66797 43.6175 4.66797 40.8327V36.7494C4.66797 36.2852 4.85234 35.8401 5.18053 35.5119C5.50872 35.1837 5.95384 34.9994 6.41797 34.9994ZM29.168 11.666V22.7493C29.168 25.0034 30.9973 26.8327 33.2513 26.8327H44.3346V39.666C44.3346 40.9037 43.843 42.0907 42.9678 42.9659C42.0926 43.841 40.9056 44.3327 39.668 44.3327H16.3346C15.097 44.3327 13.91 43.841 13.0348 42.9659C12.1596 42.0907 11.668 40.9037 11.668 39.666V16.3327C11.668 15.095 12.1596 13.908 13.0348 13.0329C13.91 12.1577 15.097 11.666 16.3346 11.666H29.168ZM18.668 20.416C18.668 21.382 19.452 22.166 20.418 22.166H23.918C24.3821 22.166 24.8272 21.9816 25.1554 21.6535C25.4836 21.3253 25.668 20.8801 25.668 20.416C25.668 19.9519 25.4836 19.5068 25.1554 19.1786C24.8272 18.8504 24.3821 18.666 23.918 18.666H20.418C19.9538 18.666 19.5087 18.8504 19.1805 19.1786C18.8523 19.5068 18.668 19.9519 18.668 20.416ZM20.418 25.666C19.9538 25.666 19.5087 25.8504 19.1805 26.1786C18.8523 26.5068 18.668 26.9519 18.668 27.416C18.668 27.8801 18.8523 28.3253 19.1805 28.6535C19.5087 28.9816 19.9538 29.166 20.418 29.166H23.918C24.3821 29.166 24.8272 28.9816 25.1554 28.6535C25.4836 28.3253 25.668 27.8801 25.668 27.416C25.668 26.9519 25.4836 26.5068 25.1554 26.1786C24.8272 25.8504 24.3821 25.666 23.918 25.666H20.418ZM18.668 34.416C18.668 35.382 19.452 36.166 20.418 36.166H23.918C24.3821 36.166 24.8272 35.9816 25.1554 35.6535C25.4836 35.3253 25.668 34.8801 25.668 34.416C25.668 33.9519 25.4836 33.5068 25.1554 33.1786C24.8272 32.8504 24.3821 32.666 23.918 32.666H20.418C19.9538 32.666 19.5087 32.8504 19.1805 33.1786C18.8523 33.5068 18.668 33.9519 18.668 34.416ZM32.668 11.6707V22.7493C32.668 23.0714 32.9293 23.3327 33.2513 23.3327H44.3346L32.668 11.6707Z" fill="#FF6477"/>
</svg>
