<svg width="90" height="90" viewBox="0 0 90 90" fill="none" xmlns="http://www.w3.org/2000/svg">
<rect width="90" height="90" rx="45" fill="#FF5573"/>
<path d="M32.75 27.5C32.2859 27.5 31.8408 27.6844 31.5126 28.0126C31.1844 28.3408 31 28.7859 31 29.25C31 29.7141 31.1844 30.1592 31.5126 30.4874C31.8408 30.8156 32.2859 31 32.75 31H39.75C40.2141 31 40.6593 30.8156 40.9874 30.4874C41.3156 30.1592 41.5 29.7141 41.5 29.25C41.5 28.7859 41.3156 28.3408 40.9874 28.0126C40.6593 27.6844 40.2141 27.5 39.75 27.5H32.75ZM31 36.25C31 35.7859 31.1844 35.3408 31.5126 35.0126C31.8408 34.6844 32.2859 34.5 32.75 34.5H39.75C40.2141 34.5 40.6593 34.6844 40.9874 35.0126C41.3156 35.3408 41.5 35.7859 41.5 36.25C41.5 36.7141 41.3156 37.1592 40.9874 37.4874C40.6593 37.8156 40.2141 38 39.75 38H32.75C32.2859 38 31.8408 37.8156 31.5126 37.4874C31.1844 37.1592 31 36.7141 31 36.25ZM32.75 41.5C32.2859 41.5 31.8408 41.6844 31.5126 42.0126C31.1844 42.3407 31 42.7859 31 43.25C31 43.7141 31.1844 44.1593 31.5126 44.4874C31.8408 44.8156 32.2859 45 32.75 45H39.75C40.2141 45 40.6593 44.8156 40.9874 44.4874C41.3156 44.1593 41.5 43.7141 41.5 43.25C41.5 42.7859 41.3156 42.3407 40.9874 42.0126C40.6593 41.6844 40.2141 41.5 39.75 41.5H32.75ZM46.687 17H46.82C48.395 17.035 49.9 17.6755 51.02 18.7955L64.2045 31.98C65.3389 33.1134 65.9835 34.6465 66 36.25V59.875C66 61.4995 65.3547 63.0574 64.206 64.206C63.0574 65.3547 61.4995 66 59.875 66H30.125C28.5005 66 26.9426 65.3547 25.794 64.206C24.6453 63.0574 24 61.4995 24 59.875V23.125C24 19.744 26.744 17 30.125 17H46.687ZM27.5 23.125V59.875C27.5 61.324 28.676 62.5 30.125 62.5H59.875C60.5712 62.5 61.2389 62.2234 61.7312 61.7312C62.2234 61.2389 62.5 60.5712 62.5 59.875V38H50.25C48.8576 38 47.5223 37.4469 46.5377 36.4623C45.5531 35.4777 45 34.1424 45 32.75V20.5H30.125C29.4288 20.5 28.7611 20.7766 28.2688 21.2688C27.7766 21.7611 27.5 22.4288 27.5 23.125ZM48.5 32.75C48.5 33.2141 48.6844 33.6592 49.0126 33.9874C49.3408 34.3156 49.7859 34.5 50.25 34.5H61.7755L61.73 34.4545L48.5455 21.27L48.5 21.2245V32.75ZM20.5 57.25C20.5 56.7859 20.3156 56.3408 19.9874 56.0126C19.6592 55.6844 19.2141 55.5 18.75 55.5C18.2859 55.5 17.8408 55.6844 17.5126 56.0126C17.1844 56.3408 17 56.7859 17 57.25V60.75C17 63.9989 18.2906 67.1147 20.5879 69.4121C22.8853 71.7094 26.0011 73 29.25 73H60.75C63.9989 73 67.1147 71.7094 69.4121 69.4121C71.7094 67.1147 73 63.9989 73 60.75V57.25C73 56.7859 72.8156 56.3408 72.4874 56.0126C72.1592 55.6844 71.7141 55.5 71.25 55.5C70.7859 55.5 70.3408 55.6844 70.0126 56.0126C69.6844 56.3408 69.5 56.7859 69.5 57.25V60.75C69.5 63.0706 68.5781 65.2962 66.9372 66.9372C65.2962 68.5781 63.0706 69.5 60.75 69.5H29.25C26.9294 69.5 24.7038 68.5781 23.0628 66.9372C21.4219 65.2962 20.5 63.0706 20.5 60.75V57.25Z" fill="white"/>
</svg>
