<svg width="90" height="90" viewBox="0 0 90 90" fill="none" xmlns="http://www.w3.org/2000/svg">
<rect width="90" height="90" rx="45" fill="#FF5573"/>
<path d="M56.0047 11.6233C50.9312 10.1757 45.632 13.1108 44.1844 18.1843L43.4273 20.8405C42.9359 22.5671 42.0461 24.1608 40.8375 25.489L34.0242 32.9796C32.8422 34.2812 32.9352 36.2999 34.2367 37.4819C35.5383 38.664 37.557 38.571 38.7391 37.2694L45.5523 29.7788C47.425 27.7202 48.793 25.2632 49.55 22.5937L50.307 19.9374C50.7852 18.2507 52.5516 17.2679 54.2516 17.746C55.9516 18.2241 56.9211 19.9905 56.443 21.6905L55.6859 24.3468C54.9289 26.9897 53.7336 29.4866 52.1531 31.7179C51.4625 32.6874 51.3828 33.9624 51.9273 35.0249C52.4719 36.0874 53.5609 36.7515 54.7562 36.7515H72.5C73.6688 36.7515 74.625 37.7077 74.625 38.8765C74.625 39.7796 74.0539 40.5632 73.2438 40.8687C72.2609 41.2405 71.5172 42.064 71.2648 43.0866C71.0125 44.1093 71.2781 45.1851 71.9688 45.9687C72.3008 46.3405 72.5 46.8319 72.5 47.3765C72.5 48.4124 71.7562 49.2757 70.7734 49.4616C69.6844 49.6741 68.768 50.4312 68.3828 51.4804C67.9977 52.5296 68.1703 53.6983 68.8609 54.5749C69.1398 54.9335 69.3125 55.3851 69.3125 55.8897C69.3125 56.7796 68.7547 57.5632 67.9578 57.8687C66.4305 58.4663 65.607 60.1132 66.0453 61.6937C66.0984 61.8663 66.125 62.0655 66.125 62.2647C66.125 63.4335 65.1688 64.3897 64 64.3897H51.0508C49.3773 64.3897 47.7305 63.8983 46.3359 62.9687L38.1414 57.5101C36.6805 56.5272 34.7016 56.9257 33.7188 58.3999C32.7359 59.8741 33.1344 61.8397 34.6086 62.8226L42.8031 68.2812C45.2469 69.9147 48.1156 70.778 51.0508 70.778H64C68.6086 70.778 72.3539 67.1124 72.5 62.5437C74.4391 60.9897 75.6875 58.5991 75.6875 55.903C75.6875 55.3054 75.6211 54.7343 75.5148 54.1765C77.5602 52.6226 78.875 50.1655 78.875 47.403C78.875 46.5397 78.7422 45.703 78.5031 44.9194C80.0438 43.3522 81 41.2272 81 38.8765C81 34.1882 77.2016 30.3765 72.5 30.3765H60.2414C60.8656 28.9952 61.3969 27.5608 61.8086 26.0999L62.5656 23.4437C64.0133 18.3702 61.0781 13.071 56.0047 11.6233ZM17.25 32.5015C14.8992 32.5015 13 34.4007 13 36.7515V66.5015C13 68.8522 14.8992 70.7515 17.25 70.7515H25.75C28.1008 70.7515 30 68.8522 30 66.5015V36.7515C30 34.4007 28.1008 32.5015 25.75 32.5015H17.25Z" fill="white"/>
</svg>
