<svg width="124" height="132" viewBox="0 0 124 132" fill="none" xmlns="http://www.w3.org/2000/svg">
<path d="M54.0133 31.7594C59.4513 29.2119 62.8124 28.4895 68.9218 27.9969L67.4576 29.6471L67.1913 31.5614L69.9867 33.6077C72.6023 35.5816 73.8858 36.8073 74.7121 39.9446V50.044C75.0344 49.82 75.275 49.8339 75.777 50.044C76.6473 51.1839 76.7745 51.8607 76.3095 53.2124C75.8672 54.5829 75.6105 55.3395 75.178 56.7109C74.836 57.4634 74.6169 57.8404 74.0466 58.2291C73.7519 62.1763 73.213 64.3186 70.5191 67.8004L71.1847 73.8073C72.6331 73.9429 73.2721 74.1755 73.0483 75.8535C73.3313 78.5591 74.0568 79.7805 76.975 81.0683L94.4792 86.283C96.3543 87.013 97.1643 87.7214 98.0732 89.6495L102 95.9863C98.3545 96.4344 96.3142 96.7045 92.8153 97.9666L79.97 103.115C73.6733 105.821 69.7995 106.957 62 108C55.6113 107.134 52.256 106.105 46.426 103.907L37.3744 99.6828C31.1661 96.9543 27.8541 96.5092 22 96.0523L24.995 88.4613C25.4272 86.9027 25.8998 86.3272 27.1913 85.8869L36.3095 83.1806L46.426 79.9461C48.3542 78.4141 48.9792 77.3062 49.0882 74.7974V73.8073C49.3399 73.2997 49.5309 73.0755 50.1531 73.0152C50.6907 72.8362 50.8363 72.7114 51.0849 72.4871L51.2845 71.4969L51.817 66.7443C50.7424 65.0016 50.0282 64.1139 49.3544 62.0576L48.0233 57.173C47.8804 57.2446 47.8279 57.2376 47.7571 57.173C47.303 56.482 47.3259 56.1205 47.1581 55.4567C46.513 54.2001 46.1991 53.3996 45.6938 51.8262C45.6246 51.23 45.5898 50.8942 45.6938 50.11C46.1271 49.1118 46.5428 49.1015 47.3577 49.3179L47.4243 41.0007C47.5525 38.5281 47.9172 37.2427 49.6206 35.3239C50.79 33.8739 51.8537 33.1056 54.0133 31.7594Z" fill="#FF6477"/>
<path d="M40.1032 52.0904C40.1133 50.3256 40.2806 49.3692 41.5674 47.8658V42.255C41.7726 39.2699 42.3102 37.8632 43.4309 35.4561C44.7277 32.0568 46.2937 30.5313 49.3544 27.931C52.0113 25.9649 53.6669 25.1096 57.1414 24.3665C60.9235 23.7953 63.1142 23.8192 67.1248 24.9606C70.7226 26.3427 72.4078 27.5758 75.178 30.1093C76.7534 32.1847 77.6112 33.3687 78.772 35.7201C79.8495 38.2998 80.1262 39.7764 80.2363 42.453L80.3694 48.0638C81.0468 48.9676 81.3623 49.5685 81.7005 50.9682C81.8877 52.1586 81.8828 52.9002 81.5674 54.4007C80.6463 56.1106 80.0855 56.5905 79.0383 56.975L77.9734 62.2558C78.557 62.847 78.6079 63.2321 78.3062 64.038C78.0428 64.5807 77.7693 64.7934 77.1747 65.0942C76.2972 65.1659 75.9239 65.0579 75.5108 64.5001C75.0414 63.8398 75.0218 63.4807 75.1115 62.8499C75.3181 62.2216 75.5396 62.0316 76.0433 61.8597L77.1747 55.8529C76.738 55.1749 76.5657 54.8386 76.5092 54.4007C76.3687 52.8799 76.4189 52.0745 76.5092 50.6382C76.6274 49.5721 76.8706 48.9621 77.9734 47.7998V42.519C77.7922 40.0692 77.8403 39.1527 76.5092 36.7102C75.178 34.2678 74.583 33.1276 72.9151 31.4295C71.0233 29.4578 70.0734 28.7798 68.3894 27.601C64.7339 25.8214 62.6519 25.9321 58.9384 26.2148C54.0215 27.0426 52.5256 28.2517 49.6872 30.3073C45.9529 33.9978 44.9683 36.3511 43.9634 40.7368C43.6238 43.7785 43.5803 45.3671 43.9634 47.8658C45.0926 49.2682 45.3807 50.1945 45.2945 52.0904C45.2996 53.4636 45.2539 54.2365 44.4293 55.6549C43.0227 57.2633 42.2243 57.2014 40.9684 55.6549C40.3593 54.3714 40.2072 53.5758 40.1032 52.0904Z" fill="#FF6477"/>
</svg>
