<svg width="124" height="132" viewBox="0 0 124 132" fill="none" xmlns="http://www.w3.org/2000/svg">
<path d="M77.8147 81.7527C78.4272 81.2767 78.9838 80.7202 80.0933 79.6107L93.9428 65.7577C94.2788 65.4252 94.1248 64.8477 93.6803 64.6902C91.5131 63.9349 89.5456 62.6975 87.9263 61.0712C86.3 59.4518 85.0626 57.4844 84.3073 55.3172C84.1498 54.8727 83.5723 54.7187 83.2398 55.0547L69.3832 68.9042C68.2737 70.0137 67.7173 70.5702 67.2413 71.1827C66.6778 71.9072 66.1913 72.6877 65.7993 73.5137C65.4668 74.2137 65.2183 74.9627 64.7213 76.4537L64.0773 78.3787L63.0553 81.4412L62.0998 84.3112C61.9806 84.6709 61.9638 85.0567 62.0512 85.4254C62.1386 85.7941 62.3268 86.1313 62.5948 86.3992C62.8627 86.6672 63.1999 86.8553 63.5686 86.9428C63.9373 87.0302 64.323 87.0134 64.6828 86.8942L67.5528 85.9387L70.6153 84.9167L72.5403 84.2727C74.0313 83.7757 74.7803 83.5307 75.4803 83.1947C76.3063 82.7992 77.0937 82.3197 77.8147 81.7527ZM98.2828 61.4212C99.7025 60.001 100.5 58.0749 100.5 56.0667C100.499 54.0585 99.7012 52.1327 98.281 50.713C96.8608 49.2932 94.9347 48.4958 92.9265 48.4961C90.9183 48.4964 88.9925 49.2945 87.5727 50.7147L87.1318 51.1627C86.9199 51.3716 86.762 51.6289 86.6717 51.9125C86.5815 52.196 86.5616 52.4973 86.6138 52.7902C86.6838 53.1647 86.8063 53.7177 87.0338 54.3722C87.4888 55.6847 88.3498 57.4067 89.9703 59.0272C91.2791 60.3465 92.8709 61.3506 94.6253 61.9637C95.2833 62.1912 95.8328 62.3137 96.2073 62.3837C96.5002 62.4356 96.8014 62.4155 97.0848 62.3253C97.3683 62.2351 97.6257 62.0774 97.8348 61.8657L98.2828 61.4212Z" fill="#FF6477"/>
<path fill-rule="evenodd" clip-rule="evenodd" d="M34.602 35.102C30.5 39.2005 30.5 45.8015 30.5 59V73C30.5 86.1985 30.5 92.7995 34.602 96.898C38.7005 101 45.3015 101 58.5 101H65.5C78.6985 101 85.2995 101 89.398 96.898C93.4335 92.866 93.5 86.412 93.5 73.63L83.637 83.493C82.692 84.438 81.9185 85.2115 81.047 85.894C80.023 86.6921 78.9152 87.3763 77.743 87.9345C76.6683 88.4164 75.5649 88.8313 74.439 89.177L66.347 91.8755C65.0624 92.3039 63.6839 92.3661 62.366 92.055C61.0481 91.744 59.8429 91.0721 58.8854 90.1146C57.9279 89.1571 57.256 87.9519 56.945 86.634C56.6339 85.316 56.6961 83.9376 57.1245 82.653L58.0835 79.783L59.746 74.792L59.8195 74.561C60.243 73.294 60.5895 72.258 61.0655 71.257C61.6255 70.0845 62.308 68.9785 63.106 67.9565C63.7885 67.0815 64.562 66.3115 65.507 65.3665L79.528 51.342L83.42 47.45L83.8645 47.0055C85.0539 45.8127 86.4675 44.8668 88.0238 44.2223C89.5801 43.5778 91.2485 43.2474 92.933 43.25C92.4045 39.645 91.379 37.0795 89.398 35.102C85.2995 31 78.6985 31 65.5 31H58.5C45.3015 31 38.7005 31 34.602 35.102ZM45.375 55.5C45.375 54.8038 45.6516 54.1361 46.1438 53.6438C46.6361 53.1516 47.3038 52.875 48 52.875H70.75C71.4462 52.875 72.1139 53.1516 72.6062 53.6438C73.0984 54.1361 73.375 54.8038 73.375 55.5C73.375 56.1962 73.0984 56.8639 72.6062 57.3562C72.1139 57.8484 71.4462 58.125 70.75 58.125H48C47.3038 58.125 46.6361 57.8484 46.1438 57.3562C45.6516 56.8639 45.375 56.1962 45.375 55.5ZM45.375 69.5C45.375 68.8038 45.6516 68.1361 46.1438 67.6438C46.6361 67.1516 47.3038 66.875 48 66.875H56.75C57.4462 66.875 58.1139 67.1516 58.6062 67.6438C59.0984 68.1361 59.375 68.8038 59.375 69.5C59.375 70.1962 59.0984 70.8639 58.6062 71.3562C58.1139 71.8484 57.4462 72.125 56.75 72.125H48C47.3038 72.125 46.6361 71.8484 46.1438 71.3562C45.6516 70.8639 45.375 70.1962 45.375 69.5ZM45.375 83.5C45.375 82.8038 45.6516 82.1361 46.1438 81.6438C46.6361 81.1516 47.3038 80.875 48 80.875H53.25C53.9462 80.875 54.6139 81.1516 55.1062 81.6438C55.5984 82.1361 55.875 82.8038 55.875 83.5C55.875 84.1962 55.5984 84.8639 55.1062 85.3562C54.6139 85.8484 53.9462 86.125 53.25 86.125H48C47.3038 86.125 46.6361 85.8484 46.1438 85.3562C45.6516 84.8639 45.375 84.1962 45.375 83.5Z" fill="#FF6477"/>
</svg>
