<svg width="124" height="132" viewBox="0 0 124 132" fill="none" xmlns="http://www.w3.org/2000/svg">
<path d="M55.3053 34.4897C57.3179 33.2476 59.6362 32.5898 62.0013 32.5898C64.3663 32.5898 66.6847 33.2476 68.6973 34.4897L98.4333 52.8377C98.7557 53.0365 99.0227 53.3135 99.2096 53.643C99.3964 53.9725 99.4971 54.3439 99.5022 54.7227C99.5072 55.1014 99.4166 55.4754 99.2387 55.8098C99.0607 56.1442 98.8012 56.4283 98.4843 56.6357L68.9793 75.9257C66.9048 77.2822 64.4799 78.0047 62.0013 78.0047C59.5226 78.0047 57.0977 77.2822 55.0233 75.9257L29.0013 58.9157V77.2547C29.0013 77.8514 28.7642 78.4237 28.3422 78.8457C27.9203 79.2676 27.348 79.5047 26.7513 79.5047C26.1545 79.5047 25.5822 79.2676 25.1603 78.8457C24.7383 78.4237 24.5013 77.8514 24.5013 77.2547V55.5017C24.5013 55.3727 24.5133 55.2467 24.5313 55.1267C24.4569 54.6852 24.5159 54.2315 24.7009 53.8237C24.8858 53.416 25.1881 53.0726 25.5693 52.8377L55.3053 34.4897ZM38.0013 70.1717L52.5603 79.6907C55.3669 81.5261 58.6477 82.5036 62.0013 82.5036C65.3548 82.5036 68.6356 81.5261 71.4423 79.6907L86.0013 70.1747V84.7517C86.0013 85.6487 85.5153 86.1887 84.9423 86.7497C84.6572 87.0257 84.2493 87.4097 83.7153 87.8657C82.2707 89.098 80.7253 90.2069 79.0953 91.1807C75.0993 93.5807 69.2643 96.0017 62.0013 96.0017C54.7413 96.0017 48.9033 93.5807 44.9073 91.1807C43.2772 90.2069 41.7318 89.098 40.2873 87.8657C39.8654 87.507 39.4552 87.1348 39.0573 86.7497C38.4873 86.1887 38.0013 85.6487 38.0013 84.7517V70.1717Z" fill="#FF6477"/>
</svg>
