<svg width="359" height="306" viewBox="0 0 359 306" fill="none" xmlns="http://www.w3.org/2000/svg">
<path d="M138.224 0H133.676V97.7767H138.224V0Z" fill="#E0E0E0"/>
<path d="M67.7109 0.823611V97.8492C67.7109 97.8856 67.7403 97.915 67.7767 97.915H132.922C132.959 97.915 132.988 97.8856 132.988 97.8492V0.823611C132.988 0.787211 132.959 0.757812 132.922 0.757812H67.776C67.7403 0.757812 67.7109 0.787911 67.7109 0.823611Z" fill="#F5F5F5"/>
<path d="M133.677 98.6692H67.0189C66.9825 98.6692 66.9531 98.6398 66.9531 98.6034V0.0658012C66.9531 0.0294012 66.9825 0 67.0189 0H133.677C133.714 0 133.743 0.0294012 133.743 0.0658012V98.6034C133.743 98.6398 133.714 98.6692 133.677 98.6692ZM68.5316 97.1565H132.164C132.201 97.1565 132.23 97.1271 132.23 97.0907V1.5785C132.23 1.5421 132.201 1.5127 132.164 1.5127H68.5316C68.4952 1.5127 68.4658 1.5421 68.4658 1.5785V97.0914C68.4658 97.1271 68.4952 97.1565 68.5316 97.1565Z" fill="#EBEBEB"/>
<path d="M74.2812 6.8158V91.7895C74.2812 91.8259 74.3107 91.8553 74.3471 91.8553H126.462C126.498 91.8553 126.528 91.8259 126.528 91.7895V6.8158C126.528 6.7794 126.498 6.75 126.462 6.75H74.3471C74.3107 6.75 74.2812 6.7794 74.2812 6.8158Z" fill="white"/>
<path d="M114.97 65.2622H85.7245C85.7 65.2622 85.6797 65.2419 85.6797 65.2174V30.9237C85.6797 30.8985 85.7 30.8789 85.7245 30.8789H114.97C114.996 30.8789 115.015 30.8992 115.015 30.9237V65.2181C115.015 65.2426 114.996 65.2622 114.97 65.2622Z" fill="#EBEBEB"/>
<path d="M112.695 61.052C112.733 61.1626 111.286 61.7968 108.53 61.4734C107.174 61.2893 105.485 60.8014 103.848 59.6023C102.246 58.4025 100.725 56.467 100.21 53.8805C99.6754 51.3143 100.534 48.1153 102.993 46.0587C103.604 45.5484 104.314 45.1179 105.103 44.8225C105.94 44.5117 106.844 44.4088 107.742 44.5187C108.634 44.6279 109.58 44.9387 110.38 45.6709C111.188 46.4045 111.631 47.6428 111.42 48.7446C111.229 49.8569 110.623 50.7095 109.972 51.3829C109.3 52.0689 108.538 52.5764 107.762 53.0111C106.184 53.8826 104.38 54.4286 102.489 54.5168C100.607 54.6071 98.6177 54.2207 96.8712 53.2379C95.1408 52.2663 93.6617 50.7935 92.7363 48.9518C91.7983 47.1318 91.5001 44.924 91.9943 42.9493C92.4703 40.9816 93.5882 39.2225 95.1583 38.0038C95.9465 37.3934 96.8376 36.9419 97.8106 36.6647C98.7906 36.4134 99.8007 36.3665 100.797 36.5716C101.782 36.7788 102.79 37.2632 103.507 38.1004C104.235 38.9299 104.56 40.0135 104.57 40.9963C104.585 41.9847 104.316 42.9486 103.863 43.755C103.418 44.5642 102.82 45.2201 102.19 45.7661C100.921 46.8406 99.4962 47.5476 98.0339 47.9746C96.573 48.3946 95.0736 48.5052 93.6617 48.312C92.254 48.1132 90.9282 47.5952 89.8565 46.8546C87.6942 45.3874 86.4447 43.1579 86.2221 41.0978C85.9771 39.0006 86.7443 37.28 87.5689 36.1628C88.4166 35.0232 89.3903 34.4401 90.0595 34.1734C90.7448 33.9137 91.1354 33.9228 91.1522 33.9879C91.1809 34.081 90.8421 34.2322 90.2863 34.6032C89.7424 34.9812 88.9731 35.6182 88.3494 36.685C87.7404 37.7308 87.2378 39.2484 87.5563 40.9004C87.8461 42.5468 88.9724 44.3157 90.7875 45.4259C92.5648 46.555 95.0582 46.8462 97.4529 46.0608C98.6394 45.6779 99.8217 45.0381 100.788 44.1736C101.747 43.3133 102.401 42.2059 102.347 41.0481C102.316 39.8868 101.584 39.0678 100.339 38.8298C99.7321 38.7115 99.051 38.7493 98.421 38.9201C97.7952 39.1112 97.1589 39.4304 96.6108 39.8679C95.5041 40.7387 94.6662 42.0603 94.3288 43.5044C93.9816 44.9471 94.1888 46.4766 94.8888 47.8633C95.5783 49.2465 96.727 50.3987 98.0451 51.1442C99.3576 51.8918 100.885 52.2103 102.388 52.1543C103.893 52.1004 105.37 51.6755 106.659 50.9867C107.31 50.6346 107.91 50.2384 108.363 49.7855C108.827 49.3319 109.15 48.8139 109.228 48.3764C109.312 47.9333 109.177 47.5483 108.878 47.2424C108.564 46.9309 108.029 46.6957 107.466 46.6201C106.899 46.534 106.313 46.5872 105.803 46.7615C105.241 46.954 104.718 47.2466 104.253 47.6106C103.322 48.34 102.623 49.3389 102.232 50.3945C101.834 51.4529 101.74 52.5477 101.892 53.5921C102.202 55.69 103.383 57.426 104.687 58.5439C106.016 59.6681 107.483 60.2463 108.705 60.5494C111.186 61.1283 112.676 60.8427 112.695 61.052Z" fill="#E0E0E0"/>
<path d="M310.184 285.292C309.312 284.561 307.367 282.245 308.867 279.55C309.418 278.562 310.585 278.073 311.642 277.638C312.699 277.203 313.81 276.825 314.685 276.097C316.334 274.725 316.79 272.445 317.885 270.614C319.142 268.513 321.488 266.938 323.967 267.048C326.806 267.174 329.173 269.442 330.246 272.027C331.319 274.612 331.357 277.482 331.379 280.273C331.391 281.817 331.321 283.557 330.162 284.599C329.094 285.561 327.485 285.572 326.037 285.529C320.866 285.374 315.695 285.218 310.524 285.063" fill="#F5F5F5"/>
<path d="M339.855 243.578H299.059L306.407 286.426C306.729 288.298 308.113 289.74 309.89 290.241C309.937 290.256 309.986 290.266 310.033 290.279C310.154 290.309 310.272 290.35 310.397 290.371C310.665 290.426 310.944 290.453 311.226 290.464C311.228 290.477 311.231 290.492 311.233 290.505L311.432 290.475C311.432 290.475 311.432 290.475 311.433 290.475H329.616C329.958 290.475 330.291 290.44 330.615 290.377C332.762 290.053 334.481 288.368 334.742 286.189L338.285 256.666L338.444 255.492H338.425L339.828 243.8L339.855 243.578ZM332.16 270.91H327.973L328.395 258.475H333.246L332.16 270.91ZM333.652 258.475H337.66L336.168 270.91H332.565L333.652 258.475ZM321.691 284.695L321.436 273.892H327.465L327.098 284.695H321.691ZM315.173 273.892H321.032L321.286 284.695H316.031L315.173 273.892ZM315.626 284.695H310.714C310.247 281.779 309.64 277.988 308.982 273.892H314.767L315.626 284.695ZM314.936 270.91L313.948 258.475H320.668L320.961 270.91H314.936ZM321.366 270.91L321.073 258.475H327.989L327.566 270.91H321.366ZM321.004 255.492L320.732 243.976H328.482L328.09 255.492H321.004ZM320.598 255.492H313.711L312.796 243.976H320.327L320.598 255.492ZM313.305 255.492H306.018C305.76 253.902 305.515 252.396 305.294 251.042C304.534 246.386 304.248 244.634 304.09 243.976H312.389L313.305 255.492ZM313.542 258.475L314.531 270.91H308.504C308.301 269.648 308.096 268.372 307.891 267.095C307.419 264.16 306.946 261.224 306.501 258.475H313.542ZM308.094 270.91H304.157L302.024 258.475H306.091C306.712 262.318 307.401 266.595 308.094 270.91ZM308.573 273.892C309.173 277.63 309.764 281.317 310.304 284.695H306.521L304.668 273.892H308.573ZM327.504 284.695L327.871 273.892H331.899L330.955 284.695H327.504ZM328.496 255.492L328.888 243.976H334.513L333.507 255.492H328.496ZM303.704 243.976C303.866 244.809 304.61 249.34 305.608 255.492H301.513L299.537 243.976H303.704ZM334.514 284.695H331.361L332.305 273.892H335.811L334.514 284.695ZM338.018 255.492H333.912L334.919 243.976H339.4L338.018 255.492Z" fill="#E0E0E0"/>
<path d="M358.936 290.433C358.936 290.467 286.937 290.494 198.143 290.494C109.318 290.494 37.3359 290.467 37.3359 290.433C37.3359 290.398 109.319 290.371 198.143 290.371C286.937 290.371 358.936 290.398 358.936 290.433Z" fill="#263238"/>
<path d="M84.7658 98.2599L82.3627 94.0424C83.2853 91.3019 83.4855 88.28 82.7855 85.256C80.7723 76.5592 72.0895 71.1412 63.3927 73.1544C54.6959 75.1676 49.2779 83.8504 51.2911 92.5472C53.3043 101.244 61.9864 106.662 70.6839 104.649C74.3155 103.808 77.3717 101.802 79.5578 99.1202L79.5543 99.1286L84.7658 98.2599Z" fill="white"/>
<path d="M84.7667 98.2614C84.773 98.2642 84.6659 98.2859 84.4482 98.3272C84.2102 98.3713 83.8847 98.4315 83.4661 98.5085C82.5631 98.6702 81.2583 98.904 79.5678 99.2064C79.5251 99.2141 79.4852 99.1861 79.4775 99.1434C79.4747 99.1273 79.4775 99.1098 79.4838 99.0965L79.4873 99.0881L79.6196 99.1707C78.3106 100.795 76.2456 102.709 73.2433 103.959C71.7544 104.594 70.0352 105.009 68.1809 105.147C66.3287 105.286 64.3288 105.114 62.3387 104.517C60.3507 103.923 58.3774 102.907 56.6316 101.463C54.8865 100.024 53.3738 98.1543 52.3175 95.9689C50.1706 91.6275 50.0775 85.919 52.6339 81.2115C53.9163 78.8315 55.7377 76.7882 57.9119 75.3616C60.0693 73.9126 62.5123 73.0243 64.9497 72.7002C67.392 72.3852 69.8182 72.6575 71.9966 73.361C74.1799 74.0638 76.1182 75.1985 77.6995 76.5719C80.8824 79.3369 82.5722 82.9685 83.0867 86.1535C83.6257 89.3693 83.1077 92.1273 82.4357 94.0677L82.4301 94.0061C83.191 95.3823 83.7804 96.4477 84.1899 97.1883C84.3768 97.5313 84.5224 97.798 84.6302 97.9947C84.7261 98.1746 84.773 98.2642 84.7667 98.2614C84.7604 98.2586 84.7023 98.1634 84.5924 97.98C84.4755 97.7826 84.3166 97.5152 84.1122 97.1722C83.6901 96.4533 83.0825 95.418 82.2978 94.0817C82.2866 94.0628 82.2859 94.039 82.2922 94.0201C82.9285 92.0874 83.4087 89.3581 82.8522 86.1941C82.3195 83.0581 80.6353 79.5028 77.5 76.8029C75.9418 75.4617 74.0371 74.3571 71.8958 73.6753C69.7587 72.9935 67.3843 72.7331 64.9945 73.046C62.6089 73.368 60.2212 74.2416 58.1135 75.6598C55.9883 77.0563 54.2096 79.0562 52.9552 81.383C50.4562 85.9855 50.5402 91.5631 52.6325 95.8177C54.6912 100.128 58.5356 103.069 62.4276 104.223C64.3778 104.818 66.3406 104.997 68.1613 104.871C69.9848 104.746 71.6802 104.35 73.1516 103.736C76.1182 102.528 78.1776 100.661 79.4978 99.072C79.5251 99.0384 79.5741 99.0328 79.6084 99.0601C79.6371 99.0832 79.6448 99.1224 79.6301 99.1546L79.6266 99.163L79.5426 99.0531C81.2163 98.7955 82.5085 98.596 83.4024 98.4588C83.8329 98.3944 84.1668 98.3447 84.4118 98.3083C84.6407 98.274 84.7667 98.2614 84.7667 98.2614Z" fill="#263238"/>
<path d="M62.5227 88.8922C62.5227 89.7994 61.7877 90.5344 60.8805 90.5344C59.9733 90.5344 59.2383 89.7994 59.2383 88.8922C59.2383 87.9857 59.9733 87.25 60.8805 87.25C61.7877 87.25 62.5227 87.9857 62.5227 88.8922Z" fill="#263238"/>
<path d="M69.093 88.8922C69.093 89.7994 68.358 90.5344 67.4508 90.5344C66.5436 90.5344 65.8086 89.7994 65.8086 88.8922C65.8086 87.9857 66.5436 87.25 67.4508 87.25C68.358 87.25 69.093 87.9857 69.093 88.8922Z" fill="#263238"/>
<path d="M75.6503 88.0713C76.1039 88.8567 75.8344 89.8612 75.049 90.3141C74.2636 90.7677 73.2591 90.4982 72.8062 89.7128C72.3526 88.9274 72.6221 87.9229 73.4075 87.47C74.1929 87.0171 75.1967 87.2859 75.6503 88.0713Z" fill="#263238"/>
<path d="M135.041 120.668C135.041 120.668 134.699 123.889 134.089 125.381C133.478 126.874 132.558 127.395 132.594 129.702C132.629 132.01 132.558 134.492 132.558 134.492C132.558 134.492 129.157 139.275 129.386 139.294C129.615 139.314 135.472 144.995 135.472 144.995L140.983 135.966L148.921 127.396L150.833 119.238L150.343 118.759L150.355 117.261C150.355 117.261 149.132 115.913 148.239 117.474C148.239 117.474 147.846 115.54 146.283 117.418C144.721 119.296 142.204 123.716 141.938 123.855C141.673 123.993 138.537 126.47 138.537 126.47L136.756 126.827C136.756 126.827 137.787 125.531 137.728 124.051C137.668 122.571 138.294 121.449 137.19 120.595C136.086 119.743 135.041 120.668 135.041 120.668Z" fill="#FFBF9D"/>
<path d="M137.763 131.683C137.782 131.699 137.94 131.536 138.243 131.267C138.56 131.01 139.04 130.664 139.692 130.314C140.994 129.619 142.943 128.879 145.207 128.315L145.262 128.302L145.296 128.259C145.563 127.926 145.843 127.577 146.128 127.22C146.268 127.047 146.405 126.874 146.541 126.704L146.576 126.661L146.576 126.611C146.593 125.711 146.609 124.845 146.624 124.026C146.623 123.64 146.706 123.266 146.915 123.013C147.118 122.756 147.474 122.663 147.768 122.69L147.661 122.598C148.415 124.985 149.049 126.505 149.14 126.462C149.16 126.449 149.002 126.08 148.79 125.391C148.572 124.706 148.269 123.719 147.915 122.521L147.891 122.438L147.809 122.428C147.423 122.382 146.986 122.488 146.697 122.826C146.414 123.158 146.324 123.604 146.318 124.025C146.297 124.84 146.275 125.701 146.253 126.597L146.288 126.504C146.151 126.674 146.013 126.846 145.875 127.02C145.591 127.376 145.311 127.726 145.045 128.06L145.133 128.004C142.838 128.587 140.887 129.369 139.586 130.128C138.937 130.509 138.463 130.892 138.164 131.182C137.878 131.484 137.75 131.673 137.763 131.683Z" fill="#FF9A6C"/>
<path d="M144.071 124.754C144.15 124.797 145.114 123.185 146.224 121.155C147.334 119.123 148.171 117.443 148.092 117.399C148.013 117.357 147.049 118.968 145.939 120.999C144.83 123.029 143.993 124.711 144.071 124.754Z" fill="#FF9A6C"/>
<path d="M148.239 122.39C148.284 122.397 148.359 122.145 148.459 121.74C148.562 121.338 148.689 120.779 148.951 120.223C149.212 119.67 149.588 119.25 149.91 119.016C150.23 118.776 150.479 118.697 150.466 118.648C150.46 118.611 150.177 118.61 149.786 118.823C149.397 119.031 148.944 119.477 148.658 120.085C148.374 120.69 148.28 121.282 148.233 121.7C148.19 122.122 148.195 122.384 148.239 122.39Z" fill="#FF9A6C"/>
<path d="M141.547 124.873C141.55 124.971 142.601 124.875 143.718 125.424C144.847 125.951 145.431 126.83 145.51 126.77C145.543 126.75 145.446 126.499 145.178 126.161C144.912 125.825 144.455 125.419 143.858 125.132C143.26 124.847 142.658 124.745 142.229 124.75C141.798 124.753 141.541 124.835 141.547 124.873Z" fill="#FF9A6C"/>
<path d="M85.1675 268.82H92.8438V227.76H85.1675V268.82Z" fill="#E0E0E0"/>
<path d="M116.467 221.148C116.342 221.148 92.843 228.523 92.843 228.523H85.1668L58.2266 221.148H116.467Z" fill="#E0E0E0"/>
<path d="M121.609 283.387C121.609 283.387 118.057 272.542 113.16 269.92C105.29 265.705 87.156 263.688 87.156 263.688L85.168 268.82C85.168 268.82 109.355 269.77 113.16 274.652C116.674 279.159 119.233 283.388 119.233 283.388L121.609 283.387Z" fill="#E0E0E0"/>
<path d="M122.232 289.034C124.238 287.028 124.238 283.776 122.232 281.77C120.226 279.764 116.974 279.764 114.968 281.77C112.962 283.776 112.962 287.028 114.968 289.034C116.974 291.04 120.226 291.04 122.232 289.034Z" fill="#263238"/>
<path d="M56.0508 283.177C56.0508 283.177 59.6026 272.332 64.4998 269.709C72.3692 265.495 90.5034 263.477 90.5034 263.477L92.4914 268.609C92.4914 268.609 68.3043 269.56 64.4991 274.441C60.9851 278.948 58.4266 283.177 58.4266 283.177H56.0508Z" fill="#E0E0E0"/>
<path d="M61.0799 289.034C63.0858 287.028 63.0858 283.776 61.0799 281.77C59.0739 279.764 55.8216 279.764 53.8157 281.77C51.8097 283.776 51.8097 287.028 53.8157 289.034C55.8216 291.04 59.0739 291.04 61.0799 289.034Z" fill="#263238"/>
<path d="M91.6528 266.441L90.5279 280.393L87.3555 281.02V266.441" fill="#E0E0E0"/>
<path d="M93.6723 286.567C94.3219 283.806 92.61 281.041 89.8486 280.391C87.0872 279.742 84.322 281.453 83.6724 284.215C83.0227 286.976 84.7346 289.741 87.496 290.391C90.2575 291.041 93.0227 289.329 93.6723 286.567Z" fill="#263238"/>
<path d="M85.3477 228.686C85.3477 228.775 86.9857 228.848 89.0059 228.848C91.0268 228.848 92.6648 228.775 92.6648 228.686C92.6648 228.596 91.0268 228.523 89.0059 228.523C86.9864 228.524 85.3477 228.597 85.3477 228.686Z" fill="#263238"/>
<path d="M85.2005 264.56C85.148 264.617 86.7076 265.532 88.8734 265.577C91.0392 265.645 92.6443 264.812 92.5946 264.752C92.5638 264.652 90.9636 265.32 88.8818 265.253C86.8 265.213 85.2362 264.462 85.2005 264.56Z" fill="#263238"/>
<path d="M95.5304 109.398H59.5021C50.6016 109.398 43.3867 116.613 43.3867 125.514V205.062C43.3867 209.512 46.9938 213.119 51.4437 213.119H103.59C108.039 213.119 111.647 209.512 111.647 205.062V125.514C111.647 116.613 104.431 109.398 95.5304 109.398Z" fill="#455A64"/>
<path d="M120.557 221.151H47.6126C45.2788 221.151 43.3867 219.259 43.3867 216.925V215.546C43.3867 213.212 45.2788 211.32 47.6126 211.32H120.557C122.891 211.32 124.783 213.212 124.783 215.546V216.925C124.783 219.259 122.891 221.151 120.557 221.151Z" fill="#455A64"/>
<path d="M113.098 211.265C113.098 211.166 98.078 211.086 79.5546 211.086C61.0242 211.086 46.0078 211.166 46.0078 211.265C46.0078 211.364 61.0242 211.444 79.5546 211.444C98.078 211.444 113.098 211.364 113.098 211.265Z" fill="#263238"/>
<path d="M131.591 263.4L127.75 277.603C127.75 277.603 140.497 286.389 140.036 289.085L112.992 282.414L118.094 260.031L131.591 263.4Z" fill="#455A64"/>
<path d="M119.668 274.336C119.11 274.354 118.607 274.87 118.602 275.444C118.596 276.018 119.102 276.548 119.66 276.54C120.218 276.533 120.84 275.932 120.783 275.361C120.726 274.79 120.099 274.201 119.559 274.347" fill="#E0E0E0"/>
<path d="M112.992 282.415L113.592 280.18L139.297 287.411C139.297 287.411 140.375 288.247 140.036 289.086L112.992 282.415Z" fill="#263238"/>
<path d="M128.22 277.569C128.184 277.703 127.51 277.602 126.758 277.879C125.999 278.135 125.528 278.641 125.418 278.557C125.303 278.501 125.689 277.737 126.605 277.42C127.518 277.092 128.278 277.451 128.22 277.569Z" fill="white"/>
<path d="M130.777 279.477C130.776 279.617 130.15 279.706 129.568 280.17C128.972 280.616 128.715 281.21 128.584 281.171C128.455 281.162 128.549 280.345 129.284 279.782C130.014 279.213 130.804 279.347 130.777 279.477Z" fill="white"/>
<path d="M131.573 283.365C131.446 283.365 131.421 282.641 131.934 281.981C132.442 281.317 133.133 281.177 133.162 281.304C133.21 281.434 132.717 281.734 132.304 282.283C131.879 282.821 131.708 283.384 131.573 283.365Z" fill="white"/>
<path d="M128.749 274.233C128.665 274.343 128.103 274.006 127.344 273.874C126.588 273.727 125.947 273.841 125.905 273.707C125.852 273.59 126.536 273.227 127.428 273.396C128.32 273.557 128.838 274.142 128.749 274.233Z" fill="white"/>
<path d="M107.792 272.402L110.646 289.995L116.805 303.24C117.249 304.194 116.814 305.337 115.858 305.727C115.322 305.945 114.722 305.887 114.239 305.563C111.164 303.509 100.115 295.707 99.8837 294.783C99.5162 293.318 95.543 276.24 95.543 276.24L107.792 272.402Z" fill="#455A64"/>
<path d="M115.857 305.727L99.5312 293.41L99.6684 294.152C99.8721 294.896 100.121 295.373 100.616 295.782C101.94 296.878 105.66 299.821 114.186 305.575C114.683 305.91 115.312 305.968 115.857 305.727Z" fill="#263238"/>
<g opacity="0.6">
<path d="M101.983 287.074C102.466 287.294 102.728 287.931 102.534 288.436C102.34 288.941 101.713 289.221 101.227 289.01C100.74 288.799 100.402 288.045 100.65 287.565C100.898 287.085 101.651 286.798 102.074 287.123" fill="white"/>
</g>
<path d="M110.546 298.833C110.651 298.862 110.865 297.87 111.787 297.178C112.689 296.457 113.676 296.52 113.677 296.408C113.684 296.362 113.443 296.268 113.034 296.288C112.628 296.305 112.062 296.475 111.558 296.865C111.057 297.255 110.741 297.767 110.612 298.164C110.48 298.563 110.501 298.827 110.546 298.833Z" fill="white"/>
<path d="M112.196 300.943C112.291 301.003 112.732 300.326 113.565 299.894C114.389 299.442 115.18 299.462 115.187 299.347C115.22 299.249 114.331 299.037 113.389 299.546C112.443 300.044 112.098 300.912 112.196 300.943Z" fill="white"/>
<path d="M107.732 296.269C107.827 296.336 108.501 295.292 109.739 294.503C110.965 293.694 112.172 293.52 112.153 293.402C112.164 293.304 110.853 293.308 109.536 294.172C108.21 295.021 107.64 296.236 107.732 296.269Z" fill="white"/>
<path d="M106.43 290.995C106.495 291.091 107.361 290.502 108.577 290.217C109.79 289.915 110.82 290.044 110.837 289.928C110.868 289.833 109.794 289.514 108.49 289.836C107.184 290.145 106.361 290.924 106.43 290.995Z" fill="white"/>
<path d="M105.461 285.852C105.532 285.943 106.371 285.174 107.676 284.982C108.976 284.759 110.001 285.232 110.043 285.122C110.064 285.08 109.837 284.897 109.401 284.74C108.968 284.583 108.318 284.483 107.617 284.594C106.916 284.707 106.326 285.003 105.96 285.288C105.591 285.574 105.429 285.819 105.461 285.852Z" fill="white"/>
<path d="M107.466 284.008C107.488 284.004 107.483 283.761 107.367 283.341C107.251 282.924 107.015 282.323 106.533 281.706C106.289 281.416 106.019 281.035 105.501 280.898C105.244 280.828 104.899 280.942 104.74 281.214C104.581 281.478 104.572 281.779 104.618 282.058C104.841 283.167 105.969 284.061 107.215 283.982C108.462 283.88 109.435 282.946 109.741 281.891C109.801 281.622 109.817 281.303 109.631 281.033C109.446 280.76 109.077 280.708 108.841 280.799C108.35 280.976 108.086 281.338 107.829 281.618C107.332 282.219 107.064 282.801 106.919 283.207C106.774 283.617 106.748 283.858 106.769 283.864C106.838 283.898 107.04 282.919 108.03 281.803C108.282 281.541 108.571 281.217 108.928 281.111C109.103 281.058 109.269 281.1 109.359 281.236C109.45 281.364 109.456 281.591 109.4 281.805C109.136 282.671 108.245 283.522 107.189 283.591C106.14 283.668 105.15 282.881 104.962 281.99C104.92 281.775 104.935 281.547 105.023 281.397C105.11 281.25 105.272 281.182 105.44 281.217C105.797 281.289 106.088 281.614 106.326 281.885C107.283 283.03 107.394 284.04 107.466 284.008Z" fill="white"/>
<path d="M113.966 188.721C119.117 191.483 139.199 203.061 144.586 206.571C148.531 209.141 150.959 216.105 149.702 220.451C144.485 238.487 129.657 275.102 129.657 275.102L112.569 272.95L124.508 221.847L100.375 210.498L76.8125 187.105L113.966 188.721Z" fill="#263238"/>
<path d="M85.7623 189.809C85.7623 189.809 107.219 214.904 107.667 220.076C108.272 227.04 113.966 288.636 113.966 288.636L96.0768 291.332L82.3365 227.743L65.5337 208.164L63.3945 197.322L65.7472 185.918L85.7623 189.809Z" fill="#263238"/>
<path d="M91.5824 197.321C91.5775 197.324 91.6251 197.395 91.7238 197.528C91.8344 197.674 91.98 197.868 92.1655 198.114C92.5715 198.642 93.149 199.393 93.8854 200.35C95.3799 202.292 97.5541 205.093 100.195 208.588C101.515 210.335 102.956 212.254 104.455 214.345C105.197 215.395 105.979 216.477 106.681 217.642C107.055 218.204 107.166 218.863 107.299 219.56C107.432 220.247 107.521 220.956 107.619 221.671C108.31 227.414 108.744 233.772 109.301 240.433C109.584 243.765 109.861 247.017 110.129 250.159C110.431 253.297 110.722 256.324 111 259.208C111.563 264.971 112.071 270.161 112.497 274.528C112.934 278.873 113.289 282.394 113.537 284.853C113.666 286.055 113.767 286.996 113.838 287.659C113.875 287.965 113.903 288.206 113.925 288.388C113.947 288.552 113.961 288.636 113.967 288.635C113.973 288.634 113.971 288.549 113.961 288.384C113.948 288.201 113.931 287.959 113.91 287.652C113.854 286.988 113.776 286.045 113.676 284.84C113.455 282.378 113.139 278.853 112.749 274.505C112.344 270.136 111.863 264.943 111.329 259.179C111.057 256.294 110.773 253.267 110.477 250.129C110.212 246.988 109.938 243.735 109.657 240.405C109.101 233.744 108.657 227.39 107.946 221.629C107.845 220.91 107.753 220.199 107.615 219.501C107.56 219.151 107.472 218.806 107.384 218.462C107.293 218.122 107.142 217.756 106.951 217.482C106.23 216.299 105.444 215.223 104.695 214.173C103.183 212.085 101.73 210.174 100.395 208.435C97.727 204.958 95.5227 202.181 93.9939 200.265C93.2344 199.324 92.6394 198.588 92.2208 198.07C92.0241 197.833 91.8687 197.646 91.7511 197.505C91.6447 197.379 91.5873 197.316 91.5824 197.321Z" fill="#455A64"/>
<path d="M130.715 216.233C130.647 216.161 129.095 217.513 127.25 219.252C125.404 220.992 123.962 222.46 124.03 222.532C124.098 222.604 125.649 221.252 127.495 219.513C129.341 217.774 130.783 216.305 130.715 216.233Z" fill="#455A64"/>
<path d="M98.543 124.781C98.543 124.781 104.102 125.289 106.517 128.585C109.35 132.45 122.498 150.02 122.498 150.02L132.172 134.23L142.191 139.265C142.191 139.265 132.872 163.647 129.216 165.774C125.561 167.901 120.706 168.125 118.51 165.774C116.315 163.423 104.218 147.549 104.218 147.549L98.543 124.781Z" fill="#263238"/>
<path d="M112.779 188.259L90.2587 124.181L87.2067 120.414L70.2863 118.227L67.4023 126.33L76.8138 188.766L112.779 188.259Z" fill="#FAFAFA"/>
<path d="M92.3304 173.9C92.343 173.899 92.3465 173.759 92.3423 173.493C92.3332 173.188 92.322 172.802 92.308 172.328C92.2954 171.822 92.2534 171.205 92.1974 170.488C92.1498 169.771 92.0812 168.955 91.9811 168.056C91.6241 164.453 90.8562 159.509 89.7516 154.102C88.6421 148.693 87.45 143.84 86.5463 140.34C86.0962 138.589 85.7154 137.177 85.4445 136.203C85.3136 135.748 85.2072 135.377 85.1232 135.084C85.0455 134.829 84.9993 134.696 84.9874 134.699C84.9755 134.702 84.9986 134.841 85.0532 135.101C85.1204 135.399 85.2051 135.774 85.3094 136.236C85.5544 137.266 85.8904 138.677 86.3006 140.4C87.1413 143.915 88.2928 148.772 89.4009 154.173C90.5041 159.572 91.3098 164.498 91.7298 168.083C91.8453 168.978 91.9314 169.79 91.9979 170.504C92.0721 171.218 92.1351 171.832 92.1687 172.336C92.21 172.808 92.2436 173.192 92.2702 173.495C92.2982 173.761 92.3185 173.9 92.3304 173.9Z" fill="#263238"/>
<path d="M113.261 179.329C113.261 178.666 105.628 133.001 105.628 133.001L104.419 129.445C103.372 126.906 101.175 125.021 98.5076 124.369L90.634 122.445L87.3069 119.867L87.1641 121.419L90.634 132.714L104.898 179.434L113.261 179.329Z" fill="#263238"/>
<path d="M79.175 178.095C79.175 176.768 80.4175 166.945 79.5817 159.133C78.965 153.369 77.3123 143.501 76.0803 136.488C75.1437 131.153 73.4973 125.969 71.1831 121.072L69.7719 118.086L66.8298 122.775L54.1094 127.808L58.9072 178.096H79.175V178.095Z" fill="#263238"/>
<path d="M54.1095 179.582L47.1172 204.838L75.5253 212.642L77.8472 177.246L54.1095 179.582Z" fill="#263238"/>
<path d="M54.1105 179.582C54.1063 179.581 54.0909 179.62 54.0643 179.698C54.0349 179.791 53.9992 179.905 53.9544 180.047C53.8571 180.377 53.7227 180.831 53.5505 181.411C53.2019 182.63 52.7028 184.375 52.0735 186.576C50.8219 191.037 49.0537 197.338 46.9621 204.795L46.918 204.951L47.0748 204.994C52.6902 206.542 59.0392 208.292 65.7396 210.14C69.0982 211.061 72.3686 211.958 75.4794 212.811L75.6859 212.868L75.6992 212.654C76.339 202.524 76.8969 193.681 77.2973 187.346C77.4814 184.205 77.6291 181.686 77.732 179.929C77.7754 179.078 77.809 178.413 77.8328 177.937C77.8405 177.725 77.8468 177.555 77.851 177.422C77.8531 177.306 77.8517 177.247 77.8468 177.246C77.8412 177.245 77.8321 177.304 77.8195 177.42C77.8069 177.553 77.7908 177.721 77.7705 177.933C77.7327 178.407 77.6788 179.071 77.6109 179.92C77.4835 181.676 77.3008 184.192 77.0733 187.33C76.6421 193.664 76.0408 202.504 75.3513 212.631L75.5718 212.474C72.4617 211.618 69.192 210.719 65.8348 209.795C59.1309 207.959 52.7784 206.22 47.1602 204.682L47.2736 204.881C49.3141 197.411 51.0389 191.098 52.2597 186.628C52.8519 184.417 53.3209 182.663 53.6492 181.439C53.8004 180.853 53.9187 180.394 54.0048 180.061C54.0391 179.916 54.0671 179.8 54.0895 179.705C54.1077 179.625 54.1147 179.583 54.1105 179.582Z" fill="#455A64"/>
<path d="M82.8272 167.704L60.5259 165.998L59.8742 141.739L54.8125 127.531C54.8125 127.531 46.9578 130.391 46.7723 139.897C46.5861 149.402 46.3299 169.607 48.0036 175.575C48.0631 175.789 48.1275 175.996 48.1968 176.197C49.6948 180.593 54.2315 183.203 58.8347 182.585L84.7921 179.097L82.8272 167.704Z" fill="#263238"/>
<path d="M59.5676 143.023C59.555 143.024 59.5501 143.183 59.5508 143.485C59.5564 143.824 59.5634 144.263 59.5725 144.808C59.6082 145.998 59.6572 147.648 59.7181 149.667C59.877 153.808 60.094 159.455 60.3334 165.694C60.3376 165.801 60.3425 165.907 60.3467 166.005L60.353 166.164L60.5105 166.176C66.6684 166.655 72.2264 167.086 76.2969 167.402C78.2821 167.54 79.9026 167.652 81.073 167.733C81.6078 167.762 82.0383 167.786 82.3715 167.805C82.6683 167.817 82.8251 167.818 82.8258 167.806C82.8265 167.793 82.6726 167.768 82.3772 167.733C82.0454 167.698 81.6162 167.652 81.0835 167.595C79.9159 167.486 78.2989 167.336 76.3172 167.152C72.2488 166.808 66.6936 166.339 60.5392 165.819L60.7037 165.99C60.6995 165.892 60.6954 165.785 60.6912 165.679C60.4112 159.441 60.1571 153.795 59.9716 149.656C59.8638 147.639 59.7762 145.991 59.7125 144.801C59.6761 144.258 59.6467 143.82 59.6236 143.481C59.5984 143.181 59.5802 143.023 59.5676 143.023Z" fill="#455A64"/>
<path d="M54.8197 129.06C54.7287 129.138 56.5606 130.818 57.8087 133.541C59.0897 136.25 59.1961 138.733 59.3144 138.713C59.355 138.712 59.3844 138.095 59.2479 137.108C59.1135 136.123 58.7747 134.774 58.1328 133.39C57.4867 132.009 56.6719 130.881 56.0048 130.144C55.3384 129.404 54.8477 129.03 54.8197 129.06Z" fill="#455A64"/>
<path d="M66.5262 123.578C66.5143 123.58 66.5185 123.714 66.5367 123.97C66.557 124.226 66.5822 124.605 66.6382 125.091C66.7397 126.064 66.9259 127.472 67.2374 129.209C67.852 132.679 69.0504 137.465 71.1378 142.561L71.1924 142.694L71.3345 142.669C71.8966 142.567 72.4951 142.459 73.0992 142.349C73.389 142.297 73.6767 142.244 73.9448 142.196L73.7768 141.905C72.8738 142.984 71.9183 144.158 71.7818 145.598C71.7083 146.307 71.8952 146.995 72.1353 147.6C72.3817 148.21 72.6638 148.77 72.9193 149.329C73.9602 151.544 74.8982 153.538 75.6913 155.225C76.4753 156.864 77.1151 158.201 77.5799 159.172C77.7955 159.606 77.9705 159.958 78.1084 160.234C78.2323 160.475 78.303 160.6 78.3142 160.594C78.3254 160.589 78.2757 160.456 78.1728 160.204C78.051 159.921 77.8956 159.56 77.7045 159.114C77.2649 158.131 76.6594 156.778 75.9174 155.12C75.1439 153.423 74.2304 151.418 73.2154 149.191C72.7415 148.073 72.0065 146.916 72.1283 145.629C72.2494 144.337 73.1461 143.206 74.0498 142.134L74.3704 141.754L73.8818 141.843C73.6144 141.891 73.326 141.943 73.0362 141.996C72.4321 142.106 71.8336 142.214 71.2715 142.316L71.4682 142.424C69.3843 137.358 68.1509 132.609 67.4761 129.163C67.1345 127.439 66.9119 126.039 66.7698 125.073C66.7026 124.62 66.648 124.252 66.6046 123.962C66.5647 123.71 66.5374 123.577 66.5262 123.578Z" fill="#455A64"/>
<path d="M99.7583 157.307C99.7709 157.307 99.7807 157.18 99.7877 156.938C99.7933 156.696 99.8031 156.339 99.7982 155.88C99.7828 154.962 99.7338 153.632 99.5763 151.996C99.2781 148.721 98.4605 144.245 97.3027 139.375C96.7245 136.939 96.1904 134.615 95.6038 132.52C95.0207 130.427 94.3676 128.571 93.6781 127.074C92.997 125.573 92.2977 124.431 91.765 123.681C91.5074 123.299 91.2785 123.024 91.1252 122.837C90.9719 122.65 90.8865 122.555 90.8767 122.563C90.8487 122.584 91.1602 122.986 91.6488 123.759C92.1416 124.527 92.801 125.677 93.4464 127.177C94.1002 128.673 94.7225 130.521 95.2853 132.609C95.8509 134.695 96.3759 137.022 96.9534 139.457C98.1098 144.322 98.9624 148.769 99.3243 152.023C99.514 153.649 99.6008 154.971 99.6589 155.885C99.6813 156.309 99.7002 156.658 99.7149 156.939C99.731 157.18 99.7457 157.307 99.7583 157.307Z" fill="#455A64"/>
<path d="M54.7218 171.078C54.8226 171.136 55.5135 169.322 57.3062 167.877C59.0758 166.401 60.9896 166.08 60.9532 165.97C60.9476 165.93 60.4667 165.949 59.7254 166.17C58.9862 166.388 57.9992 166.849 57.0794 167.6C56.1631 168.354 55.5177 169.232 55.1593 169.914C54.7967 170.597 54.684 171.064 54.7218 171.078Z" fill="#455A64"/>
<path d="M84.0586 136.112L85.9549 180.723L91.5843 190.948L95.337 179.148L86.2566 135.723L84.0586 136.112Z" fill="#FF725E"/>
<path d="M131.669 150.77C131.583 151.025 115.991 185.049 115.991 185.049H87.1641L99.8467 152.897C99.8467 152.897 109.717 154.176 118.488 153.45C125.489 152.87 131.669 150.77 131.669 150.77Z" fill="#E0E0E0"/>
<path d="M131.67 150.77C131.663 150.773 131.627 150.795 131.533 150.828C131.428 150.865 131.291 150.913 131.117 150.973C130.749 151.095 130.198 151.27 129.475 151.478C128.028 151.891 125.888 152.454 123.114 152.943C117.571 154.002 109.445 154.127 99.8295 153.051L99.9947 152.954C96.3463 162.224 92.0119 173.239 87.3744 185.022L87.3373 185.116L87.1679 184.867C97.5468 184.873 107.367 184.88 115.995 184.885L115.846 184.981C125.156 164.853 131.069 152.069 131.67 150.77C131.081 152.073 125.279 164.909 116.142 185.118L116.099 185.214H115.993C107.365 185.22 97.5454 185.226 87.1665 185.232H86.8984L86.9971 184.983L87.0342 184.889C91.6899 173.113 96.0418 162.104 99.7042 152.841L99.7483 152.729L99.8694 152.743C109.45 153.848 117.557 153.768 123.084 152.766C125.854 152.304 127.998 151.77 129.45 151.387C130.162 151.189 130.714 151.036 131.103 150.927C131.281 150.876 131.418 150.836 131.526 150.806C131.619 150.778 131.677 150.767 131.67 150.77Z" fill="#263238"/>
<path d="M82.8008 167.923L84.765 168.04C84.765 168.04 91.2554 162 92.1913 162C93.1272 162 95.9419 162.802 95.9419 162.802L95.1509 164.808C95.1509 164.808 99.9347 164.553 101.381 164.808C102.827 165.064 104.529 165.83 103.934 167.616C103.934 167.616 105.125 169.573 102.658 170.509C102.658 170.509 103.244 171.551 101.795 172.496C101.587 172.631 101.339 172.764 101.041 172.891C98.6593 173.913 98.8294 174.116 98.8294 174.116C98.8294 174.116 98.744 175.189 97.8935 176.04C97.043 176.891 92.2438 178.718 89.623 178.825C87.0022 178.933 84.6201 178.167 84.6201 178.167L82.8008 167.923Z" fill="#FFBF9D"/>
<path d="M89.6484 164.794C89.6512 164.893 90.914 164.971 92.4687 164.968C94.0241 164.965 95.2869 164.882 95.289 164.783C95.2911 164.684 94.029 164.607 92.468 164.609C90.9084 164.613 89.6456 164.696 89.6484 164.794Z" fill="#FF9A6C"/>
<path d="M90.8946 168.521C90.9002 168.571 91.624 168.53 92.7902 168.448C94.0761 168.361 95.6287 168.257 97.3458 168.141C99.0643 168.053 100.619 167.973 101.906 167.906C103.074 167.85 103.797 167.805 103.797 167.754C103.797 167.706 103.072 167.662 101.901 167.654C100.729 167.645 99.1098 167.679 97.3248 167.784C95.5398 167.891 93.9284 168.049 92.7664 168.196C91.6023 168.343 90.889 168.473 90.8946 168.521Z" fill="#FF9A6C"/>
<path d="M93.6212 171.941C93.6352 172.039 95.7289 171.824 98.2972 171.46C100.867 171.097 102.937 170.723 102.923 170.625C102.909 170.527 100.816 170.743 98.2468 171.106C95.6792 171.469 93.6072 171.843 93.6212 171.941Z" fill="#FF9A6C"/>
<path d="M94.1289 174.783C94.1324 174.879 95.2559 174.905 96.616 174.669C97.9768 174.438 99.0275 174.039 98.9988 173.948C98.9701 173.85 97.8921 174.09 96.5551 174.317C95.2195 174.548 94.1233 174.682 94.1289 174.783Z" fill="#FF9A6C"/>
<g opacity="0.3">
<path d="M117.907 190.954L124.816 194.916L49.0078 198.017L50.965 190.945L117.907 190.954Z" fill="black"/>
</g>
<path d="M84.0596 136.112L82.5 134.135L83.6613 130.793H85.4911L86.9667 133.834L86.2576 135.722L84.0596 136.112Z" fill="#FF725E"/>
<path d="M90.2199 130.287C90.2332 130.29 90.215 130.42 90.1569 130.661C90.0946 130.9 89.9868 131.25 89.7943 131.677C89.4128 132.521 88.6631 133.712 87.2946 134.665L87.1406 134.772L87.0762 134.591C86.7836 133.771 86.4637 132.866 85.9982 131.962C85.5348 131.065 84.8978 130.16 83.9703 129.548L84.2433 129.445C84.0781 130.045 83.8926 130.671 83.691 131.304C83.1639 132.959 82.5675 134.511 81.9641 135.896L81.8787 136.093L81.7079 135.966C79.6961 134.472 78.1134 133.031 77.0452 131.967C76.5104 131.435 76.1023 130.999 75.83 130.693C75.5584 130.388 75.4212 130.215 75.4345 130.201C75.4485 130.188 75.6137 130.335 75.9091 130.616C76.25 130.936 76.6756 131.336 77.1887 131.817C78.2926 132.833 79.8963 134.231 81.9088 135.692L81.6526 135.762C82.2371 134.38 82.8202 132.836 83.3438 131.193C83.544 130.565 83.7295 129.944 83.8961 129.349L83.9633 129.109L84.1691 129.247C85.168 129.913 85.8309 130.88 86.2978 131.809C86.7668 132.747 87.0748 133.669 87.3513 134.497L87.1329 134.424C88.4643 133.538 89.2301 132.411 89.6466 131.606C90.0631 130.788 90.1814 130.276 90.2199 130.287Z" fill="#263238"/>
<path d="M91.645 77.9299C88.8163 77.3986 86.2382 80.1643 83.3696 79.927C81.6273 79.7828 80.1888 78.5641 78.5781 77.8865C76.1694 76.8722 72.9396 77.0248 70.7549 78.4591C68.5695 79.8927 67.2171 81.3151 67.1884 83.9289C64.9456 82.9538 61.7242 85.9995 60.8114 88.6931C59.8986 91.3867 60.4943 94.0005 61.4799 96.6682C63.1767 101.262 65.7863 105.516 69.112 109.111C69.4067 109.43 69.8575 109.768 70.2271 109.541C70.4833 109.384 70.5337 109.039 70.5484 108.74C70.6716 106.185 70.0689 103.66 69.5698 101.152C69.0707 98.6443 68.6731 96.0459 69.2037 93.5441C69.7343 91.0423 71.3765 88.6322 73.8153 87.8615C75.6164 87.2924 77.596 87.6788 79.3355 88.4152C81.075 89.1516 82.6507 90.2212 84.3258 91.0934C86.0009 91.9656 87.8496 92.6523 89.734 92.5249C91.6184 92.3975 93.5315 91.2894 94.1419 89.5016C94.7516 87.7138 93.5868 85.4003 91.7066 85.2155C93.3754 84.8725 94.6865 83.2513 94.6725 81.5475C94.6578 79.8437 93.3194 78.2442 91.645 77.9299Z" fill="#263238"/>
<path d="M93.279 108.114C92.8128 104.647 91.2721 97.5876 89.8035 91.2127C88.2243 84.3576 81.6464 79.8643 74.6863 80.887L73.9947 80.9885C66.6027 82.5201 64.6847 89.8141 66.42 97.1613L70.2161 119.027L84.0047 129.398L87.714 123.026L87.4466 117.39C87.4466 117.39 94.2443 115.294 93.279 108.114Z" fill="#FFBF9D"/>
<path d="M87.444 117.391C87.444 117.391 82.7701 118.491 77.5117 116.176C77.5117 116.176 80.4727 120.877 87.5287 119.18L87.444 117.391Z" fill="#FF9A6C"/>
<path d="M88.6002 98.2627C88.6989 98.8003 88.3251 99.3266 87.7651 99.44C87.2065 99.5527 86.6731 99.2104 86.5744 98.6721C86.4757 98.1345 86.8495 97.6075 87.4081 97.4941C87.9681 97.3814 88.5015 97.7251 88.6002 98.2627Z" fill="#263238"/>
<path d="M88.7773 94.9412C88.6702 95.0931 87.8106 94.6332 86.7095 94.7984C85.6077 94.9475 84.8825 95.6328 84.7432 95.5152C84.676 95.4641 84.7698 95.2044 85.0834 94.8964C85.3921 94.5905 85.9465 94.2552 86.6332 94.1572C87.3199 94.0599 87.9338 94.2279 88.3034 94.4379C88.6807 94.6472 88.8312 94.8719 88.7773 94.9412Z" fill="#263238"/>
<path d="M78.4713 100.032C78.57 100.57 78.1955 101.097 77.6362 101.21C77.0776 101.322 76.5442 100.98 76.4455 100.442C76.3468 99.9041 76.7206 99.377 77.2792 99.2636C77.8392 99.1509 78.3733 99.4946 78.4713 100.032Z" fill="#263238"/>
<path d="M77.9812 96.7381C77.8734 96.89 77.0131 96.4308 75.9127 96.5953C74.8109 96.7444 74.0857 97.4297 73.9464 97.3121C73.8792 97.261 73.9716 97.0013 74.2873 96.6933C74.596 96.3867 75.1504 96.0521 75.8371 95.9541C76.5238 95.8568 77.1377 96.0248 77.508 96.2341C77.8832 96.4448 78.0344 96.6695 77.9812 96.7381Z" fill="#263238"/>
<path d="M83.181 104.318C83.1663 104.256 83.8334 104.037 84.9219 103.732C85.1991 103.662 85.4567 103.566 85.4763 103.367C85.5127 103.154 85.3503 102.869 85.1662 102.561C84.8015 101.92 84.42 101.247 84.0196 100.542C82.4166 97.6633 81.2119 95.2791 81.3281 95.2161C81.445 95.1524 82.8387 97.4344 84.4417 100.314C84.8302 101.025 85.2012 101.702 85.5554 102.351C85.7087 102.654 85.9453 102.99 85.8634 103.433C85.8186 103.654 85.6345 103.837 85.4616 103.912C85.2894 103.993 85.1319 104.02 84.994 104.049C83.8859 104.273 83.1943 104.38 83.181 104.318Z" fill="#263238"/>
<path d="M77.2616 91.0816C77.1972 91.3973 76.0765 91.4169 74.8074 91.7627C73.5313 92.0833 72.545 92.6146 72.3336 92.371C72.2384 92.2534 72.3784 91.9454 72.7571 91.5933C73.1316 91.2426 73.7581 90.8695 74.5211 90.6693C75.2841 90.4705 76.0128 90.4894 76.5112 90.6112C77.0138 90.7323 77.2875 90.9325 77.2616 91.0816Z" fill="#263238"/>
<path d="M87.9033 91.8145C87.7465 92.0931 86.9492 91.9454 86.035 92.0672C85.1166 92.1575 84.3753 92.483 84.159 92.2478C84.0624 92.1323 84.1471 91.8642 84.4502 91.5772C84.7477 91.2923 85.2762 91.0179 85.9055 90.9444C86.5355 90.8723 87.1123 91.0186 87.4672 91.2286C87.827 91.4379 87.9712 91.6801 87.9033 91.8145Z" fill="#263238"/>
<path d="M67.436 102.096C67.3058 102.061 61.7366 101.488 62.613 106.364C63.4901 111.24 68.5798 109.603 68.5798 109.603L67.436 102.096Z" fill="#FFBF9D"/>
<path d="M66.3652 107.634C66.3407 107.622 66.291 107.709 66.1594 107.8C66.0313 107.889 65.7982 107.977 65.5266 107.928C64.9771 107.831 64.3968 107.091 64.2148 106.217C64.1224 105.776 64.1399 105.336 64.2337 104.958C64.3184 104.575 64.5046 104.284 64.7552 104.191C65.0023 104.085 65.2144 104.207 65.2984 104.334C65.388 104.459 65.3747 104.561 65.402 104.565C65.4174 104.575 65.4916 104.464 65.4167 104.27C65.3789 104.177 65.3012 104.072 65.1696 103.999C65.0352 103.925 64.8546 103.908 64.6775 103.959C64.3058 104.053 64.03 104.46 63.9257 104.875C63.8018 105.296 63.7717 105.791 63.8753 106.288C64.0832 107.265 64.7517 108.094 65.493 108.171C65.8521 108.199 66.1195 108.043 66.2469 107.902C66.3778 107.753 66.3841 107.639 66.3652 107.634Z" fill="#FF9A6C"/>
<path d="M88.9047 84.5122C88.0598 83.1976 86.7571 82.2386 85.3865 81.4889C82.4318 79.8719 78.9808 79.1011 75.6411 79.5393C72.3014 79.9782 69.1003 81.6687 67.0297 84.3259C65.3728 86.4518 64.4789 89.1182 64.2773 91.8062C64.0757 94.4942 64.3214 98.0333 65.1782 100.589C65.5541 101.711 66.2646 102.032 67.1977 102.76C67.7808 103.214 68.6992 103.435 69.2137 102.904C69.5168 102.591 69.5749 102.123 69.6176 101.689C70.0047 97.7702 70.3372 93.568 68.4171 90.1296C69.1738 88.7709 70.0978 87.4738 71.3354 86.5316C72.573 85.5894 74.1599 85.0316 75.6971 85.2682C77.9805 85.6196 79.6381 87.546 81.5988 88.7682C84.4009 90.5147 88.0654 90.7918 91.0985 89.487L88.9047 84.5122Z" fill="#263238"/>
<path d="M60.8906 94.991C60.8899 94.9364 61.4177 94.9231 62.2374 94.746C63.0564 94.5724 64.1617 94.1853 65.2299 93.4853C66.2953 92.7804 67.0877 91.918 67.5714 91.2348C68.0586 90.5516 68.2791 90.0721 68.3288 90.0945C68.3589 90.105 68.2091 90.6223 67.7562 91.3587C67.3075 92.093 66.5095 93.017 65.4028 93.7485C64.294 94.4751 63.1299 94.8433 62.278 94.9651C61.4226 95.0897 60.8885 95.0225 60.8906 94.991Z" fill="#E0E0E0"/>
<path d="M61.4609 96.3823C61.4602 96.3277 61.988 96.3144 62.8077 96.1373C63.6267 95.963 64.732 95.5766 65.8002 94.8766C66.8656 94.1717 67.658 93.3093 68.1417 92.6254C68.6289 91.9422 68.8494 91.4627 68.8991 91.4851C68.9292 91.4956 68.7794 92.0129 68.3265 92.7493C67.8778 93.4836 67.0798 94.4076 65.9731 95.1391C64.8643 95.8657 63.7002 96.2339 62.8483 96.3557C61.9929 96.4817 61.4588 96.4138 61.4609 96.3823Z" fill="#E0E0E0"/>
<path d="M80.5194 106.293C80.5194 106.293 81.7325 106.513 82.8035 106.838L84.3407 107.185C84.1671 107.827 83.8766 108.87 83.3166 109.244C82.7559 109.619 81.7248 109.776 81.148 109.387C80.6867 109.075 80.3899 108.602 80.2303 107.906C80.0931 107.307 80.5194 106.293 80.5194 106.293Z" fill="#FF9A6C"/>
<path d="M83.9629 108.338C83.9867 108.342 83.9755 108.503 83.8621 108.755C83.8054 108.881 83.7284 109.032 83.6094 109.194C83.5492 109.275 83.4806 109.359 83.3826 109.438C83.2734 109.524 83.1551 109.563 83.0347 109.603C82.7876 109.68 82.5132 109.709 82.2234 109.721C81.9266 109.732 81.5962 109.693 81.2749 109.562C80.9564 109.431 80.647 109.21 80.4272 108.892C80.2025 108.583 80.0954 108.159 80.1157 107.773C80.1241 107.383 80.2032 107.019 80.2823 106.68C80.3054 106.592 80.3152 106.522 80.353 106.411C80.3719 106.309 80.528 106.134 80.6911 106.145C80.8367 106.147 80.9032 106.183 80.983 106.201L81.2154 106.265C81.7908 106.429 82.3326 106.584 82.8394 106.729C83.7613 107.003 84.3248 107.197 84.3122 107.246C84.2996 107.295 83.713 107.189 82.7743 106.978C82.2612 106.857 81.7131 106.727 81.1307 106.589L80.8962 106.531C80.8178 106.512 80.7275 106.487 80.7051 106.492C80.6988 106.503 80.6862 106.463 80.703 106.492C80.703 106.492 80.6932 106.505 80.6848 106.531C80.668 106.58 80.6491 106.68 80.6302 106.76C80.5567 107.094 80.4867 107.436 80.4797 107.78C80.4293 108.465 80.8689 109.028 81.4065 109.252C81.9329 109.483 82.5321 109.436 82.9654 109.354C83.1978 109.31 83.3196 109.212 83.4505 109.065C83.573 108.931 83.664 108.797 83.7368 108.688C83.8824 108.467 83.9377 108.332 83.9629 108.338Z" fill="#263238"/>
<path d="M107.998 153.497C107.899 153.513 107.23 149.823 106.505 145.258C105.78 140.691 105.272 136.977 105.372 136.961C105.471 136.946 106.14 140.634 106.865 145.201C107.59 149.767 108.098 153.482 107.998 153.497Z" fill="#455A64"/>
<path d="M84.2112 179.148C84.2133 179.161 84.1006 179.189 83.885 179.232C83.6274 179.279 83.3152 179.335 82.94 179.403C82.0594 179.545 80.8827 179.734 79.4547 179.964C76.5091 180.423 72.4365 181.031 67.9355 181.681C65.6843 182 63.5416 182.333 61.5725 182.525C59.6062 182.723 57.8156 182.771 56.3204 182.658C54.8238 182.555 53.6296 182.306 52.826 182.075C52.4207 181.97 52.1162 181.853 51.9097 181.778C51.7032 181.701 51.5975 181.655 51.6017 181.643C51.6129 181.609 52.0511 181.756 52.861 181.937C53.6688 182.124 54.8553 182.332 56.3365 182.401C57.8163 182.48 59.5859 182.406 61.5382 182.191C63.4912 181.981 65.6311 181.639 67.8837 181.319C72.3847 180.67 76.4629 180.101 79.4183 179.708C80.8533 179.525 82.0363 179.374 82.9204 179.261C83.2998 179.219 83.6148 179.186 83.8752 179.157C84.0936 179.14 84.2091 179.135 84.2112 179.148Z" fill="#455A64"/>
<path d="M208.371 182.537H198.511C198.499 182.458 198.488 182.379 198.469 182.3L191.735 153.966C191.392 152.522 190.103 151.504 188.619 151.504H151.857C149.746 151.504 148.213 153.51 148.766 155.546L156.468 183.88C156.765 184.975 157.322 186.097 158.692 186.243H159.558H195.354H211.488V185.654C211.488 183.933 210.093 182.537 208.371 182.537Z" fill="#E0E0E0"/>
<path d="M208.369 182.539C208.369 182.539 208.487 182.534 208.719 182.548C208.95 182.574 209.3 182.629 209.722 182.825C210.14 183.017 210.63 183.365 211.013 183.944C211.206 184.231 211.361 184.578 211.449 184.97C211.546 185.363 211.528 185.797 211.531 186.244L211.532 186.289H211.486C202.699 186.303 183.258 186.331 158.689 186.368H158.683L158.676 186.368C158.065 186.311 157.463 185.995 157.081 185.5C156.693 185.012 156.48 184.421 156.324 183.839C156.009 182.682 155.69 181.513 155.369 180.332C154.726 177.971 154.07 175.561 153.404 173.112C152.072 168.213 150.696 163.152 149.29 157.984C149.149 157.463 149.007 156.943 148.867 156.425C148.738 155.909 148.542 155.395 148.523 154.826C148.47 153.705 149.045 152.602 149.951 151.973C150.402 151.654 150.934 151.452 151.48 151.395C152.035 151.351 152.542 151.383 153.073 151.373C154.122 151.373 155.167 151.374 156.205 151.374C160.358 151.375 164.417 151.377 168.361 151.378C172.305 151.38 176.134 151.382 179.826 151.385C181.672 151.386 183.484 151.387 185.259 151.389C186.146 151.389 187.025 151.39 187.894 151.391C188.324 151.401 188.762 151.363 189.207 151.445C189.644 151.527 190.062 151.695 190.43 151.934C191.166 152.415 191.689 153.193 191.861 154.028C192.052 154.836 192.24 155.632 192.426 156.419C192.798 157.993 193.16 159.525 193.513 161.013C194.215 163.99 194.878 166.792 195.493 169.399C196.717 174.615 197.778 179.035 198.569 182.53L198.51 182.479C201.717 182.492 204.179 182.501 205.849 182.508C206.675 182.515 207.303 182.52 207.732 182.523C208.154 182.528 208.369 182.539 208.369 182.539C208.369 182.539 208.154 182.549 207.732 182.555C207.303 182.558 206.675 182.563 205.849 182.57C204.18 182.577 201.717 182.586 198.51 182.599H198.463L198.451 182.549C197.62 179.07 196.563 174.646 195.319 169.44C194.696 166.836 194.026 164.035 193.314 161.06C192.959 159.572 192.593 158.041 192.218 156.469C192.03 155.683 191.84 154.886 191.647 154.08C191.483 153.288 190.995 152.572 190.307 152.122C189.963 151.9 189.574 151.744 189.166 151.669C188.763 151.593 188.33 151.629 187.894 151.621C187.025 151.622 186.146 151.623 185.259 151.623C183.484 151.625 181.672 151.626 179.826 151.627C176.134 151.63 172.305 151.632 168.361 151.634C164.417 151.635 160.358 151.637 156.205 151.638C155.167 151.638 154.122 151.639 153.073 151.639C152.555 151.648 152.007 151.618 151.51 151.66C151.006 151.712 150.517 151.898 150.103 152.192C149.268 152.772 148.738 153.789 148.787 154.819C148.801 155.328 148.99 155.834 149.122 156.359C149.263 156.877 149.404 157.398 149.546 157.918C150.95 163.086 152.325 168.147 153.656 173.047C154.321 175.497 154.975 177.906 155.616 180.268C155.937 181.449 156.254 182.619 156.567 183.775C156.719 184.345 156.924 184.901 157.277 185.346C157.626 185.793 158.146 186.067 158.703 186.122L158.69 186.121C183.258 186.158 202.699 186.187 211.487 186.2L211.442 186.245C211.441 185.793 211.463 185.37 211.372 184.988C211.29 184.605 211.141 184.265 210.957 183.983C210.588 183.412 210.112 183.064 209.703 182.868C208.864 182.481 208.36 182.572 208.369 182.539Z" fill="#263238"/>
<path d="M188.412 154.301H151.5L158.833 180.51H194.74L188.412 154.301Z" fill="white"/>
<path d="M194.763 180.527H158.82L158.817 180.514L151.477 154.281H188.426L188.43 154.295L194.763 180.527ZM158.847 180.491H194.718L188.399 154.317H151.523L158.847 180.491Z" fill="#263238"/>
<path d="M198.873 182.613C198.873 182.686 190.174 182.745 179.446 182.745C168.713 182.745 160.016 182.686 160.016 182.613C160.016 182.54 168.713 182.48 179.446 182.48C190.174 182.48 198.873 182.54 198.873 182.613Z" fill="#263238"/>
<path d="M191.137 178.048C191.137 178.053 191.096 178.057 191.015 178.061C190.918 178.065 190.801 178.069 190.657 178.075C190.319 178.081 189.859 178.089 189.278 178.1C188.057 178.11 186.331 178.124 184.207 178.142C179.905 178.152 174.001 178.166 167.478 178.18C165.445 178.179 163.473 178.178 161.623 178.176H161.526L161.5 178.083C160.139 173.154 158.956 168.871 158.107 165.795C157.699 164.282 157.372 163.067 157.141 162.205C157.037 161.8 156.954 161.48 156.893 161.24C156.839 161.02 156.814 160.904 156.821 160.902C156.828 160.9 156.868 161.012 156.936 161.228C157.008 161.464 157.104 161.782 157.225 162.181C157.475 163.037 157.826 164.246 158.264 165.751C159.136 168.821 160.35 173.096 161.747 178.015L161.623 177.921C163.473 177.92 165.445 177.919 167.478 177.917C174.001 177.933 179.905 177.946 184.207 177.956C186.331 177.973 188.057 177.988 189.278 177.998C189.859 178.008 190.319 178.017 190.657 178.022C190.801 178.027 190.918 178.032 191.015 178.036C191.096 178.039 191.137 178.044 191.137 178.048Z" fill="#263238"/>
<path d="M166.465 169.047H162.027L164.172 176.059H168.609L166.465 169.047Z" fill="#455A64"/>
<path d="M187.23 169.047H182.793L184.937 176.059H189.374L187.23 169.047Z" fill="#FF725E"/>
<path d="M172.608 166.594H168.172L170.935 176.059H175.372L172.608 166.594Z" fill="#FF725E"/>
<path d="M178.34 162.211H173.902L178.188 176.057H182.625L178.34 162.211Z" fill="#455A64"/>
<path d="M222.287 193.605H214.746V290.502H222.287V193.605Z" fill="#E0E0E0"/>
<path d="M222.286 290.503C222.286 290.503 222.278 290.328 222.274 289.998C222.271 289.659 222.267 289.173 222.261 288.54C222.255 287.251 222.246 285.369 222.236 282.944C222.223 278.08 222.204 271.049 222.181 262.324C222.162 244.886 222.135 220.689 222.104 193.607L222.286 193.789C219.891 193.789 217.332 193.789 214.75 193.79H214.745L214.927 193.608C214.875 237.641 214.831 275.284 214.812 290.504L214.745 290.437C217.194 290.453 219.069 290.466 220.345 290.475C220.975 290.482 221.455 290.487 221.79 290.491C222.115 290.495 222.286 290.503 222.286 290.503C222.286 290.503 222.132 290.512 221.813 290.516C221.482 290.52 221.007 290.526 220.384 290.533C219.099 290.541 217.211 290.554 214.744 290.571L214.677 290.572V290.504C214.659 275.284 214.614 237.641 214.562 193.608V193.426H214.745H214.75C217.332 193.426 219.891 193.426 222.286 193.426H222.468V193.608C222.438 220.743 222.411 244.986 222.391 262.458C222.368 271.165 222.35 278.182 222.337 283.036C222.325 285.443 222.317 287.31 222.311 288.59C222.306 289.214 222.302 289.691 222.299 290.025C222.295 290.345 222.286 290.503 222.286 290.503Z" fill="#263238"/>
<path d="M20.2013 190.242H12.6602V290.491H20.2013V190.242Z" fill="#E0E0E0"/>
<path d="M20.2036 290.492C20.2036 290.492 20.1952 290.311 20.191 289.97C20.1882 289.619 20.184 289.117 20.1784 288.46C20.1728 287.127 20.1637 285.179 20.1532 282.669C20.1406 277.637 20.1217 270.36 20.0986 261.332C20.079 243.288 20.0524 218.254 20.0223 190.244L20.2043 190.426C17.8096 190.426 15.2497 190.426 12.6681 190.427H12.6632L12.8452 190.245C12.792 235.978 12.7472 275.033 12.729 290.492L12.6632 290.426C15.1251 290.443 17.0004 290.456 18.273 290.464C18.9016 290.471 19.379 290.476 19.7115 290.48C20.0335 290.484 20.2036 290.492 20.2036 290.492C20.2036 290.492 20.0503 290.501 19.7339 290.505C19.4049 290.508 18.9324 290.514 18.3101 290.52C17.0291 290.529 15.1405 290.541 12.6625 290.558L12.5967 290.559V290.492C12.5785 275.033 12.5337 235.978 12.4805 190.245V190.062H12.6632H12.6681C15.2497 190.062 17.8096 190.063 20.2043 190.063H20.3863V190.245C20.3562 218.308 20.3289 243.389 20.31 261.466C20.2869 270.476 20.2687 277.738 20.2554 282.761C20.2442 285.253 20.2358 287.188 20.2302 288.511C20.2246 289.157 20.2204 289.652 20.2176 289.996C20.212 290.328 20.2036 290.492 20.2036 290.492Z" fill="#263238"/>
<path d="M77.6466 190.242H70.1055V290.536H77.6466V190.242Z" fill="#E0E0E0"/>
<path d="M77.6457 290.538C77.6457 290.538 77.6373 290.356 77.6331 290.016C77.6303 289.665 77.6261 289.162 77.6205 288.505C77.6149 287.171 77.6058 285.223 77.5953 282.712C77.5827 277.677 77.5638 270.397 77.5407 261.365C77.5211 243.313 77.4945 218.267 77.4644 190.245L77.6464 190.427C75.2517 190.427 72.6918 190.427 70.1102 190.427H70.1053L70.2873 190.245C70.2341 236.002 70.1886 275.076 70.1711 290.538L70.1053 290.473C72.5672 290.489 74.4425 290.502 75.7151 290.51C76.3437 290.517 76.8211 290.522 77.1536 290.526C77.4756 290.529 77.6457 290.538 77.6457 290.538C77.6457 290.538 77.4924 290.546 77.176 290.55C76.847 290.554 76.3745 290.559 75.7522 290.566C74.4712 290.574 72.5826 290.587 70.1039 290.604L70.0381 290.604V290.538C70.0199 275.075 69.9751 236.001 69.9219 190.245V190.062H70.1046H70.1095C72.6911 190.062 75.251 190.063 77.6457 190.063H77.8277V190.245C77.7976 218.32 77.7703 243.412 77.7514 261.498C77.7283 270.513 77.7101 277.778 77.6968 282.803C77.6856 285.296 77.6772 287.231 77.6716 288.555C77.666 289.201 77.6618 289.696 77.659 290.041C77.6541 290.373 77.6457 290.538 77.6457 290.538Z" fill="#263238"/>
<path d="M238.696 185.441H0.0664062V197.665H238.696V185.441Z" fill="#6F4439"/>
<g opacity="0.3">
<path d="M65.0651 185.465H0.445312V197.64H65.0651V185.465Z" fill="black"/>
</g>
<path d="M44.6847 175.117H62.625V168.049H44.6847V175.117Z" fill="#EBEBEB"/>
<path d="M7.02809 168.312H63.3711V166.832H7.02809V168.312Z" fill="#455A64"/>
<path d="M7.02747 176.277H63.1094V174.797H7.02747V176.277Z" fill="#455A64"/>
<path d="M44.6824 167.184L44.5977 175.996H7.02734V167.184H44.6824Z" fill="#455A64"/>
<path d="M35.5547 171.584C35.5547 172.795 36.464 173.777 37.5854 173.777C38.7068 173.777 39.6161 172.795 39.6161 171.584C39.6161 170.373 38.7068 169.391 37.5854 169.391C36.4633 169.391 35.5547 170.373 35.5547 171.584Z" fill="#263238"/>
<path d="M35.2383 171.582C35.2383 170.199 36.2911 169.074 37.5847 169.074C38.8776 169.074 39.9304 170.199 39.9304 171.582C39.9304 172.966 38.8776 174.09 37.5847 174.09C36.2904 174.09 35.2383 172.965 35.2383 171.582ZM35.8683 171.582C35.8683 172.618 36.6383 173.46 37.584 173.46C38.5297 173.46 39.299 172.618 39.299 171.582C39.299 170.547 38.5297 169.705 37.584 169.705C36.6383 169.704 35.8683 170.546 35.8683 171.582Z" fill="#E0E0E0"/>
<path d="M46.0312 173.383C46.0312 173.474 49.7175 173.546 54.2633 173.546C58.8112 173.546 62.4967 173.473 62.4967 173.383C62.4967 173.292 58.8112 173.219 54.2633 173.219C49.7175 173.219 46.0312 173.292 46.0312 173.383Z" fill="#263238"/>
<path d="M46.0312 172.148C46.0312 172.239 49.7175 172.312 54.2633 172.312C58.8112 172.312 62.4967 172.238 62.4967 172.148C62.4967 172.058 58.8112 171.984 54.2633 171.984C49.7175 171.984 46.0312 172.058 46.0312 172.148Z" fill="#263238"/>
<path d="M46.0312 170.918C46.0312 171.009 49.7175 171.081 54.2633 171.081C58.8112 171.081 62.4967 171.008 62.4967 170.918C62.4967 170.827 58.8112 170.754 54.2633 170.754C49.7175 170.754 46.0312 170.827 46.0312 170.918Z" fill="#263238"/>
<path d="M46.0312 169.687C46.0312 169.778 49.7175 169.851 54.2633 169.851C58.8112 169.851 62.4967 169.778 62.4967 169.687C62.4967 169.597 58.8112 169.523 54.2633 169.523C49.7175 169.523 46.0312 169.597 46.0312 169.687Z" fill="#263238"/>
<path d="M11.1941 173.773H28.125V169.057H11.1941V173.773Z" fill="white"/>
<path d="M25.488 173.297C25.579 173.297 25.6518 172.455 25.6518 171.418C25.6518 170.38 25.5783 169.539 25.488 169.539C25.3977 169.539 25.3242 170.38 25.3242 171.418C25.3242 172.455 25.3977 173.297 25.488 173.297Z" fill="#E0E0E0"/>
<path d="M23.2497 173.297C23.3407 173.297 23.4142 172.455 23.4142 171.418C23.4142 170.38 23.3407 169.539 23.2497 169.539C23.1594 169.539 23.0859 170.38 23.0859 171.418C23.0859 172.455 23.1594 173.297 23.2497 173.297Z" fill="#E0E0E0"/>
<path d="M21.0115 173.297C21.1025 173.297 21.176 172.455 21.176 171.418C21.176 170.38 21.1025 169.539 21.0115 169.539C20.9212 169.539 20.8477 170.38 20.8477 171.418C20.847 172.455 20.9205 173.297 21.0115 173.297Z" fill="#E0E0E0"/>
<path d="M18.7732 173.297C18.8642 173.297 18.937 172.455 18.937 171.418C18.937 170.38 18.8635 169.539 18.7732 169.539C18.6829 169.539 18.6094 170.38 18.6094 171.418C18.6087 172.455 18.6822 173.297 18.7732 173.297Z" fill="#E0E0E0"/>
<path d="M16.5349 173.297C16.6259 173.297 16.6987 172.455 16.6987 171.418C16.6987 170.38 16.6252 169.539 16.5349 169.539C16.4446 169.539 16.3711 170.38 16.3711 171.418C16.3704 172.455 16.4439 173.297 16.5349 173.297Z" fill="#E0E0E0"/>
<path d="M14.2966 173.297C14.3876 173.297 14.4604 172.455 14.4604 171.418C14.4604 170.38 14.3869 169.539 14.2966 169.539C14.2063 169.539 14.1328 170.38 14.1328 171.418C14.1328 172.455 14.2063 173.297 14.2966 173.297Z" fill="#E0E0E0"/>
<path d="M44.4294 176.257C44.5204 176.257 44.5939 174.162 44.5939 171.578C44.5939 168.993 44.5204 166.898 44.4294 166.898C44.3391 166.898 44.2656 168.994 44.2656 171.578C44.2649 174.162 44.3384 176.257 44.4294 176.257Z" fill="#263238"/>
<path d="M8.93874 153.087V150.785L57.0938 150.885H59.8763V153.12H57.0938V166.902H5.08594V153.087H8.93874Z" fill="#F5F5F5"/>
<path d="M20.7463 166.902V150.785H8.93874V153.087H5.08594V166.902H20.7463Z" fill="#EBEBEB"/>
<path d="M8.9375 150.785C8.9375 150.876 20.2432 150.949 34.1865 150.949C48.1347 150.949 59.4383 150.875 59.4383 150.785C59.4383 150.695 48.1347 150.621 34.1865 150.621C20.2432 150.621 8.9375 150.695 8.9375 150.785Z" fill="#E0E0E0"/>
<path d="M5.47266 158.023C5.47266 158.114 16.9863 158.187 31.1851 158.187C45.3895 158.187 56.9003 158.113 56.9003 158.023C56.9003 157.933 45.3895 157.859 31.1851 157.859C16.9863 157.859 5.47266 157.932 5.47266 158.023Z" fill="#E0E0E0"/>
<path d="M5.08594 162.961C5.08594 163.052 16.6856 163.124 30.9915 163.124C45.3023 163.124 56.8999 163.051 56.8999 162.961C56.8999 162.87 45.3023 162.797 30.9915 162.797C16.6863 162.797 5.08594 162.87 5.08594 162.961Z" fill="#E0E0E0"/>
<path d="M59.439 153.086C59.439 152.995 48.1333 152.922 34.1893 152.922C20.2411 152.922 8.9375 152.995 8.9375 153.086C8.9375 153.177 20.2411 153.25 34.1893 153.25C48.1326 153.25 59.439 153.177 59.439 153.086Z" fill="#E0E0E0"/>
<path d="M42.3019 184.305H60.2422V177.236H42.3019V184.305Z" fill="#EBEBEB"/>
<path d="M4.64528 177.5H60.9883V176.019H4.64528V177.5Z" fill="#FF725E"/>
<path d="M4.64466 185.465H60.7266V183.984H4.64466V185.465Z" fill="#FF725E"/>
<path d="M42.2996 176.371L42.2149 185.183H4.64453V176.371H42.2996Z" fill="#FF725E"/>
<path d="M33.1719 180.771C33.1719 181.982 34.0812 182.964 35.2026 182.964C36.324 182.964 37.2333 181.982 37.2333 180.771C37.2333 179.56 36.324 178.578 35.2026 178.578C34.0812 178.578 33.1719 179.56 33.1719 180.771Z" fill="#263238"/>
<path d="M32.8555 180.77C32.8555 179.387 33.9076 178.262 35.2019 178.262C36.4955 178.262 37.5476 179.387 37.5476 180.77C37.5476 182.153 36.4955 183.278 35.2019 183.278C33.9083 183.278 32.8555 182.152 32.8555 180.77ZM33.4862 180.77C33.4862 181.805 34.2562 182.648 35.2019 182.648C36.1476 182.648 36.9176 181.805 36.9176 180.77C36.9176 179.735 36.1476 178.892 35.2019 178.892C34.2562 178.892 33.4862 179.735 33.4862 180.77Z" fill="#E0E0E0"/>
<path d="M43.6484 182.57C43.6484 182.661 47.3346 182.734 51.8804 182.734C56.4283 182.734 60.1138 182.66 60.1138 182.57C60.1138 182.48 56.4283 182.406 51.8804 182.406C47.3346 182.406 43.6484 182.48 43.6484 182.57Z" fill="#263238"/>
<path d="M43.6484 181.336C43.6484 181.426 47.3346 181.499 51.8804 181.499C56.4283 181.499 60.1138 181.426 60.1138 181.336C60.1138 181.245 56.4283 181.172 51.8804 181.172C47.3346 181.172 43.6484 181.245 43.6484 181.336Z" fill="#263238"/>
<path d="M43.6484 180.105C43.6484 180.196 47.3346 180.269 51.8804 180.269C56.4283 180.269 60.1138 180.196 60.1138 180.105C60.1138 180.015 56.4283 179.941 51.8804 179.941C47.3346 179.941 43.6484 180.015 43.6484 180.105Z" fill="#263238"/>
<path d="M43.6484 178.875C43.6484 178.965 47.3346 179.039 51.8804 179.039C56.4283 179.039 60.1138 178.965 60.1138 178.875C60.1138 178.784 56.4283 178.711 51.8804 178.711C47.3346 178.711 43.6484 178.784 43.6484 178.875Z" fill="#263238"/>
<path d="M8.81129 182.961H25.7422V178.244H8.81129V182.961Z" fill="white"/>
<path d="M23.1052 182.484C23.1955 182.484 23.269 181.643 23.269 180.605C23.269 179.567 23.1955 178.727 23.1052 178.727C23.0149 178.727 22.9414 179.568 22.9414 180.605C22.9414 181.643 23.0149 182.484 23.1052 182.484Z" fill="#E0E0E0"/>
<path d="M20.8669 182.484C20.9579 182.484 21.0314 181.643 21.0314 180.605C21.0314 179.567 20.9579 178.727 20.8669 178.727C20.7766 178.727 20.7031 179.568 20.7031 180.605C20.7024 181.643 20.7759 182.484 20.8669 182.484Z" fill="#E0E0E0"/>
<path d="M18.6286 182.484C18.7196 182.484 18.7931 181.643 18.7931 180.605C18.7931 179.567 18.7196 178.727 18.6286 178.727C18.5383 178.727 18.4648 179.568 18.4648 180.605C18.4641 181.643 18.5376 182.484 18.6286 182.484Z" fill="#E0E0E0"/>
<path d="M16.3904 182.484C16.4814 182.484 16.5549 181.643 16.5549 180.605C16.5549 179.567 16.4814 178.727 16.3904 178.727C16.3001 178.727 16.2266 179.568 16.2266 180.605C16.2259 181.643 16.2994 182.484 16.3904 182.484Z" fill="#E0E0E0"/>
<path d="M14.1521 182.484C14.2431 182.484 14.3159 181.643 14.3159 180.605C14.3159 179.567 14.2424 178.727 14.1521 178.727C14.0618 178.727 13.9883 179.568 13.9883 180.605C13.9883 181.643 14.0618 182.484 14.1521 182.484Z" fill="#E0E0E0"/>
<path d="M11.9138 182.484C12.0041 182.484 12.0783 181.643 12.0783 180.605C12.0783 179.567 12.0048 178.727 11.9138 178.727C11.8235 178.727 11.75 179.568 11.75 180.605C11.75 181.643 11.8235 182.484 11.9138 182.484Z" fill="#E0E0E0"/>
<path d="M42.0466 185.446C42.1376 185.446 42.2111 183.351 42.2111 180.766C42.2111 178.181 42.1376 176.086 42.0466 176.086C41.9563 176.086 41.8828 178.181 41.8828 180.766C41.8821 183.351 41.9556 185.446 42.0466 185.446Z" fill="#263238"/>
<path d="M334.107 91.4385C333.703 90.1218 332.381 89.1446 331.003 89.1453C329.666 87.6193 327.214 87.2182 325.459 88.2381C324.406 87.3225 322.862 87.0089 321.537 87.4422C320.21 87.8748 319.149 89.0382 318.839 90.399C317.507 89.9293 315.898 90.4025 315.033 91.519C314.167 92.6355 314.11 94.3113 314.897 95.4852C313.314 95.6966 312.02 97.224 312.072 98.82C312.123 100.416 313.512 101.857 315.106 101.967L332.823 95.0778C333.964 94.3064 334.511 92.7559 334.107 91.4385Z" fill="#263238"/>
<path d="M314.557 102.33C316.42 95.3696 323.317 91.0079 330.405 92.3064L331.109 92.4352C338.622 94.2699 341.261 101.675 339.22 109.134L332.953 134.649L332.784 134.895L320.109 143.67L317.938 142.069L315.155 135.108L316.236 129.3C316.236 129.3 309.142 126.828 310.389 119.512C310.991 115.98 312.823 108.805 314.557 102.33Z" fill="#FFBF9D"/>
<path d="M316.244 129.312C316.244 129.312 320.789 130.412 326.256 128.23C326.256 128.23 322.987 133.121 315.891 131.163L316.244 129.312Z" fill="#FF9A6C"/>
<path d="M314.945 109.668C314.824 110.215 315.188 110.768 315.758 110.904C316.325 111.04 316.884 110.708 317.004 110.161C317.125 109.614 316.761 109.061 316.193 108.925C315.624 108.789 315.065 109.122 314.945 109.668Z" fill="#263238"/>
<path d="M315.322 106.545C315.426 106.704 316.323 106.264 317.445 106.472C318.567 106.664 319.285 107.392 319.432 107.277C319.503 107.228 319.416 106.958 319.106 106.631C318.8 106.307 318.245 105.944 317.545 105.819C316.846 105.695 316.211 105.844 315.825 106.045C315.431 106.247 315.27 106.472 315.322 106.545Z" fill="#263238"/>
<path d="M324.632 111.567C324.512 112.114 324.876 112.667 325.445 112.803C326.013 112.939 326.571 112.607 326.692 112.06C326.812 111.513 326.448 110.959 325.88 110.823C325.311 110.688 324.753 111.02 324.632 111.567Z" fill="#263238"/>
<path d="M326.084 108.352C326.188 108.512 327.086 108.072 328.206 108.281C329.329 108.473 330.046 109.201 330.193 109.086C330.264 109.036 330.179 108.767 329.866 108.44C329.561 108.115 329.006 107.752 328.307 107.627C327.607 107.503 326.973 107.653 326.586 107.854C326.194 108.056 326.032 108.28 326.084 108.352Z" fill="#263238"/>
<path d="M324.685 117.748C324.5 117.7 324.13 118.628 323.159 119.225C322.198 119.836 321.177 119.778 321.146 119.961C321.127 120.046 321.371 120.188 321.821 120.221C322.265 120.257 322.92 120.153 323.523 119.777C324.125 119.399 324.495 118.862 324.646 118.454C324.802 118.042 324.772 117.766 324.685 117.748Z" fill="#263238"/>
<path d="M320.866 115.992C320.883 115.929 320.208 115.68 319.105 115.329C318.824 115.247 318.563 115.141 318.55 114.936C318.521 114.717 318.697 114.43 318.897 114.122C319.293 113.479 319.708 112.803 320.143 112.096C321.888 109.207 323.207 106.809 323.09 106.74C322.973 106.671 321.464 108.957 319.719 111.847C319.296 112.561 318.891 113.241 318.506 113.892C318.338 114.198 318.084 114.533 318.152 114.989C318.19 115.218 318.372 115.411 318.546 115.494C318.72 115.584 318.88 115.617 319.02 115.651C320.145 115.92 320.85 116.054 320.866 115.992Z" fill="#263238"/>
<path d="M326.656 105.146C326.735 105.461 327.75 105.377 328.92 105.611C330.095 105.819 331.023 106.268 331.197 106.001C331.275 105.872 331.127 105.571 330.761 105.248C330.398 104.925 329.807 104.603 329.103 104.47C328.4 104.338 327.743 104.425 327.301 104.597C326.855 104.767 326.622 104.996 326.656 105.146Z" fill="#263238"/>
<path d="M316.142 103.513C316.268 103.816 317.097 103.761 318.013 103.994C318.936 104.196 319.652 104.617 319.9 104.402C320.012 104.297 319.958 104.013 319.684 103.686C319.415 103.36 318.911 103.018 318.279 102.867C317.647 102.718 317.043 102.799 316.657 102.97C316.265 103.139 316.089 103.368 316.142 103.513Z" fill="#263238"/>
<path d="M315.871 99.111C315.871 99.111 318.633 94.8921 321.033 94.2292C323.938 93.4263 324.55 96.5657 327.224 96.3207C329.897 96.0757 332.671 95.3029 334.91 97.7445C337.36 100.417 335.752 101.683 335.334 104.954C333.641 118.215 335.359 122.368 337.174 116.308C337.373 115.644 339.353 115.45 340.156 112.638C341.196 108.991 342.165 104.51 341.819 101.724C341.527 99.3756 340.543 97.6095 338.582 95.5025C335.487 92.1761 330.575 91.217 327.17 90.9412C323.765 90.6654 316.615 93.3318 315.871 99.111Z" fill="#263238"/>
<path d="M336.747 116.025C337 114.907 338.133 114.195 339.236 114.507C340.574 114.886 341.948 115.937 341.342 118.733C340.269 123.694 335.509 121.593 335.531 121.449C335.546 121.351 336.28 118.097 336.747 116.025Z" fill="#FFBF9D"/>
<path d="M337.013 119.817C337.038 119.806 337.086 119.897 337.218 119.995C337.346 120.091 337.581 120.189 337.861 120.148C338.427 120.069 339.048 119.332 339.266 118.443C339.377 117.995 339.374 117.545 339.292 117.154C339.219 116.758 339.039 116.454 338.786 116.35C338.537 116.233 338.315 116.35 338.224 116.477C338.128 116.602 338.138 116.707 338.11 116.71C338.093 116.72 338.021 116.604 338.105 116.408C338.147 116.314 338.231 116.209 338.368 116.14C338.508 116.068 338.694 116.057 338.873 116.117C339.25 116.226 339.518 116.652 339.61 117.081C339.722 117.516 339.734 118.025 339.61 118.529C339.363 119.522 338.649 120.347 337.886 120.398C337.517 120.414 337.249 120.246 337.124 120.096C336.995 119.939 336.994 119.823 337.013 119.817Z" fill="#FF9A6C"/>
<path d="M338.419 106.339C337.689 106.663 336.921 106.994 336.126 106.928C335.331 106.862 334.52 106.25 334.53 105.452C334.535 105.094 334.693 104.707 334.514 104.397C334.301 104.027 333.779 104.035 333.353 104.003C331.874 103.891 330.576 102.593 330.465 101.113C329.993 101.6 329.134 101.417 328.64 100.954C328.145 100.49 327.893 99.8329 327.547 99.2512C327.2 98.6688 326.668 98.1074 325.991 98.0808C325.612 98.0654 325.226 98.2222 324.862 98.1207C324.217 97.9422 324.038 97.1162 324.057 96.4477C324.077 95.7792 324.139 95.0057 323.649 94.5507C323.195 94.1293 322.494 94.1965 321.874 94.1748C321.255 94.1531 320.501 93.8689 320.455 93.2508C320.431 92.926 320.623 92.625 320.844 92.3863C321.845 91.3055 323.64 91.0724 324.883 91.8613C325.674 90.3017 327.451 89.3007 329.194 89.4337C330.938 89.566 332.543 90.8246 333.087 92.4864C334.317 91.7227 335.924 91.6016 337.255 92.1728C338.585 92.7433 339.604 93.9914 339.898 95.4089C341.17 95.3116 342.468 96.0347 343.055 97.1673C343.643 98.2999 343.485 99.7776 342.673 100.761C343.476 101.438 344.08 102.47 343.91 103.506C343.739 104.542 342.544 105.388 341.598 104.933C341.854 105.811 341.326 106.843 340.465 107.149C339.603 107.456 338.543 106.99 338.186 106.148" fill="#263238"/>
<path d="M341.968 104.989C341.988 104.978 341.983 105.425 341.482 105.891C341.235 106.111 340.845 106.315 340.372 106.304C339.909 106.297 339.378 106.086 339.025 105.63L339.242 105.637C338.917 106.021 338.511 106.399 338.018 106.699C337.702 106.889 337.361 107.038 337.005 107.097C336.654 107.168 336.278 107.112 335.983 107.007C335.364 106.821 334.874 106.38 334.694 105.917C334.503 105.461 334.488 105.067 334.481 104.805C334.477 104.54 334.498 104.395 334.517 104.395C334.539 104.394 334.556 104.539 334.594 104.796C334.635 105.05 334.685 105.428 334.881 105.829C335.223 106.631 336.697 107.279 337.867 106.448C338.325 106.17 338.716 105.814 339.031 105.456L339.146 105.325L339.248 105.463C339.531 105.846 339.982 106.045 340.381 106.067C340.785 106.093 341.132 105.937 341.372 105.756C341.855 105.375 341.927 104.968 341.968 104.989Z" fill="#455A64"/>
<path d="M334.624 91.8656C334.623 91.8831 334.487 91.8768 334.247 91.93C334.012 91.9853 333.656 92.1141 333.351 92.4466L333.274 92.5306L333.222 92.4256C332.87 91.7144 332.236 90.7666 331.167 90.0302C330.635 89.6676 329.996 89.3687 329.281 89.2392C328.571 89.1055 327.79 89.1741 327.057 89.4562C326.488 89.6746 325.982 90.0113 325.58 90.4187C325.186 90.8324 324.901 91.3196 324.757 91.8229L324.712 91.9776L324.568 91.9083C323.856 91.5646 323.065 91.5709 322.448 91.7809C321.822 91.9895 321.373 92.4004 321.091 92.7889C320.527 93.5932 320.559 94.2267 320.509 94.2106C320.497 94.2106 320.482 94.0629 320.524 93.7913C320.568 93.5232 320.675 93.1249 320.956 92.6965C321.233 92.2737 321.7 91.8131 322.374 91.5681C323.036 91.3238 323.892 91.2972 324.685 91.6661L324.497 91.7515C324.647 91.202 324.952 90.6686 325.375 90.2206C325.804 89.7782 326.346 89.417 326.953 89.1846C327.733 88.8836 328.575 88.8129 329.333 88.9627C330.093 89.1069 330.763 89.4331 331.313 89.8216C332.417 90.6126 333.041 91.6136 333.366 92.3598L333.237 92.3388C333.591 91.9888 333.982 91.8803 334.233 91.8481C334.489 91.8187 334.625 91.8551 334.624 91.8656Z" fill="#455A64"/>
<path d="M255.484 186.358C255.484 186.358 255.997 180.977 258.431 179.44C260.865 177.902 267.367 176.57 267.367 176.57L269.962 184.273L265.606 189.764L255.484 186.358Z" fill="#FFBF9D"/>
<path d="M241.095 264.957L241.672 281.533C241.672 281.533 225.101 287.342 224.91 290.416L257.007 290.795L257.167 264.93L241.095 264.957Z" fill="#263238"/>
<path d="M251.565 280.207C252.192 280.38 252.625 281.085 252.478 281.719C252.332 282.352 251.618 282.799 250.988 282.638C250.358 282.477 249.812 281.645 250.029 281.032C250.245 280.419 251.112 279.941 251.685 280.248" fill="#E0E0E0"/>
<path d="M257.161 290.794L257.174 288.734L226.013 288.992C226.013 288.992 224.99 289.619 224.902 290.588L257.161 290.794Z" fill="#455A64"/>
<path d="M241.532 281.638C241.537 281.796 242.329 281.869 243.106 282.379C243.898 282.868 244.299 283.554 244.444 283.492C244.59 283.462 244.355 282.515 243.403 281.914C242.455 281.305 241.499 281.493 241.532 281.638Z" fill="#455A64"/>
<path d="M238.134 283.041C238.098 283.194 238.783 283.464 239.32 284.134C239.877 284.788 240.012 285.512 240.169 285.505C240.318 285.53 240.428 284.604 239.746 283.783C239.069 282.957 238.138 282.889 238.134 283.041Z" fill="#455A64"/>
<path d="M236.198 287.107C236.341 287.141 236.563 286.35 236.157 285.483C235.758 284.613 235.012 284.271 234.945 284.402C234.855 284.532 235.335 284.998 235.657 285.715C235.996 286.424 236.041 287.091 236.198 287.107Z" fill="#455A64"/>
<path d="M241.822 277.818C241.888 277.962 242.614 277.744 243.509 277.806C244.405 277.849 245.101 278.15 245.183 278.015C245.275 277.901 244.596 277.314 243.541 277.256C242.488 277.19 241.744 277.693 241.822 277.818Z" fill="#455A64"/>
<path d="M241.25 274.248C241.248 274.313 241.874 274.411 242.873 274.241C243.371 274.155 243.957 273.993 244.572 273.721C244.88 273.585 245.194 273.422 245.505 273.228C245.654 273.132 245.832 273.035 245.995 272.846C246.171 272.682 246.271 272.262 246.069 272.004C245.903 271.755 245.61 271.647 245.376 271.641C245.137 271.634 244.943 271.681 244.767 271.725C244.406 271.812 244.067 271.931 243.757 272.07C243.138 272.351 242.635 272.707 242.259 273.051C241.507 273.746 241.249 274.337 241.304 274.368C241.375 274.42 241.742 273.926 242.508 273.352C242.89 273.066 243.377 272.771 243.956 272.537C244.246 272.423 244.559 272.324 244.889 272.251C245.232 272.162 245.524 272.159 245.612 272.312C245.644 272.37 245.648 272.393 245.577 272.494C245.503 272.586 245.363 272.677 245.216 272.772C244.93 272.959 244.641 273.121 244.359 273.261C243.793 273.541 243.252 273.732 242.789 273.861C241.859 274.119 241.247 274.161 241.25 274.248Z" fill="#455A64"/>
<path d="M227.488 232.828L219.672 247.457C219.672 247.457 202.422 244.17 200.715 246.733L228.291 263.163L241.404 240.868L227.488 232.828Z" fill="#263238"/>
<path d="M228.758 251.198C229.215 251.661 229.235 252.488 228.79 252.964C228.346 253.438 227.505 253.466 227.04 253.011C226.576 252.556 226.521 251.562 227.016 251.14C227.511 250.718 228.501 250.739 228.842 251.293" fill="#E0E0E0"/>
<path d="M228.291 263.161L229.335 261.385L202.25 245.977C202.25 245.977 201.05 246.006 200.488 246.8L228.291 263.161Z" fill="#455A64"/>
<path d="M219.365 247.4C219.29 247.539 219.939 247.999 220.356 248.83C220.795 249.651 220.798 250.445 220.954 250.464C221.096 250.511 221.367 249.575 220.844 248.577C220.331 247.575 219.409 247.257 219.365 247.4Z" fill="#455A64"/>
<path d="M215.72 246.91C215.611 247.025 216.069 247.601 216.196 248.45C216.35 249.295 216.103 249.99 216.243 250.063C216.359 250.159 216.919 249.413 216.74 248.36C216.569 247.306 215.798 246.781 215.72 246.91Z" fill="#455A64"/>
<path d="M212.004 249.456C212.112 249.557 212.7 248.985 212.784 248.031C212.875 247.078 212.402 246.407 212.277 246.487C212.135 246.555 212.317 247.198 212.235 247.98C212.172 248.763 211.876 249.363 212.004 249.456Z" fill="#455A64"/>
<path d="M221.531 244.244C221.517 244.402 222.254 244.578 222.997 245.081C223.75 245.568 224.201 246.177 224.34 246.101C224.476 246.048 224.183 245.2 223.3 244.621C222.423 244.035 221.527 244.098 221.531 244.244Z" fill="#455A64"/>
<path d="M222.829 240.863C222.794 240.919 223.286 241.318 224.236 241.672C224.709 241.847 225.298 242.001 225.967 242.074C226.301 242.111 226.655 242.127 227.021 242.115C227.199 242.106 227.4 242.112 227.636 242.031C227.871 241.976 228.167 241.663 228.122 241.339C228.104 241.04 227.904 240.8 227.704 240.678C227.502 240.551 227.31 240.496 227.136 240.445C226.779 240.339 226.427 240.272 226.089 240.237C225.412 240.169 224.798 240.224 224.301 240.334C223.302 240.558 222.782 240.94 222.814 240.994C222.85 241.075 223.414 240.831 224.365 240.718C224.839 240.663 225.409 240.653 226.027 240.741C226.336 240.787 226.655 240.858 226.977 240.961C227.319 241.055 227.572 241.2 227.572 241.376C227.57 241.443 227.562 241.465 227.449 241.516C227.339 241.558 227.173 241.567 226.998 241.575C226.656 241.593 226.325 241.588 226.01 241.568C225.38 241.527 224.817 241.42 224.351 241.299C223.419 241.058 222.869 240.788 222.829 240.863Z" fill="#263238"/>
<path d="M328.342 208.317C328.315 207.973 328.297 207.781 328.297 207.781L328.342 208.317Z" fill="#263238"/>
<path d="M328.847 208.323L291.949 194.514C291.949 194.514 270.148 184.337 262.223 182.152C253.74 179.813 246.087 186.195 241.358 196.089C238.155 202.791 220.258 244.579 220.258 244.579L234.443 253.772L262.786 203.244L304.24 230.151C304.24 230.151 312.411 229.989 320.311 229.989C327.451 229.99 329.097 211.58 328.847 208.323Z" fill="#263238"/>
<path d="M238.645 278.812L243.839 221.522C243.839 221.522 244.753 209.596 251.636 207.215C258.518 204.834 266.564 205.792 266.564 205.792L305.133 230.135L265.563 230.815C265.563 230.815 263.55 239.141 262.976 242.752C262.291 247.058 257.174 279.559 257.174 279.559L238.645 278.812Z" fill="#263238"/>
<path d="M304.238 228.019C304.238 228.019 304.18 227.976 304.06 227.901C303.932 227.823 303.755 227.714 303.525 227.573C303.043 227.283 302.344 226.862 301.44 226.319C299.607 225.228 296.946 223.646 293.603 221.656C290.247 219.668 286.206 217.275 281.629 214.565C279.338 213.21 276.913 211.776 274.373 210.275C273.103 209.525 271.803 208.757 270.477 207.973C269.136 207.215 267.769 206.44 266.377 205.653L266.35 205.637L266.317 205.637C264.625 205.584 262.804 205.527 260.952 205.469H260.946H260.941C258.666 205.582 256.325 205.805 253.994 206.367C253.412 206.512 252.833 206.671 252.26 206.899C251.717 207.185 251.17 207.452 250.651 207.777L249.904 208.318L249.531 208.589L249.193 208.906L248.516 209.54C248.299 209.76 248.11 210.008 247.905 210.241C246.479 211.943 245.483 213.935 244.822 215.979C244.146 218.02 243.768 220.125 243.642 222.199C243.271 226.322 242.912 230.301 242.571 234.09C241.895 241.667 241.286 248.491 240.774 254.226C240.274 259.952 239.868 264.588 239.587 267.803C239.453 269.399 239.348 270.642 239.277 271.496C239.245 271.911 239.221 272.231 239.204 272.457C239.188 272.674 239.188 272.785 239.188 272.785C239.188 272.785 239.207 272.675 239.231 272.459C239.255 272.234 239.288 271.916 239.331 271.501C239.414 270.648 239.535 269.407 239.691 267.813C239.992 264.599 240.427 259.965 240.965 254.242C241.493 248.508 242.122 241.685 242.82 234.109C243.166 230.319 243.53 226.341 243.906 222.218C244.034 220.158 244.409 218.083 245.078 216.063C245.732 214.044 246.715 212.083 248.113 210.416C248.313 210.187 248.498 209.944 248.71 209.728L249.372 209.107L249.703 208.798L250.068 208.533L250.798 208.005C251.302 207.688 251.846 207.425 252.363 207.149C252.908 206.932 253.486 206.772 254.058 206.629C256.36 206.073 258.689 205.849 260.953 205.734H260.943C262.795 205.789 264.617 205.845 266.308 205.895L266.249 205.878C267.641 206.664 269.009 207.435 270.35 208.191C271.677 208.972 272.979 209.737 274.25 210.485C276.794 211.98 279.223 213.407 281.517 214.756C286.105 217.447 290.156 219.823 293.52 221.796C296.879 223.758 299.553 225.319 301.394 226.395C302.307 226.922 303.014 227.33 303.501 227.612C303.735 227.745 303.916 227.847 304.047 227.921C304.173 227.988 304.238 228.019 304.238 228.019Z" fill="#455A64"/>
<path d="M296.478 179.695L285.894 181.844L276.652 184.955L292.25 194.575L294.91 188.51L296.478 179.695Z" fill="#FF725E"/>
<path d="M334.859 133.786C334.859 133.786 343.32 145.351 340.256 160.465C337.192 175.579 332.045 205.127 331.893 208.404C331.769 211.098 330.3 210.831 330.3 210.831L292.395 194.996L300.402 162.771L312.392 140.893L314.244 135.273L334.064 130.094L334.859 133.786Z" fill="#FF725E"/>
<path d="M293.859 190.141C293.859 190.141 294.417 196.837 294.48 197.673C294.543 198.508 293.381 201.23 293.371 202.748C293.36 204.266 293.83 205.739 293.185 206.21C292.541 206.681 290.97 206.306 290.632 205.202C290.295 204.099 290.55 200.749 290.55 200.749L289.627 203.736L289.321 209.343C289.321 209.343 289.164 210.221 288.156 210.129C287.148 210.038 286.58 209.193 286.58 209.193C286.58 209.193 285.373 209.434 284.795 208.101C284.795 208.101 282.96 208.579 282.477 205.514C282.477 205.514 281.632 205.757 281.135 204.935C280.637 204.111 279.664 202.069 279.664 202.069C279.664 202.069 279.888 194.666 280.41 193.068C280.932 191.469 285.566 185.977 285.566 185.977C285.566 185.977 290.409 186.37 292.331 186.222L293.859 190.141Z" fill="#FFBF9D"/>
<path d="M287.315 196.364C287.299 196.357 287.222 196.515 287.096 196.807C286.967 197.097 286.808 197.53 286.638 198.072C286.295 199.156 285.957 200.704 285.863 202.443C285.775 204.183 285.949 205.757 286.176 206.871C286.288 207.428 286.4 207.875 286.498 208.178C286.593 208.482 286.653 208.646 286.671 208.641C286.713 208.63 286.536 207.952 286.359 206.839C286.181 205.727 286.038 204.172 286.126 202.457C286.218 200.742 286.523 199.211 286.816 198.124C287.109 197.035 287.357 196.38 287.315 196.364Z" fill="#FF9A6C"/>
<path d="M283.823 196.027C283.804 196.025 283.762 196.188 283.701 196.487C283.641 196.786 283.562 197.22 283.477 197.758C283.312 198.834 283.108 200.339 283.155 202.014C283.202 203.692 283.563 205.193 284 206.202C284.214 206.708 284.429 207.099 284.597 207.355C284.763 207.613 284.872 207.744 284.885 207.735C284.926 207.71 284.549 207.146 284.173 206.133C283.788 205.126 283.464 203.655 283.419 202.006C283.372 200.357 283.543 198.862 283.662 197.783C283.786 196.704 283.86 196.033 283.823 196.027Z" fill="#FF9A6C"/>
<path d="M282.37 195.766C282.332 195.764 282.27 196.294 282.132 197.147C282.003 198 281.772 199.177 281.674 200.506C281.576 201.837 281.728 203.062 282.016 203.893C282.155 204.31 282.309 204.632 282.435 204.842C282.56 205.053 282.645 205.158 282.659 205.15C282.7 205.127 282.419 204.665 282.194 203.84C281.959 203.018 281.841 201.831 281.936 200.524C282.032 199.217 282.234 198.036 282.316 197.171C282.408 196.307 282.405 195.767 282.37 195.766Z" fill="#FF9A6C"/>
<g opacity="0.3">
<path d="M276.059 186.404C276.059 186.404 282.355 188.181 286.311 189.231C290.268 190.281 292.431 190.592 294.533 189.681C296.634 188.77 304.842 184.623 306.748 183.166C309.412 181.13 318.818 174.355 320.51 172.554C323.723 169.134 328.319 163.73 328.319 163.73L291.386 183.93L276.95 184.743L276.059 186.404Z" fill="black"/>
</g>
<path d="M334.909 149.255C334.789 148.625 334.314 147.491 334.06 146.947C330.523 139.394 318.131 143.745 312.919 148.368C308.257 152.503 290.212 172.555 290.212 172.555L266.898 176.571L269.485 185.237C269.485 185.237 274.166 186.547 280.245 187.171C288.178 187.986 289.428 188.193 293.806 187.134C297.849 186.156 311.39 176.814 318.918 171.377C326.397 165.977 336.577 158.054 334.909 149.255Z" fill="#FF725E"/>
<path d="M334.91 149.255C334.91 149.255 334.938 149.396 334.974 149.674C335.009 149.965 335.059 150.377 335.122 150.913C335.094 152 335.052 153.661 334.256 155.616C333.494 157.567 332.114 159.769 330.124 161.979C328.143 164.197 325.618 166.475 322.65 168.759C319.687 171.053 316.331 173.415 312.717 175.949C309.09 178.462 305.186 181.123 300.932 183.718C299.866 184.364 298.78 185.009 297.652 185.613C296.525 186.217 295.378 186.826 294.099 187.223C292.83 187.572 291.529 187.835 290.186 187.963C288.843 188.087 287.482 188.023 286.124 187.923C284.766 187.819 283.401 187.675 282.025 187.536C280.65 187.394 279.257 187.261 277.86 187.067C275.067 186.68 272.252 186.155 269.439 185.415L269.343 185.389L269.313 185.291C268.888 183.866 268.431 182.335 267.971 180.795C267.553 179.396 267.138 178.004 266.727 176.625L266.668 176.429L266.87 176.394C275.044 174.989 282.9 173.639 290.185 172.388L290.086 172.442C295.92 165.99 301.383 160.035 306.358 154.788C307.602 153.476 308.818 152.212 310.013 151.005C311.215 149.807 312.356 148.621 313.611 147.635C316.14 145.702 318.839 144.453 321.368 143.66C323.9 142.869 326.327 142.589 328.397 142.885C329.431 143.032 330.368 143.332 331.152 143.755C331.939 144.175 332.561 144.715 333.034 145.263C333.981 146.378 334.332 147.47 334.604 148.16C334.732 148.513 334.814 148.786 334.86 148.973C334.903 149.157 334.91 149.255 334.91 149.255C334.904 149.257 334.884 149.162 334.829 148.979C334.774 148.797 334.683 148.527 334.546 148.18C334.258 147.497 333.888 146.419 332.945 145.337C332.023 144.252 330.422 143.301 328.372 143.049C326.333 142.773 323.935 143.065 321.43 143.863C318.929 144.662 316.253 145.917 313.767 147.836C312.54 148.808 311.402 149.998 310.207 151.198C309.019 152.407 307.808 153.674 306.569 154.988C301.613 160.247 296.164 166.214 290.341 172.672L290.301 172.717L290.242 172.727C282.958 173.985 275.104 175.341 266.93 176.752L267.074 176.52C267.486 177.899 267.901 179.291 268.319 180.69C268.779 182.23 269.236 183.761 269.661 185.186L269.536 185.063C272.32 185.796 275.132 186.322 277.909 186.71C279.297 186.903 280.683 187.036 282.06 187.179C283.436 187.32 284.8 187.465 286.15 187.569C287.501 187.671 288.84 187.734 290.154 187.615C291.463 187.491 292.762 187.232 294.005 186.891C295.222 186.516 296.375 185.912 297.491 185.315C298.612 184.717 299.696 184.076 300.759 183.434C305.008 180.855 308.916 178.205 312.548 175.705C316.166 173.185 319.531 170.834 322.496 168.559C325.467 166.294 327.992 164.039 329.976 161.846C331.969 159.662 333.354 157.489 334.128 155.565C334.935 153.637 335 151.996 335.051 150.914C335.002 150.38 334.964 149.969 334.938 149.679C334.914 149.4 334.91 149.255 334.91 149.255Z" fill="#263238"/>
<path d="M334.487 133.525C334.483 133.516 334.4 133.545 334.247 133.606C334.067 133.682 333.848 133.774 333.583 133.885C332.97 134.146 332.146 134.495 331.145 134.92C329.082 135.777 326.211 136.917 322.981 138.008C320.369 138.894 317.927 139.618 315.971 140.16L316.088 140.208C315.298 138.911 314.88 137.722 314.643 136.889C314.524 136.471 314.45 136.139 314.398 135.914C314.349 135.688 314.32 135.568 314.309 135.57C314.299 135.571 314.307 135.694 314.336 135.924C314.369 136.155 314.425 136.492 314.527 136.919C314.731 137.769 315.125 138.985 315.908 140.316L315.948 140.383L316.025 140.363C317.993 139.852 320.447 139.144 323.066 138.256C326.304 137.162 329.171 135.992 331.219 135.09C332.242 134.636 333.063 134.253 333.626 133.978C333.882 133.848 334.095 133.741 334.27 133.654C334.416 133.577 334.491 133.533 334.487 133.525Z" fill="#263238"/>
<path d="M330.258 230.506H333.654C335.441 230.506 336.95 229.17 337.164 227.396C337.834 221.855 339.165 206.426 339.179 206.271L336.757 206.062C336.743 206.217 335.415 221.605 334.75 227.105C334.684 227.658 334.212 228.075 333.654 228.075H330.258V230.506Z" fill="#E0E0E0"/>
<path d="M330.256 230.506C330.259 230.503 330.263 230.446 330.267 230.338C330.271 230.216 330.275 230.06 330.28 229.867C330.288 229.439 330.299 228.841 330.313 228.075L330.257 228.131C330.805 228.136 331.437 228.142 332.146 228.149C332.503 228.152 332.88 228.154 333.274 228.157C333.472 228.152 333.671 228.178 333.898 228.135C334.116 228.09 334.329 227.982 334.495 227.816C334.663 227.653 334.784 227.433 334.829 227.193C334.863 226.957 334.878 226.736 334.904 226.501C334.951 226.034 334.999 225.551 335.05 225.051C335.149 224.05 335.255 222.986 335.366 221.863C335.803 217.362 336.328 211.946 336.898 206.075L336.742 206.206C337.312 206.255 337.923 206.308 338.538 206.361C338.752 206.379 338.966 206.398 339.164 206.415L339.033 206.259C338.267 214.46 337.578 221.852 337.077 227.221C336.984 228.55 336.144 229.582 335.22 230.048C334.28 230.556 333.326 230.417 332.597 230.452C331.865 230.465 331.289 230.476 330.875 230.483C330.688 230.487 330.538 230.492 330.418 230.495C330.315 230.499 330.259 230.503 330.256 230.506C330.252 230.51 330.301 230.513 330.399 230.517C330.514 230.52 330.659 230.524 330.84 230.529C331.256 230.536 331.835 230.546 332.57 230.56C332.95 230.561 333.37 230.578 333.835 230.565C334.298 230.545 334.805 230.437 335.292 230.19C336.265 229.721 337.168 228.632 337.278 227.244C337.801 221.876 338.522 214.483 339.321 206.284L339.335 206.14L339.189 206.127C338.992 206.111 338.778 206.092 338.564 206.074C337.948 206.02 337.338 205.968 336.767 205.919L336.625 205.906L336.611 206.05C336.062 211.919 335.554 217.336 335.133 221.836C335.03 222.959 334.933 224.024 334.842 225.026C334.796 225.526 334.753 226.01 334.71 226.477C334.687 226.707 334.672 226.946 334.644 227.158C334.609 227.361 334.508 227.547 334.368 227.687C334.228 227.83 334.049 227.924 333.862 227.965C333.681 228.005 333.471 227.985 333.274 227.992C332.88 227.995 332.503 227.998 332.146 228C331.437 228.007 330.805 228.013 330.257 228.018L330.199 228.019L330.2 228.075C330.214 228.854 330.224 229.462 330.232 229.898C330.238 230.087 330.242 230.238 330.245 230.357C330.249 230.46 330.252 230.51 330.256 230.506Z" fill="#263238"/>
<path d="M276.132 233.477H330.377C332.398 233.477 334.036 232.12 334.036 230.446C334.036 228.771 332.398 227.414 330.377 227.414H276.132C274.111 227.414 272.473 228.771 272.473 230.446C272.473 232.119 274.111 233.477 276.132 233.477Z" fill="#455A64"/>
<path d="M341.98 208.089L349.382 150.02C349.637 148.016 348.22 146.184 346.215 145.928C344.21 145.673 342.378 147.09 342.123 149.095L334.721 207.164C334.466 209.168 335.884 211 337.888 211.256C339.893 211.511 341.725 210.093 341.98 208.089Z" fill="#455A64"/>
<path d="M276.491 231.211L268.406 290.546L271.622 290.544L283.692 233.477L276.491 231.211Z" fill="#455A64"/>
<path d="M329.745 231.211L337.605 290.546L334.389 290.544L322.543 233.477L329.745 231.211Z" fill="#455A64"/>
<path d="M276.133 233.476C276.133 233.556 288.447 233.62 303.634 233.62C318.826 233.62 331.137 233.556 331.137 233.476C331.137 233.396 318.826 233.332 303.634 233.332C288.447 233.332 276.133 233.396 276.133 233.476Z" fill="#263238"/>
</svg>
