<svg width="124" height="132" viewBox="0 0 124 132" fill="none" xmlns="http://www.w3.org/2000/svg">
<path d="M53.479 59.0955C51.4971 58.518 49.6044 58.0259 47.8008 57.619C47.0575 55.2665 46.6823 52.8132 46.6884 50.3461C46.6884 39.582 53.607 30.8555 62.1415 30.8555C70.676 30.8555 77.588 39.5737 77.588 50.3395C77.593 52.6909 77.2525 55.0303 76.5773 57.2827C74.333 57.753 71.942 58.3573 69.4045 59.0955C65.7952 60.1488 62.8765 61.1923 61.4377 61.7287C60.007 61.1923 57.0884 60.1488 53.479 59.0955ZM32.4872 73.031C30.6973 73.031 28.9475 73.5618 27.4593 74.5563C25.971 75.5507 24.8111 76.9642 24.1262 78.6179C23.4413 80.2716 23.2622 82.0913 23.6115 83.8468C23.9608 85.6023 24.8229 87.2148 26.0887 88.4804C27.3545 89.7459 28.9671 90.6077 30.7227 90.9567C32.4783 91.3057 34.2979 91.1263 35.9515 90.4411C37.6051 89.7559 39.0183 88.5957 40.0125 87.1072C41.0067 85.6188 41.5372 83.869 41.5369 82.0791C41.5364 79.6792 40.5828 77.3778 38.8857 75.681C37.1886 73.9842 34.887 73.031 32.4872 73.031ZM91.5152 73.031C89.7253 73.031 87.9756 73.5618 86.4873 74.5563C84.9991 75.5507 83.8392 76.9642 83.1543 78.6179C82.4694 80.2716 82.2902 82.0913 82.6396 83.8468C82.9889 85.6023 83.8509 87.2148 85.1167 88.4804C86.3825 89.7459 87.9952 90.6077 89.7507 90.9567C91.5063 91.3057 93.326 91.1263 94.9795 90.4411C96.6331 89.7559 98.0464 88.5957 99.0406 87.1072C100.035 85.6188 100.565 83.869 100.565 82.0791C100.564 79.6795 99.6111 77.3783 97.9143 75.6816C96.2176 73.9849 93.9164 73.0315 91.5169 73.031H91.5152ZM79.8422 82.0791C79.8447 79.8219 80.5008 77.6137 81.7311 75.7213C82.9615 73.8289 84.7135 72.3332 86.7755 71.415V58.692C76.1951 58.692 61.4377 64.5391 61.4377 64.5391C61.4377 64.5391 46.6802 58.692 36.0998 58.692V70.9835C38.4418 71.7466 40.4823 73.231 41.9292 75.2243C43.3762 77.2176 44.1554 79.6176 44.1554 82.0807C44.1554 84.5438 43.3762 86.9438 41.9292 88.9371C40.4823 90.9304 38.4418 92.4148 36.0998 93.1779V94.3263C46.6802 94.3263 61.4377 101.148 61.4377 101.148C61.4377 101.148 76.2016 94.3312 86.7755 94.3312V92.7431C84.7135 91.8249 82.9615 90.3293 81.7311 88.4369C80.5008 86.5445 79.8447 84.3363 79.8422 82.0791Z" fill="#FF6477"/>
</svg>
