<svg width="124" height="132" viewBox="0 0 124 132" fill="none" xmlns="http://www.w3.org/2000/svg">
<path d="M53.25 59C54.8587 59 56.4516 58.6831 57.9379 58.0675C59.4241 57.4519 60.7745 56.5496 61.9121 55.4121C63.0496 54.2745 63.9519 52.9241 64.5675 51.4379C65.1831 49.9516 65.5 48.3587 65.5 46.75C65.5 45.1413 65.1831 43.5484 64.5675 42.0621C63.9519 40.5759 63.0496 39.2255 61.9121 38.0879C60.7745 36.9504 59.4241 36.0481 57.9379 35.4325C56.4516 34.8169 54.8587 34.5 53.25 34.5C50.0011 34.5 46.8853 35.7906 44.5879 38.0879C42.2906 40.3853 41 43.5011 41 46.75C41 49.9989 42.2906 53.1147 44.5879 55.4121C46.8853 57.7094 50.0011 59 53.25 59Z" fill="#FF6477" stroke="#FF6477" stroke-width="4" stroke-linecap="round" stroke-linejoin="round"/>
<path d="M77.75 38C77.75 38 81.6875 45.875 77.75 55.5M90 31C90 31 97.875 45.175 90 62.5" stroke="#FF6477" stroke-width="4" stroke-linecap="round" stroke-linejoin="round"/>
<path d="M27 95.4V97.5H79.5V95.4C79.5 87.56 79.5 83.64 77.974 80.644C76.6318 78.0098 74.4902 75.8682 71.856 74.526C68.86 73 64.94 73 57.1 73H49.4C41.56 73 37.64 73 34.644 74.526C32.0098 75.8682 29.8682 78.0098 28.526 80.644C27 83.64 27 87.56 27 95.4Z" fill="#FF6477" stroke="#FF6477" stroke-width="4" stroke-linecap="round" stroke-linejoin="round"/>
</svg>
