<svg width="90" height="90" viewBox="0 0 90 90" fill="none" xmlns="http://www.w3.org/2000/svg">
<rect width="90" height="90" rx="45" fill="#FF5573"/>
<path d="M27.5013 15.832C25.9555 15.832 24.468 16.4445 23.3888 17.5529C22.2805 18.632 21.668 20.1195 21.668 21.6654V68.332C21.668 69.8779 22.2805 71.3654 23.3888 72.4445C24.468 73.5529 25.9555 74.1654 27.5013 74.1654H47.918C46.8388 72.4154 45.993 70.432 45.4971 68.332H27.5013V21.6654H47.918V36.2487H62.5013V44.9987H63.9596C65.418 44.9987 66.8763 45.1737 68.3346 45.4945V33.332L50.8346 15.832H27.5013ZM45.0013 62.4987C45.2055 60.457 45.7013 58.4737 46.4596 56.6654H33.3346V62.4987H45.0013ZM50.2805 50.832C52.0888 48.9654 54.2471 47.4779 56.668 46.457V44.9987H33.3346V50.832H50.2805ZM62.5013 52.2904C65.7388 52.2904 68.6555 53.6029 70.7555 55.7029L74.168 52.2904V63.957H62.5013L67.6638 58.7945C66.6133 57.7436 65.2668 57.0388 63.8046 56.7743C62.3424 56.5099 60.8344 56.6985 59.4823 57.3148C58.1303 57.9311 56.9988 58.9459 56.2394 60.223C55.48 61.5002 55.1289 62.979 55.2332 64.4612C55.3374 65.9434 55.8921 67.3585 56.8228 68.5168C57.7535 69.6751 59.0158 70.5214 60.4408 70.9424C61.8659 71.3635 63.3855 71.3391 64.7962 70.8725C66.207 70.406 67.4416 69.5196 68.3346 68.332H73.3221C72.4533 70.4893 70.9581 72.3369 69.0294 73.6366C67.1008 74.9362 64.827 75.6283 62.5013 75.6237C56.0555 75.6237 50.8346 70.4029 50.8346 63.957C50.8346 57.5112 56.0555 52.2904 62.5013 52.2904Z" fill="white"/>
</svg>
