<svg width="43" height="43" viewBox="0 0 43 43" fill="none" xmlns="http://www.w3.org/2000/svg">
<g clip-path="url(#clip0_198_18748)">
<path d="M21.0343 6.09546L-0.539063 14.1857L21.0343 24.9723L31.3094 19.8348L21.6702 16.8877C21.4717 16.9829 21.2544 17.0325 21.0343 17.033C20.6422 17.033 20.2663 16.8773 19.9891 16.6C19.7118 16.3228 19.5561 15.9469 19.5561 15.5548C19.5561 15.1628 19.7118 14.7868 19.9891 14.5096C20.2663 14.2324 20.6422 14.0767 21.0343 14.0767L20.7898 14.8714L22.5024 15.3982C22.5026 15.4 22.5029 15.4017 22.5031 15.4034L25.0302 16.1762L39.419 20.6032V21.7254C39.22 21.8608 39.0571 22.0427 38.9444 22.2554C38.8317 22.4681 38.7726 22.7051 38.7723 22.9458C38.7726 23.192 38.8344 23.4342 38.952 23.6505C39.0697 23.8668 39.2395 24.0503 39.4461 24.1843C38.7732 26.7272 38.7723 32.4968 38.7723 34.771C40.2505 35.7314 40.2505 35.7665 41.7287 34.771C41.7287 32.4971 41.7279 26.7286 41.0552 24.1851C41.2618 24.051 41.4317 23.8674 41.5493 23.6509C41.6669 23.4345 41.7286 23.192 41.7287 22.9457C41.7286 22.7047 41.6697 22.4674 41.557 22.2544C41.4443 22.0414 41.2812 21.8592 41.082 21.7237V19.3753L35.6013 17.6889L42.6076 14.1857L21.0343 6.09546ZM8.435 20.8208L7.22263 28.0953C9.64082 28.4115 12.5335 29.817 15.1927 31.4791C16.7051 32.4244 18.1216 33.4619 19.2721 34.4687C19.9754 35.084 20.5634 35.6743 21.0343 36.2551C21.5052 35.6742 22.0932 35.084 22.7964 34.4687C23.9469 33.4619 25.3634 32.4244 26.8758 31.4791C29.5351 29.817 32.4277 28.4115 34.8459 28.0953L33.6334 20.8208H33.056L21.0343 26.8317L9.01241 20.8208H8.435Z" fill="white"/>
</g>
<defs>
<clipPath id="clip0_198_18748">
<rect width="42.5611" height="42.5611" fill="white" transform="translate(0.273438 0.141357)"/>
</clipPath>
</defs>
</svg>
