<svg width="90" height="90" viewBox="0 0 90 90" fill="none" xmlns="http://www.w3.org/2000/svg">
<rect width="90" height="90" rx="45" fill="#FF5573"/>
<path d="M30.4688 21.7031C30.3047 21.7031 30.127 21.7031 29.9629 21.7168C25.3281 21.8262 19.6406 23.1797 12.5586 26.3242V59.6016C20.8711 55.6641 27.1465 54.5293 32.2734 55.0762C34.1465 55.2676 35.8691 55.6914 37.4551 56.2519L31.2891 45.4785C30.1133 45.957 28.8418 46.2305 27.502 46.2305C22.0045 46.2305 17.5215 41.7461 17.5215 36.25C17.5215 30.7539 22.0045 26.2695 27.502 26.2695C32.998 26.2695 37.4824 30.7539 37.4824 36.25C37.4824 39.5312 35.8828 42.4434 33.4219 44.2754L41.2559 57.9473C42.1035 58.3848 42.9102 58.8633 43.7031 59.3418V26.1191C40.5313 23.6992 36.8398 22.0176 31.9453 21.7441C31.4668 21.7168 30.9746 21.7031 30.4688 21.7031ZM59.4531 21.7031C58.9473 21.7031 58.4414 21.7168 57.9629 21.7441C53.0684 22.0176 49.3906 23.6992 46.2051 26.1191V59.3418C49.4727 57.3457 53.0547 55.5547 57.6348 55.0762C62.7617 54.5293 69.0508 55.6641 77.3496 59.6016V26.3242C70.2813 23.1797 64.5938 21.8262 59.959 21.7168C59.7813 21.7168 59.6172 21.7031 59.4531 21.7031ZM27.502 28.7305C23.3348 28.7305 19.9824 32.0801 19.9824 36.25C19.9824 40.4199 23.3348 43.7695 27.502 43.7695C31.6719 43.7695 35.0215 40.4199 35.0215 36.25C35.0215 32.0801 31.6719 28.7305 27.502 28.7305ZM27.8164 30.6309H28.1992C24.9043 33.1191 23.4441 36.3867 23.6369 40.2285C20.074 34.9238 23.8105 30.7402 27.8164 30.6309ZM29.6074 57.4961C25.2324 57.5371 19.791 58.8359 12.5586 62.418V68.2285C20.8711 64.291 27.1465 63.1562 32.2734 63.7031C34.8164 63.9766 37.0449 64.6465 39.082 65.5215C38.4395 66.3555 37.8106 67.3398 37.1816 68.4883H44.4688L39.5469 59.916C37.2773 58.7812 34.8574 57.9199 32.0137 57.6191C31.248 57.5371 30.4414 57.4961 29.6074 57.4961ZM59.8086 57.4961C59.1523 57.5098 58.5234 57.5508 57.9082 57.6191C53.2598 58.1113 49.7598 60.0801 46.2051 62.3223V62.3633C45.3711 62.1035 44.5234 62.0488 43.7031 62.1992L47.2988 68.4883H53.2051C52.3848 67.3672 51.5918 66.3828 50.7852 65.5352C52.8359 64.6465 55.0781 63.9766 57.6348 63.7031C62.7617 63.1562 69.0508 64.291 77.3496 68.2285V62.418C70.0898 58.8223 64.6211 57.5098 60.2324 57.4961H59.8086Z" fill="white"/>
</svg>
