<svg width="9" height="19" viewBox="0 0 9 19" fill="none" xmlns="http://www.w3.org/2000/svg">
<path d="M8.0104 12.7446H1.71484V18.3913H8.0104V12.7446Z" fill="#692C33"/>
<path d="M8.77288 11.8604H0.949219V13.0967H8.77288V11.8604Z" fill="#692C33"/>
<path d="M7.65675 10.5667H2.06641V12.476H7.65675V10.5667Z" fill="#692C33"/>
<path d="M7.00945 9.50879H2.71484V10.9172H7.00945V9.50879Z" fill="#692C33"/>
<path fill-rule="evenodd" clip-rule="evenodd" d="M3.29895 7.74195L3.65105 6.97738L3.12189 3.85678L4.27075 3.15358L3.71142 2.74112L4.38744 2.32868L4.27075 1.44641C4.27075 1.44641 4.2446 0.856888 4.85825 0.908194C5.47192 0.856888 5.44576 1.44641 5.44576 1.44641L5.32906 2.32868L6.00409 2.74112L5.44576 3.15358L6.59461 3.85678L6.06445 6.97738L6.41755 7.74195L7.12477 9.5085H6.88836H4.94779H4.77073H2.82814H2.59375L3.29895 7.74195Z" fill="#692C33"/>
</svg>
