<svg width="54" height="94" viewBox="0 0 54 94" fill="none" xmlns="http://www.w3.org/2000/svg">
<path d="M0.046875 82.7784C2.96143 75.5409 13.0443 70.3684 18.1966 70.4366H35.5966C41.3163 70.9751 50.8338 75.5409 53.7464 82.7784C46.9323 89.5224 37.4264 93.7137 26.8972 93.7137C16.3698 93.7137 6.86095 89.5233 0.046875 82.7784Z" fill="#31241C"/>
<path d="M34.0047 55.5815C34.0047 55.5815 35.6703 69.2702 36.8223 77.0107C37.6623 82.6641 17.3708 84.2529 16.7555 78.1579C16.215 70.93 15.5977 58.6785 15.5977 58.6785" fill="#C97440"/>
<path d="M34.8255 61.8724L34.0017 55.5815L15.5938 58.6795C15.5938 58.6795 15.7848 62.4446 16.043 67.1649C17.3352 67.5739 18.683 67.858 20.0942 67.9636C25.9137 68.3985 31.2744 65.964 34.8255 61.8724Z" fill="#AB5D2D"/>
<path d="M3.76889 44.7576C3.03833 54.5409 10.3775 63.0628 20.158 63.7972C29.9394 64.5268 38.4652 57.1895 39.1948 47.4052L40.5973 28.6708C41.3298 18.8875 33.9887 10.3636 24.2092 9.635C14.4249 8.90252 5.90009 16.2398 5.17145 26.0222L3.76889 44.7576Z" fill="#C97440"/>
<path d="M28.0908 28.8936C27.126 27.0379 24.9861 25.7525 22.8703 25.9973C21.6645 26.1374 21.6511 28.044 22.8703 27.9019C24.3708 27.7272 25.756 28.5279 26.4463 29.8546C27.0127 30.9451 28.6562 29.9813 28.0908 28.8936Z" fill="#31241C"/>
<path d="M8.79203 28.3693C9.62435 27.4967 11.1527 26.8957 12.345 27.1847C13.5383 27.4737 14.0452 25.6362 12.8509 25.3482C11.0049 24.9018 8.75176 25.6525 7.4452 27.0225C6.59848 27.9105 7.94243 29.2602 8.79203 28.3693Z" fill="#31241C"/>
<path d="M16.7447 43.1601C16.547 43.1601 16.3502 43.0795 16.2071 42.9201L13.1322 39.4804C12.9777 39.3057 12.9153 39.0676 12.9671 38.8401C13.019 38.6136 13.1784 38.4244 13.3934 38.3361L17.0894 36.803C17.4561 36.6513 17.8775 36.8241 18.0292 37.1928C18.1819 37.5595 18.0081 37.9809 17.6404 38.1336L14.8823 39.2779L17.2814 41.9611C17.5454 42.2577 17.5204 42.7128 17.2238 42.9787C17.0875 43.0996 16.9156 43.1601 16.7447 43.1601Z" fill="#31241C"/>
<path d="M16.4655 53.0222C14.4917 53.0222 13.1573 50.9322 12.3826 46.6324C12.3413 46.4049 12.4124 46.1706 12.5737 46.0046C12.7359 45.8375 12.9701 45.7626 13.1957 45.7924C14.4101 45.971 15.95 46.1553 18.1762 46.1553C19.3225 46.1553 20.5685 46.1082 21.9855 46.0122C22.2466 45.9902 22.5058 46.1246 22.6469 46.353C22.7871 46.5796 22.789 46.8666 22.6537 47.0961C20.3017 51.083 18.277 53.0222 16.4655 53.0222ZM13.9954 47.3524C14.5973 50.0548 15.4805 51.5812 16.4645 51.5812C17.0981 51.5812 18.4508 51.0234 20.6972 47.5281C18.1013 47.6567 16.1237 47.6097 13.9954 47.3524Z" fill="#31241C"/>
<path d="M21.293 37.1208C21.5801 38.2795 22.7503 38.9861 23.9081 38.7C25.0639 38.4139 25.7733 37.2427 25.4863 36.0849C25.2012 34.9281 24.0319 34.2206 22.8732 34.5048C21.7145 34.7918 21.0098 35.964 21.293 37.1208Z" fill="#1A191F"/>
<path d="M8.38396 36.3528C8.66908 37.5067 9.8403 38.2171 10.9981 37.932C12.1529 37.6469 12.8643 36.4738 12.5782 35.317C12.2912 34.1602 11.1209 33.4555 9.96505 33.7397C8.80825 34.0258 8.09692 35.1941 8.38396 36.3528Z" fill="#1A191F"/>
<path d="M35.7932 42.7013C34.9523 46.1621 37.0758 49.6498 40.5366 50.4917C43.9993 51.3327 47.4889 49.2101 48.327 45.7464L48.808 43.7679C49.6518 40.3071 47.5273 36.8185 44.0646 35.9765C40.6029 35.1356 37.1132 37.262 36.2732 40.7228L35.7932 42.7013Z" fill="#C97440"/>
<path d="M45.5246 36.6225C47.0395 32.3016 54.4286 14.7326 43.4395 14.2037C42.756 7.30511 33.1694 3.66767 21.1944 1.31855C9.21931 -1.02961 1.75144 4.57872 2.66057 10.187C3.57064 15.7963 10.9233 17.8402 16.7582 16.1736C18.4257 22.2369 26.459 20.1902 28.2043 18.9787C29.5492 24.852 36.2193 26.2737 35.4628 30.3662C34.7034 34.4597 34.3627 38.627 34.21 39.4632C34.0603 40.2984 37.545 41.9246 38.3063 40.2571C39.0609 38.5915 42.0561 35.5982 45.5246 36.6225Z" fill="#31241C"/>
</svg>
