<svg width="167" height="167" viewBox="0 0 167 167" fill="none" xmlns="http://www.w3.org/2000/svg">
<g filter="url(#filter0_d_198_18759)">
<rect x="36" y="36.5" width="89.8511" height="89.8512" rx="9.45802" fill="#FF6477"/>
<rect width="75.2659" height="45.3985" transform="translate(43.5742 58.2543)" fill="#FF6477"/>
<path d="M118.77 63.2473C118.3 60.9034 115.652 59.3417 111.31 58.8501C108.429 58.5244 105.856 58.254 103.578 58.254C97.1235 58.254 92.812 60.3439 80.1184 67.1C77.8767 67.1705 75.6589 67.4345 74.5098 67.8117C73.2291 68.2267 73.3507 69.1383 74.6089 70.0361C71.231 71.8357 67.8465 73.623 64.4555 75.3978C59.8856 74.0235 51.5625 71.501 48.1567 70.348C45.1247 69.3244 43.5742 72.7019 43.5742 72.7019C43.5742 72.7019 46.6601 80.2905 48.5129 84.1332C48.0977 84.6085 47.7653 85.1404 47.6135 85.7427C47.3375 86.8341 47.4416 88.6562 48.6396 90.199C50.0509 92.0148 52.5058 92.9365 55.9392 92.9365C59.6674 92.9365 64.6788 91.8425 70.9084 89.6973L69.6125 91.6514C67.6418 92.905 65.5532 94.5673 63.3115 96.8307C62.9189 97.2281 62.2841 98.0215 62.4397 98.8879C62.5074 99.2651 62.7595 99.792 63.6552 100.198C63.7342 100.221 63.8233 100.236 63.9061 100.256L63.8296 100.372C62.2151 102.98 63.3441 104.31 66.3397 103.33C68.1549 102.734 70.3652 101.493 72.2694 100.086C75.4695 99.504 79.6844 98.3333 85.1073 96.1039C86.4182 95.5645 87.0429 93.2873 86.501 91.0289C85.7696 87.9445 84.4086 87.4767 83.6584 87.4754L87.5986 82.8041C95.7349 79.0129 105.073 74.1794 115.623 68.2783C118.873 66.4588 118.991 64.345 118.77 63.2473ZM64.5747 99.245C64.3976 99.213 64.2219 99.174 64.0478 99.128C63.8459 99.0362 63.5975 98.8828 63.5611 98.6829C63.5172 98.439 63.7418 98.019 64.1206 97.6367C65.2996 96.4377 66.5528 95.3143 67.8726 94.2731L64.5747 99.245ZM85.3908 91.2917C85.8462 93.1829 85.2603 94.8025 84.6745 95.0426C80.4421 96.7842 76.9723 97.8643 74.1598 98.5232C74.6177 98.1007 75.0467 97.677 75.3942 97.267L82.5997 88.7266L82.8142 88.7014L83.6509 88.6159C84.3446 88.6159 84.9944 89.6156 85.3908 91.2917ZM114.51 66.2815C105.548 71.2923 97.8298 75.3299 91.17 78.5716L94.2672 74.9011C96.253 72.5497 95.5179 71.6771 92.6339 72.9672L81.5021 77.9441C78.6169 79.2342 77.2846 79.912 75.6702 82.5186L73.0208 86.516C64.7478 89.608 59.3939 90.6504 55.9404 90.6504C49.3823 90.6504 49.677 86.8932 49.8251 86.306L67.4725 77.3343C68.0671 77.0312 68.1197 76.5798 67.5904 76.3371L67.5891 76.3371C72.6821 73.6613 76.887 71.4118 80.4258 69.5256C81.8711 68.7552 83.3183 67.9881 84.7673 67.2245C94.5607 62.0716 98.2651 60.54 103.579 60.54C105.666 60.54 108.002 60.7764 111.057 61.1222C116.426 61.7283 118.429 64.091 114.51 66.2815Z" fill="white"/>
<path d="M83.028 89.0804C82.8222 89.8236 82.7721 90.7654 82.9251 91.7487C83.1584 93.2224 83.7882 94.3755 84.4982 94.813C84.7039 94.0649 84.7541 93.1231 84.596 92.1385C84.3652 90.6635 83.738 89.5142 83.028 89.0804ZM101.92 64.8925C101.92 64.8925 102.537 65.8695 104.258 65.3817C105.748 64.9592 107.222 63.5106 108.06 61.9225L105.61 61.3755C105.096 62.2381 101.92 64.8925 101.92 64.8925Z" fill="white"/>
<path d="M67.8456 81.5471C68.4441 81.5471 68.9294 81.0607 68.9294 80.4607C68.9294 79.8607 68.4441 79.3743 67.8456 79.3743C67.247 79.3743 66.7617 79.8607 66.7617 80.4607C66.7617 81.0607 67.247 81.5471 67.8456 81.5471Z" fill="white"/>
<path d="M71.9796 79.4086C72.5789 79.4086 73.0647 78.9217 73.0647 78.321C73.0647 77.7202 72.5789 77.2333 71.9796 77.2333C71.3803 77.2333 70.8945 77.7202 70.8945 78.321C70.8945 78.9217 71.3803 79.4086 71.9796 79.4086Z" fill="white"/>
<path d="M76.1163 77.2742C76.7156 77.2742 77.2014 76.7873 77.2014 76.1866C77.2014 75.5858 76.7156 75.0989 76.1163 75.0989C75.5171 75.0989 75.0313 75.5858 75.0313 76.1866C75.0313 76.7873 75.5171 77.2742 76.1163 77.2742Z" fill="white"/>
<path d="M80.2492 75.1376C80.8484 75.1376 81.3342 74.6507 81.3342 74.05C81.3342 73.4492 80.8484 72.9623 80.2492 72.9623C79.6499 72.9623 79.1641 73.4492 79.1641 74.05C79.1641 74.6507 79.6499 75.1376 80.2492 75.1376Z" fill="white"/>
<path d="M84.3807 72.9985C84.9793 72.9985 85.4645 72.5121 85.4645 71.9121C85.4645 71.3121 84.9793 70.8257 84.3807 70.8257C83.7821 70.8257 83.2969 71.3121 83.2969 71.9121C83.2969 72.5121 83.7821 72.9985 84.3807 72.9985Z" fill="white"/>
<path d="M88.0251 68.8094C87.8961 68.8734 87.7811 68.9625 87.6868 69.0714C87.5926 69.1804 87.5209 69.3072 87.476 69.4442C87.4311 69.5813 87.4139 69.726 87.4253 69.8698C87.4368 70.0136 87.4767 70.1537 87.5428 70.2818C87.6088 70.41 87.6997 70.5237 87.8101 70.6163C87.9204 70.7089 88.0481 70.7785 88.1856 70.8211C88.3231 70.8637 88.4677 70.8785 88.6109 70.8645C88.7542 70.8505 88.8932 70.808 89.0199 70.7396C89.1467 70.6744 89.2593 70.5848 89.3514 70.4759C89.4436 70.367 89.5133 70.2409 89.5567 70.1049C89.6 69.9689 89.6162 69.8257 89.6041 69.6834C89.5921 69.5411 89.5521 69.4027 89.4865 69.2759C89.4215 69.1488 89.332 69.0358 89.2232 68.9435C89.1144 68.8512 88.9884 68.7814 88.8526 68.738C88.7168 68.6946 88.5738 68.6786 88.4318 68.6909C88.2898 68.7031 88.1516 68.7434 88.0251 68.8094Z" fill="white"/>
<path d="M92.6476 68.7256C93.2469 68.7256 93.7327 68.2387 93.7327 67.638C93.7327 67.0373 93.2469 66.5503 92.6476 66.5503C92.0483 66.5503 91.5625 67.0373 91.5625 67.638C91.5625 68.2387 92.0483 68.7256 92.6476 68.7256Z" fill="white"/>
</g>
<defs>
<filter id="filter0_d_198_18759" x="0.0595417" y="0.559542" width="166.225" height="166.225" filterUnits="userSpaceOnUse" color-interpolation-filters="sRGB">
<feFlood flood-opacity="0" result="BackgroundImageFix"/>
<feColorMatrix in="SourceAlpha" type="matrix" values="0 0 0 0 0 0 0 0 0 0 0 0 0 0 0 0 0 0 127 0" result="hardAlpha"/>
<feOffset dx="2.24628" dy="2.24628"/>
<feGaussianBlur stdDeviation="19.0934"/>
<feComposite in2="hardAlpha" operator="out"/>
<feColorMatrix type="matrix" values="0 0 0 0 1 0 0 0 0 0.337255 0 0 0 0 0.45098 0 0 0 0.8 0"/>
<feBlend mode="normal" in2="BackgroundImageFix" result="effect1_dropShadow_198_18759"/>
<feBlend mode="normal" in="SourceGraphic" in2="effect1_dropShadow_198_18759" result="shape"/>
</filter>
</defs>
</svg>
