<svg width="503" height="199" viewBox="0 0 503 199" fill="none" xmlns="http://www.w3.org/2000/svg">
<path fill-rule="evenodd" clip-rule="evenodd" d="M173.533 26.3037L183.702 36.4734L165.988 36.1504L173.533 26.3037Z" fill="#F47A89"/>
<path fill-rule="evenodd" clip-rule="evenodd" d="M176.667 28.8457L183.889 36.0678V43.9427L173.531 36.3937L176.667 28.8457Z" fill="#F47A89"/>
<path fill-rule="evenodd" clip-rule="evenodd" d="M179.16 31.9302L185.856 38.9128V49.338L179.102 41.0405L176.668 34.1343L179.16 31.9302Z" fill="#F47A89"/>
<path fill-rule="evenodd" clip-rule="evenodd" d="M179.161 40.984L184.348 46.7091V149.573H165.988L173.533 38.9126L179.161 40.984Z" fill="#F47A89"/>
<path fill-rule="evenodd" clip-rule="evenodd" d="M475.268 9.48022L463.762 18.0312V179.46H492.46L475.268 9.48022Z" fill="#F47A89"/>
<path fill-rule="evenodd" clip-rule="evenodd" d="M9.04925 9.48022L18.6062 35.4511V150.826L6.03125 135.732L9.04925 9.48022Z" fill="#F47A89"/>
<path fill-rule="evenodd" clip-rule="evenodd" d="M46.2701 68.8335L57.3361 98.2711L65.3841 188.067L42.2461 190.559L46.2701 68.8335Z" fill="#F47A89"/>
<path fill-rule="evenodd" clip-rule="evenodd" d="M131.828 12.8342L149.454 35.4511V183.708L104.641 172.97L131.828 12.8342Z" fill="#F47A89"/>
<path fill-rule="evenodd" clip-rule="evenodd" d="M77.457 31.3869V161.389H131.83V12.8342L77.457 31.3869Z" fill="#A3404C"/>
<path fill-rule="evenodd" clip-rule="evenodd" d="M344.048 36.1506L333.988 50.7266V165.925L361.15 161.39L344.048 36.1506Z" fill="#F47A89"/>
<path d="M479.357 143.78H421.512V188.065H479.357V143.78Z" fill="#A3404C"/>
<path d="M253.183 130.702H170.012V174.987H253.183V130.702Z" fill="#A3404C"/>
<path fill-rule="evenodd" clip-rule="evenodd" d="M370.036 0.762207L357.125 26.3035V198.798L402.731 165.924L370.036 0.762207Z" fill="#F47A89"/>
<path d="M125.417 139.247H42.2461V183.532H125.417V139.247Z" fill="#A3404C"/>
<path d="M32.6914 128.684H4.52344V172.969H32.6914V128.684Z" fill="#A3404C"/>
<path d="M177.627 36.9727H148.5V194.4H177.627V36.9727Z" fill="#A3404C"/>
<path d="M179.157 31.9302H146.965V40.9842H179.157V31.9302Z" fill="#A3404C"/>
<path d="M176.662 28.8459H149.453V35.4514H176.662V28.8459Z" fill="#A3404C"/>
<path d="M173.532 26.3037H152.594V31.387H173.532V26.3037Z" fill="#A3404C"/>
<path d="M9.05009 9.48022H-0.00390625V181.362H9.05009V9.48022Z" fill="#A3404C"/>
<path d="M502.994 9.48022H475.266V181.36H502.994V9.48022Z" fill="#A3404C"/>
<path d="M46.2742 68.8335H27.1602V183.708H46.2742V68.8335Z" fill="#A3404C"/>
<path d="M87.8729 83.9231H36.7188V198.797H87.8729V83.9231Z" fill="#A3404C"/>
<path fill-rule="evenodd" clip-rule="evenodd" d="M421.19 188.066H370.035V0.762207L421.19 28.9302V188.066Z" fill="#A3404C"/>
<path fill-rule="evenodd" clip-rule="evenodd" d="M378.251 161.39H344.047V36.1506L378.251 54.986V161.39Z" fill="#A3404C"/>
<path fill-rule="evenodd" clip-rule="evenodd" d="M145.385 129.626V137.12H138.585V124.499V115.921H137.005V124.499H135.035L131.532 115.921L127.836 124.499H126.063V115.921H124.484V124.499V137.12H118.272V129.626H116.695V137.12V138.206V166.801H146.966V138.206V137.12V129.626H145.385Z" fill="#A3404C"/>
</svg>
