<svg width="108" height="15" viewBox="0 0 108 15" fill="none" xmlns="http://www.w3.org/2000/svg">
<path d="M0.636384 13.9868C11.9241 13.7324 23.2118 14.2364 34.4985 14.052C40.1298 13.9599 45.717 13.4338 51.3359 13.1573C57.2418 12.8674 63.1622 12.9673 69.071 13.1199C74.7148 13.2649 80.3558 13.4847 86.0016 13.5682C89.8953 13.6258 93.8534 13.813 97.6847 12.9855C103.954 11.63 106.622 6.55349 107.038 0.521811C107.081 -0.0964286 106.12 -0.0925886 106.078 0.521811C105.847 3.86933 105.071 7.16021 102.579 9.55637C100.311 11.7375 96.8975 12.325 93.8908 12.5612C89.4153 12.9135 84.8294 12.6072 80.3481 12.492C75.0278 12.3548 69.7084 12.1512 64.3861 12.0581C53.7618 11.8728 43.2297 12.9836 32.6169 13.1199C21.9552 13.2572 11.2972 12.7868 0.635446 13.0268C0.0181663 13.0412 0.0162238 14.0012 0.636384 13.9868Z" fill="#1F0E03"/>
</svg>
