<svg width="29" height="28" viewBox="0 0 29 28" fill="none" xmlns="http://www.w3.org/2000/svg">
<path d="M12.8202 1.66363C13.521 0.243795 14.6682 0.243795 15.369 1.66363L17.6048 6.19963C18.3056 7.61947 20.1613 8.96923 21.729 9.19675L26.7344 9.92443C28.3021 10.152 28.6564 11.2435 27.5216 12.3484L23.9015 15.8774C22.7668 16.9824 22.0583 19.1644 22.3261 20.7263L23.1815 25.7107C23.4493 27.2716 22.521 27.9465 21.1204 27.2092L16.6439 24.8563C15.2423 24.118 12.9469 24.118 11.5453 24.8553L7.06596 27.2102C5.66436 27.9475 4.73603 27.2716 5.00483 25.7107L5.86021 20.7263C6.12805 19.1644 5.41955 16.9833 4.28483 15.8774L0.664677 12.3484C-0.470043 11.2435 -0.115796 10.152 1.45188 9.92443L6.45731 9.19484C8.02499 8.96732 9.88067 7.61755 10.5824 6.19771L12.8202 1.66363Z" fill="#C97440"/>
</svg>
