<svg width="142" height="60" viewBox="0 0 142 60" fill="none" xmlns="http://www.w3.org/2000/svg">
<path d="M1.26094 59.378C8.27086 60.769 4.25422 36.986 4.20718 33.4004C4.04782 33.5597 3.8875 33.72 3.72718 33.8804C18.8136 34.0148 33.9038 34.0541 48.9912 33.9216C59.7758 33.8276 70.5518 33.5511 81.3384 33.552C87.971 33.552 94.5681 33.3072 101.193 33.0519C108.296 32.7773 115.377 32.8013 122.298 30.962C135.537 27.4445 140.357 13.4458 141.724 1.16067C141.792 0.545311 140.831 0.552991 140.764 1.16067C139.749 10.2788 136.985 20.2704 129.65 26.3444C124.126 30.9197 115.983 31.5005 109.127 31.8327C102.299 32.1648 95.4417 32.4538 88.6065 32.5517C66.9854 32.8618 45.347 33.073 23.7221 33.024C17.0577 33.0087 10.3915 32.9789 3.72718 32.9204C3.46798 32.9184 3.2443 33.1402 3.24718 33.4004C3.28654 36.4244 6.41326 59.424 1.51534 58.4525C0.911501 58.3325 0.653261 59.258 1.26094 59.378Z" fill="#1F0E03"/>
</svg>
