<svg width="117" height="24" viewBox="0 0 117 24" fill="none" xmlns="http://www.w3.org/2000/svg">
<path d="M1.39545 23.4975C6.23001 19.1487 11.0828 14.821 15.6265 10.164C17.728 8.0098 19.6038 5.19795 22.143 3.49299C23.6454 2.48307 25.5107 2.32084 27.2675 2.22004C30.7263 2.02036 34.2073 2.11061 37.67 2.06357C43.9503 1.97717 50.2211 1.64213 56.5033 1.65365C63.2329 1.66709 69.9587 1.97044 76.6796 2.27668C89.7711 2.8738 102.895 3.49301 115.962 2.14613C116.571 2.08373 116.578 1.12277 115.962 1.18613C102.593 2.56373 89.1654 1.88596 75.7734 1.2754C68.7328 0.954756 61.6902 0.681168 54.6409 0.693648C48.352 0.705168 42.0678 1.0575 35.7788 1.12566C31.4905 1.1727 25.5203 0.22325 21.6582 2.66357C19.2659 4.17653 17.4697 6.83476 15.5679 8.8402C10.8889 13.7756 5.7683 18.2751 0.715821 22.8197C0.255021 23.2325 0.93657 23.9093 1.39545 23.4975Z" fill="#1F0E03"/>
</svg>
