<svg width="96" height="87" viewBox="0 0 96 87" fill="none" xmlns="http://www.w3.org/2000/svg">
<path fill-rule="evenodd" clip-rule="evenodd" d="M90.5594 35.6635V23.675H91.1178V18.5625H87.6793L83.4511 0.523926L79.2218 18.5625H75.7843V23.675H76.3407V35.6635L71.5078 38.7298L72.4384 40.3102V45.976L75.4131 49.6962L74.5751 65.0297L72.9021 66.5175L72.8096 86.6838H83.4511H94.0925L94 66.5175L92.326 65.0297L91.491 49.6962L94.4658 45.976V40.3102L95.3933 38.7298L90.5594 35.6635Z" fill="#692C33"/>
<path fill-rule="evenodd" clip-rule="evenodd" d="M19.1209 35.6635V23.675H19.6803V18.5625H16.2397L12.0125 0.523926L7.78232 18.5625H4.34581V23.675H4.90214V35.6635L0.0703125 38.7298L0.997841 40.3102V45.976L3.97157 49.6962L3.13458 65.0297L1.46363 66.5175L1.36907 86.6838H12.0125H22.653L22.5595 66.5175L20.8875 65.0297L20.0505 49.6962L23.0242 45.976V40.3102L23.9548 38.7298L19.1209 35.6635Z" fill="#692C33"/>
<path d="M23.7735 58.9893H21.6367V60.3524H23.7735V58.9893Z" fill="#692C33"/>
<path d="M27.293 58.9893H25.1562V60.3524H27.293V58.9893Z" fill="#692C33"/>
<path d="M30.8145 58.9893H28.6758V60.3524H30.8145V58.9893Z" fill="#692C33"/>
<path d="M34.3331 58.9893H32.1953V60.3524H34.3331V58.9893Z" fill="#692C33"/>
<path d="M37.8575 58.9893H35.7188V60.3524H37.8575V58.9893Z" fill="#692C33"/>
<path d="M41.375 58.9893H39.2383V60.3524H41.375V58.9893Z" fill="#692C33"/>
<path d="M44.8976 58.9893H42.7578V60.3524H44.8976V58.9893Z" fill="#692C33"/>
<path d="M48.419 58.9893H46.2812V60.3524H48.419V58.9893Z" fill="#692C33"/>
<path d="M51.9365 58.9893H49.8008V60.3524H51.9365V58.9893Z" fill="#692C33"/>
<path d="M55.457 58.9893H53.3203V60.3524H55.457V58.9893Z" fill="#692C33"/>
<path d="M58.9805 58.9893H56.8438V60.3524H58.9805V58.9893Z" fill="#692C33"/>
<path d="M62.4971 58.9893H60.3594V60.3524H62.4971V58.9893Z" fill="#692C33"/>
<path d="M66.0167 58.9893H63.8789V60.3524H66.0167V58.9893Z" fill="#692C33"/>
<path d="M69.5401 58.9893H67.4023V60.3524H69.5401V58.9893Z" fill="#692C33"/>
<path d="M73.0596 58.9893H70.9219V60.3524H73.0596V58.9893Z" fill="#692C33"/>
<path fill-rule="evenodd" clip-rule="evenodd" d="M21.6367 59.9795V86.6837H26.0983C26.0983 86.6837 28.5137 76.7083 47.3501 76.7083C66.1844 76.7083 68.7859 86.6837 68.7859 86.6837H73.0614V59.9795H21.6367ZM28.8548 72.9146H24.2081V67.5547C24.2081 67.5547 24.6436 65.1081 26.5309 65.1081C28.4192 65.1081 28.8548 67.5547 28.8548 67.5547V72.9146ZM35.7921 72.9146H31.1474V67.5547C31.1474 67.5547 31.581 65.1081 33.4693 65.1081C35.3606 65.1081 35.7931 67.5547 35.7931 67.5547V72.9146H35.7921ZM42.7335 72.9146H38.0868V67.5547C38.0868 67.5547 38.5214 65.1081 40.4087 65.1081C42.3 65.1081 42.7335 67.5547 42.7335 67.5547V72.9146ZM49.6709 72.9146H45.0252V67.5547C45.0252 67.5547 45.4588 65.1081 47.3501 65.1081C49.2393 65.1081 49.6719 67.5547 49.6719 67.5547L49.6709 72.9146ZM56.6123 72.9146H51.9646V67.5547C51.9646 67.5547 52.3982 65.1081 54.2875 65.1081C56.1767 65.1081 56.6133 67.5547 56.6133 67.5547L56.6123 72.9146ZM63.5497 72.9146H58.903V67.5547C58.903 67.5547 59.3386 65.1081 61.2269 65.1081C63.1181 65.1081 63.5507 67.5547 63.5507 67.5547V72.9146H63.5497ZM70.4891 72.9146H65.8444V67.5547C65.8444 67.5547 66.277 65.1081 68.1672 65.1081C70.0565 65.1081 70.4901 67.5547 70.4901 67.5547L70.4891 72.9146Z" fill="#692C33"/>
</svg>
