<svg width="12" height="147" viewBox="0 0 12 147" fill="none" xmlns="http://www.w3.org/2000/svg">
<path fill-rule="evenodd" clip-rule="evenodd" d="M11.1474 54.7754C11.1474 57.7994 8.69882 60.248 5.67479 60.248C2.65276 60.248 0.203125 57.7994 0.203125 54.7754C0.203125 51.7514 2.65377 49.3018 5.67479 49.3018C8.69983 49.3018 11.1474 51.7514 11.1474 54.7754Z" fill="#692C33"/>
<path fill-rule="evenodd" clip-rule="evenodd" d="M8.69315 48.6166V47.0513H7.52014V41.132L5.67616 40.6853L3.83415 41.132V47.0513H2.66016V48.6166H4.16814V62.1886H3.27583V63.8635H3.94584L3.83415 146.419H5.67616H7.52014L7.40746 63.8635H8.07849V62.1886H7.18614V48.6166H8.69315Z" fill="#692C33"/>
<path fill-rule="evenodd" clip-rule="evenodd" d="M5.67539 0.0830078L4.92188 0.500506V40.8673V43.5613H6.42989V40.8673V0.500506L5.67539 0.0830078Z" fill="#692C33"/>
</svg>
