<svg width="111" height="91" viewBox="0 0 111 91" fill="none" xmlns="http://www.w3.org/2000/svg">
<path d="M18.139 36.5122H14.6914V78.8256H18.139V36.5122Z" fill="#692C33"/>
<path d="M32.9202 36.5122H29.4727V78.8256H32.9202V36.5122Z" fill="#692C33"/>
<path d="M47.7064 36.5122H44.2578V78.8256H47.7064V36.5122Z" fill="#692C33"/>
<path d="M67.345 36.5122H63.8984V78.8256H67.345V36.5122Z" fill="#692C33"/>
<path d="M82.1273 36.5122H78.6797V78.8256H82.1273V36.5122Z" fill="#692C33"/>
<path d="M96.9114 36.5122H93.4648V78.8256H96.9114V36.5122Z" fill="#692C33"/>
<path d="M98.1659 35.1536H13.4375V37.6625H98.1659V35.1536Z" fill="#692C33"/>
<path d="M97.4169 30.4182H14.1875V35.9904H97.4169V30.4182Z" fill="#692C33"/>
<path d="M99.0311 77.4321H12.5664V83.0024H99.0311V77.4321Z" fill="#692C33"/>
<path d="M105.378 81.2708H6.21875V86.843H105.378V81.2708Z" fill="#692C33"/>
<path d="M110.991 85.1116H0.609375V90.6838H110.991V85.1116Z" fill="#692C33"/>
<path d="M99.4346 29.0251H12.1641V30.8369H99.4346V29.0251Z" fill="#692C33"/>
<path fill-rule="evenodd" clip-rule="evenodd" d="M11.9914 29.0251L11.0156 27.7012H100.584L98.9119 29.513L11.9914 29.0251Z" fill="#692C33"/>
<path d="M96.0229 21.8525H15.5781V28.1913H96.0229V21.8525Z" fill="#692C33"/>
<path fill-rule="evenodd" clip-rule="evenodd" d="M15.5771 21.8522L13.9766 20.1792H97.6245L96.0219 21.8522L94.1055 24.5965L18.6424 24.6358L15.5771 21.8522Z" fill="#692C33"/>
<path d="M68.5457 19.2056H43.0547V21.1552H68.5457V19.2056Z" fill="#692C33"/>
<path d="M67.3465 18.2993H44.2578V19.8315H67.3465V18.2993Z" fill="#692C33"/>
<path fill-rule="evenodd" clip-rule="evenodd" d="M57.0183 4.12977C57.0183 4.80077 56.4741 5.34401 55.8031 5.34401C55.1321 5.34401 54.5898 4.80077 54.5898 4.12977C54.5898 3.45877 55.1331 2.91553 55.8031 2.91553C56.4741 2.91553 57.0183 3.45877 57.0183 4.12977Z" fill="#692C33"/>
<path fill-rule="evenodd" clip-rule="evenodd" d="M56.0756 1.90216C56.0756 2.05205 55.9529 2.17478 55.801 2.17478C55.6501 2.17478 55.5273 2.05205 55.5273 1.90216V1.01586C55.5273 0.864959 55.6501 0.741211 55.801 0.741211C55.9519 0.741211 56.0756 0.864959 56.0756 1.01586V1.90216Z" fill="#692C33"/>
<path fill-rule="evenodd" clip-rule="evenodd" d="M64.3778 12.1274C65.25 11.2924 65.8798 9.69083 64.3798 9.48058C62.8799 9.27234 61.9755 12.8939 61.9755 12.8939L59.3981 12.2672C59.3981 12.2672 59.4685 9.53391 58.6315 9.47355C57.7966 9.41319 58.2141 12.407 57.7966 12.0589C57.3781 11.7109 58.3187 6.69495 56.1085 6.69495C56.1085 5.37206 56.1085 4.95459 56.1085 4.95459H55.8228H55.7775H55.4928C55.4928 4.95459 55.4928 5.37206 55.4928 6.69495C53.2806 6.69495 54.2212 11.7109 53.8037 12.0589C53.3852 12.407 53.8037 9.41218 52.9678 9.47355C52.1328 9.53491 52.2012 12.2672 52.2012 12.2672L49.6248 12.8939C49.6248 12.8939 48.7194 9.27234 47.2195 9.48058C45.7205 9.69083 46.3503 11.2924 47.2215 12.1274C46.3503 13.242 47.2215 14.4261 47.2215 14.4261L46.8392 14.8446L47.6048 18.6744H63.9965L64.7631 14.8446L64.3788 14.4261C64.3788 14.4261 65.25 13.243 64.3778 12.1274Z" fill="#692C33"/>
<path fill-rule="evenodd" clip-rule="evenodd" d="M58.3142 0.208138C58.0264 -0.0564396 56.11 1.48677 55.7992 1.73927C55.4883 1.48576 53.5709 -0.0564396 53.2831 0.208138C52.9693 0.495854 54.3797 2.61249 55.1121 2.61249C55.1121 3.20402 55.1121 3.8388 55.1121 3.8388L55.7992 2.97264L56.4863 3.8388C56.4863 3.8388 56.4863 3.20402 56.4863 2.61249C57.2186 2.61249 58.628 0.495854 58.3142 0.208138Z" fill="#692C33"/>
</svg>
