<svg width="29" height="28" viewBox="0 0 29 28" fill="none" xmlns="http://www.w3.org/2000/svg">
<path d="M12.8183 1.66363C13.5181 0.243795 14.6663 0.243795 15.3661 1.66363L17.6048 6.19963C18.3047 7.61947 20.1613 8.96924 21.729 9.19676L26.7354 9.92443C28.3031 10.152 28.6573 11.2435 27.5226 12.3484L23.9024 15.8774C22.7677 16.9824 22.0592 19.1644 22.3261 20.7263L23.1824 25.7107C23.4493 27.2716 22.521 27.9465 21.1204 27.2102L16.6419 24.8553C15.2403 24.118 12.945 24.118 11.5434 24.8563L7.0669 27.2092C5.6653 27.9465 4.73698 27.2716 5.00578 25.7107L5.86116 20.7263C6.129 19.1644 5.4205 16.9833 4.28578 15.8774L0.664687 12.3484C-0.470033 11.2435 -0.115815 10.152 1.45187 9.92443L6.45636 9.19484C8.02404 8.96732 9.88067 7.61755 10.5805 6.19771L12.8183 1.66363Z" fill="#C97440"/>
</svg>
