<svg width="23" height="4" viewBox="0 0 23 4" fill="none" xmlns="http://www.w3.org/2000/svg">
<path fill-rule="evenodd" clip-rule="evenodd" d="M0.715503 2.47912L0.535428 1.42385L0.923746 1.18641L0.734614 1.04859L0.962981 0.90875L0.924751 0.609971C0.924751 0.609971 0.915696 0.411796 1.12293 0.428898C1.33017 0.41079 1.32111 0.609971 1.32111 0.609971L1.28188 0.90875L1.51024 1.04859L1.32111 1.18641L1.70943 1.42385L1.52935 2.47912L1.8885 3.3322H0.359375L0.715503 2.47912Z" fill="#692C33"/>
<path fill-rule="evenodd" clip-rule="evenodd" d="M7.74775 2.47912L7.56969 1.42385L7.95599 1.18641L7.76787 1.04859L7.99623 0.90875L7.95599 0.609971C7.95599 0.609971 7.94895 0.411796 8.15719 0.428898C8.36241 0.41079 8.35538 0.609971 8.35538 0.609971L8.31514 0.90875L8.54249 1.04859L8.35538 1.18641L8.74168 1.42385L8.56261 2.47912L8.91974 3.3322H7.39062L7.74775 2.47912Z" fill="#692C33"/>
<path fill-rule="evenodd" clip-rule="evenodd" d="M14.777 2.47912L14.5989 1.42385L14.9872 1.18641L14.7981 1.04859L15.0275 0.90875L14.9882 0.609971C14.9882 0.609971 14.9802 0.411796 15.1874 0.428898C15.3927 0.41079 15.3846 0.609971 15.3846 0.609971L15.3454 0.90875L15.5747 1.04859L15.3846 1.18641L15.7719 1.42385L15.5929 2.47912L15.952 3.3322H14.4219L14.777 2.47912Z" fill="#692C33"/>
<path fill-rule="evenodd" clip-rule="evenodd" d="M21.8123 2.47912L21.6332 1.42385L22.0205 1.18641L21.8314 1.04859L22.0597 0.90875L22.0205 0.609971C22.0205 0.609971 22.0125 0.411796 22.2187 0.428898C22.4249 0.41079 22.4179 0.609971 22.4179 0.609971L22.3766 0.90875L22.606 1.04859L22.4179 1.18641L22.8062 1.42385L22.6261 2.47912L22.9832 3.3322H21.4531L21.8123 2.47912Z" fill="#692C33"/>
</svg>
