<svg width="74" height="88" viewBox="0 0 74 88" fill="none" xmlns="http://www.w3.org/2000/svg">
<path d="M69.3597 58.4736H4.07031V87.5068H69.3597V58.4736Z" fill="#692C33"/>
<path d="M70.7424 55.7085H2.6875V59.7023H70.7424V55.7085Z" fill="#692C33"/>
<path fill-rule="evenodd" clip-rule="evenodd" d="M36.7118 26.0596C10.3898 26.0596 8.64844 55.7094 8.64844 55.7094L36.7118 61.8551L64.7742 55.7094C64.7742 55.7094 63.0328 26.0596 36.7118 26.0596Z" fill="#692C33"/>
<path d="M69.4332 48.7961H66.9766V56.7838H69.4332V48.7961Z" fill="#692C33"/>
<path d="M6.44781 48.7961H3.99219V56.7838H6.44781V48.7961Z" fill="#692C33"/>
<path d="M41.2053 18.5317H32.2188V28.9006H41.2053V18.5317Z" fill="#692C33"/>
<path fill-rule="evenodd" clip-rule="evenodd" d="M36.7886 19.7933L41.0913 18.5318C41.0913 18.5318 37.7886 17.7632 37.7886 10.6206C37.2202 10.6206 36.9345 10.6206 36.7886 10.6206C36.7886 10.6206 36.7866 10.6206 36.6367 10.6206C36.4908 10.6206 36.2031 10.6206 35.6347 10.6206C35.6347 17.7642 32.332 18.5318 32.332 18.5318L36.6367 19.7933V19.8376L36.7131 19.8154L36.7886 19.8376V19.7933Z" fill="#692C33"/>
<path d="M37.0833 5.93579H36.3398V11.9265H37.0833V5.93579Z" fill="#692C33"/>
<path fill-rule="evenodd" clip-rule="evenodd" d="M37.7128 8.46966C37.7128 9.02095 37.2641 9.4676 36.7148 9.4676C36.1625 9.4676 35.7148 9.02095 35.7148 8.46966C35.7148 7.91837 36.1625 7.4707 36.7148 7.4707C37.2641 7.4707 37.7128 7.91837 37.7128 8.46966Z" fill="#692C33"/>
<path d="M37.0833 0.328125H36.3398V7.00896H37.0833V0.328125Z" fill="#692C33"/>
<path d="M38.5788 2.01733H34.8516V2.94084H38.5788V2.01733Z" fill="#692C33"/>
<path d="M73.2736 78.4438H0.148438V85.3581H73.2736V78.4438Z" fill="#692C33"/>
</svg>
