<svg width="64" height="42" viewBox="0 0 64 42" fill="none" xmlns="http://www.w3.org/2000/svg">
<path fill-rule="evenodd" clip-rule="evenodd" d="M61.2688 17.6136V11.8975H61.5344V9.45897H59.8946L57.8786 0.857666L55.8615 9.45897H54.2228V11.8975H54.4883V17.6136L52.1836 19.0753L52.6262 19.8288V22.5309L54.0447 24.3045L53.6463 31.6161L52.8496 32.3253L52.8033 41.9417H57.8786H62.9528L62.9086 32.3253L62.1108 31.6161L61.7114 24.3045L63.1299 22.5309V19.8288L63.5735 19.0753L61.2688 17.6136Z" fill="#FF6477"/>
<path fill-rule="evenodd" clip-rule="evenodd" d="M9.42112 17.6136V11.8975H9.68671V9.45897H8.04693L6.0309 0.857666L4.01387 9.45897H2.3751V11.8975H2.64068V17.6136L0.335938 19.0753L0.778578 19.8288V22.5309L2.19704 24.3045L1.79766 31.6161L1.0009 32.3253L0.955634 41.9417H6.0309H11.1042L11.0609 32.3253L10.2631 31.6161L9.86376 24.3045L11.2822 22.5309V19.8288L11.7259 19.0753L9.42112 17.6136Z" fill="#FF6477"/>
</svg>
