<svg width="33" height="58" viewBox="0 0 33 58" fill="none" xmlns="http://www.w3.org/2000/svg">
<path d="M4.13096 20.0425H2.49219V25.5493H4.13096V20.0425Z" fill="#692C33"/>
<path d="M30.2453 20.0425H28.6055V25.5493H30.2453V20.0425Z" fill="#692C33"/>
<path d="M31.7325 50.3965H30.0938V55.9023H31.7325V50.3965Z" fill="#692C33"/>
<path d="M2.6476 50.3965H1.00781V55.9023H2.6476V50.3965Z" fill="#692C33"/>
<path fill-rule="evenodd" clip-rule="evenodd" d="M16.3732 9.71875C6.69551 9.71875 6.05469 20.6208 6.05469 20.6208L16.3732 22.8802L26.6908 20.6208C26.6908 20.6208 26.0499 9.71875 16.3732 9.71875Z" fill="#692C33"/>
<path d="M18.0234 6.9502H14.7188V10.7629H18.0234V6.9502Z" fill="#692C33"/>
<path fill-rule="evenodd" clip-rule="evenodd" d="M16.4005 7.41389L17.9839 6.95012C17.9839 6.95012 16.7667 6.66844 16.7667 4.04077C16.5574 4.04077 16.4518 4.04077 16.4005 4.04077C16.4005 4.04077 16.3985 4.04077 16.3431 4.04077C16.2898 4.04077 16.1842 4.04077 15.9739 4.04077C15.9739 6.66744 14.7617 6.95012 14.7617 6.95012L16.3431 7.41389V7.432L16.3713 7.42294L16.3995 7.432V7.41389H16.4005Z" fill="#692C33"/>
<path d="M16.508 0.059082H16.2344V4.52272H16.508V0.059082Z" fill="#692C33"/>
<path fill-rule="evenodd" clip-rule="evenodd" d="M16.7422 3.25153C16.7422 3.45273 16.5772 3.61773 16.374 3.61773C16.1718 3.61773 16.0078 3.45273 16.0078 3.25153C16.0078 3.04832 16.1718 2.88232 16.374 2.88232C16.5772 2.88232 16.7422 3.04832 16.7422 3.25153Z" fill="#692C33"/>
<path d="M32.1926 54.0564H0.546875V57.7444H32.1926V54.0564Z" fill="#692C33"/>
<path d="M28.8122 25.3027H3.92578V54.9033H28.8122V25.3027Z" fill="#692C33"/>
<path d="M31.2955 24.4336H1.44141V26.1247H31.2955V24.4336Z" fill="#692C33"/>
<path d="M27.2013 20.3381H5.53906V25.2786H27.2013V20.3381Z" fill="#692C33"/>
</svg>
