<svg width="120" height="194" viewBox="0 0 120 194" fill="none" xmlns="http://www.w3.org/2000/svg">
<path d="M103.236 39.3271C104.895 43.9878 104.555 49.7339 104.352 54.5929C104.125 60.1664 103.428 65.6895 102.45 71.1719C101.544 76.2773 100.391 81.3309 99.1531 86.3513C99.1398 86.3982 99.1253 86.445 99.112 86.4918C99.0346 86.8257 98.9511 87.1546 98.8677 87.4823C98.8217 87.8889 98.7697 88.3016 98.6996 88.718C98.6766 88.8412 98.5871 88.9139 98.4867 88.9275C98.3525 88.9509 98.2159 88.8745 98.2352 88.6971C98.2558 88.4728 98.2836 88.2437 98.2981 88.0244C99.0999 78.5984 93.7643 69.9941 93.439 60.6543C93.2636 55.5366 94.4718 50.409 95.4078 45.4108C95.9242 42.6449 96.0572 39.0561 97.1129 36.4553C97.3923 35.763 97.4576 35.0201 98.2171 34.6505C100.561 33.5269 102.659 37.6972 103.236 39.3271Z" fill="#455A64"/>
<path d="M101.044 42.8199C99.5894 41.6027 98.7332 44.9809 98.4514 45.9049C96.5455 52.1277 95.4801 59.5418 96.5709 65.984C97.7561 73.063 99.0174 80.152 98.5022 87.3235C98.4345 87.5575 98.3656 87.7916 98.2978 88.0245C98.2833 88.2425 98.2555 88.4729 98.235 88.6971C98.2156 88.8733 98.3523 88.9509 98.4865 88.9275C98.5107 88.7809 98.5337 88.6454 98.5506 88.5037C98.7526 87.8372 98.9376 87.1645 99.1117 86.4906C99.125 86.4438 99.1383 86.397 99.1528 86.3502C100.365 81.5478 100.912 76.5151 101.586 71.6598C102.537 64.7853 103.217 57.8109 102.671 50.871C102.544 49.1955 102.352 47.5237 102.055 45.8704C101.91 45.0425 101.758 43.4138 101.044 42.8199ZM101.863 47.0174C102.127 48.7693 102.297 50.5298 102.391 52.3039C102.717 58.4047 102.153 64.5204 101.349 70.5658C100.662 75.7291 100.1 81.1043 98.7997 86.2159C99.1274 82.1392 98.8566 78.0416 98.2894 73.9612C97.871 70.8997 97.2409 67.8887 96.7934 64.8321C96.2807 61.3812 96.6495 57.9809 97.1538 54.5449C97.6109 51.4033 98.027 47.9931 99.1795 45.0178C99.4141 44.4117 100.09 43.0676 100.605 43.1612C101.517 43.3263 101.764 46.3262 101.863 47.0174Z" fill="white"/>
<path d="M61.6811 111.323C61.6933 111.313 61.6762 111.293 61.6641 111.304L61.6811 111.323Z" fill="#455A64"/>
<path d="M98.7288 176.436C98.8413 176.512 98.8667 176.613 98.8341 176.713L98.8328 176.724C98.8123 176.812 98.7385 176.892 98.6454 176.912C98.5861 176.921 98.5172 176.918 98.4543 176.886C92.7934 173.97 87.3853 169.33 80.8259 168.991C75.6935 168.715 71.2842 169.364 66.4106 167.222C61.5019 165.067 56.9766 161.703 53.3716 157.691C51.7112 155.848 50.2261 153.83 48.9261 151.707C48.3057 150.686 46.2801 148.141 46.5667 146.827C47.886 140.697 65.7443 151.603 68.117 153.074C78.62 159.581 89.3093 166.902 98.071 175.742C98.0988 175.773 98.1085 175.809 98.0964 175.844C98.0891 175.884 98.0698 175.925 98.0347 175.947C98.2669 176.108 98.4979 176.266 98.7288 176.436Z" fill="#455A64"/>
<path d="M98.7282 176.436C98.4972 176.266 98.265 176.108 98.034 175.949C98.0691 175.927 98.0884 175.886 98.0957 175.845C92.2909 171.36 86.133 167.285 79.9497 163.37C73.308 159.168 66.5079 154.864 59.3692 151.582C58.3945 151.131 54.336 148.658 53.4846 150.26C52.6647 151.8 56.8562 155.535 57.7511 156.355C63.048 161.18 69.9581 163.392 76.6397 165.387C80.9788 166.689 85.2393 167.927 89.1249 170.369C92.3864 172.417 95.4061 174.84 98.6447 176.911C98.7379 176.891 98.8116 176.811 98.8322 176.724C97.1742 175.651 95.573 174.468 93.9767 173.304C95.5972 174.434 97.2177 175.576 98.8322 176.712C98.866 176.614 98.8419 176.512 98.7282 176.436ZM84.0977 167.329C77.5975 164.743 70.6245 163.612 64.3614 160.349C61.3634 158.792 58.5408 156.799 56.277 154.237C55.838 153.751 53.7241 151.587 54.2017 150.726C54.5222 150.15 56.2117 150.677 56.4571 150.775C58.3111 151.472 60.1009 152.319 61.858 153.231C67.9785 156.409 73.9187 160.007 79.7513 163.694C82.9899 165.742 86.1608 167.874 89.3075 170.054C87.6604 169.004 85.9383 168.059 84.0977 167.329Z" fill="white"/>
<path d="M72.9042 49.5306C73.6081 55.061 72.5124 60.8342 71.0346 66.1576C67.6025 78.4666 60.9754 89.902 58.8748 102.599C58.7901 103.098 58.7163 103.598 58.6498 104.093C58.7623 104.75 58.6752 104.592 58.4696 103.819C58.4696 103.819 58.4575 103.819 58.4636 103.812C57.553 100.439 54.4039 85.5542 55.8442 74.8703C56.75 68.2077 59.0017 61.9109 61.2644 55.6265C62.5596 52.0414 63.8197 48.4427 65.1379 44.8711C65.5636 43.7229 66.1598 40.4507 67.8613 40.1994C71.1543 39.6967 72.6237 47.3622 72.9042 49.5306Z" fill="#455A64"/>
<path d="M67.1932 50.6379C66.5958 50.3336 66.1399 50.5442 65.7299 51.0309C65.2704 51.5976 65.1833 52.5524 65.0164 53.2078C64.6826 54.5199 64.3489 55.8197 64.0211 57.1256C61.7319 66.1389 58.6553 75.3419 57.8015 84.6485C57.2356 90.8109 57.556 97.0535 58.4546 103.209C58.4582 103.411 58.4606 103.611 58.4642 103.813C58.4582 103.82 58.4703 103.82 58.4703 103.82C58.6759 104.592 58.7629 104.75 58.6505 104.094C58.7182 103.6 58.7908 103.1 58.8754 102.6C58.8754 101.908 58.8984 101.215 58.9395 100.518C59.2285 95.7044 60.5769 91.0918 62.0294 86.5309C64.7745 77.8638 67.2077 69.0341 68.2671 59.969C68.4908 57.9658 68.694 55.8788 68.4703 53.862C68.3699 52.9442 68.1498 51.1294 67.1932 50.6379ZM67.9902 53.5503C68.07 54.0099 68.105 54.4312 68.1196 54.8944C68.1667 55.8492 68.1147 56.8188 68.0518 57.7748C67.891 60.0947 67.5342 62.3825 67.1412 64.6691C65.7299 72.8373 63.3632 80.6395 60.9518 88.5391C59.7606 92.4372 58.769 96.4079 58.5223 100.501C58.1885 97.0757 58.0071 93.6458 58.0168 90.2294C58.047 81.444 60.4524 73.1293 62.5784 64.6901C63.1069 62.6055 63.6366 60.5087 64.165 58.4241C64.4238 57.3757 64.6887 56.3334 64.9535 55.2911L65.3441 53.7216C65.6029 52.6731 65.453 52.2346 66.5994 51.9105C68.0168 51.5138 67.7967 52.3331 67.9902 53.5503Z" fill="white"/>
<path d="M81.5046 100.997C82.9982 105.088 84.0999 109.329 84.8049 113.629C86.2126 122.267 84.9101 132.251 87.1377 140.854C87.3348 141.413 87.5138 141.991 87.6686 142.568C87.7339 142.783 87.7859 142.999 87.8379 143.213C87.8633 143.334 87.6831 143.394 87.6323 143.286C87.457 142.921 87.2816 142.556 87.0942 142.192C87.0881 142.186 87.0954 142.179 87.0893 142.172C86.9986 141.98 86.8958 141.788 86.8063 141.597C82.6039 133.22 77.2091 125.562 75.4217 116.151C74.3188 110.363 72.5592 94.4049 76.3081 93.1914C77.977 92.6493 80.5892 98.5162 81.5046 100.997Z" fill="#455A64"/>
<path d="M78.0967 101.844C77.1993 102.274 77.2332 104.059 77.1776 104.808C77.0349 106.742 77.209 108.823 77.3856 110.758C77.7109 114.441 78.5187 118.057 79.5007 121.605C81.38 128.385 83.7237 135.235 86.8063 141.597C86.897 141.789 86.9998 141.981 87.0893 142.172C87.0953 142.178 87.0893 142.184 87.0941 142.192C87.2816 142.556 87.4569 142.921 87.6323 143.286C87.6831 143.394 87.8645 143.334 87.8378 143.213C87.7858 142.999 87.7326 142.783 87.6685 142.567C84.9052 135.186 83.7491 127.43 82.7865 119.576C82.5773 117.814 81.1756 100.357 78.0967 101.844ZM80.8963 108.926C81.1647 110.572 81.3909 112.222 81.6049 113.884C82.1129 117.744 82.541 121.617 83.0924 125.473C83.6971 129.662 84.4735 133.872 85.6671 137.942C83.7612 133.278 81.9665 128.581 80.5238 123.71C79.5878 120.515 78.74 117.286 78.2019 113.995C77.9141 112.211 77.7133 110.406 77.6601 108.594C77.6226 107.728 77.2646 102.729 78.2805 102.302C79.5442 101.769 80.785 108.214 80.8963 108.926Z" fill="white"/>
<path d="M117.334 83.9526C119.406 86.5472 118.427 91.7204 117.308 94.4493C115.703 98.3584 112.774 101.416 109.556 104.006C104.888 107.771 99.6755 110.67 95.744 115.313C91.8378 119.91 93.0992 118.526 90.3649 124.423C90.3129 124.538 90.2028 124.54 90.1145 124.441C89.9803 124.304 89.8727 123.974 89.9452 123.499C89.9477 123.452 89.961 123.393 89.9694 123.34C92.4848 113.65 97.3657 106.017 103.837 98.4521C107.508 94.1647 109.724 88.7316 113.547 84.5982C114.965 83.0681 115.91 82.1613 117.334 83.9526Z" fill="#455A64"/>
<path d="M115.139 89.0505C113.738 88.3741 111.978 91.2693 111.26 92.3165C109.186 95.3472 107.159 98.3669 104.574 100.979C102.294 103.271 100.014 105.505 98.0464 108.085C95.0461 112.016 92.648 116.406 90.9597 121.064C90.5836 121.848 90.2474 122.662 89.9451 123.501C89.8725 123.978 89.9814 124.308 90.1144 124.443C90.1483 124.333 90.1809 124.233 90.2148 124.122C92.498 117.898 96.3824 113.116 101.746 108.973C107.079 104.858 112.1 100.288 114.95 93.9748C115.456 92.8537 116.432 89.6813 115.139 89.0505ZM114.914 93.1678C114.456 94.2557 113.924 95.309 113.329 96.3316C112.246 98.1734 110.966 99.8933 109.562 101.491C107.055 104.325 104.127 106.631 101.154 108.924C97.6582 111.638 94.6095 114.786 92.3638 118.453C94.0967 114.526 96.2868 110.809 98.9788 107.438C101.383 104.439 104.32 102.01 106.79 99.0974C107.928 97.7496 108.935 96.307 109.943 94.8643C110.481 94.0771 111.02 93.2886 111.558 92.5124C112.035 91.8163 113.562 89.3437 114.583 89.547C115.903 89.8008 115.102 92.7317 114.914 93.1678Z" fill="white"/>
<path d="M30.1735 59.4836C38.5857 69.1622 46.4064 79.3361 53.8499 89.7957C53.9491 89.93 53.937 90.0902 53.8559 90.1986C53.8487 90.2282 53.8366 90.2516 53.8184 90.2688C53.868 90.3366 53.9176 90.4031 53.9551 90.4696C54.0047 90.5485 53.972 90.6249 53.9116 90.6692C53.8934 90.6742 53.8825 90.6853 53.8644 90.6902C53.8584 90.6963 53.8463 90.6951 53.8463 90.6951C53.7991 90.705 53.7423 90.6902 53.6963 90.6532C48.4526 85.416 43.5198 80.5126 36.9168 77.047C30.8774 73.8832 24.925 71.2504 19.679 66.7549C15.202 62.9012 2.50158 43.9001 4.56954 39.3663C5.96511 36.3122 23.4738 51.7923 30.1735 59.4836Z" fill="#455A64"/>
<path d="M19.7541 53.0211C18.6596 51.9431 15.4379 47.6878 13.3857 48.5527C11.3274 49.4225 14.6059 53.7148 15.213 54.624C17.4624 57.9479 19.8423 61.2189 22.6939 64.0488C25.5347 66.8663 28.9027 68.7353 32.1812 70.9381C40.2474 76.3737 47.3619 83.4392 53.8464 90.6944C53.8464 90.6944 53.8585 90.6944 53.8645 90.6895C53.8826 90.6846 53.8935 90.6735 53.9117 90.6686C53.9721 90.6242 54.0036 90.5478 53.9552 90.469C53.9177 90.4024 53.8681 90.3347 53.8186 90.2682C53.8367 90.2509 53.8488 90.2275 53.856 90.198C43.7013 76.7433 31.6696 64.8175 19.7541 53.0211ZM21.5185 55.3126C27.2543 61.0205 32.96 66.7567 38.4709 72.6974C43.5755 78.2007 48.4636 83.895 53.1401 89.7766C48.7248 84.7303 43.9165 79.9268 38.8264 75.5901C32.8947 70.5303 25.7318 67.2717 20.6018 61.2583C18.1589 58.3988 15.5214 55.1636 13.8743 51.7534C13.6493 51.2939 12.8137 49.7477 13.3784 49.1391C13.8779 48.5921 15.3255 49.2709 17.1383 50.96C18.6366 52.3632 20.0624 53.8577 21.5185 55.3126Z" fill="white"/>
<path d="M65.173 130.416C65.1826 130.464 65.1693 130.511 65.1439 130.556C65.0992 130.667 64.9903 130.745 64.8646 130.704C64.6009 130.609 64.3313 130.533 64.0616 130.444C64.0434 130.461 64.0253 130.466 63.9902 130.465C57.9726 129.676 53.0881 130.714 47.3002 132.222C42.9938 133.343 38.5966 133.276 34.2817 132.201C29.5992 131.038 25.2069 128.787 21.1556 126.16C19.5037 125.082 14.2165 122.668 15.0787 119.715C16.4973 114.856 32.5343 121.183 35.3097 122.097C40.274 123.733 45.1996 125.191 50.3308 126.195C55.3568 127.183 60.39 128.029 65.069 130.251C65.1439 130.284 65.1754 130.344 65.173 130.416Z" fill="#455A64"/>
<path d="M61.9826 129.672C61.9778 129.666 61.9826 129.659 61.9826 129.659C59.0766 128.983 56.1803 128.182 53.25 127.664C49.9679 127.077 46.6108 127.15 43.3166 126.576C37.149 125.485 31.2813 123.205 25.185 121.821C24.3905 121.645 22.8232 121.329 23.2416 122.708C23.4146 123.308 24.2659 123.795 24.711 124.117C26.0582 125.105 27.5106 125.95 29.009 126.683C34.0894 129.153 39.9837 130.954 45.6603 130.698C52.2402 130.391 58.64 129.13 65.1414 130.555C65.1668 130.508 65.1801 130.461 65.1704 130.415C64.128 130.073 63.0565 129.837 61.9826 129.672ZM47.7331 130.078C40.6246 130.651 33.2174 128.767 27.0353 125.112C26.4512 124.761 24.9154 123.762 24.382 123.307C23.8729 122.874 23.1401 121.95 25.0762 122.197C25.5333 122.255 25.9735 122.414 26.4222 122.529C27.998 122.928 29.5604 123.375 31.1277 123.828C34.4643 124.797 37.7923 125.817 41.1906 126.545C44.2199 127.198 47.2433 127.459 50.3271 127.653C54.0482 127.885 57.6956 128.777 61.3356 129.576C56.849 129.011 52.2112 129.716 47.7331 130.078Z" fill="white"/>
<path d="M47.8365 117.13C47.8631 117.22 47.8667 117.32 47.8413 117.415C47.8341 117.468 47.8159 117.508 47.7917 117.555C47.7676 117.613 47.7252 117.666 47.6841 117.707C47.672 117.73 47.6599 117.741 47.643 117.747C47.5366 117.828 47.3902 117.866 47.2185 117.791C46.3139 117.456 45.4638 117.058 44.6547 116.607C34.6886 112.733 24.477 108.648 16.3684 101.475C12.2289 97.81 8.64321 93.5485 5.52917 88.9544C4.00057 86.7048 -0.201859 81.9801 1.18766 78.8225C2.53486 75.7535 5.30182 77.7001 7.16661 78.9863C11.9991 82.3004 16.7288 85.8202 21.1247 89.722C25.4977 93.6003 29.3736 97.8926 32.7972 102.647C36.8739 108.317 40.7837 114.196 47.5088 116.767C47.6974 116.837 47.799 116.969 47.8365 117.13Z" fill="#455A64"/>
<path d="M29.4293 102.775C23.8337 96.698 17.6117 91.1491 11.2119 85.9697C10.3847 85.2934 7.98537 83.5562 7.60927 85.5065C7.17391 87.8042 10.5044 90.5097 11.7742 91.876C16.6115 97.0602 21.7561 101.98 27.3686 106.295C33.6244 111.116 40.3725 115.008 47.7906 117.556C47.8148 117.509 47.8329 117.468 47.8402 117.415C35.7746 112.854 25.3103 104.862 16.1822 95.7555C13.9849 93.5564 11.7573 91.3376 9.74374 88.9598C9.42085 88.5791 7.5742 86.0153 8.29254 85.3168C8.9226 84.7045 11.5239 86.8013 11.831 87.0687C13.2847 88.2921 14.7322 89.5216 16.1798 90.7622C21.6146 95.4574 26.6188 100.457 31.5299 105.709C36.2596 110.755 41.5722 114.69 47.8414 117.417C47.8668 117.323 47.8631 117.222 47.8365 117.132C40.5285 113.852 34.8834 108.69 29.4293 102.775Z" fill="white"/>
<path d="M29.5101 11.5269C32.8648 16.2134 35.7853 21.1364 37.3816 26.742C39.8124 35.3143 39.6697 44.2845 40.8778 53.0576C40.8766 53.0933 40.8863 53.129 40.8911 53.1586C41.2164 55.5351 41.6457 57.9043 42.2577 60.2401C42.3822 60.7366 42.5177 61.2343 42.6664 61.7321C42.7015 61.8577 42.6797 61.9699 42.6193 62.0376C42.5648 62.0881 42.4995 62.1276 42.4234 62.1423C42.3593 62.1571 42.2831 62.1596 42.2141 62.1325L42.2081 62.1263C42.1101 62.0931 42.0206 62.0179 41.9735 61.891C41.7304 61.1875 41.5151 60.4792 41.3071 59.7658C41.2612 59.7523 41.2273 59.7264 41.2007 59.6722C36.0562 48.7209 30.2188 37.6551 24.3777 26.8209C21.7945 22.026 19.3928 17.0598 17.7336 11.8422C16.7468 8.75608 15.5459 3.99688 17.7566 1.1448C17.892 0.961235 18.1024 0.786291 18.3455 0.820787C23.2095 1.6684 26.852 7.82348 29.5101 11.5269Z" fill="#455A64"/>
<path d="M24.1406 12.2233C21.8126 11.4595 22.2891 14.2623 22.6652 15.6815C23.6641 19.4367 25.3233 23.1216 26.7709 26.7424C28.4011 30.8278 30.0917 34.8921 31.8404 38.9232C35.1431 46.5333 39.7543 54.1101 42.1984 62.091C42.1971 62.1033 42.2092 62.1156 42.208 62.1267L42.2141 62.1329C42.283 62.16 42.358 62.1575 42.4233 62.1427C42.4995 62.128 42.5648 62.0898 42.6192 62.038C42.4995 61.4343 42.3785 60.843 42.2588 60.2405C41.7944 57.8812 41.3458 55.5171 40.8923 53.159C40.8874 53.1294 40.8778 53.0937 40.879 53.058C38.6756 41.6952 36.2521 30.4347 30.3928 20.0145C29.0251 17.5924 27.0019 13.1584 24.1406 12.2233ZM31.1003 22.1582C34.5723 28.7568 36.8942 35.773 38.5002 42.9716C39.7761 48.7176 40.6432 54.5388 41.8138 60.3033C40.1945 55.6735 37.8218 51.2728 35.7768 46.7908C32.5672 39.7536 29.5282 32.6351 26.6911 25.4427C26.0018 23.713 25.3306 21.9795 24.6715 20.2338C24.085 18.6926 22.8309 16.2877 22.826 14.5999C22.8115 11.3314 25.4914 13.549 26.3633 14.5161C27.124 15.36 27.7226 16.3456 28.3213 17.3066C29.3141 18.8897 30.2393 20.5097 31.1003 22.1582Z" fill="white"/>
<path d="M100.605 70.6062C99.1356 81.3751 97.1184 91.7658 94.2451 102.24C91.6317 111.77 88.9131 121.301 87.6421 131.136C85.9551 144.196 87.1124 158.509 93.6464 169.867C82.7274 156.984 74.1774 142.074 67.9058 126.031C57.3737 99.09 47.8357 71.3971 35.0494 45.4426C34.8366 45.0114 34.2512 45.3477 34.4097 45.7765C39.6509 59.9482 45.804 73.7687 51.1674 87.8985C56.4933 101.929 61.4346 116.137 67.006 130.067C67.6083 131.574 68.2371 133.064 68.8829 134.538C60.7187 124.231 48.7487 116.64 37.0013 112.237C36.8513 112.18 36.7896 112.41 36.9299 112.474C45.2767 116.219 52.8907 121.526 59.5819 127.813C65.4303 133.308 69.8794 139.671 74.5886 146.106C85.2331 165.402 100.09 181.409 119.033 193.356C119.23 193.481 119.415 193.178 119.224 193.046C111.688 187.885 104.842 181.98 98.6676 175.467C88.1609 161.301 87.6687 142.385 90.8009 125.197C92.4444 116.183 94.7856 107.336 96.8802 98.4247C99.005 89.3905 101.327 79.9792 101.103 70.6271C101.097 70.2969 100.648 70.2834 100.605 70.6062Z" fill="#455A64"/>
</svg>
