<svg width="32" height="58" viewBox="0 0 32 58" fill="none" xmlns="http://www.w3.org/2000/svg">
<path d="M3.81658 20.0422H2.17578V25.5491H3.81658V20.0422Z" fill="#692C33"/>
<path d="M29.9328 20.0422H28.293V25.5491H29.9328V20.0422Z" fill="#692C33"/>
<path d="M31.418 50.3965H29.7812V55.9023H31.418V50.3965Z" fill="#692C33"/>
<path d="M2.33307 50.3965H0.695312V55.9023H2.33307V50.3965Z" fill="#692C33"/>
<path fill-rule="evenodd" clip-rule="evenodd" d="M16.0568 9.71875C6.37912 9.71875 5.73828 20.6208 5.73828 20.6208L16.0568 22.8802L26.3754 20.6208C26.3754 20.6208 25.7346 9.71875 16.0568 9.71875Z" fill="#692C33"/>
<path d="M17.7081 6.9502H14.4023V10.7629H17.7081V6.9502Z" fill="#692C33"/>
<path fill-rule="evenodd" clip-rule="evenodd" d="M16.0821 7.41389L17.6655 6.95012C17.6655 6.95012 16.4513 6.66844 16.4513 4.04077C16.242 4.04077 16.1354 4.04077 16.0821 4.04077C16.0821 4.04077 16.0821 4.04077 16.0277 4.04077C15.9734 4.04077 15.8688 4.04077 15.6596 4.04077C15.6596 6.66744 14.4453 6.95012 14.4453 6.95012L16.0277 7.41389V7.432L16.0549 7.42294L16.0811 7.432V7.41389H16.0821Z" fill="#692C33"/>
<path d="M16.1906 0.059082H15.918V4.52272H16.1906V0.059082Z" fill="#692C33"/>
<path fill-rule="evenodd" clip-rule="evenodd" d="M16.4238 3.25129C16.4238 3.45249 16.2588 3.61748 16.0566 3.61748C15.8544 3.61748 15.6914 3.45249 15.6914 3.25129C15.6914 3.04807 15.8544 2.88208 16.0566 2.88208C16.2588 2.88208 16.4238 3.04807 16.4238 3.25129Z" fill="#692C33"/>
<path d="M31.8791 54.0562H0.234375V57.7441H31.8791V54.0562Z" fill="#692C33"/>
<path d="M28.5007 25.3027H3.61328V54.9033H28.5007V25.3027Z" fill="#692C33"/>
<path d="M30.983 24.4336H1.12891V26.1247H30.983V24.4336Z" fill="#692C33"/>
<path d="M26.8867 20.3379H5.22656V25.2783H26.8867V20.3379Z" fill="#692C33"/>
</svg>
