<svg width="53" height="90" viewBox="0 0 53 90" fill="none" xmlns="http://www.w3.org/2000/svg">
<path d="M52.1913 79.3741C49.3814 72.3939 39.6537 67.4048 34.6848 67.472H17.9021C12.384 67.9913 3.20541 72.3939 0.394531 79.3741C6.96669 85.88 16.1385 89.9235 26.2934 89.9235C36.4473 89.9235 45.6182 85.88 52.1913 79.3741Z" fill="#31241C"/>
<path d="M19.4366 53.1421C19.4366 53.1421 17.8295 66.3469 16.7198 73.8119C15.9095 79.2656 35.4811 80.7978 36.0753 74.9187C36.5947 67.9463 37.1918 56.1287 37.1918 56.1287" fill="#C97440"/>
<path d="M18.6406 59.2093L19.4365 53.1421L37.1917 56.1287C37.1917 56.1287 37.0064 59.7594 36.7587 64.3127C35.5136 64.7072 34.2118 64.9827 32.8515 65.0845C27.2365 65.504 22.0659 63.1559 18.6406 59.2093Z" fill="#AB5D2D"/>
<path d="M48.5979 42.7001C49.3044 52.1379 42.2264 60.3574 32.7905 61.0649C23.3547 61.7686 15.1323 54.6915 14.4276 45.2528L13.0759 27.1836C12.3694 17.7497 19.4494 9.52541 28.8843 8.82365C38.3211 8.11613 46.5425 15.1942 47.2481 24.6291L48.5979 42.7001Z" fill="#C97440"/>
<path d="M25.2705 29.0739C27.6733 28.5651 29.602 27.4937 31.0429 25.4825C31.7601 24.4822 30.1069 23.5318 29.3985 24.5206C28.2532 26.119 26.6461 26.8381 24.7636 27.2374C23.5626 27.4918 24.0724 29.3274 25.2705 29.0739Z" fill="#31241C"/>
<path d="M44.6576 25.328C43.3126 25.0755 42.486 24.4371 41.8265 23.2428C41.2332 22.1676 39.5878 23.1286 40.182 24.2048C41.0585 25.7916 42.3545 26.8275 44.1507 27.1654C45.3526 27.39 45.8643 25.5545 44.6576 25.328Z" fill="#31241C"/>
<path d="M36.0848 41.1853C35.9139 41.1853 35.743 41.1248 35.6057 41.0019C35.3091 40.737 35.2841 40.2819 35.5491 39.9853L37.8377 37.425L35.2102 36.3354C34.8425 36.1827 34.6688 35.7613 34.8204 35.3946C34.9721 35.0269 35.3936 34.8522 35.7613 35.0048L39.3257 36.4832C39.5417 36.5725 39.7001 36.7606 39.752 36.9882C39.8038 37.2157 39.7424 37.4538 39.5869 37.6285L36.6224 40.9453C36.4793 41.1046 36.2825 41.1853 36.0848 41.1853Z" fill="#31241C"/>
<path d="M31.7558 48.4678C31.5302 48.4678 31.3075 48.3622 31.1673 48.1634C30.9379 47.839 31.0147 47.3897 31.3392 47.1602C34.175 45.1558 36.719 44.3494 38.9097 44.7641C39.3005 44.838 39.5568 45.2153 39.4829 45.606C39.408 45.9958 39.0326 46.2502 38.6409 46.1791C36.8544 45.8393 34.6752 46.565 32.1715 48.3362C32.0448 48.4255 31.8998 48.4678 31.7558 48.4678Z" fill="#31241C"/>
<path d="M31.6944 35.336C31.4189 36.4515 30.29 37.134 29.1725 36.8595C28.0589 36.584 27.3735 35.455 27.6519 34.3376C27.9264 33.2201 29.0535 32.5376 30.1709 32.815C31.2864 33.0886 31.97 34.2195 31.6944 35.336Z" fill="#1A191F"/>
<path d="M44.1485 34.5929C43.873 35.7056 42.7459 36.3939 41.6275 36.1164C40.512 35.8438 39.8285 34.7101 40.104 33.5945C40.3786 32.479 41.5085 31.7974 42.6249 32.0758C43.7414 32.3494 44.425 33.4774 44.1485 34.5929Z" fill="#1A191F"/>
<path d="M17.7137 40.7177C18.5248 44.0556 16.4772 47.4214 13.1364 48.2307C9.79653 49.0428 6.43268 46.9952 5.62148 43.6544L5.1578 41.7459C4.3466 38.406 6.39525 35.0432 9.73509 34.231C13.073 33.4198 16.4388 35.4694 17.25 38.8083L17.7137 40.7177Z" fill="#C97440"/>
<path d="M8.32552 34.8531C6.86344 30.6876 -0.265508 13.7427 10.3358 13.23C10.9934 6.57723 20.242 3.06843 31.7927 0.80283C43.3444 -1.46181 50.5454 3.94683 49.6679 9.35643C48.7905 14.767 41.698 16.7398 36.0695 15.1318C34.4615 20.9801 26.7114 19.0083 25.0305 17.8371C23.7326 23.503 17.2977 24.8739 18.0302 28.8214C18.7617 32.7699 19.09 36.7894 19.2359 37.5948C19.3818 38.4003 16.0199 39.9718 15.2884 38.3619C14.5569 36.7548 11.6702 33.8672 8.32552 34.8531Z" fill="#31241C"/>
</svg>
