<svg width="23" height="4" viewBox="0 0 23 4" fill="none" xmlns="http://www.w3.org/2000/svg">
<path fill-rule="evenodd" clip-rule="evenodd" d="M22.502 2.47912L22.6811 1.42385L22.2948 1.18641L22.4829 1.04859L22.2545 0.90875L22.2948 0.609971C22.2948 0.609971 22.3028 0.411796 22.0956 0.428898C21.8884 0.41079 21.8964 0.609971 21.8964 0.609971L21.9356 0.90875L21.7073 1.04859L21.8964 1.18641L21.5091 1.42385L21.6882 2.47912L21.332 3.3322H22.8612L22.502 2.47912Z" fill="#692C33"/>
<path fill-rule="evenodd" clip-rule="evenodd" d="M15.4718 2.47912L15.6508 1.42385L15.2645 1.18641L15.4526 1.04859L15.2243 0.90875L15.2645 0.609971C15.2645 0.609971 15.2726 0.411796 15.0653 0.428898C14.8581 0.41079 14.8672 0.609971 14.8672 0.609971L14.9064 0.90875L14.678 1.04859L14.8672 1.18641L14.4788 1.42385L14.6569 2.47912L14.3008 3.3322H15.8309L15.4718 2.47912Z" fill="#692C33"/>
<path fill-rule="evenodd" clip-rule="evenodd" d="M8.44051 2.47912L8.61858 1.42385L8.23227 1.18641L8.4204 1.04859L8.19203 0.90875L8.23227 0.609971C8.23227 0.609971 8.24032 0.411796 8.03309 0.428898C7.82686 0.41079 7.8339 0.609971 7.8339 0.609971L7.87414 0.90875L7.64578 1.04859L7.8349 1.18641L7.44759 1.42385L7.62666 2.47912L7.26953 3.3322H8.79966L8.44051 2.47912Z" fill="#692C33"/>
<path fill-rule="evenodd" clip-rule="evenodd" d="M1.40636 2.47912L1.58443 1.42385L1.19712 1.18641L1.38625 1.04859L1.15788 0.90875L1.19712 0.609971C1.19712 0.609971 1.20617 0.411796 0.997928 0.428898C0.790692 0.41079 0.799747 0.609971 0.799747 0.609971L0.840992 0.90875L0.611625 1.04859L0.799747 1.18641L0.413442 1.42385L0.591505 2.47912L0.234375 3.3322H1.7645L1.40636 2.47912Z" fill="#692C33"/>
</svg>
