<svg width="142" height="264" viewBox="0 0 142 264" fill="none" xmlns="http://www.w3.org/2000/svg">
<path d="M77.9053 47.0675C76.0901 53.1117 75.7104 59.6376 76.6186 65.8839C78.5499 79.0712 88.2934 89.5149 90.4013 102.499C90.1389 104.057 89.8197 105.629 89.4133 107.2C89.4145 107.226 89.4 107.259 89.3903 107.28C89.3855 107.291 89.3806 107.301 89.3867 107.317C89.3819 107.328 89.3819 107.328 89.3819 107.328C89.3771 107.339 89.377 107.339 89.3831 107.354C89.3915 107.423 89.4448 107.472 89.498 107.497C89.5887 107.318 89.6685 107.136 89.7435 106.964C89.8995 106.635 90.0409 106.311 90.1715 105.983C90.3735 105.52 90.5501 105.058 90.7206 104.58C90.7738 104.603 90.8258 104.369 90.8282 104.305C95.5749 90.9686 91.2152 76.176 89.0046 62.6425C87.7348 54.9043 88.2693 47.0922 87.1349 39.3897C86.8616 37.5491 86.8786 34.0588 84.2773 34.7648C81.3555 35.5693 78.6454 44.59 77.9053 47.0675Z" fill="#455A64"/>
<path d="M79.819 58.4398C78.9954 74.4841 93.5195 88.5129 90.1455 104.538C90.0366 104.991 89.9314 105.434 89.8117 105.883C89.727 106.193 89.6424 106.503 89.5469 106.808C89.5469 106.808 89.5468 106.808 89.542 106.819C89.5009 106.942 89.4598 107.066 89.4138 107.2C89.4151 107.226 89.4005 107.259 89.3908 107.28C89.386 107.291 89.3812 107.301 89.3872 107.317C89.3824 107.328 89.3824 107.328 89.3824 107.328C89.3776 107.339 89.3775 107.339 89.3836 107.354C89.3921 107.423 89.4453 107.472 89.4985 107.497C89.5191 107.507 89.5456 107.505 89.5565 107.51C89.6085 107.508 89.6593 107.48 89.6871 107.414C89.8685 106.941 90.0282 106.459 90.1733 105.983C90.5518 104.799 90.8142 103.615 90.975 102.436C90.9908 102.43 90.9799 102.425 90.9799 102.425C92.5025 95.3702 92.13 88.3614 90.6667 80.9484C88.8648 71.8452 86.5876 63.0179 84.9562 53.8124C84.7555 52.6765 84.7494 48.1945 82.956 48.7883C80.6897 49.5423 79.9181 56.5881 79.819 58.4398ZM80.5941 56.0559C80.7356 55.1516 81.8724 49.1234 83.3466 49.7529C84.2234 50.125 84.3322 54.6908 84.4701 55.3339C84.9949 57.8177 85.5138 60.2853 86.0374 62.769C87.1548 67.9853 88.3024 73.1917 89.409 78.4031C90.7622 84.8502 91.6124 91.2886 91.1601 97.6913C90.3498 83.644 78.3012 70.6206 80.5941 56.0559Z" fill="white"/>
<path d="M74.133 201.087C74.1427 201.297 74.3059 201.591 74.5877 201.409C86.5177 193.586 101.397 199.956 113.747 192.969C118.701 190.154 122.992 186.214 127.012 182.175C129.974 179.194 132.938 176.033 135.087 172.387C135.376 171.899 136.89 169.913 136.649 168.926C134.753 161.433 115.648 174.11 112.447 175.898C99.9498 182.844 88.5192 189.177 77.5759 198.078C76.4295 198.991 75.2903 199.947 74.1632 200.933C74.1269 200.955 74.1245 201.018 74.133 201.087Z" fill="#455A64"/>
<path d="M74.133 201.088C74.572 200.81 74.9989 200.525 75.4331 200.258C83.6348 196.244 92.764 194.832 101.581 192.542C110.475 190.222 118.079 186.441 124.69 179.861C125.856 178.699 130.702 174.248 129.27 172.012C127.983 169.996 123.109 173.878 121.921 174.567C113.046 179.631 104.365 184.77 95.1125 189.134C89.194 191.923 83.203 194.707 77.5735 198.08C76.4271 198.993 75.288 199.949 74.1609 200.934C74.127 200.957 74.1246 201.019 74.133 201.088ZM79.7044 197.702C86.23 193.986 93.0821 190.884 99.8761 187.599C104.544 185.352 109.105 182.915 113.574 180.281C116.018 178.834 118.45 177.354 120.911 175.926C122.148 175.209 123.382 174.503 124.626 173.828C125.248 173.477 127.297 172.278 127.815 173.243C129.219 175.851 115.518 189.095 98.5241 192.522C92.1461 193.81 85.7003 195.256 79.7044 197.702Z" fill="white"/>
<path d="M93.9782 178.072C93.9286 178.128 93.948 178.2 93.9963 178.235C94.0399 178.28 94.1124 178.288 94.1765 178.226C94.4244 177.977 94.6675 177.739 94.9166 177.491C95.82 176.584 96.6907 175.661 97.5409 174.731C97.6932 174.555 97.8529 174.395 98.0053 174.218C98.0621 174.205 98.1032 174.197 98.1431 174.164C107.674 164.234 122.111 161.201 130.239 149.694C133.857 144.57 136.155 138.643 137.888 132.614C138.633 130.008 142.303 122.069 139.086 120.006C136.581 118.405 132.666 121.884 131.032 123.364C125.841 128.058 122.162 134.626 118.549 140.577C115.004 146.405 111.777 152.402 108.407 158.322C105.276 163.808 101.632 168.7 97.7464 173.509C96.5117 175.025 95.2516 176.546 93.9782 178.072Z" fill="#455A64"/>
<path d="M93.9782 178.073C93.9286 178.129 93.948 178.201 93.9963 178.236C94.7776 177.403 95.56 176.57 96.3473 175.752C95.8659 176.334 95.3834 176.915 94.9166 177.492C95.82 176.585 96.6907 175.662 97.5409 174.732C97.9593 174.238 98.3777 173.743 98.807 173.254C104.268 167.855 110.165 162.939 116.37 158.42C119.458 156.167 122.09 153.625 124.287 150.418C128.28 144.585 134.476 130.86 133.28 128.782C132.017 126.571 129.597 131.09 128.904 132.041C123.359 139.749 118.853 148.123 112.891 155.54C108.878 160.522 104.807 165.466 100.746 170.415C99.7225 171.423 98.7164 172.45 97.7477 173.509C96.5117 175.026 95.2516 176.547 93.9782 178.073ZM132.372 129.285C133.423 129.731 131.823 133.416 131.409 134.39C129.389 139.075 127.189 143.822 124.709 148.287C122.078 153.033 118.331 156.161 114.022 159.241C110.486 161.769 107.018 164.572 103.716 167.58C107.749 162.928 111.738 158.232 115.466 153.352C118.555 149.292 121.245 144.962 123.977 140.65C125.337 138.491 126.704 136.349 128.15 134.256C128.54 133.682 131.429 128.883 132.372 129.285Z" fill="white"/>
<path d="M22.9492 239.332C22.9407 239.398 22.9903 239.442 23.0435 239.443C23.0979 239.454 23.1547 239.422 23.1729 239.345C23.2321 239.034 23.2938 238.734 23.3531 238.423C23.5683 237.292 23.7534 236.166 23.919 235.044C23.9444 234.835 23.9819 234.636 24.0073 234.428C24.0424 234.389 24.069 234.362 24.0811 234.317C26.1805 222.115 35.3037 212.467 35.5915 199.825C35.7185 194.196 34.4753 188.653 32.7678 183.326C32.0264 181.025 30.7977 173.298 27.4103 173.431C24.774 173.541 23.6155 178.112 23.145 180.04C21.6467 186.16 22.1897 192.883 22.4775 199.119C22.752 205.228 23.3458 211.299 23.7944 217.387C24.2056 223.032 23.9456 228.503 23.4655 234.038C23.3059 235.789 23.1318 237.555 22.9492 239.332Z" fill="#455A64"/>
<path d="M22.9502 239.331C22.9417 239.396 22.9913 239.441 23.0445 239.442C23.2078 238.427 23.371 237.413 23.5452 236.406C23.4787 237.081 23.4109 237.758 23.3529 238.42C23.5681 237.289 23.7531 236.163 23.9188 235.041C23.9817 234.462 24.0458 233.883 24.1196 233.303C25.4668 226.525 27.3739 219.879 29.7031 213.366C30.8592 210.123 31.54 206.9 31.5678 203.412C31.6198 197.068 29.3874 183.785 27.4791 182.871C25.4547 181.893 25.9106 186.461 25.8707 187.517C25.6046 196.038 26.433 204.513 25.7159 213.034C25.2285 218.761 24.6783 224.491 24.1389 230.219C23.8849 231.485 23.6528 232.759 23.4641 234.036C23.3069 235.788 23.1328 237.553 22.9502 239.331ZM24.9238 226.607C25.5902 221.112 26.2008 215.607 26.5297 210.102C26.7946 205.527 26.6301 200.959 26.5068 196.383C26.4403 194.097 26.3847 191.818 26.4137 189.535C26.4173 188.914 26.1682 183.898 27.0619 183.709C28.0559 183.497 28.7018 187.03 28.8795 187.96C29.7116 192.446 30.4419 197.07 30.8253 201.629C31.2389 206.472 30.0284 210.699 28.3812 215.18C27.0292 218.853 25.8647 222.698 24.9238 226.607Z" fill="white"/>
<path d="M21.5702 249.453C21.783 249.459 22.0999 249.37 22.4989 249.125C34.6987 244.367 48.0437 244.155 60.3063 239.401C65.66 237.324 70.7332 234.266 74.5535 229.84C76.1897 227.949 81.8603 221.433 80.6074 218.412C76.873 209.325 35.7013 237.956 22.1604 248.249C21.881 248.394 21.6802 248.535 21.5423 248.679C21.1287 249.071 21.1904 249.422 21.5702 249.453Z" fill="#455A64"/>
<path d="M21.5703 249.452C22.4749 248.946 23.3855 248.428 24.301 247.928C27.2627 246.715 30.2485 245.564 33.2984 244.584C38.1321 243.032 43.1074 242.112 48.0161 240.851C55.6917 238.884 62.7808 235.153 68.5905 229.654C69.8542 228.471 73.6165 225.311 72.7977 223.093C72.0455 221.074 68.9726 223.064 67.8806 223.589C52.4035 231.12 37.34 239.769 22.3262 248.272C22.0516 248.406 21.7929 248.534 21.5413 248.677C21.1289 249.07 21.1906 249.421 21.5703 249.452ZM28.7562 245.442C34.6384 242.183 40.5158 238.936 46.4113 235.735C51.0309 233.222 55.6518 230.733 60.2944 228.255C62.5885 227.036 64.8584 225.782 67.1743 224.598C68.0862 224.133 71.6113 222.299 71.9439 223.597C72.2607 224.786 69.8385 227.315 69.3983 227.774C62.441 235.062 53.5173 238.814 43.9551 240.985C38.7828 242.151 33.6842 243.558 28.7562 245.442Z" fill="white"/>
<path d="M80.0227 144.427C79.9211 144.601 79.9126 144.765 79.9658 144.905C80.0372 145.118 80.2512 145.267 80.4955 145.287C80.6104 145.313 80.7338 145.292 80.8511 145.255C80.9236 145.262 80.9962 145.243 81.0603 145.182C86.8228 139.444 95.6182 134.098 101.545 128.588C106.093 124.352 109.829 119.308 112.975 113.904C116.451 107.943 119.446 101.465 121.405 94.802C122.336 91.6234 125.024 84.1045 122.487 80.979C117.28 74.5405 106.75 97.9559 105.239 100.575C96.7804 115.161 88.3332 129.75 80.0227 144.427Z" fill="#455A64"/>
<path d="M79.9688 144.903C80.0401 145.116 80.2541 145.265 80.4984 145.285C80.8395 144.795 81.1744 144.288 81.5155 143.797C83.7697 141.101 86.0239 138.406 88.428 135.831C92.3354 131.638 96.8075 128.012 100.581 123.696C107.15 116.167 119.481 92.197 115.937 89.8057C114.088 88.5589 111.804 93.4956 111.13 94.661C108.479 99.281 106.417 104.205 103.703 108.797C100.874 113.62 97.7593 118.261 94.6634 122.912C89.8817 130.064 85.0721 137.19 80.3642 144.401C80.2275 144.569 80.1054 144.733 79.9688 144.903ZM84.696 139.096C88.9505 132.777 93.1456 126.418 97.3626 120.069C100.267 115.68 103.138 111.251 105.728 106.656C107.168 104.082 108.465 101.431 109.763 98.7783C110.4 97.4921 111.032 96.1911 111.754 94.9444C112.375 93.8701 114.677 89.393 115.714 91.0303C116.714 92.6097 113.633 99.6937 112.902 101.337C111.699 104.006 110.469 106.648 109.139 109.26C106.51 114.38 103.496 119.338 99.676 123.648C95.8654 127.935 91.4139 131.57 87.5658 135.828C86.6043 136.901 85.6369 137.986 84.696 139.096Z" fill="white"/>
<path d="M10.9482 156.101C21.5468 167.836 38.6456 171.093 44.8833 191.653C44.8978 191.737 45.0006 191.732 45.0345 191.682C45.0647 191.67 45.0792 191.638 45.0671 191.607C44.6801 189.535 44.2267 187.47 43.6788 185.415C40.8006 174.367 35.7443 163.635 29.0277 154.588C24.974 149.162 20.1754 144.252 14.7153 140.306C11.9217 138.291 5.87985 133.151 2.39093 133.946C-5.13476 135.661 9.0145 153.972 10.9482 156.101Z" fill="#455A64"/>
<path d="M11.5822 148.875C15.8524 157.406 24.3201 162.934 30.7961 169.573C35.2586 174.151 39.3195 179.153 42.5182 184.681C43.3974 186.99 44.2318 189.317 45.036 191.681C45.0662 191.669 45.0808 191.637 45.0687 191.606C44.6817 189.534 44.2282 187.469 43.6803 185.414C43.6138 185.306 43.5618 185.192 43.4941 185.085C41.246 178.775 38.121 172.698 34.6937 167.145C29.8758 159.32 23.973 152.179 17.2177 146.034C16.0507 144.964 12.2026 140.315 10.2024 141.501C8.29043 142.634 10.986 147.688 11.5822 148.875ZM10.8663 142.253C12.3236 141.695 19.1248 148.576 21.7877 151.384C27.5272 157.418 32.5025 164.215 36.5525 171.535C38.3327 174.742 39.8347 178.005 41.2048 181.336C38.9277 177.878 36.3421 174.628 33.5376 171.564C27.6953 165.186 20.3849 160.079 15.0917 153.227C13.707 151.438 12.4904 149.493 11.5798 147.402C11.2206 146.569 9.53847 142.762 10.8663 142.253Z" fill="white"/>
<path d="M24.0931 92.0788C23.3978 97.7903 23.3349 103.621 23.977 109.346C25.219 120.544 29.078 131.031 35.0557 140.464C35.1609 140.628 35.2626 140.803 35.3787 140.972C35.4706 141.516 35.5721 142.066 35.7051 142.604C35.7257 142.73 35.7523 142.845 35.7837 142.975C35.7958 143.006 35.8019 143.022 35.814 143.053L35.8237 143.058C35.8999 143.144 36.0692 143.105 36.0631 142.947C36.0643 142.277 36.0704 141.595 36.0873 140.919C36.3014 127.026 38.8228 113.416 36.9943 99.5003C36.5856 96.4622 34.6421 76.5703 27.8227 79.9719C24.647 81.5526 24.4354 89.1749 24.0931 92.0788Z" fill="#455A64"/>
<path d="M26.8144 94.873C26.3439 103.437 28.5485 112.631 30.2767 120.978C31.6154 127.457 33.0545 134.085 35.0572 140.466C35.2095 140.987 35.3837 141.516 35.5518 142.031C35.5965 142.22 35.6509 142.412 35.7066 142.606C35.7283 142.757 35.7658 142.904 35.8142 143.054L35.8239 143.059C35.9 143.145 36.0694 143.106 36.0634 142.948C36.0646 142.278 36.0706 141.597 36.0875 140.92C35.9557 140.409 35.8094 139.904 35.6776 139.393C34.6847 131.83 34.7791 124.246 34.8383 116.567C34.8722 112.427 34.8092 108.307 34.4561 104.184C34.1102 100.22 33.9313 95.9571 32.7207 92.1441C32.191 90.4846 31.0918 87.1989 28.7989 88.4173C26.8688 89.4386 26.9208 93.0632 26.8144 94.873ZM31.8258 91.9827C33.2686 96.4832 33.4826 101.768 33.7946 106.478C34.1078 110.983 34.0546 115.515 34.0111 120.025C33.9639 124.806 33.9156 129.674 34.3449 134.465C32.7304 128.441 31.1728 122.404 30.0239 116.219C29.1206 111.383 28.3296 106.52 27.777 101.635C27.4843 99.1148 27.3102 96.5842 27.5339 94.0389C27.6077 93.1432 27.702 92.2316 27.8919 91.3618C28.4881 88.5725 31.1813 89.9487 31.8258 91.9827Z" fill="white"/>
<path d="M107.853 55.9822C107.803 56.2052 107.769 56.4232 107.72 56.6462C107.653 56.9911 107.97 57.1649 108.228 57.1033C108.372 57.0663 108.482 56.9628 108.523 56.7866C108.614 56.3875 108.708 55.9784 108.799 55.5793L108.803 55.5682C108.875 55.238 108.952 54.9251 109.025 54.5949C109.317 54.0565 109.631 53.5292 109.976 53.0155C113.591 47.4382 119.86 42.7246 124.114 37.9642C127.993 33.6398 131.653 29.095 134.617 24.0573C137.616 18.9716 139.967 13.4018 140.71 7.47093C140.905 5.87549 141.645 1.85053 139.69 0.847685C137.218 -0.422507 133.444 4.40571 132.113 5.66605C127.521 10.047 123.606 15.134 120.313 20.588C113.693 31.5479 110.308 43.4958 107.853 55.9822Z" fill="#455A64"/>
<path d="M108.956 53.2163C108.536 54.123 108.158 55.0482 107.853 55.9821C107.803 56.2051 107.769 56.4231 107.72 56.6461C107.653 56.9911 107.97 57.1648 108.228 57.1032C108.274 56.9431 108.321 56.7829 108.378 56.6289C108.522 56.2815 108.655 55.9279 108.799 55.5804L108.803 55.5693C109.167 54.702 109.559 53.8593 109.977 53.0167C111.436 50.0525 113.202 47.2583 115.277 44.4259C118.749 39.7037 122.392 35.112 125.694 30.2592C127.347 27.8272 140.061 9.08846 135.059 7.30083C134.121 6.95341 133.21 8.24084 132.705 8.7706C130.934 10.642 129.501 12.8658 128.14 15.0452C124.953 20.1223 121.949 25.3349 119.112 30.6263C115.212 37.9124 111.745 45.4263 108.956 53.2163ZM118.049 33.8664C120.476 29.175 123.051 24.5796 125.738 20.0483C127.046 17.8443 128.355 15.6144 129.785 13.4805C130.49 12.421 134.065 7.66921 135.045 8.29506C136.479 9.21044 133.076 16.611 132.04 18.6044C130.852 20.8775 129.564 23.0914 128.218 25.2646C125.501 29.6394 122.498 33.8283 119.414 37.9407C116.693 41.5874 113.44 45.4522 110.893 49.6459C112.995 44.2584 115.409 39.0026 118.049 33.8664Z" fill="white"/>
<path d="M64.1664 121.182C64.2329 121.4 64.3115 121.606 64.378 121.825C64.4905 122.158 64.8509 122.147 65.0419 121.961C65.1484 121.856 65.1919 121.71 65.1411 121.537C65.0226 121.147 64.9029 120.743 64.7843 120.352L64.7831 120.341C64.6827 120.019 64.5957 119.708 64.4953 119.386C64.4832 118.771 64.4941 118.154 64.54 117.533C64.9198 110.862 68.0205 103.578 69.3544 97.2865C70.5795 91.5626 71.507 85.7611 71.5893 79.8882C71.6776 73.9561 70.9676 67.9365 68.6905 62.4258C68.0737 60.9462 66.7313 57.0863 64.5461 57.2181C61.7828 57.3832 60.8963 63.489 60.3655 65.2582C58.5515 71.396 57.6698 77.7975 57.509 84.1989C57.1825 97.0622 60.1393 109.127 64.1664 121.182Z" fill="#455A64"/>
<path d="M63.7573 118.224C63.8407 119.223 63.9689 120.217 64.1661 121.181C64.2326 121.399 64.3112 121.605 64.3777 121.824C64.4902 122.157 64.8506 122.146 65.0416 121.959C65.0029 121.798 64.9642 121.635 64.9376 121.473C64.8905 121.098 64.8324 120.725 64.784 120.35L64.7828 120.339C64.6715 119.403 64.5941 118.474 64.5397 117.532C64.3426 114.221 64.4925 110.902 64.8928 107.391C65.57 101.532 66.4589 95.6982 66.9245 89.8117C67.1567 86.8623 68.9236 64.1553 63.7162 65.1655C62.733 65.3454 62.5806 66.9236 62.404 67.6406C61.7945 70.165 61.6506 72.8212 61.5466 75.4022C61.2915 81.4217 61.26 87.4672 61.4124 93.4941C61.6301 101.788 62.3327 110.06 63.7573 118.224ZM62.092 96.8378C61.8804 91.539 61.8441 86.2475 61.936 80.9548C61.9832 78.3787 62.0158 75.7817 62.2021 73.2043C62.2904 71.928 63.0413 65.9897 64.1963 66.0304C65.8881 66.0895 66.5895 74.2306 66.6754 76.4839C66.7685 79.0576 66.7443 81.6312 66.65 84.1987C66.4541 89.3719 65.9196 94.5303 65.2786 99.664C64.7211 104.209 63.8117 109.214 63.6738 114.145C62.8394 108.41 62.3375 102.631 62.092 96.8378Z" fill="white"/>
<path d="M34.3952 130.509C36.2129 142.584 38.4489 154.381 41.5811 166.18C43.9949 175.27 46.433 184.496 46.78 193.957C47.1948 205.264 43.9828 217.82 38.3473 228.667C41.6029 224.962 44.8209 221.204 48.0136 217.389C54.5053 209.63 60.9595 201.665 65.5683 192.558C66.023 191.659 66.4365 190.744 66.8513 189.83C66.8163 189.769 66.7909 189.697 66.8102 189.611C69.4623 177.266 70.108 165.203 69.1382 152.99C67.1041 146.549 64.6032 140.762 61.3078 134.664C58.051 128.636 54.9321 122.78 53.2028 116.075C53.1048 115.695 53.6321 115.464 53.7773 115.85C57.0932 124.712 63.9139 133.334 67.9252 142.524C67.6966 141.01 67.4536 139.492 67.1791 137.969C64.5645 123.428 59.6244 108.813 64.8499 94.2751C65.0253 93.7884 65.7049 94.1211 65.5609 94.5966C60.639 110.79 68.3811 128.631 70.6752 144.721C72.3816 156.689 72.956 169.581 70.1117 181.506C72.3042 174.945 73.8522 168.152 75.3409 161.386C84.3238 120.572 94.7168 79.9851 114.192 42.8909C114.382 42.5286 114.955 42.78 114.77 43.1532C94.8317 83.4051 86.9275 127.157 76.5417 170.533C76.4232 171.026 76.295 171.517 76.1729 172.008C79.6231 166.281 84.1932 161.042 88.6943 156.585C88.9229 156.359 89.2917 156.644 89.0861 156.912C83.3768 164.37 79.0136 172.526 73.8679 180.309C71.9753 186.367 69.6159 192.246 66.4196 197.775C62.6066 204.372 57.9797 210.398 53.1593 216.254C61.2921 209.303 69.4998 202.448 77.15 194.879C88.7015 183.45 99.7162 171.324 109.68 158.427C109.825 158.239 110.095 158.468 109.959 158.661C100.127 172.614 89.559 185.876 77.589 198.003C67.4657 208.26 56.618 218.716 44.4654 226.588C32.8521 240.213 20.4298 253.897 5.73645 263.875C5.03625 264.35 4.37716 263.363 4.98667 262.811C7.68469 260.371 10.3186 257.885 12.9223 255.379C15.4583 249.606 18.9702 244.315 21.2256 238.343C23.8801 231.315 25.6578 224.088 26.6156 216.629C26.6857 216.079 27.4706 216.22 27.4392 216.756C26.8309 226.917 24.5924 239.426 19.2677 249.128C22.9804 245.384 26.6241 241.583 30.1977 237.709C39.743 222.865 45.9577 205.22 43.8716 187.457C42.8001 178.332 40.2255 169.511 38.1224 160.6C35.7799 150.674 34.567 140.742 33.7289 130.585C33.6939 130.146 34.3299 130.077 34.3952 130.509Z" fill="#455A64"/>
</svg>
