<svg width="301" height="247" viewBox="0 0 301 247" fill="none" xmlns="http://www.w3.org/2000/svg">
<path d="M188.51 47.5703C188.51 52.6784 184.369 56.8208 179.261 56.8208C174.153 56.8208 170.012 52.6784 170.012 47.5703V41.1517C170.012 36.0445 174.153 31.9031 179.261 31.9031C184.369 31.9031 188.51 36.0445 188.51 41.1517V47.5703Z" fill="#FF6477"/>
<path d="M282.748 148.555C280.198 136.096 269.157 102.404 242.26 90.2288C215.36 78.0531 190.16 87.9641 180.818 93.6243C171.474 99.2864 160.717 121.373 155.903 142.042C151.089 162.711 134.667 162.429 121.926 166.959L127.871 188.478L259.247 189.327C259.247 189.327 259.247 189.327 259.53 185.929C293.79 183.947 285.298 161.012 282.748 148.555ZM148.4 181.541C153.637 181.541 176.996 163.986 181.81 164.551C184.215 177.434 184.501 184.23 184.783 185.081C185.067 185.929 149.815 192.158 148.4 181.541Z" fill="#FF6477"/>
<path d="M195.071 99.5744C193.373 107.689 186.389 157.335 198.282 189.99C207.529 190.744 221.309 189.99 221.309 189.99C218.667 172.812 213.381 125.244 224.328 98.0634C213.381 98.2506 195.071 99.5744 195.071 99.5744Z" fill="#FF6477"/>
<path d="M201.11 84.849C191.767 85.4183 189.596 95.5156 193.844 101.744C198.09 107.973 206.11 102.875 207.527 99.7626C217.628 109.294 230.746 100.706 233.576 86.5492C233.575 85.4183 217.533 82.3021 201.11 84.849Z" fill="#FF6477"/>
<path d="M227.726 33.6733C227.301 24.2519 217.627 6.27398 194.693 7.28966C178.367 8.5463 176.384 24.0119 176.384 24.0119C175.818 25.7485 172.892 29.4215 172.892 29.4215C172.043 22.1745 176.625 2.97158 197.242 2.45702C220.459 1.87718 231.546 20.0471 231.974 33.0954C230.132 36.1386 227.726 33.6733 227.726 33.6733Z" fill="#FF6477"/>
<path d="M182.176 15.848C174.335 21.2201 169.638 30.1606 173.612 39.0512C177.587 47.9456 178.714 51.8624 174.859 58.8195C169.437 68.6057 167.152 77.7421 171.232 86.0499C195.826 82.6534 206.648 79.8876 206.648 79.8876C206.648 79.8876 197.138 14.8102 182.176 15.848Z" fill="#31241C"/>
<path d="M218.687 60.6262C218.687 60.6262 224.769 78.9545 225.345 86.6989C225.869 93.799 202.372 98.5376 200.706 91.0937C198.968 82.2368 196.387 67.1811 196.387 67.1811" fill="#C97440"/>
<path d="M220.639 68.2803L218.687 60.6262L196.387 67.1811C196.387 67.1811 197.182 71.8064 198.199 77.6048C199.855 77.9197 201.566 78.0714 203.327 77.9907C210.587 77.671 216.854 73.8656 220.639 68.2803Z" fill="#AB5D2D"/>
<path d="M179.704 51.7213C180.248 63.9277 190.585 73.3769 202.785 72.8317C214.989 72.2873 224.442 61.953 223.896 49.7456L222.852 26.3782C222.308 14.1737 211.969 4.7216 199.768 5.26976C187.564 5.81408 178.113 16.1485 178.659 28.353L179.704 51.7213Z" fill="#C97440"/>
<path d="M208.892 27.5264C206.101 26.0279 202.434 25.3319 199.515 26.8371C198.424 27.3997 199.387 29.0442 200.477 28.4816C202.751 27.3085 205.777 28.0151 207.93 29.1709C209.012 29.7517 209.974 28.1072 208.892 27.5264Z" fill="#31241C"/>
<path d="M182.223 30.6109C183.542 29.3619 185.431 28.9059 187.189 29.2669C188.388 29.5126 188.898 27.6771 187.695 27.4304C185.254 26.9302 182.707 27.5293 180.875 29.264C179.982 30.1107 181.332 31.4547 182.223 30.6109Z" fill="#31241C"/>
<path d="M195.4 47.6537C195.23 47.6537 195.06 47.5942 194.923 47.4742L190.615 43.6793C190.44 43.5248 190.351 43.2953 190.375 43.063C190.399 42.8307 190.535 42.6253 190.738 42.511L195.079 40.0678C195.427 39.8729 195.865 39.9968 196.06 40.3424C196.255 40.6889 196.132 41.1276 195.786 41.3225L192.328 43.2675L195.876 46.3923C196.173 46.6553 196.203 47.1104 195.939 47.4089C195.798 47.5712 195.599 47.6537 195.4 47.6537Z" fill="#31241C"/>
<path d="M196.998 53.7622C195.837 53.7622 194.695 53.456 193.806 52.8483C193.478 52.6237 193.393 52.1763 193.618 51.848C193.841 51.5206 194.289 51.4361 194.618 51.6589C195.84 52.495 197.897 52.5353 199.299 51.7539C200.144 51.2825 201.132 50.313 201.043 48.3661C201.023 47.9686 201.332 47.6317 201.729 47.6144C202.119 47.5923 202.462 47.9033 202.481 48.3008C202.577 50.3936 201.695 52.0669 200 53.0125C199.1 53.5136 198.042 53.7622 196.998 53.7622Z" fill="#31241C"/>
<path d="M200.24 39.6848C200.765 41.0729 202.318 41.7747 203.706 41.2486C205.091 40.7254 205.797 39.175 205.269 37.7859C204.743 36.3948 203.194 35.6931 201.805 36.2182C200.415 36.7424 199.717 38.2947 200.24 39.6848Z" fill="#1A191F"/>
<path d="M184.162 40.6467C184.687 42.0329 186.239 42.7395 187.628 42.2134C189.014 41.6902 189.719 40.135 189.194 38.7459C188.668 37.3577 187.118 36.6589 185.73 37.1849C184.34 37.7072 183.638 39.2576 184.162 40.6467Z" fill="#1A191F"/>
<path d="M184.859 40.0121C184.747 40.0121 184.634 39.9824 184.53 39.919L181.907 38.312C181.61 38.1296 181.516 37.7398 181.699 37.4422C181.881 37.1446 182.272 37.0524 182.569 37.2339L185.19 38.8409C185.488 39.0233 185.582 39.4131 185.4 39.7107C185.281 39.9046 185.072 40.0121 184.859 40.0121Z" fill="#1A191F"/>
<path d="M203.906 39.0675C203.706 39.0675 203.509 38.9725 203.386 38.7949C203.187 38.5078 203.258 38.1142 203.545 37.9155L206.287 36.0147C206.574 35.815 206.968 35.888 207.167 36.175C207.365 36.4621 207.294 36.8557 207.007 37.0554L204.265 38.9552C204.156 39.031 204.03 39.0675 203.906 39.0675Z" fill="#1A191F"/>
<path d="M244.93 51.8615C241.261 43.9578 245.79 39.0503 243.837 31.52C242.125 24.9335 234.286 25.1379 230.243 15.8077C224.047 1.50177 192.168 -11.3776 180.281 17.6528C193.496 8.69313 207.039 13.3501 212.18 19.9741C222.547 33.3315 211.909 38.9907 215.911 46.9338C218.826 52.7207 220.738 56.6202 216.97 65.3792C213.202 74.1373 218.477 82.4672 218.477 82.4672C230.814 81.1011 244.761 79.8887 257.432 77.7421C257.433 56.3648 248.595 59.7661 244.93 51.8615Z" fill="#31241C"/>
<path d="M188.84 161.297C178.083 162.239 173.93 165.45 164.302 170.547C154.675 175.644 152.6 176.776 154.863 177.72C149.201 178.098 152.504 181.116 156.467 179.794C153.826 180.928 157.506 182.156 162.791 180.173C164.112 182.25 170.909 181.309 175.25 178.853C179.591 176.398 189.973 174.321 199.41 177.531C200.545 171.68 196.957 161.487 196.957 161.487L188.84 161.297Z" fill="#C97440"/>
<path d="M195.684 161.438C201.488 160.165 217.722 158.841 227.349 159.409C227.916 166.959 223.763 182.249 223.763 182.249L198.09 176.585C198.09 176.585 199.367 168.516 195.684 161.438Z" fill="#FF6477"/>
<path d="M195.197 161.572C206.66 159.915 218.252 159.948 229.803 159.622C235.368 159.465 240.706 158.819 246.22 158.188C251.462 157.589 257.669 158.727 262.708 160.251C263.303 160.431 263.554 159.504 262.964 159.325C258.311 157.918 252.864 156.992 247.993 157.098C245.579 157.15 243.16 157.644 240.779 157.999C237.466 158.494 234.09 158.525 230.748 158.633C218.79 159.02 206.811 158.93 194.943 160.646C194.331 160.734 194.591 161.659 195.197 161.572Z" fill="#1F0E03"/>
<path d="M246.326 132.165C247.418 140.138 247.986 148.153 248.008 156.2C248.01 156.819 248.97 156.819 248.968 156.2C248.946 148.065 248.355 139.969 247.252 131.91C247.167 131.299 246.243 131.561 246.326 132.165Z" fill="#1F0E03"/>
<path d="M197.335 177.064C200.805 177.022 204.021 178.561 207.314 179.454C211.226 180.515 215.057 181.845 218.967 182.917C226.869 185.084 235.087 186.459 243.268 186.933C256.286 187.685 272.035 187.047 281.863 177.302C282.303 176.866 281.624 176.187 281.184 176.623C270.911 186.809 254.027 186.821 240.546 185.791C232.483 185.174 224.398 183.53 216.643 181.262C213.16 180.242 209.684 179.178 206.205 178.139C203.277 177.264 200.442 176.066 197.336 176.104C196.717 176.111 196.716 177.071 197.335 177.064Z" fill="#1F0E03"/>
<path d="M178.184 122.286C177.326 124.862 177.582 127.631 177.619 130.307C177.671 133.988 177.942 137.663 178.134 141.338C178.323 144.968 178.432 148.601 178.724 152.224C178.993 155.568 180.258 158.739 180.432 162.052C180.465 162.668 181.425 162.671 181.392 162.052C181.233 159.022 180.071 156.156 179.766 153.127C179.431 149.812 179.326 146.473 179.179 143.146C179.031 139.791 178.801 136.44 178.662 133.085C178.523 129.727 178.035 125.769 179.11 122.54C179.305 121.952 178.378 121.702 178.184 122.286Z" fill="#1F0E03"/>
<path d="M192.718 89.4397C191.212 94.7533 190.151 101.536 196.11 104.523C198.258 105.6 200.706 105.067 202.779 104.128C204.236 103.467 205.505 102.353 206.709 101.321C207.927 100.277 208.46 101.859 209.536 102.629C218.292 108.89 229.817 100.22 232.717 91.5824C232.913 90.9939 231.986 90.7434 231.79 91.3271C228.696 100.545 215.475 109.01 207.864 99.6099C207.693 99.3987 207.364 99.4496 207.185 99.6099C204.029 102.448 199.925 105.808 195.619 103.149C190.926 100.251 192.428 93.9776 193.643 89.6941C193.813 89.0979 192.887 88.8455 192.718 89.4397Z" fill="#1F0E03"/>
<path d="M162.353 181.015C165.378 180.477 167.803 178.585 170.348 176.989C173.857 174.788 177.799 173.523 181.605 171.954C182.169 171.721 181.923 170.791 181.35 171.027C178.208 172.324 174.99 173.419 171.954 174.96C168.653 176.635 165.837 179.425 162.097 180.09C161.489 180.197 161.748 181.122 162.353 181.015Z" fill="#1F0E03"/>
<path d="M155.484 180.966C163.128 177.738 170.17 173.201 178.018 170.443C178.598 170.238 178.348 169.311 177.763 169.516C169.835 172.303 162.72 176.876 154.999 180.138C154.431 180.378 154.92 181.204 155.484 180.966Z" fill="#1F0E03"/>
<path d="M153.784 178.7C156.803 176.868 160.248 176.015 163.351 174.367C166.425 172.735 169.481 171.062 172.66 169.64C173.225 169.388 172.736 168.561 172.175 168.812C168.996 170.232 165.937 171.902 162.867 173.539C159.763 175.193 156.322 176.037 153.299 177.872C152.771 178.192 153.253 179.022 153.784 178.7Z" fill="#1F0E03"/>
<path d="M203.572 107.77C203.895 109.474 206.306 109.415 207.086 108.098C207.519 107.367 207.049 106.505 206.38 106.125C205.562 105.659 204.325 105.739 203.764 106.55C203.412 107.061 204.244 107.54 204.593 107.034C205.015 106.422 206.781 107.061 206.161 107.747C205.689 108.268 204.649 108.309 204.499 107.515C204.383 106.907 203.457 107.165 203.572 107.77Z" fill="#1F0E03"/>
<path d="M202.298 114.874C202.053 116.572 204.022 117.05 205.164 116.105C205.747 115.623 206.052 114.693 205.56 114.038C205.05 113.355 204.058 113.466 203.341 113.692C202.753 113.877 203.004 114.805 203.596 114.619C203.954 114.505 204.422 114.371 204.77 114.577C205.068 114.753 204.669 115.288 204.51 115.405C204.16 115.661 203.121 115.85 203.225 115.129C203.312 114.524 202.387 114.262 202.298 114.874Z" fill="#1F0E03"/>
<path d="M201.715 124.062C201.8 125.988 204.641 125.22 204.926 123.765C205.272 121.989 202.177 121.016 201.874 122.944C201.779 123.549 202.704 123.809 202.8 123.199C202.916 122.458 203.976 122.966 203.989 123.542C203.999 123.996 202.699 124.612 202.675 124.063C202.649 123.446 201.689 123.444 201.715 124.062Z" fill="#1F0E03"/>
<path d="M183.029 176.584C182.886 178 183.087 179.636 183.613 180.96C183.838 181.529 184.768 181.281 184.539 180.705C184.037 179.443 183.852 177.934 183.989 176.584C184.053 175.968 183.092 175.975 183.029 176.584Z" fill="#1F0E03"/>
<path d="M195.017 161.71C196.808 162.97 196.951 165.466 197.457 167.41C198.128 169.982 198.626 173.173 197.488 175.684C197.233 176.243 198.062 176.732 198.316 176.168C199.601 173.334 199.065 170.087 198.382 167.154C197.852 164.88 197.538 162.314 195.5 160.882C194.994 160.525 194.515 161.358 195.017 161.71Z" fill="#1F0E03"/>
<path d="M171.862 53.1056C170.354 64.3021 186.894 64.3386 194.034 63.9988C194.651 63.97 194.654 63.01 194.034 63.0388C187.732 63.3392 171.402 63.6416 172.788 53.361C172.869 52.7562 171.944 52.4951 171.862 53.1056Z" fill="#1F0E03"/>
<path d="M199.602 63.3785C199.602 64.9673 198.017 66.2566 196.061 66.2566C194.107 66.2566 192.523 64.9673 192.523 63.3785C192.523 61.7888 194.106 60.4976 196.061 60.4976C198.017 60.4985 199.602 61.7888 199.602 63.3785Z" fill="#FF6477"/>
<path d="M197.243 2.45702C185.482 2.7527 178.945 9.12326 175.652 15.8903C176.774 16.0141 177.986 16.3434 178.995 16.8205C181.432 12.5985 186.055 7.9559 194.694 7.28966C217.628 6.27398 227.301 24.2519 227.727 33.6733C227.727 33.6733 230.132 36.1386 231.975 33.0945C231.546 20.0471 220.458 1.87718 197.243 2.45702Z" fill="#FF6477"/>
<path d="M239.429 47.5703C239.429 52.6784 235.286 56.8208 230.18 56.8208C225.069 56.8208 220.93 52.6784 220.93 47.5703V41.1517C220.93 36.0445 225.069 31.9031 230.18 31.9031C235.286 31.9031 239.429 36.0445 239.429 41.1517V47.5703Z" fill="#FF6477"/>
<path d="M237.251 46.5824C236.915 52.8262 228.536 54.2557 226.236 48.3939C225.549 46.6448 225.94 44.1661 225.94 42.3248C225.94 35.936 234.725 34.833 236.955 40.5142C237.642 42.2624 237.251 44.7411 237.251 46.5824C237.251 47.2016 238.211 47.2016 238.211 46.5824C238.211 42.7299 238.588 39.0138 234.934 36.6147C230.509 33.7079 225.235 37.6093 224.981 42.3248C224.777 46.1139 224.746 49.9875 228.257 52.2944C232.683 55.2013 237.957 51.2979 238.211 46.5824C238.245 45.9632 237.284 45.967 237.251 46.5824Z" fill="#1F0E03"/>
<path d="M129.005 180.928C134.291 180.928 199.411 180.928 202.81 180.928C206.208 180.928 206.963 187.724 201.3 187.724C195.638 187.724 31.9843 187.724 31.9843 187.724C26.8867 177.53 4.04735 115.239 1.78271 109.388C-0.481928 103.536 1.59456 96.7405 10.8432 96.7405C20.0918 96.7405 68.9798 96.7405 75.7757 96.7405C82.5706 96.7405 90.121 97.8704 94.8394 108.254C99.5597 118.637 129.005 180.928 129.005 180.928Z" fill="#5F7E91"/>
<path d="M203.043 187.454C203.266 187.376 203.465 187.281 203.653 187.181C203.673 187.173 203.69 187.166 203.705 187.156C206.604 185.533 205.609 180.929 202.81 180.929C202.257 180.929 200.066 180.929 196.768 180.929C179.806 180.929 133.431 180.929 129.005 180.929C129.005 180.929 128.982 180.878 128.947 180.804C128.914 180.734 128.868 180.638 128.804 180.503C128.542 179.949 128.03 178.864 127.307 177.333C120.973 163.931 98.8733 117.129 94.8403 108.256C90.1219 97.8724 82.5705 96.7424 75.7766 96.7424C74.7043 96.7424 72.5808 96.7424 69.7344 96.7424C76.5302 96.7424 84.0806 97.8724 88.8 108.256C93.5184 118.638 122.964 180.929 122.964 180.929L125.513 187.54C125.513 187.54 128.695 187.616 133.774 187.725C160.212 187.725 184.322 187.725 195.259 187.725C198.606 187.725 200.739 187.725 201.299 187.725C201.639 187.725 201.952 187.697 202.246 187.651C202.433 187.622 202.601 187.57 202.77 187.522C202.859 187.497 202.958 187.482 203.043 187.454Z" fill="#49687A"/>
<path d="M67.6577 143.178C69.5211 147.786 67.3131 151.52 62.7262 151.52C58.1393 151.52 52.9093 147.786 51.0478 143.178C49.1854 138.568 51.3925 134.831 55.9793 134.831C60.5662 134.831 65.7953 138.569 67.6577 143.178Z" stroke="#1F0E03" stroke-miterlimit="10"/>
<path d="M289.4 192.993H23.1406V235.2C52.3697 241.423 91.7643 245.92 130.56 246.41C183.669 247.081 238.738 246.478 289.4 244.015V192.993Z" fill="#F5CDB3"/>
<path d="M300.448 191.941C300.448 194.458 298.405 196.502 295.886 196.502H16.6498C14.1318 196.502 12.0898 194.458 12.0898 191.941C12.0898 189.422 14.1318 187.379 16.6498 187.379H295.886C298.405 187.379 300.448 189.422 300.448 191.941Z" fill="#C97440"/>
</svg>
