<svg width="9" height="19" viewBox="0 0 9 19" fill="none" xmlns="http://www.w3.org/2000/svg">
<path d="M7.50648 12.7446H1.21094V18.3913H7.50648V12.7446Z" fill="#692C33"/>
<path d="M8.26998 11.8604H0.445312V13.0967H8.26998V11.8604Z" fill="#692C33"/>
<path d="M7.15284 10.5667H1.5625V12.476H7.15284V10.5667Z" fill="#692C33"/>
<path d="M6.50555 9.50879H2.21094V10.9172H6.50555V9.50879Z" fill="#692C33"/>
<path fill-rule="evenodd" clip-rule="evenodd" d="M5.91465 7.74195L5.56155 6.97738L6.0907 3.85678L4.94386 3.15358L5.50219 2.74112L4.82616 2.32868L4.94386 1.44641C4.94386 1.44641 4.96901 0.856888 4.35636 0.908194C3.74169 0.856888 3.76785 1.44641 3.76785 1.44641L3.88555 2.32868L3.20852 2.74112L3.76785 3.15358L2.62101 3.85678L3.15016 6.97738L2.79706 7.74195L2.08984 9.5085H2.32525H4.26783H4.44388H6.38546H6.62187L5.91465 7.74195Z" fill="#692C33"/>
</svg>
