<svg width="22" height="22" viewBox="0 0 22 22" fill="none" xmlns="http://www.w3.org/2000/svg">
<path fill-rule="evenodd" clip-rule="evenodd" d="M13.182 11.3057C13.0555 10.9482 12.8214 10.6387 12.5118 10.4198C12.2022 10.2009 11.8323 10.0833 11.4531 10.0833V9.625H10.5365V10.0833C10.0502 10.0833 9.58391 10.2765 9.2401 10.6203C8.89628 10.9641 8.70312 11.4304 8.70312 11.9167C8.70312 12.4029 8.89628 12.8692 9.2401 13.213C9.58391 13.5568 10.0502 13.75 10.5365 13.75V15.5833C10.1377 15.5833 9.79808 15.329 9.67158 14.9724C9.65282 14.914 9.62254 14.8601 9.58254 14.8136C9.54255 14.7672 9.49365 14.7292 9.43873 14.702C9.38382 14.6748 9.32401 14.6589 9.26283 14.6552C9.20166 14.6516 9.14037 14.6602 9.08259 14.6806C9.0248 14.701 8.9717 14.7328 8.92642 14.7741C8.88114 14.8154 8.8446 14.8653 8.81897 14.921C8.79333 14.9767 8.77912 15.0369 8.77717 15.0982C8.77522 15.1594 8.78558 15.2204 8.80763 15.2776C8.93405 15.6351 9.16819 15.9446 9.4778 16.1635C9.78741 16.3824 10.1573 16.5 10.5365 16.5V16.9583H11.4531V16.5C11.9394 16.5 12.4057 16.3068 12.7495 15.963C13.0933 15.6192 13.2865 15.1529 13.2865 14.6667C13.2865 14.1804 13.0933 13.7141 12.7495 13.3703C12.4057 13.0265 11.9394 12.8333 11.4531 12.8333V11C11.6427 11 11.8276 11.0587 11.9824 11.1681C12.1372 11.2775 12.2543 11.4322 12.3175 11.611C12.358 11.7256 12.4424 11.8194 12.5521 11.8719C12.6064 11.8978 12.6653 11.9128 12.7254 11.916C12.7855 11.9193 12.8456 11.9106 12.9024 11.8905C12.9591 11.8705 13.0114 11.8395 13.0562 11.7992C13.1009 11.759 13.1373 11.7103 13.1633 11.656C13.1893 11.6017 13.2043 11.5428 13.2075 11.4827C13.2107 11.4226 13.202 11.3625 13.182 11.3057ZM10.5365 11C10.2933 11 10.0602 11.0966 9.88828 11.2685C9.71637 11.4404 9.61979 11.6736 9.61979 11.9167C9.61979 12.1598 9.71637 12.3929 9.88828 12.5648C10.0602 12.7368 10.2933 12.8333 10.5365 12.8333V11ZM11.4531 15.5833C11.6962 15.5833 11.9294 15.4868 12.1013 15.3148C12.2732 15.1429 12.3698 14.9098 12.3698 14.6667C12.3698 14.4236 12.2732 14.1904 12.1013 14.0185C11.9294 13.8466 11.6962 13.75 11.4531 13.75V15.5833Z" fill="#111111"/>
<path fill-rule="evenodd" clip-rule="evenodd" d="M6.02519 3.95129C7.14994 3.40083 8.99519 2.75 11.0146 2.75C12.9919 2.75 14.7885 3.37379 15.9073 3.91692L15.9706 3.94762C16.3079 4.11446 16.5801 4.27213 16.7717 4.4L15.0786 6.875C18.9818 10.8652 21.9967 19.2486 11.0146 19.2486C0.0324862 19.2486 2.96628 11.0174 6.90336 6.875L5.22128 4.4C5.35099 4.31521 5.51553 4.21667 5.71169 4.11217C5.80886 4.05992 5.91336 4.00583 6.02519 3.95129ZM13.9906 6.84246L15.3459 4.86108C14.0854 4.95183 12.5858 5.24792 11.142 5.66592C10.1108 5.96383 8.96494 5.91846 7.9039 5.72275C7.63652 5.67318 7.37098 5.61417 7.10778 5.54583L7.98778 6.84154C9.87382 7.513 12.1041 7.513 13.9906 6.84246ZM7.4584 7.62208C9.66528 8.47458 12.3177 8.47458 14.5245 7.62117C15.4457 8.59223 16.2163 9.69576 16.8107 10.895C17.4304 12.1591 17.7677 13.4227 17.7127 14.5118C17.6595 15.5627 17.2461 16.4606 16.3019 17.1279C15.3179 17.8232 13.6629 18.332 11.0142 18.332C8.36269 18.332 6.69986 17.8319 5.70665 17.1444C4.75561 16.4858 4.33807 15.5998 4.27894 14.5631C4.21707 13.486 4.54707 12.2288 5.16444 10.956C5.7534 9.74233 6.57519 8.57404 7.4584 7.62208ZM6.93132 4.54483C7.29799 4.65392 7.68115 4.74879 8.06982 4.82075C9.05523 5.00225 10.0434 5.02883 10.8867 4.78454C11.8695 4.49824 12.8691 4.27307 13.8797 4.11033C13.0363 3.85642 12.05 3.66667 11.0142 3.66667C9.43519 3.66667 7.96257 4.10713 6.93132 4.54483Z" fill="#111111"/>
</svg>
