<svg width="54" height="54" viewBox="0 0 54 54" fill="none" xmlns="http://www.w3.org/2000/svg">
<path fill-rule="evenodd" clip-rule="evenodd" d="M32.3685 27.7504C32.0582 26.8729 31.4835 26.1132 30.7235 25.5759C29.9636 25.0385 29.0557 24.75 28.125 24.75V23.625H25.875V24.75C24.6815 24.75 23.5369 25.2241 22.693 26.068C21.8491 26.9119 21.375 28.0565 21.375 29.25C21.375 30.4435 21.8491 31.5881 22.693 32.432C23.5369 33.2759 24.6815 33.75 25.875 33.75V38.25C24.8962 38.25 24.0626 37.6256 23.7521 36.7504C23.7061 36.6072 23.6317 36.4747 23.5336 36.3607C23.4354 36.2467 23.3154 36.1536 23.1806 36.0868C23.0458 36.0201 22.899 35.981 22.7488 35.9719C22.5987 35.9629 22.4482 35.9841 22.3064 36.0342C22.1646 36.0843 22.0342 36.1623 21.9231 36.2637C21.8119 36.3651 21.7223 36.4877 21.6593 36.6243C21.5964 36.7609 21.5615 36.9088 21.5567 37.0591C21.552 37.2095 21.5774 37.3593 21.6315 37.4996C21.9418 38.3771 22.5165 39.1368 23.2765 39.6741C24.0364 40.2115 24.9443 40.5 25.875 40.5V41.625H28.125V40.5C29.3185 40.5 30.4631 40.0259 31.307 39.182C32.1509 38.3381 32.625 37.1935 32.625 36C32.625 34.8065 32.1509 33.6619 31.307 32.818C30.4631 31.9741 29.3185 31.5 28.125 31.5V27C28.5903 26.9999 29.0442 27.144 29.4242 27.4126C29.8042 27.6812 30.0916 28.0609 30.2467 28.4996C30.3461 28.781 30.5532 29.0114 30.8224 29.1401C30.9557 29.2038 31.1002 29.2406 31.2478 29.2485C31.3953 29.2563 31.5429 29.2351 31.6822 29.1859C31.8216 29.1367 31.9498 29.0605 32.0597 28.9618C32.1696 28.863 32.259 28.7436 32.3227 28.6103C32.3864 28.477 32.4232 28.3324 32.4311 28.1849C32.439 28.0373 32.4177 27.8897 32.3685 27.7504ZM25.875 27C25.2783 27 24.706 27.2371 24.284 27.659C23.8621 28.081 23.625 28.6533 23.625 29.25C23.625 29.8467 23.8621 30.419 24.284 30.841C24.706 31.2629 25.2783 31.5 25.875 31.5V27ZM28.125 38.25C28.7217 38.25 29.294 38.013 29.716 37.591C30.1379 37.169 30.375 36.5967 30.375 36C30.375 35.4033 30.1379 34.831 29.716 34.409C29.294 33.9871 28.7217 33.75 28.125 33.75V38.25Z" fill="#FF6477"/>
<path fill-rule="evenodd" clip-rule="evenodd" d="M14.7991 9.69863C17.5598 8.3475 22.0891 6.75 27.0458 6.75C31.8991 6.75 36.3091 8.28112 39.0552 9.61425L39.2104 9.68963C40.0384 10.0991 40.7067 10.4861 41.1769 10.8L37.0212 16.875C46.6017 26.6693 54.0019 47.2466 27.0458 47.2466C0.0896797 47.2466 7.29081 27.0428 16.9546 16.875L12.8258 10.8C13.1442 10.5919 13.5481 10.35 14.0296 10.0935C14.2681 9.96525 14.5246 9.8325 14.7991 9.69863ZM34.3504 16.7951L37.6771 11.9318C34.5833 12.1545 30.9023 12.8813 27.3586 13.9073C24.8273 14.6385 22.0148 14.5271 19.4104 14.0468C18.7541 13.9251 18.1024 13.7802 17.4563 13.6125L19.6163 16.7929C24.2457 18.441 29.7199 18.441 34.3504 16.7951ZM18.3169 18.7088C23.7338 20.8013 30.2442 20.8013 35.6611 18.7065C37.9222 21.09 39.8136 23.7987 41.2726 26.7424C42.7936 29.8451 43.6216 32.9468 43.4866 35.6198C43.3561 38.1994 42.3413 40.4033 40.0238 42.0413C37.6084 43.7479 33.5461 44.9966 27.0447 44.9966C20.5366 44.9966 16.4551 43.7693 14.0172 42.0818C11.6828 40.4651 10.6579 38.2905 10.5128 35.7458C10.3609 33.102 11.1709 30.0161 12.6863 26.892C14.1319 23.913 16.1491 21.0454 18.3169 18.7088ZM17.0232 11.1555C17.9232 11.4233 18.8637 11.6561 19.8177 11.8328C22.2364 12.2783 24.6619 12.3435 26.7319 11.7439C29.1442 11.0411 31.5976 10.4885 34.0782 10.089C32.0082 9.46575 29.5872 9 27.0447 9C23.1691 9 19.5544 10.0811 17.0232 11.1555Z" fill="#FF6477"/>
</svg>
