<svg width="32" height="32" viewBox="0 0 32 32" fill="none" xmlns="http://www.w3.org/2000/svg">
<path fill-rule="evenodd" clip-rule="evenodd" d="M19.1826 16.4447C18.9987 15.9247 18.6582 15.4745 18.2078 15.1561C17.7575 14.8377 17.2195 14.6667 16.668 14.6667V14H15.3346V14.6667C14.6274 14.6667 13.9491 14.9476 13.449 15.4477C12.9489 15.9478 12.668 16.6261 12.668 17.3333C12.668 18.0406 12.9489 18.7189 13.449 19.219C13.9491 19.719 14.6274 20 15.3346 20V22.6667C14.7546 22.6667 14.2606 22.2967 14.0766 21.778C14.0493 21.6931 14.0053 21.6146 13.9471 21.5471C13.8889 21.4795 13.8178 21.4244 13.7379 21.3848C13.6581 21.3452 13.5711 21.3221 13.4821 21.3167C13.3931 21.3113 13.304 21.3239 13.2199 21.3536C13.1359 21.3833 13.0586 21.4295 12.9928 21.4896C12.9269 21.5497 12.8738 21.6223 12.8365 21.7033C12.7992 21.7843 12.7785 21.8719 12.7757 21.961C12.7728 22.0501 12.7879 22.1388 12.82 22.222C13.0039 22.742 13.3444 23.1922 13.7948 23.5106C14.2451 23.829 14.7831 24 15.3346 24V24.6667H16.668V24C17.3752 24 18.0535 23.719 18.5536 23.2189C19.0537 22.7189 19.3346 22.0406 19.3346 21.3333C19.3346 20.6261 19.0537 19.9478 18.5536 19.4477C18.0535 18.9476 17.3752 18.6667 16.668 18.6667V16C16.9437 15.9999 17.2127 16.0854 17.4379 16.2445C17.663 16.4037 17.8333 16.6287 17.9253 16.8887C17.9842 17.0554 18.1069 17.1919 18.2664 17.2682C18.3454 17.3059 18.4311 17.3278 18.5185 17.3324C18.6059 17.3371 18.6934 17.3245 18.776 17.2953C18.8585 17.2662 18.9345 17.221 18.9997 17.1625C19.0648 17.104 19.1177 17.0332 19.1555 16.9542C19.1932 16.8752 19.2151 16.7896 19.2197 16.7021C19.2244 16.6147 19.2118 16.5272 19.1826 16.4447ZM15.3346 16C14.981 16 14.6419 16.1405 14.3918 16.3905C14.1418 16.6406 14.0013 16.9797 14.0013 17.3333C14.0013 17.687 14.1418 18.0261 14.3918 18.2761C14.6419 18.5262 14.981 18.6667 15.3346 18.6667V16ZM16.668 22.6667C17.0216 22.6667 17.3607 22.5262 17.6108 22.2761C17.8608 22.0261 18.0013 21.687 18.0013 21.3333C18.0013 20.9797 17.8608 20.6406 17.6108 20.3905C17.3607 20.1405 17.0216 20 16.668 20V22.6667Z" fill="#111111"/>
<path fill-rule="evenodd" clip-rule="evenodd" d="M8.76995 5.74733C10.406 4.94667 13.09 4 16.0273 4C18.9033 4 21.5166 4.90733 23.144 5.69733L23.236 5.742C23.7266 5.98467 24.1226 6.214 24.4013 6.4L21.9386 10C27.6159 15.804 32.0013 27.998 16.0273 27.998C0.0532899 27.998 4.32062 16.0253 10.0473 10L7.60062 6.4C7.78929 6.27667 8.02862 6.13333 8.31395 5.98133C8.45529 5.90533 8.60729 5.82667 8.76995 5.74733ZM20.356 9.95267L22.3273 7.07067C20.494 7.20267 18.3126 7.63333 16.2126 8.24133C14.7126 8.67467 13.046 8.60867 11.5026 8.324C11.1137 8.2519 10.7275 8.16607 10.3446 8.06667L11.6246 9.95133C14.368 10.928 17.612 10.928 20.356 9.95267ZM10.8546 11.0867C14.0646 12.3267 17.9226 12.3267 21.1326 11.0853C22.4725 12.4978 23.5934 14.1029 24.458 15.8473C25.3593 17.686 25.85 19.524 25.77 21.108C25.6926 22.6367 25.0913 23.9427 23.718 24.9133C22.2866 25.9247 19.8793 26.6647 16.0266 26.6647C12.17 26.6647 9.75129 25.9373 8.30662 24.9373C6.92329 23.9793 6.31596 22.6907 6.22996 21.1827C6.13996 19.616 6.61996 17.7873 7.51795 15.936C8.37462 14.1707 9.56995 12.4713 10.8546 11.0867ZM10.088 6.61067C10.6213 6.76933 11.1786 6.90733 11.744 7.012C13.1773 7.276 14.6146 7.31467 15.8413 6.95933C17.2708 6.5429 18.7247 6.21538 20.1946 5.97867C18.968 5.60933 17.5333 5.33333 16.0266 5.33333C13.73 5.33333 11.588 5.974 10.088 6.61067Z" fill="#111111"/>
</svg>
