<svg width="52" height="52" viewBox="0 0 52 52" fill="none" xmlns="http://www.w3.org/2000/svg">
<path fill-rule="evenodd" clip-rule="evenodd" d="M42.25 14.0833C41.388 14.0833 40.5614 14.4257 39.9519 15.0352C39.3424 15.6447 39 16.4714 39 17.3333V19.5H45.5V17.3333C45.5 16.4714 45.1576 15.6447 44.5481 15.0352C43.9386 14.4257 43.112 14.0833 42.25 14.0833ZM45.5 21.6667H39V39.5417L42.25 44.4167L45.5 39.5417V21.6667ZM6.5 9.75V42.25C6.5 43.112 6.84241 43.9386 7.4519 44.5481C8.0614 45.1576 8.88805 45.5 9.75 45.5H33.5833C34.4453 45.5 35.2719 45.1576 35.8814 44.5481C36.4909 43.9386 36.8333 43.112 36.8333 42.25V9.75C36.8333 8.88805 36.4909 8.0614 35.8814 7.4519C35.2719 6.84241 34.4453 6.5 33.5833 6.5H9.75C8.88805 6.5 8.0614 6.84241 7.4519 7.4519C6.84241 8.0614 6.5 8.88805 6.5 9.75ZM21.6667 16.25C21.6667 15.9627 21.7808 15.6871 21.984 15.484C22.1871 15.2808 22.4627 15.1667 22.75 15.1667H31.4167C31.704 15.1667 31.9795 15.2808 32.1827 15.484C32.3859 15.6871 32.5 15.9627 32.5 16.25C32.5 16.5373 32.3859 16.8129 32.1827 17.016C31.9795 17.2192 31.704 17.3333 31.4167 17.3333H22.75C22.4627 17.3333 22.1871 17.2192 21.984 17.016C21.7808 16.8129 21.6667 16.5373 21.6667 16.25ZM22.75 19.5C22.4627 19.5 22.1871 19.6141 21.984 19.8173C21.7808 20.0205 21.6667 20.296 21.6667 20.5833C21.6667 20.8707 21.7808 21.1462 21.984 21.3494C22.1871 21.5525 22.4627 21.6667 22.75 21.6667H31.4167C31.704 21.6667 31.9795 21.5525 32.1827 21.3494C32.3859 21.1462 32.5 20.8707 32.5 20.5833C32.5 20.296 32.3859 20.0205 32.1827 19.8173C31.9795 19.6141 31.704 19.5 31.4167 19.5H22.75ZM21.6667 30.3333C21.6667 30.046 21.7808 29.7705 21.984 29.5673C22.1871 29.3641 22.4627 29.25 22.75 29.25H31.4167C31.704 29.25 31.9795 29.3641 32.1827 29.5673C32.3859 29.7705 32.5 30.046 32.5 30.3333C32.5 30.6207 32.3859 30.8962 32.1827 31.0994C31.9795 31.3025 31.704 31.4167 31.4167 31.4167H22.75C22.4627 31.4167 22.1871 31.3025 21.984 31.0994C21.7808 30.8962 21.6667 30.6207 21.6667 30.3333ZM22.75 33.5833C22.4627 33.5833 22.1871 33.6975 21.984 33.9006C21.7808 34.1038 21.6667 34.3794 21.6667 34.6667C21.6667 34.954 21.7808 35.2295 21.984 35.4327C22.1871 35.6359 22.4627 35.75 22.75 35.75H31.4167C31.704 35.75 31.9795 35.6359 32.1827 35.4327C32.3859 35.2295 32.5 34.954 32.5 34.6667C32.5 34.3794 32.3859 34.1038 32.1827 33.9006C31.9795 33.6975 31.704 33.5833 31.4167 33.5833H22.75ZM13 30.3333V33.5833H16.25V30.3333H13ZM11.9167 28.1667H17.3333C17.6207 28.1667 17.8962 28.2808 18.0994 28.484C18.3025 28.6871 18.4167 28.9627 18.4167 29.25V34.6667C18.4167 34.954 18.3025 35.2295 18.0994 35.4327C17.8962 35.6359 17.6207 35.75 17.3333 35.75H11.9167C11.6293 35.75 11.3538 35.6359 11.1506 35.4327C10.9475 35.2295 10.8333 34.954 10.8333 34.6667V29.25C10.8333 28.9627 10.9475 28.6871 11.1506 28.484C11.3538 28.2808 11.6293 28.1667 11.9167 28.1667ZM19.1826 17.0159C19.3799 16.8116 19.4891 16.5379 19.4866 16.2539C19.4842 15.9699 19.3702 15.6981 19.1694 15.4973C18.9685 15.2964 18.6968 15.1825 18.4128 15.18C18.1287 15.1776 17.8551 15.2867 17.6507 15.4841L14.0833 19.0515L12.6826 17.6507C12.4783 17.4534 12.2046 17.3442 11.9206 17.3467C11.6365 17.3492 11.3648 17.4631 11.1639 17.6639C10.9631 17.8648 10.8492 18.1365 10.8467 18.4206C10.8442 18.7046 10.9534 18.9783 11.1508 19.1826L14.0833 22.1152L19.1826 17.0159Z" fill="white"/>
</svg>
