<svg width="24" height="25" viewBox="0 0 24 25" fill="none" xmlns="http://www.w3.org/2000/svg">
<path d="M4.26056 10.6462C3.98551 12.7518 3.82162 14.8704 3.76956 16.9932C6.64837 18.1957 9.40474 19.6725 12.0006 21.4032C14.5967 19.6725 17.3534 18.1956 20.2326 16.9932C20.1805 14.8704 20.0166 12.7518 19.7416 10.6462M19.7416 10.6462C20.6201 10.3509 21.5064 10.0795 22.3996 9.83219C19.1361 7.54444 15.6525 5.58808 12.0006 3.99219C8.34856 5.58841 4.86496 7.54511 1.60156 9.83319C2.49483 10.0798 3.38117 10.3509 4.25956 10.6462C6.92818 11.5434 9.51746 12.6613 12.0006 13.9882C14.4833 12.6612 17.0733 11.5434 19.7416 10.6462ZM6.75056 15.4992C6.94948 15.4992 7.14024 15.4202 7.28089 15.2795C7.42155 15.1389 7.50056 14.9481 7.50056 14.7492C7.50056 14.5503 7.42155 14.3595 7.28089 14.2189C7.14024 14.0782 6.94948 13.9992 6.75056 13.9992C6.55165 13.9992 6.36088 14.0782 6.22023 14.2189C6.07958 14.3595 6.00056 14.5503 6.00056 14.7492C6.00056 14.9481 6.07958 15.1389 6.22023 15.2795C6.36088 15.4202 6.55165 15.4992 6.75056 15.4992ZM6.75056 15.4992V11.8242C8.4473 10.7695 10.1999 9.80745 12.0006 8.94219M4.99356 20.4922C5.55153 19.9356 5.994 19.2742 6.29553 18.546C6.59705 17.8179 6.75169 17.0373 6.75056 16.2492V14.7492" stroke="#575656" stroke-linecap="round" stroke-linejoin="round"/>
</svg>
