<svg width="148" height="61" viewBox="0 0 148 61" fill="none" xmlns="http://www.w3.org/2000/svg">
<g clip-path="url(#clip0_198_55479)">
<g clip-path="url(#clip1_198_55479)">
<path d="M73.6056 10.0873V19.5532H76.1592V10.0873H79.6398V7.94043H70.125V10.0873H73.6056Z" fill="black"/>
<path d="M83.1065 9.84337V7.94043H80.7969V9.84337H83.1065ZM80.7969 11.1445V19.5532H83.1065V11.1445H80.7969Z" fill="black"/>
<path d="M84.9922 11.1437V19.5524H87.3016V14.6731C87.3016 14.2611 87.3613 13.9303 87.4807 13.681C87.5999 13.4207 87.7408 13.2256 87.9034 13.0954C88.077 12.9545 88.2504 12.8623 88.424 12.8189C88.6082 12.7647 88.7546 12.7376 88.863 12.7376C89.2317 12.7376 89.5083 12.8027 89.6926 12.9328C89.8878 13.0521 90.0232 13.2147 90.0992 13.4207C90.1859 13.6267 90.2348 13.8544 90.2455 14.1038C90.2563 14.3424 90.2618 14.5864 90.2618 14.8357V19.5524H92.5714V14.8683C92.5714 14.608 92.5876 14.3532 92.6201 14.1038C92.6636 13.8436 92.7395 13.6159 92.8479 13.4207C92.9671 13.2147 93.1243 13.0521 93.3196 12.9328C93.5255 12.8027 93.7913 12.7376 94.1166 12.7376C94.4418 12.7376 94.6966 12.7918 94.8808 12.9003C95.0761 13.0087 95.2225 13.1551 95.32 13.3394C95.4177 13.5237 95.4773 13.7406 95.4989 13.99C95.5206 14.2394 95.5316 14.505 95.5316 14.7869V19.5524H97.841V13.9249C97.841 13.3828 97.7651 12.9219 97.6134 12.5425C97.4615 12.1521 97.2501 11.8377 96.9791 11.5991C96.708 11.3606 96.3827 11.1871 96.0032 11.0787C95.6236 10.9702 95.2116 10.916 94.7671 10.916C94.1815 10.916 93.6719 11.057 93.2382 11.3389C92.8153 11.6208 92.4792 11.9461 92.2299 12.3147C92.0021 11.7943 91.666 11.4311 91.2214 11.225C90.7877 11.019 90.3052 10.916 89.7739 10.916C89.221 10.916 88.7276 11.0353 88.2939 11.2738C87.8709 11.5124 87.5077 11.8485 87.2041 12.2822H87.1717V11.1437H84.9922Z" fill="black"/>
<path d="M105.325 14.4454H101.567C101.578 14.2827 101.611 14.0984 101.665 13.8924C101.73 13.6864 101.833 13.4912 101.974 13.3069C102.126 13.1226 102.321 12.9707 102.559 12.8515C102.809 12.7214 103.118 12.6563 103.487 12.6563C104.05 12.6563 104.468 12.8081 104.739 13.1117C105.021 13.4153 105.216 13.8599 105.325 14.4454ZM101.567 15.9092H107.634C107.677 15.2586 107.623 14.6351 107.471 14.0388C107.32 13.4424 107.07 12.9111 106.723 12.4449C106.387 11.9786 105.953 11.61 105.422 11.3389C104.891 11.057 104.267 10.916 103.552 10.916C102.912 10.916 102.326 11.0299 101.795 11.2576C101.275 11.4853 100.825 11.7997 100.445 12.2009C100.066 12.5912 99.7729 13.0575 99.5668 13.5996C99.3609 14.1418 99.2578 14.7273 99.2578 15.3562C99.2578 16.0068 99.3555 16.6031 99.5506 17.1454C99.7567 17.6875 100.044 18.1537 100.413 18.544C100.781 18.9344 101.231 19.2379 101.763 19.4548C102.294 19.6609 102.89 19.7638 103.552 19.7638C104.506 19.7638 105.319 19.547 105.991 19.1133C106.664 18.6796 107.162 17.9585 107.488 16.9501H105.455C105.379 17.2103 105.173 17.4597 104.837 17.6983C104.5 17.9259 104.099 18.0398 103.633 18.0398C102.982 18.0398 102.484 17.8717 102.137 17.5356C101.79 17.1996 101.6 16.6573 101.567 15.9092Z" fill="black"/>
<path d="M110.793 16.82H108.598C108.619 17.3838 108.744 17.8554 108.972 18.2349C109.21 18.6036 109.508 18.9019 109.866 19.1295C110.235 19.3573 110.652 19.5199 111.119 19.6174C111.585 19.7151 112.062 19.7638 112.55 19.7638C113.027 19.7638 113.493 19.7151 113.949 19.6174C114.415 19.5307 114.827 19.3736 115.185 19.1458C115.543 18.9181 115.83 18.6199 116.047 18.2513C116.274 17.8717 116.388 17.4055 116.388 16.8526C116.388 16.4622 116.312 16.1369 116.161 15.8767C116.009 15.6056 115.808 15.3833 115.559 15.2098C115.309 15.0255 115.022 14.8791 114.697 14.7707C114.382 14.6622 114.057 14.5701 113.721 14.4942C113.396 14.4183 113.076 14.3478 112.761 14.2827C112.447 14.2177 112.165 14.1472 111.916 14.0713C111.677 13.9846 111.482 13.8761 111.33 13.746C111.178 13.6159 111.102 13.4478 111.102 13.2418C111.102 13.0683 111.146 12.9328 111.232 12.8352C111.319 12.7268 111.422 12.6455 111.541 12.5912C111.672 12.537 111.812 12.5045 111.964 12.4937C112.116 12.472 112.257 12.4611 112.387 12.4611C112.799 12.4611 113.157 12.5425 113.461 12.7051C113.764 12.8569 113.932 13.1551 113.965 13.5996H116.161C116.117 13.0792 115.982 12.6509 115.754 12.3147C115.537 11.9678 115.261 11.6913 114.924 11.4853C114.588 11.2792 114.203 11.1329 113.77 11.0461C113.347 10.9594 112.908 10.916 112.452 10.916C111.997 10.916 111.552 10.9594 111.119 11.0461C110.685 11.122 110.295 11.263 109.948 11.469C109.601 11.6642 109.319 11.9352 109.102 12.2822C108.896 12.6292 108.793 13.0738 108.793 13.6159C108.793 13.9846 108.869 14.299 109.02 14.5592C109.172 14.8086 109.373 15.0201 109.622 15.1936C109.872 15.3562 110.154 15.4917 110.468 15.6002C110.793 15.6978 111.124 15.7845 111.46 15.8604C112.284 16.0339 112.924 16.2074 113.379 16.3809C113.846 16.5543 114.079 16.8146 114.079 17.1616C114.079 17.3675 114.03 17.5411 113.932 17.682C113.835 17.8122 113.71 17.9206 113.558 18.0073C113.417 18.0832 113.255 18.1429 113.07 18.1862C112.897 18.2187 112.729 18.2349 112.566 18.2349C112.338 18.2349 112.116 18.2079 111.899 18.1537C111.693 18.0995 111.509 18.0181 111.346 17.9096C111.184 17.7904 111.048 17.644 110.94 17.4706C110.842 17.2863 110.793 17.0694 110.793 16.82Z" fill="black"/>
<path d="M70.1094 24.2051V35.8179H72.6629V30.8085H77.3633V35.8179H79.9168V24.2051H77.3633V28.6615H72.6629V24.2051H70.1094Z" fill="black"/>
<path d="M84.294 26.108V24.2051H81.9844V26.108H84.294ZM81.9844 27.4091V35.8179H84.294V27.4091H81.9844Z" fill="black"/>
<path d="M90.0314 33.8347C89.6737 33.8347 89.3756 33.7588 89.137 33.6071C88.8984 33.4552 88.7033 33.2601 88.5514 33.0215C88.4105 32.783 88.3074 32.5174 88.2424 32.2246C88.1882 31.921 88.161 31.6173 88.161 31.3137C88.161 30.9994 88.1937 30.7012 88.2587 30.4193C88.3346 30.1265 88.4485 29.8717 88.6002 29.6549C88.7628 29.4271 88.9581 29.2482 89.1857 29.118C89.4243 28.9879 89.7062 28.9229 90.0314 28.9229C90.4109 28.9229 90.7254 28.9934 90.9748 29.1343C91.2243 29.2754 91.4249 29.465 91.5766 29.7036C91.7284 29.9422 91.8369 30.2187 91.9019 30.533C91.967 30.8368 91.9995 31.162 91.9995 31.5089C91.9995 31.8126 91.9561 32.1054 91.8694 32.3872C91.7934 32.6583 91.6742 32.9023 91.5116 33.1192C91.349 33.336 91.1429 33.5095 90.8935 33.6396C90.6442 33.7697 90.3567 33.8347 90.0314 33.8347ZM94.1952 35.2822V27.4102H91.9995V28.5326H91.967C91.685 28.0446 91.3327 27.6977 90.9098 27.4916C90.4978 27.2856 90.0152 27.1826 89.4623 27.1826C88.8767 27.1826 88.3563 27.2965 87.9009 27.5241C87.4562 27.7519 87.0822 28.061 86.7787 28.4512C86.4749 28.8307 86.2418 29.2754 86.0792 29.785C85.9275 30.2837 85.8516 30.8041 85.8516 31.3462C85.8516 31.921 85.9166 32.4686 86.0467 32.989C86.1876 33.4987 86.4045 33.9486 86.6973 34.3389C86.99 34.7184 87.3641 35.0221 87.8195 35.2497C88.2749 35.4666 88.817 35.575 89.446 35.575C89.9557 35.575 90.4381 35.4721 90.8935 35.266C91.3597 35.0491 91.7175 34.7184 91.967 34.2739H91.9995V35.3799C92.0103 35.9762 91.8639 36.4696 91.5603 36.8599C91.2676 37.2503 90.7959 37.4455 90.1453 37.4455C89.7333 37.4455 89.3701 37.3587 89.0556 37.1852C88.7411 37.0225 88.5297 36.7244 88.4213 36.2907H86.1281C86.1606 36.7677 86.2907 37.1744 86.5184 37.5104C86.7569 37.8574 87.0497 38.1394 87.3967 38.3563C87.7545 38.5731 88.1448 38.7303 88.5677 38.828C89.0014 38.9364 89.4243 38.9906 89.8363 38.9906C90.8014 38.9906 91.5711 38.8605 92.1459 38.6002C92.7205 38.34 93.1597 38.0201 93.4633 37.6406C93.7668 37.272 93.9621 36.8708 94.0488 36.4371C94.1463 36.0034 94.1952 35.6185 94.1952 35.2822Z" fill="black"/>
<path d="M96.0586 24.2051V35.8179H98.368V31.4103C98.368 30.5536 98.5091 29.941 98.791 29.5723C99.0728 29.1928 99.5282 29.0032 100.157 29.0032C100.71 29.0032 101.095 29.1766 101.312 29.5236C101.529 29.8596 101.637 30.3747 101.637 31.0687V35.8179H103.947V30.6458C103.947 30.1254 103.898 29.6537 103.8 29.2308C103.714 28.7971 103.556 28.4339 103.329 28.1411C103.101 27.8375 102.787 27.6044 102.385 27.4418C101.995 27.2682 101.491 27.1815 100.873 27.1815C100.439 27.1815 99.9946 27.2954 99.5392 27.523C99.0837 27.7399 98.7096 28.0923 98.4169 28.5802H98.368V24.2051H96.0586Z" fill="black"/>
<path d="M111.36 30.7119H107.603C107.613 30.5493 107.646 30.3651 107.7 30.159C107.765 29.953 107.868 29.7578 108.009 29.5735C108.161 29.3891 108.356 29.2374 108.595 29.118C108.844 28.9879 109.153 28.9229 109.522 28.9229C110.086 28.9229 110.503 29.0748 110.774 29.3783C111.056 29.6819 111.251 30.1265 111.36 30.7119ZM107.603 32.1758H113.669C113.713 31.5253 113.658 30.9018 113.506 30.3054C113.355 29.7091 113.105 29.1777 112.758 28.7115C112.422 28.2452 111.989 27.8766 111.457 27.6055C110.926 27.3235 110.302 27.1826 109.587 27.1826C108.947 27.1826 108.362 27.2965 107.83 27.5241C107.31 27.7519 106.86 28.0663 106.48 28.4675C106.101 28.8579 105.808 29.3241 105.602 29.8662C105.396 30.4084 105.293 30.9939 105.293 31.6228C105.293 32.2733 105.391 32.8697 105.586 33.4118C105.792 33.9541 106.079 34.4203 106.448 34.8106C106.816 35.201 107.267 35.5046 107.798 35.7214C108.329 35.9275 108.925 36.0304 109.587 36.0304C110.541 36.0304 111.354 35.8136 112.026 35.3799C112.699 34.9462 113.197 34.2252 113.523 33.2167H111.49C111.414 33.477 111.208 33.7263 110.872 33.9649C110.536 34.1925 110.134 34.3064 109.668 34.3064C109.018 34.3064 108.519 34.1383 108.172 33.8022C107.825 33.4662 107.635 32.9239 107.603 32.1758Z" fill="black"/>
<path d="M115.035 27.4102V35.8191H117.345V32.0295C117.345 31.65 117.383 31.2975 117.459 30.9722C117.534 30.6469 117.659 30.3651 117.833 30.1265C118.017 29.877 118.256 29.6819 118.548 29.541C118.841 29.4 119.199 29.3296 119.622 29.3296C119.763 29.3296 119.909 29.3404 120.061 29.3621C120.213 29.3729 120.343 29.3891 120.451 29.4108V27.264C120.267 27.2098 120.099 27.1826 119.947 27.1826C119.654 27.1826 119.372 27.2261 119.101 27.3128C118.83 27.3995 118.575 27.5241 118.337 27.6868C118.098 27.8386 117.887 28.0283 117.703 28.2561C117.518 28.473 117.372 28.7115 117.263 28.9716H117.231V27.4102H115.035Z" fill="black"/>
<path d="M70.1094 40.3438V51.9566H78.9247V49.8096H72.6629V46.9634H78.2904V44.979H72.6629V42.4907H78.7946V40.3438H70.1094Z" fill="black"/>
<path d="M86.3776 47.7278C86.3776 48.0748 86.3451 48.4109 86.28 48.7362C86.215 49.0614 86.1066 49.3542 85.9547 49.6145C85.803 49.8638 85.5969 50.0645 85.3366 50.2163C85.0873 50.368 84.7728 50.4439 84.3933 50.4439C84.0355 50.4439 83.7265 50.368 83.4664 50.2163C83.2169 50.0537 83.0055 49.8476 82.8321 49.5983C82.6693 49.338 82.55 49.0452 82.4741 48.7199C82.3982 48.3946 82.3604 48.0694 82.3604 47.7441C82.3604 47.3971 82.3929 47.0663 82.4579 46.752C82.5338 46.4267 82.6477 46.1392 82.7994 45.8899C82.962 45.6405 83.1736 45.4399 83.4337 45.2881C83.694 45.1364 84.0138 45.0604 84.3933 45.0604C84.7728 45.0604 85.0873 45.1364 85.3366 45.2881C85.5861 45.4399 85.7867 45.6405 85.9384 45.8899C86.1011 46.1285 86.215 46.4103 86.28 46.7356C86.3451 47.0501 86.3776 47.3808 86.3776 47.7278ZM86.4101 50.8831V51.9566H88.6058V40.3438H86.2962V44.5725H86.2637C86.0036 44.1604 85.6457 43.8515 85.1902 43.6454C84.7458 43.4286 84.2741 43.3202 83.7752 43.3202C83.1573 43.3202 82.615 43.4448 82.1488 43.6942C81.6826 43.9327 81.2922 44.2526 80.9779 44.6538C80.6743 45.055 80.441 45.5212 80.2784 46.0525C80.1267 46.5729 80.0508 47.1152 80.0508 47.6789C80.0508 48.2645 80.1267 48.8283 80.2784 49.3705C80.441 49.9126 80.6743 50.3952 80.9779 50.818C81.2922 51.2301 81.6881 51.5607 82.1651 51.8102C82.6422 52.0486 83.1951 52.168 83.8241 52.168C84.377 52.168 84.8704 52.0703 85.3041 51.8752C85.7488 51.6691 86.1066 51.3385 86.3776 50.8831H86.4101Z" fill="black"/>
<path d="M98.2437 51.9557V43.5469H95.9343V47.9545C95.9343 48.8112 95.7932 49.4292 95.5113 49.8087C95.2295 50.1774 94.7741 50.3616 94.1451 50.3616C93.5922 50.3616 93.2072 50.1937 92.9903 49.8575C92.7735 49.5105 92.6651 48.9901 92.6651 48.2961V43.5469H90.3555V48.719C90.3555 49.2394 90.3989 49.7165 90.4856 50.1503C90.5833 50.5732 90.7459 50.9364 90.9735 51.24C91.2013 51.5328 91.5103 51.7604 91.9006 51.923C92.3018 52.0857 92.8115 52.1671 93.4295 52.1671C93.9174 52.1671 94.3946 52.0586 94.8608 51.8418C95.327 51.6249 95.7065 51.2725 95.9993 50.7846H96.048V51.9557H98.2437Z" fill="black"/>
<path d="M105.716 46.5071H107.976C107.944 45.965 107.814 45.4988 107.586 45.1084C107.358 44.7072 107.06 44.3766 106.692 44.1163C106.334 43.8452 105.922 43.6446 105.456 43.5145C105 43.3843 104.523 43.3193 104.024 43.3193C103.341 43.3193 102.734 43.4332 102.203 43.6609C101.671 43.8885 101.221 44.2085 100.853 44.6204C100.484 45.0217 100.202 45.5041 100.007 46.068C99.8226 46.621 99.7305 47.2228 99.7305 47.8734C99.7305 48.5022 99.8334 49.0823 100.04 49.6137C100.246 50.1341 100.533 50.584 100.901 50.9635C101.27 51.343 101.715 51.6413 102.235 51.8581C102.766 52.0642 103.347 52.1672 103.975 52.1672C105.092 52.1672 106.009 51.8744 106.724 51.2888C107.44 50.7034 107.874 49.8522 108.025 48.7353H105.797C105.721 49.2557 105.531 49.6732 105.228 49.9877C104.935 50.2913 104.512 50.4431 103.959 50.4431C103.601 50.4431 103.298 50.3617 103.048 50.1991C102.799 50.0364 102.598 49.8305 102.447 49.5812C102.306 49.3209 102.203 49.0336 102.138 48.7191C102.073 48.4046 102.04 48.0956 102.04 47.792C102.04 47.4777 102.073 47.1632 102.138 46.8487C102.203 46.5234 102.311 46.2306 102.463 45.9705C102.625 45.6994 102.832 45.4825 103.081 45.3199C103.33 45.1463 103.639 45.0596 104.008 45.0596C104.995 45.0596 105.564 45.5421 105.716 46.5071Z" fill="black"/>
<path d="M109.237 46.1331C109.269 45.591 109.405 45.1409 109.643 44.7831C109.882 44.4253 110.186 44.138 110.554 43.9211C110.923 43.7043 111.335 43.5524 111.79 43.4657C112.257 43.3681 112.723 43.3193 113.189 43.3193C113.612 43.3193 114.04 43.3518 114.474 43.4168C114.908 43.471 115.303 43.5849 115.661 43.7585C116.019 43.9319 116.312 44.176 116.54 44.4903C116.767 44.794 116.881 45.2005 116.881 45.7102V50.0853C116.881 50.4648 116.903 50.8281 116.946 51.1751C116.989 51.5219 117.065 51.7822 117.174 51.9558H114.832C114.788 51.8256 114.75 51.6955 114.718 51.5653C114.696 51.4244 114.68 51.2835 114.669 51.1424C114.3 51.5221 113.867 51.7877 113.368 51.9394C112.869 52.0912 112.359 52.1672 111.839 52.1672C111.438 52.1672 111.064 52.1184 110.717 52.0208C110.37 51.9231 110.066 51.7714 109.806 51.5653C109.546 51.3593 109.34 51.0991 109.188 50.7846C109.047 50.4703 108.977 50.0961 108.977 49.6624C108.977 49.1853 109.058 48.795 109.22 48.4915C109.394 48.177 109.611 47.9276 109.871 47.7432C110.142 47.5589 110.446 47.4234 110.782 47.3366C111.129 47.2391 111.476 47.1632 111.823 47.1089C112.17 47.0547 112.511 47.0113 112.847 46.9788C113.184 46.9463 113.482 46.8976 113.742 46.8324C114.002 46.7674 114.208 46.6752 114.36 46.5559C114.512 46.4259 114.582 46.2415 114.571 46.003C114.571 45.7536 114.528 45.5583 114.441 45.4174C114.365 45.2657 114.257 45.1518 114.116 45.0759C113.986 44.9892 113.829 44.9349 113.644 44.9132C113.471 44.8807 113.281 44.8645 113.075 44.8645C112.62 44.8645 112.262 44.962 112.002 45.1571C111.741 45.3524 111.59 45.6777 111.546 46.1331H109.237ZM114.571 47.8407C114.474 47.9276 114.349 47.9981 114.197 48.0523C114.056 48.0956 113.899 48.1335 113.726 48.1662C113.563 48.1987 113.39 48.2257 113.205 48.2474C113.021 48.2691 112.837 48.2962 112.652 48.3288C112.479 48.3613 112.305 48.4046 112.132 48.4588C111.969 48.513 111.823 48.5889 111.693 48.6866C111.573 48.7733 111.476 48.8872 111.4 49.0281C111.324 49.169 111.286 49.3479 111.286 49.5648C111.286 49.7708 111.324 49.9443 111.4 50.0853C111.476 50.2263 111.579 50.3402 111.709 50.4269C111.839 50.5028 111.991 50.557 112.164 50.5895C112.338 50.622 112.517 50.6383 112.701 50.6383C113.156 50.6383 113.509 50.5623 113.758 50.4106C114.008 50.2588 114.192 50.0799 114.311 49.8738C114.431 49.657 114.501 49.4401 114.523 49.2232C114.555 49.0064 114.571 48.833 114.571 48.7028V47.8407Z" fill="black"/>
<path d="M121.603 43.5483V41.0273H119.293V43.5483H117.895V45.0935H119.293V50.0542C119.293 50.477 119.364 50.8185 119.505 51.0788C119.646 51.3391 119.835 51.5397 120.074 51.6806C120.323 51.8215 120.605 51.9137 120.92 51.9571C121.245 52.0114 121.587 52.0384 121.944 52.0384C122.172 52.0384 122.405 52.0329 122.644 52.0221C122.882 52.0114 123.099 51.9896 123.294 51.9571V50.168C123.186 50.1897 123.072 50.2059 122.953 50.2169C122.834 50.2276 122.709 50.2331 122.579 50.2331C122.188 50.2331 121.928 50.168 121.798 50.0378C121.668 49.9078 121.603 49.6475 121.603 49.2571V45.0935H123.294V43.5483H121.603Z" fill="black"/>
<path d="M126.766 42.2467V40.3438H124.457V42.2467H126.766ZM124.457 43.5478V51.9566H126.766V43.5478H124.457Z" fill="black"/>
<path d="M130.634 47.7595C130.634 47.4234 130.666 47.0927 130.731 46.7674C130.796 46.4421 130.905 46.1547 131.057 45.9053C131.219 45.656 131.431 45.4554 131.691 45.3035C131.951 45.1409 132.276 45.0596 132.667 45.0596C133.057 45.0596 133.382 45.1409 133.643 45.3035C133.914 45.4554 134.125 45.656 134.277 45.9053C134.44 46.1547 134.554 46.4421 134.619 46.7674C134.684 47.0927 134.716 47.4234 134.716 47.7595C134.716 48.0956 134.684 48.4263 134.619 48.7516C134.554 49.0661 134.44 49.3534 134.277 49.6137C134.125 49.863 133.914 50.0636 133.643 50.2155C133.382 50.3672 133.057 50.4431 132.667 50.4431C132.276 50.4431 131.951 50.3672 131.691 50.2155C131.431 50.0636 131.219 49.863 131.057 49.6137C130.905 49.3534 130.796 49.0661 130.731 48.7516C130.666 48.4263 130.634 48.0956 130.634 47.7595ZM128.324 47.7595C128.324 48.4318 128.427 49.0389 128.633 49.5812C128.839 50.1233 129.132 50.5895 129.512 50.9798C129.891 51.3593 130.347 51.6521 130.878 51.8581C131.409 52.0642 132.005 52.1672 132.667 52.1672C133.328 52.1672 133.925 52.0642 134.456 51.8581C134.998 51.6521 135.459 51.3593 135.838 50.9798C136.218 50.5895 136.511 50.1233 136.717 49.5812C136.923 49.0389 137.026 48.4318 137.026 47.7595C137.026 47.0872 136.923 46.4801 136.717 45.9378C136.511 45.3849 136.218 44.9187 135.838 44.5392C135.459 44.1488 134.998 43.8507 134.456 43.6446C133.925 43.4278 133.328 43.3193 132.667 43.3193C132.005 43.3193 131.409 43.4278 130.878 43.6446C130.347 43.8507 129.891 44.1488 129.512 44.5392C129.132 44.9187 128.839 45.3849 128.633 45.9378C128.427 46.4801 128.324 47.0872 128.324 47.7595Z" fill="black"/>
<path d="M138.527 43.547V51.9558H140.837V47.5481C140.837 46.6915 140.978 46.0789 141.26 45.7102C141.542 45.3307 141.997 45.1409 142.626 45.1409C143.179 45.1409 143.564 45.3144 143.781 45.6614C143.998 45.9975 144.106 46.5126 144.106 47.2064V51.9558H146.416V46.7837C146.416 46.2631 146.367 45.7916 146.269 45.3687C146.182 44.9349 146.025 44.5717 145.798 44.2789C145.57 43.9754 145.255 43.7423 144.854 43.5795C144.464 43.406 143.96 43.3193 143.342 43.3193C142.854 43.3193 142.377 43.4332 141.91 43.6609C141.444 43.8777 141.065 44.2302 140.772 44.7181H140.723V43.547H138.527Z" fill="black"/>
<path d="M0 12.4535C0 5.9839 5.24464 0.739258 11.7142 0.739258H46.857C53.3265 0.739258 58.5712 5.9839 58.5712 12.4535V47.5962C58.5712 54.0658 53.3265 59.3104 46.857 59.3104H11.7142C5.24464 59.3104 0 54.0658 0 47.5962V12.4535Z" fill="url(#paint0_linear_198_55479)"/>
<path fill-rule="evenodd" clip-rule="evenodd" d="M30.5959 11.7695V27.3813H27.9725V11.7695H22.7247V48.199H27.9725V32.5853H30.5959V48.199H35.8427V11.7695H30.5959ZM9.69141 11.7707V16.9747H12.3022V48.2001H17.5248V16.9747H20.1357V11.7707H9.69141ZM38.4336 48.199V11.7695H48.8778V16.9734H43.6553V27.3813H47.572V32.5853H43.6553V42.995H48.8778V48.199H38.4336Z" fill="white"/>
</g>
</g>
<defs>
<linearGradient id="paint0_linear_198_55479" x1="-5.77755e-07" y1="19.2624" x2="56.814" y2="42.764" gradientUnits="userSpaceOnUse">
<stop stop-color="#FE4537"/>
<stop offset="0.509095" stop-color="#DE1B7C"/>
<stop offset="1" stop-color="#4352FF"/>
</linearGradient>
<clipPath id="clip0_198_55479">
<rect width="148" height="59.5217" fill="white" transform="translate(0 0.739258)"/>
</clipPath>
<clipPath id="clip1_198_55479">
<rect width="148" height="59.5217" fill="white" transform="translate(0 0.739258)"/>
</clipPath>
</defs>
</svg>
