<svg width="16" height="16" viewBox="0 0 16 16" fill="none" xmlns="http://www.w3.org/2000/svg">
<path d="M8.68735 1.33398C9.43762 1.33522 9.81782 1.33919 10.1464 1.34897L10.2758 1.3532C10.4252 1.35852 10.5727 1.36518 10.7505 1.37352C11.4599 1.40629 11.9438 1.51852 12.3688 1.68352C12.8082 1.85296 13.1794 2.08185 13.5499 2.4524C13.9199 2.82296 14.1488 3.19518 14.3188 3.63352C14.4832 4.05796 14.5955 4.5424 14.6288 5.25185C14.6368 5.42962 14.6432 5.57709 14.6484 5.72659L14.6526 5.85598C14.6624 6.18448 14.6668 6.56473 14.6682 7.315L14.6688 7.81213C14.6688 7.87286 14.6688 7.93553 14.6688 8.0002L14.6688 8.18826L14.6684 8.6854C14.6671 9.43567 14.6632 9.81586 14.6534 10.1444L14.6491 10.2738C14.6438 10.4233 14.6372 10.5707 14.6288 10.7485C14.596 11.4579 14.4832 11.9419 14.3188 12.3669C14.1494 12.8063 13.9199 13.1774 13.5499 13.5479C13.1794 13.9179 12.8066 14.1469 12.3688 14.3169C11.9438 14.4813 11.4599 14.5935 10.7505 14.6269C10.5727 14.6348 10.4252 14.6412 10.2758 14.6465L10.1464 14.6507C9.81782 14.6604 9.43762 14.6649 8.68735 14.6663L8.19022 14.6668C8.12948 14.6669 8.06682 14.6669 8.00215 14.6669L7.81408 14.6668L7.31695 14.6664C6.56668 14.6651 6.18643 14.6612 5.85793 14.6514L5.72854 14.6471C5.57904 14.6419 5.43158 14.6352 5.2538 14.6269C4.54436 14.5941 4.06102 14.4813 3.63547 14.3169C3.19658 14.1474 2.82491 13.9179 2.45436 13.5479C2.0838 13.1774 1.85547 12.8046 1.68547 12.3669C1.52047 11.9419 1.4088 11.4579 1.37547 10.7485C1.36755 10.5707 1.36109 10.4233 1.35586 10.2738L1.35166 10.1444C1.34191 9.81586 1.33746 9.43567 1.33602 8.6854L1.33594 7.315C1.33718 6.56473 1.34114 6.18448 1.35092 5.85598L1.35516 5.72659C1.36047 5.57709 1.36714 5.42962 1.37547 5.25185C1.40824 4.54185 1.52047 4.05852 1.68547 3.63352C1.85491 3.19462 2.0838 2.82296 2.45436 2.4524C2.82491 2.08185 3.19714 1.85352 3.63547 1.68352C4.06047 1.51852 4.5438 1.40685 5.2538 1.37352C5.43158 1.3656 5.57904 1.35914 5.72854 1.3539L5.85793 1.34971C6.18643 1.33996 6.56668 1.33551 7.31695 1.33407L8.68735 1.33398ZM8.00215 4.66685C6.1602 4.66685 4.6688 6.15987 4.6688 8.0002C4.6688 9.84213 6.16183 11.3335 8.00215 11.3335C9.84408 11.3335 11.3355 9.84047 11.3355 8.0002C11.3355 6.15825 9.84242 4.66685 8.00215 4.66685ZM8.00215 6.00019C9.10675 6.00019 10.0022 6.89527 10.0022 8.0002C10.0022 9.1048 9.10702 10.0002 8.00215 10.0002C6.89755 10.0002 6.00214 9.10507 6.00214 8.0002C6.00214 6.8956 6.89722 6.00019 8.00215 6.00019ZM11.5022 3.66685C11.0426 3.66685 10.6688 4.04012 10.6688 4.49962C10.6688 4.95911 11.0421 5.33296 11.5022 5.33296C11.9616 5.33296 12.3355 4.95969 12.3355 4.49962C12.3355 4.04012 11.961 3.66627 11.5022 3.66685Z" fill="white"/>
</svg>
