<svg width="55" height="55" viewBox="0 0 55 55" fill="none" xmlns="http://www.w3.org/2000/svg">
<path d="M17.6736 9.07812L12.0344 14.7191L9.83266 12.5139L7.35938 14.9889L10.7969 18.4264L12.0327 19.6072L13.2684 18.4264L20.1434 11.5514L17.6736 9.07812ZM25.7844 12.0327V15.4702H48.1281V12.0327H25.7844ZM17.6736 22.8281L12.0344 28.4673L9.83266 26.2673L7.36109 28.7372L10.7986 32.1747L12.0344 33.3555L13.2702 32.1747L20.1452 25.2997L17.6736 22.8281ZM25.7844 25.7827V29.2202H48.1281V25.7827H25.7844ZM17.6736 36.5781L12.0344 42.2191L9.83266 40.0139L7.35938 42.4889L10.7969 45.9264L12.0327 47.1072L13.2684 45.9264L20.1434 39.0514L17.6736 36.5781ZM25.7844 39.5327V42.9702H48.1281V39.5327H25.7844Z" fill="#FF6477"/>
</svg>
