<svg width="48" height="48" viewBox="0 0 48 48" fill="none" xmlns="http://www.w3.org/2000/svg">
<path fill-rule="evenodd" clip-rule="evenodd" d="M24.001 42C27.2527 42.0003 30.4438 41.1197 33.2352 39.4518C36.0266 37.7839 38.3141 35.3909 39.8545 32.5272C41.395 29.6635 42.131 26.436 41.9842 23.1876C41.8374 19.9391 40.8134 16.7911 39.021 14.078L24.711 29.978C24.0426 30.7208 23.1203 31.1866 22.1257 31.2835C21.1312 31.3805 20.1363 31.1017 19.337 30.502L12.801 25.6C12.3766 25.2817 12.0961 24.8079 12.0211 24.2828C11.9461 23.7577 12.0827 23.2243 12.401 22.8C12.7192 22.3757 13.193 22.0951 13.7181 22.0201C14.2432 21.9451 14.7766 22.0817 15.201 22.4L21.737 27.302L36.429 10.98C34.3006 8.94822 31.7066 7.4692 28.874 6.67244C26.0414 5.87569 23.0567 5.78549 20.1812 6.40974C17.3057 7.034 14.6271 8.35368 12.3799 10.2532C10.1327 12.1528 8.38547 14.5743 7.29114 17.3057C6.19681 20.0371 5.78879 22.9951 6.10279 25.9208C6.41679 28.8465 7.44324 31.6506 9.09227 34.0876C10.7413 36.5246 12.9626 38.5201 15.5617 39.8995C18.1608 41.279 21.0585 42.0002 24.001 42Z" fill="white"/>
</svg>
