<svg width="40" height="41" viewBox="0 0 40 41" fill="none" xmlns="http://www.w3.org/2000/svg">
<g clip-path="url(#clip0_606_9917)">
<path d="M0.852344 20.6368C0.851406 23.9976 1.73641 27.2791 3.41922 30.1715L0.691406 40.054L10.8839 37.4022C13.703 38.925 16.8616 39.723 20.0714 39.7232H20.0798C30.6759 39.7232 39.3014 31.1676 39.3059 20.6518C39.308 15.5562 37.3098 10.7645 33.6795 7.15958C30.0498 3.55493 25.2225 1.56873 20.0791 1.56641C9.48172 1.56641 0.856875 10.1214 0.8525 20.6368" fill="url(#paint0_linear_606_9917)"/>
<path d="M0.167188 20.6294C0.166094 24.1111 1.08281 27.51 2.82562 30.506L0 40.7428L10.558 37.9959C13.467 39.5697 16.7423 40.3995 20.0752 40.4007H20.0837C31.06 40.4007 39.9953 31.5375 40 20.6452C40.0019 15.3665 37.9319 10.4026 34.1719 6.66849C30.4114 2.93484 25.4114 0.877171 20.0837 0.875C9.10562 0.875 0.171563 9.73702 0.167188 20.6294ZM6.45484 29.99L6.06062 29.3691C4.40344 26.7545 3.52875 23.7331 3.53 20.6307C3.53344 11.5772 10.9591 4.21143 20.09 4.21143C24.5119 4.21329 28.6675 5.92368 31.7931 9.02694C34.9186 12.1305 36.6384 16.2561 36.6373 20.644C36.6333 29.6975 29.2075 37.0641 20.0837 37.0641H20.0772C17.1064 37.0626 14.1928 36.271 11.6519 34.775L11.0472 34.4192L4.78188 36.0491L6.45484 29.99Z" fill="url(#paint1_linear_606_9917)"/>
<path d="M15.107 12.3725C14.7342 11.5503 14.3419 11.5337 13.9873 11.5193C13.697 11.5069 13.3652 11.5078 13.0336 11.5078C12.7017 11.5078 12.1625 11.6317 11.7067 12.1255C11.2505 12.6198 9.96484 13.8142 9.96484 16.2435C9.96484 18.6729 11.7481 21.0207 11.9967 21.3505C12.2456 21.6796 15.4394 26.8244 20.4975 28.8036C24.7012 30.4484 25.5567 30.1213 26.4691 30.0388C27.3816 29.9567 29.4134 28.8447 29.828 27.6917C30.2428 26.5388 30.2428 25.5506 30.1184 25.3441C29.9941 25.1384 29.6622 25.0148 29.1645 24.768C28.6667 24.521 26.2202 23.3264 25.7641 23.1616C25.3078 22.997 24.9761 22.9148 24.6442 23.4092C24.3123 23.9029 23.3594 25.0148 23.0689 25.3441C22.7787 25.6742 22.4883 25.7153 21.9908 25.4683C21.4928 25.2205 19.8902 24.6998 17.9888 23.0177C16.5094 21.7089 15.5106 20.0926 15.2203 19.5982C14.93 19.1046 15.1892 18.837 15.4388 18.5909C15.6623 18.3697 15.9366 18.0143 16.1856 17.7261C16.4338 17.4378 16.5166 17.232 16.6825 16.9027C16.8486 16.5731 16.7655 16.2847 16.6413 16.0378C16.5166 15.7908 15.5495 13.3488 15.107 12.3725Z" fill="white"/>
</g>
<defs>
<linearGradient id="paint0_linear_606_9917" x1="1931.42" y1="3850.33" x2="1931.42" y2="1.56641" gradientUnits="userSpaceOnUse">
<stop stop-color="#1FAF38"/>
<stop offset="1" stop-color="#60D669"/>
</linearGradient>
<linearGradient id="paint1_linear_606_9917" x1="2000" y1="3987.65" x2="2000" y2="0.875" gradientUnits="userSpaceOnUse">
<stop stop-color="#F9F9F9"/>
<stop offset="1" stop-color="white"/>
</linearGradient>
<clipPath id="clip0_606_9917">
<rect width="40" height="40" fill="white" transform="translate(0 0.875)"/>
</clipPath>
</defs>
</svg>
