<svg width="16" height="16" viewBox="0 0 16 16" fill="none" xmlns="http://www.w3.org/2000/svg">
<path d="M8 13.9329L11.2998 10.6331C13.1223 8.81065 13.1223 5.85587 11.2998 4.03342C9.4774 2.21097 6.52261 2.21097 4.70017 4.03342C2.87772 5.85587 2.87772 8.81065 4.70017 10.6331L8 13.9329ZM8 15.8185L3.75736 11.5759C1.41421 9.23272 1.41421 5.43376 3.75736 3.09061C6.10051 0.747465 9.89947 0.747465 12.2427 3.09061C14.5858 5.43376 14.5858 9.23272 12.2427 11.5759L8 15.8185ZM8 8.66658C8.7364 8.66658 9.33333 8.06965 9.33333 7.33325C9.33333 6.59687 8.7364 5.99992 8 5.99992C7.2636 5.99992 6.66667 6.59687 6.66667 7.33325C6.66667 8.06965 7.2636 8.66658 8 8.66658ZM8 9.99992C6.52724 9.99992 5.33333 8.80598 5.33333 7.33325C5.33333 5.86049 6.52724 4.66658 8 4.66658C9.47273 4.66658 10.6667 5.86049 10.6667 7.33325C10.6667 8.80598 9.47273 9.99992 8 9.99992Z" fill="white"/>
</svg>
