<svg width="33" height="32" viewBox="0 0 33 32" fill="none" xmlns="http://www.w3.org/2000/svg">
<g clip-path="url(#clip0_255_30547)">
<path d="M16.6641 27.8666L23.2641 21.2666C24.5693 19.9613 25.4581 18.2983 25.8181 16.4878C26.1782 14.6773 25.9933 12.8008 25.2869 11.0954C24.5804 9.39 23.3841 7.93239 21.8493 6.90687C20.3145 5.88135 18.51 5.33398 16.6641 5.33398C14.8181 5.33398 13.0137 5.88135 11.4788 6.90687C9.94401 7.93239 8.74773 9.39 8.04128 11.0954C7.33484 12.8008 7.14995 14.6773 7.51 16.4878C7.87005 18.2983 8.75887 19.9613 10.0641 21.2666L16.6641 27.8666ZM16.6641 31.6373L8.17873 23.152C6.50052 21.4737 5.35764 19.3355 4.89463 17.0078C4.43162 14.68 4.66927 12.2672 5.57753 10.0745C6.48578 7.88181 8.02385 6.00767 9.99724 4.6891C11.9706 3.37053 14.2907 2.66675 16.6641 2.66675C19.0374 2.66675 21.3575 3.37053 23.3309 4.6891C25.3043 6.00767 26.8424 7.88181 27.7506 10.0745C28.6589 12.2672 28.8965 14.68 28.4335 17.0078C27.9705 19.3355 26.8276 21.4737 25.1494 23.152L16.6641 31.6373ZM16.6641 17.3333C17.3713 17.3333 18.0496 17.0524 18.5497 16.5523C19.0498 16.0522 19.3307 15.3739 19.3307 14.6666C19.3307 13.9594 19.0498 13.2811 18.5497 12.781C18.0496 12.2809 17.3713 12 16.6641 12C15.9568 12 15.2785 12.2809 14.7784 12.781C14.2784 13.2811 13.9974 13.9594 13.9974 14.6666C13.9974 15.3739 14.2784 16.0522 14.7784 16.5523C15.2785 17.0524 15.9568 17.3333 16.6641 17.3333ZM16.6641 20C15.2496 20 13.893 19.4381 12.8928 18.4379C11.8926 17.4377 11.3307 16.0811 11.3307 14.6666C11.3307 13.2522 11.8926 11.8956 12.8928 10.8954C13.893 9.89521 15.2496 9.33331 16.6641 9.33331C18.0786 9.33331 19.4351 9.89521 20.4353 10.8954C21.4355 11.8956 21.9974 13.2522 21.9974 14.6666C21.9974 16.0811 21.4355 17.4377 20.4353 18.4379C19.4351 19.4381 18.0786 20 16.6641 20Z" fill="white"/>
</g>
<defs>
<clipPath id="clip0_255_30547">
<rect width="32" height="32" fill="white" transform="translate(0.664062)"/>
</clipPath>
</defs>
</svg>
