<svg width="48" height="48" viewBox="0 0 48 48" fill="none" xmlns="http://www.w3.org/2000/svg">
<path d="M23.4 36C20.2 35.8333 17.5 34.6 15.3 32.3C13.1 30 12 27.2333 12 24C12 20.6667 13.1667 17.8333 15.5 15.5C17.8333 13.1667 20.6667 12 24 12C27.2333 12 30 13.1 32.3 15.3C34.6 17.5 35.8333 20.2 36 23.4L31.8 22.15C31.3667 20.35 30.4333 18.8753 29 17.726C27.5667 16.5767 25.9 16.0013 24 16C21.8 16 19.9167 16.7833 18.35 18.35C16.7833 19.9167 16 21.8 16 24C16 25.9 16.5753 27.5667 17.726 29C18.8767 30.4333 20.3513 31.3667 22.15 31.8L23.4 36ZM25.8 43.9C25.5 43.9667 25.2 44 24.9 44H24C21.2333 44 18.6333 43.4747 16.2 42.424C13.7667 41.3733 11.65 39.9487 9.85 38.15C8.05 36.35 6.62533 34.2333 5.576 31.8C4.52667 29.3667 4.00133 26.7667 4 24C4 21.2333 4.52533 18.6333 5.576 16.2C6.62667 13.7667 8.05133 11.65 9.85 9.85C11.65 8.05 13.7667 6.62533 16.2 5.576C18.6333 4.52667 21.2333 4.00133 24 4C26.7667 4 29.3667 4.52533 31.8 5.576C34.2333 6.62667 36.35 8.05133 38.15 9.85C39.95 11.65 41.3753 13.7667 42.426 16.2C43.4767 18.6333 44.0013 21.2333 44 24V24.9C44 25.2 43.9667 25.5 43.9 25.8L40 24.6V24C40 19.5333 38.45 15.75 35.35 12.65C32.25 9.55 28.4667 8 24 8C19.5333 8 15.75 9.55 12.65 12.65C9.55 15.75 8 19.5333 8 24C8 28.4667 9.55 32.25 12.65 35.35C15.75 38.45 19.5333 40 24 40H24.6L25.8 43.9ZM41.05 45L32.5 36.45L30 44L24 24L44 30L36.45 32.5L45 41.05L41.05 45Z" fill="white"/>
</svg>
