<svg width="24" height="25" viewBox="0 0 24 25" fill="none" xmlns="http://www.w3.org/2000/svg">
<path d="M4.615 20.5C4.155 20.5 3.771 20.346 3.463 20.038C3.15433 19.7293 3 19.345 3 18.885V9.115C3 8.655 3.15433 8.271 3.463 7.963C3.771 7.65433 4.155 7.5 4.615 7.5H9V6.115C9 5.655 9.15433 5.271 9.463 4.963C9.771 4.65433 10.155 4.5 10.615 4.5H13.385C13.845 4.5 14.2293 4.65433 14.538 4.963C14.846 5.271 15 5.655 15 6.115V7.5H19.385C19.845 7.5 20.229 7.65433 20.537 7.963C20.8457 8.271 21 8.655 21 9.115V18.885C21 19.345 20.846 19.729 20.538 20.037C20.2293 20.3457 19.845 20.5 19.385 20.5H4.615ZM4.615 19.5H19.385C19.5383 19.5 19.6793 19.436 19.808 19.308C19.936 19.1793 20 19.0383 20 18.885V9.115C20 8.96167 19.936 8.82067 19.808 8.692C19.6793 8.564 19.5383 8.5 19.385 8.5H4.615C4.46167 8.5 4.32067 8.564 4.192 8.692C4.064 8.82067 4 8.96167 4 9.115V18.885C4 19.0383 4.064 19.1793 4.192 19.308C4.32067 19.436 4.46167 19.5 4.615 19.5ZM10 7.5H14V6.115C14 5.96167 13.936 5.82067 13.808 5.692C13.6793 5.564 13.5383 5.5 13.385 5.5H10.615C10.4617 5.5 10.3207 5.564 10.192 5.692C10.064 5.82067 10 5.96167 10 6.115V7.5Z" fill="#575656"/>
</svg>
