<svg width="48" height="48" viewBox="0 0 48 48" fill="none" xmlns="http://www.w3.org/2000/svg">
<g clip-path="url(#clip0_364_14503)">
<path d="M22 4C19.3478 4 16.8043 5.05357 14.9289 6.92893C13.0536 8.8043 12 11.3478 12 14C12 16.6522 13.0536 19.1957 14.9289 21.0711C16.8043 22.9464 19.3478 24 22 24C24.6522 24 27.1957 22.9464 29.0711 21.0711C30.9464 19.1957 32 16.6522 32 14C32 11.3478 30.9464 8.8043 29.0711 6.92893C27.1957 5.05357 24.6522 4 22 4ZM22 26C23.18 26 24.334 26.084 25.448 26.24C25.8233 26.2924 26.176 26.4504 26.465 26.6956C26.7539 26.9407 26.9673 27.2629 27.0803 27.6246C27.1933 27.9863 27.2011 28.3727 27.103 28.7387C27.0049 29.1047 26.8048 29.4353 26.526 29.692C24.8798 31.1998 23.6193 33.0804 22.8502 35.1761C22.0812 37.2717 21.8259 39.5213 22.106 41.736C22.1413 42.0206 22.115 42.3094 22.0289 42.5829C21.9428 42.8564 21.7989 43.1082 21.607 43.3213C21.415 43.5343 21.1795 43.7035 20.9164 43.8175C20.6532 43.9315 20.3687 43.9876 20.082 43.982C16.062 43.902 12.302 43.55 9.494 42.69C8.09 42.26 6.766 41.656 5.762 40.766C4.7 39.826 4 38.56 4 37C4 35.426 4.716 33.954 5.688 32.722C6.676 31.472 8.042 30.322 9.644 29.342C12.85 27.39 17.21 26 22 26ZM42.424 28.068C43.3614 29.0056 43.8879 30.2772 43.8879 31.603C43.8879 32.9288 43.3614 34.2004 42.424 35.138L35.588 41.974C35.1292 42.4326 34.5341 42.7301 33.892 42.822L29.274 43.482C28.9663 43.5258 28.6526 43.4974 28.3578 43.399C28.063 43.3006 27.7952 43.1349 27.5755 42.915C27.3558 42.6951 27.1904 42.4271 27.0922 42.1322C26.9941 41.8374 26.9659 41.5237 27.01 41.216L27.67 36.6C27.7615 35.9571 28.059 35.3613 28.518 34.902L35.354 28.066C36.2916 27.1286 37.5632 26.6021 38.889 26.6021C40.2148 26.6021 41.4864 27.1286 42.424 28.066V28.068Z" fill="white"/>
</g>
<defs>
<clipPath id="clip0_364_14503">
<rect width="48" height="48" fill="white"/>
</clipPath>
</defs>
</svg>
