<svg width="33" height="32" viewBox="0 0 33 32" fill="none" xmlns="http://www.w3.org/2000/svg">
<path d="M12.8194 14.2428C14.068 16.4384 15.8936 18.264 18.0892 19.5125L19.2686 17.8615C19.6607 17.3127 20.4008 17.1431 20.9928 17.4664C22.8686 18.4911 24.9415 19.1137 27.1039 19.2849C27.7974 19.3399 28.332 19.9185 28.332 20.6141V26.5645C28.332 27.2481 27.815 27.8209 27.135 27.8908C26.4284 27.9635 25.7156 28 24.9987 28C13.5848 28 4.33203 18.7472 4.33203 7.33333C4.33203 6.61636 4.36859 5.90361 4.44122 5.19701C4.5111 4.517 5.08395 4 5.76756 4H11.7179C12.4135 4 12.9922 4.53472 13.0471 5.22812C13.2183 7.39051 13.841 9.46352 14.8656 11.3393C15.189 11.9312 15.0194 12.6714 14.4706 13.0634L12.8194 14.2428ZM9.4577 13.3669L11.991 11.5575C11.2727 10.0069 10.7804 8.36244 10.5284 6.66667H7.01079C7.00274 6.88843 6.9987 7.11067 6.9987 7.33333C6.9987 17.2744 15.0576 25.3333 24.9987 25.3333C25.2214 25.3333 25.4436 25.3293 25.6654 25.3212V21.8036C23.9696 21.5516 22.3252 21.0593 20.7746 20.3411L18.9651 22.8744C18.2331 22.59 17.5262 22.2553 16.8486 21.8748L16.7711 21.8307C14.1583 20.3449 11.9872 18.1737 10.5014 15.5609L10.4573 15.4835C10.0767 14.8059 9.74209 14.0989 9.4577 13.3669Z" fill="white"/>
</svg>
