<svg width="16" height="16" viewBox="0 0 16 16" fill="none" xmlns="http://www.w3.org/2000/svg">
<path d="M6.24371 7.1214C6.868 8.2192 7.7808 9.132 8.8786 9.75627L9.46827 8.93073C9.66433 8.65633 10.0344 8.57153 10.3304 8.7332C11.2683 9.24553 12.3047 9.55687 13.3859 9.64247C13.7327 9.66993 14 9.95927 14 10.3071V13.2823C14 13.6241 13.7415 13.9105 13.4015 13.9454C13.0482 13.9817 12.6918 14 12.3333 14C6.62639 14 2 9.3736 2 3.66667C2 3.30818 2.01828 2.95181 2.05459 2.59851C2.08953 2.2585 2.37596 2 2.71777 2H5.69295C6.04073 2 6.33009 2.26736 6.35753 2.61406C6.44311 3.69525 6.75447 4.73176 7.2668 5.66963C7.42847 5.9656 7.34367 6.33569 7.06927 6.53171L6.24371 7.1214ZM4.56283 6.68347L5.82947 5.77873C5.47031 5.00343 5.22419 4.18122 5.09818 3.33333H3.33938C3.33535 3.44421 3.33333 3.55533 3.33333 3.66667C3.33333 8.6372 7.3628 12.6667 12.3333 12.6667C12.4447 12.6667 12.5558 12.6647 12.6667 12.6606V10.9018C11.8188 10.7758 10.9966 10.5297 10.2213 10.1705L9.31653 11.4372C8.95053 11.295 8.59707 11.1277 8.25827 10.9374L8.21953 10.9153C6.91313 10.1725 5.82756 9.08687 5.08467 7.78047L5.06263 7.74173C4.87233 7.40293 4.70503 7.04947 4.56283 6.68347Z" fill="white"/>
</svg>
