<svg width="196" height="177" viewBox="0 0 196 177" fill="none" xmlns="http://www.w3.org/2000/svg">
<path d="M131.181 166.217C120.345 155.664 120.166 139.342 122.986 125.157C123.456 122.79 123.606 120.237 125.08 118.333C126.555 116.43 129.431 115.435 131.399 116.788C133.031 117.909 133.465 120.092 134.175 121.955C135.12 124.434 136.775 126.628 138.886 128.203C140.274 129.237 142.071 130.026 143.702 129.445C145.942 128.649 146.648 125.851 147.021 123.48C147.716 119.061 148.411 114.643 149.106 110.226C149.479 107.856 149.868 105.437 150.973 103.31C152.077 101.183 154.046 99.3616 156.402 99.0992C158.759 98.8374 161.332 100.592 161.428 102.988C161.468 103.985 161.108 104.954 161.012 105.947C160.917 106.941 161.197 108.104 162.086 108.53C162.985 108.963 164.043 108.446 164.864 107.869C167.7 105.878 169.862 103.07 171.914 100.261C173.966 97.4512 175.984 94.5616 178.628 92.3171C181.273 90.072 184.679 88.5078 188.102 88.8714C191.525 89.2349 194.795 91.9197 195.107 95.3891C195.42 98.8682 192.918 101.937 190.356 104.292C186.555 107.787 182.254 110.724 177.632 112.981C176.799 113.388 175.896 113.828 175.467 114.659C174.694 116.153 175.934 117.966 177.407 118.74C179.076 119.617 181.021 119.748 182.832 120.267C184.643 120.787 186.51 121.929 186.923 123.788C187.496 126.368 185.056 128.573 182.793 129.909C178.26 132.583 173.275 134.466 168.125 135.451C166.279 135.803 164.354 136.062 162.749 137.056C161.144 138.05 159.948 140.039 160.523 141.846C161.099 143.655 163.19 144.546 165.071 144.505C166.95 144.466 168.746 143.742 170.592 143.371C174.047 142.675 178.213 143.588 179.837 146.742C180.905 148.815 180.604 151.409 179.55 153.499C178.496 155.589 176.781 157.258 175.002 158.764C168.784 164.029 161.301 167.863 153.323 169.244C145.345 170.626 138.234 170.189 131.181 166.217Z" fill="#FF6477"/>
<path d="M129.262 176.761C130.704 171.195 133.035 164.724 136.326 157.877C139.604 151.023 143.82 143.807 148.489 136.411C149.663 134.567 150.823 132.744 151.966 130.948C153.112 129.158 154.247 127.382 155.466 125.714C157.888 122.367 160.473 119.333 163.015 116.531C165.558 113.726 168.073 111.157 170.442 108.771C172.818 106.391 175.073 104.213 177.214 102.316C181.485 98.5053 185.287 95.8454 187.971 94.1257C189.312 93.2611 190.374 92.6249 191.1 92.2032C191.449 92.0035 191.722 91.8467 191.928 91.7289C192.115 91.6246 192.214 91.5741 192.217 91.5811C192.222 91.5881 192.131 91.6515 191.95 91.7686C191.75 91.896 191.483 92.0649 191.145 92.2806C190.435 92.7273 189.388 93.3865 188.062 94.2717C185.411 96.0342 181.651 98.7241 177.419 102.553C175.298 104.46 173.06 106.645 170.7 109.034C168.343 111.429 165.842 114.003 163.314 116.808C160.786 119.612 158.219 122.64 155.814 125.972C154.605 127.633 153.481 129.394 152.334 131.189C151.191 132.985 150.033 134.807 148.86 136.651C144.195 144.041 139.979 151.232 136.69 158.057C133.39 164.873 131.037 171.305 129.562 176.841" fill="#263238"/>
<path d="M155.595 125.718C155.565 125.718 155.543 125.345 155.529 124.67C155.512 123.995 155.519 123.019 155.546 121.811C155.597 119.399 155.781 116.069 155.999 112.4C156.216 108.728 156.353 105.406 156.367 102.999C156.378 101.795 156.377 100.821 156.367 100.148C156.362 99.4742 156.373 99.1004 156.403 99.0985C156.434 99.0966 156.48 99.4672 156.538 100.14C156.601 100.812 156.65 101.788 156.678 102.995C156.744 105.41 156.657 108.748 156.439 112.423C156.216 116.044 156.013 119.32 155.858 121.823C155.795 122.954 155.743 123.907 155.701 124.672C155.661 125.346 155.626 125.719 155.595 125.718Z" fill="#263238"/>
<path d="M186.97 125.013C186.966 125.043 186.525 125.023 185.732 124.96C184.94 124.902 183.793 124.811 182.373 124.745C179.536 124.589 175.608 124.512 171.271 124.615C166.933 124.727 163.011 124.995 160.181 125.271C158.764 125.399 157.621 125.534 156.83 125.621C156.039 125.713 155.599 125.749 155.594 125.719C155.589 125.688 156.021 125.594 156.806 125.449C157.591 125.308 158.732 125.126 160.149 124.957C162.98 124.6 166.912 124.281 171.263 124.169C175.612 124.065 179.554 124.192 182.395 124.43C183.817 124.537 184.963 124.675 185.752 124.788C186.54 124.904 186.974 124.982 186.97 125.013Z" fill="#263238"/>
<path d="M136.791 157.379C136.776 157.383 136.726 157.243 136.643 156.974C136.551 156.653 136.439 156.261 136.303 155.787C136.011 154.755 135.63 153.251 135.182 151.387C134.284 147.659 133.206 142.47 132.094 136.728C130.98 130.983 129.953 125.792 129.133 122.05C128.73 120.231 128.397 118.734 128.151 117.621C128.047 117.138 127.961 116.741 127.89 116.414C127.835 116.137 127.814 115.989 127.829 115.985C127.844 115.982 127.894 116.121 127.977 116.391C128.069 116.712 128.181 117.103 128.317 117.577C128.609 118.609 128.991 120.113 129.438 121.977C130.336 125.705 131.414 130.894 132.527 136.639C133.64 142.382 134.668 147.573 135.487 151.315C135.891 153.134 136.223 154.632 136.469 155.744C136.573 156.226 136.659 156.625 136.729 156.951C136.785 157.228 136.806 157.375 136.791 157.379Z" fill="#263238"/>
<path d="M179.386 150.964C179.387 150.979 179.239 151.013 178.957 151.063C178.623 151.118 178.214 151.184 177.717 151.265C176.574 151.439 175.032 151.675 173.155 151.959C169.302 152.547 163.992 153.419 158.124 154.391C152.255 155.365 146.931 156.188 143.065 156.696C141.132 156.951 139.567 157.141 138.482 157.25C137.981 157.297 137.568 157.336 137.232 157.368C136.946 157.39 136.794 157.394 136.793 157.379C136.792 157.364 136.94 157.33 137.222 157.278C137.555 157.225 137.964 157.158 138.461 157.077C139.604 156.903 141.146 156.668 143.022 156.382C146.874 155.796 152.186 154.923 158.055 153.95C163.923 152.978 169.246 152.154 173.112 151.646C175.044 151.391 176.61 151.201 177.695 151.092C178.196 151.045 178.609 151.005 178.945 150.974C179.232 150.952 179.383 150.948 179.386 150.964Z" fill="#263238"/>
<path d="M23.5215 22.3057C21.5433 20.7716 20.6588 18.0548 21.0723 15.5857C21.4857 13.1166 23.0793 10.931 25.1446 9.51528C26.0995 8.86056 27.2822 8.34152 28.3932 8.66856C29.4313 8.97384 30.1545 9.98377 30.3644 11.0449C30.5743 12.1066 30.3478 13.2087 29.9939 14.2314C28.7792 17.7386 26.9609 20.9098 23.5215 22.3057Z" fill="#455A64"/>
<path d="M20.2731 28.2966C16.3736 24.7395 10.6865 23.2509 5.54414 24.4413C4.2347 24.7446 2.76078 25.4365 2.5451 26.7632C2.32942 28.0925 3.51598 29.2189 4.68078 29.8941C9.52686 32.7037 16.092 32.1757 20.4267 28.6269" fill="#455A64"/>
<path d="M1.48719 0.560344C3.64847 -0.032296 6.01776 0.50082 7.93072 1.66882C9.84368 2.83682 11.34 4.58914 12.5387 6.4829C14.8581 10.1469 15.6747 15.0711 15.7778 19.4058C10.9656 19.2112 6.85424 15.4295 4.88879 13.3795C1.78287 10.1405 -1.86449 2.3997 1.48719 0.560344Z" fill="#455A64"/>
<path d="M27.5514 34.8426C27.2691 34.3306 26.8096 33.969 26.3507 33.0288C25.4477 31.1511 24.2304 28.481 23.6403 25.3028C23.0528 22.1194 23.4509 19.1159 24.2413 17.153C24.6266 16.1667 25.0579 15.4211 25.4055 14.9443C25.7498 14.4656 25.9783 14.232 26 14.2493C26.0832 14.3031 25.232 15.313 24.5645 17.2695C23.8791 19.2068 23.5475 22.1143 24.1184 25.2157C24.6931 28.3184 25.8413 30.9776 26.6624 32.8848" fill="#263238"/>
<path d="M27.5994 34.9008C26.9555 34.0701 26.1114 32.9821 25.0938 31.6694C22.985 28.936 20.0627 25.167 16.7802 21.0467C13.4976 16.9289 10.4768 13.2393 8.28288 10.5737C7.23008 9.28862 6.35777 8.22302 5.69217 7.40958C5.08481 6.65822 4.76097 6.23263 4.78657 6.21023C4.81217 6.18847 5.18401 6.57247 5.83553 7.28607C6.48833 7.99903 7.41441 9.04606 8.54529 10.3517C10.8077 12.9629 13.8739 16.6211 17.1603 20.7433C20.4461 24.8681 23.328 28.6742 25.3683 31.4621C26.3885 32.856 27.2026 33.9926 27.7517 34.7881" fill="#263238"/>
<path d="M8.55093 27.2886C8.54325 27.256 8.83957 27.167 9.38549 27.0333C9.65749 26.9609 9.99413 26.8867 10.3909 26.8412C10.7871 26.7907 11.237 26.7062 11.7413 26.6966C12.7468 26.6179 13.9525 26.6601 15.276 26.831C16.5951 27.03 18.03 27.3744 19.4712 27.9248C20.9061 28.4937 22.197 29.2086 23.3036 29.9536C24.3954 30.7222 25.3125 31.5062 26.0005 32.2435C26.3653 32.591 26.6405 32.9577 26.8978 33.2624C27.1596 33.5645 27.3573 33.846 27.509 34.0835C27.8213 34.5513 27.7772 34.7702 27.7496 34.7888C27.6728 34.8444 27.1826 33.8595 25.758 32.4867C25.0527 31.7942 24.133 31.0557 23.0533 30.3248C21.9583 29.6176 20.6943 28.9328 19.2946 28.3772C17.8885 27.8409 16.494 27.4921 15.2088 27.2733C13.9199 27.0825 12.7423 27.0057 11.7548 27.0396C9.7778 27.0889 8.57013 27.3814 8.55093 27.2886Z" fill="#263238"/>
</svg>
