<svg width="56" height="56" viewBox="0 0 56 56" fill="none" xmlns="http://www.w3.org/2000/svg">
<g clip-path="url(#clip0_198_51787)">
<path d="M10.6937 40.4159C8.29033 37.8632 7 35.0002 7 30.3592C7 22.1926 12.733 14.8729 21.07 11.2539L23.1537 14.4692C15.372 18.6786 13.8507 24.1409 13.244 27.5849C14.497 26.9362 16.1373 26.7099 17.745 26.8592C21.9543 27.2489 25.2723 30.7046 25.2723 35.0002C25.2723 37.1662 24.4119 39.2434 22.8804 40.7749C21.3488 42.3065 19.2716 43.1669 17.1057 43.1669C14.602 43.1669 12.208 42.0236 10.6937 40.4159V40.4159ZM34.027 40.4159C31.6237 37.8632 30.3333 35.0002 30.3333 30.3592C30.3333 22.1926 36.0663 14.8729 44.4033 11.2539L46.487 14.4692C38.7053 18.6786 37.184 24.1409 36.5773 27.5849C37.8303 26.9362 39.4707 26.7099 41.0783 26.8592C45.2877 27.2489 48.6057 30.7046 48.6057 35.0002C48.6057 37.1662 47.7453 39.2434 46.2137 40.7749C44.6822 42.3065 42.6049 43.1669 40.439 43.1669C37.9353 43.1669 35.5413 42.0236 34.027 40.4159V40.4159Z" fill="#FF6477"/>
</g>
<defs>
<clipPath id="clip0_198_51787">
<rect width="56" height="56" fill="white"/>
</clipPath>
</defs>
</svg>
