<svg width="29" height="30" viewBox="0 0 29 30" fill="none" xmlns="http://www.w3.org/2000/svg">
<path d="M25.3737 10.168C26.0146 10.168 26.6293 10.4226 27.0825 10.8758C27.5357 11.329 27.7904 11.9437 27.7904 12.5846V17.418C27.7904 18.0589 27.5357 18.6736 27.0825 19.1268C26.6293 19.58 26.0146 19.8346 25.3737 19.8346H24.0904C23.7959 22.1707 22.6589 24.319 20.8929 25.8763C19.1269 27.4336 16.8533 28.2929 14.4987 28.293V25.8763C16.4215 25.8763 18.2656 25.1125 19.6252 23.7528C20.9849 22.3932 21.7487 20.5491 21.7487 18.6263V11.3763C21.7487 9.45348 20.9849 7.60942 19.6252 6.24978C18.2656 4.89014 16.4215 4.1263 14.4987 4.1263C12.5759 4.1263 10.7318 4.89014 9.37217 6.24978C8.01253 7.60942 7.2487 9.45348 7.2487 11.3763V19.8346H3.6237C2.98276 19.8346 2.36807 19.58 1.91486 19.1268C1.46164 18.6736 1.20703 18.0589 1.20703 17.418V12.5846C1.20703 11.9437 1.46164 11.329 1.91486 10.8758C2.36807 10.4226 2.98276 10.168 3.6237 10.168H4.90695C5.20182 7.83214 6.33892 5.68418 8.10489 4.12712C9.87086 2.57007 12.1443 1.71094 14.4987 1.71094C16.8531 1.71094 19.1265 2.57007 20.8925 4.12712C22.6585 5.68418 23.7956 7.83214 24.0904 10.168H25.3737ZM9.37536 19.5748L10.6562 17.5255C11.8078 18.2469 13.1398 18.6285 14.4987 18.6263C15.8576 18.6285 17.1896 18.2469 18.3412 17.5255L19.622 19.5748C18.0865 20.5369 16.3106 21.0458 14.4987 21.043C12.6867 21.0458 10.9108 20.5369 9.37536 19.5748Z" fill="#FF6477"/>
</svg>
