<svg width="54" height="54" viewBox="0 0 54 54" fill="none" xmlns="http://www.w3.org/2000/svg">
<path d="M27 22.5C29.3869 22.5 31.6761 21.5518 33.364 19.864C35.0518 18.1761 36 15.8869 36 13.5C36 11.1131 35.0518 8.82387 33.364 7.13604C31.6761 5.44821 29.3869 4.5 27 4.5C24.6131 4.5 22.3239 5.44821 20.636 7.13604C18.9482 8.82387 18 11.1131 18 13.5C18 15.8869 18.9482 18.1761 20.636 19.864C22.3239 21.5518 24.6131 22.5 27 22.5ZM12.375 29.25C13.8668 29.25 15.2976 28.6574 16.3525 27.6025C17.4074 26.5476 18 25.1168 18 23.625C18 22.1332 17.4074 20.7024 16.3525 19.6475C15.2976 18.5926 13.8668 18 12.375 18C10.8832 18 9.45242 18.5926 8.39752 19.6475C7.34263 20.7024 6.75 22.1332 6.75 23.625C6.75 25.1168 7.34263 26.5476 8.39752 27.6025C9.45242 28.6574 10.8832 29.25 12.375 29.25ZM47.25 23.625C47.25 25.1168 46.6574 26.5476 45.6025 27.6025C44.5476 28.6574 43.1168 29.25 41.625 29.25C40.1332 29.25 38.7024 28.6574 37.6475 27.6025C36.5926 26.5476 36 25.1168 36 23.625C36 22.1332 36.5926 20.7024 37.6475 19.6475C38.7024 18.5926 40.1332 18 41.625 18C43.1168 18 44.5476 18.5926 45.6025 19.6475C46.6574 20.7024 47.25 22.1332 47.25 23.625ZM27 24.75C29.9837 24.75 32.8452 25.9353 34.955 28.045C37.0647 30.1548 38.25 33.0163 38.25 36V49.5H15.75V36C15.75 33.0163 16.9353 30.1548 19.045 28.045C21.1548 25.9353 24.0163 24.75 27 24.75ZM11.25 36C11.25 34.4408 11.475 32.9355 11.898 31.5135L11.5155 31.545C9.58698 31.7568 7.80449 32.6729 6.50984 34.1179C5.21519 35.5629 4.4995 37.4349 4.5 39.375V49.5H11.25V36ZM49.5 49.5V39.375C49.5002 37.3688 48.7348 35.4382 47.36 33.9772C45.9851 32.5162 44.1045 31.635 42.102 31.5135C42.5228 32.9355 42.75 34.4408 42.75 36V49.5H49.5Z" fill="#FF6477"/>
</svg>
