<svg width="27" height="26" viewBox="0 0 27 26" fill="none" xmlns="http://www.w3.org/2000/svg">
<g clip-path="url(#clip0_198_55458)">
<path d="M20.2969 -0.00292969H6.48438C3.11889 -0.00292969 0.390625 2.72534 0.390625 6.09082V19.9033C0.390625 23.2688 3.11889 25.9971 6.48438 25.9971H20.2969C23.6624 25.9971 26.3906 23.2688 26.3906 19.9033V6.09082C26.3906 2.72534 23.6624 -0.00292969 20.2969 -0.00292969Z" fill="url(#paint0_radial_198_55458)"/>
<path d="M20.2969 -0.00292969H6.48438C3.11889 -0.00292969 0.390625 2.72534 0.390625 6.09082V19.9033C0.390625 23.2688 3.11889 25.9971 6.48438 25.9971H20.2969C23.6624 25.9971 26.3906 23.2688 26.3906 19.9033V6.09082C26.3906 2.72534 23.6624 -0.00292969 20.2969 -0.00292969Z" fill="url(#paint1_radial_198_55458)"/>
<path d="M13.3915 2.84082C10.6333 2.84082 10.2871 2.85291 9.20381 2.90216C8.12258 2.95173 7.38452 3.12286 6.73879 3.37402C6.07071 3.63341 5.50409 3.98045 4.93961 4.54514C4.37462 5.10973 4.02758 5.67634 3.76738 6.34412C3.5155 6.99006 3.34416 7.72841 3.29552 8.80914C3.24707 9.89251 3.23438 10.2388 3.23438 12.9972C3.23438 15.7555 3.24656 16.1006 3.29572 17.1839C3.34548 18.2651 3.51662 19.0032 3.76758 19.6489C4.02717 20.317 4.37421 20.8836 4.9389 21.4481C5.50328 22.0131 6.0699 22.3609 6.73747 22.6203C7.38371 22.8715 8.12187 23.0426 9.2029 23.0922C10.2863 23.1414 10.6322 23.1535 13.3903 23.1535C16.1489 23.1535 16.494 23.1414 17.5772 23.0922C18.6585 23.0426 19.3973 22.8715 20.0436 22.6203C20.7114 22.3609 21.2772 22.0131 21.8414 21.4481C22.4064 20.8836 22.7534 20.317 23.0137 19.6492C23.2633 19.0032 23.4347 18.2649 23.4855 17.1841C23.5342 16.1008 23.5469 15.7555 23.5469 12.9972C23.5469 10.2388 23.5342 9.89271 23.4855 8.80934C23.4347 7.72811 23.2633 6.99016 23.0137 6.34442C22.7534 5.67634 22.4064 5.10973 21.8414 4.54514C21.2765 3.98025 20.7116 3.63321 20.043 3.37413C19.3955 3.12286 18.657 2.95163 17.5758 2.90216C16.4924 2.85291 16.1475 2.84082 13.3884 2.84082H13.3915ZM12.4804 4.67108C12.7509 4.67067 13.0526 4.67108 13.3915 4.67108C16.1034 4.67108 16.4247 4.68083 17.4956 4.72948C18.4858 4.77477 19.0233 4.94022 19.3813 5.07926C19.8553 5.26329 20.1932 5.48338 20.5484 5.83895C20.9039 6.19441 21.1239 6.53292 21.3084 7.00691C21.4475 7.36441 21.6131 7.90188 21.6582 8.89212C21.7069 9.96279 21.7174 10.2843 21.7174 12.9948C21.7174 15.7053 21.7069 16.027 21.6582 17.0976C21.6129 18.0878 21.4475 18.6253 21.3084 18.9829C21.1244 19.4569 20.9039 19.7943 20.5484 20.1496C20.193 20.5051 19.8555 20.7251 19.3813 20.9092C19.0237 21.0488 18.4858 21.2139 17.4956 21.2592C16.4249 21.3078 16.1034 21.3184 13.3915 21.3184C10.6796 21.3184 10.3582 21.3078 9.2876 21.2592C8.29737 21.2135 7.7599 21.048 7.40159 20.909C6.9277 20.7249 6.58909 20.5049 6.23362 20.1494C5.87815 19.7939 5.65816 19.4562 5.47362 18.982C5.33459 18.6244 5.16894 18.087 5.12384 17.0967C5.0752 16.0261 5.06545 15.7045 5.06545 12.9923C5.06545 10.2802 5.0752 9.96025 5.12384 8.88958C5.16914 7.89934 5.33459 7.36188 5.47362 7.00387C5.65776 6.52988 5.87815 6.19137 6.23372 5.8359C6.58919 5.48043 6.9277 5.26034 7.40169 5.07591C7.7597 4.93626 8.29737 4.77122 9.2876 4.72572C10.2245 4.68337 10.5876 4.67067 12.4804 4.66854V4.67108ZM18.8129 6.35742C18.1401 6.35742 17.5942 6.90281 17.5942 7.57577C17.5942 8.24862 18.1401 8.79452 18.8129 8.79452C19.4858 8.79452 20.0317 8.24862 20.0317 7.57577C20.0317 6.90292 19.4858 6.35702 18.8129 6.35702V6.35742ZM13.3915 7.78143C10.5112 7.78143 8.1759 10.1168 8.1759 12.9972C8.1759 15.8776 10.5112 18.2118 13.3915 18.2118C16.272 18.2118 18.6065 15.8776 18.6065 12.9972C18.6065 10.1169 16.2718 7.78143 13.3913 7.78143H13.3915ZM13.3915 9.61169C15.2612 9.61169 16.777 11.1273 16.777 12.9972C16.777 14.8668 15.2612 16.3827 13.3915 16.3827C11.5218 16.3827 10.0062 14.8668 10.0062 12.9972C10.0062 11.1273 11.5218 9.61169 13.3915 9.61169Z" fill="white"/>
</g>
<defs>
<radialGradient id="paint0_radial_198_55458" cx="0" cy="0" r="1" gradientUnits="userSpaceOnUse" gradientTransform="translate(7.29687 27.9996) rotate(-90) scale(25.7679 23.9662)">
<stop stop-color="#FFDD55"/>
<stop offset="0.1" stop-color="#FFDD55"/>
<stop offset="0.5" stop-color="#FF543E"/>
<stop offset="1" stop-color="#C837AB"/>
</radialGradient>
<radialGradient id="paint1_radial_198_55458" cx="0" cy="0" r="1" gradientUnits="userSpaceOnUse" gradientTransform="translate(-3.96448 1.86998) rotate(78.681) scale(11.5184 47.4792)">
<stop stop-color="#3771C8"/>
<stop offset="0.128" stop-color="#3771C8"/>
<stop offset="1" stop-color="#6600FF" stop-opacity="0"/>
</radialGradient>
<clipPath id="clip0_198_55458">
<rect width="26" height="26" fill="white" transform="translate(0.398438)"/>
</clipPath>
</defs>
</svg>
