<svg width="20" height="20" viewBox="0 0 20 20" fill="none" xmlns="http://www.w3.org/2000/svg">
<path d="M5.00391 6.66602H8.33724" stroke="#575656" stroke-width="1.125" stroke-linecap="round" stroke-linejoin="round"/>
<path d="M17.3647 7.50195H15.1964C13.7089 7.50195 12.5039 8.62112 12.5039 10.002C12.5039 11.3828 13.7097 12.502 15.1956 12.502H17.3647C17.4347 12.502 17.4689 12.502 17.4981 12.5003C17.9481 12.4728 18.3064 12.1403 18.3356 11.7228C18.3372 11.6961 18.3372 11.6636 18.3372 11.5995V8.40445C18.3372 8.34029 18.3372 8.30779 18.3356 8.28112C18.3056 7.86362 17.9481 7.53112 17.4981 7.50362C17.4697 7.50195 17.4347 7.50195 17.3647 7.50195Z" stroke="#575656" stroke-width="1.125"/>
<path d="M17.4721 7.50065C17.4071 5.94065 17.1988 4.98398 16.5246 4.31065C15.5488 3.33398 13.9771 3.33398 10.8346 3.33398H8.33463C5.19214 3.33398 3.62047 3.33398 2.64464 4.31065C1.66797 5.28648 1.66797 6.85815 1.66797 10.0006C1.66797 13.1431 1.66797 14.7148 2.64464 15.6906C3.62047 16.6673 5.19214 16.6673 8.33463 16.6673H10.8346C13.9771 16.6673 15.5488 16.6673 16.5246 15.6906C17.1988 15.0173 17.408 14.0606 17.4721 12.5006" stroke="#575656" stroke-width="1.125"/>
<path d="M14.9961 10.002H15.0061" stroke="#575656" stroke-width="1.5" stroke-linecap="round" stroke-linejoin="round"/>
</svg>
