<svg width="18" height="18" viewBox="0 0 18 18" fill="none" xmlns="http://www.w3.org/2000/svg">
<path d="M4.50391 5.99902H7.50391" stroke="#575656" stroke-width="1.125" stroke-linecap="round" stroke-linejoin="round"/>
<path d="M15.6287 6.75293H13.6772C12.3384 6.75293 11.2539 7.76018 11.2539 9.00293C11.2539 10.2457 12.3392 11.2529 13.6764 11.2529H15.6287C15.6917 11.2529 15.7224 11.2529 15.7487 11.2514C16.1537 11.2267 16.4762 10.9274 16.5024 10.5517C16.5039 10.5277 16.5039 10.4984 16.5039 10.4407V7.56518C16.5039 7.50743 16.5039 7.47818 16.5024 7.45418C16.4754 7.07843 16.1537 6.77918 15.7487 6.75443C15.7232 6.75293 15.6917 6.75293 15.6287 6.75293Z" stroke="#575656" stroke-width="1.125"/>
<path d="M15.7238 6.75098C15.6653 5.34698 15.4777 4.48598 14.871 3.87998C13.9927 3.00098 12.5782 3.00098 9.75 3.00098H7.5C4.67175 3.00098 3.25725 3.00098 2.379 3.87998C1.5 4.75823 1.5 6.17273 1.5 9.00098C1.5 11.8292 1.5 13.2437 2.379 14.122C3.25725 15.001 4.67175 15.001 7.5 15.001H9.75C12.5782 15.001 13.9927 15.001 14.871 14.122C15.4777 13.516 15.666 12.655 15.7238 11.251" stroke="#575656" stroke-width="1.125"/>
<path d="M13.4922 9.00293H13.5022" stroke="#575656" stroke-width="1.5" stroke-linecap="round" stroke-linejoin="round"/>
</svg>
