<svg width="91" height="84" viewBox="0 0 91 84" fill="none" xmlns="http://www.w3.org/2000/svg">
<path d="M1.50911 46.1258C3.80805 68.5112 23.4948 84.7687 45.4684 82.4279C54.3485 81.4817 62.243 77.6416 68.3562 71.9066L88.3719 74.8991L78.3574 57.2705C80.7869 51.2472 81.8113 44.5451 81.1026 37.6435C78.8049 15.258 59.1169 -0.99944 37.1433 1.34136C15.1697 3.68462 -0.788623 23.7403 1.50911 46.1258Z" fill="white"/>
<path d="M13.4867 12.463C17.8318 8.14359 23.1335 4.80856 28.9166 2.82504C34.7069 0.864928 40.9458 0.301904 47.0082 1.12242C53.0657 1.95771 58.9818 4.15067 64.084 7.64955C69.1886 11.1373 73.5131 15.8152 76.6151 21.2434C82.8359 32.0838 83.9291 45.9376 79.0797 57.5714L79.0338 56.8741L88.989 74.5373L89.7243 75.8408L88.2731 75.6141L68.2767 72.486L68.7496 72.3369C63.2108 77.451 56.2777 80.9425 48.9552 82.294C47.1255 82.6352 45.2764 82.8373 43.4189 82.8804C41.565 83.0455 39.7111 82.8742 37.8596 82.7732C34.1893 82.3235 30.508 81.6238 27.0881 80.1564C23.6511 78.7791 20.363 76.9791 17.4364 74.6827C15.9017 73.6281 14.6041 72.2741 13.2134 71.0409C11.9883 69.6376 10.6363 68.3403 9.58658 66.788C5.01772 60.8621 2.34751 53.5674 1.51186 46.1261C0.211828 33.8505 4.6525 21.018 13.4867 12.463ZM9.7063 66.6919C10.7621 68.2307 12.1177 69.5132 13.3452 70.9017C14.7383 72.1201 16.036 73.4568 17.5706 74.4954C20.4863 76.7746 23.7975 78.4883 27.2211 79.7942C30.6314 81.1864 34.2836 81.811 37.9067 82.1917C39.734 82.2582 41.5589 82.3962 43.3814 82.2003C45.2063 82.1264 47.0203 81.896 48.8089 81.5277C55.9693 80.0739 62.6715 76.5393 67.9671 71.4745L68.1643 71.286L68.4412 71.3255L88.4762 74.1837L87.7603 75.2592L77.6865 57.6663L77.4955 57.3324L77.6394 56.9677C79.8621 51.3609 80.8296 45.2502 80.4559 39.2109C79.9807 33.1926 78.4097 27.1965 75.3779 21.9642C72.4042 16.7195 68.2876 12.1537 63.4067 8.66226C58.515 5.17816 52.7924 2.93592 46.8836 2.01192C40.97 1.10394 34.829 1.5413 29.0895 3.37082C23.3585 5.22621 18.0471 8.42325 13.6596 12.6441C4.82302 21.0833 0.295273 33.8382 1.51065 46.1224C2.39709 53.56 5.11447 60.819 9.7063 66.6919Z" fill="#263238"/>
<path d="M41.7527 83.2579C40.7598 83.2579 39.767 83.1963 38.7947 83.1371L37.8417 83.0805C34.7591 82.7035 30.7586 82.0653 26.9686 80.4403C23.3188 78.9767 20.0464 77.1213 17.2504 74.9271C16.1487 74.1706 15.1486 73.2405 14.1799 72.3411C13.7941 71.9826 13.4071 71.6229 13.0141 71.273C12.6283 70.8356 12.2583 70.434 11.8894 70.0324C11.0054 69.0714 10.0911 68.0784 9.3365 66.9622C4.90671 61.2174 2.09259 54.0188 1.20978 46.1611C-0.107183 33.7216 4.5161 20.7277 13.2765 12.2442C17.6749 7.87303 23.0503 4.5146 28.8201 2.53601C34.591 0.580822 40.8916 -0.0129984 47.0471 0.818602C53.2825 1.67854 59.2324 3.95404 64.2511 7.39501C69.4017 10.9148 73.7674 15.6506 76.8741 21.0887C83.1216 31.9734 84.135 45.7558 79.5589 57.1937L90.2965 76.2416L68.6337 72.8549C63.0696 77.8876 56.2913 81.2534 49.0063 82.5975C47.1306 82.9474 45.2525 83.147 43.4228 83.1889C42.8701 83.2382 42.3114 83.2579 41.7527 83.2579ZM39.7609 82.5778C40.9654 82.6456 42.1905 82.6825 43.3913 82.5741C45.209 82.531 47.0556 82.3363 48.8999 81.9914C55.9116 80.6978 62.4456 77.5032 67.8549 72.7329L67.1741 72.627C61.9631 77.2802 55.6624 80.4538 48.8696 81.8325C47.0326 82.2094 45.1908 82.4374 43.395 82.51C42.1929 82.6382 40.9654 82.6222 39.7609 82.5778ZM1.81203 46.0971C2.73233 53.818 5.54282 60.8749 9.94117 66.5014L9.95327 66.5175C10.6861 67.5856 11.5871 68.5503 12.4578 69.4854C12.8327 69.887 13.2064 70.2874 13.5692 70.6976C13.9416 71.0204 14.3335 71.3789 14.7265 71.7387C15.677 72.6109 16.6602 73.5115 17.7377 74.2409C20.4128 76.3303 23.6345 78.0983 27.3278 79.5077C31.0247 81.0181 34.9393 81.5725 37.9384 81.8867L38.8866 81.9249C40.3535 81.9877 41.8712 82.053 43.3514 81.8953C45.1352 81.8226 46.9456 81.5984 48.7511 81.2275C55.8753 79.7812 62.4492 76.3316 67.763 71.2508L68.0654 70.9613L86.4533 73.5854L77.162 57.3588L77.3627 56.8537C79.5613 51.3072 80.5287 45.2137 80.1575 39.2324C79.6459 32.7668 77.9517 27.0085 75.1206 22.1223C72.1831 16.943 68.0738 12.3772 63.2365 8.91654C58.4887 5.53593 52.8193 3.25426 46.8404 2.31918C40.9074 1.40873 34.8027 1.87566 29.1817 3.66822C23.5184 5.5002 18.2227 8.68369 13.8691 12.8713C5.22235 21.1281 0.603906 33.8584 1.81324 46.0921L1.81203 46.0971ZM88.1149 75.277L89.1477 75.4384L88.6252 74.5107L88.1149 75.277ZM69.2154 72.3214L87.353 75.1587L86.8403 74.263L69.7536 71.8249L69.2154 72.3214ZM87.6009 74.3715L87.7799 74.6832L87.9541 74.422L87.6009 74.3715ZM87.214 73.6939L88.2467 73.8417L79.2662 57.9095L78.8611 58.8803L78.6422 55.5662L79.1755 56.5136C83.4795 45.3406 82.4262 31.982 76.3529 21.4004C73.2909 16.0412 68.9905 11.3756 63.9149 7.90753C58.9712 4.51706 53.1107 2.27729 46.9673 1.42967C41.6632 0.711416 36.2466 1.06993 31.1686 2.46086C36.2599 1.16479 41.662 0.903607 46.9298 1.71303C53.0007 2.6629 58.7583 4.97906 63.5824 8.41388C68.4923 11.9263 72.662 16.5599 75.6418 21.8143C78.5176 26.7781 80.2409 32.6251 80.7597 39.1905C81.137 45.2692 80.1551 51.4563 77.9226 57.0865L77.8331 57.3107L87.214 73.6939ZM68.2673 71.6118L68.1766 71.6993C67.9106 71.9543 67.6421 72.2031 67.37 72.4495L69.4767 71.7843L68.2673 71.6118Z" fill="#263238"/>
<path d="M36.8965 65.1319L19.8086 47.5094L25.5493 41.7313L35.5323 52.0247L56.2712 18.9023L63.0761 23.3228L36.8965 65.1319Z" fill="#FF6477"/>
</svg>
