<svg width="22" height="23" viewBox="0 0 22 23" fill="none" xmlns="http://www.w3.org/2000/svg">
<g clip-path="url(#clip0_198_31750)">
<path d="M11.4452 17.4889C11.167 17.3332 10.8279 17.3332 10.5497 17.4889L6.26623 19.8866C5.58369 20.2687 4.76698 19.6754 4.9194 18.9081L5.87594 14.0933C5.93806 13.7806 5.83325 13.458 5.59918 13.2416L1.99466 9.90856C1.42034 9.37749 1.73226 8.41737 2.50904 8.32524L7.38409 7.74706C7.70065 7.70952 7.97497 7.51021 8.10851 7.22075L10.1651 2.76267C10.4927 2.05242 11.5021 2.05242 11.8298 2.76267L13.8863 7.22075C14.0199 7.51021 14.2942 7.70952 14.6107 7.74706L19.4858 8.32524C20.2626 8.41737 20.5745 9.37749 20.0002 9.90856L16.3957 13.2416C16.1616 13.458 16.0568 13.7806 16.1189 14.0933L17.0754 18.9081C17.2279 19.6754 16.4112 20.2687 15.7286 19.8866L11.4452 17.4889Z" fill="#F9C332"/>
</g>
<defs>
<clipPath id="clip0_198_31750">
<rect width="22" height="22" fill="white" transform="translate(0 0.5)"/>
</clipPath>
</defs>
</svg>
