<svg width="36" height="36" viewBox="0 0 36 36" fill="none" xmlns="http://www.w3.org/2000/svg">
<g clip-path="url(#clip0_198_59879)">
<path d="M0 27C0 28.0609 0.421427 29.0783 1.17157 29.8284C1.92172 30.5786 2.93913 31 4 31H32C33.0609 31 34.0783 30.5786 34.8284 29.8284C35.5786 29.0783 36 28.0609 36 27V22H0V27Z" fill="#138808"/>
<path d="M36 14V9C36 7.93913 35.5786 6.92172 34.8284 6.17157C34.0783 5.42143 33.0609 5 32 5H4C2.93913 5 1.92172 5.42143 1.17157 6.17157C0.421427 6.92172 0 7.93913 0 9L0 14H36Z" fill="#FF9933"/>
<path d="M0 13.667H36V22.334H0V13.667Z" fill="#F7F7F7"/>
<path d="M18 22C20.2091 22 22 20.2091 22 18C22 15.7909 20.2091 14 18 14C15.7909 14 14 15.7909 14 18C14 20.2091 15.7909 22 18 22Z" fill="#000080"/>
<path d="M18 21.375C19.864 21.375 21.375 19.864 21.375 18C21.375 16.136 19.864 14.625 18 14.625C16.136 14.625 14.625 16.136 14.625 18C14.625 19.864 16.136 21.375 18 21.375Z" fill="#F7F7F7"/>
<path d="M18.1008 16.7498L18.0008 17.3998L17.9008 16.7498L18.0008 14.7998L18.1008 16.7498ZM17.1728 14.9088L17.5808 16.8178L17.8458 17.4198L17.7738 16.7668L17.1728 14.9088ZM16.4008 15.2288L17.2888 16.9668L17.7008 17.4798L17.4628 16.8668L16.4008 15.2288ZM15.7378 15.7368L17.0458 17.1868L17.5768 17.5758L17.1878 17.0448L15.7378 15.7368ZM15.2298 16.3998L16.8678 17.4618L17.4808 17.6998L16.9678 17.2878L15.2298 16.3998ZM14.9098 17.1718L16.7678 17.7728L17.4208 17.8448L16.8188 17.5798L14.9098 17.1718ZM14.8008 17.9998L16.7508 18.0998L17.4008 17.9998L16.7508 17.8998L14.8008 17.9998ZM14.9098 18.8278L16.8188 18.4198L17.4208 18.1548L16.7678 18.2268L14.9098 18.8278ZM15.2298 19.5998L16.9678 18.7118L17.4808 18.2998L16.8678 18.5378L15.2298 19.5998ZM15.7378 20.2628L17.1878 18.9548L17.5768 18.4238L17.0458 18.8128L15.7378 20.2628ZM16.4008 20.7708L17.4628 19.1328L17.7008 18.5198L17.2888 19.0328L16.4008 20.7708ZM17.1728 21.0908L17.7738 19.2328L17.8458 18.5798L17.5808 19.1818L17.1728 21.0908ZM18.0008 21.1998L18.1008 19.2498L18.0008 18.5998L17.9008 19.2498L18.0008 21.1998ZM18.8288 21.0908L18.4208 19.1818L18.1558 18.5798L18.2278 19.2328L18.8288 21.0908ZM19.6008 20.7708L18.7128 19.0328L18.3008 18.5198L18.5388 19.1328L19.6008 20.7708ZM20.2638 20.2628L18.9558 18.8128L18.4248 18.4238L18.8138 18.9548L20.2638 20.2628ZM20.7718 19.5998L19.1338 18.5378L18.5208 18.2998L19.0338 18.7118L20.7718 19.5998ZM21.0918 18.8278L19.2338 18.2268L18.5808 18.1548L19.1828 18.4198L21.0918 18.8278ZM21.2008 17.9998L19.2508 17.8998L18.6008 17.9998L19.2508 18.0998L21.2008 17.9998ZM21.0918 17.1718L19.1828 17.5798L18.5808 17.8448L19.2338 17.7728L21.0918 17.1718ZM20.7718 16.3998L19.0338 17.2878L18.5208 17.6998L19.1338 17.4618L20.7718 16.3998ZM20.2638 15.7368L18.8138 17.0448L18.4248 17.5758L18.9558 17.1868L20.2638 15.7368ZM19.6008 15.2288L18.5388 16.8668L18.3008 17.4798L18.7128 16.9668L19.6008 15.2288ZM18.8288 14.9088L18.2278 16.7668L18.1558 17.4198L18.4208 16.8178L18.8288 14.9088Z" fill="#6666B3"/>
<path d="M17.5633 14.859C17.6737 14.859 17.7633 14.7694 17.7633 14.659C17.7633 14.5485 17.6737 14.459 17.5633 14.459C17.4528 14.459 17.3633 14.5485 17.3633 14.659C17.3633 14.7694 17.4528 14.859 17.5633 14.859Z" fill="#000080"/>
<path d="M16.7117 15.087C16.8222 15.087 16.9117 14.9975 16.9117 14.887C16.9117 14.7766 16.8222 14.687 16.7117 14.687C16.6013 14.687 16.5117 14.7766 16.5117 14.887C16.5117 14.9975 16.6013 15.087 16.7117 15.087Z" fill="#000080"/>
<path d="M15.95 15.526C16.0605 15.526 16.15 15.4364 16.15 15.326C16.15 15.2155 16.0605 15.126 15.95 15.126C15.8395 15.126 15.75 15.2155 15.75 15.326C15.75 15.4364 15.8395 15.526 15.95 15.526Z" fill="#000080"/>
<path d="M15.3289 16.148C15.4394 16.148 15.5289 16.0585 15.5289 15.948C15.5289 15.8376 15.4394 15.748 15.3289 15.748C15.2184 15.748 15.1289 15.8376 15.1289 15.948C15.1289 16.0585 15.2184 16.148 15.3289 16.148Z" fill="#000080"/>
<path d="M14.8875 16.9098C14.998 16.9098 15.0875 16.8202 15.0875 16.7098C15.0875 16.5993 14.998 16.5098 14.8875 16.5098C14.777 16.5098 14.6875 16.5993 14.6875 16.7098C14.6875 16.8202 14.777 16.9098 14.8875 16.9098Z" fill="#000080"/>
<path d="M14.6609 17.7599C14.7714 17.7599 14.8609 17.6703 14.8609 17.5599C14.8609 17.4494 14.7714 17.3599 14.6609 17.3599C14.5505 17.3599 14.4609 17.4494 14.4609 17.5599C14.4609 17.6703 14.5505 17.7599 14.6609 17.7599Z" fill="#000080"/>
<path d="M14.6609 18.6397C14.7714 18.6397 14.8609 18.5502 14.8609 18.4397C14.8609 18.3293 14.7714 18.2397 14.6609 18.2397C14.5505 18.2397 14.4609 18.3293 14.4609 18.4397C14.4609 18.5502 14.5505 18.6397 14.6609 18.6397Z" fill="#000080"/>
<path d="M14.8875 19.4898C14.998 19.4898 15.0875 19.4003 15.0875 19.2898C15.0875 19.1794 14.998 19.0898 14.8875 19.0898C14.777 19.0898 14.6875 19.1794 14.6875 19.2898C14.6875 19.4003 14.777 19.4898 14.8875 19.4898Z" fill="#000080"/>
<path d="M15.3289 20.2521C15.4394 20.2521 15.5289 20.1625 15.5289 20.0521C15.5289 19.9416 15.4394 19.8521 15.3289 19.8521C15.2184 19.8521 15.1289 19.9416 15.1289 20.0521C15.1289 20.1625 15.2184 20.2521 15.3289 20.2521Z" fill="#000080"/>
<path d="M15.95 20.8741C16.0605 20.8741 16.15 20.7846 16.15 20.6741C16.15 20.5637 16.0605 20.4741 15.95 20.4741C15.8395 20.4741 15.75 20.5637 15.75 20.6741C15.75 20.7846 15.8395 20.8741 15.95 20.8741Z" fill="#000080"/>
<path d="M16.7117 21.3131C16.8222 21.3131 16.9117 21.2235 16.9117 21.1131C16.9117 21.0026 16.8222 20.9131 16.7117 20.9131C16.6013 20.9131 16.5117 21.0026 16.5117 21.1131C16.5117 21.2235 16.6013 21.3131 16.7117 21.3131Z" fill="#000080"/>
<path d="M17.5633 21.5411C17.6737 21.5411 17.7633 21.4516 17.7633 21.3411C17.7633 21.2307 17.6737 21.1411 17.5633 21.1411C17.4528 21.1411 17.3633 21.2307 17.3633 21.3411C17.3633 21.4516 17.4528 21.5411 17.5633 21.5411Z" fill="#000080"/>
<path d="M18.4422 21.5411C18.5526 21.5411 18.6422 21.4516 18.6422 21.3411C18.6422 21.2307 18.5526 21.1411 18.4422 21.1411C18.3317 21.1411 18.2422 21.2307 18.2422 21.3411C18.2422 21.4516 18.3317 21.5411 18.4422 21.5411Z" fill="#000080"/>
<path d="M19.2938 21.3131C19.4042 21.3131 19.4937 21.2235 19.4937 21.1131C19.4937 21.0026 19.4042 20.9131 19.2938 20.9131C19.1833 20.9131 19.0938 21.0026 19.0938 21.1131C19.0938 21.2235 19.1833 21.3131 19.2938 21.3131Z" fill="#000080"/>
<path d="M20.0555 20.8741C20.1659 20.8741 20.2555 20.7846 20.2555 20.6741C20.2555 20.5637 20.1659 20.4741 20.0555 20.4741C19.945 20.4741 19.8555 20.5637 19.8555 20.6741C19.8555 20.7846 19.945 20.8741 20.0555 20.8741Z" fill="#000080"/>
<path d="M20.6766 20.2521C20.787 20.2521 20.8766 20.1625 20.8766 20.0521C20.8766 19.9416 20.787 19.8521 20.6766 19.8521C20.5661 19.8521 20.4766 19.9416 20.4766 20.0521C20.4766 20.1625 20.5661 20.2521 20.6766 20.2521Z" fill="#000080"/>
<path d="M21.1141 19.4898C21.2245 19.4898 21.3141 19.4003 21.3141 19.2898C21.3141 19.1794 21.2245 19.0898 21.1141 19.0898C21.0036 19.0898 20.9141 19.1794 20.9141 19.2898C20.9141 19.4003 21.0036 19.4898 21.1141 19.4898Z" fill="#000080"/>
<path d="M21.3445 18.6397C21.455 18.6397 21.5445 18.5502 21.5445 18.4397C21.5445 18.3293 21.455 18.2397 21.3445 18.2397C21.2341 18.2397 21.1445 18.3293 21.1445 18.4397C21.1445 18.5502 21.2341 18.6397 21.3445 18.6397Z" fill="#000080"/>
<path d="M21.3445 17.7599C21.455 17.7599 21.5445 17.6703 21.5445 17.5599C21.5445 17.4494 21.455 17.3599 21.3445 17.3599C21.2341 17.3599 21.1445 17.4494 21.1445 17.5599C21.1445 17.6703 21.2341 17.7599 21.3445 17.7599Z" fill="#000080"/>
<path d="M21.1141 16.9098C21.2245 16.9098 21.3141 16.8202 21.3141 16.7098C21.3141 16.5993 21.2245 16.5098 21.1141 16.5098C21.0036 16.5098 20.9141 16.5993 20.9141 16.7098C20.9141 16.8202 21.0036 16.9098 21.1141 16.9098Z" fill="#000080"/>
<path d="M20.6766 16.148C20.787 16.148 20.8766 16.0585 20.8766 15.948C20.8766 15.8376 20.787 15.748 20.6766 15.748C20.5661 15.748 20.4766 15.8376 20.4766 15.948C20.4766 16.0585 20.5661 16.148 20.6766 16.148Z" fill="#000080"/>
<path d="M20.0555 15.526C20.1659 15.526 20.2555 15.4364 20.2555 15.326C20.2555 15.2155 20.1659 15.126 20.0555 15.126C19.945 15.126 19.8555 15.2155 19.8555 15.326C19.8555 15.4364 19.945 15.526 20.0555 15.526Z" fill="#000080"/>
<path d="M19.2938 15.087C19.4042 15.087 19.4937 14.9975 19.4937 14.887C19.4937 14.7766 19.4042 14.687 19.2938 14.687C19.1833 14.687 19.0938 14.7766 19.0938 14.887C19.0938 14.9975 19.1833 15.087 19.2938 15.087Z" fill="#000080"/>
<path d="M18.4422 14.859C18.5526 14.859 18.6422 14.7694 18.6422 14.659C18.6422 14.5485 18.5526 14.459 18.4422 14.459C18.3317 14.459 18.2422 14.5485 18.2422 14.659C18.2422 14.7694 18.3317 14.859 18.4422 14.859Z" fill="#000080"/>
<path d="M18.0016 18.9001C18.4986 18.9001 18.9016 18.4972 18.9016 18.0001C18.9016 17.503 18.4986 17.1001 18.0016 17.1001C17.5045 17.1001 17.1016 17.503 17.1016 18.0001C17.1016 18.4972 17.5045 18.9001 18.0016 18.9001Z" fill="#000080"/>
</g>
<defs>
<clipPath id="clip0_198_59879">
<rect width="36" height="36" fill="white"/>
</clipPath>
</defs>
</svg>
