<svg width="24" height="25" viewBox="0 0 24 25" fill="none" xmlns="http://www.w3.org/2000/svg">
<circle cx="9" cy="7.5" r="4" stroke="white" stroke-linecap="round" stroke-linejoin="round"/>
<circle cx="9" cy="7.5" r="4" stroke="white" stroke-linecap="round" stroke-linejoin="round"/>
<path d="M3 21.5V19.5C3 17.2909 4.79086 15.5 7 15.5H11C13.2091 15.5 15 17.2909 15 19.5V21.5" stroke="white" stroke-linecap="round" stroke-linejoin="round"/>
<path d="M3 21.5V19.5C3 17.2909 4.79086 15.5 7 15.5H11C13.2091 15.5 15 17.2909 15 19.5V21.5" stroke="white" stroke-linecap="round" stroke-linejoin="round"/>
<path d="M16 3.62891C17.7699 4.08208 19.0078 5.6769 19.0078 7.50391C19.0078 9.33092 17.7699 10.9257 16 11.3789" stroke="white" stroke-linecap="round" stroke-linejoin="round"/>
<path d="M16 3.62891C17.7699 4.08208 19.0078 5.6769 19.0078 7.50391C19.0078 9.33092 17.7699 10.9257 16 11.3789" stroke="white" stroke-linecap="round" stroke-linejoin="round"/>
<path d="M21 21.4984V19.4984C20.9896 17.683 19.7578 16.1023 18 15.6484" stroke="white" stroke-linecap="round" stroke-linejoin="round"/>
<path d="M21 21.4984V19.4984C20.9896 17.683 19.7578 16.1023 18 15.6484" stroke="white" stroke-linecap="round" stroke-linejoin="round"/>
</svg>
