<svg width="75" height="106" viewBox="0 0 75 106" fill="none" xmlns="http://www.w3.org/2000/svg">
<path fill-rule="evenodd" clip-rule="evenodd" d="M33.3003 105.204L34.6071 86.399C38.3695 78.1981 34.6876 56.4393 34.6071 54.0752C34.586 53.4585 32.7208 53.3046 32.5267 53.3046C32.2611 53.3026 32.0438 53.5813 32.2853 53.9313C32.4442 54.1617 32.5146 54.5249 32.1655 54.5028C31.7631 54.4756 31.1636 54.5752 30.9764 54.1768C30.8346 53.872 30.1747 53.4183 30.904 52.9958C31.0318 52.9233 30.9432 52.8248 30.8799 52.7795C30.8125 52.7302 30.6938 52.6769 30.6344 52.701C30.3688 52.8268 30.0338 53.0471 30.1374 53.3217C30.3477 53.872 29.9181 54.0541 29.6777 54.3398C29.5308 54.5128 29.4795 54.878 29.1335 54.7704C28.8508 54.6838 29.0057 54.372 28.9142 54.204C28.7079 53.8428 28.5278 53.0079 27.9937 54.0078C27.8116 54.3458 27.6295 54.0943 27.4554 53.9847C27.2703 53.869 27.0621 53.6386 26.87 53.869C26.0038 54.9122 26.1688 53.8046 25.9605 53.3409C25.8348 53.706 25.871 54.1054 25.4092 54.1155C25.3791 54.0249 25.3509 53.9384 25.3177 53.8579C25.0783 53.2664 24.3318 52.7181 25.1728 52.033C25.207 52.0079 25.1517 51.7906 25.1225 51.7886C24.4938 51.7162 24.3147 50.9475 23.5662 50.9043C23.0753 50.8771 23.0059 50.8077 23.0351 51.3017C23.0693 51.9133 22.7685 51.86 22.4114 51.5471C22.1498 51.3188 21.855 51.1065 21.6629 50.8258C21.3209 50.3329 21.017 49.845 20.2384 50.0492C20.4094 50.684 20.8712 51.3188 20.3833 51.9958C21.6317 52.9586 20.0875 52.5934 19.9205 52.8388C19.8159 52.9857 19.3239 52.9445 19.0684 52.534C18.8884 52.2433 18.5373 51.9123 18.0322 51.9858C18.1288 52.3318 18.2173 52.6517 18.3069 52.9716C17.8431 52.4274 16.5484 53.5018 16.6661 51.9616C16.2194 52.7886 15.3301 52.8479 14.8 53.6215C14.6843 53.1477 14.6058 52.7201 14.1551 52.7081C13.6481 52.698 14.1923 53.2523 13.792 53.4274C13.5093 53.5511 13.9026 53.8931 13.9771 53.9283C14.6823 54.2664 14.5394 54.6255 14.2356 55.2311C13.8714 55.9605 13.2437 55.9564 12.8202 55.7321C12.0938 55.3488 11.9973 56.047 11.6019 56.1878C11.0295 56.394 11.5154 56.6063 11.5606 56.7522C11.6301 56.9836 11.5747 57.2411 11.4138 57.1958C10.9238 57.05 10.2197 57.1737 10.0557 56.5037C9.94401 56.056 9.83737 55.879 9.4229 56.1677C9.15832 56.3528 8.4682 56.2623 8.98126 56.9715C9.24684 57.3407 9.32632 57.9423 8.48329 57.555C8.33843 57.4906 8.25995 57.559 8.14225 57.6103C7.8988 57.7159 7.68855 58.4101 7.36663 57.6888C7.23384 57.392 6.79523 57.1878 6.94009 56.8206C7.13626 56.3297 6.86161 56.2884 6.52259 56.221C6.25198 56.1717 5.88077 56.221 5.9874 55.7391C6.10309 55.2281 5.94414 55.1064 5.42102 55.1888C5.11017 55.2402 4.77216 55.4917 4.47941 54.9927C4.15146 54.4344 4.31845 52.9807 4.90595 52.4304C5.50352 51.8711 5.44718 51.2856 4.6796 51.1518C3.73396 50.9868 3.98648 50.2675 3.95529 49.7826C3.92712 49.3188 4.65546 49.1146 5.2329 49.346C5.44215 49.4305 5.55181 49.2756 5.59205 49.1378C5.70473 48.7354 5.89687 48.2867 5.25605 48.1197C4.84057 48.0101 4.79228 47.664 5.1142 47.5262C5.91497 47.1821 5.31036 46.7284 5.37575 46.3512C5.48742 45.7043 5.62926 45.1309 5.37374 44.5082C5.97633 44.2748 5.46831 44.0404 5.36972 43.816C5.18864 43.4217 4.95725 43.6611 4.6796 43.7084C4.34561 43.7637 4.29229 44.3643 3.71787 44.0585C3.48548 43.9347 2.77425 43.982 2.58914 43.8029C2.31752 43.5434 2.80644 43.1993 3.00059 42.9016C3.07001 42.7919 3.08409 42.646 3.12332 42.5143C2.65955 42.9388 2.28935 43.0032 2.05696 42.3372C1.95033 42.0263 1.69077 42.1561 1.4946 42.0998C1.03084 41.96 0.942318 41.4791 0.77834 41.1451C0.696854 40.9781 0.614352 40.29 0.963434 40.2397C1.93121 40.0979 1.58314 39.3142 1.47248 38.9923C1.30649 38.5124 1.4775 38.2891 1.78534 38.2277C2.27526 38.1331 2.23804 37.941 2.08111 37.5929C1.82156 37.0255 1.68273 36.4883 2.4996 36.2217C2.98047 36.0628 3.25612 35.7781 3.19174 35.1765C3.13641 34.6655 2.99959 34.5749 2.4825 34.4693C1.83565 34.3335 1.99258 33.5418 2.05797 33.086C2.13041 32.569 2.55895 33.1192 2.83057 33.0549C2.9191 33.0337 3.01769 33.0528 3.06095 33.0528C3.02172 32.2822 3.1354 31.6797 3.84664 31.1525C4.28526 30.8306 4.78222 30.6887 5.22084 30.5187C5.99546 30.2179 6.14534 29.2703 7.10808 29.1013C7.66239 29.0007 7.85655 29.0228 8.1322 29.5027C8.18853 29.1073 8.38772 28.8588 8.60703 28.724C8.97724 28.4967 9.46414 28.1848 9.83435 28.6375C10.2257 29.1154 10.8816 29.1818 11.2116 28.6717C11.7357 27.8589 11.4671 26.3016 10.7025 25.7372C10.608 25.6668 10.4963 25.4968 10.3887 25.6155C9.3243 26.7935 9.81423 24.9455 9.30117 25.0622C9.35449 24.9817 9.5064 24.7765 9.34041 24.8278C8.28813 25.1517 8.29516 24.5883 8.44808 23.852C8.4521 23.8308 8.41287 23.7996 8.39275 23.7765C8.0487 23.3791 8.25594 23.2333 8.66438 23.1618C9.30218 23.0512 9.93897 22.9274 10.5556 22.8118C10.5184 22.5351 10.3766 22.5049 10.2257 22.4315C9.58586 22.1216 9.78707 21.4808 9.78707 20.9849C9.78506 20.5684 10.4893 20.8742 10.6241 20.4477C11.1955 20.8088 11.5103 20.2847 11.8655 20.0392C12.3021 19.7364 12.7226 19.5262 13.3976 19.6781C12.3071 19.326 12.5958 18.6036 12.9419 18.1258C13.3674 17.5343 13.3191 17.0323 13.0224 16.4065C13.6722 16.8532 14.0968 16.2939 14.5887 16.2305C15.5394 16.1058 15.2406 15.642 15.1209 15.1159C15.0464 14.7889 15.0565 14.4438 15.0243 14.0565C15.6531 14.4318 16.5232 13.626 16.9468 14.6108C16.9971 14.7265 17.2234 14.4348 17.313 14.2748C17.494 13.9489 17.6681 13.6179 17.8803 13.2266C17.9809 13.3634 18.0443 13.4228 18.0755 13.4962C18.5725 14.636 18.5212 14.466 19.6449 14.135C20.2756 13.9489 20.003 13.5133 20.2766 13.29C20.7635 12.8876 20.7836 12.5727 20.507 12.0516C20.3752 11.8021 20.3098 11.8202 20.1016 11.9761C19.4708 12.4439 18.9447 12.8835 17.9719 12.4117C17.1641 12.0194 16.6158 11.6522 16.8914 10.8293C17.16 10.0245 18.1842 9.58285 18.6519 10.0748C18.7817 10.2136 18.821 10.6492 19.0584 10.4007C19.2777 10.1714 19.6147 10.0124 19.6992 9.62209C19.8038 9.15531 19.3833 9.34342 19.2616 9.18548C19.1328 9.01849 18.826 9.00541 18.8461 8.71065C18.9034 7.92396 18.9226 7.12117 19.7354 6.66344C19.2817 6.21174 18.8914 4.30034 19.1328 3.76716C19.1972 3.6223 19.3179 3.57905 19.4356 3.65349C19.6549 3.79333 19.8239 3.73195 19.8752 3.51365C20.0432 2.79034 20.4034 2.93521 20.8028 3.29334C21.3903 3.81848 21.9667 4.34964 22.8268 3.79836C22.8721 3.76918 23.0341 3.82652 23.0632 3.88386C23.3409 4.42106 23.6809 4.1082 24.023 3.98647C23.7584 3.53277 23.0985 3.71184 22.8962 3.27523C23.4868 2.41108 24.2372 2.34267 25.1406 2.64045C25.4153 2.73099 25.8619 2.25113 25.9726 2.9332C25.9877 3.0338 26.1507 2.92112 26.2603 2.85673C26.4394 2.75211 26.535 2.19278 26.875 2.67566C27.1285 3.0338 27.3488 3.40702 27.0239 3.84866C26.8317 4.10821 26.4716 4.28425 26.5671 4.73494C26.9504 4.76412 27.1597 4.56292 27.2754 4.25408C27.4917 3.68166 28.059 3.5207 28.4977 3.52976C28.8749 3.53579 29.0671 4.15247 29.4906 4.36474C29.7743 4.50658 29.0872 4.72588 29.3829 4.78121C29.9815 4.89187 30.402 5.82141 31.1696 5.18663C31.24 5.12828 31.5448 5.20474 31.5941 5.29629C32.0267 6.13127 32.571 5.82142 33.0579 5.42606C33.3335 5.64436 32.8949 5.90894 33.1816 6.0025C33.3124 6.04676 33.5568 5.90492 33.4864 5.6343C33.3587 5.14539 33.9341 5.20071 34.0739 4.8466C33.8325 4.58906 33.3667 4.44018 33.4512 3.92108C33.5377 3.3879 34.0447 3.56698 34.3315 3.41909C34.7178 3.21991 35.1061 3.5207 35.3787 3.87581C35.7187 4.31845 36.1624 3.96937 36.5567 4.00156C36.6996 4.01263 36.772 3.98244 36.6895 3.7903C36.3284 2.95532 37.0436 2.52777 37.5305 2.4161C37.9158 2.32758 38.7699 2.54688 38.4701 3.46737C39.2307 2.92212 39.7608 2.33462 40.0264 1.48153C40.1663 1.03989 41.5254 1.22399 41.7728 1.67468C42.0777 1.02682 42.5726 0.590224 43.1068 0.650584C43.7064 0.71698 43.8512 1.46342 44.4015 1.65054C43.9086 2.13342 44.7808 2.61429 44.3935 3.15551C44.2677 3.33156 44.4921 3.75811 44.5564 4.06897C44.989 3.90096 45.2989 5.11219 45.8119 4.18365C45.8321 4.14341 45.997 4.12932 46.0453 4.16755C46.9356 4.87376 47.8944 5.52062 48.2404 6.74794C48.5845 6.38679 49.0543 6.22382 49.0895 5.70171C48.8712 5.60614 48.5724 6.10813 48.4809 5.67857C48.3903 5.26309 48.2193 4.71079 48.6046 4.3939C48.9879 4.07802 49.6398 3.63337 49.9446 3.76617C50.6206 4.06394 51.0562 3.53578 51.6226 3.56093C52.202 3.58709 52.7091 2.85171 53.3338 3.25612C54.4364 3.96736 54.4454 4.53373 54.1517 5.89385C54.044 6.39383 53.7563 6.57692 53.5441 6.88476C53.3439 7.17851 53.2905 7.73483 53.3378 7.73282C53.9957 7.71471 54.1969 8.97222 55.0259 8.23683C55.1084 8.60301 54.9102 8.80923 54.9766 9.12813C55.1355 9.8947 54.373 10.0748 53.8609 10.2589C53.7372 10.3031 52.6034 10.6472 52.9193 9.55871C52.9747 9.36757 52.6698 9.41787 52.5994 9.34645C52.1045 8.85954 51.517 9.23176 50.9858 9.13619C50.4476 9.03962 50.6417 9.8424 50.1719 9.88164C50.2192 10.2337 50.522 10.282 50.7755 10.3887C51.4576 10.6754 52.1014 11.0838 52.9032 10.9168C53.3901 10.8162 53.6537 11.0506 53.8106 11.5295C53.9565 11.9791 54.3408 12.3997 53.6537 12.7226C54.0511 13.0717 54.5279 12.5888 54.8881 12.9801C54.7543 13.121 54.5933 13.2346 54.5189 13.3916C54.4585 13.5153 54.4364 13.7336 54.6446 13.7889C54.7704 13.8221 54.88 13.7286 54.8941 13.5747C54.9846 12.4952 56.0138 12.9258 56.5429 12.5526C56.8809 13.122 57.7864 12.963 57.9926 13.8C58.1324 14.3734 57.9574 15.4146 59.1515 15.2084C59.1786 15.2034 59.2732 15.3543 59.2612 15.4207C59.1968 15.7768 58.9483 16.1792 59.238 16.48C59.6937 16.9578 59.8175 16.2657 60.1142 16.152C60.1394 16.141 60.1867 16.1229 60.1927 16.1309C60.8033 16.8965 61.1041 16.1229 61.3033 15.814C61.9361 14.8332 62.596 15.1319 63.3385 15.5836C63.1815 15.9931 62.4311 16.2124 62.8063 16.5786C63.1192 16.8844 63.0417 17.0434 62.918 17.2607C62.4763 18.0252 62.8335 18.0846 63.5055 18.0373C64.1936 17.99 64.6533 18.2576 64.3485 19.0624C64.2761 19.2525 64.3052 19.3954 64.4451 19.4658C65.1292 19.8139 64.7579 20.3662 64.5235 20.6247C64.2066 20.9728 63.4994 21.1529 63.1936 20.8511C62.9501 20.6136 62.3818 20.4638 62.5196 19.7294C62.7117 18.7234 61.4331 19.843 61.2228 19.0735C61.1937 18.9698 60.7551 19.0755 60.8064 19.3823C60.9361 20.1589 60.2822 21.1941 61.8436 21.6287C60.9965 21.7534 60.7943 22.0422 60.9039 22.5945C60.9452 22.8067 60.7249 23.349 60.584 23.1639C60.081 22.521 59.3658 22.9053 58.8437 22.5663C59.2853 22.9808 58.6827 23.8952 59.6374 23.9576C59.5197 24.1216 59.4644 24.197 59.41 24.2735C58.73 25.2282 58.0972 25.2463 57.3236 24.3288C57.1093 24.0753 55.889 24.034 55.8005 24.2936C55.5943 24.8912 55.0792 25.2091 54.5722 25.2946C54.1768 25.3579 54.539 24.6356 54.1537 24.4485C54.0983 24.4234 54.1265 24.2634 54.0732 24.199C53.527 23.531 53.2875 24.531 52.8449 24.4294C52.7584 24.4093 52.5622 24.2403 52.6427 24.4495C52.8016 24.857 52.9354 25.3107 53.4736 25.4807C53.9273 25.6235 54.2653 25.9817 54.4012 26.4615C54.5722 27.037 53.7905 26.6295 53.7865 27.0722C54.376 27.6637 54.9162 26.542 55.6063 26.9766C55.7572 27.0722 55.8438 25.9535 56.3256 25.543C56.5771 26.2784 56.9343 26.3187 57.398 25.7774C57.9383 25.1457 58.227 25.3318 58.3427 26.0712C58.3859 26.3499 58.4151 26.6356 58.4785 26.9102C58.4926 26.9675 58.6123 26.9987 58.742 27.0732C58.742 26.8921 58.742 26.7724 58.742 26.6507C58.742 26.5289 58.742 26.4052 58.742 26.2714C59.8386 26.5249 59.909 26.4676 59.7088 25.4535C59.6474 25.1507 59.6887 25.0682 60.0116 24.9294C60.5659 24.6899 61.3908 24.9726 61.591 24.0662C62.1413 24.7554 62.8113 25.2785 62.4421 26.2211C62.3868 26.3589 62.6504 26.4706 62.7922 26.4142C63.3717 26.1879 63.2912 26.7342 63.4582 26.9716C63.7389 27.3649 63.3596 27.3488 63.1473 27.4444C62.9622 27.5279 62.921 27.7351 63.0789 27.8146C64.266 28.4101 63.0588 28.724 62.8707 28.7582C62.3083 28.8659 62.3013 29.0972 62.5719 29.4473C62.924 29.9041 62.8747 30.2149 62.2047 30.4745C62.7308 30.5439 62.9944 30.6404 62.8868 31.1927C62.8294 31.4905 63.2167 31.8315 63.1403 32.2561C63.1282 32.3195 63.7338 32.1947 63.8767 32.4865C64.0437 32.8285 63.7902 33.0056 63.4793 33.0931C63.5366 33.1454 63.5849 33.2178 63.6523 33.246C64.5074 33.6232 64.1573 33.7429 63.5698 34.0598C63.1202 34.3013 62.2258 34.1132 62.3023 35.1091C62.3184 35.2992 61.9683 35.1091 61.8013 34.9542C61.5458 34.7127 60.6696 34.6363 60.3929 34.7932C60.1213 34.9501 59.6716 35.1805 59.8175 35.4179C59.9704 35.6694 60.079 36.1493 60.5881 36.1231C61.0317 36.105 61.1383 36.269 60.8627 36.6945C60.749 36.8736 60.7581 37.2328 60.9392 37.4983C61.2983 37.276 61.7158 37.109 61.4693 36.5708C61.3908 36.3958 61.41 36.1976 61.5971 36.2097C62.1121 36.2429 62.3828 36.1785 62.0427 35.603C61.9814 35.4984 62.0759 35.2751 62.2057 35.3515C62.6675 35.6302 63.3727 35.094 63.6966 35.9411C64.0527 36.8786 64.1523 36.8445 65.0034 36.4853C65.0285 36.4732 65.0668 36.4934 65.1 36.4934C66.1804 36.5286 66.8916 35.8073 67.6522 35.1675C67.8313 35.4542 67.5969 35.7711 67.9138 35.9863C68.2397 36.2087 68.0294 36.6684 67.8725 36.7569C67.6804 36.8666 67.5486 36.9058 67.6391 37.1241C67.7296 37.3505 67.9379 37.3032 68.132 37.266C68.3856 37.2207 68.6351 36.8907 68.9047 37.2207C69.4218 37.8514 70.1702 38.2126 70.7316 38.7911C71.0122 39.0798 72.0595 39.4077 70.7768 39.8031C70.6863 39.8303 70.5646 40.0646 70.5917 40.0999C71.0696 40.7306 69.9529 40.9097 70.2125 41.465C70.0988 41.5002 69.969 41.5888 69.8765 41.5596C68.9751 41.287 68.9137 42.0706 69.1531 42.3946C69.802 43.2668 69.631 44.0021 69.1371 44.8039C69.121 44.8291 69.1863 44.9065 69.2135 44.9568C69.5696 44.4991 70.9328 44.0977 71.0837 44.4458C71.2979 44.9448 70.7225 45.3009 70.5002 45.7204C70.4861 45.7435 70.5062 45.7858 70.5253 45.8874C70.7949 46.0483 71.5927 45.7868 71.2778 46.6188C71.2678 46.6519 71.5585 46.7284 71.6802 46.4719C71.9418 45.9135 72.474 45.6117 73.0886 44.986C72.7506 46.1781 73.6822 46.1258 74.1499 46.6087C73.0695 46.9658 73.9256 48.2615 72.7506 48.7364C73.5695 48.7897 73.8532 48.2102 74.495 48.1569C74.3612 48.503 74.3753 48.8088 74.4357 49.1378C74.5574 49.7957 73.821 49.9355 73.4357 50.0824C72.9719 50.2635 73.1349 49.6951 73.1178 49.4416C73.0886 49.011 72.7385 48.9698 72.4679 48.835C72.3733 48.7877 72.148 48.7917 72.1259 48.837C71.9901 49.1438 71.988 49.4969 72.1903 49.7464C72.6188 50.2886 72.477 50.6679 71.9408 50.9878C72.2094 51.3027 72.8703 50.8822 72.8935 51.3922C72.9186 51.854 73.3452 52.694 72.2506 52.6819C72.1742 52.6819 72.0384 52.9294 72.0263 53.0692C71.9931 53.5129 71.7536 53.5521 71.4529 53.3579C70.8794 52.9847 70.6571 53.1517 70.6551 53.7986C70.6551 54.3056 70.4076 54.3489 70.0757 54.038C69.6672 53.6567 69.3071 53.4797 68.96 54.1014C68.7497 54.4766 68.4298 54.4495 68.3805 54.0642C68.3101 53.5451 68.1934 53.5491 67.8403 53.8348C67.4429 54.1547 67.2427 54.0098 67.3534 53.542C67.4047 53.3318 67.4651 53.1668 67.2609 53.0571C66.8192 52.8197 66.5164 52.533 66.442 51.9787C66.4068 51.7262 66.0054 51.6125 65.7076 51.6437C65.277 51.693 65.6875 51.9455 65.6271 52.1024C65.4853 52.4797 65.279 52.3047 65.0225 52.2695C64.2801 52.1638 64.3917 51.1115 63.6151 51.0482C63.434 51.0321 63.4733 50.4335 63.1222 50.7434C62.8978 50.9436 62.6976 51.2484 63.0477 51.6216C63.3717 51.9646 63.1423 52.0823 62.7409 52.194C62.4894 52.2664 61.912 52.3429 61.9924 52.5612C62.1846 53.0762 61.5327 53.1467 61.6011 53.5279C61.9492 53.7543 62.6071 53.4475 62.6524 53.9625C62.6916 54.377 62.1373 54.5581 61.7822 54.7804C61.584 54.9022 61.2631 54.9947 61.3597 55.3307C61.6544 56.3759 61.2259 55.9494 60.6384 55.7985C59.9211 55.6114 60.1726 54.9927 59.8235 54.541C59.2219 55.3367 58.6072 56.0671 57.5781 56.215C57.4856 56.2271 57.1556 56.3015 57.4644 56.6375C57.9513 57.1717 57.6998 57.5811 57.0731 57.9544C56.6134 58.226 55.8035 57.565 55.6255 58.5338C55.6043 58.6495 55.3307 58.4393 55.1798 58.3316C54.4213 57.7874 54.9011 57.0208 54.8669 56.3357C54.1356 56.6124 54.1617 57.2793 53.9887 57.9232C53.5682 57.6304 53.2241 57.2331 52.8238 57.8014C52.7211 57.9483 52.4445 57.729 52.4405 57.5298C52.4344 57.217 52.3912 56.8789 52.0652 56.8759C51.7292 56.8719 51.7353 57.2632 51.6387 57.5258C51.5974 57.6374 51.356 58.06 51.2001 57.6435C50.8329 56.6576 50.5532 57.4584 50.3822 57.6948C50.013 58.2038 49.8591 58.1133 49.6156 57.5982C49.3561 57.05 49.515 56.3779 49.0593 55.9041C49.7826 55.7371 49.6217 54.9333 49.5764 54.6698C49.4939 54.1899 49.4295 53.0762 48.3249 53.8096C48.0754 53.9766 47.9275 53.7976 47.836 53.5561C47.7455 53.3127 47.5211 53.1728 47.3189 53.3298C47.0242 53.5611 47.3642 53.6698 47.4819 53.8287C47.9618 54.4847 48.6217 55.0058 48.9496 55.7743C48.8118 55.7683 48.5704 55.539 48.6036 55.6385C48.7806 56.1908 48.1891 56.5017 48.2444 56.9634C48.333 57.6998 48.0382 57.5429 47.6197 57.2934C47.158 57.0127 46.7354 56.9142 46.6368 57.6626C46.6097 57.8628 46.7395 58.1405 46.4447 58.238C46.1007 58.3467 46.0735 57.8859 45.8693 57.8608C45.486 57.8155 45.6842 57.0892 45.15 57.3025C44.8965 57.4051 44.6037 57.9151 44.4015 57.4463C44.2878 57.1828 44.2124 56.6878 44.6077 56.3186C45.148 55.8136 45.5785 55.5047 46.1499 56.2653C46.2526 56.4031 46.5332 56.8035 46.826 56.395C47.0674 56.055 46.7022 55.9705 46.5453 55.8136C46.4588 55.7271 46.3391 55.6627 46.2214 55.6214C45.4156 55.3307 45.821 54.3267 45.1822 53.8811C44.9508 53.7221 45.3673 53.4606 45.5594 53.2543C45.7797 53.0149 45.5061 52.9143 45.2727 52.8298C44.5534 52.5722 43.7436 52.5511 43.1209 52.022C43.0163 51.9334 42.812 51.9013 42.6732 51.9274C42.0897 52.0411 38.6925 53.9414 38.6824 54.5843C38.6593 56.3116 40.2659 80.2533 40.2659 80.2533C37.9812 92.8797 40.2779 103.456 40.3232 105.211H33.3003V105.204ZM20.2937 38.4138C19.9376 38.4319 19.4487 38.5929 19.1268 37.9832C18.9296 37.608 18.2455 37.4641 17.998 38.2388C17.9256 38.4631 17.8864 38.7991 17.5735 38.8162C17.2214 38.8343 17.314 38.447 17.1761 38.278C16.9991 38.0597 16.7285 37.4762 16.4468 38.2327C16.3693 38.443 16.2224 38.4138 16.0665 38.3333C15.8683 38.2277 15.7245 38.3434 15.7275 38.5084C15.7376 39.0275 16.4548 39.1643 16.4126 39.784C16.3955 39.9962 16.7657 39.8765 16.9729 39.7759C17.2134 39.6623 17.4628 39.6321 17.658 39.8936C17.7113 39.9641 17.7999 40.0113 17.8703 40.0707C18.0825 39.2085 18.9618 39.7156 19.327 39.3715C19.6549 39.0627 19.7445 39.3464 19.9306 39.3876C20.4617 39.5013 21.012 39.792 21.514 39.7196C22.0452 39.6411 22.5834 39.6411 23.1538 39.4661C22.2051 39.1059 21.4285 38.3474 20.2937 38.4138ZM29.893 27.9454C29.8729 28.7934 30.2451 29.3186 31.0247 29.6274C31.4885 29.8105 31.8165 30.1867 31.9875 30.6435C32.1364 31.0358 32.3848 30.8054 32.5991 30.8215C33.076 30.8547 32.7903 30.561 32.7772 30.397C32.7249 29.7813 32.7792 29.1757 32.4683 28.561C32.0348 27.7029 32.9462 28.2502 33.1615 28.0399C33.0559 27.7723 32.7701 27.6878 32.6132 27.7301C31.7883 27.9534 31.5559 27.547 31.6444 26.8488C31.6837 26.5269 31.4201 26.5179 31.3748 26.6034C30.9463 27.4273 30.3437 27.2764 29.6063 26.8317C29.7461 27.3377 29.901 27.6426 29.893 27.9454ZM32.403 41.3282C32.6856 41.47 32.9502 41.6763 33.249 41.7608C33.5709 41.8513 33.7198 42.5233 34.1745 42.0887C34.5749 41.7054 34.7479 41.0536 34.4733 40.6874C34.0297 40.0918 34.0136 39.459 33.8979 38.8152C33.8486 38.5416 33.6916 38.2941 33.411 38.3203C33.075 38.3514 33.2068 38.6623 33.248 38.8564C33.3476 39.3323 32.9321 39.3635 32.6867 39.4953C32.1847 39.7588 32.0056 40.1592 32.0368 40.7407C31.8889 41.0566 32.1364 41.1924 32.403 41.3282ZM42.7296 23.0884C42.6782 22.5532 42.0002 22.6025 41.6058 23.0773C41.3725 23.359 41.301 24.0904 40.5666 23.5482C40.3524 23.3892 40.0777 23.9435 39.8826 24.2171C39.6311 24.5733 39.3615 24.9737 39.4721 25.4123C39.5355 25.6587 39.8594 25.7312 40.0677 25.4364C40.632 24.6537 40.9892 24.6346 41.8362 25.203C42.308 25.5179 42.5082 25.0582 42.5847 24.7181C42.7044 24.1658 42.7416 23.9747 43.4851 24.1759C44.2375 24.3801 43.5595 23.6326 43.7527 23.3168C43.2577 23.7081 42.8432 24.2674 42.7296 23.0884ZM48.1881 38.7227C48.0603 38.8132 47.8189 38.8585 47.832 38.6321C47.8652 38.1623 47.7907 37.94 47.2777 38.1844C46.8491 38.3907 47.0221 38.8605 46.8672 39.0355C46.3481 39.615 47.1248 39.786 47.0775 40.1753C47.0503 40.3976 47.162 40.6884 46.7666 40.5013C46.2797 40.2789 46.321 40.5999 46.3049 40.9037C46.2797 41.3946 46.5332 41.1511 46.7646 41.1119C48.1911 40.8745 49.0382 39.7387 48.8631 38.1533C48.5764 38.3967 48.3963 38.5748 48.1881 38.7227ZM24.9253 14.1692C24.3751 14.1692 24.0944 13.7256 23.8167 13.3342C23.7061 13.1753 24.024 12.6481 23.5019 12.8805C23.2997 12.9701 23.1659 13.4137 23.3781 13.7296C23.4667 13.8584 23.5884 13.974 23.7161 14.0626C24.4566 14.5676 25.1366 15.1038 24.6578 16.143C24.5511 16.3744 24.6769 16.6098 24.7654 16.6279C25.1054 16.7003 24.8489 16.3512 24.9616 16.2758C25.0742 16.2013 25.2694 16.4981 25.3841 16.2235C26.367 16.7707 26.4987 16.3321 26.2613 15.4659C26.2784 14.3583 26.0651 14.1702 24.9253 14.1692ZM57.3004 17.8099C57.5288 17.4176 57.8527 17.0574 57.5208 16.5424C57.1435 15.9599 56.9192 15.301 56.7311 14.5978C56.2482 14.7668 55.7975 15.31 55.3046 14.646C55.21 14.5163 54.9253 14.5555 54.8197 14.7648C54.7412 14.9157 54.5782 15.1913 54.8408 15.2305C55.1647 15.2778 55.039 15.9649 55.4011 15.6732C56.4755 14.8 56.6134 16.0243 56.6828 16.3915C56.7884 16.9518 56.9735 17.7546 56.0208 18.1399C56.6878 18.4437 57.0449 18.2495 57.3004 17.8099ZM45.5745 26.704C45.3975 26.2342 46.2697 25.9867 45.826 25.4465C45.6942 25.2855 45.329 25.2141 45.49 24.8539C45.6238 24.5551 45.5956 24.2403 45.3009 24.0642C45.1631 23.9807 44.8492 23.9878 44.821 24.2101C44.7818 24.5411 44.1098 24.692 44.5635 25.1477C44.6731 25.2533 44.7798 25.4304 44.5927 25.545C44.4236 25.6497 43.9639 25.5451 44.3019 25.9515C44.5735 26.2754 44.7124 26.7432 45.1963 26.882C45.3371 26.8156 45.5785 26.711 45.5745 26.704ZM28.3266 39.4792C28.55 39.5325 28.5107 39.6753 28.4564 39.8363C28.3639 40.1129 28.5429 40.1602 28.7552 40.1743C28.9836 40.1884 29.1153 40.0697 29.1536 39.8564C29.3186 38.9188 28.9081 38.5929 27.8619 38.5164C27.3347 38.4752 26.8921 38.9017 26.3498 38.621C27.4595 40.0566 27.5259 40.0838 28.3266 39.4792ZM61.2047 46.3874C60.6726 46.4839 60.1454 46.6268 59.6173 46.7525C59.7702 47.3692 59.1615 47.9044 59.3225 48.4285C59.4503 48.837 60.0931 48.7233 60.1927 48.346C60.3657 47.6901 60.8627 47.4537 61.3245 47.1358C61.4562 47.0453 61.6011 46.9688 61.5558 46.7545C61.4623 46.6197 61.4442 46.3461 61.2047 46.3874ZM55.9745 34.1152C56.5741 34.6926 56.3498 35.3495 56.1647 36.1765C56.6164 35.7741 57.1133 36.1946 57.5167 35.6201C57.7451 35.3002 58.3246 35.2137 58.3376 34.591C57.8266 34.6484 57.6797 35.088 57.2391 35.253C57.3678 33.926 57.3618 33.921 55.9745 34.1152ZM44.991 40.3946C45.1872 39.8705 45.3874 39.1512 44.4247 39.0053C44.3029 38.9852 44.142 38.954 44.0826 38.8675C43.8724 38.5727 43.6007 38.5929 43.475 38.8454C43.3261 39.1441 43.5102 39.2659 43.8663 39.3705C44.4579 39.5395 44.2184 40.0999 44.2275 40.5415C44.2375 41.0656 43.8301 40.8735 43.4911 40.9781C44.5313 41.8936 44.7768 40.9721 44.991 40.3946ZM26.3981 52.6427C26.8438 52.6115 26.6094 51.9455 26.873 51.6417C27.6405 50.7514 26.5953 50.5371 26.2664 50.0603C26.1547 49.9033 25.9535 49.9677 25.8378 50.0583C25.5833 50.2504 25.8338 50.3711 25.9434 50.4969C26.4676 51.0984 26.4776 51.5421 25.4384 51.7383C25.9414 51.9747 25.9485 52.6779 26.3981 52.6427ZM59.2732 50.3248C59.397 50.2092 59.5086 50.1337 59.4714 49.9536C59.1042 50.2736 58.9372 49.5744 58.573 49.7826C58.4242 49.8671 58.1485 49.8027 58.1958 50.0854C58.2843 50.6115 58.4493 51.1186 57.8638 51.524C57.7713 51.5884 58.1133 51.9827 58.3849 52.032C58.6736 52.0853 58.9825 52.0441 59.576 52.0441C58.5932 51.4174 58.6958 50.859 59.2732 50.3248ZM56.6486 20.3853C56.8588 20.3098 57.0751 20.1941 56.884 19.9034C56.7381 19.6811 56.5379 19.5785 56.3458 19.7978C56.0963 20.0805 55.6617 19.6187 55.4243 20.1398C55.0571 20.9557 55.1889 21.2967 56.3025 21.5442C55.9685 20.9436 56.0882 20.5895 56.6486 20.3853ZM54.8961 40.0405C54.9887 40.5747 54.8468 41.0998 54.546 41.6149C55.2039 40.8896 56.3065 42.7979 56.8649 41.1179C55.4575 41.9036 55.7522 40.1451 54.8961 40.0405ZM63.7942 48.3541C63.7509 48.8299 64.3565 48.9647 64.6704 49.1911C64.8535 49.3249 64.8807 48.8631 64.8847 48.6177C64.8947 48.3561 65.0929 48.1951 65.2559 47.999C65.5426 47.6549 65.3917 47.3742 64.8927 47.1579C64.9239 47.9748 63.8535 47.7113 63.7942 48.3541ZM56.3639 51.4375C56.4896 51.182 56.215 51.1095 56.0631 51.0542C55.3418 50.7755 54.6074 50.522 53.878 50.2685C53.7463 50.2212 53.5913 50.2474 53.6064 50.4124C53.6225 50.6206 53.6275 50.9707 53.9072 50.9133C54.7281 50.7504 55.1788 51.2081 55.5993 51.7755C55.6325 51.8208 55.709 51.8389 55.7703 51.8661C56.0389 51.8258 56.2512 51.6628 56.3639 51.4375ZM69.3614 52.3952C69.5284 52.527 69.6089 52.3952 69.7175 52.2513C69.963 51.9274 70.1652 51.6055 70.0807 51.1719C70.0475 50.9969 69.9982 50.7966 70.2698 50.7222C70.3774 50.693 70.7788 50.862 70.5414 50.5884C70.3785 50.3983 70.4277 50.0814 70.1742 50.015C69.9308 49.9506 69.8976 50.2152 69.7759 50.345C69.3372 50.8067 69.5284 51.5753 68.9801 51.9868C69.1079 52.1216 69.2155 52.2805 69.3614 52.3952ZM13.3453 27.9605C13.7537 27.9162 14.2215 27.4051 14.3121 26.9223C14.4197 26.3599 13.7678 26.5028 13.4841 26.3921C13.1511 26.2664 12.9429 26.5923 13.0224 27.0913C13.133 27.3216 12.959 28.0007 13.3453 27.9605ZM41.7859 12.0053C42.2577 12.1029 42.0163 12.5576 42.1652 12.8222C42.1903 12.8674 41.8292 13.1521 42.1591 13.288C42.2929 13.3423 42.5837 13.2437 42.6662 13.123C42.7718 12.9711 42.975 12.7286 42.7758 12.5254C42.5444 12.286 42.1702 12.1844 42.6289 11.7458C42.802 11.5798 42.4006 11.2971 42.1491 11.4409C41.9227 11.5717 41.5867 11.0345 41.4831 11.5405C41.4952 11.784 41.5545 11.957 41.7859 12.0053ZM36.6795 10.1583C37.0567 10.3021 37.3635 9.96714 37.3786 9.60398C37.3947 9.24584 37.273 8.68953 36.9088 8.69657C36.608 8.70261 36.1885 8.79615 35.6443 9.01345C36.3616 9.24382 36.2006 9.9772 36.6795 10.1583ZM50.9938 38.6633C50.188 38.8092 49.5512 39.1049 49.3772 39.9932C50.011 39.6794 51.2725 40.1592 50.9938 38.6633ZM51.4727 55.5228C51.524 55.9202 51.864 56.3166 52.2171 56.3931C52.4606 56.4464 52.865 56.053 52.858 55.711C52.8439 55.3297 52.4827 55.1667 52.1507 55.1446C51.8228 55.1718 51.4254 55.1436 51.4727 55.5228ZM27.5349 25.4907C27.6959 25.9022 27.8337 26.3267 28.2271 26.5843C28.2794 26.6174 28.4252 26.5903 28.4725 26.539C28.5942 26.4032 28.5339 26.2402 28.4705 26.0943C28.2683 25.6245 27.9554 25.199 27.9474 24.6477C27.4394 24.8177 27.382 25.0984 27.5349 25.4907ZM67.783 48.3289C67.8262 48.6861 68.0556 48.7595 68.3805 48.7163C68.9268 48.6458 68.6964 48.0935 68.9389 47.836C68.7578 47.7042 68.8705 47.3149 68.5023 47.331C68.1663 47.5996 67.7146 47.7786 67.783 48.3289ZM61.4824 33.1444C61.5508 32.922 62.1272 32.903 61.748 32.5136C61.4764 32.237 61.1031 32.2702 60.7581 32.2953C60.4301 32.3185 60.408 32.7058 60.5538 32.7571C61.1001 32.9533 60.8607 33.5367 61.2198 33.9532C61.3345 33.5961 61.411 33.3697 61.4824 33.1444ZM59.5599 52.2695C59.2008 52.6688 59.6243 53.1537 59.6485 53.6095C59.6605 53.7905 60.2068 54.0531 60.5227 54.0712C60.8194 54.0893 60.741 53.7805 60.5438 53.6467C60.4241 53.5622 60.1686 53.6155 60.1002 53.5189C59.7641 53.0451 60.2531 52.8137 60.5287 52.36C60.1404 52.3147 59.6806 52.1377 59.5599 52.2695ZM18.8722 25.5521C19.4205 25.5682 19.7163 25.0924 20.1408 24.8781C20.2907 24.8016 19.7917 24.4656 19.6509 24.4797C19.2012 24.526 18.9175 25.0229 18.333 24.9264C18.5403 25.2342 18.5161 25.542 18.8722 25.5521ZM26.3026 37.3434C25.6567 36.7579 25.1225 36.8263 24.5129 37.5285C25.2091 37.781 25.7362 37.7519 26.3026 37.3434ZM61.1756 28.3015C61.2782 28.4443 61.3758 28.4021 61.4562 28.2613C61.5659 28.0751 61.7862 27.887 61.5015 27.6949C61.1836 27.4806 60.8416 27.2995 60.4462 27.0702C60.2832 27.8498 60.914 27.9474 61.1756 28.3015ZM24.3288 38.9862C24.525 38.8685 24.6225 38.4561 24.525 38.4239C24.0018 38.2549 23.4636 38.3474 22.7011 38.5909C23.3832 38.8112 23.7453 39.3373 24.3288 38.9862ZM39.9238 11.7508C39.8765 11.8192 40.0375 12.129 40.3443 12.1944C41.0304 12.3413 40.9751 11.8172 41.1813 11.3544C40.6351 11.3383 40.1924 11.3534 39.9238 11.7508ZM27.9705 27.0078C27.9876 26.9917 27.7743 26.5752 27.6909 26.5833C27.1114 26.6396 26.873 27.0933 26.6426 27.6285C27.3015 27.7231 27.6124 27.3056 27.9705 27.0078ZM67.8936 42.969C67.1552 43.1973 66.7679 42.2929 65.8243 42.3322C66.5607 43.0122 67.0405 43.7154 67.8936 42.969ZM23.1447 30.6123C22.7705 30.3537 22.3007 30.225 21.8611 30.0741C21.6599 30.0077 21.3762 30.1525 21.5019 30.3225C21.8027 30.726 22.3017 30.8075 22.688 30.7924C23.0119 30.8869 23.2806 30.7058 23.1447 30.6123ZM39.7629 22.9918C39.8785 23.1025 40.0355 22.8932 40.0204 22.8389C39.9087 22.4043 40.7457 21.7504 39.6371 21.5291C39.3715 22.0472 39.3071 22.5542 39.7629 22.9918ZM52.7402 41.3413C52.532 41.4006 52.3037 41.4419 52.369 41.7578C52.5028 42.4197 53.029 41.968 53.3791 42.0918C53.1527 41.8332 53.4123 41.1471 52.7402 41.3413ZM31.7299 39.7125C31.8074 39.618 31.9653 39.4812 31.9422 39.4339C31.7853 39.0999 31.9653 38.5436 31.406 38.4752C31.1334 38.44 31.0861 38.7126 31.069 38.9409C30.9402 39.5003 31.9231 39.1039 31.7299 39.7125ZM17.1057 51.3178C17.2606 51.363 17.4176 51.2846 17.5041 51.1276C17.5634 51.018 17.5011 50.9606 17.4136 50.9114C17.2566 50.8248 17.1087 50.6578 16.9538 50.9234C16.9085 50.9979 16.815 51.0904 16.7415 51.0924C16.0947 51.1196 16.0937 51.1125 16.4408 51.8218C16.4709 51.362 16.6601 51.184 17.1057 51.3178ZM30.4664 52.2061C30.8537 52.2393 30.907 51.8751 30.9956 51.6296C31.1304 51.2604 30.8085 51.3147 30.6032 51.3037C30.3004 51.2876 30.063 51.3741 30.0318 51.7041C29.9564 52.1004 30.2129 52.1869 30.4664 52.2061ZM36.2932 24.5199C36.2761 24.3429 36.3646 24.0059 35.9853 24.0944C35.7308 24.1538 35.6181 24.3872 35.7238 24.6105C35.8817 24.9425 35.769 25.3801 36.3012 25.7593C36.3022 25.2493 36.3223 24.8821 36.2932 24.5199ZM15.3563 45.9196C16.1017 46.1057 16.6399 45.6932 17.3019 45.2516C16.3754 45.0101 15.9679 45.7234 15.3563 45.9196ZM30.7672 40.1512C30.9241 39.9469 30.8094 39.792 30.6455 39.6733C30.4845 39.5576 30.3568 39.6441 30.2501 39.791C30.0942 40.0073 30.1354 40.3845 29.734 40.4198C30.2954 40.8855 30.5177 40.4791 30.7672 40.1512ZM64.0366 45.5463C64.4431 45.6188 64.1584 45.1077 64.441 45.0886C64.3626 44.817 64.1443 44.6641 63.9109 44.5876C63.8143 44.5544 63.4702 44.4719 63.6141 44.9669C63.6886 45.0927 63.6161 45.4739 64.0366 45.5463Z" fill="#FF6477"/>
</svg>
