<svg width="115" height="164" viewBox="0 0 115 164" fill="none" xmlns="http://www.w3.org/2000/svg">
<path fill-rule="evenodd" clip-rule="evenodd" d="M50.9336 163.389L52.9668 134.14C58.8207 121.382 53.0925 87.5483 52.9668 83.8653C52.9346 82.9066 50.0303 82.6692 49.7305 82.6692C49.317 82.6672 48.976 83.1038 49.3542 83.646C49.6037 84.0032 49.7114 84.5716 49.1681 84.5343C48.5404 84.4911 47.6078 84.648 47.3181 84.0293C47.0968 83.5535 46.0686 82.8483 47.2064 82.1924C47.4036 82.0787 47.2688 81.9268 47.1682 81.8543C47.0636 81.7779 46.8774 81.6934 46.7869 81.7346C46.3734 81.9288 45.8513 82.2688 46.0143 82.6994C46.3413 83.5565 45.6743 83.8392 45.298 84.2828C45.0697 84.5524 44.9902 85.1178 44.452 84.9528C44.0134 84.817 44.2548 84.3301 44.1099 84.0726C43.79 83.5102 43.5104 82.2115 42.6804 83.7637C42.3987 84.2919 42.113 83.8996 41.8434 83.7285C41.5567 83.5474 41.2298 83.1903 40.931 83.5475C39.585 85.1681 39.8395 83.4448 39.5176 82.7266C39.3224 83.2959 39.3777 83.9156 38.6604 83.9307C38.6122 83.7909 38.5719 83.6571 38.5186 83.5304C38.1464 82.6109 36.9824 81.7558 38.2933 80.6914C38.3436 80.6512 38.259 80.3152 38.2158 80.3092C37.2359 80.1995 36.9573 79.0003 35.7933 78.9349C35.0308 78.8907 34.9221 78.787 34.9654 79.5516C35.0177 80.5023 34.5509 80.4188 33.9976 79.9369C33.5892 79.5818 33.1315 79.2498 32.8307 78.8142C32.3015 78.0436 31.8247 77.2861 30.6145 77.608C30.8831 78.5929 31.5973 79.5808 30.8408 80.6331C32.7814 82.13 30.3801 81.5626 30.1195 81.9439C29.9585 82.1773 29.194 82.1089 28.7966 81.4701C28.5159 81.0184 27.9727 80.5023 27.183 80.616C27.3329 81.1532 27.4717 81.6521 27.6115 82.1491C26.8902 81.3061 24.8782 82.976 25.0593 80.5808C24.3642 81.8654 22.9839 81.958 22.157 83.1622C21.9759 82.4278 21.8552 81.7588 21.156 81.7437C20.3643 81.7236 21.2124 82.5907 20.5907 82.8593C20.149 83.0535 20.7617 83.5847 20.8764 83.639C21.9729 84.1651 21.7506 84.7235 21.2788 85.6631C20.7104 86.7988 19.7346 86.7928 19.0766 86.4447C17.9459 85.8452 17.796 86.9296 17.1803 87.152C16.291 87.4739 17.0485 87.8028 17.118 88.0302C17.2266 88.3873 17.1381 88.7907 16.8886 88.7183C16.125 88.4939 15.0305 88.6891 14.775 87.6439C14.604 86.9487 14.437 86.6731 13.7931 87.1208C13.3817 87.4075 12.3073 87.2707 13.102 88.3702C13.5165 88.9457 13.6412 89.8812 12.3294 89.2816C12.1051 89.179 11.9823 89.2857 11.7992 89.3662C11.421 89.5311 11.093 90.6076 10.593 89.4859C10.3848 89.0221 9.70373 88.7082 9.93008 88.1358C10.2339 87.3713 9.80434 87.3089 9.2782 87.2063C8.8587 87.1278 8.28024 87.2043 8.44825 86.4578C8.62731 85.6601 8.38085 85.4719 7.568 85.5987C7.08612 85.6751 6.55898 86.0705 6.10426 85.2939C5.59422 84.4277 5.85277 82.1642 6.76521 81.3091C7.69576 80.4379 7.60824 79.5285 6.41512 79.3203C4.94435 79.0637 5.33669 77.942 5.2884 77.1905C5.24414 76.4682 6.3789 76.1483 7.27626 76.5095C7.60019 76.6393 7.77322 76.4038 7.83459 76.1876C8.01164 75.5618 8.30942 74.8647 7.31247 74.6041C6.66662 74.4341 6.59117 73.8979 7.09417 73.6816C8.33759 73.1494 7.39999 72.4442 7.5016 71.8537C7.67362 70.8487 7.89494 69.9564 7.49556 68.9876C8.43215 68.6264 7.64445 68.2603 7.48852 67.9132C7.20986 67.2985 6.85072 67.6728 6.41713 67.7442C5.89904 67.8297 5.81554 68.7663 4.92121 68.2885C4.55905 68.0963 3.45446 68.1687 3.16474 67.8911C2.74322 67.4907 3.50275 66.9505 3.80354 66.4877C3.9142 66.3177 3.93533 66.0893 3.9967 65.8871C3.2754 66.5461 2.69996 66.6467 2.33981 65.6085C2.17282 65.1286 1.76941 65.3308 1.46459 65.2403C0.743291 65.024 0.606478 64.2735 0.349948 63.7544C0.222186 63.4948 0.0944239 62.4285 0.635652 62.349C2.14264 62.1257 1.6004 60.9074 1.42737 60.4064C1.16984 59.661 1.43542 59.3119 1.91428 59.2193C2.67683 59.0725 2.61848 58.7737 2.37503 58.2335C1.97263 57.3472 1.75432 56.5142 3.02591 56.0977C3.77437 55.8523 4.20192 55.4076 4.10132 54.471C4.01581 53.6793 3.80153 53.5395 2.99774 53.3725C1.99174 53.1642 2.2372 51.9289 2.3378 51.2186C2.45148 50.4168 3.11645 51.2719 3.53796 51.1724C3.67679 51.1402 3.83071 51.1673 3.89811 51.1673C3.83574 49.9722 4.01179 49.0326 5.11839 48.2147C5.79844 47.7117 6.57205 47.4914 7.25714 47.2268C8.46233 46.76 8.69471 45.2862 10.1916 45.0217C11.0528 44.8698 11.3556 44.8999 11.7841 45.6474C11.8707 45.0358 12.1795 44.6464 12.5215 44.4362C13.097 44.0811 13.8525 43.5992 14.4309 44.3044C15.0365 45.0448 16.0586 45.1494 16.5717 44.3557C17.3876 43.0902 16.9681 40.6697 15.78 39.7915C15.6331 39.6828 15.4591 39.4182 15.2931 39.6023C13.6372 41.4353 14.3977 38.5591 13.6 38.7442C13.6835 38.6175 13.9199 38.2986 13.6603 38.3781C12.0256 38.8831 12.0366 38.0048 12.2751 36.861C12.2811 36.8288 12.2218 36.7805 12.1896 36.7433C11.6544 36.1256 11.9773 35.8983 12.6131 35.7876C13.604 35.6126 14.5939 35.4224 15.5546 35.2433C15.4943 34.8128 15.276 34.7665 15.0396 34.6518C14.0466 34.17 14.3585 33.172 14.3575 32.4024C14.3565 31.7556 15.451 32.2294 15.6603 31.5654C16.5516 32.1298 17.0395 31.3139 17.5928 30.9306C18.2708 30.4618 18.9257 30.1339 19.978 30.3683C18.2799 29.822 18.7306 28.6973 19.2658 27.9539C19.9287 27.0344 19.8533 26.2547 19.3925 25.2819C20.4005 25.9751 21.0635 25.1059 21.827 25.0073C23.3049 24.8152 22.8421 24.0918 22.654 23.273C22.5383 22.7659 22.5544 22.2267 22.5051 21.6251C23.4829 22.2086 24.837 20.9561 25.4969 22.4873C25.5744 22.6663 25.9265 22.2126 26.0643 21.9642C26.348 21.4571 26.6186 20.9411 26.9456 20.3334C27.1025 20.5447 27.2021 20.6382 27.2524 20.7529C28.025 22.5265 27.9455 22.2609 29.693 21.7458C30.6718 21.4571 30.2513 20.7811 30.6728 20.432C31.4293 19.8053 31.4605 19.3164 31.0319 18.5055C30.8267 18.1182 30.7241 18.1464 30.4002 18.3878C29.4223 19.1172 28.6014 19.7993 27.0904 19.0659C25.8309 18.4552 24.9788 17.8828 25.4074 16.6032C25.8269 15.3517 27.4184 14.6646 28.1457 15.4302C28.3489 15.6455 28.4093 16.3245 28.7795 15.9372C29.1205 15.5811 29.6427 15.3326 29.7775 14.725C29.9374 13.9987 29.2845 14.2914 29.0954 14.0469C28.8942 13.7864 28.4173 13.7673 28.4495 13.3075C28.5371 12.0842 28.5682 10.8358 29.8328 10.1245C29.1256 9.42236 28.5169 6.45063 28.8942 5.61967C28.9958 5.39433 29.1819 5.32793 29.365 5.44463C29.707 5.66193 29.9696 5.56635 30.0491 5.22532C30.3116 4.09961 30.871 4.32697 31.4917 4.88328C32.4071 5.70116 33.3025 6.52709 34.6385 5.66898C34.7089 5.62471 34.9604 5.71323 35.0066 5.80277C35.4402 6.63875 35.9694 6.15186 36.5006 5.96172C36.0901 5.25652 35.062 5.53417 34.7481 4.85613C35.6646 3.5101 36.8325 3.40447 38.2389 3.86723C38.6655 4.00807 39.3616 3.26262 39.5336 4.32395C39.5578 4.47988 39.8113 4.30483 39.9813 4.20423C40.258 4.04025 40.4079 3.17107 40.939 3.92255C41.3324 4.47887 41.6754 5.06135 41.1694 5.74643C40.8696 6.15085 40.3113 6.42448 40.4602 7.12566C41.0547 7.16993 41.3807 6.85805 41.5607 6.37819C41.8957 5.48788 42.78 5.2384 43.4621 5.25148C44.0496 5.26053 44.3484 6.21925 45.0073 6.55022C45.4479 6.77054 44.3775 7.11158 44.8393 7.19709C45.7688 7.36911 46.4237 8.81372 47.6179 7.82683C47.7265 7.73629 48.2034 7.85501 48.2778 7.99685C48.9498 9.29661 49.7948 8.81474 50.5554 8.19906C50.9829 8.53708 50.3019 8.94953 50.7455 9.0954C50.9507 9.16381 51.33 8.9435 51.2203 8.52299C51.0212 7.76346 51.9175 7.84897 52.1328 7.29869C51.7565 6.8973 51.0342 6.66592 51.165 5.8591C51.2998 5.02915 52.0895 5.30782 52.5342 5.07845C53.1348 4.7686 53.7374 5.23638 54.1629 5.78868C54.6921 6.47779 55.3812 5.93455 55.9948 5.98384C56.2161 6.00094 56.3308 5.95367 56.2011 5.65488C55.6377 4.35614 56.7513 3.69118 57.5109 3.51614C58.1094 3.37932 59.4384 3.72035 58.9696 5.1529C60.1536 4.30383 60.9775 3.39038 61.392 2.06447C61.6073 1.37737 63.7209 1.66408 64.1082 2.36526C64.5841 1.35725 65.3496 0.679211 66.1836 0.772769C67.1142 0.876387 67.3405 2.03732 68.1956 2.32805C67.43 3.07953 68.7851 3.82598 68.1835 4.66901C67.9884 4.94264 68.3364 5.6056 68.436 6.08948C69.1111 5.82893 69.5919 7.71116 70.3867 6.26755C70.4199 6.20618 70.6764 6.18405 70.7508 6.2434C72.1361 7.33994 73.628 8.34695 74.1672 10.2563C74.6994 9.69398 75.4297 9.44047 75.4881 8.62863C75.1481 8.48075 74.6813 9.26039 74.5374 8.59341C74.3966 7.94656 74.132 7.08843 74.7326 6.59549C75.3291 6.10456 76.3412 5.41243 76.814 5.61967C77.8663 6.08344 78.5453 5.26154 79.4236 5.30178C80.329 5.34202 81.1136 4.19921 82.0874 4.82796C83.7997 5.93456 83.8168 6.81481 83.358 8.93143C83.189 9.70806 82.7434 9.99476 82.4154 10.4716C82.1005 10.9293 82.02 11.7935 82.0925 11.7915C83.1156 11.7623 83.4305 13.719 84.7171 12.5762C84.8469 13.1456 84.5381 13.4675 84.6407 13.9624C84.8892 15.1555 83.7031 15.4342 82.9043 15.7199C82.7122 15.7893 80.9487 16.3245 81.4416 14.6324C81.5281 14.3346 81.0543 14.4131 80.9416 14.3015C80.173 13.5439 79.2616 14.1224 78.4347 13.9735C77.5997 13.8246 77.8995 15.072 77.1691 15.1334C77.2426 15.6807 77.7103 15.7561 78.1077 15.9231C79.168 16.3688 80.17 17.0046 81.4175 16.745C82.176 16.5871 82.5844 16.9523 82.8279 17.6977C83.0542 18.3979 83.6518 19.0518 82.5834 19.5528C83.2041 20.096 83.9445 19.3435 84.5008 19.9532C84.2946 20.1735 84.0441 20.3505 83.9284 20.593C83.8359 20.7851 83.8017 21.1241 84.1236 21.2107C84.3198 21.261 84.4918 21.1161 84.5119 20.8767C84.6538 19.1977 86.2523 19.8697 87.0742 19.2872C87.5993 20.1735 89.0107 19.925 89.3286 21.2268C89.5469 22.1191 89.2773 23.7387 91.1334 23.4158C91.1747 23.4098 91.3215 23.6452 91.3024 23.7458C91.2008 24.3001 90.8185 24.9268 91.2652 25.3936C91.9774 26.137 92.1686 25.0606 92.6303 24.8826C92.6716 24.8675 92.743 24.8373 92.7531 24.8494C93.7017 26.0405 94.1705 24.8373 94.4794 24.3564C95.4622 22.8303 96.4883 23.2961 97.6452 23.9973C97.4008 24.6341 96.2348 24.9761 96.8163 25.5455C97.3022 26.0203 97.1825 26.2678 96.9883 26.6068C96.3032 27.7959 96.8596 27.8875 97.9038 27.8141C98.9742 27.7406 99.6884 28.1571 99.2156 29.4086C99.1039 29.7033 99.1492 29.9277 99.3675 30.0373C100.43 30.5775 99.8524 31.4347 99.4852 31.8391C98.9933 32.3803 97.8957 32.6609 97.4179 32.1911C97.0396 31.8209 96.1564 31.5876 96.3706 30.4478C96.6684 28.8824 94.6806 30.6248 94.3526 29.4267C94.3083 29.2657 93.6263 29.4297 93.7057 29.9065C93.907 31.1147 92.8879 32.7243 95.3164 33.4014C94.0015 33.5945 93.6896 34.0442 93.8577 34.9013C93.922 35.2313 93.58 36.0753 93.3577 35.7896C92.579 34.7896 91.4654 35.3872 90.6515 34.8591C91.3416 35.5049 90.401 36.9274 91.8869 37.024C91.7028 37.2785 91.6163 37.3962 91.5318 37.5149C90.4745 38.9998 89.4936 39.0269 88.2864 37.6014C87.9524 37.2061 86.0551 37.1427 85.9163 37.5451C85.5984 38.4726 84.7966 38.9696 84.0069 39.1014C83.3942 39.203 83.9566 38.0772 83.356 37.7855C83.2745 37.7453 83.3138 37.4988 83.2323 37.3992C82.3822 36.36 82.01 37.9163 81.3219 37.7553C81.1891 37.7252 80.8813 37.4626 81.007 37.7845C81.2545 38.4213 81.4617 39.1275 82.3007 39.3911C83.0069 39.6124 83.5291 40.1687 83.7453 40.9152C84.0069 41.8135 82.7906 41.1787 82.7846 41.8648C83.7031 42.7843 84.5441 41.0409 85.6165 41.718C85.8519 41.8658 85.9847 40.1285 86.7332 39.4887C87.1245 40.6345 87.6808 40.6949 88.4011 39.8518C89.2411 38.871 89.6908 39.1597 89.8699 40.3096C89.9373 40.7462 89.9866 41.1858 90.0811 41.6154C90.1012 41.7029 90.2904 41.7522 90.4896 41.8699C90.4896 41.5892 90.4896 41.4001 90.4896 41.212C90.4896 41.0208 90.4896 40.8307 90.4896 40.6214C92.1967 41.0138 92.3064 40.9272 91.9945 39.3498C91.901 38.88 91.9654 38.7523 92.4653 38.535C93.3275 38.1597 94.6101 38.6014 94.922 37.191C95.7791 38.2613 96.8173 39.0772 96.2439 40.541C96.1594 40.7552 96.5678 40.9293 96.7901 40.8427C97.6895 40.4916 97.5638 41.3417 97.8243 41.7079C98.2629 42.3206 97.6724 42.2954 97.3404 42.4443C97.0537 42.5721 96.9913 42.895 97.2358 43.0177C99.0818 43.9473 97.2036 44.4322 96.9099 44.4875C96.0367 44.6535 96.0246 45.0136 96.4461 45.5579C96.9944 46.2671 96.9169 46.753 95.8737 47.1554C96.6916 47.262 97.103 47.417 96.936 48.27C96.8445 48.7348 97.4481 49.266 97.3284 49.9249C97.3102 50.0255 98.2539 49.8304 98.4772 50.2841C98.7357 50.8122 98.3414 51.0919 97.8565 51.2277C97.946 51.3092 98.0245 51.4188 98.1281 51.4651C99.457 52.0536 98.9148 52.2407 97.9984 52.7296C97.2992 53.1049 95.9099 52.8121 96.0286 54.3624C96.0517 54.6571 95.5085 54.3644 95.2479 54.1189C94.8506 53.7447 93.4895 53.625 93.0579 53.8715C92.6354 54.1129 91.9362 54.473 92.1615 54.8463C92.3989 55.2356 92.568 55.978 93.3617 55.9408C94.0518 55.9106 94.2178 56.1651 93.7903 56.8301C93.6112 57.1077 93.6273 57.6691 93.908 58.0785C94.4673 57.7345 95.1152 57.4749 94.7339 56.6359C94.6111 56.3643 94.6413 56.0545 94.9321 56.0736C95.7318 56.1249 96.1544 56.0243 95.6242 55.1269C95.5306 54.966 95.6795 54.6199 95.8777 54.7396C96.595 55.1702 97.6945 54.3393 98.1995 55.6571C98.7539 57.1118 98.9088 57.0585 100.232 56.5021C100.272 56.485 100.329 56.5162 100.379 56.5162C102.06 56.5696 103.168 55.4499 104.35 54.4499C104.628 54.8976 104.265 55.3885 104.757 55.7255C105.264 56.0716 104.936 56.7858 104.695 56.9216C104.392 57.0947 104.189 57.1571 104.328 57.4951C104.472 57.8472 104.794 57.7727 105.097 57.7174C105.493 57.643 105.877 57.1319 106.296 57.6419C107.1 58.6278 108.267 59.1881 109.14 60.0855C109.577 60.5362 111.205 61.0462 109.21 61.6609C109.071 61.7032 108.881 62.0653 108.924 62.1227C109.667 63.1055 107.931 63.3822 108.334 64.2463C108.158 64.2997 107.956 64.4375 107.81 64.3932C106.409 63.9677 106.314 65.1889 106.686 65.6889C107.696 67.046 107.428 68.1919 106.663 69.4373C106.639 69.4775 106.74 69.5952 106.783 69.6757C107.334 68.9645 109.457 68.3398 109.691 68.882C110.025 69.6566 109.131 70.2099 108.784 70.8678C108.766 70.902 108.797 70.9644 108.825 71.1264C109.241 71.3758 110.486 70.9684 109.997 72.2621C109.977 72.3144 110.434 72.4342 110.622 72.0348C111.028 71.1666 111.859 70.6968 112.813 69.722C112.287 71.5791 113.736 71.4946 114.464 72.2491C112.783 72.8024 114.114 74.8184 112.288 75.5578C113.561 75.6393 114.003 74.7359 115 74.6564C114.795 75.1926 114.814 75.6695 114.908 76.1795C115.097 77.2036 113.955 77.4169 113.355 77.6493C112.634 77.9299 112.887 77.0457 112.86 76.6533C112.815 75.9833 112.27 75.9189 111.849 75.7097C111.701 75.6363 111.35 75.6433 111.319 75.7137C111.107 76.1896 111.105 76.7378 111.417 77.1292C112.084 77.9692 111.861 78.5607 111.03 79.0607C111.45 79.5466 112.473 78.8927 112.513 79.6884C112.549 80.4077 113.215 81.7135 111.512 81.6934C111.392 81.6934 111.179 82.0787 111.163 82.297C111.109 82.9891 110.74 83.0475 110.273 82.7447C109.379 82.1672 109.034 82.4248 109.033 83.4328C109.032 84.2225 108.647 84.2899 108.13 83.804C107.495 83.2084 106.934 82.9378 106.392 83.9026C106.065 84.4861 105.572 84.4408 105.491 83.8422C105.381 83.0384 105.2 83.0424 104.651 83.4861C104.035 83.981 103.722 83.7577 103.895 83.0304C103.972 82.7044 104.067 82.4469 103.752 82.2779C103.063 81.9087 102.594 81.46 102.477 80.5968C102.422 80.2015 101.796 80.0295 101.333 80.0788C100.665 80.1542 101.304 80.5435 101.211 80.792C100.989 81.3775 100.669 81.1069 100.269 81.0485C99.11 80.8836 99.287 79.2488 98.0798 79.1502C97.7961 79.1271 97.8585 78.1935 97.3133 78.6774C96.9642 78.9873 96.6513 79.4621 97.1976 80.0425C97.6986 80.5737 97.3424 80.7568 96.7207 80.9338C96.3284 81.0455 95.428 81.1642 95.5548 81.5063C95.8536 82.308 94.8395 82.4137 94.9471 83.0092C95.4874 83.3593 96.5105 82.8815 96.5829 83.6813C96.6413 84.3281 95.7821 84.6088 95.2278 84.9528C94.916 85.145 94.424 85.2888 94.5699 85.8099C95.0286 87.4366 94.3627 86.7747 93.4492 86.5373C92.3336 86.2465 92.7249 85.2838 92.1806 84.5846C91.2461 85.821 90.2884 86.9578 88.6898 87.1882C88.546 87.2083 88.0329 87.3219 88.5098 87.8461C89.2673 88.677 88.879 89.3139 87.9021 89.8913C87.1859 90.3138 85.9294 89.2877 85.6497 90.7916C85.6155 90.9747 85.192 90.6458 84.9546 90.4768C83.7755 89.6317 84.522 88.4396 84.4717 87.3743C83.3349 87.8028 83.3751 88.84 83.1065 89.844C82.4486 89.3843 81.9174 88.7696 81.2947 89.6519C81.1318 89.8802 80.7022 89.5402 80.6951 89.2314C80.6861 88.7485 80.6197 88.2193 80.1117 88.2133C79.5906 88.2073 79.5976 88.8128 79.4477 89.2253C79.3853 89.4003 79.0081 90.0583 78.7676 89.4084C78.1962 87.8773 77.7606 89.1217 77.4961 89.4869C76.9226 90.2786 76.6822 90.1387 76.3029 89.338C75.8995 88.4889 76.149 87.4397 75.4418 86.7033C76.5645 86.4437 76.315 85.1943 76.2436 84.7838C76.1148 84.0414 76.0122 82.3101 74.297 83.4479C73.9097 83.7074 73.6803 83.4297 73.5385 83.0525C73.3956 82.6732 73.0465 82.4549 72.7316 82.7024C72.2739 83.0616 72.8031 83.2276 72.9852 83.4791C73.7306 84.4991 74.7587 85.3059 75.2678 86.5031C75.0525 86.495 74.6793 86.1359 74.7286 86.2928C75.0052 87.152 74.0827 87.6348 74.1702 88.3521C74.3091 89.5 73.8483 89.2535 73.1984 88.8632C72.4812 88.4286 71.8232 88.2777 71.6703 89.4386C71.6291 89.7535 71.8283 90.185 71.3685 90.3349C70.8374 90.5059 70.7931 89.7866 70.4742 89.7494C69.8796 89.679 70.1895 88.5493 69.3585 88.8813C68.9632 89.0402 68.5085 89.8319 68.1946 89.1056C68.0165 88.6952 67.9008 87.9226 68.5135 87.3512C69.3545 86.5655 70.0225 86.0836 70.9108 87.2687C71.0697 87.4829 71.5073 88.1036 71.9631 87.4668C72.3403 86.9427 71.7689 86.8129 71.5255 86.5665C71.3927 86.4307 71.2035 86.3311 71.0215 86.2657C69.766 85.814 70.3997 84.2516 69.4068 83.5595C69.0467 83.31 69.6935 82.9036 69.9913 82.5807C70.3344 82.2115 69.9098 82.0505 69.5467 81.9208C68.426 81.5224 67.1705 81.4862 66.2007 80.6643C66.0377 80.5264 65.7208 80.4771 65.5005 80.5194C64.5951 80.6954 59.3136 83.6511 59.2975 84.649C59.2563 87.3371 61.7582 124.571 61.7582 124.571C58.205 144.211 61.7773 160.659 61.8477 163.389H50.9336ZM30.706 59.5091C30.1507 59.5392 29.3932 59.7918 28.8912 58.8451C28.5833 58.2627 27.522 58.0353 27.1337 59.2395C27.022 59.5876 26.9607 60.1127 26.4758 60.1398C25.9275 60.169 26.0714 59.5644 25.8551 59.2998C25.5814 58.9638 25.1599 58.0554 24.7223 59.2314C24.6016 59.5584 24.3742 59.5151 24.1318 59.3873C23.8229 59.2254 23.6016 59.4014 23.6056 59.659C23.6217 60.4668 24.7354 60.6831 24.669 61.6428C24.6448 61.9748 25.2163 61.7867 25.5402 61.6328C25.9144 61.4547 26.3047 61.4084 26.6065 61.8148C26.69 61.9245 26.8259 61.9979 26.9365 62.0875C27.2665 60.7495 28.6346 61.5372 29.202 61.002C29.7121 60.5231 29.8499 60.9617 30.1406 61.0241C30.9666 61.2052 31.8237 61.6519 32.6033 61.5412C33.4313 61.4225 34.2642 61.4195 35.1535 61.1469C33.6777 60.5885 32.4695 59.4085 30.706 59.5091ZM45.635 43.228C45.6039 44.5489 46.1833 45.3688 47.3935 45.8446C48.1168 46.1293 48.6259 46.7148 48.8945 47.424C49.1259 48.0346 49.5101 47.6775 49.8441 47.7016C50.5876 47.756 50.1439 47.2982 50.1228 47.0427C50.0393 46.082 50.1238 45.1434 49.6399 44.1877C48.9659 42.8538 50.3834 43.7048 50.7204 43.3738C50.5554 42.9604 50.1127 42.8296 49.8653 42.896C48.5846 43.2431 48.2245 42.6113 48.3583 41.5248C48.4217 41.0238 48.0122 41.0077 47.9418 41.1425C47.2728 42.4242 46.3352 42.1908 45.1914 41.4977C45.4047 42.2854 45.6471 42.7592 45.635 43.228ZM49.5383 64.0431C49.9789 64.2655 50.3894 64.5853 50.8542 64.7171C51.3541 64.859 51.5875 65.9022 52.2938 65.2252C52.9175 64.6286 53.1861 63.6166 52.7595 63.0462C52.0664 62.1237 52.0433 61.1378 51.8612 60.1358C51.7847 59.7113 51.5393 59.324 51.1047 59.3662C50.5825 59.4185 50.7868 59.8974 50.8501 60.1992C51.0041 60.9406 50.3582 60.9899 49.9769 61.1911C49.1993 61.6046 48.9206 62.2233 48.9669 63.1317C48.7396 63.6236 49.1238 63.8349 49.5383 64.0431ZM65.5981 35.6759C65.5176 34.844 64.4664 34.9224 63.8517 35.6598C63.4875 36.0974 63.3748 37.2342 62.235 36.3912C61.9011 36.1447 61.4735 37.0069 61.1717 37.4324C60.7794 37.9857 60.3609 38.6074 60.5319 39.2895C60.6295 39.6728 61.1325 39.7864 61.4604 39.3287C62.3346 38.1104 62.893 38.0823 64.2088 38.9636C64.9412 39.4525 65.2541 38.7372 65.3707 38.21C65.5599 37.3519 65.6152 37.0521 66.7711 37.365C67.9431 37.6839 66.8898 36.521 67.1886 36.03C66.421 36.6407 65.7762 37.5089 65.5981 35.6759ZM74.0908 59.9889C73.8896 60.1318 73.5123 60.2012 73.5375 59.8511C73.5878 59.1198 73.4731 58.7747 72.6763 59.1539C72.0063 59.4739 72.2789 60.2032 72.0345 60.4758C71.2287 61.3762 72.4349 61.6428 72.3624 62.2464C72.3192 62.5965 72.4952 63.0452 71.8786 62.7595C71.122 62.4094 71.1874 62.9083 71.1623 63.3822C71.1231 64.1487 71.5174 63.7695 71.8776 63.7081C74.0938 63.3379 75.4137 61.5704 75.14 59.1067C74.6944 59.4859 74.4107 59.7646 74.0908 59.9889ZM37.909 21.8052C37.0539 21.8042 36.6142 21.1151 36.1847 20.5075C36.0106 20.26 36.5066 19.4401 35.6937 19.8013C35.3779 19.9411 35.1726 20.6302 35.5036 21.1221C35.6394 21.3223 35.8285 21.5024 36.0298 21.6392C37.1806 22.4249 38.2369 23.2589 37.4935 24.8765C37.3265 25.2347 37.5227 25.6008 37.6615 25.631C38.1906 25.7427 37.7903 25.1994 37.9683 25.0828C38.1444 24.9671 38.4442 25.4278 38.6252 25.0023C40.1523 25.8533 40.3566 25.1713 39.9914 23.8253C40.0125 22.099 39.6825 21.8062 37.909 21.8052ZM88.2623 27.467C88.6144 26.8584 89.1214 26.297 88.6023 25.4952C88.0168 24.5888 87.6677 23.5637 87.374 22.4722C86.6225 22.7337 85.9223 23.5798 85.1558 22.5466C85.0069 22.3454 84.5662 22.4048 84.4013 22.7307C84.2805 22.9661 84.024 23.3957 84.4344 23.4561C84.9405 23.5305 84.7433 24.5999 85.3056 24.1452C86.9776 22.7871 87.1919 24.6904 87.2995 25.2618C87.4665 26.133 87.7532 27.3825 86.2694 27.982C87.3096 28.4518 87.8639 28.1511 88.2623 27.467ZM70.0245 41.2965C69.7489 40.5681 71.1039 40.1848 70.4158 39.3428C70.2096 39.0933 69.6432 38.9807 69.8917 38.4213C70.0989 37.9576 70.0567 37.4686 69.6 37.193C69.3857 37.0652 68.8958 37.0733 68.8535 37.4224C68.7932 37.9364 67.7489 38.1688 68.4551 38.878C68.6231 39.044 68.7901 39.3187 68.5004 39.4957C68.2368 39.6587 67.5216 39.4957 68.0477 40.1285C68.4682 40.6325 68.6865 41.3608 69.438 41.5741C69.6523 41.4745 70.0305 41.3116 70.0245 41.2965ZM43.1995 61.166C43.5466 61.2515 43.4842 61.4718 43.3997 61.7263C43.2558 62.1528 43.5345 62.2273 43.8645 62.2474C44.2196 62.2685 44.4248 62.0885 44.4842 61.7545C44.7417 60.2968 44.1029 59.7938 42.4762 59.6731C41.6543 59.6107 40.9672 60.2696 40.1242 59.833C41.8505 62.0673 41.9521 62.1096 43.1995 61.166ZM94.3365 71.9121C93.5056 72.0599 92.6867 72.2853 91.8638 72.4794C92.1042 73.4392 91.1535 74.2691 91.405 75.086C91.6042 75.7268 92.6052 75.5477 92.7611 74.9602C93.0307 73.9361 93.8043 73.574 94.5226 73.078C94.7258 72.9382 94.9522 72.8175 94.8818 72.4855C94.7359 72.2712 94.7067 71.8477 94.3365 71.9121ZM86.2 52.8232C87.1315 53.7246 86.7804 54.7447 86.4947 56.0323C87.1979 55.4056 87.9685 56.0575 88.5973 55.1662C88.9514 54.6672 89.8558 54.5344 89.8759 53.5646C89.0792 53.6552 88.8518 54.3402 88.1667 54.5958C88.3659 52.5325 88.3538 52.5214 86.2 52.8232ZM69.1171 62.5925C69.4209 61.7746 69.7328 60.6569 68.2358 60.4316C68.0487 60.4044 67.7972 60.3511 67.7047 60.2193C67.3777 59.7596 66.9552 59.7907 66.76 60.1861C66.5287 60.6499 66.8133 60.838 67.3687 61C68.2902 61.2646 67.9149 62.1347 67.931 62.8208C67.9461 63.6397 67.3143 63.3369 66.7852 63.5009C68.4018 64.9244 68.7851 63.4888 69.1171 62.5925ZM40.2006 81.6421C40.8917 81.5908 40.5276 80.5566 40.936 80.0828C42.1311 78.6975 40.5054 78.3635 39.9924 77.6251C39.8204 77.3787 39.5075 77.4813 39.3274 77.6191C38.9321 77.9199 39.3234 78.106 39.4924 78.3012C40.3103 79.2347 40.3244 79.9259 38.7087 80.2347C39.4884 80.6019 39.4994 81.6934 40.2006 81.6421ZM91.3286 78.0356C91.5217 77.8555 91.6937 77.7388 91.6374 77.4581C91.068 77.9581 90.8065 76.8716 90.2411 77.1925C90.0097 77.3243 89.5811 77.2217 89.6546 77.6624C89.7934 78.4832 90.0469 79.272 89.1385 79.9017C88.9957 80.0013 89.5288 80.613 89.9483 80.6904C90.399 80.7729 90.8769 80.7085 91.8014 80.7085C90.2733 79.7347 90.4292 78.8665 91.3286 78.0356ZM87.2462 31.4729C87.5742 31.3542 87.9092 31.1771 87.6124 30.7234C87.386 30.3773 87.0752 30.2174 86.7754 30.5584C86.3871 30.999 85.7101 30.2798 85.3439 31.0886C84.7694 32.3592 84.9757 32.8903 86.709 33.2736C86.1899 32.3421 86.374 31.7888 87.2462 31.4729ZM84.522 62.0422C84.6638 62.8731 84.4435 63.689 83.9767 64.4908C85.0018 63.3621 86.715 66.3298 87.5832 63.7162C85.3942 64.9364 85.8519 62.2031 84.522 62.0422ZM98.3605 74.9703C98.2941 75.7097 99.2357 75.9189 99.7246 76.2731C100.01 76.4793 100.05 75.765 100.06 75.3818C100.071 74.9753 100.381 74.7228 100.633 74.417C101.078 73.8828 100.842 73.4442 100.068 73.1102C100.119 74.3788 98.4521 73.9734 98.3605 74.9703ZM86.8026 79.7649C86.9977 79.3705 86.5702 79.2579 86.3368 79.1693C85.2121 78.7367 84.0733 78.3444 82.9375 77.9461C82.7343 77.8746 82.4939 77.9169 82.515 78.1734C82.5391 78.4943 82.5522 79.0366 82.9828 78.951C84.2604 78.6935 84.9606 79.4067 85.6145 80.293C85.6658 80.3634 85.7855 80.3856 85.8801 80.4329C86.2996 80.3675 86.6295 80.116 86.8026 79.7649ZM107.017 81.2548C107.277 81.457 107.402 81.2568 107.569 81.0335C107.953 80.5264 108.268 80.0295 108.136 79.3534C108.082 79.0808 108.007 78.768 108.429 78.6523C108.597 78.607 109.22 78.8706 108.849 78.444C108.596 78.1513 108.674 77.6543 108.279 77.5517C107.901 77.4511 107.848 77.8635 107.66 78.0647C106.979 78.7871 107.271 79.9782 106.423 80.617C106.622 80.8303 106.792 81.0777 107.017 81.2548ZM19.8965 43.2521C20.5323 43.1847 21.2587 42.389 21.4015 41.6385C21.5685 40.7663 20.5555 40.9856 20.1128 40.8156C19.5937 40.6174 19.2698 41.1264 19.3955 41.9011C19.5686 42.2582 19.2959 43.3175 19.8965 43.2521ZM64.1314 18.4391C64.8647 18.591 64.4895 19.2993 64.7189 19.7107C64.7591 19.7811 64.1967 20.2248 64.7148 20.435C64.9201 20.5195 65.3697 20.3666 65.5005 20.1775C65.6655 19.9401 65.9794 19.5648 65.6715 19.249C65.3114 18.8767 64.7309 18.7178 65.4412 18.0357C65.7118 17.7762 65.0891 17.3376 64.6967 17.5619C64.3436 17.7651 63.8225 16.9291 63.6626 17.7158C63.6787 18.0951 63.7702 18.3637 64.1314 18.4391ZM56.189 15.568C56.7765 15.7903 57.2543 15.2702 57.2775 14.7049C57.3006 14.1475 57.1135 13.2824 56.5481 13.2944C56.0813 13.3045 55.4274 13.4494 54.5824 13.7884C55.693 14.1445 55.4435 15.2853 56.189 15.568ZM78.4548 59.9004C77.2013 60.1258 76.2084 60.5895 75.9358 61.9708C76.9237 61.4808 78.8864 62.2233 78.4548 59.9004ZM79.1992 86.1218C79.2777 86.7385 79.8058 87.3562 80.3551 87.4759C80.7364 87.5584 81.3641 86.9477 81.349 86.4125C81.3309 85.821 80.7686 85.5675 80.2525 85.5363C79.7435 85.5755 79.1238 85.5323 79.1992 86.1218ZM41.9672 39.4112C42.2177 40.053 42.4319 40.7109 43.0426 41.1103C43.1251 41.1637 43.3514 41.1204 43.4238 41.0409C43.614 40.8317 43.5214 40.5772 43.4218 40.3498C43.1049 39.6185 42.6211 38.9585 42.608 38.1004C41.8173 38.367 41.7287 38.8026 41.9672 39.4112ZM104.565 74.9321C104.634 75.4884 104.987 75.6041 105.492 75.5367C106.344 75.422 105.984 74.5669 106.36 74.1665C106.08 73.9593 106.254 73.3546 105.681 73.3808C105.159 73.7963 104.457 74.073 104.565 74.9321ZM94.7641 51.3162C94.8707 50.9722 95.766 50.9389 95.1765 50.3333C94.755 49.9028 94.1745 49.9541 93.6383 49.9953C93.1263 50.0346 93.0921 50.6321 93.3214 50.7146C94.1715 51.0215 93.7963 51.9248 94.3546 52.5757C94.5357 52.0174 94.6544 51.6683 94.7641 51.3162ZM91.7762 81.0616C91.2149 81.6813 91.8758 82.4358 91.9141 83.143C91.9302 83.4257 92.7812 83.8362 93.2712 83.8643C93.7329 83.8915 93.6122 83.4126 93.3084 83.2024C93.1203 83.0706 92.7239 83.1551 92.6162 83.0042C92.0931 82.2678 92.8527 81.9097 93.2832 81.2045C92.6786 81.133 91.9623 80.8564 91.7762 81.0616ZM28.4948 39.5078C29.3449 39.5309 29.8046 38.7925 30.4666 38.4595C30.7 38.3428 29.9233 37.8187 29.704 37.8418C29.0038 37.9133 28.5642 38.6849 27.6538 38.537C27.9777 39.0128 27.9405 39.4927 28.4948 39.5078ZM40.0497 57.8472C39.0467 56.9357 38.2148 57.0404 37.2661 58.1319C38.3516 58.5272 39.1695 58.4799 40.0497 57.8472ZM94.2882 43.7853C94.4472 44.0056 94.5991 43.9382 94.7258 43.7189C94.8948 43.4322 95.2379 43.1384 94.7942 42.8387C94.2993 42.5047 93.7681 42.227 93.1565 41.8679C92.8999 43.0801 93.8828 43.231 94.2882 43.7853ZM36.9794 60.4044C37.2862 60.2183 37.4381 59.5775 37.2873 59.5282C36.4754 59.2646 35.6364 59.4105 34.4513 59.7887C35.5086 60.1288 36.072 60.9497 36.9794 60.4044ZM61.2351 18.0428C61.1627 18.1504 61.4111 18.6323 61.889 18.7329C62.9574 18.9623 62.8718 18.1464 63.1907 17.4271C62.3407 17.4019 61.6546 17.4261 61.2351 18.0428ZM42.6452 41.7703C42.6724 41.7481 42.3394 41.1013 42.2096 41.1134C41.3062 41.1989 40.938 41.9061 40.5779 42.7381C41.603 42.8829 42.0869 42.235 42.6452 41.7703ZM104.736 66.5953C103.586 66.9505 102.982 65.5461 101.516 65.6054C102.663 66.6617 103.409 67.7583 104.736 66.5953ZM35.1404 47.3767C34.558 46.9753 33.8276 46.7751 33.1415 46.5407C32.8307 46.4331 32.389 46.6635 32.5842 46.926C33.051 47.5538 33.8276 47.6825 34.4272 47.6584C34.9312 47.8053 35.3497 47.5226 35.1404 47.3767ZM60.9836 35.526C61.1637 35.7001 61.4081 35.3751 61.386 35.2896C61.2109 34.6126 62.5137 33.5955 60.7874 33.2525C60.376 34.0563 60.2764 34.845 60.9836 35.526ZM81.167 64.0642C80.844 64.1568 80.4899 64.2212 80.5905 64.7151C80.7998 65.7423 81.6187 65.0391 82.1609 65.2342C81.8088 64.8308 82.2122 63.7624 81.167 64.0642ZM48.4941 61.5322C48.6128 61.3843 48.8603 61.172 48.8241 61.0956C48.5766 60.5775 48.8583 59.7113 47.9891 59.6056C47.5645 59.5523 47.4901 59.9769 47.4639 60.331C47.2627 61.2022 48.7929 60.5825 48.4941 61.5322ZM25.7474 79.5778C25.9899 79.6482 26.2323 79.5265 26.3671 79.281C26.4597 79.114 26.3641 79.0255 26.2263 78.948C25.9828 78.8092 25.7535 78.5547 25.511 78.9651C25.4416 79.0808 25.2957 79.2247 25.181 79.2297C24.1771 79.271 24.175 79.2629 24.7143 80.3635C24.7615 79.6482 25.0523 79.3746 25.7474 79.5778ZM46.5264 80.962C47.129 81.0113 47.2124 80.446 47.3503 80.0647C47.5595 79.4923 47.0595 79.5758 46.7406 79.5587C46.2708 79.5345 45.9006 79.6673 45.8513 80.1784C45.7326 80.7961 46.134 80.9298 46.5264 80.962ZM55.5874 37.9022C55.5643 37.6276 55.6991 37.1035 55.1105 37.2403C54.7152 37.3328 54.5381 37.697 54.7031 38.042C54.9506 38.5591 54.7745 39.2402 55.6015 39.8297C55.6025 39.037 55.6337 38.4666 55.5874 37.9022ZM23.0252 71.1847C24.1861 71.4744 25.0241 70.8326 26.0512 70.1445C24.6106 69.7693 23.9789 70.8799 23.0252 71.1847ZM46.9931 62.2152C47.2376 61.8953 47.0605 61.6508 46.805 61.4698C46.5535 61.2917 46.3553 61.4225 46.1893 61.6519C45.9449 61.9909 46.0103 62.5764 45.3866 62.6307C46.2598 63.356 46.6068 62.7222 46.9931 62.2152ZM98.7368 70.6052C99.3715 70.7149 98.9259 69.9242 99.3655 69.894C99.2448 69.4715 98.9068 69.2311 98.5416 69.1124C98.3897 69.0611 97.8565 68.9353 98.0808 69.7029C98.1965 69.8981 98.0839 70.4936 98.7368 70.6052Z" fill="#692C33"/>
</svg>
