<svg width="104" height="146" viewBox="0 0 104 146" fill="none" xmlns="http://www.w3.org/2000/svg">
<path fill-rule="evenodd" clip-rule="evenodd" d="M46.046 145.741L47.8638 119.608C53.092 108.21 47.9755 77.9751 47.8638 74.6885C47.8346 73.8314 45.2412 73.6181 44.9716 73.6181C44.6024 73.6151 44.2995 74.0044 44.6355 74.4903C44.8579 74.8092 44.9545 75.3142 44.4686 75.2831C43.9082 75.2458 43.0752 75.3847 42.8157 74.8324C42.6195 74.4088 41.702 73.7781 42.7151 73.1906C42.8932 73.0879 42.7704 72.9532 42.6829 72.8898C42.5883 72.8214 42.4224 72.7459 42.3409 72.7801C41.9727 72.9562 41.5069 73.261 41.6497 73.6423C41.9425 74.4088 41.3449 74.6623 41.0099 75.0577C40.8067 75.2981 40.7343 75.8042 40.2544 75.6563C39.8611 75.5346 40.0774 75.102 39.9496 74.8696C39.6629 74.3676 39.4134 73.2067 38.67 74.5969C38.4175 75.0667 38.163 74.7146 37.9215 74.5617C37.666 74.4028 37.3752 74.0819 37.1076 74.4028C35.9045 75.8504 36.1328 74.3112 35.8441 73.6684C35.6691 74.1774 35.7194 74.7318 35.0776 74.7448C35.0343 74.6191 34.9971 74.4994 34.9498 74.3877C34.6178 73.5648 33.5796 72.8022 34.7496 71.8495C34.7969 71.8153 34.7204 71.5136 34.6812 71.5106C33.806 71.41 33.5575 70.3406 32.5183 70.2812C31.8362 70.243 31.7396 70.1484 31.7799 70.8335C31.8272 71.6826 31.4097 71.6081 30.9137 71.1755C30.5505 70.8587 30.1411 70.5629 29.8725 70.1736C29.3987 69.4875 28.9742 68.8104 27.8927 69.0951C28.1311 69.9774 28.7719 70.8587 28.0939 71.8003C29.8292 73.1372 27.6835 72.6282 27.4501 72.9702C27.3052 73.1765 26.6221 73.1181 26.267 72.5467C26.0165 72.1423 25.5296 71.6836 24.8254 71.7842C24.9592 72.264 25.0839 72.7097 25.2077 73.1544C24.5628 72.3988 22.7651 73.8917 22.9281 71.752C22.3074 72.9008 21.072 72.9823 20.3336 74.0577C20.1727 73.4018 20.065 72.8063 19.4393 72.7902C18.7341 72.7741 19.4896 73.5467 18.9343 73.7881C18.5389 73.9601 19.0872 74.437 19.1898 74.4833C20.1706 74.9551 19.9715 75.453 19.5489 76.2941C19.0419 77.3071 18.1697 77.3011 17.5822 76.9902C16.5722 76.457 16.4364 77.4268 15.8871 77.625C15.0923 77.9117 15.7684 78.2045 15.8307 78.4087C15.9273 78.7286 15.8499 79.0887 15.6265 79.0233C14.9445 78.8211 13.9676 78.9942 13.7383 78.0626C13.5844 77.4419 13.4355 77.1945 12.86 77.5948C12.4928 77.8524 11.5321 77.7266 12.2454 78.7125C12.6136 79.2256 12.7252 80.0605 11.5532 79.5243C11.3531 79.4338 11.2434 79.5304 11.0794 79.5988C10.7414 79.7456 10.4487 80.7104 10.001 79.7084C9.81589 79.296 9.20724 79.0133 9.40844 78.5022C9.68106 77.8182 9.29879 77.7638 8.82798 77.6693C8.45173 77.6009 7.93567 77.6693 8.08456 77.0013C8.24452 76.29 8.0242 76.121 7.29887 76.2367C6.8673 76.3051 6.39647 76.6572 5.99105 75.9641C5.53433 75.1885 5.76572 73.1684 6.58259 72.4029C7.41355 71.6252 7.33509 70.8124 6.26773 70.6273C4.95288 70.3979 5.30498 69.3969 5.26173 68.7229C5.2235 68.0781 6.23653 67.7934 7.03831 68.1163C7.32905 68.232 7.48196 68.0187 7.53729 67.8276C7.69523 67.2662 7.96181 66.6455 7.0715 66.4131C6.49406 66.2592 6.42668 65.7793 6.87535 65.5882C7.98698 65.1114 7.14797 64.4806 7.23851 63.9545C7.39344 63.0561 7.59061 62.2594 7.23449 61.3942C8.07148 61.0703 7.36626 60.7433 7.22844 60.4335C6.97895 59.8852 6.65705 60.2172 6.27175 60.2836C5.80698 60.359 5.73353 61.196 4.93476 60.7695C4.61184 60.5965 3.62294 60.6639 3.36541 60.4144C2.98816 60.0542 3.6672 59.5743 3.93681 59.1599C4.03338 59.009 4.05251 58.8048 4.10784 58.6237C3.46299 59.2132 2.94891 59.3017 2.62598 58.3762C2.47709 57.9456 2.11697 58.1247 1.84535 58.0462C1.20051 57.8521 1.07775 57.1841 0.849392 56.7203C0.73672 56.488 0.620029 55.5332 1.10593 55.4608C2.45196 55.2646 1.96707 54.1762 1.81315 53.7265C1.58277 53.0615 1.81919 52.7506 2.24775 52.6661C2.92881 52.5343 2.87649 52.2668 2.65818 51.7839C2.29904 50.9942 2.10388 50.2477 3.23966 49.8765C3.90764 49.6572 4.29091 49.2598 4.20037 48.4248C4.12492 47.7156 3.9328 47.5899 3.21552 47.442C2.31616 47.2528 2.53446 46.1533 2.625 45.5195C2.7266 44.8012 3.32214 45.5658 3.69839 45.4753C3.82112 45.4471 3.95896 45.4722 4.0173 45.4722C3.96197 44.4029 4.12193 43.5649 5.10982 42.8335C5.71845 42.3848 6.40854 42.1877 7.01919 41.9523C8.09561 41.5348 8.30387 40.2169 9.64185 39.9825C10.4124 39.8447 10.682 39.8728 11.0643 40.5408C11.1418 39.9916 11.4185 39.6465 11.7233 39.4584C12.2383 39.1415 12.9143 38.7089 13.4284 39.3387C13.9706 40.0006 14.8831 40.0952 15.3408 39.3859C16.0702 38.2572 15.696 36.0923 14.6356 35.3076C14.5038 35.21 14.3489 34.9736 14.199 35.1386C12.7192 36.7754 13.3992 34.2071 12.687 34.37C12.7604 34.2584 12.9727 33.9727 12.7413 34.0441C11.2806 34.4958 11.2897 33.7111 11.5039 32.688C11.508 32.6598 11.4547 32.6166 11.4275 32.5824C10.9496 32.0301 11.2374 31.8279 11.8047 31.7283C12.691 31.5733 13.5763 31.4013 14.4334 31.2424C14.3801 30.8571 14.1839 30.8158 13.9737 30.7132C13.0854 30.2826 13.3661 29.3913 13.365 28.7032C13.363 28.1238 14.3419 28.5483 14.528 27.9558C15.3237 28.4588 15.7603 27.7294 16.2553 27.3884C16.8609 26.9689 17.4464 26.6761 18.385 26.8864C16.8679 26.3995 17.2714 25.3935 17.7502 24.7295C18.3417 23.9076 18.2743 23.2105 17.8619 22.3413C18.7643 22.961 19.3548 22.1833 20.0389 22.0958C21.3597 21.9238 20.9443 21.2779 20.7773 20.5466C20.6726 20.0929 20.6867 19.613 20.6434 19.0758C21.5167 19.5969 22.7279 18.4772 23.3154 19.8464C23.3838 20.0063 23.7007 19.6009 23.8244 19.3786C24.0769 18.9249 24.3174 18.4652 24.6121 17.9219C24.752 18.1121 24.8405 18.1945 24.8847 18.2972C25.5749 19.8816 25.5045 19.6442 27.0648 19.1845C27.941 18.9259 27.5637 18.3213 27.942 18.0094C28.619 17.4491 28.6462 17.0125 28.2629 16.2882C28.0798 15.9421 27.9883 15.9673 27.6985 16.1825C26.8223 16.8334 26.0899 17.4431 24.7399 16.7882C23.6162 16.2429 22.8546 15.7319 23.2369 14.588C23.6101 13.4704 25.0336 12.8557 25.6835 13.5398C25.8656 13.7319 25.9189 14.3385 26.2499 13.9925C26.5547 13.6746 27.0225 13.4523 27.1412 12.91C27.2851 12.2612 26.7016 12.5227 26.5336 12.3034C26.3545 12.071 25.928 12.0539 25.9561 11.6435C26.0346 10.55 26.0618 9.43531 27.1925 8.79952C26.5618 8.17177 26.0195 5.51593 26.3555 4.7745C26.4461 4.5733 26.6131 4.51394 26.776 4.61756C27.0808 4.81172 27.3152 4.72622 27.3867 4.42241C27.6201 3.41742 28.1221 3.61962 28.6764 4.11659C29.4932 4.84694 30.294 5.58434 31.4871 4.81877C31.5505 4.77954 31.7759 4.858 31.8171 4.93848C32.2044 5.68493 32.6762 5.24934 33.1511 5.08033C32.7839 4.45057 31.8664 4.69805 31.5847 4.09244C32.4046 2.89027 33.4478 2.7957 34.7043 3.20917C35.0856 3.33391 35.7063 2.66795 35.8602 3.6156C35.8823 3.75543 36.1077 3.5995 36.2606 3.50896C36.5081 3.36309 36.6409 2.58646 37.1157 3.25746C37.4678 3.75442 37.7736 4.27453 37.3219 4.88819C37.0543 5.24934 36.5553 5.49379 36.6871 6.12053C37.2193 6.15976 37.51 5.88211 37.672 5.45254C37.9718 4.65579 38.7625 4.43347 39.3711 4.44555C39.8943 4.45359 40.1619 5.31071 40.7514 5.60546C41.1457 5.80264 40.189 6.10745 40.6015 6.18391C41.4325 6.33783 42.0179 7.62852 43.0843 6.74727C43.1829 6.66679 43.6074 6.77242 43.6748 6.89918C44.2754 8.0601 45.0319 7.62953 45.709 7.07925C46.0922 7.38206 45.4826 7.75026 45.88 7.88003C46.0631 7.9414 46.4031 7.74522 46.3035 7.36897C46.1254 6.68992 46.9262 6.76638 47.1204 6.27445C46.7844 5.91631 46.1375 5.70908 46.2562 4.98878C46.3749 4.24736 47.0812 4.49585 47.4795 4.29163C48.0157 4.01598 48.5549 4.43246 48.9342 4.92641C49.406 5.54208 50.0237 5.05619 50.571 5.10045C50.7681 5.11655 50.8707 5.0743 50.755 4.80771C50.2531 3.64678 51.247 3.05324 51.925 2.89731C52.4592 2.77357 53.6473 3.0794 53.2288 4.35903C54.2871 3.60051 55.0235 2.78464 55.3927 1.59856C55.5849 0.984904 57.4741 1.24144 57.8192 1.86818C58.2437 0.967807 58.9288 0.361181 59.6742 0.444679C60.5052 0.537231 60.7074 1.57543 61.4719 1.83497C60.7879 2.50598 61.9981 3.17396 61.4619 3.92644C61.2858 4.1709 61.5987 4.76344 61.6883 5.19501C62.2909 4.96263 62.7194 6.64465 63.4327 5.35496C63.4598 5.29963 63.6902 5.28053 63.7566 5.33284C64.9939 6.31369 66.3279 7.21305 66.8078 8.91822C67.2846 8.41623 67.9365 8.18988 67.9868 7.46355C67.684 7.33075 67.2686 8.02891 67.1398 7.43235C67.014 6.8539 66.7766 6.08733 67.3128 5.64771C67.845 5.20809 68.7514 4.59041 69.1739 4.77552C70.1155 5.18999 70.7201 4.4556 71.5058 4.49081C72.3136 4.52703 73.0168 3.50593 73.885 4.06728C75.4161 5.05517 75.4312 5.84287 75.0208 7.73314C74.8709 8.42728 74.4715 8.68282 74.1777 9.10936C73.8981 9.51881 73.8246 10.2904 73.89 10.2884C74.8045 10.2622 75.0852 12.0107 76.235 10.9896C76.3507 11.4986 76.0751 11.7863 76.1676 12.229C76.3889 13.2943 75.3286 13.5438 74.6164 13.7993C74.4434 13.8617 72.8689 14.3395 73.3076 12.8265C73.386 12.5599 72.9625 12.6304 72.8629 12.5308C72.1758 11.8537 71.3599 12.3708 70.6225 12.239C69.8761 12.1052 70.1447 13.2199 69.4928 13.2752C69.5582 13.7641 69.9777 13.8315 70.3318 13.9804C71.2784 14.3788 72.1728 14.9462 73.2885 14.7148C73.9655 14.5739 74.3307 14.8999 74.548 15.5669C74.7502 16.1926 75.2843 16.7761 74.3296 17.2248C74.8829 17.7097 75.5449 17.0386 76.0439 17.5829C75.8588 17.7791 75.6364 17.937 75.5318 18.1533C75.4473 18.3253 75.4181 18.6291 75.7048 18.7056C75.8809 18.7509 76.0338 18.6211 76.0539 18.4078C76.1787 16.9079 77.6092 17.5074 78.3436 16.9873C78.8124 17.7791 80.0719 17.5578 80.3576 18.7207C80.5518 19.5174 80.3103 20.9651 81.9702 20.6774C82.0085 20.6713 82.1403 20.8816 82.1221 20.9721C82.0316 21.4671 81.6885 22.0274 82.0899 22.4439C82.7247 23.1078 82.8957 22.1461 83.3082 21.9872C83.3444 21.9731 83.4088 21.9459 83.4178 21.957C84.2669 23.0213 84.6844 21.9469 84.9601 21.5164C85.8383 20.1532 86.7558 20.5687 87.7899 21.1954C87.5706 21.7648 86.5284 22.0697 87.0495 22.5787C87.4831 23.0022 87.3764 23.2235 87.2034 23.5263C86.5918 24.5887 87.0877 24.6712 88.0213 24.6058C88.976 24.5404 89.6148 24.9126 89.1933 26.0303C89.0927 26.2949 89.1329 26.494 89.3281 26.5916C90.2778 27.0745 89.7617 27.8411 89.4357 28.2032C88.9951 28.6861 88.0143 28.9366 87.5877 28.5161C87.2487 28.1851 86.459 27.9769 86.6522 26.9578C86.9177 25.5595 85.1401 27.1158 84.8484 26.0454C84.8091 25.9015 84.1985 26.0484 84.271 26.4729C84.45 27.5534 83.5396 28.9909 85.7115 29.5955C84.5345 29.7676 84.2558 30.17 84.4057 30.9365C84.4651 31.2313 84.1583 31.9848 83.9611 31.7303C83.265 30.8369 82.27 31.3701 81.5427 30.8983C82.1584 31.4748 81.3193 32.7463 82.6473 32.8329C82.4823 33.0602 82.4058 33.1658 82.3294 33.2715C81.3857 34.5984 80.5075 34.6225 79.4291 33.3489C79.1313 32.9958 77.4362 32.9395 77.3125 33.2986C77.0278 34.1286 76.3115 34.5712 75.6063 34.6899C75.057 34.7795 75.561 33.7735 75.0248 33.5139C74.9504 33.4797 74.9886 33.2584 74.9131 33.1689C74.1536 32.2403 73.8216 33.6296 73.207 33.4868C73.0883 33.4606 72.8146 33.2252 72.9263 33.5129C73.1476 34.0803 73.3327 34.7111 74.0822 34.9465C74.713 35.1456 75.1807 35.6426 75.3709 36.3116C75.6063 37.1114 74.5188 36.544 74.5148 37.1586C75.3326 37.9805 76.0861 36.4212 77.0428 37.0269C77.2531 37.1586 77.3728 35.6054 78.0428 35.035C78.3929 36.0581 78.8899 36.1124 79.5317 35.3609C80.2832 34.4827 80.6845 34.7412 80.8455 35.7684C80.9059 36.1577 80.9492 36.553 81.0347 36.9353C81.0538 37.0138 81.2217 37.0581 81.4008 37.1617C81.4008 36.9112 81.4008 36.7442 81.4008 36.5752C81.4008 36.4062 81.4008 36.2331 81.4008 36.048C82.9259 36.3991 83.0225 36.3207 82.7438 34.9112C82.6603 34.4917 82.7187 34.3781 83.1644 34.1829C83.936 33.8489 85.0808 34.2443 85.3605 32.9828C86.126 33.9395 87.0556 34.6678 86.5425 35.9756C86.467 36.1667 86.8322 36.3237 87.0294 36.2452C87.8332 35.9313 87.7215 36.6909 87.9549 37.0198C88.3462 37.5651 87.8181 37.544 87.5223 37.6757C87.2648 37.7914 87.2105 38.0802 87.4278 38.1898C89.0776 39.0177 87.3996 39.4543 87.137 39.5016C86.3584 39.6515 86.3453 39.9724 86.7236 40.4583C87.2125 41.0921 87.1441 41.5247 86.2115 41.8858C86.9429 41.9834 87.3101 42.1172 87.1602 42.8838C87.0787 43.2983 87.6179 43.7711 87.5102 44.3616C87.4941 44.4491 88.3372 44.2771 88.5364 44.6815C88.7668 45.1554 88.4156 45.4028 87.982 45.5256C88.0615 45.598 88.131 45.6986 88.2235 45.7388C89.4126 46.2619 88.9257 46.4289 88.1078 46.8676C87.4831 47.2036 86.2417 46.94 86.3473 48.3263C86.3704 48.5898 85.8826 48.3263 85.6512 48.109C85.2961 47.774 84.0788 47.6673 83.6945 47.8866C83.3163 48.1029 82.6915 48.4228 82.8937 48.7548C83.106 49.1039 83.2559 49.7689 83.9651 49.7336C84.5808 49.7095 84.7287 49.9348 84.3474 50.5274C84.1874 50.7759 84.2015 51.2779 84.452 51.6451C84.951 51.3362 85.5315 51.1048 85.1895 50.3554C85.0798 50.1139 85.1079 49.8373 85.3685 49.8534C86.0818 49.9006 86.46 49.8101 85.9862 49.0093C85.9017 48.8655 86.0345 48.5546 86.2125 48.6603C86.8544 49.0476 87.8352 48.3031 88.2869 49.4791C88.7819 50.7819 88.9207 50.7346 90.1037 50.2356C90.1389 50.2196 90.1913 50.2477 90.2355 50.2477C91.7375 50.295 92.7264 49.295 93.7837 48.4027C94.0312 48.8011 93.7083 49.2417 94.1469 49.5425C94.5986 49.8504 94.3068 50.4892 94.0895 50.6129C93.8199 50.7668 93.6388 50.8201 93.7635 51.125C93.8893 51.4388 94.178 51.3724 94.4487 51.3211C94.8028 51.2567 95.1478 50.798 95.521 51.2567C96.2393 52.135 97.2806 52.636 98.0612 53.4398C98.4505 53.8412 99.9062 54.2969 98.1246 54.8451C97.9998 54.8824 97.8298 55.2093 97.8671 55.2586C98.532 56.1348 96.9798 56.3823 97.3409 57.1569C97.184 57.2042 97.0019 57.3269 96.8731 57.2867C95.6216 56.9064 95.5371 57.9979 95.8691 58.4466C96.7705 59.6578 96.5311 60.68 95.848 61.7936C95.8249 61.8288 95.9164 61.9354 95.9536 62.0079C96.4465 61.3701 98.3419 60.8148 98.5521 61.2986C98.8499 61.9928 98.0501 62.4847 97.7423 63.0712C97.7232 63.1024 97.7513 63.1597 97.7765 63.3026C98.1497 63.5259 99.2604 63.1607 98.8238 64.3166C98.8077 64.3639 99.213 64.4696 99.3831 64.1124C99.7462 63.3378 100.488 62.9173 101.34 62.0481C100.87 63.705 102.165 63.6326 102.815 64.3036C101.313 64.7995 102.504 66.5993 100.87 67.2612C102.009 67.3336 102.403 66.5278 103.294 66.4554C103.109 66.9342 103.128 67.3608 103.213 67.8165C103.382 68.732 102.359 68.9241 101.823 69.1313C101.18 69.3818 101.406 68.5911 101.381 68.239C101.34 67.6404 100.855 67.5851 100.478 67.396C100.346 67.3296 100.033 67.3356 100.004 67.399C99.8146 67.8256 99.8126 68.3155 100.092 68.6636C100.688 69.416 100.49 69.9432 99.7462 70.3888C100.119 70.8254 101.036 70.242 101.07 70.9512C101.104 71.594 101.698 72.761 100.176 72.7429C100.069 72.7429 99.881 73.0869 99.8649 73.2811C99.8176 73.8998 99.4847 73.9531 99.0672 73.6835C98.2705 73.1644 97.9626 73.3948 97.9596 74.2951C97.9596 75.0003 97.6145 75.0607 97.1528 74.6271C96.5844 74.098 96.0834 73.8525 95.6005 74.7156C95.3088 75.2367 94.8662 75.1985 94.7967 74.6623C94.6961 73.9431 94.5361 73.9471 94.0442 74.3455C93.4949 74.7881 93.2163 74.5869 93.3692 73.938C93.4376 73.6463 93.5231 73.4169 93.2405 73.264C92.6258 72.934 92.2053 72.5346 92.1017 71.764C92.0514 71.4129 91.494 71.256 91.0785 71.2993C90.482 71.3677 91.0534 71.7168 90.9689 71.9361C90.7717 72.4602 90.486 72.2188 90.1279 72.1685C89.0937 72.0216 89.2496 70.5579 88.1722 70.4703C87.9197 70.4492 87.9751 69.6162 87.4872 70.0468C87.1753 70.3255 86.8966 70.75 87.3825 71.2671C87.8312 71.7449 87.5133 71.9079 86.957 72.0648C86.6069 72.1655 85.8031 72.2711 85.9158 72.5759C86.1834 73.2912 85.2769 73.3887 85.3715 73.9189C85.8554 74.2328 86.7699 73.8062 86.8332 74.5215C86.8876 75.0989 86.118 75.3494 85.623 75.6573C85.3474 75.8263 84.9037 75.9561 85.0365 76.4228C85.447 77.8755 84.8504 77.282 84.0355 77.0717C83.0376 76.8111 83.3867 75.952 82.9008 75.3253C82.0668 76.4299 81.2117 77.4449 79.7802 77.6522C79.6524 77.6683 79.1937 77.7719 79.6212 78.2397C80.2982 78.9821 79.9502 79.5505 79.078 80.0686C78.4382 80.4458 77.3145 79.5284 77.066 80.8724C77.0358 81.0354 76.6565 80.7426 76.4463 80.5937C75.392 79.8372 76.059 78.7698 76.0127 77.8192C74.9967 78.2025 75.0319 79.128 74.7924 80.0253C74.2059 79.6169 73.7301 79.0646 73.1738 79.8543C73.0299 80.0585 72.6456 79.7537 72.6396 79.4791C72.6315 79.0445 72.5722 78.5757 72.1185 78.5696C71.6527 78.5636 71.6587 79.1058 71.5249 79.473C71.4676 79.6279 71.1316 80.2155 70.9163 79.636C70.4072 78.2668 70.018 79.3805 69.7805 79.7064C69.2675 80.4137 69.0542 80.2879 68.7152 79.5726C68.355 78.8121 68.5774 77.8775 67.9436 77.2186C68.9466 76.9872 68.7242 75.8695 68.6619 75.5034C68.5462 74.8374 68.4556 73.2912 66.9214 74.3072C66.5754 74.5386 66.3712 74.2911 66.2434 73.9551C66.1157 73.6161 65.8038 73.4219 65.5231 73.6412C65.1137 73.9632 65.5865 74.112 65.7505 74.3354C66.4164 75.2478 67.3349 75.9701 67.7897 77.0395C67.5985 77.0295 67.2635 76.7105 67.3098 76.8504C67.5553 77.617 66.7323 78.0485 66.8088 78.6894C66.9325 79.7155 66.5221 79.4952 65.9426 79.1471C65.2998 78.7578 64.7123 78.622 64.5775 79.6622C64.5403 79.9408 64.7193 80.3261 64.3079 80.4619C63.83 80.6128 63.7928 79.973 63.5081 79.9368C62.978 79.8764 63.2526 78.8644 62.5102 79.1622C62.1581 79.304 61.7506 80.0132 61.471 79.3603C61.312 78.9952 61.2074 78.3051 61.7576 77.794C62.5061 77.0908 63.1047 76.6613 63.8985 77.7196C64.0413 77.9097 64.4316 78.466 64.8391 77.8986C65.1751 77.4268 64.666 77.3111 64.4477 77.0908C64.33 76.9721 64.161 76.8806 63.9981 76.8242C62.8784 76.4198 63.4417 75.0235 62.5545 74.4058C62.2335 74.1825 62.812 73.8193 63.0786 73.5336C63.3844 73.2006 63.0061 73.0598 62.6802 72.9441C61.6802 72.587 60.5565 72.5548 59.6903 71.8214C59.5465 71.6987 59.2618 71.6544 59.0666 71.6916C58.2568 71.8486 53.5367 74.4903 53.5216 75.3816C53.4884 77.783 55.7216 111.053 55.7216 111.053C52.5477 128.599 55.7397 143.299 55.8031 145.735H46.046V145.741ZM27.9732 52.9257C27.4772 52.9498 26.7992 53.1752 26.3515 52.3281C26.0769 51.807 25.1272 51.6068 24.7832 52.6833C24.6815 52.9941 24.6282 53.4609 24.1936 53.486C23.7037 53.5102 23.8325 52.971 23.6403 52.7366C23.3959 52.4348 23.0186 51.6229 22.6273 52.6732C22.5196 52.9649 22.3164 52.9267 22.1001 52.815C21.8245 52.6671 21.6243 52.8271 21.6293 53.0565C21.6434 53.7778 22.6394 53.9679 22.58 54.8291C22.5579 55.1238 23.0689 54.9568 23.3576 54.819C23.6916 54.659 24.0397 54.6188 24.3083 54.9819C24.3828 55.0795 24.5045 55.1449 24.6041 55.2264C24.8988 54.0293 26.1211 54.7345 26.6292 54.2546C27.0849 53.8271 27.2086 54.2194 27.4672 54.2767C28.2056 54.4357 28.9711 54.8391 29.6683 54.7375C30.4067 54.6309 31.1541 54.6289 31.9479 54.3864C30.628 53.8884 29.5496 52.8332 27.9732 52.9257ZM41.3127 38.3769C41.2836 39.556 41.8016 40.2873 42.8851 40.7139C43.531 40.9674 43.9857 41.4915 44.2241 42.1253C44.4313 42.6715 44.7764 42.3516 45.0742 42.3738C45.7361 42.42 45.3418 42.0126 45.3216 41.7842C45.2492 40.9271 45.3236 40.0871 44.8921 39.233C44.2895 38.0409 45.555 38.8004 45.8568 38.5087C45.709 38.1385 45.3126 38.0198 45.0933 38.0791C43.9475 38.39 43.6255 37.8256 43.7472 36.8558C43.8036 36.4072 43.4364 36.3951 43.374 36.5138C42.7775 37.6586 41.9395 37.4484 40.9174 36.8307C41.1065 37.5339 41.3228 37.9564 41.3127 38.3769ZM44.8005 56.9748C45.1939 57.172 45.5611 57.4577 45.9755 57.5774C46.4232 57.7032 46.6295 58.6357 47.2622 58.0322C47.8185 57.5 48.059 56.5916 47.6777 56.0845C47.06 55.2596 47.0379 54.3784 46.8759 53.484C46.8085 53.1048 46.5892 52.7587 46.1999 52.7969C45.7331 52.8412 45.9162 53.2708 45.9725 53.5404C46.1103 54.2023 45.5319 54.2466 45.1929 54.4287C44.4967 54.7948 44.2482 55.3511 44.2895 56.161C44.0853 56.5976 44.4293 56.7867 44.8005 56.9748ZM59.1511 31.6277C59.0797 30.8842 58.1381 30.9547 57.5888 31.6136C57.2639 32.0049 57.1653 33.021 56.1452 32.2665C55.8464 32.0462 55.4641 32.8168 55.1945 33.197C54.8444 33.693 54.4692 34.2483 54.6241 34.8569C54.7106 35.199 55.1603 35.3006 55.452 34.8911C56.2337 33.8026 56.7327 33.7775 57.9077 34.5652C58.5636 35.0028 58.8433 34.364 58.9469 33.8922C59.1159 33.1246 59.1662 32.858 60.1984 33.1377C61.2446 33.4234 60.303 32.3832 60.5696 31.9445C59.8845 32.4898 59.309 33.2664 59.1511 31.6277ZM66.7374 53.3543C66.5583 53.48 66.2213 53.5434 66.2434 53.2295C66.2887 52.5776 66.1851 52.2698 65.4728 52.6078C64.8752 52.8945 65.1187 53.5464 64.9004 53.7889C64.1801 54.5947 65.2575 54.8331 65.1942 55.3723C65.1549 55.6831 65.3119 56.0845 64.7606 55.827C64.0846 55.5162 64.1429 55.9618 64.1207 56.3863C64.0845 57.0704 64.4366 56.7314 64.7596 56.6771C66.7404 56.3451 67.9184 54.7677 67.675 52.5645C67.2766 52.9026 67.0241 53.15 66.7374 53.3543ZM34.4086 19.2348C33.644 19.2338 33.2537 18.6181 32.8684 18.0748C32.7134 17.8535 33.1551 17.1211 32.4297 17.4441C32.1491 17.5688 31.963 18.1855 32.2587 18.6241C32.3805 18.8032 32.5495 18.9631 32.7285 19.0859C33.7577 19.788 34.7013 20.5335 34.0374 21.9791C33.8875 22.3 34.0625 22.627 34.1872 22.6531C34.6601 22.7537 34.3019 22.2678 34.4599 22.1632C34.6158 22.0596 34.8874 22.4721 35.0464 22.0908C36.4115 22.8513 36.5946 22.2417 36.2666 21.0395C36.2898 19.4973 35.994 19.2348 34.4086 19.2348ZM79.4009 24.2929C79.7158 23.7487 80.1685 23.2467 79.7057 22.5314C79.1836 21.7216 78.8708 20.8061 78.6092 19.8293C77.9372 20.0637 77.3114 20.8192 76.6264 19.8957C76.4936 19.7156 76.0992 19.7689 75.9513 20.0607C75.8437 20.2709 75.6143 20.6542 75.9805 20.7085C76.4312 20.7739 76.2561 21.7296 76.7581 21.3242C78.251 20.111 78.4432 21.8111 78.5397 22.3222C78.6886 23.0998 78.9442 24.2165 77.6203 24.7527C78.5488 25.1732 79.0448 24.9046 79.4009 24.2929ZM63.1037 36.6516C62.8592 35.9997 64.0695 35.6567 63.4548 34.9042C63.2697 34.6809 62.7626 34.5813 62.986 34.0823C63.1711 33.6668 63.1339 33.2292 62.7234 32.9848C62.5333 32.8681 62.0967 32.8781 62.0595 33.189C62.0042 33.6487 61.0706 33.857 61.7013 34.4907C61.8512 34.6386 62.0001 34.8831 61.7416 35.043C61.5072 35.1869 60.8684 35.043 61.3372 35.6074C61.7134 36.0581 61.9076 36.709 62.5796 36.9001C62.7727 36.8086 63.1107 36.6647 63.1037 36.6516ZM39.1368 54.4055C39.4466 54.481 39.3913 54.6781 39.3168 54.9045C39.1891 55.2878 39.4365 55.3532 39.7313 55.3723C40.0482 55.3924 40.2323 55.2274 40.2856 54.9296C40.515 53.6269 39.9446 53.1752 38.4909 53.0686C37.7575 53.0112 37.1439 53.6017 36.3904 53.2134C37.9306 55.2083 38.0221 55.2465 39.1368 54.4055ZM84.8263 64.0058C84.0848 64.1416 83.3535 64.3388 82.6181 64.5148C82.8334 65.3719 81.9843 66.1143 82.2087 66.8427C82.3867 67.4121 83.28 67.2531 83.4199 66.729C83.6593 65.8166 84.3514 65.4896 84.9933 65.047C85.1764 64.9222 85.3786 64.8156 85.3152 64.5178C85.1844 64.3297 85.1593 63.9494 84.8263 64.0058ZM77.5579 46.9511C78.3908 47.7538 78.078 48.6673 77.8215 49.8151C78.4502 49.2568 79.1403 49.8403 79.7007 49.0435C80.0155 48.5989 80.8234 48.4782 80.8435 47.613C80.1313 47.6905 79.927 48.3031 79.3144 48.5315C79.4935 46.6915 79.4844 46.6814 77.5579 46.9511ZM62.2948 55.6791C62.5665 54.9478 62.8441 53.9508 61.5082 53.7466C61.3392 53.7214 61.1149 53.6782 61.0324 53.5575C60.7396 53.147 60.3624 53.1742 60.1873 53.5263C59.9811 53.9407 60.2366 54.1098 60.7316 54.2556C61.5545 54.49 61.2205 55.2677 61.2346 55.8823C61.2466 56.6137 60.6823 56.3441 60.2105 56.4889C61.6551 57.7635 61.9971 56.4799 62.2948 55.6791ZM36.4558 72.6996C37.0735 72.6543 36.7485 71.7288 37.1137 71.3063C38.1811 70.07 36.7284 69.7722 36.2706 69.1092C36.1167 68.8889 35.8371 68.9804 35.6751 69.1062C35.322 69.3728 35.6711 69.5398 35.822 69.7148C36.5533 70.5498 36.5664 71.1675 35.1218 71.4411C35.822 71.7701 35.831 72.7469 36.4558 72.6996ZM82.1412 69.4774C82.3133 69.3175 82.4672 69.2138 82.4169 68.9623C81.9068 69.408 81.6735 68.4362 81.1685 68.7249C80.9612 68.8426 80.5779 68.7521 80.6443 69.1444C80.7681 69.8778 80.9964 70.582 80.1836 71.1433C80.0548 71.2339 80.5317 71.7802 80.9069 71.8486C81.3093 71.923 81.7368 71.8646 82.5638 71.8646C81.1966 70.9965 81.3374 70.2199 82.1412 69.4774ZM78.4925 27.8723C78.7852 27.7666 79.085 27.6077 78.8194 27.2023C78.6172 26.8934 78.3396 26.7506 78.072 27.0554C77.7249 27.4487 77.1213 26.8069 76.7923 27.5302C76.2803 28.665 76.4644 29.1398 78.0126 29.4829C77.5499 28.6489 77.7148 28.155 78.4925 27.8723ZM76.058 55.1872C76.1857 55.9296 75.9885 56.659 75.572 57.3742C76.4875 56.3662 78.0187 59.018 78.7933 56.6841C76.8396 57.7746 77.2471 55.331 76.058 55.1872ZM88.4237 66.7381C88.3654 67.4 89.2064 67.5891 89.643 67.901C89.8975 68.0861 89.9347 67.4473 89.9408 67.1053C89.9528 66.7411 90.2295 66.5178 90.4558 66.2451C90.8542 65.7683 90.645 65.377 89.9508 65.0762C89.9941 66.212 88.5052 65.8478 88.4237 66.7381ZM78.0971 71.0236C78.2721 70.6685 77.8889 70.5689 77.6806 70.4905C76.6766 70.1041 75.6576 69.7531 74.6425 69.399C74.4605 69.3336 74.2452 69.3708 74.2653 69.5991C74.2874 69.8878 74.2974 70.3738 74.6837 70.2953C75.8245 70.0659 76.4503 70.7027 77.0348 71.4934C77.0811 71.5568 77.1867 71.579 77.2712 71.6192C77.6474 71.5639 77.9422 71.3385 78.0971 71.0236ZM96.1589 72.3536C96.3903 72.5367 96.5039 72.3536 96.6538 72.1564C96.9959 71.7047 97.2755 71.259 97.1588 70.6565C97.1125 70.413 97.0431 70.1333 97.4204 70.0297C97.5703 69.9885 98.1286 70.2239 97.7966 69.8446C97.5703 69.58 97.6396 69.1384 97.2876 69.0469C96.9485 68.9563 96.9023 69.3255 96.7323 69.5046C96.1247 70.1484 96.3872 71.2148 95.6277 71.7862C95.8068 71.9743 95.9577 72.1966 96.1589 72.3536ZM18.3166 38.399C18.884 38.3367 19.5338 37.6275 19.6606 36.9565C19.8095 36.1748 18.9031 36.373 18.5087 36.2191C18.046 36.043 17.7562 36.4977 17.8669 37.1918C18.0218 37.5118 17.7804 38.4554 18.3166 38.399ZM57.8393 16.2268C58.4952 16.3626 58.1592 16.9944 58.3655 17.3626C58.4007 17.426 57.8986 17.8213 58.3594 18.0094C58.5455 18.0849 58.9469 17.9481 59.0626 17.7801C59.2095 17.5688 59.4912 17.2328 59.2155 16.9501C58.8936 16.6171 58.3745 16.4753 59.0093 15.8667C59.2507 15.6353 58.6944 15.2419 58.3433 15.4431C58.0284 15.6242 57.5637 14.8778 57.4178 15.581C57.4349 15.919 57.5174 16.1604 57.8393 16.2268ZM50.743 13.6615C51.2661 13.8607 51.6927 13.3949 51.7158 12.8899C51.7359 12.3919 51.5679 11.6193 51.0629 11.6294C50.6464 11.6384 50.0629 11.7672 49.3064 12.07C50.3003 12.3889 50.078 13.409 50.743 13.6615ZM70.6367 53.2738C69.517 53.474 68.6307 53.8884 68.3872 55.1208C69.2685 54.6852 71.023 55.3501 70.6367 53.2738ZM71.3026 76.7025C71.372 77.2548 71.8449 77.8051 72.3368 77.9127C72.6758 77.9851 73.2382 77.4389 73.2251 76.9631C73.208 76.4339 72.705 76.2076 72.2442 76.1794C71.7875 76.2126 71.2352 76.1753 71.3026 76.7025ZM38.0362 34.9666C38.2605 35.538 38.4517 36.1275 38.9969 36.4846C39.0694 36.5319 39.2736 36.4947 39.34 36.4223C39.509 36.2341 39.4245 36.0078 39.3369 35.8046C39.0543 35.1517 38.6217 34.5622 38.6096 33.7936C37.9024 34.032 37.8229 34.4213 38.0362 34.9666ZM93.9658 66.7029C94.0282 67.2018 94.345 67.3024 94.7967 67.2431C95.5563 67.1425 95.2364 66.3769 95.5724 66.0188C95.3209 65.8337 95.4778 65.2945 94.9657 65.3176C94.4989 65.6908 93.8712 65.9383 93.9658 66.7029ZM85.2095 45.603C85.3071 45.2952 86.1069 45.267 85.5797 44.7278C85.2025 44.3415 84.6814 44.3888 84.2035 44.423C83.7458 44.4572 83.7166 44.9944 83.9199 45.0658C84.6794 45.3384 84.3454 46.1483 84.8454 46.7287C85.0053 46.2297 85.112 45.9159 85.2095 45.603ZM82.5396 72.1815C82.0396 72.7338 82.6291 73.4089 82.6633 74.0426C82.6784 74.2942 83.439 74.6613 83.8766 74.6865C84.289 74.7106 84.1804 74.2821 83.9088 74.0939C83.7408 73.9773 83.3857 74.0527 83.2911 73.9169C82.8233 73.259 83.5034 72.9381 83.8877 72.3073C83.3465 72.2439 82.7056 71.9964 82.5396 72.1815ZM25.9984 35.0521C26.7589 35.0732 27.1704 34.4133 27.7599 34.1155C27.9681 34.0099 27.275 33.5431 27.0788 33.5632C26.4531 33.6276 26.0588 34.3177 25.2469 34.1849C25.5356 34.6094 25.5024 35.039 25.9984 35.0521ZM36.322 51.4378C35.4246 50.624 34.6832 50.7185 33.8341 51.6953C34.8039 52.0464 35.5363 52.0062 36.322 51.4378ZM84.784 38.8729C84.9269 39.0701 85.0617 39.0107 85.1753 38.8165C85.3262 38.559 85.633 38.2954 85.2387 38.0288C84.7961 37.7311 84.3203 37.4796 83.773 37.1597C83.5436 38.2461 84.4219 38.3799 84.784 38.8729ZM33.5796 53.7214C33.8532 53.5585 33.9881 52.985 33.8543 52.9408C33.1279 52.7064 32.3794 52.8341 31.3201 53.1742C32.2648 53.478 32.7678 54.2104 33.5796 53.7214ZM55.2519 15.8737C55.1865 15.9693 55.4088 16.3998 55.8374 16.4904C56.7901 16.6956 56.7136 15.9663 56.9983 15.3234C56.2398 15.3003 55.6271 15.3214 55.2519 15.8737ZM38.6408 37.0752C38.6639 37.053 38.3682 36.4756 38.2515 36.4856C37.4457 36.5641 37.1157 37.1949 36.7948 37.9383C37.7113 38.0701 38.1418 37.4896 38.6408 37.0752ZM94.1197 59.2565C93.0946 59.5734 92.5544 58.3169 91.2466 58.3712C92.2687 59.3148 92.9336 60.2936 94.1197 59.2565ZM31.9348 42.082C31.4147 41.7239 30.7618 41.5448 30.1512 41.3356C29.8715 41.241 29.4771 41.4452 29.6522 41.6806C30.0687 42.242 30.7628 42.3546 31.299 42.3335C31.7497 42.4653 32.1239 42.2138 31.9348 42.082ZM55.0275 31.4939C55.1885 31.6488 55.4068 31.3591 55.3867 31.2826C55.2318 30.678 56.3937 29.7686 54.8535 29.4618C54.4843 30.181 54.3947 30.8852 55.0275 31.4939ZM73.0621 56.9939C72.7733 57.0754 72.4555 57.1358 72.547 57.5744C72.7331 58.4939 73.4645 57.8662 73.9504 58.0382C73.6345 57.678 73.9956 56.7233 73.0621 56.9939ZM43.866 54.7315C43.9726 54.5997 44.1929 54.4095 44.1607 54.3421C43.9414 53.8784 44.1919 53.1058 43.4153 53.0102C43.036 52.9629 42.9706 53.3422 42.9465 53.659C42.7674 54.4367 44.1326 53.8844 43.866 54.7315ZM23.5428 70.8576C23.759 70.92 23.9753 70.8104 24.0971 70.5911C24.1795 70.4402 24.093 70.3607 23.9713 70.2923C23.753 70.1706 23.5488 69.9402 23.3325 70.3084C23.2691 70.413 23.1403 70.5398 23.0377 70.5438C22.1394 70.581 22.1374 70.5709 22.6202 71.5568C22.6605 70.92 22.9221 70.6725 23.5428 70.8576ZM42.1085 72.094C42.6467 72.1383 42.7211 71.6333 42.8449 71.2912C43.032 70.7792 42.5853 70.8546 42.3006 70.8395C41.8801 70.8174 41.5501 70.9361 41.5049 71.3948C41.4002 71.9461 41.7584 72.0648 42.1085 72.094ZM50.2068 33.6185C50.1847 33.3721 50.3064 32.9043 49.7792 33.027C49.4251 33.1105 49.2682 33.4344 49.4161 33.7433C49.6364 34.204 49.4795 34.8127 50.2199 35.3398C50.2199 34.6316 50.247 34.1215 50.2068 33.6185ZM21.1112 63.3569C22.1464 63.6165 22.8959 63.042 23.8134 62.4274C22.5277 62.0913 21.9613 63.0833 21.1112 63.3569ZM42.527 55.3401C42.7453 55.0554 42.5863 54.8391 42.358 54.6751C42.1336 54.5152 41.9576 54.6349 41.8077 54.8391C41.5894 55.1399 41.6477 55.663 41.0904 55.7133C41.8711 56.3602 42.1819 55.7958 42.527 55.3401ZM88.7587 62.8378C89.3251 62.9384 88.9287 62.2302 89.3211 62.201C89.2134 61.8248 88.9117 61.6115 88.5847 61.5059C88.4499 61.4586 87.973 61.3449 88.1722 62.032C88.2778 62.2071 88.1752 62.7382 88.7587 62.8378Z" fill="#692C33"/>
</svg>
