<svg width="994" height="477" viewBox="0 0 994 477" fill="none" xmlns="http://www.w3.org/2000/svg">
<path d="M0 250.5C0 254.918 3.58172 258.5 8 258.5C12.4183 258.5 16 254.918 16 250.5C16 246.082 12.4183 242.5 8 242.5C3.58172 242.5 0 246.082 0 250.5ZM978 250.5C978 254.918 981.582 258.5 986 258.5C990.418 258.5 994 254.918 994 250.5C994 246.082 990.418 242.5 986 242.5C981.582 242.5 978 246.082 978 250.5ZM9.5 250.5V120H6.5V250.5H9.5ZM58 71.5H150V68.5H58V71.5ZM198.5 120V425.5H201.5V120H198.5ZM250 477H349V474H250V477ZM400.5 425.5V52H397.5V425.5H400.5ZM449 3.5H543V0.5H449V3.5ZM591.5 52V425.5H594.5V52H591.5ZM643 477H741V474H643V477ZM792.5 425.5V120H789.5V425.5H792.5ZM841 71.5H936V68.5H841V71.5ZM984.5 120V250.5H987.5V120H984.5ZM936 71.5C962.786 71.5 984.5 93.2142 984.5 120H987.5C987.5 91.5573 964.443 68.5 936 68.5V71.5ZM792.5 120C792.5 93.2142 814.214 71.5 841 71.5V68.5C812.557 68.5 789.5 91.5573 789.5 120H792.5ZM741 477C769.443 477 792.5 453.943 792.5 425.5H789.5C789.5 452.286 767.786 474 741 474V477ZM591.5 425.5C591.5 453.943 614.557 477 643 477V474C616.214 474 594.5 452.286 594.5 425.5H591.5ZM543 3.5C569.786 3.5 591.5 25.2142 591.5 52H594.5C594.5 23.5573 571.443 0.5 543 0.5V3.5ZM400.5 52C400.5 25.2142 422.214 3.5 449 3.5V0.5C420.557 0.5 397.5 23.5573 397.5 52H400.5ZM349 477C377.443 477 400.5 453.943 400.5 425.5H397.5C397.5 452.286 375.786 474 349 474V477ZM198.5 425.5C198.5 453.943 221.557 477 250 477V474C223.214 474 201.5 452.286 201.5 425.5H198.5ZM150 71.5C176.786 71.5 198.5 93.2142 198.5 120H201.5C201.5 91.5573 178.443 68.5 150 68.5V71.5ZM9.5 120C9.5 93.2142 31.2142 71.5 58 71.5V68.5C29.5573 68.5 6.5 91.5573 6.5 120H9.5Z" fill="#FF6477"/>
</svg>
