<svg width="90" height="90" viewBox="0 0 90 90" fill="none" xmlns="http://www.w3.org/2000/svg">
<rect width="90" height="90" rx="45" fill="#FF5573"/>
<path d="M72.6883 34.717C75.0406 41.0352 75.1602 47.9681 73.0272 54.3637C70.8942 60.7592 66.6371 66.2324 60.9632 69.8739C55.2893 73.5153 48.5403 75.1056 41.8375 74.3807C35.1347 73.6558 28.8817 70.6592 24.1176 65.8889C18.766 60.5549 15.6625 53.3726 15.4458 45.8198C15.229 38.2671 17.9155 30.9186 22.9524 25.2865C27.9893 19.6544 34.9934 16.1672 42.5234 15.5426C50.0533 14.9179 57.5363 17.2032 63.4324 21.9283L68.9285 16.4295C69.2337 16.1243 69.5961 15.8822 69.9949 15.717C70.3937 15.5518 70.8211 15.4668 71.2527 15.4668C71.6844 15.4668 72.1118 15.5518 72.5106 15.717C72.9094 15.8822 73.2717 16.1243 73.577 16.4295C73.8822 16.7347 74.1243 17.0971 74.2895 17.4959C74.4547 17.8947 74.5397 18.3221 74.5397 18.7537C74.5397 19.1854 74.4547 19.6128 74.2895 20.0116C74.1243 20.4104 73.8822 20.7727 73.577 21.0779L47.327 47.3279C47.0217 47.6332 46.6594 47.8753 46.2606 48.0405C45.8618 48.2057 45.4344 48.2907 45.0027 48.2907C44.5711 48.2907 44.1437 48.2057 43.7449 48.0405C43.3461 47.8753 42.9837 47.6332 42.6785 47.3279C42.3733 47.0227 42.1312 46.6604 41.966 46.2616C41.8008 45.8628 41.7158 45.4354 41.7158 45.0037C41.7158 44.5721 41.8008 44.1447 41.966 43.7459C42.1312 43.3471 42.3733 42.9847 42.6785 42.6795L49.241 36.117C47.3914 35.2333 45.3121 34.9491 43.2932 35.304C41.2743 35.6589 39.4166 36.6352 37.9792 38.0966C36.5419 39.5581 35.5966 41.4318 35.2753 43.4563C34.9541 45.4808 35.2728 47.5552 36.1872 49.3898C37.1015 51.2244 38.5657 52.7279 40.3756 53.6903C42.1854 54.6528 44.2506 55.0262 46.2829 54.7586C48.3152 54.4909 50.2132 53.5954 51.7121 52.1972C53.211 50.7989 54.2361 48.9676 54.6441 46.9588C54.816 46.1056 55.3198 45.3556 56.0446 44.8739C56.7695 44.3921 57.656 44.218 58.5092 44.3899C59.3624 44.5617 60.1124 45.0655 60.5941 45.7903C61.0759 46.5152 61.25 47.4017 61.0781 48.2549C60.3792 51.6979 58.5934 54.8257 55.9837 57.1778C53.374 59.5299 50.0782 60.9821 46.5813 61.3208C43.0844 61.6595 39.5711 60.8666 36.5586 59.059C33.546 57.2514 31.1933 54.5245 29.8466 51.2795C28.5 48.0346 28.2306 44.4431 29.078 41.0336C29.9255 37.624 31.845 34.5766 34.5542 32.3397C37.2633 30.1029 40.619 28.7948 44.1273 28.6079C47.6355 28.4211 51.1112 29.3653 54.0426 31.3018L58.7539 26.6069C54.3283 23.3017 48.8599 21.702 43.3507 22.1011C37.8416 22.5001 32.6607 24.871 28.7576 28.7795C24.8545 32.6879 22.4906 37.8719 22.099 43.3816C21.7075 48.8913 23.3145 54.3576 26.6257 58.7787C29.9369 63.1998 34.7304 66.2796 40.1277 67.4537C45.5251 68.6278 51.1648 67.8175 56.0133 65.1714C60.8618 62.5253 64.5944 58.2206 66.527 53.0461C68.4596 47.8717 68.4628 42.1741 66.5359 36.9975C66.3826 36.5928 66.3108 36.1617 66.3247 35.7291C66.3386 35.2965 66.4379 34.871 66.617 34.477C66.7961 34.0829 67.0514 33.7282 67.3681 33.4333C67.6849 33.1383 68.0568 32.909 68.4626 32.7584C68.8684 32.6078 69.2999 32.539 69.7324 32.5559C70.1649 32.5728 70.5897 32.6751 70.9825 32.8569C71.3753 33.0387 71.7282 33.2964 72.021 33.6152C72.3137 33.9339 72.5405 34.3075 72.6883 34.7143V34.717Z" fill="white"/>
</svg>
